<?xml version="1.0" encoding="utf-8" standalone="no"?>
<!DOCTYPE svg PUBLIC "-//W3C//DTD SVG 1.1//EN"
  "http://www.w3.org/Graphics/SVG/1.1/DTD/svg11.dtd">
<svg xmlns:xlink="http://www.w3.org/1999/xlink" width="370.942187pt" height="363.718125pt" viewBox="0 0 370.942187 363.718125" xmlns="http://www.w3.org/2000/svg" version="1.1">
 <metadata>
  <rdf:RDF xmlns:dc="http://purl.org/dc/elements/1.1/" xmlns:cc="http://creativecommons.org/ns#" xmlns:rdf="http://www.w3.org/1999/02/22-rdf-syntax-ns#">
   <cc:Work>
    <dc:type rdf:resource="http://purl.org/dc/dcmitype/StillImage"/>
    <dc:date>2022-05-09T09:55:13.185952</dc:date>
    <dc:format>image/svg+xml</dc:format>
    <dc:creator>
     <cc:Agent>
      <dc:title>Matplotlib v3.5.1, https://matplotlib.org/</dc:title>
     </cc:Agent>
    </dc:creator>
   </cc:Work>
  </rdf:RDF>
 </metadata>
 <defs>
  <style type="text/css">*{stroke-linejoin: round; stroke-linecap: butt}</style>
 </defs>
 <g id="figure_1">
  <g id="patch_1">
   <path d="M 0 363.718125 
L 370.942187 363.718125 
L 370.942187 0 
L 0 0 
L 0 363.718125 
z
" style="fill: none"/>
  </g>
  <g id="axes_1">
   <g id="patch_2">
    <path d="M 28.942188 339.84 
L 363.742188 339.84 
L 363.742188 7.2 
L 28.942188 7.2 
z
" style="fill: #ffffff"/>
   </g>
   <g id="matplotlib.axis_1">
    <g id="xtick_1">
     <g id="line2d_1">
      <defs>
       <path id="m59f024486d" d="M 0 0 
L 0 3.5 
" style="stroke: #000000; stroke-width: 0.8"/>
      </defs>
      <g>
       <use xlink:href="#m59f024486d" x="44.160369" y="339.84" style="stroke: #000000; stroke-width: 0.8"/>
      </g>
     </g>
     <g id="text_1">
      <!-- 0 -->
      <g transform="translate(40.979119 354.438438)scale(0.1 -0.1)">
       <defs>
        <path id="DejaVuSans-30" d="M 2034 4250 
Q 1547 4250 1301 3770 
Q 1056 3291 1056 2328 
Q 1056 1369 1301 889 
Q 1547 409 2034 409 
Q 2525 409 2770 889 
Q 3016 1369 3016 2328 
Q 3016 3291 2770 3770 
Q 2525 4250 2034 4250 
z
M 2034 4750 
Q 2819 4750 3233 4129 
Q 3647 3509 3647 2328 
Q 3647 1150 3233 529 
Q 2819 -91 2034 -91 
Q 1250 -91 836 529 
Q 422 1150 422 2328 
Q 422 3509 836 4129 
Q 1250 4750 2034 4750 
z
" transform="scale(0.015625)"/>
       </defs>
       <use xlink:href="#DejaVuSans-30"/>
      </g>
     </g>
    </g>
    <g id="xtick_2">
     <g id="line2d_2">
      <g>
       <use xlink:href="#m59f024486d" x="105.09403" y="339.84" style="stroke: #000000; stroke-width: 0.8"/>
      </g>
     </g>
     <g id="text_2">
      <!-- 200 -->
      <g transform="translate(95.55028 354.438438)scale(0.1 -0.1)">
       <defs>
        <path id="DejaVuSans-32" d="M 1228 531 
L 3431 531 
L 3431 0 
L 469 0 
L 469 531 
Q 828 903 1448 1529 
Q 2069 2156 2228 2338 
Q 2531 2678 2651 2914 
Q 2772 3150 2772 3378 
Q 2772 3750 2511 3984 
Q 2250 4219 1831 4219 
Q 1534 4219 1204 4116 
Q 875 4013 500 3803 
L 500 4441 
Q 881 4594 1212 4672 
Q 1544 4750 1819 4750 
Q 2544 4750 2975 4387 
Q 3406 4025 3406 3419 
Q 3406 3131 3298 2873 
Q 3191 2616 2906 2266 
Q 2828 2175 2409 1742 
Q 1991 1309 1228 531 
z
" transform="scale(0.015625)"/>
       </defs>
       <use xlink:href="#DejaVuSans-32"/>
       <use xlink:href="#DejaVuSans-30" x="63.623047"/>
       <use xlink:href="#DejaVuSans-30" x="127.246094"/>
      </g>
     </g>
    </g>
    <g id="xtick_3">
     <g id="line2d_3">
      <g>
       <use xlink:href="#m59f024486d" x="166.027691" y="339.84" style="stroke: #000000; stroke-width: 0.8"/>
      </g>
     </g>
     <g id="text_3">
      <!-- 400 -->
      <g transform="translate(156.483941 354.438438)scale(0.1 -0.1)">
       <defs>
        <path id="DejaVuSans-34" d="M 2419 4116 
L 825 1625 
L 2419 1625 
L 2419 4116 
z
M 2253 4666 
L 3047 4666 
L 3047 1625 
L 3713 1625 
L 3713 1100 
L 3047 1100 
L 3047 0 
L 2419 0 
L 2419 1100 
L 313 1100 
L 313 1709 
L 2253 4666 
z
" transform="scale(0.015625)"/>
       </defs>
       <use xlink:href="#DejaVuSans-34"/>
       <use xlink:href="#DejaVuSans-30" x="63.623047"/>
       <use xlink:href="#DejaVuSans-30" x="127.246094"/>
      </g>
     </g>
    </g>
    <g id="xtick_4">
     <g id="line2d_4">
      <g>
       <use xlink:href="#m59f024486d" x="226.961352" y="339.84" style="stroke: #000000; stroke-width: 0.8"/>
      </g>
     </g>
     <g id="text_4">
      <!-- 600 -->
      <g transform="translate(217.417602 354.438438)scale(0.1 -0.1)">
       <defs>
        <path id="DejaVuSans-36" d="M 2113 2584 
Q 1688 2584 1439 2293 
Q 1191 2003 1191 1497 
Q 1191 994 1439 701 
Q 1688 409 2113 409 
Q 2538 409 2786 701 
Q 3034 994 3034 1497 
Q 3034 2003 2786 2293 
Q 2538 2584 2113 2584 
z
M 3366 4563 
L 3366 3988 
Q 3128 4100 2886 4159 
Q 2644 4219 2406 4219 
Q 1781 4219 1451 3797 
Q 1122 3375 1075 2522 
Q 1259 2794 1537 2939 
Q 1816 3084 2150 3084 
Q 2853 3084 3261 2657 
Q 3669 2231 3669 1497 
Q 3669 778 3244 343 
Q 2819 -91 2113 -91 
Q 1303 -91 875 529 
Q 447 1150 447 2328 
Q 447 3434 972 4092 
Q 1497 4750 2381 4750 
Q 2619 4750 2861 4703 
Q 3103 4656 3366 4563 
z
" transform="scale(0.015625)"/>
       </defs>
       <use xlink:href="#DejaVuSans-36"/>
       <use xlink:href="#DejaVuSans-30" x="63.623047"/>
       <use xlink:href="#DejaVuSans-30" x="127.246094"/>
      </g>
     </g>
    </g>
    <g id="xtick_5">
     <g id="line2d_5">
      <g>
       <use xlink:href="#m59f024486d" x="287.895013" y="339.84" style="stroke: #000000; stroke-width: 0.8"/>
      </g>
     </g>
     <g id="text_5">
      <!-- 800 -->
      <g transform="translate(278.351263 354.438438)scale(0.1 -0.1)">
       <defs>
        <path id="DejaVuSans-38" d="M 2034 2216 
Q 1584 2216 1326 1975 
Q 1069 1734 1069 1313 
Q 1069 891 1326 650 
Q 1584 409 2034 409 
Q 2484 409 2743 651 
Q 3003 894 3003 1313 
Q 3003 1734 2745 1975 
Q 2488 2216 2034 2216 
z
M 1403 2484 
Q 997 2584 770 2862 
Q 544 3141 544 3541 
Q 544 4100 942 4425 
Q 1341 4750 2034 4750 
Q 2731 4750 3128 4425 
Q 3525 4100 3525 3541 
Q 3525 3141 3298 2862 
Q 3072 2584 2669 2484 
Q 3125 2378 3379 2068 
Q 3634 1759 3634 1313 
Q 3634 634 3220 271 
Q 2806 -91 2034 -91 
Q 1263 -91 848 271 
Q 434 634 434 1313 
Q 434 1759 690 2068 
Q 947 2378 1403 2484 
z
M 1172 3481 
Q 1172 3119 1398 2916 
Q 1625 2713 2034 2713 
Q 2441 2713 2670 2916 
Q 2900 3119 2900 3481 
Q 2900 3844 2670 4047 
Q 2441 4250 2034 4250 
Q 1625 4250 1398 4047 
Q 1172 3844 1172 3481 
z
" transform="scale(0.015625)"/>
       </defs>
       <use xlink:href="#DejaVuSans-38"/>
       <use xlink:href="#DejaVuSans-30" x="63.623047"/>
       <use xlink:href="#DejaVuSans-30" x="127.246094"/>
      </g>
     </g>
    </g>
    <g id="xtick_6">
     <g id="line2d_6">
      <g>
       <use xlink:href="#m59f024486d" x="348.828674" y="339.84" style="stroke: #000000; stroke-width: 0.8"/>
      </g>
     </g>
     <g id="text_6">
      <!-- 1000 -->
      <g transform="translate(336.103674 354.438438)scale(0.1 -0.1)">
       <defs>
        <path id="DejaVuSans-31" d="M 794 531 
L 1825 531 
L 1825 4091 
L 703 3866 
L 703 4441 
L 1819 4666 
L 2450 4666 
L 2450 531 
L 3481 531 
L 3481 0 
L 794 0 
L 794 531 
z
" transform="scale(0.015625)"/>
       </defs>
       <use xlink:href="#DejaVuSans-31"/>
       <use xlink:href="#DejaVuSans-30" x="63.623047"/>
       <use xlink:href="#DejaVuSans-30" x="127.246094"/>
       <use xlink:href="#DejaVuSans-30" x="190.869141"/>
      </g>
     </g>
    </g>
   </g>
   <g id="matplotlib.axis_2">
    <g id="ytick_1">
     <g id="line2d_7">
      <defs>
       <path id="m7245322cac" d="M 0 0 
L -3.5 0 
" style="stroke: #000000; stroke-width: 0.8"/>
      </defs>
      <g>
       <use xlink:href="#m7245322cac" x="28.942188" y="312.078987" style="stroke: #000000; stroke-width: 0.8"/>
      </g>
     </g>
     <g id="text_7">
      <!-- −3 -->
      <g transform="translate(7.2 315.878206)scale(0.1 -0.1)">
       <defs>
        <path id="DejaVuSans-2212" d="M 678 2272 
L 4684 2272 
L 4684 1741 
L 678 1741 
L 678 2272 
z
" transform="scale(0.015625)"/>
        <path id="DejaVuSans-33" d="M 2597 2516 
Q 3050 2419 3304 2112 
Q 3559 1806 3559 1356 
Q 3559 666 3084 287 
Q 2609 -91 1734 -91 
Q 1441 -91 1130 -33 
Q 819 25 488 141 
L 488 750 
Q 750 597 1062 519 
Q 1375 441 1716 441 
Q 2309 441 2620 675 
Q 2931 909 2931 1356 
Q 2931 1769 2642 2001 
Q 2353 2234 1838 2234 
L 1294 2234 
L 1294 2753 
L 1863 2753 
Q 2328 2753 2575 2939 
Q 2822 3125 2822 3475 
Q 2822 3834 2567 4026 
Q 2313 4219 1838 4219 
Q 1578 4219 1281 4162 
Q 984 4106 628 3988 
L 628 4550 
Q 988 4650 1302 4700 
Q 1616 4750 1894 4750 
Q 2613 4750 3031 4423 
Q 3450 4097 3450 3541 
Q 3450 3153 3228 2886 
Q 3006 2619 2597 2516 
z
" transform="scale(0.015625)"/>
       </defs>
       <use xlink:href="#DejaVuSans-2212"/>
       <use xlink:href="#DejaVuSans-33" x="83.789062"/>
      </g>
     </g>
    </g>
    <g id="ytick_2">
     <g id="line2d_8">
      <g>
       <use xlink:href="#m7245322cac" x="28.942188" y="267.634482" style="stroke: #000000; stroke-width: 0.8"/>
      </g>
     </g>
     <g id="text_8">
      <!-- −2 -->
      <g transform="translate(7.2 271.433701)scale(0.1 -0.1)">
       <use xlink:href="#DejaVuSans-2212"/>
       <use xlink:href="#DejaVuSans-32" x="83.789062"/>
      </g>
     </g>
    </g>
    <g id="ytick_3">
     <g id="line2d_9">
      <g>
       <use xlink:href="#m7245322cac" x="28.942188" y="223.189977" style="stroke: #000000; stroke-width: 0.8"/>
      </g>
     </g>
     <g id="text_9">
      <!-- −1 -->
      <g transform="translate(7.2 226.989196)scale(0.1 -0.1)">
       <use xlink:href="#DejaVuSans-2212"/>
       <use xlink:href="#DejaVuSans-31" x="83.789062"/>
      </g>
     </g>
    </g>
    <g id="ytick_4">
     <g id="line2d_10">
      <g>
       <use xlink:href="#m7245322cac" x="28.942188" y="178.745472" style="stroke: #000000; stroke-width: 0.8"/>
      </g>
     </g>
     <g id="text_10">
      <!-- 0 -->
      <g transform="translate(15.579688 182.54469)scale(0.1 -0.1)">
       <use xlink:href="#DejaVuSans-30"/>
      </g>
     </g>
    </g>
    <g id="ytick_5">
     <g id="line2d_11">
      <g>
       <use xlink:href="#m7245322cac" x="28.942188" y="134.300967" style="stroke: #000000; stroke-width: 0.8"/>
      </g>
     </g>
     <g id="text_11">
      <!-- 1 -->
      <g transform="translate(15.579688 138.100185)scale(0.1 -0.1)">
       <use xlink:href="#DejaVuSans-31"/>
      </g>
     </g>
    </g>
    <g id="ytick_6">
     <g id="line2d_12">
      <g>
       <use xlink:href="#m7245322cac" x="28.942188" y="89.856461" style="stroke: #000000; stroke-width: 0.8"/>
      </g>
     </g>
     <g id="text_12">
      <!-- 2 -->
      <g transform="translate(15.579688 93.65568)scale(0.1 -0.1)">
       <use xlink:href="#DejaVuSans-32"/>
      </g>
     </g>
    </g>
    <g id="ytick_7">
     <g id="line2d_13">
      <g>
       <use xlink:href="#m7245322cac" x="28.942188" y="45.411956" style="stroke: #000000; stroke-width: 0.8"/>
      </g>
     </g>
     <g id="text_13">
      <!-- 3 -->
      <g transform="translate(15.579688 49.211175)scale(0.1 -0.1)">
       <use xlink:href="#DejaVuSans-33"/>
      </g>
     </g>
    </g>
   </g>
   <g id="line2d_14">
    <path d="M 44.465038 161.966333 
L 44.769706 190.611355 
M 45.379043 195.374163 
L 45.683711 198.830621 
M 46.293047 181.426169 
L 46.597716 182.544069 
M 47.207052 142.72758 
L 47.511721 152.059555 
M 48.121057 154.539886 
L 48.425726 259.25722 
M 49.035062 182.213338 
L 49.33973 227.523897 
M 49.949067 216.047007 
L 50.253735 193.44083 
M 50.863072 152.524609 
L 51.16774 101.362994 
M 51.777077 177.952789 
L 52.081745 93.872235 
M 52.691082 221.874634 
L 52.99575 161.655042 
M 53.605087 101.610532 
L 53.909755 172.800682 
M 54.519092 92.042854 
L 54.82376 60.386539 
M 55.433097 275.675716 
L 55.737765 153.826409 
M 56.347102 141.819789 
L 56.65177 225.250808 
M 57.261106 96.70963 
L 57.565775 191.061034 
M 58.175111 142.674022 
L 58.47978 190.23672 
M 59.089116 151.52111 
L 59.393785 217.76809 
M 60.003121 183.891469 
L 60.307789 129.744673 
M 60.917126 138.427802 
L 61.221794 151.763626 
M 61.831131 183.181809 
L 62.135799 225.223665 
M 62.745136 173.1917 
L 63.049804 140.179433 
M 63.659141 130.621235 
L 63.963809 197.035218 
M 64.573146 168.115477 
L 64.877814 131.951384 
M 65.487151 156.273935 
L 65.791819 134.061933 
M 66.401156 135.197368 
L 66.705824 234.932876 
M 67.31516 100.248969 
L 67.619829 116.250555 
M 68.229165 141.499607 
L 68.533834 130.494227 
M 69.14317 97.287057 
L 69.447839 176.487356 
M 70.057175 156.194055 
L 70.361844 150.313642 
M 70.97118 247.380687 
L 71.275848 167.057211 
M 71.885185 82.143268 
L 72.189853 157.063544 
M 72.79919 126.886366 
L 73.103858 62.234554 
M 73.713195 136.70111 
L 74.017863 40.416403 
M 74.6272 152.300877 
L 74.931868 171.007435 
M 75.541205 159.42074 
L 75.845873 142.071398 
M 76.45521 136.215092 
L 76.759878 108.588706 
M 77.369215 105.82189 
L 77.673883 108.35148 
M 78.283219 152.559803 
L 78.587888 155.580503 
M 79.197224 209.125437 
L 79.501893 109.868636 
M 80.111229 165.477976 
L 80.415898 125.808082 
M 81.025234 175.432352 
L 81.329902 138.776029 
M 81.939239 55.565469 
L 82.243907 110.226191 
M 82.853244 138.849995 
L 83.157912 125.185329 
M 83.767249 112.986267 
L 84.071917 172.510526 
M 84.681254 131.64792 
L 84.985922 121.228436 
M 85.595259 88.702578 
L 85.899927 127.754314 
M 86.509264 153.97184 
L 86.813932 231.232699 
M 87.423269 193.210118 
L 87.727937 40.302365 
M 88.337273 106.58461 
L 88.641942 25.620982 
M 89.251278 50.795594 
L 89.555947 63.938984 
M 90.165283 113.995801 
L 90.469952 142.559146 
M 91.079288 173.312559 
L 91.383957 82.910229 
M 91.993293 190.155442 
L 92.297961 156.210484 
M 92.907298 122.532522 
L 93.211966 148.773699 
M 93.821303 75.910985 
L 94.125971 211.627072 
M 94.735308 186.748134 
L 95.039976 194.941608 
M 95.649313 194.844786 
L 95.953981 104.165495 
M 96.563318 50.290171 
L 96.867986 135.065007 
M 97.477323 128.582077 
L 97.781991 25.261708 
M 98.391328 139.701934 
L 98.695996 87.592973 
M 99.305332 181.618487 
L 99.610001 91.744301 
M 100.219337 184.399382 
L 100.524006 86.048574 
M 101.133342 88.974514 
L 101.438011 193.940983 
M 102.047347 103.323278 
L 102.352016 131.981737 
M 102.961352 262.358769 
L 103.26602 144.686826 
M 103.875357 127.037371 
L 104.180025 197.545002 
M 104.789362 78.26331 
L 105.09403 177.019723 
M 105.703367 195.610436 
L 106.008035 153.088285 
M 106.617372 62.52623 
L 106.92204 176.243394 
M 107.531377 109.261949 
L 107.836045 164.244043 
M 108.445382 137.035922 
L 108.75005 104.943875 
M 109.359387 133.399744 
L 109.664055 146.816923 
M 110.273391 241.828069 
L 110.57806 139.218443 
M 111.187396 208.171727 
L 111.492065 164.811973 
M 112.101401 254.946533 
L 112.40607 184.945828 
M 113.015406 142.933022 
L 113.320074 141.895471 
M 113.929411 78.14735 
L 114.234079 124.430167 
M 114.843416 107.982181 
L 115.148084 145.770845 
M 115.757421 169.656791 
L 116.062089 105.552488 
M 116.671426 39.78963 
L 116.976094 184.738442 
M 117.585431 117.811308 
L 117.890099 169.609401 
M 118.499436 147.390064 
L 118.804104 112.347377 
M 119.413441 134.395591 
L 119.718109 131.993657 
M 120.327445 151.483115 
L 120.632114 208.966878 
M 121.24145 232.054472 
L 121.546119 188.085746 
M 122.155455 165.145928 
L 122.460124 166.094992 
M 123.06946 135.804504 
L 123.374129 146.773246 
M 123.983465 113.662692 
L 124.288133 169.997299 
M 124.89747 160.940285 
L 125.202138 101.788422 
M 125.811475 143.341963 
L 126.116143 203.415161 
M 126.72548 193.025253 
L 127.030148 169.104062 
M 127.639485 165.433298 
L 127.944153 160.782618 
M 128.55349 136.535135 
L 128.858158 204.494341 
M 129.467495 170.835602 
L 129.772163 121.421429 
M 130.3815 174.464505 
L 130.686168 235.283943 
M 131.295504 220.934403 
L 131.600173 172.943731 
M 132.209509 123.907216 
L 132.514178 197.108815 
M 133.123514 167.316028 
L 133.428183 171.883317 
M 134.037519 142.074526 
L 134.342187 142.447378 
M 134.951524 110.870889 
L 135.256192 223.082976 
M 135.865529 203.549432 
L 136.170197 193.73945 
M 136.779534 183.193305 
L 137.084202 207.891854 
M 137.693539 163.541757 
L 137.998207 108.520574 
M 138.607544 137.239709 
L 138.912212 189.202276 
M 139.521549 124.316815 
L 139.826217 102.280384 
M 140.435554 262.32239 
L 140.740222 179.946196 
M 141.349559 142.78399 
L 141.654227 196.516661 
M 142.263563 164.989702 
L 142.568232 174.788381 
M 143.177568 132.500438 
L 143.482237 202.799471 
M 144.091573 134.580586 
L 144.396242 219.5151 
M 145.005578 196.361497 
L 145.310246 160.996602 
M 145.919583 139.530406 
L 146.224251 175.1932 
M 146.833588 123.249146 
L 147.138256 142.69954 
M 147.747593 204.268421 
L 148.052261 232.091442 
M 148.661598 202.865263 
L 148.966266 197.1215 
M 149.575603 169.72077 
L 149.880271 218.403675 
M 150.489608 217.80594 
L 150.794276 188.690014 
M 151.403613 187.713612 
L 151.708281 253.583567 
M 152.317617 217.460122 
L 152.622286 168.229102 
M 153.231622 175.561353 
L 153.536291 154.525877 
M 154.145627 276.087365 
L 154.450296 166.784778 
M 155.059632 293.349319 
L 155.364301 147.800494 
M 155.973637 228.230481 
L 156.278305 228.11143 
M 156.887642 197.550752 
L 157.19231 222.094541 
M 157.801647 211.935696 
L 158.106315 206.977374 
M 158.715652 130.883796 
L 159.02032 204.929541 
M 159.629657 230.342322 
L 159.934325 213.772932 
M 160.543662 180.747913 
L 160.84833 284.492727 
M 161.457667 256.018162 
L 161.762335 131.403412 
M 162.371672 111.170046 
L 162.67634 282.537787 
M 163.285676 217.846108 
L 163.590345 254.467211 
M 164.199681 212.458448 
L 164.50435 182.585715 
M 165.113686 196.748693 
L 165.418355 199.925102 
M 166.027691 166.104739 
L 166.332359 195.421192 
M 166.941696 261.850582 
L 167.246364 191.976822 
M 167.855701 240.597848 
L 168.160369 279.73856 
M 168.769706 280.584722 
L 169.074374 140.205836 
M 169.683711 185.863803 
L 169.988379 274.527881 
M 170.597716 229.96536 
L 170.902384 242.878936 
M 171.511721 217.314619 
L 171.816389 235.632783 
M 172.425726 312.680255 
L 172.730394 183.073097 
M 173.33973 164.972269 
L 173.644399 285.498493 
M 174.253735 238.382242 
L 174.558404 144.702595 
M 175.16774 242.483961 
L 175.472409 90.273844 
M 176.081745 268.880595 
L 176.386414 189.726389 
M 176.99575 184.5748 
L 177.300418 169.111539 
M 177.909755 250.052817 
L 178.214423 166.478861 
M 178.82376 256.217659 
L 179.128428 236.934362 
M 179.737765 246.937872 
L 180.042433 189.792919 
M 180.65177 232.552789 
L 180.956438 164.883874 
M 181.565775 253.28528 
L 181.870443 194.132173 
M 182.47978 185.607285 
L 182.784448 168.285306 
M 183.393785 281.244877 
L 183.698453 193.851632 
M 184.307789 222.475565 
L 184.612458 179.815842 
M 185.221794 220.408034 
L 185.526463 170.52748 
M 186.135799 232.132312 
L 186.440468 218.204607 
M 187.049804 209.592465 
L 187.354473 243.523723 
M 187.963809 228.929256 
L 188.268477 232.374437 
M 188.877814 194.330308 
L 189.182482 219.539164 
M 189.791819 192.689435 
L 190.096487 241.803987 
M 190.705824 196.419444 
L 191.010492 255.846733 
M 191.619829 209.157859 
L 191.924497 230.032128 
M 192.533834 202.422462 
L 192.838502 153.610575 
M 193.447839 199.103394 
L 193.752507 305.962292 
M 194.361844 282.3616 
L 194.666512 181.370787 
M 195.275848 258.203967 
L 195.580517 229.781973 
M 196.189853 198.872259 
L 196.494522 245.440603 
M 197.103858 168.200043 
L 197.408527 221.245557 
M 198.017863 208.093708 
L 198.322531 256.02068 
M 198.931868 194.387882 
L 199.236536 289.562587 
M 199.845873 182.066843 
L 200.150541 204.752294 
M 200.759878 250.491545 
L 201.064546 246.902273 
M 201.673883 209.369383 
L 201.978551 239.352061 
M 202.587888 190.280248 
L 202.892556 234.835072 
M 203.501893 217.024514 
L 203.806561 199.860542 
M 204.415898 195.371613 
L 204.720566 208.019671 
M 205.329902 232.112482 
L 205.634571 118.328215 
M 206.243907 224.009892 
L 206.548576 280.637425 
M 207.157912 157.135105 
L 207.462581 207.906289 
M 208.071917 228.446272 
L 208.376586 168.066029 
M 208.985922 213.428377 
L 209.29059 247.32769 
M 209.899927 167.285667 
L 210.204595 202.517446 
M 210.813932 183.846999 
L 211.1186 236.060682 
M 211.727937 202.008863 
L 212.032605 271.617883 
M 212.641942 227.404551 
L 212.94661 244.996664 
M 213.555947 219.732957 
L 213.860615 283.149603 
M 214.469952 157.093413 
L 214.77462 199.546791 
M 215.383957 203.376977 
L 215.688625 227.48304 
M 216.297961 230.861686 
L 216.60263 177.087116 
M 217.211966 232.873061 
L 217.516635 217.34753 
M 218.125971 231.399028 
L 218.43064 180.330347 
M 219.039976 194.40937 
L 219.344645 161.652303 
M 219.953981 196.412777 
L 220.258649 185.322781 
M 220.867986 178.123263 
L 221.172654 262.361989 
M 221.781991 117.886798 
L 222.086659 210.918011 
M 222.695996 256.755019 
L 223.000664 161.036294 
M 223.610001 199.619545 
L 223.914669 169.746784 
M 224.524006 196.226393 
L 224.828674 259.771454 
M 225.438011 227.472331 
L 225.742679 149.575536 
M 226.352016 214.543245 
L 226.656684 278.518353 
M 227.26602 208.436801 
L 227.570689 123.360873 
M 228.180025 215.862836 
L 228.484694 221.821004 
M 229.09403 96.05 
L 229.398699 282.450655 
M 230.008035 250.541901 
L 230.312703 187.782369 
M 230.92204 217.130066 
L 231.226708 144.173282 
M 231.836045 247.674605 
L 232.140713 256.961894 
M 232.75005 100.059715 
L 233.054718 204.866482 
M 233.664055 324.72 
L 233.968723 137.000231 
M 234.57806 161.243276 
L 234.882728 199.088643 
M 235.492065 153.715208 
L 235.796733 235.969295 
M 236.40607 208.946274 
L 236.710738 86.426313 
M 237.320074 172.661823 
L 237.624743 269.240324 
M 238.234079 191.581092 
L 238.538748 209.536329 
M 239.148084 206.960837 
L 239.452753 227.751948 
M 240.062089 134.420073 
L 240.366758 85.542311 
M 240.976094 147.141704 
L 241.280762 213.615829 
M 241.890099 159.627804 
L 242.194767 216.239438 
M 242.804104 208.600746 
L 243.108772 207.864422 
M 243.718109 299.653343 
L 244.022777 38.82963 
M 244.632114 177.218366 
L 244.936782 155.085914 
M 245.546119 183.375822 
L 245.850787 174.855723 
M 246.460124 167.366176 
L 246.764792 213.265953 
M 247.374129 123.191049 
L 247.678797 172.821271 
M 248.288133 190.878953 
L 248.592802 170.864236 
M 249.202138 129.964815 
L 249.506807 152.273586 
M 250.116143 135.661894 
L 250.420812 133.545637 
M 251.030148 140.40131 
L 251.334816 181.762752 
M 251.944153 148.421326 
L 252.248821 90.724707 
M 252.858158 121.85072 
L 253.162826 173.138815 
M 253.772163 187.337405 
L 254.076831 132.58989 
M 254.686168 92.680151 
L 254.990836 128.060878 
M 255.600173 177.047066 
L 255.904841 140.190498 
M 256.514178 163.050381 
L 256.818846 114.31361 
M 257.428183 215.294964 
L 257.732851 114.716705 
M 258.342187 184.053649 
L 258.646856 179.905401 
M 259.256192 132.241139 
L 259.560861 150.642316 
M 260.170197 124.691841 
L 260.474866 137.110832 
M 261.084202 235.141938 
L 261.388871 127.754847 
M 261.998207 103.466236 
L 262.302875 153.8948 
M 262.912212 143.754965 
L 263.21688 154.663885 
M 263.826217 86.08553 
L 264.130885 174.497977 
M 264.740222 153.197192 
L 265.04489 121.653911 
M 265.654227 164.875408 
L 265.958895 120.248383 
M 266.568232 136.723513 
L 266.8729 102.030724 
M 267.482237 122.325573 
L 267.786905 161.056 
M 268.396242 111.827298 
L 268.70091 157.456189 
M 269.310246 162.605777 
L 269.614915 146.495979 
M 270.224251 115.557554 
L 270.52892 176.691009 
M 271.138256 183.646991 
L 271.442925 179.92671 
M 272.052261 134.498612 
L 272.35693 111.077427 
M 272.966266 181.270173 
L 273.270934 115.054425 
M 273.880271 136.113739 
L 274.184939 132.866137 
M 274.794276 108.753764 
L 275.098944 148.856539 
M 275.708281 116.74526 
L 276.012949 98.100435 
M 276.622286 189.581111 
L 276.926954 108.0908 
M 277.536291 206.329899 
L 277.840959 155.182852 
M 278.450296 156.253013 
L 278.754964 119.671278 
M 279.364301 178.278488 
L 279.668969 117.881864 
M 280.278305 104.455537 
L 280.582974 193.43178 
M 281.19231 142.203992 
L 281.496979 130.028022 
M 282.106315 180.363847 
L 282.410984 84.425254 
M 283.02032 40.778079 
L 283.324988 155.043341 
M 283.934325 233.415527 
L 284.238993 147.128641 
M 284.84833 60.813213 
L 285.152998 155.215111 
M 285.762335 183.605371 
L 286.067003 99.042507 
M 286.67634 189.832819 
L 286.981008 154.729116 
M 287.590345 167.416706 
L 287.895013 125.761789 
M 288.50435 123.984902 
L 288.809018 159.741051 
M 289.418355 178.102389 
L 289.723023 212.220209 
M 290.332359 120.591194 
L 290.637028 175.311375 
M 291.246364 133.83859 
L 291.551033 103.478078 
M 292.160369 110.167115 
L 292.465038 151.492469 
M 293.074374 157.367069 
L 293.379043 134.915942 
M 293.988379 80.692966 
L 294.293047 116.157649 
M 294.902384 82.947376 
L 295.207052 168.708727 
M 295.816389 194.570357 
L 296.121057 165.143991 
M 296.730394 198.020897 
L 297.035062 180.678658 
M 297.644399 72.556687 
L 297.949067 130.096745 
M 298.558404 217.80457 
L 298.863072 71.815217 
M 299.472409 142.775054 
L 299.777077 254.97455 
M 300.386414 112.375234 
L 300.691082 187.423012 
M 301.300418 192.687094 
L 301.605087 181.695911 
M 302.214423 104.456802 
L 302.519092 85.260638 
M 303.128428 192.504926 
L 303.433097 143.454717 
M 304.042433 74.734919 
L 304.347102 105.33728 
M 304.956438 182.743974 
L 305.261106 117.605151 
M 305.870443 122.196889 
L 306.175111 162.260062 
M 306.784448 143.974435 
L 307.089116 139.536276 
M 307.698453 91.970631 
L 308.003121 22.32 
M 308.612458 47.043055 
L 308.917126 108.441662 
M 309.526463 209.162465 
L 309.831131 198.99099 
M 310.440468 56.449322 
L 310.745136 170.819181 
M 311.354473 188.143129 
L 311.659141 138.111031 
M 312.268477 96.926667 
L 312.573146 151.883473 
M 313.182482 237.120696 
L 313.487151 219.505611 
M 314.096487 217.278681 
L 314.401156 124.154284 
M 315.010492 72.42634 
L 315.31516 136.465707 
M 315.924497 39.001078 
L 316.229165 152.762115 
M 316.838502 188.81462 
L 317.14317 183.674122 
M 317.752507 95.702711 
L 318.057175 120.059403 
M 318.666512 130.810509 
L 318.97118 188.041637 
M 319.580517 188.403384 
L 319.885185 182.159363 
M 320.494522 138.05775 
L 320.79919 153.456918 
M 321.408527 220.676047 
L 321.713195 214.384279 
M 322.322531 211.974035 
L 322.6272 147.047947 
M 323.236536 143.429381 
L 323.541205 191.14931 
M 324.150541 144.467578 
L 324.45521 128.307949 
M 325.064546 192.503902 
L 325.369215 233.678358 
M 325.978551 110.321212 
L 326.283219 203.817563 
M 326.892556 54.038999 
L 327.197224 168.091396 
M 327.806561 160.146181 
L 328.111229 189.348296 
M 328.720566 132.118293 
L 329.025234 148.345068 
M 329.634571 220.852685 
L 329.939239 116.056485 
M 330.548576 214.584938 
L 330.853244 144.025427 
M 331.462581 194.80029 
L 331.767249 179.396119 
M 332.376586 122.432239 
L 332.681254 152.866798 
M 333.29059 177.427326 
L 333.595259 179.463199 
M 334.204595 194.327775 
L 334.509264 257.996127 
M 335.1186 222.627566 
L 335.423269 239.896072 
M 336.032605 185.327347 
L 336.337273 233.433817 
M 336.94661 192.729868 
L 337.251278 161.660368 
M 337.860615 195.200854 
L 338.165283 177.150789 
M 338.77462 173.316904 
L 339.079288 161.020804 
M 339.688625 208.621019 
L 339.993293 160.489645 
M 340.60263 240.750183 
L 340.907298 177.017543 
M 341.516635 178.599704 
L 341.821303 177.860965 
M 342.43064 246.109572 
L 342.735308 79.145913 
M 343.344645 173.802315 
L 343.649313 256.162139 
M 344.258649 209.577501 
L 344.563318 127.402965 
M 345.172654 237.723766 
L 345.477323 196.34305 
M 346.086659 140.55221 
L 346.391328 201.848396 
M 347.000664 185.584365 
L 347.305332 133.235726 
M 347.914669 273.790298 
L 348.219337 151.242369 
L 348.219337 151.242369 
" clip-path="url(#p91a9a587fe)" style="fill: none; stroke: #000000; stroke-width: 1.5; stroke-linecap: square"/>
   </g>
   <g id="line2d_15">
    <path d="M 44.160369 172.921079 
L 46.597716 171.410364 
L 49.035062 169.654147 
L 51.777077 167.389024 
L 54.519092 164.83511 
L 57.870443 161.384443 
L 62.440468 156.300739 
L 69.447839 148.490641 
L 72.494522 145.422074 
L 75.236536 142.968392 
L 77.673883 141.091815 
L 79.806561 139.71789 
L 81.939239 138.615101 
L 83.767249 137.896175 
L 85.595259 137.390911 
L 87.423269 137.100008 
L 89.251278 137.020995 
L 91.079288 137.147409 
L 93.211966 137.541218 
L 95.344645 138.181995 
L 97.477323 139.045976 
L 99.914669 140.274446 
L 102.656684 141.916687 
L 105.703367 144.002014 
L 109.359387 146.783136 
L 113.624743 150.309715 
L 118.499436 154.624629 
L 123.374129 159.222627 
L 127.944153 163.823842 
L 132.209509 168.417722 
L 136.474866 173.332738 
L 141.04489 178.936106 
L 148.35693 188.324462 
L 153.840959 195.19658 
L 157.19231 199.073172 
L 160.238993 202.27404 
L 162.981008 204.839823 
L 165.723023 207.084141 
L 168.160369 208.804437 
L 170.597716 210.274631 
L 173.035062 211.508918 
L 175.777077 212.642397 
L 178.519092 213.537133 
L 181.565775 214.283113 
L 184.612458 214.797207 
L 187.659141 215.094697 
L 190.705824 215.175813 
L 193.752507 215.031449 
L 196.79919 214.648979 
L 199.541205 214.089605 
L 202.283219 213.318818 
L 205.025234 212.331687 
L 207.767249 211.126224 
L 210.509264 209.701465 
L 213.251278 208.053622 
L 216.297961 205.954441 
L 219.039976 203.814062 
L 222.086659 201.13973 
L 225.133342 198.139423 
L 228.180025 194.80355 
L 231.226708 191.135908 
L 234.57806 186.750432 
L 238.538748 181.192112 
L 251.334816 162.89917 
L 254.3815 159.101471 
L 257.123514 156.02883 
L 259.560861 153.606957 
L 261.998207 151.490167 
L 264.435554 149.678891 
L 266.8729 148.163213 
L 269.310246 146.92496 
L 271.747593 145.939848 
L 274.184939 145.177934 
L 276.926954 144.55089 
L 279.973637 144.088981 
L 283.324988 143.80977 
L 286.981008 143.727873 
L 290.637028 143.861575 
L 293.988379 144.197286 
L 297.035062 144.723931 
L 299.777077 145.42522 
L 302.214423 146.266301 
L 304.65177 147.340101 
L 307.089116 148.669634 
L 309.526463 150.265637 
L 311.963809 152.126677 
L 314.705824 154.514578 
L 317.752507 157.475066 
L 322.017863 161.970205 
L 328.415898 168.723026 
L 331.462581 171.60475 
L 333.899927 173.638735 
L 336.337273 175.38677 
L 338.469952 176.664018 
L 340.60263 177.703517 
L 342.735308 178.515199 
L 345.172654 179.186736 
L 347.610001 179.621442 
L 348.524006 179.731856 
L 348.524006 179.731856 
" clip-path="url(#p91a9a587fe)" style="fill: none; stroke: #0000ff; stroke-opacity: 0.5; stroke-width: 2; stroke-linecap: square"/>
   </g>
   <g id="patch_3">
    <path d="M 28.942188 339.84 
L 28.942188 7.2 
" style="fill: none; stroke: #000000; stroke-width: 0.8; stroke-linejoin: miter; stroke-linecap: square"/>
   </g>
   <g id="patch_4">
    <path d="M 363.742188 339.84 
L 363.742188 7.2 
" style="fill: none; stroke: #000000; stroke-width: 0.8; stroke-linejoin: miter; stroke-linecap: square"/>
   </g>
   <g id="patch_5">
    <path d="M 28.942188 339.84 
L 363.742188 339.84 
" style="fill: none; stroke: #000000; stroke-width: 0.8; stroke-linejoin: miter; stroke-linecap: square"/>
   </g>
   <g id="patch_6">
    <path d="M 28.942188 7.2 
L 363.742188 7.2 
" style="fill: none; stroke: #000000; stroke-width: 0.8; stroke-linejoin: miter; stroke-linecap: square"/>
   </g>
   <g id="legend_1">
    <g id="patch_7">
     <path d="M 35.942188 334.84 
L 100.634375 334.84 
Q 102.634375 334.84 102.634375 332.84 
L 102.634375 304.48375 
Q 102.634375 302.48375 100.634375 302.48375 
L 35.942188 302.48375 
Q 33.942188 302.48375 33.942188 304.48375 
L 33.942188 332.84 
Q 33.942188 334.84 35.942188 334.84 
z
" style="fill: #ffffff; opacity: 0.8; stroke: #cccccc; stroke-linejoin: miter"/>
    </g>
    <g id="line2d_16">
     <path d="M 37.942188 310.582188 
L 47.942188 310.582188 
L 57.942188 310.582188 
" style="fill: none; stroke: #000000; stroke-width: 1.5; stroke-linecap: square"/>
    </g>
    <g id="text_14">
     <!-- Before -->
     <g transform="translate(65.942188 314.082188)scale(0.1 -0.1)">
      <defs>
       <path id="DejaVuSans-42" d="M 1259 2228 
L 1259 519 
L 2272 519 
Q 2781 519 3026 730 
Q 3272 941 3272 1375 
Q 3272 1813 3026 2020 
Q 2781 2228 2272 2228 
L 1259 2228 
z
M 1259 4147 
L 1259 2741 
L 2194 2741 
Q 2656 2741 2882 2914 
Q 3109 3088 3109 3444 
Q 3109 3797 2882 3972 
Q 2656 4147 2194 4147 
L 1259 4147 
z
M 628 4666 
L 2241 4666 
Q 2963 4666 3353 4366 
Q 3744 4066 3744 3513 
Q 3744 3084 3544 2831 
Q 3344 2578 2956 2516 
Q 3422 2416 3680 2098 
Q 3938 1781 3938 1306 
Q 3938 681 3513 340 
Q 3088 0 2303 0 
L 628 0 
L 628 4666 
z
" transform="scale(0.015625)"/>
       <path id="DejaVuSans-65" d="M 3597 1894 
L 3597 1613 
L 953 1613 
Q 991 1019 1311 708 
Q 1631 397 2203 397 
Q 2534 397 2845 478 
Q 3156 559 3463 722 
L 3463 178 
Q 3153 47 2828 -22 
Q 2503 -91 2169 -91 
Q 1331 -91 842 396 
Q 353 884 353 1716 
Q 353 2575 817 3079 
Q 1281 3584 2069 3584 
Q 2775 3584 3186 3129 
Q 3597 2675 3597 1894 
z
M 3022 2063 
Q 3016 2534 2758 2815 
Q 2500 3097 2075 3097 
Q 1594 3097 1305 2825 
Q 1016 2553 972 2059 
L 3022 2063 
z
" transform="scale(0.015625)"/>
       <path id="DejaVuSans-66" d="M 2375 4863 
L 2375 4384 
L 1825 4384 
Q 1516 4384 1395 4259 
Q 1275 4134 1275 3809 
L 1275 3500 
L 2222 3500 
L 2222 3053 
L 1275 3053 
L 1275 0 
L 697 0 
L 697 3053 
L 147 3053 
L 147 3500 
L 697 3500 
L 697 3744 
Q 697 4328 969 4595 
Q 1241 4863 1831 4863 
L 2375 4863 
z
" transform="scale(0.015625)"/>
       <path id="DejaVuSans-6f" d="M 1959 3097 
Q 1497 3097 1228 2736 
Q 959 2375 959 1747 
Q 959 1119 1226 758 
Q 1494 397 1959 397 
Q 2419 397 2687 759 
Q 2956 1122 2956 1747 
Q 2956 2369 2687 2733 
Q 2419 3097 1959 3097 
z
M 1959 3584 
Q 2709 3584 3137 3096 
Q 3566 2609 3566 1747 
Q 3566 888 3137 398 
Q 2709 -91 1959 -91 
Q 1206 -91 779 398 
Q 353 888 353 1747 
Q 353 2609 779 3096 
Q 1206 3584 1959 3584 
z
" transform="scale(0.015625)"/>
       <path id="DejaVuSans-72" d="M 2631 2963 
Q 2534 3019 2420 3045 
Q 2306 3072 2169 3072 
Q 1681 3072 1420 2755 
Q 1159 2438 1159 1844 
L 1159 0 
L 581 0 
L 581 3500 
L 1159 3500 
L 1159 2956 
Q 1341 3275 1631 3429 
Q 1922 3584 2338 3584 
Q 2397 3584 2469 3576 
Q 2541 3569 2628 3553 
L 2631 2963 
z
" transform="scale(0.015625)"/>
      </defs>
      <use xlink:href="#DejaVuSans-42"/>
      <use xlink:href="#DejaVuSans-65" x="68.603516"/>
      <use xlink:href="#DejaVuSans-66" x="130.126953"/>
      <use xlink:href="#DejaVuSans-6f" x="165.332031"/>
      <use xlink:href="#DejaVuSans-72" x="226.513672"/>
      <use xlink:href="#DejaVuSans-65" x="265.376953"/>
     </g>
    </g>
    <g id="line2d_17">
     <path d="M 37.942188 325.260313 
L 47.942188 325.260313 
L 57.942188 325.260313 
" style="fill: none; stroke: #0000ff; stroke-opacity: 0.5; stroke-width: 2; stroke-linecap: square"/>
    </g>
    <g id="text_15">
     <!-- After -->
     <g transform="translate(65.942188 328.760313)scale(0.1 -0.1)">
      <defs>
       <path id="DejaVuSans-41" d="M 2188 4044 
L 1331 1722 
L 3047 1722 
L 2188 4044 
z
M 1831 4666 
L 2547 4666 
L 4325 0 
L 3669 0 
L 3244 1197 
L 1141 1197 
L 716 0 
L 50 0 
L 1831 4666 
z
" transform="scale(0.015625)"/>
       <path id="DejaVuSans-74" d="M 1172 4494 
L 1172 3500 
L 2356 3500 
L 2356 3053 
L 1172 3053 
L 1172 1153 
Q 1172 725 1289 603 
Q 1406 481 1766 481 
L 2356 481 
L 2356 0 
L 1766 0 
Q 1100 0 847 248 
Q 594 497 594 1153 
L 594 3053 
L 172 3053 
L 172 3500 
L 594 3500 
L 594 4494 
L 1172 4494 
z
" transform="scale(0.015625)"/>
      </defs>
      <use xlink:href="#DejaVuSans-41"/>
      <use xlink:href="#DejaVuSans-66" x="64.783203"/>
      <use xlink:href="#DejaVuSans-74" x="98.238281"/>
      <use xlink:href="#DejaVuSans-65" x="137.447266"/>
      <use xlink:href="#DejaVuSans-72" x="198.970703"/>
     </g>
    </g>
   </g>
  </g>
 </g>
 <defs>
  <clipPath id="p91a9a587fe">
   <rect x="28.942188" y="7.2" width="334.8" height="332.64"/>
  </clipPath>
 </defs>
</svg>
