<?xml version="1.0" encoding="utf-8" standalone="no"?>
<!DOCTYPE svg PUBLIC "-//W3C//DTD SVG 1.1//EN"
  "http://www.w3.org/Graphics/SVG/1.1/DTD/svg11.dtd">
<svg xmlns:xlink="http://www.w3.org/1999/xlink" width="507.696562pt" height="323.891875pt" viewBox="0 0 507.696562 323.891875" xmlns="http://www.w3.org/2000/svg" version="1.1">
 <metadata>
  <rdf:RDF xmlns:dc="http://purl.org/dc/elements/1.1/" xmlns:cc="http://creativecommons.org/ns#" xmlns:rdf="http://www.w3.org/1999/02/22-rdf-syntax-ns#">
   <cc:Work>
    <dc:type rdf:resource="http://purl.org/dc/dcmitype/StillImage"/>
    <dc:date>2022-05-09T09:55:42.200281</dc:date>
    <dc:format>image/svg+xml</dc:format>
    <dc:creator>
     <cc:Agent>
      <dc:title>Matplotlib v3.5.1, https://matplotlib.org/</dc:title>
     </cc:Agent>
    </dc:creator>
   </cc:Work>
  </rdf:RDF>
 </metadata>
 <defs>
  <style type="text/css">*{stroke-linejoin: round; stroke-linecap: butt}</style>
 </defs>
 <g id="figure_1">
  <g id="patch_1">
   <path d="M 0 323.891875 
L 507.696562 323.891875 
L 507.696562 0 
L 0 0 
L 0 323.891875 
z
" style="fill: none"/>
  </g>
  <g id="axes_1">
   <g id="patch_2">
    <path d="M 54.096563 284.4 
L 500.496562 284.4 
L 500.496562 7.2 
L 54.096563 7.2 
z
" style="fill: #ffffff"/>
   </g>
   <g id="matplotlib.axis_1">
    <g id="xtick_1">
     <g id="line2d_1">
      <defs>
       <path id="mebf65ad63d" d="M 0 0 
L 0 3.5 
" style="stroke: #000000; stroke-width: 0.8"/>
      </defs>
      <g>
       <use xlink:href="#mebf65ad63d" x="74.387472" y="284.4" style="stroke: #000000; stroke-width: 0.8"/>
      </g>
     </g>
     <g id="text_1">
      <!-- −1.00 -->
      <g transform="translate(59.064815 298.998438)scale(0.1 -0.1)">
       <defs>
        <path id="DejaVuSans-2212" d="M 678 2272 
L 4684 2272 
L 4684 1741 
L 678 1741 
L 678 2272 
z
" transform="scale(0.015625)"/>
        <path id="DejaVuSans-31" d="M 794 531 
L 1825 531 
L 1825 4091 
L 703 3866 
L 703 4441 
L 1819 4666 
L 2450 4666 
L 2450 531 
L 3481 531 
L 3481 0 
L 794 0 
L 794 531 
z
" transform="scale(0.015625)"/>
        <path id="DejaVuSans-2e" d="M 684 794 
L 1344 794 
L 1344 0 
L 684 0 
L 684 794 
z
" transform="scale(0.015625)"/>
        <path id="DejaVuSans-30" d="M 2034 4250 
Q 1547 4250 1301 3770 
Q 1056 3291 1056 2328 
Q 1056 1369 1301 889 
Q 1547 409 2034 409 
Q 2525 409 2770 889 
Q 3016 1369 3016 2328 
Q 3016 3291 2770 3770 
Q 2525 4250 2034 4250 
z
M 2034 4750 
Q 2819 4750 3233 4129 
Q 3647 3509 3647 2328 
Q 3647 1150 3233 529 
Q 2819 -91 2034 -91 
Q 1250 -91 836 529 
Q 422 1150 422 2328 
Q 422 3509 836 4129 
Q 1250 4750 2034 4750 
z
" transform="scale(0.015625)"/>
       </defs>
       <use xlink:href="#DejaVuSans-2212"/>
       <use xlink:href="#DejaVuSans-31" x="83.789062"/>
       <use xlink:href="#DejaVuSans-2e" x="147.412109"/>
       <use xlink:href="#DejaVuSans-30" x="179.199219"/>
       <use xlink:href="#DejaVuSans-30" x="242.822266"/>
      </g>
     </g>
    </g>
    <g id="xtick_2">
     <g id="line2d_2">
      <g>
       <use xlink:href="#mebf65ad63d" x="125.114744" y="284.4" style="stroke: #000000; stroke-width: 0.8"/>
      </g>
     </g>
     <g id="text_2">
      <!-- −0.75 -->
      <g transform="translate(109.792088 298.998438)scale(0.1 -0.1)">
       <defs>
        <path id="DejaVuSans-37" d="M 525 4666 
L 3525 4666 
L 3525 4397 
L 1831 0 
L 1172 0 
L 2766 4134 
L 525 4134 
L 525 4666 
z
" transform="scale(0.015625)"/>
        <path id="DejaVuSans-35" d="M 691 4666 
L 3169 4666 
L 3169 4134 
L 1269 4134 
L 1269 2991 
Q 1406 3038 1543 3061 
Q 1681 3084 1819 3084 
Q 2600 3084 3056 2656 
Q 3513 2228 3513 1497 
Q 3513 744 3044 326 
Q 2575 -91 1722 -91 
Q 1428 -91 1123 -41 
Q 819 9 494 109 
L 494 744 
Q 775 591 1075 516 
Q 1375 441 1709 441 
Q 2250 441 2565 725 
Q 2881 1009 2881 1497 
Q 2881 1984 2565 2268 
Q 2250 2553 1709 2553 
Q 1456 2553 1204 2497 
Q 953 2441 691 2322 
L 691 4666 
z
" transform="scale(0.015625)"/>
       </defs>
       <use xlink:href="#DejaVuSans-2212"/>
       <use xlink:href="#DejaVuSans-30" x="83.789062"/>
       <use xlink:href="#DejaVuSans-2e" x="147.412109"/>
       <use xlink:href="#DejaVuSans-37" x="179.199219"/>
       <use xlink:href="#DejaVuSans-35" x="242.822266"/>
      </g>
     </g>
    </g>
    <g id="xtick_3">
     <g id="line2d_3">
      <g>
       <use xlink:href="#mebf65ad63d" x="175.842017" y="284.4" style="stroke: #000000; stroke-width: 0.8"/>
      </g>
     </g>
     <g id="text_3">
      <!-- −0.50 -->
      <g transform="translate(160.519361 298.998438)scale(0.1 -0.1)">
       <use xlink:href="#DejaVuSans-2212"/>
       <use xlink:href="#DejaVuSans-30" x="83.789062"/>
       <use xlink:href="#DejaVuSans-2e" x="147.412109"/>
       <use xlink:href="#DejaVuSans-35" x="179.199219"/>
       <use xlink:href="#DejaVuSans-30" x="242.822266"/>
      </g>
     </g>
    </g>
    <g id="xtick_4">
     <g id="line2d_4">
      <g>
       <use xlink:href="#mebf65ad63d" x="226.56929" y="284.4" style="stroke: #000000; stroke-width: 0.8"/>
      </g>
     </g>
     <g id="text_4">
      <!-- −0.25 -->
      <g transform="translate(211.246634 298.998438)scale(0.1 -0.1)">
       <defs>
        <path id="DejaVuSans-32" d="M 1228 531 
L 3431 531 
L 3431 0 
L 469 0 
L 469 531 
Q 828 903 1448 1529 
Q 2069 2156 2228 2338 
Q 2531 2678 2651 2914 
Q 2772 3150 2772 3378 
Q 2772 3750 2511 3984 
Q 2250 4219 1831 4219 
Q 1534 4219 1204 4116 
Q 875 4013 500 3803 
L 500 4441 
Q 881 4594 1212 4672 
Q 1544 4750 1819 4750 
Q 2544 4750 2975 4387 
Q 3406 4025 3406 3419 
Q 3406 3131 3298 2873 
Q 3191 2616 2906 2266 
Q 2828 2175 2409 1742 
Q 1991 1309 1228 531 
z
" transform="scale(0.015625)"/>
       </defs>
       <use xlink:href="#DejaVuSans-2212"/>
       <use xlink:href="#DejaVuSans-30" x="83.789062"/>
       <use xlink:href="#DejaVuSans-2e" x="147.412109"/>
       <use xlink:href="#DejaVuSans-32" x="179.199219"/>
       <use xlink:href="#DejaVuSans-35" x="242.822266"/>
      </g>
     </g>
    </g>
    <g id="xtick_5">
     <g id="line2d_5">
      <g>
       <use xlink:href="#mebf65ad63d" x="277.296562" y="284.4" style="stroke: #000000; stroke-width: 0.8"/>
      </g>
     </g>
     <g id="text_5">
      <!-- 0.00 -->
      <g transform="translate(266.16375 298.998438)scale(0.1 -0.1)">
       <use xlink:href="#DejaVuSans-30"/>
       <use xlink:href="#DejaVuSans-2e" x="63.623047"/>
       <use xlink:href="#DejaVuSans-30" x="95.410156"/>
       <use xlink:href="#DejaVuSans-30" x="159.033203"/>
      </g>
     </g>
    </g>
    <g id="xtick_6">
     <g id="line2d_6">
      <g>
       <use xlink:href="#mebf65ad63d" x="328.023835" y="284.4" style="stroke: #000000; stroke-width: 0.8"/>
      </g>
     </g>
     <g id="text_6">
      <!-- 0.25 -->
      <g transform="translate(316.891023 298.998438)scale(0.1 -0.1)">
       <use xlink:href="#DejaVuSans-30"/>
       <use xlink:href="#DejaVuSans-2e" x="63.623047"/>
       <use xlink:href="#DejaVuSans-32" x="95.410156"/>
       <use xlink:href="#DejaVuSans-35" x="159.033203"/>
      </g>
     </g>
    </g>
    <g id="xtick_7">
     <g id="line2d_7">
      <g>
       <use xlink:href="#mebf65ad63d" x="378.751108" y="284.4" style="stroke: #000000; stroke-width: 0.8"/>
      </g>
     </g>
     <g id="text_7">
      <!-- 0.50 -->
      <g transform="translate(367.618295 298.998438)scale(0.1 -0.1)">
       <use xlink:href="#DejaVuSans-30"/>
       <use xlink:href="#DejaVuSans-2e" x="63.623047"/>
       <use xlink:href="#DejaVuSans-35" x="95.410156"/>
       <use xlink:href="#DejaVuSans-30" x="159.033203"/>
      </g>
     </g>
    </g>
    <g id="xtick_8">
     <g id="line2d_8">
      <g>
       <use xlink:href="#mebf65ad63d" x="429.478381" y="284.4" style="stroke: #000000; stroke-width: 0.8"/>
      </g>
     </g>
     <g id="text_8">
      <!-- 0.75 -->
      <g transform="translate(418.345568 298.998438)scale(0.1 -0.1)">
       <use xlink:href="#DejaVuSans-30"/>
       <use xlink:href="#DejaVuSans-2e" x="63.623047"/>
       <use xlink:href="#DejaVuSans-37" x="95.410156"/>
       <use xlink:href="#DejaVuSans-35" x="159.033203"/>
      </g>
     </g>
    </g>
    <g id="xtick_9">
     <g id="line2d_9">
      <g>
       <use xlink:href="#mebf65ad63d" x="480.205653" y="284.4" style="stroke: #000000; stroke-width: 0.8"/>
      </g>
     </g>
     <g id="text_9">
      <!-- 1.00 -->
      <g transform="translate(469.072841 298.998438)scale(0.1 -0.1)">
       <use xlink:href="#DejaVuSans-31"/>
       <use xlink:href="#DejaVuSans-2e" x="63.623047"/>
       <use xlink:href="#DejaVuSans-30" x="95.410156"/>
       <use xlink:href="#DejaVuSans-30" x="159.033203"/>
      </g>
     </g>
    </g>
    <g id="text_10">
     <!-- Position -->
     <g transform="translate(253.939687 314.19625)scale(0.12 -0.12)">
      <defs>
       <path id="DejaVuSans-50" d="M 1259 4147 
L 1259 2394 
L 2053 2394 
Q 2494 2394 2734 2622 
Q 2975 2850 2975 3272 
Q 2975 3691 2734 3919 
Q 2494 4147 2053 4147 
L 1259 4147 
z
M 628 4666 
L 2053 4666 
Q 2838 4666 3239 4311 
Q 3641 3956 3641 3272 
Q 3641 2581 3239 2228 
Q 2838 1875 2053 1875 
L 1259 1875 
L 1259 0 
L 628 0 
L 628 4666 
z
" transform="scale(0.015625)"/>
       <path id="DejaVuSans-6f" d="M 1959 3097 
Q 1497 3097 1228 2736 
Q 959 2375 959 1747 
Q 959 1119 1226 758 
Q 1494 397 1959 397 
Q 2419 397 2687 759 
Q 2956 1122 2956 1747 
Q 2956 2369 2687 2733 
Q 2419 3097 1959 3097 
z
M 1959 3584 
Q 2709 3584 3137 3096 
Q 3566 2609 3566 1747 
Q 3566 888 3137 398 
Q 2709 -91 1959 -91 
Q 1206 -91 779 398 
Q 353 888 353 1747 
Q 353 2609 779 3096 
Q 1206 3584 1959 3584 
z
" transform="scale(0.015625)"/>
       <path id="DejaVuSans-73" d="M 2834 3397 
L 2834 2853 
Q 2591 2978 2328 3040 
Q 2066 3103 1784 3103 
Q 1356 3103 1142 2972 
Q 928 2841 928 2578 
Q 928 2378 1081 2264 
Q 1234 2150 1697 2047 
L 1894 2003 
Q 2506 1872 2764 1633 
Q 3022 1394 3022 966 
Q 3022 478 2636 193 
Q 2250 -91 1575 -91 
Q 1294 -91 989 -36 
Q 684 19 347 128 
L 347 722 
Q 666 556 975 473 
Q 1284 391 1588 391 
Q 1994 391 2212 530 
Q 2431 669 2431 922 
Q 2431 1156 2273 1281 
Q 2116 1406 1581 1522 
L 1381 1569 
Q 847 1681 609 1914 
Q 372 2147 372 2553 
Q 372 3047 722 3315 
Q 1072 3584 1716 3584 
Q 2034 3584 2315 3537 
Q 2597 3491 2834 3397 
z
" transform="scale(0.015625)"/>
       <path id="DejaVuSans-69" d="M 603 3500 
L 1178 3500 
L 1178 0 
L 603 0 
L 603 3500 
z
M 603 4863 
L 1178 4863 
L 1178 4134 
L 603 4134 
L 603 4863 
z
" transform="scale(0.015625)"/>
       <path id="DejaVuSans-74" d="M 1172 4494 
L 1172 3500 
L 2356 3500 
L 2356 3053 
L 1172 3053 
L 1172 1153 
Q 1172 725 1289 603 
Q 1406 481 1766 481 
L 2356 481 
L 2356 0 
L 1766 0 
Q 1100 0 847 248 
Q 594 497 594 1153 
L 594 3053 
L 172 3053 
L 172 3500 
L 594 3500 
L 594 4494 
L 1172 4494 
z
" transform="scale(0.015625)"/>
       <path id="DejaVuSans-6e" d="M 3513 2113 
L 3513 0 
L 2938 0 
L 2938 2094 
Q 2938 2591 2744 2837 
Q 2550 3084 2163 3084 
Q 1697 3084 1428 2787 
Q 1159 2491 1159 1978 
L 1159 0 
L 581 0 
L 581 3500 
L 1159 3500 
L 1159 2956 
Q 1366 3272 1645 3428 
Q 1925 3584 2291 3584 
Q 2894 3584 3203 3211 
Q 3513 2838 3513 2113 
z
" transform="scale(0.015625)"/>
      </defs>
      <use xlink:href="#DejaVuSans-50"/>
      <use xlink:href="#DejaVuSans-6f" x="56.677734"/>
      <use xlink:href="#DejaVuSans-73" x="117.859375"/>
      <use xlink:href="#DejaVuSans-69" x="169.958984"/>
      <use xlink:href="#DejaVuSans-74" x="197.742188"/>
      <use xlink:href="#DejaVuSans-69" x="236.951172"/>
      <use xlink:href="#DejaVuSans-6f" x="264.734375"/>
      <use xlink:href="#DejaVuSans-6e" x="325.916016"/>
     </g>
    </g>
   </g>
   <g id="matplotlib.axis_2">
    <g id="ytick_1">
     <g id="line2d_10">
      <defs>
       <path id="mccfc3bea62" d="M 0 0 
L -3.5 0 
" style="stroke: #000000; stroke-width: 0.8"/>
      </defs>
      <g>
       <use xlink:href="#mccfc3bea62" x="54.096563" y="281.416781" style="stroke: #000000; stroke-width: 0.8"/>
      </g>
     </g>
     <g id="text_11">
      <!-- −0.5 -->
      <g transform="translate(22.81375 285.216)scale(0.1 -0.1)">
       <use xlink:href="#DejaVuSans-2212"/>
       <use xlink:href="#DejaVuSans-30" x="83.789062"/>
       <use xlink:href="#DejaVuSans-2e" x="147.412109"/>
       <use xlink:href="#DejaVuSans-35" x="179.199219"/>
      </g>
     </g>
    </g>
    <g id="ytick_2">
     <g id="line2d_11">
      <g>
       <use xlink:href="#mccfc3bea62" x="54.096563" y="239.705513" style="stroke: #000000; stroke-width: 0.8"/>
      </g>
     </g>
     <g id="text_12">
      <!-- 0.0 -->
      <g transform="translate(31.193438 243.504731)scale(0.1 -0.1)">
       <use xlink:href="#DejaVuSans-30"/>
       <use xlink:href="#DejaVuSans-2e" x="63.623047"/>
       <use xlink:href="#DejaVuSans-30" x="95.410156"/>
      </g>
     </g>
    </g>
    <g id="ytick_3">
     <g id="line2d_12">
      <g>
       <use xlink:href="#mccfc3bea62" x="54.096563" y="197.994244" style="stroke: #000000; stroke-width: 0.8"/>
      </g>
     </g>
     <g id="text_13">
      <!-- 0.5 -->
      <g transform="translate(31.193438 201.793463)scale(0.1 -0.1)">
       <use xlink:href="#DejaVuSans-30"/>
       <use xlink:href="#DejaVuSans-2e" x="63.623047"/>
       <use xlink:href="#DejaVuSans-35" x="95.410156"/>
      </g>
     </g>
    </g>
    <g id="ytick_4">
     <g id="line2d_13">
      <g>
       <use xlink:href="#mccfc3bea62" x="54.096563" y="156.282976" style="stroke: #000000; stroke-width: 0.8"/>
      </g>
     </g>
     <g id="text_14">
      <!-- 1.0 -->
      <g transform="translate(31.193438 160.082195)scale(0.1 -0.1)">
       <use xlink:href="#DejaVuSans-31"/>
       <use xlink:href="#DejaVuSans-2e" x="63.623047"/>
       <use xlink:href="#DejaVuSans-30" x="95.410156"/>
      </g>
     </g>
    </g>
    <g id="ytick_5">
     <g id="line2d_14">
      <g>
       <use xlink:href="#mccfc3bea62" x="54.096563" y="114.571707" style="stroke: #000000; stroke-width: 0.8"/>
      </g>
     </g>
     <g id="text_15">
      <!-- 1.5 -->
      <g transform="translate(31.193438 118.370926)scale(0.1 -0.1)">
       <use xlink:href="#DejaVuSans-31"/>
       <use xlink:href="#DejaVuSans-2e" x="63.623047"/>
       <use xlink:href="#DejaVuSans-35" x="95.410156"/>
      </g>
     </g>
    </g>
    <g id="ytick_6">
     <g id="line2d_15">
      <g>
       <use xlink:href="#mccfc3bea62" x="54.096563" y="72.860439" style="stroke: #000000; stroke-width: 0.8"/>
      </g>
     </g>
     <g id="text_16">
      <!-- 2.0 -->
      <g transform="translate(31.193438 76.659658)scale(0.1 -0.1)">
       <use xlink:href="#DejaVuSans-32"/>
       <use xlink:href="#DejaVuSans-2e" x="63.623047"/>
       <use xlink:href="#DejaVuSans-30" x="95.410156"/>
      </g>
     </g>
    </g>
    <g id="ytick_7">
     <g id="line2d_16">
      <g>
       <use xlink:href="#mccfc3bea62" x="54.096563" y="31.149171" style="stroke: #000000; stroke-width: 0.8"/>
      </g>
     </g>
     <g id="text_17">
      <!-- 2.5 -->
      <g transform="translate(31.193438 34.948389)scale(0.1 -0.1)">
       <use xlink:href="#DejaVuSans-32"/>
       <use xlink:href="#DejaVuSans-2e" x="63.623047"/>
       <use xlink:href="#DejaVuSans-35" x="95.410156"/>
      </g>
     </g>
    </g>
    <g id="text_18">
     <!-- Flux -->
     <g transform="translate(16.318125 158.271563)rotate(-90)scale(0.12 -0.12)">
      <defs>
       <path id="DejaVuSans-46" d="M 628 4666 
L 3309 4666 
L 3309 4134 
L 1259 4134 
L 1259 2759 
L 3109 2759 
L 3109 2228 
L 1259 2228 
L 1259 0 
L 628 0 
L 628 4666 
z
" transform="scale(0.015625)"/>
       <path id="DejaVuSans-6c" d="M 603 4863 
L 1178 4863 
L 1178 0 
L 603 0 
L 603 4863 
z
" transform="scale(0.015625)"/>
       <path id="DejaVuSans-75" d="M 544 1381 
L 544 3500 
L 1119 3500 
L 1119 1403 
Q 1119 906 1312 657 
Q 1506 409 1894 409 
Q 2359 409 2629 706 
Q 2900 1003 2900 1516 
L 2900 3500 
L 3475 3500 
L 3475 0 
L 2900 0 
L 2900 538 
Q 2691 219 2414 64 
Q 2138 -91 1772 -91 
Q 1169 -91 856 284 
Q 544 659 544 1381 
z
M 1991 3584 
L 1991 3584 
z
" transform="scale(0.015625)"/>
       <path id="DejaVuSans-78" d="M 3513 3500 
L 2247 1797 
L 3578 0 
L 2900 0 
L 1881 1375 
L 863 0 
L 184 0 
L 1544 1831 
L 300 3500 
L 978 3500 
L 1906 2253 
L 2834 3500 
L 3513 3500 
z
" transform="scale(0.015625)"/>
      </defs>
      <use xlink:href="#DejaVuSans-46"/>
      <use xlink:href="#DejaVuSans-6c" x="57.519531"/>
      <use xlink:href="#DejaVuSans-75" x="85.302734"/>
      <use xlink:href="#DejaVuSans-78" x="148.681641"/>
     </g>
    </g>
   </g>
   <g id="line2d_17">
    <defs>
     <path id="m8cfee5d159" d="M 0 3 
C 0.795609 3 1.55874 2.683901 2.12132 2.12132 
C 2.683901 1.55874 3 0.795609 3 0 
C 3 -0.795609 2.683901 -1.55874 2.12132 -2.12132 
C 1.55874 -2.683901 0.795609 -3 0 -3 
C -0.795609 -3 -1.55874 -2.683901 -2.12132 -2.12132 
C -2.683901 -1.55874 -3 -0.795609 -3 0 
C -3 0.795609 -2.683901 1.55874 -2.12132 2.12132 
C -1.55874 2.683901 -0.795609 3 0 3 
z
" style="stroke: #000000"/>
    </defs>
    <g clip-path="url(#pd7765026ec)">
     <use xlink:href="#m8cfee5d159" x="74.387472" y="231.417771" style="stroke: #000000"/>
     <use xlink:href="#m8cfee5d159" x="76.426759" y="242.011985" style="stroke: #000000"/>
     <use xlink:href="#m8cfee5d159" x="78.466046" y="228.898637" style="stroke: #000000"/>
     <use xlink:href="#m8cfee5d159" x="80.505334" y="214.293857" style="stroke: #000000"/>
     <use xlink:href="#m8cfee5d159" x="82.544621" y="243.611414" style="stroke: #000000"/>
     <use xlink:href="#m8cfee5d159" x="84.583908" y="243.610914" style="stroke: #000000"/>
     <use xlink:href="#m8cfee5d159" x="86.623196" y="213.355783" style="stroke: #000000"/>
     <use xlink:href="#m8cfee5d159" x="88.662483" y="226.899546" style="stroke: #000000"/>
     <use xlink:href="#m8cfee5d159" x="90.70177" y="247.536321" style="stroke: #000000"/>
     <use xlink:href="#m8cfee5d159" x="92.741058" y="230.650472" style="stroke: #000000"/>
     <use xlink:href="#m8cfee5d159" x="94.780345" y="247.434028" style="stroke: #000000"/>
     <use xlink:href="#m8cfee5d159" x="96.819632" y="247.471752" style="stroke: #000000"/>
     <use xlink:href="#m8cfee5d159" x="98.85892" y="235.663206" style="stroke: #000000"/>
     <use xlink:href="#m8cfee5d159" x="100.898207" y="271.621067" style="stroke: #000000"/>
     <use xlink:href="#m8cfee5d159" x="102.937494" y="268.476736" style="stroke: #000000"/>
     <use xlink:href="#m8cfee5d159" x="104.976782" y="249.076864" style="stroke: #000000"/>
     <use xlink:href="#m8cfee5d159" x="107.016069" y="256.591566" style="stroke: #000000"/>
     <use xlink:href="#m8cfee5d159" x="109.055356" y="234.446992" style="stroke: #000000"/>
     <use xlink:href="#m8cfee5d159" x="111.094644" y="254.836432" style="stroke: #000000"/>
     <use xlink:href="#m8cfee5d159" x="113.133931" y="263.245774" style="stroke: #000000"/>
     <use xlink:href="#m8cfee5d159" x="115.173219" y="215.223332" style="stroke: #000000"/>
     <use xlink:href="#m8cfee5d159" x="117.212506" y="243.437622" style="stroke: #000000"/>
     <use xlink:href="#m8cfee5d159" x="119.251793" y="238.536392" style="stroke: #000000"/>
     <use xlink:href="#m8cfee5d159" x="121.291081" y="263.425179" style="stroke: #000000"/>
     <use xlink:href="#m8cfee5d159" x="123.330368" y="248.725807" style="stroke: #000000"/>
     <use xlink:href="#m8cfee5d159" x="125.369655" y="237.779337" style="stroke: #000000"/>
     <use xlink:href="#m8cfee5d159" x="127.408943" y="258.818277" style="stroke: #000000"/>
     <use xlink:href="#m8cfee5d159" x="129.44823" y="233.32776" style="stroke: #000000"/>
     <use xlink:href="#m8cfee5d159" x="131.487517" y="249.59564" style="stroke: #000000"/>
     <use xlink:href="#m8cfee5d159" x="133.526805" y="244.415276" style="stroke: #000000"/>
     <use xlink:href="#m8cfee5d159" x="135.566092" y="249.557332" style="stroke: #000000"/>
     <use xlink:href="#m8cfee5d159" x="137.605379" y="208.578143" style="stroke: #000000"/>
     <use xlink:href="#m8cfee5d159" x="139.644667" y="239.665906" style="stroke: #000000"/>
     <use xlink:href="#m8cfee5d159" x="141.683954" y="257.039283" style="stroke: #000000"/>
     <use xlink:href="#m8cfee5d159" x="143.723241" y="225.611265" style="stroke: #000000"/>
     <use xlink:href="#m8cfee5d159" x="145.762529" y="259.63811" style="stroke: #000000"/>
     <use xlink:href="#m8cfee5d159" x="147.801816" y="235.707572" style="stroke: #000000"/>
     <use xlink:href="#m8cfee5d159" x="149.841103" y="271.8" style="stroke: #000000"/>
     <use xlink:href="#m8cfee5d159" x="151.880391" y="261.162031" style="stroke: #000000"/>
     <use xlink:href="#m8cfee5d159" x="153.919678" y="235.600194" style="stroke: #000000"/>
     <use xlink:href="#m8cfee5d159" x="155.958965" y="226.429502" style="stroke: #000000"/>
     <use xlink:href="#m8cfee5d159" x="157.998253" y="235.73782" style="stroke: #000000"/>
     <use xlink:href="#m8cfee5d159" x="160.03754" y="240.351707" style="stroke: #000000"/>
     <use xlink:href="#m8cfee5d159" x="162.076827" y="243.247266" style="stroke: #000000"/>
     <use xlink:href="#m8cfee5d159" x="164.116115" y="262.666796" style="stroke: #000000"/>
     <use xlink:href="#m8cfee5d159" x="166.155402" y="249.754282" style="stroke: #000000"/>
     <use xlink:href="#m8cfee5d159" x="168.194689" y="245.143006" style="stroke: #000000"/>
     <use xlink:href="#m8cfee5d159" x="170.233977" y="219.497983" style="stroke: #000000"/>
     <use xlink:href="#m8cfee5d159" x="172.273264" y="231.041824" style="stroke: #000000"/>
     <use xlink:href="#m8cfee5d159" x="174.312552" y="265.787588" style="stroke: #000000"/>
     <use xlink:href="#m8cfee5d159" x="176.351839" y="230.516355" style="stroke: #000000"/>
     <use xlink:href="#m8cfee5d159" x="178.391126" y="241.850301" style="stroke: #000000"/>
     <use xlink:href="#m8cfee5d159" x="180.430414" y="246.167963" style="stroke: #000000"/>
     <use xlink:href="#m8cfee5d159" x="182.469701" y="224.05948" style="stroke: #000000"/>
     <use xlink:href="#m8cfee5d159" x="184.508988" y="216.393148" style="stroke: #000000"/>
     <use xlink:href="#m8cfee5d159" x="186.548276" y="217.321553" style="stroke: #000000"/>
     <use xlink:href="#m8cfee5d159" x="188.587563" y="246.056918" style="stroke: #000000"/>
     <use xlink:href="#m8cfee5d159" x="190.62685" y="236.336547" style="stroke: #000000"/>
     <use xlink:href="#m8cfee5d159" x="192.666138" y="224.696355" style="stroke: #000000"/>
     <use xlink:href="#m8cfee5d159" x="194.705425" y="212.912495" style="stroke: #000000"/>
     <use xlink:href="#m8cfee5d159" x="196.744712" y="236.066022" style="stroke: #000000"/>
     <use xlink:href="#m8cfee5d159" x="198.784" y="229.964776" style="stroke: #000000"/>
     <use xlink:href="#m8cfee5d159" x="200.823287" y="244.032825" style="stroke: #000000"/>
     <use xlink:href="#m8cfee5d159" x="202.862574" y="244.148323" style="stroke: #000000"/>
     <use xlink:href="#m8cfee5d159" x="204.901862" y="209.157068" style="stroke: #000000"/>
     <use xlink:href="#m8cfee5d159" x="206.941149" y="198.515333" style="stroke: #000000"/>
     <use xlink:href="#m8cfee5d159" x="208.980436" y="220.680904" style="stroke: #000000"/>
     <use xlink:href="#m8cfee5d159" x="211.019724" y="200.978318" style="stroke: #000000"/>
     <use xlink:href="#m8cfee5d159" x="213.059011" y="209.837887" style="stroke: #000000"/>
     <use xlink:href="#m8cfee5d159" x="215.098298" y="224.694403" style="stroke: #000000"/>
     <use xlink:href="#m8cfee5d159" x="217.137586" y="205.872755" style="stroke: #000000"/>
     <use xlink:href="#m8cfee5d159" x="219.176873" y="184.128646" style="stroke: #000000"/>
     <use xlink:href="#m8cfee5d159" x="221.21616" y="208.196014" style="stroke: #000000"/>
     <use xlink:href="#m8cfee5d159" x="223.255448" y="179.22754" style="stroke: #000000"/>
     <use xlink:href="#m8cfee5d159" x="225.294735" y="246.70954" style="stroke: #000000"/>
     <use xlink:href="#m8cfee5d159" x="227.334023" y="186.895455" style="stroke: #000000"/>
     <use xlink:href="#m8cfee5d159" x="229.37331" y="196.713427" style="stroke: #000000"/>
     <use xlink:href="#m8cfee5d159" x="231.412597" y="200.670516" style="stroke: #000000"/>
     <use xlink:href="#m8cfee5d159" x="233.451885" y="191.635828" style="stroke: #000000"/>
     <use xlink:href="#m8cfee5d159" x="235.491172" y="223.793913" style="stroke: #000000"/>
     <use xlink:href="#m8cfee5d159" x="237.530459" y="191.755389" style="stroke: #000000"/>
     <use xlink:href="#m8cfee5d159" x="239.569747" y="179.595229" style="stroke: #000000"/>
     <use xlink:href="#m8cfee5d159" x="241.609034" y="158.377352" style="stroke: #000000"/>
     <use xlink:href="#m8cfee5d159" x="243.648321" y="189.196646" style="stroke: #000000"/>
     <use xlink:href="#m8cfee5d159" x="245.687609" y="191.599861" style="stroke: #000000"/>
     <use xlink:href="#m8cfee5d159" x="247.726896" y="184.104279" style="stroke: #000000"/>
     <use xlink:href="#m8cfee5d159" x="249.766183" y="158.157617" style="stroke: #000000"/>
     <use xlink:href="#m8cfee5d159" x="251.805471" y="165.73386" style="stroke: #000000"/>
     <use xlink:href="#m8cfee5d159" x="253.844758" y="177.950636" style="stroke: #000000"/>
     <use xlink:href="#m8cfee5d159" x="255.884045" y="158.559859" style="stroke: #000000"/>
     <use xlink:href="#m8cfee5d159" x="257.923333" y="163.64761" style="stroke: #000000"/>
     <use xlink:href="#m8cfee5d159" x="259.96262" y="147.394828" style="stroke: #000000"/>
     <use xlink:href="#m8cfee5d159" x="262.001907" y="173.715622" style="stroke: #000000"/>
     <use xlink:href="#m8cfee5d159" x="264.041195" y="166.083363" style="stroke: #000000"/>
     <use xlink:href="#m8cfee5d159" x="266.080482" y="165.951183" style="stroke: #000000"/>
     <use xlink:href="#m8cfee5d159" x="268.119769" y="182.806802" style="stroke: #000000"/>
     <use xlink:href="#m8cfee5d159" x="270.159057" y="152.62258" style="stroke: #000000"/>
     <use xlink:href="#m8cfee5d159" x="272.198344" y="152.582897" style="stroke: #000000"/>
     <use xlink:href="#m8cfee5d159" x="274.237631" y="156.433952" style="stroke: #000000"/>
     <use xlink:href="#m8cfee5d159" x="276.276919" y="160.222671" style="stroke: #000000"/>
     <use xlink:href="#m8cfee5d159" x="278.316206" y="179.923069" style="stroke: #000000"/>
     <use xlink:href="#m8cfee5d159" x="280.355494" y="163.536256" style="stroke: #000000"/>
     <use xlink:href="#m8cfee5d159" x="282.394781" y="162.654068" style="stroke: #000000"/>
     <use xlink:href="#m8cfee5d159" x="284.434068" y="170.944687" style="stroke: #000000"/>
     <use xlink:href="#m8cfee5d159" x="286.473356" y="161.073089" style="stroke: #000000"/>
     <use xlink:href="#m8cfee5d159" x="288.512643" y="152.657124" style="stroke: #000000"/>
     <use xlink:href="#m8cfee5d159" x="290.55193" y="129.129964" style="stroke: #000000"/>
     <use xlink:href="#m8cfee5d159" x="292.591218" y="159.064132" style="stroke: #000000"/>
     <use xlink:href="#m8cfee5d159" x="294.630505" y="159.220453" style="stroke: #000000"/>
     <use xlink:href="#m8cfee5d159" x="296.669792" y="166.451073" style="stroke: #000000"/>
     <use xlink:href="#m8cfee5d159" x="298.70908" y="199.050086" style="stroke: #000000"/>
     <use xlink:href="#m8cfee5d159" x="300.748367" y="169.425331" style="stroke: #000000"/>
     <use xlink:href="#m8cfee5d159" x="302.787654" y="170.025283" style="stroke: #000000"/>
     <use xlink:href="#m8cfee5d159" x="304.826942" y="132.059128" style="stroke: #000000"/>
     <use xlink:href="#m8cfee5d159" x="306.866229" y="178.549651" style="stroke: #000000"/>
     <use xlink:href="#m8cfee5d159" x="308.905516" y="172.521822" style="stroke: #000000"/>
     <use xlink:href="#m8cfee5d159" x="310.944804" y="180.344674" style="stroke: #000000"/>
     <use xlink:href="#m8cfee5d159" x="312.984091" y="201.44266" style="stroke: #000000"/>
     <use xlink:href="#m8cfee5d159" x="315.023378" y="164.981933" style="stroke: #000000"/>
     <use xlink:href="#m8cfee5d159" x="317.062666" y="173.492674" style="stroke: #000000"/>
     <use xlink:href="#m8cfee5d159" x="319.101953" y="174.663085" style="stroke: #000000"/>
     <use xlink:href="#m8cfee5d159" x="321.14124" y="204.63446" style="stroke: #000000"/>
     <use xlink:href="#m8cfee5d159" x="323.180528" y="167.373103" style="stroke: #000000"/>
     <use xlink:href="#m8cfee5d159" x="325.219815" y="215.130043" style="stroke: #000000"/>
     <use xlink:href="#m8cfee5d159" x="327.259102" y="182.483619" style="stroke: #000000"/>
     <use xlink:href="#m8cfee5d159" x="329.29839" y="155.753412" style="stroke: #000000"/>
     <use xlink:href="#m8cfee5d159" x="331.337677" y="208.258171" style="stroke: #000000"/>
     <use xlink:href="#m8cfee5d159" x="333.376965" y="199.931648" style="stroke: #000000"/>
     <use xlink:href="#m8cfee5d159" x="335.416252" y="186.80734" style="stroke: #000000"/>
     <use xlink:href="#m8cfee5d159" x="337.455539" y="194.011387" style="stroke: #000000"/>
     <use xlink:href="#m8cfee5d159" x="339.494827" y="207.70704" style="stroke: #000000"/>
     <use xlink:href="#m8cfee5d159" x="341.534114" y="175.939397" style="stroke: #000000"/>
     <use xlink:href="#m8cfee5d159" x="343.573401" y="189.040828" style="stroke: #000000"/>
     <use xlink:href="#m8cfee5d159" x="345.612689" y="156.618439" style="stroke: #000000"/>
     <use xlink:href="#m8cfee5d159" x="347.651976" y="172.047134" style="stroke: #000000"/>
     <use xlink:href="#m8cfee5d159" x="349.691263" y="122.065058" style="stroke: #000000"/>
     <use xlink:href="#m8cfee5d159" x="351.730551" y="151.32674" style="stroke: #000000"/>
     <use xlink:href="#m8cfee5d159" x="353.769838" y="133.205061" style="stroke: #000000"/>
     <use xlink:href="#m8cfee5d159" x="355.809125" y="103.234547" style="stroke: #000000"/>
     <use xlink:href="#m8cfee5d159" x="357.848413" y="125.924582" style="stroke: #000000"/>
     <use xlink:href="#m8cfee5d159" x="359.8877" y="90.013838" style="stroke: #000000"/>
     <use xlink:href="#m8cfee5d159" x="361.926987" y="60.524414" style="stroke: #000000"/>
     <use xlink:href="#m8cfee5d159" x="363.966275" y="98.065551" style="stroke: #000000"/>
     <use xlink:href="#m8cfee5d159" x="366.005562" y="57.757959" style="stroke: #000000"/>
     <use xlink:href="#m8cfee5d159" x="368.044849" y="47.068394" style="stroke: #000000"/>
     <use xlink:href="#m8cfee5d159" x="370.084137" y="30.177255" style="stroke: #000000"/>
     <use xlink:href="#m8cfee5d159" x="372.123424" y="57.180394" style="stroke: #000000"/>
     <use xlink:href="#m8cfee5d159" x="374.162711" y="53.613362" style="stroke: #000000"/>
     <use xlink:href="#m8cfee5d159" x="376.201999" y="19.8" style="stroke: #000000"/>
     <use xlink:href="#m8cfee5d159" x="378.241286" y="22.477972" style="stroke: #000000"/>
     <use xlink:href="#m8cfee5d159" x="380.280573" y="24.228074" style="stroke: #000000"/>
     <use xlink:href="#m8cfee5d159" x="382.319861" y="25.639144" style="stroke: #000000"/>
     <use xlink:href="#m8cfee5d159" x="384.359148" y="47.740378" style="stroke: #000000"/>
     <use xlink:href="#m8cfee5d159" x="386.398436" y="39.324218" style="stroke: #000000"/>
     <use xlink:href="#m8cfee5d159" x="388.437723" y="46.758747" style="stroke: #000000"/>
     <use xlink:href="#m8cfee5d159" x="390.47701" y="73.432827" style="stroke: #000000"/>
     <use xlink:href="#m8cfee5d159" x="392.516298" y="41.406815" style="stroke: #000000"/>
     <use xlink:href="#m8cfee5d159" x="394.555585" y="76.529081" style="stroke: #000000"/>
     <use xlink:href="#m8cfee5d159" x="396.594872" y="116.797761" style="stroke: #000000"/>
     <use xlink:href="#m8cfee5d159" x="398.63416" y="98.758078" style="stroke: #000000"/>
     <use xlink:href="#m8cfee5d159" x="400.673447" y="138.800057" style="stroke: #000000"/>
     <use xlink:href="#m8cfee5d159" x="402.712734" y="122.020412" style="stroke: #000000"/>
     <use xlink:href="#m8cfee5d159" x="404.752022" y="128.01045" style="stroke: #000000"/>
     <use xlink:href="#m8cfee5d159" x="406.791309" y="172.616942" style="stroke: #000000"/>
     <use xlink:href="#m8cfee5d159" x="408.830596" y="153.687853" style="stroke: #000000"/>
     <use xlink:href="#m8cfee5d159" x="410.869884" y="172.863208" style="stroke: #000000"/>
     <use xlink:href="#m8cfee5d159" x="412.909171" y="175.111075" style="stroke: #000000"/>
     <use xlink:href="#m8cfee5d159" x="414.948458" y="165.314025" style="stroke: #000000"/>
     <use xlink:href="#m8cfee5d159" x="416.987746" y="208.248317" style="stroke: #000000"/>
     <use xlink:href="#m8cfee5d159" x="419.027033" y="223.008179" style="stroke: #000000"/>
     <use xlink:href="#m8cfee5d159" x="421.06632" y="230.684144" style="stroke: #000000"/>
     <use xlink:href="#m8cfee5d159" x="423.105608" y="234.059359" style="stroke: #000000"/>
     <use xlink:href="#m8cfee5d159" x="425.144895" y="225.605885" style="stroke: #000000"/>
     <use xlink:href="#m8cfee5d159" x="427.184182" y="221.843415" style="stroke: #000000"/>
     <use xlink:href="#m8cfee5d159" x="429.22347" y="225.558636" style="stroke: #000000"/>
     <use xlink:href="#m8cfee5d159" x="431.262757" y="218.515439" style="stroke: #000000"/>
     <use xlink:href="#m8cfee5d159" x="433.302044" y="233.816933" style="stroke: #000000"/>
     <use xlink:href="#m8cfee5d159" x="435.341332" y="211.143748" style="stroke: #000000"/>
     <use xlink:href="#m8cfee5d159" x="437.380619" y="240.877975" style="stroke: #000000"/>
     <use xlink:href="#m8cfee5d159" x="439.419906" y="191.904627" style="stroke: #000000"/>
     <use xlink:href="#m8cfee5d159" x="441.459194" y="227.484202" style="stroke: #000000"/>
     <use xlink:href="#m8cfee5d159" x="443.498481" y="252.704862" style="stroke: #000000"/>
     <use xlink:href="#m8cfee5d159" x="445.537769" y="256.631141" style="stroke: #000000"/>
     <use xlink:href="#m8cfee5d159" x="447.577056" y="230.98116" style="stroke: #000000"/>
     <use xlink:href="#m8cfee5d159" x="449.616343" y="242.955342" style="stroke: #000000"/>
     <use xlink:href="#m8cfee5d159" x="451.655631" y="227.456502" style="stroke: #000000"/>
     <use xlink:href="#m8cfee5d159" x="453.694918" y="231.5757" style="stroke: #000000"/>
     <use xlink:href="#m8cfee5d159" x="455.734205" y="240.759185" style="stroke: #000000"/>
     <use xlink:href="#m8cfee5d159" x="457.773493" y="253.723503" style="stroke: #000000"/>
     <use xlink:href="#m8cfee5d159" x="459.81278" y="264.905229" style="stroke: #000000"/>
     <use xlink:href="#m8cfee5d159" x="461.852067" y="247.105165" style="stroke: #000000"/>
     <use xlink:href="#m8cfee5d159" x="463.891355" y="225.383442" style="stroke: #000000"/>
     <use xlink:href="#m8cfee5d159" x="465.930642" y="236.111315" style="stroke: #000000"/>
     <use xlink:href="#m8cfee5d159" x="467.969929" y="260.475496" style="stroke: #000000"/>
     <use xlink:href="#m8cfee5d159" x="470.009217" y="236.806565" style="stroke: #000000"/>
     <use xlink:href="#m8cfee5d159" x="472.048504" y="233.270499" style="stroke: #000000"/>
     <use xlink:href="#m8cfee5d159" x="474.087791" y="254.448232" style="stroke: #000000"/>
     <use xlink:href="#m8cfee5d159" x="476.127079" y="237.138093" style="stroke: #000000"/>
     <use xlink:href="#m8cfee5d159" x="478.166366" y="238.732651" style="stroke: #000000"/>
     <use xlink:href="#m8cfee5d159" x="480.205653" y="258.774321" style="stroke: #000000"/>
    </g>
   </g>
   <g id="line2d_18">
    <path d="M 74.387472 239.704876 
L 125.369655 239.596578 
L 139.644667 239.35206 
L 149.841103 238.941943 
L 157.998253 238.349999 
L 164.116115 237.671584 
L 170.233977 236.717462 
L 174.312552 235.889092 
L 178.391126 234.87665 
L 182.469701 233.65275 
L 186.548276 232.189585 
L 190.62685 230.459985 
L 194.705425 228.438702 
L 198.784 226.103898 
L 202.862574 223.438787 
L 206.941149 220.43337 
L 211.019724 217.086167 
L 215.098298 213.405846 
L 219.176873 209.412627 
L 223.255448 205.139346 
L 229.37331 198.30865 
L 239.569747 186.360312 
L 245.687609 179.320015 
L 249.766183 174.883216 
L 253.844758 170.771056 
L 257.923333 167.083464 
L 262.001907 163.913954 
L 264.041195 162.549974 
L 266.080482 161.345689 
L 268.119769 160.30928 
L 270.159057 159.447855 
L 272.198344 158.767365 
L 274.237631 158.272531 
L 276.276919 157.966786 
L 278.316206 157.852229 
L 280.355494 157.929589 
L 282.394781 158.198205 
L 284.434068 158.656011 
L 286.473356 159.299526 
L 288.512643 160.12386 
L 290.55193 161.122701 
L 292.591218 162.28831 
L 294.630505 163.611494 
L 298.70908 166.686226 
L 302.787654 170.241544 
L 306.866229 174.141427 
L 315.023378 182.218394 
L 319.101953 185.865445 
L 321.14124 187.435258 
L 323.180528 188.760145 
L 325.219815 189.774872 
L 327.259102 190.407663 
L 329.29839 190.580835 
L 331.337677 190.211989 
L 333.376965 189.21583 
L 335.416252 187.506694 
L 337.455539 185.001797 
L 339.494827 181.625185 
L 341.534114 177.312307 
L 343.573401 172.015037 
L 345.612689 165.706936 
L 347.651976 158.388441 
L 349.691263 150.09163 
L 351.730551 140.884183 
L 353.769838 130.872116 
L 357.848413 109.054867 
L 363.966275 75.113922 
L 366.005562 64.537163 
L 368.044849 54.810225 
L 370.084137 46.216164 
L 372.123424 39.017337 
L 374.162711 33.443578 
L 376.201999 29.681483 
L 378.241286 27.865508 
L 380.280573 28.071479 
L 382.319861 30.31295 
L 384.359148 34.540674 
L 386.398436 40.645205 
L 388.437723 48.462464 
L 390.47701 57.781873 
L 392.516298 68.356504 
L 394.555585 79.914574 
L 398.63416 104.842071 
L 404.752022 142.693612 
L 406.791309 154.506972 
L 408.830596 165.628342 
L 410.869884 175.940733 
L 412.909171 185.365284 
L 414.948458 193.858951 
L 416.987746 201.410861 
L 419.027033 208.037733 
L 421.06632 213.778753 
L 423.105608 218.690292 
L 425.144895 222.840764 
L 427.184182 226.305893 
L 429.22347 229.16456 
L 431.262757 231.495343 
L 433.302044 233.373791 
L 435.341332 234.870424 
L 437.380619 236.049402 
L 439.419906 236.967785 
L 441.459194 237.675273 
L 443.498481 238.214341 
L 447.577056 238.923602 
L 451.655631 239.310315 
L 457.773493 239.572359 
L 467.969929 239.686533 
L 480.205653 239.703724 
L 480.205653 239.703724 
" clip-path="url(#pd7765026ec)" style="fill: none; stroke: #1f77b4; stroke-width: 1.5; stroke-linecap: square"/>
   </g>
   <g id="patch_3">
    <path d="M 54.096563 284.4 
L 54.096563 7.2 
" style="fill: none; stroke: #000000; stroke-width: 0.8; stroke-linejoin: miter; stroke-linecap: square"/>
   </g>
   <g id="patch_4">
    <path d="M 500.496562 284.4 
L 500.496562 7.2 
" style="fill: none; stroke: #000000; stroke-width: 0.8; stroke-linejoin: miter; stroke-linecap: square"/>
   </g>
   <g id="patch_5">
    <path d="M 54.096563 284.4 
L 500.496562 284.4 
" style="fill: none; stroke: #000000; stroke-width: 0.8; stroke-linejoin: miter; stroke-linecap: square"/>
   </g>
   <g id="patch_6">
    <path d="M 54.096563 7.2 
L 500.496562 7.2 
" style="fill: none; stroke: #000000; stroke-width: 0.8; stroke-linejoin: miter; stroke-linecap: square"/>
   </g>
  </g>
 </g>
 <defs>
  <clipPath id="pd7765026ec">
   <rect x="54.096563" y="7.2" width="446.4" height="277.2"/>
  </clipPath>
 </defs>
</svg>
