<?xml version="1.0" encoding="utf-8" standalone="no"?>
<!DOCTYPE svg PUBLIC "-//W3C//DTD SVG 1.1//EN"
  "http://www.w3.org/Graphics/SVG/1.1/DTD/svg11.dtd">
<svg xmlns:xlink="http://www.w3.org/1999/xlink" width="507.696562pt" height="324.599906pt" viewBox="0 0 507.696562 324.599906" xmlns="http://www.w3.org/2000/svg" version="1.1">
 <metadata>
  <rdf:RDF xmlns:dc="http://purl.org/dc/elements/1.1/" xmlns:cc="http://creativecommons.org/ns#" xmlns:rdf="http://www.w3.org/1999/02/22-rdf-syntax-ns#">
   <cc:Work>
    <dc:type rdf:resource="http://purl.org/dc/dcmitype/StillImage"/>
    <dc:date>2022-05-09T11:02:50.413572</dc:date>
    <dc:format>image/svg+xml</dc:format>
    <dc:creator>
     <cc:Agent>
      <dc:title>Matplotlib v3.5.1, https://matplotlib.org/</dc:title>
     </cc:Agent>
    </dc:creator>
   </cc:Work>
  </rdf:RDF>
 </metadata>
 <defs>
  <style type="text/css">*{stroke-linejoin: round; stroke-linecap: butt}</style>
 </defs>
 <g id="figure_1">
  <g id="patch_1">
   <path d="M 0 324.599906 
L 507.696562 324.599906 
L 507.696562 0 
L 0 0 
L 0 324.599906 
z
" style="fill: none"/>
  </g>
  <g id="axes_1">
   <g id="patch_2">
    <path d="M 54.096563 285.108031 
L 500.496562 285.108031 
L 500.496562 7.908031 
L 54.096563 7.908031 
z
" style="fill: #ffffff"/>
   </g>
   <g id="matplotlib.axis_1">
    <g id="xtick_1">
     <g id="line2d_1">
      <defs>
       <path id="m75d169091e" d="M 0 0 
L 0 3.5 
" style="stroke: #000000; stroke-width: 0.8"/>
      </defs>
      <g>
       <use xlink:href="#m75d169091e" x="114.96929" y="285.108031" style="stroke: #000000; stroke-width: 0.8"/>
      </g>
     </g>
     <g id="text_1">
      <!-- −4 -->
      <g transform="translate(107.598196 299.706469)scale(0.1 -0.1)">
       <defs>
        <path id="DejaVuSans-2212" d="M 678 2272 
L 4684 2272 
L 4684 1741 
L 678 1741 
L 678 2272 
z
" transform="scale(0.015625)"/>
        <path id="DejaVuSans-34" d="M 2419 4116 
L 825 1625 
L 2419 1625 
L 2419 4116 
z
M 2253 4666 
L 3047 4666 
L 3047 1625 
L 3713 1625 
L 3713 1100 
L 3047 1100 
L 3047 0 
L 2419 0 
L 2419 1100 
L 313 1100 
L 313 1709 
L 2253 4666 
z
" transform="scale(0.015625)"/>
       </defs>
       <use xlink:href="#DejaVuSans-2212"/>
       <use xlink:href="#DejaVuSans-34" x="83.789062"/>
      </g>
     </g>
    </g>
    <g id="xtick_2">
     <g id="line2d_2">
      <g>
       <use xlink:href="#m75d169091e" x="196.132926" y="285.108031" style="stroke: #000000; stroke-width: 0.8"/>
      </g>
     </g>
     <g id="text_2">
      <!-- −2 -->
      <g transform="translate(188.761832 299.706469)scale(0.1 -0.1)">
       <defs>
        <path id="DejaVuSans-32" d="M 1228 531 
L 3431 531 
L 3431 0 
L 469 0 
L 469 531 
Q 828 903 1448 1529 
Q 2069 2156 2228 2338 
Q 2531 2678 2651 2914 
Q 2772 3150 2772 3378 
Q 2772 3750 2511 3984 
Q 2250 4219 1831 4219 
Q 1534 4219 1204 4116 
Q 875 4013 500 3803 
L 500 4441 
Q 881 4594 1212 4672 
Q 1544 4750 1819 4750 
Q 2544 4750 2975 4387 
Q 3406 4025 3406 3419 
Q 3406 3131 3298 2873 
Q 3191 2616 2906 2266 
Q 2828 2175 2409 1742 
Q 1991 1309 1228 531 
z
" transform="scale(0.015625)"/>
       </defs>
       <use xlink:href="#DejaVuSans-2212"/>
       <use xlink:href="#DejaVuSans-32" x="83.789062"/>
      </g>
     </g>
    </g>
    <g id="xtick_3">
     <g id="line2d_3">
      <g>
       <use xlink:href="#m75d169091e" x="277.296562" y="285.108031" style="stroke: #000000; stroke-width: 0.8"/>
      </g>
     </g>
     <g id="text_3">
      <!-- 0 -->
      <g transform="translate(274.115313 299.706469)scale(0.1 -0.1)">
       <defs>
        <path id="DejaVuSans-30" d="M 2034 4250 
Q 1547 4250 1301 3770 
Q 1056 3291 1056 2328 
Q 1056 1369 1301 889 
Q 1547 409 2034 409 
Q 2525 409 2770 889 
Q 3016 1369 3016 2328 
Q 3016 3291 2770 3770 
Q 2525 4250 2034 4250 
z
M 2034 4750 
Q 2819 4750 3233 4129 
Q 3647 3509 3647 2328 
Q 3647 1150 3233 529 
Q 2819 -91 2034 -91 
Q 1250 -91 836 529 
Q 422 1150 422 2328 
Q 422 3509 836 4129 
Q 1250 4750 2034 4750 
z
" transform="scale(0.015625)"/>
       </defs>
       <use xlink:href="#DejaVuSans-30"/>
      </g>
     </g>
    </g>
    <g id="xtick_4">
     <g id="line2d_4">
      <g>
       <use xlink:href="#m75d169091e" x="358.460199" y="285.108031" style="stroke: #000000; stroke-width: 0.8"/>
      </g>
     </g>
     <g id="text_4">
      <!-- 2 -->
      <g transform="translate(355.278949 299.706469)scale(0.1 -0.1)">
       <use xlink:href="#DejaVuSans-32"/>
      </g>
     </g>
    </g>
    <g id="xtick_5">
     <g id="line2d_5">
      <g>
       <use xlink:href="#m75d169091e" x="439.623835" y="285.108031" style="stroke: #000000; stroke-width: 0.8"/>
      </g>
     </g>
     <g id="text_5">
      <!-- 4 -->
      <g transform="translate(436.442585 299.706469)scale(0.1 -0.1)">
       <use xlink:href="#DejaVuSans-34"/>
      </g>
     </g>
    </g>
    <g id="text_6">
     <!-- Position -->
     <g transform="translate(253.939687 314.904281)scale(0.12 -0.12)">
      <defs>
       <path id="DejaVuSans-50" d="M 1259 4147 
L 1259 2394 
L 2053 2394 
Q 2494 2394 2734 2622 
Q 2975 2850 2975 3272 
Q 2975 3691 2734 3919 
Q 2494 4147 2053 4147 
L 1259 4147 
z
M 628 4666 
L 2053 4666 
Q 2838 4666 3239 4311 
Q 3641 3956 3641 3272 
Q 3641 2581 3239 2228 
Q 2838 1875 2053 1875 
L 1259 1875 
L 1259 0 
L 628 0 
L 628 4666 
z
" transform="scale(0.015625)"/>
       <path id="DejaVuSans-6f" d="M 1959 3097 
Q 1497 3097 1228 2736 
Q 959 2375 959 1747 
Q 959 1119 1226 758 
Q 1494 397 1959 397 
Q 2419 397 2687 759 
Q 2956 1122 2956 1747 
Q 2956 2369 2687 2733 
Q 2419 3097 1959 3097 
z
M 1959 3584 
Q 2709 3584 3137 3096 
Q 3566 2609 3566 1747 
Q 3566 888 3137 398 
Q 2709 -91 1959 -91 
Q 1206 -91 779 398 
Q 353 888 353 1747 
Q 353 2609 779 3096 
Q 1206 3584 1959 3584 
z
" transform="scale(0.015625)"/>
       <path id="DejaVuSans-73" d="M 2834 3397 
L 2834 2853 
Q 2591 2978 2328 3040 
Q 2066 3103 1784 3103 
Q 1356 3103 1142 2972 
Q 928 2841 928 2578 
Q 928 2378 1081 2264 
Q 1234 2150 1697 2047 
L 1894 2003 
Q 2506 1872 2764 1633 
Q 3022 1394 3022 966 
Q 3022 478 2636 193 
Q 2250 -91 1575 -91 
Q 1294 -91 989 -36 
Q 684 19 347 128 
L 347 722 
Q 666 556 975 473 
Q 1284 391 1588 391 
Q 1994 391 2212 530 
Q 2431 669 2431 922 
Q 2431 1156 2273 1281 
Q 2116 1406 1581 1522 
L 1381 1569 
Q 847 1681 609 1914 
Q 372 2147 372 2553 
Q 372 3047 722 3315 
Q 1072 3584 1716 3584 
Q 2034 3584 2315 3537 
Q 2597 3491 2834 3397 
z
" transform="scale(0.015625)"/>
       <path id="DejaVuSans-69" d="M 603 3500 
L 1178 3500 
L 1178 0 
L 603 0 
L 603 3500 
z
M 603 4863 
L 1178 4863 
L 1178 4134 
L 603 4134 
L 603 4863 
z
" transform="scale(0.015625)"/>
       <path id="DejaVuSans-74" d="M 1172 4494 
L 1172 3500 
L 2356 3500 
L 2356 3053 
L 1172 3053 
L 1172 1153 
Q 1172 725 1289 603 
Q 1406 481 1766 481 
L 2356 481 
L 2356 0 
L 1766 0 
Q 1100 0 847 248 
Q 594 497 594 1153 
L 594 3053 
L 172 3053 
L 172 3500 
L 594 3500 
L 594 4494 
L 1172 4494 
z
" transform="scale(0.015625)"/>
       <path id="DejaVuSans-6e" d="M 3513 2113 
L 3513 0 
L 2938 0 
L 2938 2094 
Q 2938 2591 2744 2837 
Q 2550 3084 2163 3084 
Q 1697 3084 1428 2787 
Q 1159 2491 1159 1978 
L 1159 0 
L 581 0 
L 581 3500 
L 1159 3500 
L 1159 2956 
Q 1366 3272 1645 3428 
Q 1925 3584 2291 3584 
Q 2894 3584 3203 3211 
Q 3513 2838 3513 2113 
z
" transform="scale(0.015625)"/>
      </defs>
      <use xlink:href="#DejaVuSans-50"/>
      <use xlink:href="#DejaVuSans-6f" x="56.677734"/>
      <use xlink:href="#DejaVuSans-73" x="117.859375"/>
      <use xlink:href="#DejaVuSans-69" x="169.958984"/>
      <use xlink:href="#DejaVuSans-74" x="197.742188"/>
      <use xlink:href="#DejaVuSans-69" x="236.951172"/>
      <use xlink:href="#DejaVuSans-6f" x="264.734375"/>
      <use xlink:href="#DejaVuSans-6e" x="325.916016"/>
     </g>
    </g>
   </g>
   <g id="matplotlib.axis_2">
    <g id="ytick_1">
     <g id="line2d_6">
      <defs>
       <path id="m4f8383cfd6" d="M 0 0 
L -3.5 0 
" style="stroke: #000000; stroke-width: 0.8"/>
      </defs>
      <g>
       <use xlink:href="#m4f8383cfd6" x="54.096563" y="271.816997" style="stroke: #000000; stroke-width: 0.8"/>
      </g>
     </g>
     <g id="text_7">
      <!-- −0.5 -->
      <g transform="translate(22.81375 275.616216)scale(0.1 -0.1)">
       <defs>
        <path id="DejaVuSans-2e" d="M 684 794 
L 1344 794 
L 1344 0 
L 684 0 
L 684 794 
z
" transform="scale(0.015625)"/>
        <path id="DejaVuSans-35" d="M 691 4666 
L 3169 4666 
L 3169 4134 
L 1269 4134 
L 1269 2991 
Q 1406 3038 1543 3061 
Q 1681 3084 1819 3084 
Q 2600 3084 3056 2656 
Q 3513 2228 3513 1497 
Q 3513 744 3044 326 
Q 2575 -91 1722 -91 
Q 1428 -91 1123 -41 
Q 819 9 494 109 
L 494 744 
Q 775 591 1075 516 
Q 1375 441 1709 441 
Q 2250 441 2565 725 
Q 2881 1009 2881 1497 
Q 2881 1984 2565 2268 
Q 2250 2553 1709 2553 
Q 1456 2553 1204 2497 
Q 953 2441 691 2322 
L 691 4666 
z
" transform="scale(0.015625)"/>
       </defs>
       <use xlink:href="#DejaVuSans-2212"/>
       <use xlink:href="#DejaVuSans-30" x="83.789062"/>
       <use xlink:href="#DejaVuSans-2e" x="147.412109"/>
       <use xlink:href="#DejaVuSans-35" x="179.199219"/>
      </g>
     </g>
    </g>
    <g id="ytick_2">
     <g id="line2d_7">
      <g>
       <use xlink:href="#m4f8383cfd6" x="54.096563" y="239.214775" style="stroke: #000000; stroke-width: 0.8"/>
      </g>
     </g>
     <g id="text_8">
      <!-- 0.0 -->
      <g transform="translate(31.193438 243.013994)scale(0.1 -0.1)">
       <use xlink:href="#DejaVuSans-30"/>
       <use xlink:href="#DejaVuSans-2e" x="63.623047"/>
       <use xlink:href="#DejaVuSans-30" x="95.410156"/>
      </g>
     </g>
    </g>
    <g id="ytick_3">
     <g id="line2d_8">
      <g>
       <use xlink:href="#m4f8383cfd6" x="54.096563" y="206.612552" style="stroke: #000000; stroke-width: 0.8"/>
      </g>
     </g>
     <g id="text_9">
      <!-- 0.5 -->
      <g transform="translate(31.193438 210.411771)scale(0.1 -0.1)">
       <use xlink:href="#DejaVuSans-30"/>
       <use xlink:href="#DejaVuSans-2e" x="63.623047"/>
       <use xlink:href="#DejaVuSans-35" x="95.410156"/>
      </g>
     </g>
    </g>
    <g id="ytick_4">
     <g id="line2d_9">
      <g>
       <use xlink:href="#m4f8383cfd6" x="54.096563" y="174.01033" style="stroke: #000000; stroke-width: 0.8"/>
      </g>
     </g>
     <g id="text_10">
      <!-- 1.0 -->
      <g transform="translate(31.193438 177.809549)scale(0.1 -0.1)">
       <defs>
        <path id="DejaVuSans-31" d="M 794 531 
L 1825 531 
L 1825 4091 
L 703 3866 
L 703 4441 
L 1819 4666 
L 2450 4666 
L 2450 531 
L 3481 531 
L 3481 0 
L 794 0 
L 794 531 
z
" transform="scale(0.015625)"/>
       </defs>
       <use xlink:href="#DejaVuSans-31"/>
       <use xlink:href="#DejaVuSans-2e" x="63.623047"/>
       <use xlink:href="#DejaVuSans-30" x="95.410156"/>
      </g>
     </g>
    </g>
    <g id="ytick_5">
     <g id="line2d_10">
      <g>
       <use xlink:href="#m4f8383cfd6" x="54.096563" y="141.408108" style="stroke: #000000; stroke-width: 0.8"/>
      </g>
     </g>
     <g id="text_11">
      <!-- 1.5 -->
      <g transform="translate(31.193438 145.207327)scale(0.1 -0.1)">
       <use xlink:href="#DejaVuSans-31"/>
       <use xlink:href="#DejaVuSans-2e" x="63.623047"/>
       <use xlink:href="#DejaVuSans-35" x="95.410156"/>
      </g>
     </g>
    </g>
    <g id="ytick_6">
     <g id="line2d_11">
      <g>
       <use xlink:href="#m4f8383cfd6" x="54.096563" y="108.805886" style="stroke: #000000; stroke-width: 0.8"/>
      </g>
     </g>
     <g id="text_12">
      <!-- 2.0 -->
      <g transform="translate(31.193438 112.605104)scale(0.1 -0.1)">
       <use xlink:href="#DejaVuSans-32"/>
       <use xlink:href="#DejaVuSans-2e" x="63.623047"/>
       <use xlink:href="#DejaVuSans-30" x="95.410156"/>
      </g>
     </g>
    </g>
    <g id="ytick_7">
     <g id="line2d_12">
      <g>
       <use xlink:href="#m4f8383cfd6" x="54.096563" y="76.203663" style="stroke: #000000; stroke-width: 0.8"/>
      </g>
     </g>
     <g id="text_13">
      <!-- 2.5 -->
      <g transform="translate(31.193438 80.002882)scale(0.1 -0.1)">
       <use xlink:href="#DejaVuSans-32"/>
       <use xlink:href="#DejaVuSans-2e" x="63.623047"/>
       <use xlink:href="#DejaVuSans-35" x="95.410156"/>
      </g>
     </g>
    </g>
    <g id="ytick_8">
     <g id="line2d_13">
      <g>
       <use xlink:href="#m4f8383cfd6" x="54.096563" y="43.601441" style="stroke: #000000; stroke-width: 0.8"/>
      </g>
     </g>
     <g id="text_14">
      <!-- 3.0 -->
      <g transform="translate(31.193438 47.40066)scale(0.1 -0.1)">
       <defs>
        <path id="DejaVuSans-33" d="M 2597 2516 
Q 3050 2419 3304 2112 
Q 3559 1806 3559 1356 
Q 3559 666 3084 287 
Q 2609 -91 1734 -91 
Q 1441 -91 1130 -33 
Q 819 25 488 141 
L 488 750 
Q 750 597 1062 519 
Q 1375 441 1716 441 
Q 2309 441 2620 675 
Q 2931 909 2931 1356 
Q 2931 1769 2642 2001 
Q 2353 2234 1838 2234 
L 1294 2234 
L 1294 2753 
L 1863 2753 
Q 2328 2753 2575 2939 
Q 2822 3125 2822 3475 
Q 2822 3834 2567 4026 
Q 2313 4219 1838 4219 
Q 1578 4219 1281 4162 
Q 984 4106 628 3988 
L 628 4550 
Q 988 4650 1302 4700 
Q 1616 4750 1894 4750 
Q 2613 4750 3031 4423 
Q 3450 4097 3450 3541 
Q 3450 3153 3228 2886 
Q 3006 2619 2597 2516 
z
" transform="scale(0.015625)"/>
       </defs>
       <use xlink:href="#DejaVuSans-33"/>
       <use xlink:href="#DejaVuSans-2e" x="63.623047"/>
       <use xlink:href="#DejaVuSans-30" x="95.410156"/>
      </g>
     </g>
    </g>
    <g id="ytick_9">
     <g id="line2d_14">
      <g>
       <use xlink:href="#m4f8383cfd6" x="54.096563" y="10.999219" style="stroke: #000000; stroke-width: 0.8"/>
      </g>
     </g>
     <g id="text_15">
      <!-- 3.5 -->
      <g transform="translate(31.193438 14.798437)scale(0.1 -0.1)">
       <use xlink:href="#DejaVuSans-33"/>
       <use xlink:href="#DejaVuSans-2e" x="63.623047"/>
       <use xlink:href="#DejaVuSans-35" x="95.410156"/>
      </g>
     </g>
    </g>
    <g id="text_16">
     <!-- Flux -->
     <g transform="translate(16.318125 158.979594)rotate(-90)scale(0.12 -0.12)">
      <defs>
       <path id="DejaVuSans-46" d="M 628 4666 
L 3309 4666 
L 3309 4134 
L 1259 4134 
L 1259 2759 
L 3109 2759 
L 3109 2228 
L 1259 2228 
L 1259 0 
L 628 0 
L 628 4666 
z
" transform="scale(0.015625)"/>
       <path id="DejaVuSans-6c" d="M 603 4863 
L 1178 4863 
L 1178 0 
L 603 0 
L 603 4863 
z
" transform="scale(0.015625)"/>
       <path id="DejaVuSans-75" d="M 544 1381 
L 544 3500 
L 1119 3500 
L 1119 1403 
Q 1119 906 1312 657 
Q 1506 409 1894 409 
Q 2359 409 2629 706 
Q 2900 1003 2900 1516 
L 2900 3500 
L 3475 3500 
L 3475 0 
L 2900 0 
L 2900 538 
Q 2691 219 2414 64 
Q 2138 -91 1772 -91 
Q 1169 -91 856 284 
Q 544 659 544 1381 
z
M 1991 3584 
L 1991 3584 
z
" transform="scale(0.015625)"/>
       <path id="DejaVuSans-78" d="M 3513 3500 
L 2247 1797 
L 3578 0 
L 2900 0 
L 1881 1375 
L 863 0 
L 184 0 
L 1544 1831 
L 300 3500 
L 978 3500 
L 1906 2253 
L 2834 3500 
L 3513 3500 
z
" transform="scale(0.015625)"/>
      </defs>
      <use xlink:href="#DejaVuSans-46"/>
      <use xlink:href="#DejaVuSans-6c" x="57.519531"/>
      <use xlink:href="#DejaVuSans-75" x="85.302734"/>
      <use xlink:href="#DejaVuSans-78" x="148.681641"/>
     </g>
    </g>
   </g>
   <g id="line2d_15">
    <defs>
     <path id="m661c31f415" d="M 0 3 
C 0.795609 3 1.55874 2.683901 2.12132 2.12132 
C 2.683901 1.55874 3 0.795609 3 0 
C 3 -0.795609 2.683901 -1.55874 2.12132 -2.12132 
C 1.55874 -2.683901 0.795609 -3 0 -3 
C -0.795609 -3 -1.55874 -2.683901 -2.12132 -2.12132 
C -2.683901 -1.55874 -3 -0.795609 -3 0 
C -3 0.795609 -2.683901 1.55874 -2.12132 2.12132 
C -1.55874 2.683901 -0.795609 3 0 3 
z
" style="stroke: #000000"/>
    </defs>
    <g clip-path="url(#p1d14242389)">
     <use xlink:href="#m661c31f415" x="74.387472" y="216.209964" style="stroke: #000000"/>
     <use xlink:href="#m661c31f415" x="76.426759" y="233.996369" style="stroke: #000000"/>
     <use xlink:href="#m661c31f415" x="78.466046" y="226.451161" style="stroke: #000000"/>
     <use xlink:href="#m661c31f415" x="80.505334" y="209.991535" style="stroke: #000000"/>
     <use xlink:href="#m661c31f415" x="82.544621" y="214.860158" style="stroke: #000000"/>
     <use xlink:href="#m661c31f415" x="84.583908" y="251.959347" style="stroke: #000000"/>
     <use xlink:href="#m661c31f415" x="86.623196" y="226.824777" style="stroke: #000000"/>
     <use xlink:href="#m661c31f415" x="88.662483" y="241.188607" style="stroke: #000000"/>
     <use xlink:href="#m661c31f415" x="90.70177" y="240.56084" style="stroke: #000000"/>
     <use xlink:href="#m661c31f415" x="92.741058" y="233.860205" style="stroke: #000000"/>
     <use xlink:href="#m661c31f415" x="94.780345" y="237.336319" style="stroke: #000000"/>
     <use xlink:href="#m661c31f415" x="96.819632" y="220.249756" style="stroke: #000000"/>
     <use xlink:href="#m661c31f415" x="98.85892" y="229.290166" style="stroke: #000000"/>
     <use xlink:href="#m661c31f415" x="100.898207" y="237.628024" style="stroke: #000000"/>
     <use xlink:href="#m661c31f415" x="102.937494" y="233.426404" style="stroke: #000000"/>
     <use xlink:href="#m661c31f415" x="104.976782" y="234.863365" style="stroke: #000000"/>
     <use xlink:href="#m661c31f415" x="107.016069" y="219.730656" style="stroke: #000000"/>
     <use xlink:href="#m661c31f415" x="109.055356" y="241.890221" style="stroke: #000000"/>
     <use xlink:href="#m661c31f415" x="111.094644" y="235.132094" style="stroke: #000000"/>
     <use xlink:href="#m661c31f415" x="113.133931" y="250.352942" style="stroke: #000000"/>
     <use xlink:href="#m661c31f415" x="115.173219" y="272.508031" style="stroke: #000000"/>
     <use xlink:href="#m661c31f415" x="117.212506" y="230.691007" style="stroke: #000000"/>
     <use xlink:href="#m661c31f415" x="119.251793" y="227.941758" style="stroke: #000000"/>
     <use xlink:href="#m661c31f415" x="121.291081" y="248.893266" style="stroke: #000000"/>
     <use xlink:href="#m661c31f415" x="123.330368" y="209.615157" style="stroke: #000000"/>
     <use xlink:href="#m661c31f415" x="125.369655" y="258.180996" style="stroke: #000000"/>
     <use xlink:href="#m661c31f415" x="127.408943" y="238.618042" style="stroke: #000000"/>
     <use xlink:href="#m661c31f415" x="129.44823" y="241.655818" style="stroke: #000000"/>
     <use xlink:href="#m661c31f415" x="131.487517" y="219.22597" style="stroke: #000000"/>
     <use xlink:href="#m661c31f415" x="133.526805" y="220.053028" style="stroke: #000000"/>
     <use xlink:href="#m661c31f415" x="135.566092" y="237.194119" style="stroke: #000000"/>
     <use xlink:href="#m661c31f415" x="137.605379" y="234.283195" style="stroke: #000000"/>
     <use xlink:href="#m661c31f415" x="139.644667" y="250.792283" style="stroke: #000000"/>
     <use xlink:href="#m661c31f415" x="141.683954" y="265.046112" style="stroke: #000000"/>
     <use xlink:href="#m661c31f415" x="143.723241" y="243.751845" style="stroke: #000000"/>
     <use xlink:href="#m661c31f415" x="145.762529" y="237.175826" style="stroke: #000000"/>
     <use xlink:href="#m661c31f415" x="147.801816" y="223.170663" style="stroke: #000000"/>
     <use xlink:href="#m661c31f415" x="149.841103" y="223.534633" style="stroke: #000000"/>
     <use xlink:href="#m661c31f415" x="151.880391" y="244.265804" style="stroke: #000000"/>
     <use xlink:href="#m661c31f415" x="153.919678" y="243.156992" style="stroke: #000000"/>
     <use xlink:href="#m661c31f415" x="155.958965" y="252.888726" style="stroke: #000000"/>
     <use xlink:href="#m661c31f415" x="157.998253" y="257.732915" style="stroke: #000000"/>
     <use xlink:href="#m661c31f415" x="160.03754" y="261.465838" style="stroke: #000000"/>
     <use xlink:href="#m661c31f415" x="162.076827" y="213.774629" style="stroke: #000000"/>
     <use xlink:href="#m661c31f415" x="164.116115" y="245.860677" style="stroke: #000000"/>
     <use xlink:href="#m661c31f415" x="166.155402" y="244.927081" style="stroke: #000000"/>
     <use xlink:href="#m661c31f415" x="168.194689" y="255.551556" style="stroke: #000000"/>
     <use xlink:href="#m661c31f415" x="170.233977" y="229.07454" style="stroke: #000000"/>
     <use xlink:href="#m661c31f415" x="172.273264" y="260.259983" style="stroke: #000000"/>
     <use xlink:href="#m661c31f415" x="174.312552" y="241.987128" style="stroke: #000000"/>
     <use xlink:href="#m661c31f415" x="176.351839" y="250.889798" style="stroke: #000000"/>
     <use xlink:href="#m661c31f415" x="178.391126" y="234.165652" style="stroke: #000000"/>
     <use xlink:href="#m661c31f415" x="180.430414" y="245.87135" style="stroke: #000000"/>
     <use xlink:href="#m661c31f415" x="182.469701" y="254.604899" style="stroke: #000000"/>
     <use xlink:href="#m661c31f415" x="184.508988" y="239.573838" style="stroke: #000000"/>
     <use xlink:href="#m661c31f415" x="186.548276" y="233.61776" style="stroke: #000000"/>
     <use xlink:href="#m661c31f415" x="188.587563" y="238.332594" style="stroke: #000000"/>
     <use xlink:href="#m661c31f415" x="190.62685" y="235.250934" style="stroke: #000000"/>
     <use xlink:href="#m661c31f415" x="192.666138" y="247.461622" style="stroke: #000000"/>
     <use xlink:href="#m661c31f415" x="194.705425" y="243.912333" style="stroke: #000000"/>
     <use xlink:href="#m661c31f415" x="196.744712" y="247.941581" style="stroke: #000000"/>
     <use xlink:href="#m661c31f415" x="198.784" y="243.848543" style="stroke: #000000"/>
     <use xlink:href="#m661c31f415" x="200.823287" y="249.748002" style="stroke: #000000"/>
     <use xlink:href="#m661c31f415" x="202.862574" y="261.636144" style="stroke: #000000"/>
     <use xlink:href="#m661c31f415" x="204.901862" y="236.784959" style="stroke: #000000"/>
     <use xlink:href="#m661c31f415" x="206.941149" y="244.306839" style="stroke: #000000"/>
     <use xlink:href="#m661c31f415" x="208.980436" y="260.287187" style="stroke: #000000"/>
     <use xlink:href="#m661c31f415" x="211.019724" y="232.944011" style="stroke: #000000"/>
     <use xlink:href="#m661c31f415" x="213.059011" y="250.75063" style="stroke: #000000"/>
     <use xlink:href="#m661c31f415" x="215.098298" y="238.166747" style="stroke: #000000"/>
     <use xlink:href="#m661c31f415" x="217.137586" y="229.244769" style="stroke: #000000"/>
     <use xlink:href="#m661c31f415" x="219.176873" y="236.959029" style="stroke: #000000"/>
     <use xlink:href="#m661c31f415" x="221.21616" y="223.646416" style="stroke: #000000"/>
     <use xlink:href="#m661c31f415" x="223.255448" y="254.443853" style="stroke: #000000"/>
     <use xlink:href="#m661c31f415" x="225.294735" y="232.895209" style="stroke: #000000"/>
     <use xlink:href="#m661c31f415" x="227.334023" y="246.834207" style="stroke: #000000"/>
     <use xlink:href="#m661c31f415" x="229.37331" y="248.97453" style="stroke: #000000"/>
     <use xlink:href="#m661c31f415" x="231.412597" y="244.827814" style="stroke: #000000"/>
     <use xlink:href="#m661c31f415" x="233.451885" y="240.939611" style="stroke: #000000"/>
     <use xlink:href="#m661c31f415" x="235.491172" y="235.669297" style="stroke: #000000"/>
     <use xlink:href="#m661c31f415" x="237.530459" y="251.038235" style="stroke: #000000"/>
     <use xlink:href="#m661c31f415" x="239.569747" y="223.443153" style="stroke: #000000"/>
     <use xlink:href="#m661c31f415" x="241.609034" y="228.357624" style="stroke: #000000"/>
     <use xlink:href="#m661c31f415" x="243.648321" y="253.582498" style="stroke: #000000"/>
     <use xlink:href="#m661c31f415" x="245.687609" y="213.122541" style="stroke: #000000"/>
     <use xlink:href="#m661c31f415" x="247.726896" y="206.636962" style="stroke: #000000"/>
     <use xlink:href="#m661c31f415" x="249.766183" y="214.650747" style="stroke: #000000"/>
     <use xlink:href="#m661c31f415" x="251.805471" y="230.845925" style="stroke: #000000"/>
     <use xlink:href="#m661c31f415" x="253.844758" y="240.736237" style="stroke: #000000"/>
     <use xlink:href="#m661c31f415" x="255.884045" y="211.073395" style="stroke: #000000"/>
     <use xlink:href="#m661c31f415" x="257.923333" y="227.894342" style="stroke: #000000"/>
     <use xlink:href="#m661c31f415" x="259.96262" y="204.249543" style="stroke: #000000"/>
     <use xlink:href="#m661c31f415" x="262.001907" y="214.755274" style="stroke: #000000"/>
     <use xlink:href="#m661c31f415" x="264.041195" y="201.724144" style="stroke: #000000"/>
     <use xlink:href="#m661c31f415" x="266.080482" y="206.496094" style="stroke: #000000"/>
     <use xlink:href="#m661c31f415" x="268.119769" y="198.293027" style="stroke: #000000"/>
     <use xlink:href="#m661c31f415" x="270.159057" y="203.404437" style="stroke: #000000"/>
     <use xlink:href="#m661c31f415" x="272.198344" y="175.947998" style="stroke: #000000"/>
     <use xlink:href="#m661c31f415" x="274.237631" y="192.935394" style="stroke: #000000"/>
     <use xlink:href="#m661c31f415" x="276.276919" y="184.357249" style="stroke: #000000"/>
     <use xlink:href="#m661c31f415" x="278.316206" y="159.709729" style="stroke: #000000"/>
     <use xlink:href="#m661c31f415" x="280.355494" y="196.178447" style="stroke: #000000"/>
     <use xlink:href="#m661c31f415" x="282.394781" y="189.184695" style="stroke: #000000"/>
     <use xlink:href="#m661c31f415" x="284.434068" y="153.685593" style="stroke: #000000"/>
     <use xlink:href="#m661c31f415" x="286.473356" y="175.057138" style="stroke: #000000"/>
     <use xlink:href="#m661c31f415" x="288.512643" y="127.592278" style="stroke: #000000"/>
     <use xlink:href="#m661c31f415" x="290.55193" y="151.296606" style="stroke: #000000"/>
     <use xlink:href="#m661c31f415" x="292.591218" y="148.437527" style="stroke: #000000"/>
     <use xlink:href="#m661c31f415" x="294.630505" y="106.26953" style="stroke: #000000"/>
     <use xlink:href="#m661c31f415" x="296.669792" y="104.614847" style="stroke: #000000"/>
     <use xlink:href="#m661c31f415" x="298.70908" y="92.117373" style="stroke: #000000"/>
     <use xlink:href="#m661c31f415" x="300.748367" y="97.239458" style="stroke: #000000"/>
     <use xlink:href="#m661c31f415" x="302.787654" y="112.964659" style="stroke: #000000"/>
     <use xlink:href="#m661c31f415" x="304.826942" y="69.662978" style="stroke: #000000"/>
     <use xlink:href="#m661c31f415" x="306.866229" y="91.13153" style="stroke: #000000"/>
     <use xlink:href="#m661c31f415" x="308.905516" y="70.529356" style="stroke: #000000"/>
     <use xlink:href="#m661c31f415" x="310.944804" y="62.357934" style="stroke: #000000"/>
     <use xlink:href="#m661c31f415" x="312.984091" y="70.873252" style="stroke: #000000"/>
     <use xlink:href="#m661c31f415" x="315.023378" y="55.470551" style="stroke: #000000"/>
     <use xlink:href="#m661c31f415" x="317.062666" y="46.623589" style="stroke: #000000"/>
     <use xlink:href="#m661c31f415" x="319.101953" y="49.510246" style="stroke: #000000"/>
     <use xlink:href="#m661c31f415" x="321.14124" y="65.17113" style="stroke: #000000"/>
     <use xlink:href="#m661c31f415" x="323.180528" y="44.046122" style="stroke: #000000"/>
     <use xlink:href="#m661c31f415" x="325.219815" y="28.459824" style="stroke: #000000"/>
     <use xlink:href="#m661c31f415" x="327.259102" y="53.382192" style="stroke: #000000"/>
     <use xlink:href="#m661c31f415" x="329.29839" y="45.605632" style="stroke: #000000"/>
     <use xlink:href="#m661c31f415" x="331.337677" y="49.429337" style="stroke: #000000"/>
     <use xlink:href="#m661c31f415" x="333.376965" y="20.508031" style="stroke: #000000"/>
     <use xlink:href="#m661c31f415" x="335.416252" y="37.485268" style="stroke: #000000"/>
     <use xlink:href="#m661c31f415" x="337.455539" y="43.307306" style="stroke: #000000"/>
     <use xlink:href="#m661c31f415" x="339.494827" y="61.741986" style="stroke: #000000"/>
     <use xlink:href="#m661c31f415" x="341.534114" y="48.426602" style="stroke: #000000"/>
     <use xlink:href="#m661c31f415" x="343.573401" y="68.643896" style="stroke: #000000"/>
     <use xlink:href="#m661c31f415" x="345.612689" y="64.410507" style="stroke: #000000"/>
     <use xlink:href="#m661c31f415" x="347.651976" y="78.622852" style="stroke: #000000"/>
     <use xlink:href="#m661c31f415" x="349.691263" y="67.48506" style="stroke: #000000"/>
     <use xlink:href="#m661c31f415" x="351.730551" y="75.169974" style="stroke: #000000"/>
     <use xlink:href="#m661c31f415" x="353.769838" y="92.130646" style="stroke: #000000"/>
     <use xlink:href="#m661c31f415" x="355.809125" y="91.250589" style="stroke: #000000"/>
     <use xlink:href="#m661c31f415" x="357.848413" y="117.87887" style="stroke: #000000"/>
     <use xlink:href="#m661c31f415" x="359.8877" y="130.424199" style="stroke: #000000"/>
     <use xlink:href="#m661c31f415" x="361.926987" y="112.678216" style="stroke: #000000"/>
     <use xlink:href="#m661c31f415" x="363.966275" y="123.683602" style="stroke: #000000"/>
     <use xlink:href="#m661c31f415" x="366.005562" y="124.984258" style="stroke: #000000"/>
     <use xlink:href="#m661c31f415" x="368.044849" y="109.501532" style="stroke: #000000"/>
     <use xlink:href="#m661c31f415" x="370.084137" y="135.433886" style="stroke: #000000"/>
     <use xlink:href="#m661c31f415" x="372.123424" y="166.638285" style="stroke: #000000"/>
     <use xlink:href="#m661c31f415" x="374.162711" y="146.924977" style="stroke: #000000"/>
     <use xlink:href="#m661c31f415" x="376.201999" y="185.151095" style="stroke: #000000"/>
     <use xlink:href="#m661c31f415" x="378.241286" y="180.222246" style="stroke: #000000"/>
     <use xlink:href="#m661c31f415" x="380.280573" y="180.996817" style="stroke: #000000"/>
     <use xlink:href="#m661c31f415" x="382.319861" y="163.34292" style="stroke: #000000"/>
     <use xlink:href="#m661c31f415" x="384.359148" y="200.642445" style="stroke: #000000"/>
     <use xlink:href="#m661c31f415" x="386.398436" y="206.609243" style="stroke: #000000"/>
     <use xlink:href="#m661c31f415" x="388.437723" y="201.673143" style="stroke: #000000"/>
     <use xlink:href="#m661c31f415" x="390.47701" y="213.257118" style="stroke: #000000"/>
     <use xlink:href="#m661c31f415" x="392.516298" y="193.791758" style="stroke: #000000"/>
     <use xlink:href="#m661c31f415" x="394.555585" y="226.119308" style="stroke: #000000"/>
     <use xlink:href="#m661c31f415" x="396.594872" y="230.23611" style="stroke: #000000"/>
     <use xlink:href="#m661c31f415" x="398.63416" y="223.915472" style="stroke: #000000"/>
     <use xlink:href="#m661c31f415" x="400.673447" y="227.347605" style="stroke: #000000"/>
     <use xlink:href="#m661c31f415" x="402.712734" y="198.066627" style="stroke: #000000"/>
     <use xlink:href="#m661c31f415" x="404.752022" y="212.97196" style="stroke: #000000"/>
     <use xlink:href="#m661c31f415" x="406.791309" y="226.100479" style="stroke: #000000"/>
     <use xlink:href="#m661c31f415" x="408.830596" y="244.895269" style="stroke: #000000"/>
     <use xlink:href="#m661c31f415" x="410.869884" y="219.376852" style="stroke: #000000"/>
     <use xlink:href="#m661c31f415" x="412.909171" y="244.724355" style="stroke: #000000"/>
     <use xlink:href="#m661c31f415" x="414.948458" y="252.954451" style="stroke: #000000"/>
     <use xlink:href="#m661c31f415" x="416.987746" y="218.297285" style="stroke: #000000"/>
     <use xlink:href="#m661c31f415" x="419.027033" y="230.505877" style="stroke: #000000"/>
     <use xlink:href="#m661c31f415" x="421.06632" y="223.361484" style="stroke: #000000"/>
     <use xlink:href="#m661c31f415" x="423.105608" y="231.84089" style="stroke: #000000"/>
     <use xlink:href="#m661c31f415" x="425.144895" y="225.358948" style="stroke: #000000"/>
     <use xlink:href="#m661c31f415" x="427.184182" y="245.477841" style="stroke: #000000"/>
     <use xlink:href="#m661c31f415" x="429.22347" y="250.860497" style="stroke: #000000"/>
     <use xlink:href="#m661c31f415" x="431.262757" y="228.808995" style="stroke: #000000"/>
     <use xlink:href="#m661c31f415" x="433.302044" y="248.447044" style="stroke: #000000"/>
     <use xlink:href="#m661c31f415" x="435.341332" y="247.189644" style="stroke: #000000"/>
     <use xlink:href="#m661c31f415" x="437.380619" y="244.327009" style="stroke: #000000"/>
     <use xlink:href="#m661c31f415" x="439.419906" y="238.315164" style="stroke: #000000"/>
     <use xlink:href="#m661c31f415" x="441.459194" y="243.288671" style="stroke: #000000"/>
     <use xlink:href="#m661c31f415" x="443.498481" y="256.708915" style="stroke: #000000"/>
     <use xlink:href="#m661c31f415" x="445.537769" y="247.258388" style="stroke: #000000"/>
     <use xlink:href="#m661c31f415" x="447.577056" y="267.930768" style="stroke: #000000"/>
     <use xlink:href="#m661c31f415" x="449.616343" y="230.839256" style="stroke: #000000"/>
     <use xlink:href="#m661c31f415" x="451.655631" y="259.93127" style="stroke: #000000"/>
     <use xlink:href="#m661c31f415" x="453.694918" y="253.478276" style="stroke: #000000"/>
     <use xlink:href="#m661c31f415" x="455.734205" y="238.425569" style="stroke: #000000"/>
     <use xlink:href="#m661c31f415" x="457.773493" y="248.774088" style="stroke: #000000"/>
     <use xlink:href="#m661c31f415" x="459.81278" y="219.026043" style="stroke: #000000"/>
     <use xlink:href="#m661c31f415" x="461.852067" y="256.023183" style="stroke: #000000"/>
     <use xlink:href="#m661c31f415" x="463.891355" y="235.692291" style="stroke: #000000"/>
     <use xlink:href="#m661c31f415" x="465.930642" y="239.696319" style="stroke: #000000"/>
     <use xlink:href="#m661c31f415" x="467.969929" y="254.424166" style="stroke: #000000"/>
     <use xlink:href="#m661c31f415" x="470.009217" y="232.372756" style="stroke: #000000"/>
     <use xlink:href="#m661c31f415" x="472.048504" y="241.438168" style="stroke: #000000"/>
     <use xlink:href="#m661c31f415" x="474.087791" y="229.139534" style="stroke: #000000"/>
     <use xlink:href="#m661c31f415" x="476.127079" y="228.467689" style="stroke: #000000"/>
     <use xlink:href="#m661c31f415" x="478.166366" y="210.998342" style="stroke: #000000"/>
     <use xlink:href="#m661c31f415" x="480.205653" y="221.780831" style="stroke: #000000"/>
    </g>
   </g>
   <g id="line2d_16">
    <path d="M 74.387472 239.214775 
L 253.844758 239.214775 
L 255.884045 235.58543 
L 321.14124 44.221197 
L 323.180528 40.238523 
L 333.376965 40.238523 
L 335.416252 40.392359 
L 402.712734 237.736725 
L 404.752022 239.214775 
L 480.205653 239.214775 
L 480.205653 239.214775 
" clip-path="url(#p1d14242389)" style="fill: none; stroke: #1f77b4; stroke-width: 1.5; stroke-linecap: square"/>
   </g>
   <g id="line2d_17">
    <path d="M 74.387472 239.214775 
L 200.823287 239.108956 
L 211.019724 238.88009 
L 217.137586 238.57681 
L 223.255448 238.039758 
L 227.334023 237.482604 
L 231.412597 236.699941 
L 235.491172 235.618939 
L 239.569747 234.151141 
L 241.609034 233.240186 
L 243.648321 232.192194 
L 245.687609 230.99181 
L 247.726896 229.622909 
L 249.766183 228.06873 
L 251.805471 226.31205 
L 253.844758 224.335386 
L 255.884045 222.121246 
L 257.923333 219.65241 
L 259.96262 216.912254 
L 262.001907 213.885104 
L 264.041195 210.556626 
L 266.080482 206.91424 
L 268.119769 202.947554 
L 270.159057 198.648809 
L 272.198344 194.013325 
L 274.237631 189.039947 
L 276.276919 183.73146 
L 280.355494 172.14229 
L 284.434068 159.360469 
L 288.512643 145.582789 
L 294.630505 123.687244 
L 302.787654 94.281203 
L 306.866229 80.554326 
L 308.905516 74.158135 
L 310.944804 68.157988 
L 312.984091 62.614811 
L 315.023378 57.586317 
L 317.062666 53.126003 
L 319.101953 49.28221 
L 321.14124 46.097251 
L 323.180528 43.606635 
L 325.219815 41.838408 
L 327.259102 40.812629 
L 329.29839 40.540989 
L 331.337677 41.026591 
L 333.376965 42.26389 
L 335.416252 44.238798 
L 337.455539 46.928955 
L 339.494827 50.304142 
L 341.534114 54.326856 
L 343.573401 58.952996 
L 345.612689 64.13267 
L 347.651976 69.811089 
L 349.691263 75.929532 
L 353.769838 89.23798 
L 357.848413 103.548109 
L 370.084137 147.581732 
L 374.162711 161.233739 
L 378.241286 173.856912 
L 382.319861 185.266366 
L 384.359148 190.480611 
L 386.398436 195.358536 
L 388.437723 199.898511 
L 390.47701 204.102733 
L 392.516298 207.976797 
L 394.555585 211.529251 
L 396.594872 214.771154 
L 398.63416 217.715622 
L 400.673447 220.377411 
L 402.712734 222.7725 
L 404.752022 224.917718 
L 406.791309 226.830391 
L 408.830596 228.528037 
L 410.869884 230.028089 
L 412.909171 231.347658 
L 414.948458 232.503342 
L 416.987746 233.511058 
L 421.06632 235.14217 
L 425.144895 236.35087 
L 429.22347 237.231345 
L 433.302044 237.861933 
L 437.380619 238.306015 
L 443.498481 238.728564 
L 451.655631 239.014576 
L 463.891355 239.167601 
L 480.205653 239.20923 
L 480.205653 239.20923 
" clip-path="url(#p1d14242389)" style="fill: none; stroke: #ff7f0e; stroke-width: 1.5; stroke-linecap: square"/>
   </g>
   <g id="patch_3">
    <path d="M 54.096563 285.108031 
L 54.096563 7.908031 
" style="fill: none; stroke: #000000; stroke-width: 0.8; stroke-linejoin: miter; stroke-linecap: square"/>
   </g>
   <g id="patch_4">
    <path d="M 500.496562 285.108031 
L 500.496562 7.908031 
" style="fill: none; stroke: #000000; stroke-width: 0.8; stroke-linejoin: miter; stroke-linecap: square"/>
   </g>
   <g id="patch_5">
    <path d="M 54.096563 285.108031 
L 500.496562 285.108031 
" style="fill: none; stroke: #000000; stroke-width: 0.8; stroke-linejoin: miter; stroke-linecap: square"/>
   </g>
   <g id="patch_6">
    <path d="M 54.096563 7.908031 
L 500.496562 7.908031 
" style="fill: none; stroke: #000000; stroke-width: 0.8; stroke-linejoin: miter; stroke-linecap: square"/>
   </g>
   <g id="legend_1">
    <g id="patch_7">
     <path d="M 61.096563 45.264281 
L 140.96375 45.264281 
Q 142.96375 45.264281 142.96375 43.264281 
L 142.96375 14.908031 
Q 142.96375 12.908031 140.96375 12.908031 
L 61.096563 12.908031 
Q 59.096563 12.908031 59.096563 14.908031 
L 59.096563 43.264281 
Q 59.096563 45.264281 61.096563 45.264281 
z
" style="fill: #ffffff; opacity: 0.8; stroke: #cccccc; stroke-linejoin: miter"/>
    </g>
    <g id="line2d_18">
     <path d="M 63.096563 21.006469 
L 73.096563 21.006469 
L 83.096563 21.006469 
" style="fill: none; stroke: #1f77b4; stroke-width: 1.5; stroke-linecap: square"/>
    </g>
    <g id="text_17">
     <!-- Trapezoid -->
     <g transform="translate(91.096563 24.506469)scale(0.1 -0.1)">
      <defs>
       <path id="DejaVuSans-54" d="M -19 4666 
L 3928 4666 
L 3928 4134 
L 2272 4134 
L 2272 0 
L 1638 0 
L 1638 4134 
L -19 4134 
L -19 4666 
z
" transform="scale(0.015625)"/>
       <path id="DejaVuSans-72" d="M 2631 2963 
Q 2534 3019 2420 3045 
Q 2306 3072 2169 3072 
Q 1681 3072 1420 2755 
Q 1159 2438 1159 1844 
L 1159 0 
L 581 0 
L 581 3500 
L 1159 3500 
L 1159 2956 
Q 1341 3275 1631 3429 
Q 1922 3584 2338 3584 
Q 2397 3584 2469 3576 
Q 2541 3569 2628 3553 
L 2631 2963 
z
" transform="scale(0.015625)"/>
       <path id="DejaVuSans-61" d="M 2194 1759 
Q 1497 1759 1228 1600 
Q 959 1441 959 1056 
Q 959 750 1161 570 
Q 1363 391 1709 391 
Q 2188 391 2477 730 
Q 2766 1069 2766 1631 
L 2766 1759 
L 2194 1759 
z
M 3341 1997 
L 3341 0 
L 2766 0 
L 2766 531 
Q 2569 213 2275 61 
Q 1981 -91 1556 -91 
Q 1019 -91 701 211 
Q 384 513 384 1019 
Q 384 1609 779 1909 
Q 1175 2209 1959 2209 
L 2766 2209 
L 2766 2266 
Q 2766 2663 2505 2880 
Q 2244 3097 1772 3097 
Q 1472 3097 1187 3025 
Q 903 2953 641 2809 
L 641 3341 
Q 956 3463 1253 3523 
Q 1550 3584 1831 3584 
Q 2591 3584 2966 3190 
Q 3341 2797 3341 1997 
z
" transform="scale(0.015625)"/>
       <path id="DejaVuSans-70" d="M 1159 525 
L 1159 -1331 
L 581 -1331 
L 581 3500 
L 1159 3500 
L 1159 2969 
Q 1341 3281 1617 3432 
Q 1894 3584 2278 3584 
Q 2916 3584 3314 3078 
Q 3713 2572 3713 1747 
Q 3713 922 3314 415 
Q 2916 -91 2278 -91 
Q 1894 -91 1617 61 
Q 1341 213 1159 525 
z
M 3116 1747 
Q 3116 2381 2855 2742 
Q 2594 3103 2138 3103 
Q 1681 3103 1420 2742 
Q 1159 2381 1159 1747 
Q 1159 1113 1420 752 
Q 1681 391 2138 391 
Q 2594 391 2855 752 
Q 3116 1113 3116 1747 
z
" transform="scale(0.015625)"/>
       <path id="DejaVuSans-65" d="M 3597 1894 
L 3597 1613 
L 953 1613 
Q 991 1019 1311 708 
Q 1631 397 2203 397 
Q 2534 397 2845 478 
Q 3156 559 3463 722 
L 3463 178 
Q 3153 47 2828 -22 
Q 2503 -91 2169 -91 
Q 1331 -91 842 396 
Q 353 884 353 1716 
Q 353 2575 817 3079 
Q 1281 3584 2069 3584 
Q 2775 3584 3186 3129 
Q 3597 2675 3597 1894 
z
M 3022 2063 
Q 3016 2534 2758 2815 
Q 2500 3097 2075 3097 
Q 1594 3097 1305 2825 
Q 1016 2553 972 2059 
L 3022 2063 
z
" transform="scale(0.015625)"/>
       <path id="DejaVuSans-7a" d="M 353 3500 
L 3084 3500 
L 3084 2975 
L 922 459 
L 3084 459 
L 3084 0 
L 275 0 
L 275 525 
L 2438 3041 
L 353 3041 
L 353 3500 
z
" transform="scale(0.015625)"/>
       <path id="DejaVuSans-64" d="M 2906 2969 
L 2906 4863 
L 3481 4863 
L 3481 0 
L 2906 0 
L 2906 525 
Q 2725 213 2448 61 
Q 2172 -91 1784 -91 
Q 1150 -91 751 415 
Q 353 922 353 1747 
Q 353 2572 751 3078 
Q 1150 3584 1784 3584 
Q 2172 3584 2448 3432 
Q 2725 3281 2906 2969 
z
M 947 1747 
Q 947 1113 1208 752 
Q 1469 391 1925 391 
Q 2381 391 2643 752 
Q 2906 1113 2906 1747 
Q 2906 2381 2643 2742 
Q 2381 3103 1925 3103 
Q 1469 3103 1208 2742 
Q 947 2381 947 1747 
z
" transform="scale(0.015625)"/>
      </defs>
      <use xlink:href="#DejaVuSans-54"/>
      <use xlink:href="#DejaVuSans-72" x="46.333984"/>
      <use xlink:href="#DejaVuSans-61" x="87.447266"/>
      <use xlink:href="#DejaVuSans-70" x="148.726562"/>
      <use xlink:href="#DejaVuSans-65" x="212.203125"/>
      <use xlink:href="#DejaVuSans-7a" x="273.726562"/>
      <use xlink:href="#DejaVuSans-6f" x="326.216797"/>
      <use xlink:href="#DejaVuSans-69" x="387.398438"/>
      <use xlink:href="#DejaVuSans-64" x="415.181641"/>
     </g>
    </g>
    <g id="line2d_19">
     <path d="M 63.096563 35.684594 
L 73.096563 35.684594 
L 83.096563 35.684594 
" style="fill: none; stroke: #ff7f0e; stroke-width: 1.5; stroke-linecap: square"/>
    </g>
    <g id="text_18">
     <!-- Gaussian -->
     <g transform="translate(91.096563 39.184594)scale(0.1 -0.1)">
      <defs>
       <path id="DejaVuSans-47" d="M 3809 666 
L 3809 1919 
L 2778 1919 
L 2778 2438 
L 4434 2438 
L 4434 434 
Q 4069 175 3628 42 
Q 3188 -91 2688 -91 
Q 1594 -91 976 548 
Q 359 1188 359 2328 
Q 359 3472 976 4111 
Q 1594 4750 2688 4750 
Q 3144 4750 3555 4637 
Q 3966 4525 4313 4306 
L 4313 3634 
Q 3963 3931 3569 4081 
Q 3175 4231 2741 4231 
Q 1884 4231 1454 3753 
Q 1025 3275 1025 2328 
Q 1025 1384 1454 906 
Q 1884 428 2741 428 
Q 3075 428 3337 486 
Q 3600 544 3809 666 
z
" transform="scale(0.015625)"/>
      </defs>
      <use xlink:href="#DejaVuSans-47"/>
      <use xlink:href="#DejaVuSans-61" x="77.490234"/>
      <use xlink:href="#DejaVuSans-75" x="138.769531"/>
      <use xlink:href="#DejaVuSans-73" x="202.148438"/>
      <use xlink:href="#DejaVuSans-73" x="254.248047"/>
      <use xlink:href="#DejaVuSans-69" x="306.347656"/>
      <use xlink:href="#DejaVuSans-61" x="334.130859"/>
      <use xlink:href="#DejaVuSans-6e" x="395.410156"/>
     </g>
    </g>
   </g>
  </g>
 </g>
 <defs>
  <clipPath id="p1d14242389">
   <rect x="54.096563" y="7.908031" width="446.4" height="277.2"/>
  </clipPath>
 </defs>
</svg>
