<?xml version="1.0" encoding="utf-8" standalone="no"?>
<!DOCTYPE svg PUBLIC "-//W3C//DTD SVG 1.1//EN"
  "http://www.w3.org/Graphics/SVG/1.1/DTD/svg11.dtd">
<svg xmlns:xlink="http://www.w3.org/1999/xlink" width="380.482812pt" height="363.718125pt" viewBox="0 0 380.482812 363.718125" xmlns="http://www.w3.org/2000/svg" version="1.1">
 <metadata>
  <rdf:RDF xmlns:dc="http://purl.org/dc/elements/1.1/" xmlns:cc="http://creativecommons.org/ns#" xmlns:rdf="http://www.w3.org/1999/02/22-rdf-syntax-ns#">
   <cc:Work>
    <dc:type rdf:resource="http://purl.org/dc/dcmitype/StillImage"/>
    <dc:date>2022-05-03T11:26:29.034067</dc:date>
    <dc:format>image/svg+xml</dc:format>
    <dc:creator>
     <cc:Agent>
      <dc:title>Matplotlib v3.5.2, https://matplotlib.org/</dc:title>
     </cc:Agent>
    </dc:creator>
   </cc:Work>
  </rdf:RDF>
 </metadata>
 <defs>
  <style type="text/css">*{stroke-linejoin: round; stroke-linecap: butt}</style>
 </defs>
 <g id="figure_1">
  <g id="patch_1">
   <path d="M -0 363.718125 
L 380.482812 363.718125 
L 380.482812 0 
L -0 0 
L -0 363.718125 
z
" style="fill: none"/>
  </g>
  <g id="axes_1">
   <g id="patch_2">
    <path d="M 38.482813 339.84 
L 373.282813 339.84 
L 373.282813 7.2 
L 38.482813 7.2 
z
" style="fill: #ffffff"/>
   </g>
   <g id="matplotlib.axis_1">
    <g id="xtick_1">
     <g id="line2d_1">
      <defs>
       <path id="m1090395a5b" d="M 0 0 
L 0 3.5 
" style="stroke: #000000; stroke-width: 0.8"/>
      </defs>
      <g>
       <use xlink:href="#m1090395a5b" x="53.700994" y="339.84" style="stroke: #000000; stroke-width: 0.8"/>
      </g>
     </g>
     <g id="text_1">
      <!-- −3 -->
      <g transform="translate(46.329901 354.438437)scale(0.1 -0.1)">
       <defs>
        <path id="DejaVuSans-2212" d="M 678 2272 
L 4684 2272 
L 4684 1741 
L 678 1741 
L 678 2272 
z
" transform="scale(0.015625)"/>
        <path id="DejaVuSans-33" d="M 2597 2516 
Q 3050 2419 3304 2112 
Q 3559 1806 3559 1356 
Q 3559 666 3084 287 
Q 2609 -91 1734 -91 
Q 1441 -91 1130 -33 
Q 819 25 488 141 
L 488 750 
Q 750 597 1062 519 
Q 1375 441 1716 441 
Q 2309 441 2620 675 
Q 2931 909 2931 1356 
Q 2931 1769 2642 2001 
Q 2353 2234 1838 2234 
L 1294 2234 
L 1294 2753 
L 1863 2753 
Q 2328 2753 2575 2939 
Q 2822 3125 2822 3475 
Q 2822 3834 2567 4026 
Q 2313 4219 1838 4219 
Q 1578 4219 1281 4162 
Q 984 4106 628 3988 
L 628 4550 
Q 988 4650 1302 4700 
Q 1616 4750 1894 4750 
Q 2613 4750 3031 4423 
Q 3450 4097 3450 3541 
Q 3450 3153 3228 2886 
Q 3006 2619 2597 2516 
z
" transform="scale(0.015625)"/>
       </defs>
       <use xlink:href="#DejaVuSans-2212"/>
       <use xlink:href="#DejaVuSans-33" x="83.789062"/>
      </g>
     </g>
    </g>
    <g id="xtick_2">
     <g id="line2d_2">
      <g>
       <use xlink:href="#m1090395a5b" x="104.428267" y="339.84" style="stroke: #000000; stroke-width: 0.8"/>
      </g>
     </g>
     <g id="text_2">
      <!-- −2 -->
      <g transform="translate(97.057173 354.438437)scale(0.1 -0.1)">
       <defs>
        <path id="DejaVuSans-32" d="M 1228 531 
L 3431 531 
L 3431 0 
L 469 0 
L 469 531 
Q 828 903 1448 1529 
Q 2069 2156 2228 2338 
Q 2531 2678 2651 2914 
Q 2772 3150 2772 3378 
Q 2772 3750 2511 3984 
Q 2250 4219 1831 4219 
Q 1534 4219 1204 4116 
Q 875 4013 500 3803 
L 500 4441 
Q 881 4594 1212 4672 
Q 1544 4750 1819 4750 
Q 2544 4750 2975 4387 
Q 3406 4025 3406 3419 
Q 3406 3131 3298 2873 
Q 3191 2616 2906 2266 
Q 2828 2175 2409 1742 
Q 1991 1309 1228 531 
z
" transform="scale(0.015625)"/>
       </defs>
       <use xlink:href="#DejaVuSans-2212"/>
       <use xlink:href="#DejaVuSans-32" x="83.789062"/>
      </g>
     </g>
    </g>
    <g id="xtick_3">
     <g id="line2d_3">
      <g>
       <use xlink:href="#m1090395a5b" x="155.15554" y="339.84" style="stroke: #000000; stroke-width: 0.8"/>
      </g>
     </g>
     <g id="text_3">
      <!-- −1 -->
      <g transform="translate(147.784446 354.438437)scale(0.1 -0.1)">
       <defs>
        <path id="DejaVuSans-31" d="M 794 531 
L 1825 531 
L 1825 4091 
L 703 3866 
L 703 4441 
L 1819 4666 
L 2450 4666 
L 2450 531 
L 3481 531 
L 3481 0 
L 794 0 
L 794 531 
z
" transform="scale(0.015625)"/>
       </defs>
       <use xlink:href="#DejaVuSans-2212"/>
       <use xlink:href="#DejaVuSans-31" x="83.789062"/>
      </g>
     </g>
    </g>
    <g id="xtick_4">
     <g id="line2d_4">
      <g>
       <use xlink:href="#m1090395a5b" x="205.882812" y="339.84" style="stroke: #000000; stroke-width: 0.8"/>
      </g>
     </g>
     <g id="text_4">
      <!-- 0 -->
      <g transform="translate(202.701562 354.438437)scale(0.1 -0.1)">
       <defs>
        <path id="DejaVuSans-30" d="M 2034 4250 
Q 1547 4250 1301 3770 
Q 1056 3291 1056 2328 
Q 1056 1369 1301 889 
Q 1547 409 2034 409 
Q 2525 409 2770 889 
Q 3016 1369 3016 2328 
Q 3016 3291 2770 3770 
Q 2525 4250 2034 4250 
z
M 2034 4750 
Q 2819 4750 3233 4129 
Q 3647 3509 3647 2328 
Q 3647 1150 3233 529 
Q 2819 -91 2034 -91 
Q 1250 -91 836 529 
Q 422 1150 422 2328 
Q 422 3509 836 4129 
Q 1250 4750 2034 4750 
z
" transform="scale(0.015625)"/>
       </defs>
       <use xlink:href="#DejaVuSans-30"/>
      </g>
     </g>
    </g>
    <g id="xtick_5">
     <g id="line2d_5">
      <g>
       <use xlink:href="#m1090395a5b" x="256.610085" y="339.84" style="stroke: #000000; stroke-width: 0.8"/>
      </g>
     </g>
     <g id="text_5">
      <!-- 1 -->
      <g transform="translate(253.428835 354.438437)scale(0.1 -0.1)">
       <use xlink:href="#DejaVuSans-31"/>
      </g>
     </g>
    </g>
    <g id="xtick_6">
     <g id="line2d_6">
      <g>
       <use xlink:href="#m1090395a5b" x="307.337358" y="339.84" style="stroke: #000000; stroke-width: 0.8"/>
      </g>
     </g>
     <g id="text_6">
      <!-- 2 -->
      <g transform="translate(304.156108 354.438437)scale(0.1 -0.1)">
       <use xlink:href="#DejaVuSans-32"/>
      </g>
     </g>
    </g>
    <g id="xtick_7">
     <g id="line2d_7">
      <g>
       <use xlink:href="#m1090395a5b" x="358.064631" y="339.84" style="stroke: #000000; stroke-width: 0.8"/>
      </g>
     </g>
     <g id="text_7">
      <!-- 3 -->
      <g transform="translate(354.883381 354.438437)scale(0.1 -0.1)">
       <use xlink:href="#DejaVuSans-33"/>
      </g>
     </g>
    </g>
   </g>
   <g id="matplotlib.axis_2">
    <g id="ytick_1">
     <g id="line2d_8">
      <defs>
       <path id="m03142a52a8" d="M 0 0 
L -3.5 0 
" style="stroke: #000000; stroke-width: 0.8"/>
      </defs>
      <g>
       <use xlink:href="#m03142a52a8" x="38.482813" y="332.388793" style="stroke: #000000; stroke-width: 0.8"/>
      </g>
     </g>
     <g id="text_8">
      <!-- −0.2 -->
      <g transform="translate(7.2 336.188011)scale(0.1 -0.1)">
       <defs>
        <path id="DejaVuSans-2e" d="M 684 794 
L 1344 794 
L 1344 0 
L 684 0 
L 684 794 
z
" transform="scale(0.015625)"/>
       </defs>
       <use xlink:href="#DejaVuSans-2212"/>
       <use xlink:href="#DejaVuSans-30" x="83.789062"/>
       <use xlink:href="#DejaVuSans-2e" x="147.412109"/>
       <use xlink:href="#DejaVuSans-32" x="179.199219"/>
      </g>
     </g>
    </g>
    <g id="ytick_2">
     <g id="line2d_9">
      <g>
       <use xlink:href="#m03142a52a8" x="38.482813" y="281.55999" style="stroke: #000000; stroke-width: 0.8"/>
      </g>
     </g>
     <g id="text_9">
      <!-- 0.0 -->
      <g transform="translate(15.579688 285.359209)scale(0.1 -0.1)">
       <use xlink:href="#DejaVuSans-30"/>
       <use xlink:href="#DejaVuSans-2e" x="63.623047"/>
       <use xlink:href="#DejaVuSans-30" x="95.410156"/>
      </g>
     </g>
    </g>
    <g id="ytick_3">
     <g id="line2d_10">
      <g>
       <use xlink:href="#m03142a52a8" x="38.482813" y="230.731188" style="stroke: #000000; stroke-width: 0.8"/>
      </g>
     </g>
     <g id="text_10">
      <!-- 0.2 -->
      <g transform="translate(15.579688 234.530407)scale(0.1 -0.1)">
       <use xlink:href="#DejaVuSans-30"/>
       <use xlink:href="#DejaVuSans-2e" x="63.623047"/>
       <use xlink:href="#DejaVuSans-32" x="95.410156"/>
      </g>
     </g>
    </g>
    <g id="ytick_4">
     <g id="line2d_11">
      <g>
       <use xlink:href="#m03142a52a8" x="38.482813" y="179.902386" style="stroke: #000000; stroke-width: 0.8"/>
      </g>
     </g>
     <g id="text_11">
      <!-- 0.4 -->
      <g transform="translate(15.579688 183.701605)scale(0.1 -0.1)">
       <defs>
        <path id="DejaVuSans-34" d="M 2419 4116 
L 825 1625 
L 2419 1625 
L 2419 4116 
z
M 2253 4666 
L 3047 4666 
L 3047 1625 
L 3713 1625 
L 3713 1100 
L 3047 1100 
L 3047 0 
L 2419 0 
L 2419 1100 
L 313 1100 
L 313 1709 
L 2253 4666 
z
" transform="scale(0.015625)"/>
       </defs>
       <use xlink:href="#DejaVuSans-30"/>
       <use xlink:href="#DejaVuSans-2e" x="63.623047"/>
       <use xlink:href="#DejaVuSans-34" x="95.410156"/>
      </g>
     </g>
    </g>
    <g id="ytick_5">
     <g id="line2d_12">
      <g>
       <use xlink:href="#m03142a52a8" x="38.482813" y="129.073584" style="stroke: #000000; stroke-width: 0.8"/>
      </g>
     </g>
     <g id="text_12">
      <!-- 0.6 -->
      <g transform="translate(15.579688 132.872803)scale(0.1 -0.1)">
       <defs>
        <path id="DejaVuSans-36" d="M 2113 2584 
Q 1688 2584 1439 2293 
Q 1191 2003 1191 1497 
Q 1191 994 1439 701 
Q 1688 409 2113 409 
Q 2538 409 2786 701 
Q 3034 994 3034 1497 
Q 3034 2003 2786 2293 
Q 2538 2584 2113 2584 
z
M 3366 4563 
L 3366 3988 
Q 3128 4100 2886 4159 
Q 2644 4219 2406 4219 
Q 1781 4219 1451 3797 
Q 1122 3375 1075 2522 
Q 1259 2794 1537 2939 
Q 1816 3084 2150 3084 
Q 2853 3084 3261 2657 
Q 3669 2231 3669 1497 
Q 3669 778 3244 343 
Q 2819 -91 2113 -91 
Q 1303 -91 875 529 
Q 447 1150 447 2328 
Q 447 3434 972 4092 
Q 1497 4750 2381 4750 
Q 2619 4750 2861 4703 
Q 3103 4656 3366 4563 
z
" transform="scale(0.015625)"/>
       </defs>
       <use xlink:href="#DejaVuSans-30"/>
       <use xlink:href="#DejaVuSans-2e" x="63.623047"/>
       <use xlink:href="#DejaVuSans-36" x="95.410156"/>
      </g>
     </g>
    </g>
    <g id="ytick_6">
     <g id="line2d_13">
      <g>
       <use xlink:href="#m03142a52a8" x="38.482813" y="78.244782" style="stroke: #000000; stroke-width: 0.8"/>
      </g>
     </g>
     <g id="text_13">
      <!-- 0.8 -->
      <g transform="translate(15.579688 82.044001)scale(0.1 -0.1)">
       <defs>
        <path id="DejaVuSans-38" d="M 2034 2216 
Q 1584 2216 1326 1975 
Q 1069 1734 1069 1313 
Q 1069 891 1326 650 
Q 1584 409 2034 409 
Q 2484 409 2743 651 
Q 3003 894 3003 1313 
Q 3003 1734 2745 1975 
Q 2488 2216 2034 2216 
z
M 1403 2484 
Q 997 2584 770 2862 
Q 544 3141 544 3541 
Q 544 4100 942 4425 
Q 1341 4750 2034 4750 
Q 2731 4750 3128 4425 
Q 3525 4100 3525 3541 
Q 3525 3141 3298 2862 
Q 3072 2584 2669 2484 
Q 3125 2378 3379 2068 
Q 3634 1759 3634 1313 
Q 3634 634 3220 271 
Q 2806 -91 2034 -91 
Q 1263 -91 848 271 
Q 434 634 434 1313 
Q 434 1759 690 2068 
Q 947 2378 1403 2484 
z
M 1172 3481 
Q 1172 3119 1398 2916 
Q 1625 2713 2034 2713 
Q 2441 2713 2670 2916 
Q 2900 3119 2900 3481 
Q 2900 3844 2670 4047 
Q 2441 4250 2034 4250 
Q 1625 4250 1398 4047 
Q 1172 3844 1172 3481 
z
" transform="scale(0.015625)"/>
       </defs>
       <use xlink:href="#DejaVuSans-30"/>
       <use xlink:href="#DejaVuSans-2e" x="63.623047"/>
       <use xlink:href="#DejaVuSans-38" x="95.410156"/>
      </g>
     </g>
    </g>
    <g id="ytick_7">
     <g id="line2d_14">
      <g>
       <use xlink:href="#m03142a52a8" x="38.482813" y="27.41598" style="stroke: #000000; stroke-width: 0.8"/>
      </g>
     </g>
     <g id="text_14">
      <!-- 1.0 -->
      <g transform="translate(15.579688 31.215199)scale(0.1 -0.1)">
       <use xlink:href="#DejaVuSans-31"/>
       <use xlink:href="#DejaVuSans-2e" x="63.623047"/>
       <use xlink:href="#DejaVuSans-30" x="95.410156"/>
      </g>
     </g>
    </g>
   </g>
   <g id="line2d_15">
    <defs>
     <path id="m8ab3f43608" d="M 0 3 
C 0.795609 3 1.55874 2.683901 2.12132 2.12132 
C 2.683901 1.55874 3 0.795609 3 0 
C 3 -0.795609 2.683901 -1.55874 2.12132 -2.12132 
C 1.55874 -2.683901 0.795609 -3 0 -3 
C -0.795609 -3 -1.55874 -2.683901 -2.12132 -2.12132 
C -2.683901 -1.55874 -3 -0.795609 -3 0 
C -3 0.795609 -2.683901 1.55874 -2.12132 2.12132 
C -1.55874 2.683901 -0.795609 3 0 3 
z
" style="stroke: #ff0000"/>
    </defs>
    <g clip-path="url(#p146c419c62)">
     <use xlink:href="#m8ab3f43608" x="53.700994" y="290.911162" style="fill: #ff0000; stroke: #ff0000"/>
     <use xlink:href="#m8ab3f43608" x="59.912497" y="287.579253" style="fill: #ff0000; stroke: #ff0000"/>
     <use xlink:href="#m8ab3f43608" x="66.124" y="253.484411" style="fill: #ff0000; stroke: #ff0000"/>
     <use xlink:href="#m8ab3f43608" x="72.335503" y="264.658516" style="fill: #ff0000; stroke: #ff0000"/>
     <use xlink:href="#m8ab3f43608" x="78.547005" y="264.82527" style="fill: #ff0000; stroke: #ff0000"/>
     <use xlink:href="#m8ab3f43608" x="84.758508" y="321.804771" style="fill: #ff0000; stroke: #ff0000"/>
     <use xlink:href="#m8ab3f43608" x="90.970011" y="280.676988" style="fill: #ff0000; stroke: #ff0000"/>
     <use xlink:href="#m8ab3f43608" x="97.181514" y="297.741051" style="fill: #ff0000; stroke: #ff0000"/>
     <use xlink:href="#m8ab3f43608" x="103.393017" y="270.157739" style="fill: #ff0000; stroke: #ff0000"/>
     <use xlink:href="#m8ab3f43608" x="109.604519" y="277.125864" style="fill: #ff0000; stroke: #ff0000"/>
     <use xlink:href="#m8ab3f43608" x="115.816022" y="247.56423" style="fill: #ff0000; stroke: #ff0000"/>
     <use xlink:href="#m8ab3f43608" x="122.027525" y="256.966216" style="fill: #ff0000; stroke: #ff0000"/>
     <use xlink:href="#m8ab3f43608" x="128.239028" y="237.162657" style="fill: #ff0000; stroke: #ff0000"/>
     <use xlink:href="#m8ab3f43608" x="134.45053" y="258.426727" style="fill: #ff0000; stroke: #ff0000"/>
     <use xlink:href="#m8ab3f43608" x="140.662033" y="256.903377" style="fill: #ff0000; stroke: #ff0000"/>
     <use xlink:href="#m8ab3f43608" x="146.873536" y="226.306383" style="fill: #ff0000; stroke: #ff0000"/>
     <use xlink:href="#m8ab3f43608" x="153.085039" y="195.970608" style="fill: #ff0000; stroke: #ff0000"/>
     <use xlink:href="#m8ab3f43608" x="159.296542" y="162.579681" style="fill: #ff0000; stroke: #ff0000"/>
     <use xlink:href="#m8ab3f43608" x="165.508044" y="89.257023" style="fill: #ff0000; stroke: #ff0000"/>
     <use xlink:href="#m8ab3f43608" x="171.719547" y="121.160589" style="fill: #ff0000; stroke: #ff0000"/>
     <use xlink:href="#m8ab3f43608" x="177.93105" y="118.261223" style="fill: #ff0000; stroke: #ff0000"/>
     <use xlink:href="#m8ab3f43608" x="184.142553" y="78.852359" style="fill: #ff0000; stroke: #ff0000"/>
     <use xlink:href="#m8ab3f43608" x="190.354056" y="61.932214" style="fill: #ff0000; stroke: #ff0000"/>
     <use xlink:href="#m8ab3f43608" x="196.565558" y="23.610195" style="fill: #ff0000; stroke: #ff0000"/>
     <use xlink:href="#m8ab3f43608" x="202.777061" y="67.525273" style="fill: #ff0000; stroke: #ff0000"/>
     <use xlink:href="#m8ab3f43608" x="208.988564" y="26.759075" style="fill: #ff0000; stroke: #ff0000"/>
     <use xlink:href="#m8ab3f43608" x="215.200067" y="31.869239" style="fill: #ff0000; stroke: #ff0000"/>
     <use xlink:href="#m8ab3f43608" x="221.411569" y="44.249459" style="fill: #ff0000; stroke: #ff0000"/>
     <use xlink:href="#m8ab3f43608" x="227.623072" y="85.239869" style="fill: #ff0000; stroke: #ff0000"/>
     <use xlink:href="#m8ab3f43608" x="233.834575" y="100.013092" style="fill: #ff0000; stroke: #ff0000"/>
     <use xlink:href="#m8ab3f43608" x="240.046078" y="156.278304" style="fill: #ff0000; stroke: #ff0000"/>
     <use xlink:href="#m8ab3f43608" x="246.257581" y="159.213436" style="fill: #ff0000; stroke: #ff0000"/>
     <use xlink:href="#m8ab3f43608" x="252.469083" y="186.012094" style="fill: #ff0000; stroke: #ff0000"/>
     <use xlink:href="#m8ab3f43608" x="258.680586" y="184.964382" style="fill: #ff0000; stroke: #ff0000"/>
     <use xlink:href="#m8ab3f43608" x="264.892089" y="245.2689" style="fill: #ff0000; stroke: #ff0000"/>
     <use xlink:href="#m8ab3f43608" x="271.103592" y="213.04716" style="fill: #ff0000; stroke: #ff0000"/>
     <use xlink:href="#m8ab3f43608" x="277.315095" y="208.591535" style="fill: #ff0000; stroke: #ff0000"/>
     <use xlink:href="#m8ab3f43608" x="283.526597" y="309.75414" style="fill: #ff0000; stroke: #ff0000"/>
     <use xlink:href="#m8ab3f43608" x="289.7381" y="254.195016" style="fill: #ff0000; stroke: #ff0000"/>
     <use xlink:href="#m8ab3f43608" x="295.949603" y="253.492669" style="fill: #ff0000; stroke: #ff0000"/>
     <use xlink:href="#m8ab3f43608" x="302.161106" y="290.831511" style="fill: #ff0000; stroke: #ff0000"/>
     <use xlink:href="#m8ab3f43608" x="308.372608" y="287.368281" style="fill: #ff0000; stroke: #ff0000"/>
     <use xlink:href="#m8ab3f43608" x="314.584111" y="282.361518" style="fill: #ff0000; stroke: #ff0000"/>
     <use xlink:href="#m8ab3f43608" x="320.795614" y="287.626931" style="fill: #ff0000; stroke: #ff0000"/>
     <use xlink:href="#m8ab3f43608" x="327.007117" y="288.564181" style="fill: #ff0000; stroke: #ff0000"/>
     <use xlink:href="#m8ab3f43608" x="333.21862" y="323.688462" style="fill: #ff0000; stroke: #ff0000"/>
     <use xlink:href="#m8ab3f43608" x="339.430122" y="252.025835" style="fill: #ff0000; stroke: #ff0000"/>
     <use xlink:href="#m8ab3f43608" x="345.641625" y="253.993741" style="fill: #ff0000; stroke: #ff0000"/>
     <use xlink:href="#m8ab3f43608" x="351.853128" y="302.16674" style="fill: #ff0000; stroke: #ff0000"/>
     <use xlink:href="#m8ab3f43608" x="358.064631" y="318.796923" style="fill: #ff0000; stroke: #ff0000"/>
    </g>
   </g>
   <g id="line2d_16">
    <path d="M 53.700994 290.911162 
L 54.310331 295.499285 
L 54.919668 298.691468 
L 55.529004 300.607344 
L 55.833672 301.124053 
L 56.138341 301.366548 
L 56.443009 301.349784 
L 56.747677 301.088714 
L 57.052346 300.598293 
L 57.661682 298.989215 
L 58.271019 296.642184 
L 59.185024 291.999676 
L 60.403697 284.343415 
L 63.755048 262.050661 
L 64.669053 257.53992 
L 65.27839 255.305135 
L 65.887727 253.827825 
L 66.192395 253.41054 
L 66.497063 253.216639 
L 66.801731 253.227972 
L 67.1064 253.423599 
L 67.715736 254.283978 
L 68.325073 255.63026 
L 69.543746 259.110466 
L 70.762419 262.524086 
L 71.371756 263.787134 
L 71.981093 264.530986 
L 72.285761 264.655865 
L 72.590429 264.592997 
L 72.895098 264.358361 
L 73.504434 263.489511 
L 74.723107 260.964368 
L 75.637112 259.29372 
L 76.246449 258.720637 
L 76.551117 258.683178 
L 76.855785 258.850388 
L 77.160454 259.251225 
L 77.465122 259.914649 
L 78.074459 262.145095 
L 78.683795 265.772259 
L 79.293132 270.845595 
L 80.207137 280.43519 
L 82.949152 311.643127 
L 83.558488 316.668551 
L 84.167825 320.186952 
L 84.472493 321.263817 
L 84.777161 321.823288 
L 85.08183 321.837547 
L 85.386498 321.342268 
L 85.691166 320.386328 
L 86.300503 317.287971 
L 87.214508 310.407401 
L 90.261191 284.004254 
L 90.870527 281.016018 
L 91.175196 280.121729 
L 91.479864 279.636453 
L 91.784532 279.522729 
L 92.089201 279.742591 
L 92.393869 280.258074 
L 93.003206 282.024041 
L 93.917211 285.941013 
L 95.74522 294.581263 
L 96.354557 296.5866 
L 96.659225 297.254409 
L 96.963894 297.648358 
L 97.268562 297.730747 
L 97.57323 297.486952 
L 97.877898 296.943006 
L 98.487235 295.075356 
L 99.096572 292.369178 
L 100.010577 287.265693 
L 102.143255 274.708726 
L 102.752591 272.040395 
L 103.361928 270.223208 
L 103.666596 269.702367 
L 103.971265 269.433795 
L 104.275933 269.39085 
L 104.580601 269.54688 
L 105.189938 270.349261 
L 105.799274 271.627727 
L 107.931953 276.773292 
L 108.541289 277.555653 
L 108.845957 277.698943 
L 109.150626 277.641438 
L 109.455294 277.356486 
L 109.759962 276.818603 
L 110.369299 275.009513 
L 110.978636 272.393943 
L 111.892641 267.415298 
L 114.634655 251.460053 
L 115.243992 249.046927 
L 115.853328 247.498107 
L 116.157997 247.101221 
L 116.462665 246.942128 
L 116.767333 246.996508 
L 117.072002 247.240035 
L 117.681338 248.197243 
L 118.595343 250.443588 
L 120.423353 255.44621 
L 121.03269 256.551362 
L 121.337358 256.889037 
L 121.642026 257.051012 
L 121.946695 257.012965 
L 122.251363 256.753696 
L 122.860699 255.6165 
L 123.470036 253.806844 
L 124.384041 250.232622 
L 126.821387 240.02793 
L 127.430724 238.316966 
L 128.040061 237.30883 
L 128.344729 237.125343 
L 128.649397 237.170385 
L 128.954066 237.428229 
L 129.563402 238.511889 
L 130.172739 240.235457 
L 131.086744 243.712498 
L 132.914754 252.133446 
L 134.133427 257.307941 
L 135.047432 260.181872 
L 135.656768 261.506666 
L 136.266105 262.378008 
L 136.875441 262.814306 
L 137.484778 262.833964 
L 138.094115 262.455388 
L 138.703451 261.696985 
L 139.312788 260.57716 
L 140.226793 258.260019 
L 141.140798 255.234281 
L 142.359471 250.248577 
L 143.882812 242.841615 
L 146.015491 231.164659 
L 149.67151 211.037092 
L 151.49952 202.272331 
L 152.718193 197.299961 
L 153.936867 193.150924 
L 155.460208 188.097014 
L 156.374213 184.327589 
L 157.288218 179.447463 
L 158.202223 173.000179 
L 159.116228 164.52928 
L 160.030233 153.708118 
L 161.553574 132.354634 
L 163.381584 107.235039 
L 164.295589 97.330044 
L 164.904926 92.422466 
L 165.514262 89.234214 
L 165.81893 88.368776 
L 166.123599 87.9736 
L 166.428267 88.012913 
L 166.732935 88.450942 
L 167.037604 89.251914 
L 167.64694 91.799595 
L 168.256277 95.369774 
L 169.47495 104.432891 
L 171.30296 118.541722 
L 172.216965 123.764429 
L 172.826301 126.178056 
L 173.435638 127.775322 
L 174.044975 128.596909 
L 174.349643 128.729537 
L 174.654311 128.683502 
L 174.95898 128.463888 
L 175.568316 127.524271 
L 176.177653 125.951367 
L 176.786989 123.785861 
L 177.700994 119.515469 
L 178.614999 114.157796 
L 180.138341 103.679981 
L 182.575687 86.831359 
L 183.489692 81.738042 
L 184.403697 77.906605 
L 185.013034 76.117196 
L 185.927039 74.232764 
L 188.059717 70.738905 
L 188.669053 69.245518 
L 189.27839 67.235728 
L 189.887727 64.547894 
L 190.497063 61.021338 
L 191.411068 54.188966 
L 194.457751 29.157418 
L 195.067088 25.865754 
L 195.676424 23.808716 
L 195.981093 23.331987 
L 196.285761 23.27048 
L 196.590429 23.65971 
L 196.895098 24.517499 
L 197.504434 27.47728 
L 198.113771 31.77263 
L 199.027776 39.871012 
L 201.160454 59.70156 
L 201.76979 63.861509 
L 202.379127 66.640756 
L 202.683795 67.391353 
L 202.988464 67.656206 
L 203.293132 67.443919 
L 203.5978 66.794385 
L 204.207137 64.344841 
L 204.816473 60.630107 
L 205.730478 53.391316 
L 208.472493 29.834561 
L 209.08183 26.29413 
L 209.691166 23.945398 
L 210.300503 22.674887 
L 210.605171 22.393153 
L 210.90984 22.32 
L 211.214508 22.435103 
L 211.823844 23.14878 
L 212.433181 24.371585 
L 213.347186 26.804726 
L 215.175196 31.81502 
L 216.089201 33.435373 
L 217.003206 34.532668 
L 218.526547 36.200018 
L 219.135884 37.128907 
L 219.74522 38.371261 
L 220.354557 40.036268 
L 220.963894 42.233116 
L 221.57323 45.070175 
L 222.487235 50.527933 
L 224.010577 61.62205 
L 226.143255 77.325735 
L 227.05726 82.680297 
L 227.666596 85.408299 
L 228.275933 87.355115 
L 228.88527 88.667864 
L 229.494606 89.539925 
L 231.627284 91.913622 
L 232.236621 93.195647 
L 232.845957 95.100566 
L 233.455294 97.821758 
L 234.064631 101.548744 
L 234.978636 108.990525 
L 236.197309 121.174278 
L 238.634655 146.193413 
L 239.54866 153.358387 
L 240.157997 156.822503 
L 240.767333 159.084356 
L 241.37667 160.31929 
L 241.681338 160.619295 
L 241.986007 160.74373 
L 242.290675 160.719648 
L 242.900012 160.334146 
L 245.03269 158.283439 
L 245.337358 158.262118 
L 245.642026 158.389866 
L 245.946695 158.693737 
L 246.251363 159.200783 
L 246.860699 160.866648 
L 247.470036 163.265846 
L 248.384041 167.820193 
L 251.126056 182.323124 
L 251.735392 184.486702 
L 252.344729 185.849628 
L 252.649397 186.172865 
L 252.954066 186.257919 
L 253.258734 186.136362 
L 253.86807 185.402251 
L 254.782075 183.556736 
L 256.000749 181.05939 
L 256.610085 180.374775 
L 256.914754 180.286215 
L 257.219422 180.409766 
L 257.52409 180.777637 
L 257.828758 181.422037 
L 258.438095 183.669263 
L 259.047432 187.387612 
L 259.961437 195.465771 
L 261.18011 209.169866 
L 263.312788 233.723594 
L 264.226793 241.549259 
L 264.836129 245.032949 
L 265.140798 246.135735 
L 265.445466 246.807891 
L 265.750134 247.07505 
L 266.054803 246.962914 
L 266.359471 246.497184 
L 266.968808 244.607753 
L 267.578144 241.612373 
L 268.492149 235.495434 
L 269.710822 225.387783 
L 272.148169 204.638393 
L 273.062174 198.74096 
L 273.67151 195.904705 
L 274.280847 194.169449 
L 274.585515 193.774884 
L 274.890184 193.727797 
L 275.194852 194.052261 
L 275.49952 194.772354 
L 275.804188 195.91215 
L 276.413525 199.547155 
L 277.022862 205.149883 
L 277.632198 212.895845 
L 278.546203 228.029215 
L 280.374213 264.398613 
L 281.592886 287.368744 
L 282.506891 300.883146 
L 283.116228 307.121297 
L 283.420896 309.208285 
L 283.725564 310.52382 
L 284.030233 311.077476 
L 284.334901 310.926104 
L 284.639569 310.127425 
L 284.944238 308.739158 
L 285.553574 304.424742 
L 286.467579 294.974207 
L 287.990921 275.127545 
L 289.209594 259.719851 
L 290.123599 250.837988 
L 290.732935 246.690575 
L 291.342272 243.863112 
L 291.951609 242.242044 
L 292.256277 241.848423 
L 292.560945 241.713817 
L 292.865613 241.824033 
L 293.170282 242.164875 
L 293.779618 243.481665 
L 294.388955 245.550629 
L 295.30296 249.816005 
L 296.521633 257.077428 
L 301.091658 286.554855 
L 302.005663 290.330654 
L 302.614999 292.039511 
L 303.224336 293.107061 
L 303.833672 293.610921 
L 304.443009 293.629207 
L 305.052346 293.240035 
L 305.661682 292.521521 
L 306.575687 290.997113 
L 309.927039 284.651075 
L 310.841043 283.430797 
L 311.755048 282.542845 
L 312.669053 282.030033 
L 313.27839 281.917711 
L 313.887727 282.003831 
L 314.497063 282.301079 
L 315.1064 282.814308 
L 316.020405 283.888256 
L 318.457751 287.060475 
L 319.067088 287.588146 
L 319.676424 287.885799 
L 320.285761 287.891502 
L 320.895098 287.543479 
L 321.504434 286.835547 
L 323.941781 283.242412 
L 324.551117 282.915499 
L 324.855785 282.942485 
L 325.160454 283.121823 
L 325.465122 283.472557 
L 326.074459 284.764383 
L 326.683795 286.970308 
L 327.293132 290.234374 
L 328.207137 296.870919 
L 330.949152 319.068617 
L 331.558488 322.354574 
L 332.167825 324.328208 
L 332.472493 324.72 
L 332.777161 324.660227 
L 333.08183 324.107727 
L 333.386498 323.023765 
L 333.995835 319.322842 
L 334.605171 313.879698 
L 335.519176 303.249652 
L 337.042518 282.011407 
L 338.565859 261.331943 
L 339.479864 251.57355 
L 340.089201 246.833768 
L 340.698537 243.49537 
L 341.307874 241.444253 
L 341.612542 240.865768 
L 341.917211 240.566315 
L 342.221879 240.531631 
L 342.526547 240.747453 
L 342.831215 241.199517 
L 343.440552 242.755324 
L 344.049889 245.084949 
L 344.963894 249.780693 
L 346.182567 257.690781 
L 347.705908 269.239641 
L 352.275933 305.079733 
L 353.494606 312.459789 
L 354.408611 316.765136 
L 355.017948 318.927447 
L 355.627284 320.447291 
L 356.236621 321.259415 
L 356.541289 321.37969 
L 356.845957 321.298565 
L 357.150626 321.007882 
L 357.455294 320.499485 
L 358.064631 318.796923 
L 358.064631 318.796923 
" clip-path="url(#p146c419c62)" style="fill: none; stroke: #0000ff; stroke-width: 1.5; stroke-linecap: square"/>
   </g>
   <g id="line2d_17">
    <path d="M 53.700994 263.749643 
L 56.443009 268.662967 
L 59.185024 273.114391 
L 61.62237 276.686147 
L 64.059717 279.897936 
L 66.497063 282.752105 
L 68.93441 285.251005 
L 71.067088 287.147955 
L 73.199766 288.776274 
L 75.332444 290.137533 
L 77.465122 291.233307 
L 79.5978 292.065168 
L 81.730478 292.634691 
L 83.863156 292.943449 
L 85.995835 292.993014 
L 88.128513 292.784961 
L 90.261191 292.320862 
L 92.393869 291.602292 
L 94.526547 290.630823 
L 96.659225 289.408029 
L 98.791903 287.935483 
L 100.924582 286.214759 
L 103.361928 283.946343 
L 105.799274 281.35818 
L 108.236621 278.452618 
L 110.978636 274.807394 
L 113.72065 270.766778 
L 116.462665 266.334115 
L 119.509348 260.953191 
L 122.556031 255.096974 
L 125.602714 248.770049 
L 128.954066 241.272241 
L 132.305417 233.216533 
L 135.961437 223.800642 
L 139.922125 212.925555 
L 144.492149 199.687306 
L 150.280847 182.194876 
L 167.342272 130.131937 
L 171.912297 117.123303 
L 175.872984 106.509125 
L 179.224336 98.120977 
L 182.271019 91.046504 
L 185.013034 85.185253 
L 187.755048 79.853565 
L 190.192395 75.598154 
L 192.325073 72.276249 
L 194.457751 69.353109 
L 196.285761 67.182283 
L 198.113771 65.335633 
L 199.941781 63.827562 
L 201.465122 62.839864 
L 202.988464 62.105626 
L 204.511805 61.633183 
L 206.035147 61.430871 
L 207.25382 61.469115 
L 208.472493 61.689845 
L 209.691166 62.097035 
L 211.214508 62.866518 
L 212.737849 63.91672 
L 214.261191 65.238125 
L 216.089201 67.168399 
L 217.917211 69.459058 
L 219.74522 72.093658 
L 221.877898 75.580123 
L 224.010577 79.486236 
L 226.447923 84.430722 
L 229.189938 90.559133 
L 231.931953 97.233252 
L 234.978636 105.221467 
L 238.329987 114.616647 
L 242.290675 126.406832 
L 246.860699 140.727588 
L 253.258734 161.596676 
L 266.359471 204.55519 
L 271.234164 219.659262 
L 275.194852 231.235275 
L 278.546203 240.40896 
L 281.592886 248.163782 
L 284.334901 254.602082 
L 287.076916 260.496348 
L 289.81893 265.86142 
L 292.560945 270.716501 
L 295.30296 275.080794 
L 297.740306 278.563672 
L 300.177653 281.687429 
L 302.614999 284.465552 
L 305.052346 286.911529 
L 307.489692 289.038848 
L 309.927039 290.860997 
L 312.364385 292.391462 
L 314.801731 293.643732 
L 317.239078 294.631294 
L 319.676424 295.367635 
L 322.113771 295.866245 
L 324.551117 296.140609 
L 326.988464 296.204216 
L 329.730478 296.040646 
L 332.472493 295.646611 
L 335.519176 294.961853 
L 338.565859 294.042621 
L 341.917211 292.79209 
L 345.57323 291.181854 
L 349.838586 289.037916 
L 354.713279 286.32633 
L 358.064631 284.353852 
L 358.064631 284.353852 
" clip-path="url(#p146c419c62)" style="fill: none; stroke: #008000; stroke-width: 1.5; stroke-linecap: square"/>
   </g>
   <g id="line2d_18">
    <path d="M 53.700994 278.549521 
L 57.966351 278.855833 
L 63.45038 279.488893 
L 78.683795 281.401699 
L 82.949152 281.646475 
L 86.605171 281.648042 
L 89.956523 281.438383 
L 93.003206 281.041302 
L 96.049889 280.419599 
L 98.791903 279.645642 
L 101.533918 278.648082 
L 104.275933 277.407185 
L 107.017948 275.903218 
L 109.759962 274.116447 
L 112.197309 272.274839 
L 114.634655 270.180329 
L 117.072002 267.819058 
L 119.509348 265.177167 
L 122.251363 261.852354 
L 124.993378 258.135107 
L 127.735392 254.005692 
L 130.477407 249.444375 
L 133.219422 244.431424 
L 135.961437 238.947104 
L 138.703451 232.971682 
L 141.445466 226.485425 
L 144.187481 219.468598 
L 147.234164 211.025851 
L 150.280847 201.876648 
L 153.32753 191.993921 
L 156.374213 181.352748 
L 160.030233 167.673982 
L 164.600257 149.602442 
L 178.919668 92.240908 
L 182.271019 80.007357 
L 185.317702 69.692949 
L 188.059717 61.216135 
L 190.497063 54.429009 
L 192.629741 49.140836 
L 194.457751 45.138976 
L 196.285761 41.666877 
L 197.809102 39.205302 
L 199.332444 37.159548 
L 200.551117 35.836977 
L 201.76979 34.80563 
L 202.988464 34.076662 
L 204.207137 33.661228 
L 205.121142 33.562119 
L 206.035147 33.650346 
L 206.949152 33.928088 
L 207.863156 34.391353 
L 209.08183 35.289121 
L 210.300503 36.496286 
L 211.519176 38.001181 
L 213.042518 40.283207 
L 214.565859 42.989413 
L 216.393869 46.764694 
L 218.221879 51.078599 
L 220.354557 56.739714 
L 222.487235 63.017823 
L 224.924582 70.868089 
L 227.666596 80.44905 
L 231.017948 93.049522 
L 234.978636 108.890899 
L 240.767333 133.100383 
L 248.993378 167.43532 
L 252.954066 183.006245 
L 256.305417 195.284783 
L 259.3521 205.543927 
L 262.094115 214.02962 
L 264.836129 221.838509 
L 267.578144 229.00089 
L 270.320159 235.547063 
L 273.062174 241.507325 
L 275.804188 246.911973 
L 278.546203 251.791306 
L 281.288218 256.175621 
L 283.725564 259.681712 
L 286.162911 262.841897 
L 288.600257 265.677453 
L 291.037604 268.209661 
L 293.779618 270.722292 
L 296.521633 272.908227 
L 299.263648 274.797763 
L 302.005663 276.421198 
L 305.052346 277.949771 
L 308.099029 279.228789 
L 311.45038 280.397077 
L 315.411068 281.52895 
L 320.590429 282.74719 
L 331.863156 285.299877 
L 335.823844 286.466294 
L 339.175196 287.674281 
L 342.221879 288.997718 
L 345.268562 290.578641 
L 348.010577 292.255973 
L 350.752591 294.205831 
L 353.494606 296.458513 
L 355.931953 298.739613 
L 358.064631 300.968215 
L 358.064631 300.968215 
" clip-path="url(#p146c419c62)" style="fill: none; stroke: #000000; stroke-width: 1.5; stroke-linecap: square"/>
   </g>
   <g id="patch_3">
    <path d="M 38.482813 339.84 
L 38.482813 7.2 
" style="fill: none; stroke: #000000; stroke-width: 0.8; stroke-linejoin: miter; stroke-linecap: square"/>
   </g>
   <g id="patch_4">
    <path d="M 373.282813 339.84 
L 373.282813 7.2 
" style="fill: none; stroke: #000000; stroke-width: 0.8; stroke-linejoin: miter; stroke-linecap: square"/>
   </g>
   <g id="patch_5">
    <path d="M 38.482812 339.84 
L 373.282812 339.84 
" style="fill: none; stroke: #000000; stroke-width: 0.8; stroke-linejoin: miter; stroke-linecap: square"/>
   </g>
   <g id="patch_6">
    <path d="M 38.482812 7.2 
L 373.282812 7.2 
" style="fill: none; stroke: #000000; stroke-width: 0.8; stroke-linejoin: miter; stroke-linecap: square"/>
   </g>
   <g id="legend_1">
    <g id="patch_7">
     <path d="M 270.053125 73.9125 
L 366.282813 73.9125 
Q 368.282813 73.9125 368.282813 71.9125 
L 368.282813 14.2 
Q 368.282813 12.2 366.282813 12.2 
L 270.053125 12.2 
Q 268.053125 12.2 268.053125 14.2 
L 268.053125 71.9125 
Q 268.053125 73.9125 270.053125 73.9125 
z
" style="fill: #ffffff; opacity: 0.8; stroke: #cccccc; stroke-linejoin: miter"/>
    </g>
    <g id="line2d_19">
     <g>
      <use xlink:href="#m8ab3f43608" x="282.053125" y="20.298437" style="fill: #ff0000; stroke: #ff0000"/>
     </g>
    </g>
    <g id="text_15">
     <!-- Data -->
     <g transform="translate(300.053125 23.798437)scale(0.1 -0.1)">
      <defs>
       <path id="DejaVuSans-44" d="M 1259 4147 
L 1259 519 
L 2022 519 
Q 2988 519 3436 956 
Q 3884 1394 3884 2338 
Q 3884 3275 3436 3711 
Q 2988 4147 2022 4147 
L 1259 4147 
z
M 628 4666 
L 1925 4666 
Q 3281 4666 3915 4102 
Q 4550 3538 4550 2338 
Q 4550 1131 3912 565 
Q 3275 0 1925 0 
L 628 0 
L 628 4666 
z
" transform="scale(0.015625)"/>
       <path id="DejaVuSans-61" d="M 2194 1759 
Q 1497 1759 1228 1600 
Q 959 1441 959 1056 
Q 959 750 1161 570 
Q 1363 391 1709 391 
Q 2188 391 2477 730 
Q 2766 1069 2766 1631 
L 2766 1759 
L 2194 1759 
z
M 3341 1997 
L 3341 0 
L 2766 0 
L 2766 531 
Q 2569 213 2275 61 
Q 1981 -91 1556 -91 
Q 1019 -91 701 211 
Q 384 513 384 1019 
Q 384 1609 779 1909 
Q 1175 2209 1959 2209 
L 2766 2209 
L 2766 2266 
Q 2766 2663 2505 2880 
Q 2244 3097 1772 3097 
Q 1472 3097 1187 3025 
Q 903 2953 641 2809 
L 641 3341 
Q 956 3463 1253 3523 
Q 1550 3584 1831 3584 
Q 2591 3584 2966 3190 
Q 3341 2797 3341 1997 
z
" transform="scale(0.015625)"/>
       <path id="DejaVuSans-74" d="M 1172 4494 
L 1172 3500 
L 2356 3500 
L 2356 3053 
L 1172 3053 
L 1172 1153 
Q 1172 725 1289 603 
Q 1406 481 1766 481 
L 2356 481 
L 2356 0 
L 1766 0 
Q 1100 0 847 248 
Q 594 497 594 1153 
L 594 3053 
L 172 3053 
L 172 3500 
L 594 3500 
L 594 4494 
L 1172 4494 
z
" transform="scale(0.015625)"/>
      </defs>
      <use xlink:href="#DejaVuSans-44"/>
      <use xlink:href="#DejaVuSans-61" x="77.001953"/>
      <use xlink:href="#DejaVuSans-74" x="138.28125"/>
      <use xlink:href="#DejaVuSans-61" x="177.490234"/>
     </g>
    </g>
    <g id="line2d_20">
     <path d="M 272.053125 34.976562 
L 282.053125 34.976562 
L 292.053125 34.976562 
" style="fill: none; stroke: #0000ff; stroke-width: 1.5; stroke-linecap: square"/>
    </g>
    <g id="text_16">
     <!-- Interpolating -->
     <g transform="translate(300.053125 38.476562)scale(0.1 -0.1)">
      <defs>
       <path id="DejaVuSans-49" d="M 628 4666 
L 1259 4666 
L 1259 0 
L 628 0 
L 628 4666 
z
" transform="scale(0.015625)"/>
       <path id="DejaVuSans-6e" d="M 3513 2113 
L 3513 0 
L 2938 0 
L 2938 2094 
Q 2938 2591 2744 2837 
Q 2550 3084 2163 3084 
Q 1697 3084 1428 2787 
Q 1159 2491 1159 1978 
L 1159 0 
L 581 0 
L 581 3500 
L 1159 3500 
L 1159 2956 
Q 1366 3272 1645 3428 
Q 1925 3584 2291 3584 
Q 2894 3584 3203 3211 
Q 3513 2838 3513 2113 
z
" transform="scale(0.015625)"/>
       <path id="DejaVuSans-65" d="M 3597 1894 
L 3597 1613 
L 953 1613 
Q 991 1019 1311 708 
Q 1631 397 2203 397 
Q 2534 397 2845 478 
Q 3156 559 3463 722 
L 3463 178 
Q 3153 47 2828 -22 
Q 2503 -91 2169 -91 
Q 1331 -91 842 396 
Q 353 884 353 1716 
Q 353 2575 817 3079 
Q 1281 3584 2069 3584 
Q 2775 3584 3186 3129 
Q 3597 2675 3597 1894 
z
M 3022 2063 
Q 3016 2534 2758 2815 
Q 2500 3097 2075 3097 
Q 1594 3097 1305 2825 
Q 1016 2553 972 2059 
L 3022 2063 
z
" transform="scale(0.015625)"/>
       <path id="DejaVuSans-72" d="M 2631 2963 
Q 2534 3019 2420 3045 
Q 2306 3072 2169 3072 
Q 1681 3072 1420 2755 
Q 1159 2438 1159 1844 
L 1159 0 
L 581 0 
L 581 3500 
L 1159 3500 
L 1159 2956 
Q 1341 3275 1631 3429 
Q 1922 3584 2338 3584 
Q 2397 3584 2469 3576 
Q 2541 3569 2628 3553 
L 2631 2963 
z
" transform="scale(0.015625)"/>
       <path id="DejaVuSans-70" d="M 1159 525 
L 1159 -1331 
L 581 -1331 
L 581 3500 
L 1159 3500 
L 1159 2969 
Q 1341 3281 1617 3432 
Q 1894 3584 2278 3584 
Q 2916 3584 3314 3078 
Q 3713 2572 3713 1747 
Q 3713 922 3314 415 
Q 2916 -91 2278 -91 
Q 1894 -91 1617 61 
Q 1341 213 1159 525 
z
M 3116 1747 
Q 3116 2381 2855 2742 
Q 2594 3103 2138 3103 
Q 1681 3103 1420 2742 
Q 1159 2381 1159 1747 
Q 1159 1113 1420 752 
Q 1681 391 2138 391 
Q 2594 391 2855 752 
Q 3116 1113 3116 1747 
z
" transform="scale(0.015625)"/>
       <path id="DejaVuSans-6f" d="M 1959 3097 
Q 1497 3097 1228 2736 
Q 959 2375 959 1747 
Q 959 1119 1226 758 
Q 1494 397 1959 397 
Q 2419 397 2687 759 
Q 2956 1122 2956 1747 
Q 2956 2369 2687 2733 
Q 2419 3097 1959 3097 
z
M 1959 3584 
Q 2709 3584 3137 3096 
Q 3566 2609 3566 1747 
Q 3566 888 3137 398 
Q 2709 -91 1959 -91 
Q 1206 -91 779 398 
Q 353 888 353 1747 
Q 353 2609 779 3096 
Q 1206 3584 1959 3584 
z
" transform="scale(0.015625)"/>
       <path id="DejaVuSans-6c" d="M 603 4863 
L 1178 4863 
L 1178 0 
L 603 0 
L 603 4863 
z
" transform="scale(0.015625)"/>
       <path id="DejaVuSans-69" d="M 603 3500 
L 1178 3500 
L 1178 0 
L 603 0 
L 603 3500 
z
M 603 4863 
L 1178 4863 
L 1178 4134 
L 603 4134 
L 603 4863 
z
" transform="scale(0.015625)"/>
       <path id="DejaVuSans-67" d="M 2906 1791 
Q 2906 2416 2648 2759 
Q 2391 3103 1925 3103 
Q 1463 3103 1205 2759 
Q 947 2416 947 1791 
Q 947 1169 1205 825 
Q 1463 481 1925 481 
Q 2391 481 2648 825 
Q 2906 1169 2906 1791 
z
M 3481 434 
Q 3481 -459 3084 -895 
Q 2688 -1331 1869 -1331 
Q 1566 -1331 1297 -1286 
Q 1028 -1241 775 -1147 
L 775 -588 
Q 1028 -725 1275 -790 
Q 1522 -856 1778 -856 
Q 2344 -856 2625 -561 
Q 2906 -266 2906 331 
L 2906 616 
Q 2728 306 2450 153 
Q 2172 0 1784 0 
Q 1141 0 747 490 
Q 353 981 353 1791 
Q 353 2603 747 3093 
Q 1141 3584 1784 3584 
Q 2172 3584 2450 3431 
Q 2728 3278 2906 2969 
L 2906 3500 
L 3481 3500 
L 3481 434 
z
" transform="scale(0.015625)"/>
      </defs>
      <use xlink:href="#DejaVuSans-49"/>
      <use xlink:href="#DejaVuSans-6e" x="29.492188"/>
      <use xlink:href="#DejaVuSans-74" x="92.871094"/>
      <use xlink:href="#DejaVuSans-65" x="132.080078"/>
      <use xlink:href="#DejaVuSans-72" x="193.603516"/>
      <use xlink:href="#DejaVuSans-70" x="234.716797"/>
      <use xlink:href="#DejaVuSans-6f" x="298.193359"/>
      <use xlink:href="#DejaVuSans-6c" x="359.375"/>
      <use xlink:href="#DejaVuSans-61" x="387.158203"/>
      <use xlink:href="#DejaVuSans-74" x="448.4375"/>
      <use xlink:href="#DejaVuSans-69" x="487.646484"/>
      <use xlink:href="#DejaVuSans-6e" x="515.429688"/>
      <use xlink:href="#DejaVuSans-67" x="578.808594"/>
     </g>
    </g>
    <g id="line2d_21">
     <path d="M 272.053125 49.654687 
L 282.053125 49.654687 
L 292.053125 49.654687 
" style="fill: none; stroke: #008000; stroke-width: 1.5; stroke-linecap: square"/>
    </g>
    <g id="text_17">
     <!-- Smoothing -->
     <g transform="translate(300.053125 53.154687)scale(0.1 -0.1)">
      <defs>
       <path id="DejaVuSans-53" d="M 3425 4513 
L 3425 3897 
Q 3066 4069 2747 4153 
Q 2428 4238 2131 4238 
Q 1616 4238 1336 4038 
Q 1056 3838 1056 3469 
Q 1056 3159 1242 3001 
Q 1428 2844 1947 2747 
L 2328 2669 
Q 3034 2534 3370 2195 
Q 3706 1856 3706 1288 
Q 3706 609 3251 259 
Q 2797 -91 1919 -91 
Q 1588 -91 1214 -16 
Q 841 59 441 206 
L 441 856 
Q 825 641 1194 531 
Q 1563 422 1919 422 
Q 2459 422 2753 634 
Q 3047 847 3047 1241 
Q 3047 1584 2836 1778 
Q 2625 1972 2144 2069 
L 1759 2144 
Q 1053 2284 737 2584 
Q 422 2884 422 3419 
Q 422 4038 858 4394 
Q 1294 4750 2059 4750 
Q 2388 4750 2728 4690 
Q 3069 4631 3425 4513 
z
" transform="scale(0.015625)"/>
       <path id="DejaVuSans-6d" d="M 3328 2828 
Q 3544 3216 3844 3400 
Q 4144 3584 4550 3584 
Q 5097 3584 5394 3201 
Q 5691 2819 5691 2113 
L 5691 0 
L 5113 0 
L 5113 2094 
Q 5113 2597 4934 2840 
Q 4756 3084 4391 3084 
Q 3944 3084 3684 2787 
Q 3425 2491 3425 1978 
L 3425 0 
L 2847 0 
L 2847 2094 
Q 2847 2600 2669 2842 
Q 2491 3084 2119 3084 
Q 1678 3084 1418 2786 
Q 1159 2488 1159 1978 
L 1159 0 
L 581 0 
L 581 3500 
L 1159 3500 
L 1159 2956 
Q 1356 3278 1631 3431 
Q 1906 3584 2284 3584 
Q 2666 3584 2933 3390 
Q 3200 3197 3328 2828 
z
" transform="scale(0.015625)"/>
       <path id="DejaVuSans-68" d="M 3513 2113 
L 3513 0 
L 2938 0 
L 2938 2094 
Q 2938 2591 2744 2837 
Q 2550 3084 2163 3084 
Q 1697 3084 1428 2787 
Q 1159 2491 1159 1978 
L 1159 0 
L 581 0 
L 581 4863 
L 1159 4863 
L 1159 2956 
Q 1366 3272 1645 3428 
Q 1925 3584 2291 3584 
Q 2894 3584 3203 3211 
Q 3513 2838 3513 2113 
z
" transform="scale(0.015625)"/>
      </defs>
      <use xlink:href="#DejaVuSans-53"/>
      <use xlink:href="#DejaVuSans-6d" x="63.476562"/>
      <use xlink:href="#DejaVuSans-6f" x="160.888672"/>
      <use xlink:href="#DejaVuSans-6f" x="222.070312"/>
      <use xlink:href="#DejaVuSans-74" x="283.251953"/>
      <use xlink:href="#DejaVuSans-68" x="322.460938"/>
      <use xlink:href="#DejaVuSans-69" x="385.839844"/>
      <use xlink:href="#DejaVuSans-6e" x="413.623047"/>
      <use xlink:href="#DejaVuSans-67" x="477.001953"/>
     </g>
    </g>
    <g id="line2d_22">
     <path d="M 272.053125 64.332812 
L 282.053125 64.332812 
L 292.053125 64.332812 
" style="fill: none; stroke: #000000; stroke-width: 1.5; stroke-linecap: square"/>
    </g>
    <g id="text_18">
     <!-- Exact Knots -->
     <g transform="translate(300.053125 67.832812)scale(0.1 -0.1)">
      <defs>
       <path id="DejaVuSans-45" d="M 628 4666 
L 3578 4666 
L 3578 4134 
L 1259 4134 
L 1259 2753 
L 3481 2753 
L 3481 2222 
L 1259 2222 
L 1259 531 
L 3634 531 
L 3634 0 
L 628 0 
L 628 4666 
z
" transform="scale(0.015625)"/>
       <path id="DejaVuSans-78" d="M 3513 3500 
L 2247 1797 
L 3578 0 
L 2900 0 
L 1881 1375 
L 863 0 
L 184 0 
L 1544 1831 
L 300 3500 
L 978 3500 
L 1906 2253 
L 2834 3500 
L 3513 3500 
z
" transform="scale(0.015625)"/>
       <path id="DejaVuSans-63" d="M 3122 3366 
L 3122 2828 
Q 2878 2963 2633 3030 
Q 2388 3097 2138 3097 
Q 1578 3097 1268 2742 
Q 959 2388 959 1747 
Q 959 1106 1268 751 
Q 1578 397 2138 397 
Q 2388 397 2633 464 
Q 2878 531 3122 666 
L 3122 134 
Q 2881 22 2623 -34 
Q 2366 -91 2075 -91 
Q 1284 -91 818 406 
Q 353 903 353 1747 
Q 353 2603 823 3093 
Q 1294 3584 2113 3584 
Q 2378 3584 2631 3529 
Q 2884 3475 3122 3366 
z
" transform="scale(0.015625)"/>
       <path id="DejaVuSans-20" transform="scale(0.015625)"/>
       <path id="DejaVuSans-4b" d="M 628 4666 
L 1259 4666 
L 1259 2694 
L 3353 4666 
L 4166 4666 
L 1850 2491 
L 4331 0 
L 3500 0 
L 1259 2247 
L 1259 0 
L 628 0 
L 628 4666 
z
" transform="scale(0.015625)"/>
       <path id="DejaVuSans-73" d="M 2834 3397 
L 2834 2853 
Q 2591 2978 2328 3040 
Q 2066 3103 1784 3103 
Q 1356 3103 1142 2972 
Q 928 2841 928 2578 
Q 928 2378 1081 2264 
Q 1234 2150 1697 2047 
L 1894 2003 
Q 2506 1872 2764 1633 
Q 3022 1394 3022 966 
Q 3022 478 2636 193 
Q 2250 -91 1575 -91 
Q 1294 -91 989 -36 
Q 684 19 347 128 
L 347 722 
Q 666 556 975 473 
Q 1284 391 1588 391 
Q 1994 391 2212 530 
Q 2431 669 2431 922 
Q 2431 1156 2273 1281 
Q 2116 1406 1581 1522 
L 1381 1569 
Q 847 1681 609 1914 
Q 372 2147 372 2553 
Q 372 3047 722 3315 
Q 1072 3584 1716 3584 
Q 2034 3584 2315 3537 
Q 2597 3491 2834 3397 
z
" transform="scale(0.015625)"/>
      </defs>
      <use xlink:href="#DejaVuSans-45"/>
      <use xlink:href="#DejaVuSans-78" x="63.183594"/>
      <use xlink:href="#DejaVuSans-61" x="122.363281"/>
      <use xlink:href="#DejaVuSans-63" x="183.642578"/>
      <use xlink:href="#DejaVuSans-74" x="238.623047"/>
      <use xlink:href="#DejaVuSans-20" x="277.832031"/>
      <use xlink:href="#DejaVuSans-4b" x="309.619141"/>
      <use xlink:href="#DejaVuSans-6e" x="375.195312"/>
      <use xlink:href="#DejaVuSans-6f" x="438.574219"/>
      <use xlink:href="#DejaVuSans-74" x="499.755859"/>
      <use xlink:href="#DejaVuSans-73" x="538.964844"/>
     </g>
    </g>
   </g>
  </g>
 </g>
 <defs>
  <clipPath id="p146c419c62">
   <rect x="38.482813" y="7.2" width="334.8" height="332.64"/>
  </clipPath>
 </defs>
</svg>
