<?xml version="1.0" encoding="utf-8" standalone="no"?>
<!DOCTYPE svg PUBLIC "-//W3C//DTD SVG 1.1//EN"
  "http://www.w3.org/Graphics/SVG/1.1/DTD/svg11.dtd">
<svg xmlns:xlink="http://www.w3.org/1999/xlink" width="370.942187pt" height="363.718125pt" viewBox="0 0 370.942187 363.718125" xmlns="http://www.w3.org/2000/svg" version="1.1">
 <metadata>
  <rdf:RDF xmlns:dc="http://purl.org/dc/elements/1.1/" xmlns:cc="http://creativecommons.org/ns#" xmlns:rdf="http://www.w3.org/1999/02/22-rdf-syntax-ns#">
   <cc:Work>
    <dc:type rdf:resource="http://purl.org/dc/dcmitype/StillImage"/>
    <dc:date>2022-05-03T11:25:26.947262</dc:date>
    <dc:format>image/svg+xml</dc:format>
    <dc:creator>
     <cc:Agent>
      <dc:title>Matplotlib v3.5.2, https://matplotlib.org/</dc:title>
     </cc:Agent>
    </dc:creator>
   </cc:Work>
  </rdf:RDF>
 </metadata>
 <defs>
  <style type="text/css">*{stroke-linejoin: round; stroke-linecap: butt}</style>
 </defs>
 <g id="figure_1">
  <g id="patch_1">
   <path d="M 0 363.718125 
L 370.942187 363.718125 
L 370.942187 0 
L 0 0 
L 0 363.718125 
z
" style="fill: none"/>
  </g>
  <g id="axes_1">
   <g id="patch_2">
    <path d="M 28.942188 339.84 
L 363.742188 339.84 
L 363.742188 7.2 
L 28.942188 7.2 
z
" style="fill: #ffffff"/>
   </g>
   <g id="matplotlib.axis_1">
    <g id="xtick_1">
     <g id="line2d_1">
      <defs>
       <path id="mdf635e363a" d="M 0 0 
L 0 3.5 
" style="stroke: #000000; stroke-width: 0.8"/>
      </defs>
      <g>
       <use xlink:href="#mdf635e363a" x="44.160369" y="339.84" style="stroke: #000000; stroke-width: 0.8"/>
      </g>
     </g>
     <g id="text_1">
      <!-- 0 -->
      <g transform="translate(40.979119 354.438438)scale(0.1 -0.1)">
       <defs>
        <path id="DejaVuSans-30" d="M 2034 4250 
Q 1547 4250 1301 3770 
Q 1056 3291 1056 2328 
Q 1056 1369 1301 889 
Q 1547 409 2034 409 
Q 2525 409 2770 889 
Q 3016 1369 3016 2328 
Q 3016 3291 2770 3770 
Q 2525 4250 2034 4250 
z
M 2034 4750 
Q 2819 4750 3233 4129 
Q 3647 3509 3647 2328 
Q 3647 1150 3233 529 
Q 2819 -91 2034 -91 
Q 1250 -91 836 529 
Q 422 1150 422 2328 
Q 422 3509 836 4129 
Q 1250 4750 2034 4750 
z
" transform="scale(0.015625)"/>
       </defs>
       <use xlink:href="#DejaVuSans-30"/>
      </g>
     </g>
    </g>
    <g id="xtick_2">
     <g id="line2d_2">
      <g>
       <use xlink:href="#mdf635e363a" x="105.09403" y="339.84" style="stroke: #000000; stroke-width: 0.8"/>
      </g>
     </g>
     <g id="text_2">
      <!-- 200 -->
      <g transform="translate(95.55028 354.438438)scale(0.1 -0.1)">
       <defs>
        <path id="DejaVuSans-32" d="M 1228 531 
L 3431 531 
L 3431 0 
L 469 0 
L 469 531 
Q 828 903 1448 1529 
Q 2069 2156 2228 2338 
Q 2531 2678 2651 2914 
Q 2772 3150 2772 3378 
Q 2772 3750 2511 3984 
Q 2250 4219 1831 4219 
Q 1534 4219 1204 4116 
Q 875 4013 500 3803 
L 500 4441 
Q 881 4594 1212 4672 
Q 1544 4750 1819 4750 
Q 2544 4750 2975 4387 
Q 3406 4025 3406 3419 
Q 3406 3131 3298 2873 
Q 3191 2616 2906 2266 
Q 2828 2175 2409 1742 
Q 1991 1309 1228 531 
z
" transform="scale(0.015625)"/>
       </defs>
       <use xlink:href="#DejaVuSans-32"/>
       <use xlink:href="#DejaVuSans-30" x="63.623047"/>
       <use xlink:href="#DejaVuSans-30" x="127.246094"/>
      </g>
     </g>
    </g>
    <g id="xtick_3">
     <g id="line2d_3">
      <g>
       <use xlink:href="#mdf635e363a" x="166.027691" y="339.84" style="stroke: #000000; stroke-width: 0.8"/>
      </g>
     </g>
     <g id="text_3">
      <!-- 400 -->
      <g transform="translate(156.483941 354.438438)scale(0.1 -0.1)">
       <defs>
        <path id="DejaVuSans-34" d="M 2419 4116 
L 825 1625 
L 2419 1625 
L 2419 4116 
z
M 2253 4666 
L 3047 4666 
L 3047 1625 
L 3713 1625 
L 3713 1100 
L 3047 1100 
L 3047 0 
L 2419 0 
L 2419 1100 
L 313 1100 
L 313 1709 
L 2253 4666 
z
" transform="scale(0.015625)"/>
       </defs>
       <use xlink:href="#DejaVuSans-34"/>
       <use xlink:href="#DejaVuSans-30" x="63.623047"/>
       <use xlink:href="#DejaVuSans-30" x="127.246094"/>
      </g>
     </g>
    </g>
    <g id="xtick_4">
     <g id="line2d_4">
      <g>
       <use xlink:href="#mdf635e363a" x="226.961352" y="339.84" style="stroke: #000000; stroke-width: 0.8"/>
      </g>
     </g>
     <g id="text_4">
      <!-- 600 -->
      <g transform="translate(217.417602 354.438438)scale(0.1 -0.1)">
       <defs>
        <path id="DejaVuSans-36" d="M 2113 2584 
Q 1688 2584 1439 2293 
Q 1191 2003 1191 1497 
Q 1191 994 1439 701 
Q 1688 409 2113 409 
Q 2538 409 2786 701 
Q 3034 994 3034 1497 
Q 3034 2003 2786 2293 
Q 2538 2584 2113 2584 
z
M 3366 4563 
L 3366 3988 
Q 3128 4100 2886 4159 
Q 2644 4219 2406 4219 
Q 1781 4219 1451 3797 
Q 1122 3375 1075 2522 
Q 1259 2794 1537 2939 
Q 1816 3084 2150 3084 
Q 2853 3084 3261 2657 
Q 3669 2231 3669 1497 
Q 3669 778 3244 343 
Q 2819 -91 2113 -91 
Q 1303 -91 875 529 
Q 447 1150 447 2328 
Q 447 3434 972 4092 
Q 1497 4750 2381 4750 
Q 2619 4750 2861 4703 
Q 3103 4656 3366 4563 
z
" transform="scale(0.015625)"/>
       </defs>
       <use xlink:href="#DejaVuSans-36"/>
       <use xlink:href="#DejaVuSans-30" x="63.623047"/>
       <use xlink:href="#DejaVuSans-30" x="127.246094"/>
      </g>
     </g>
    </g>
    <g id="xtick_5">
     <g id="line2d_5">
      <g>
       <use xlink:href="#mdf635e363a" x="287.895013" y="339.84" style="stroke: #000000; stroke-width: 0.8"/>
      </g>
     </g>
     <g id="text_5">
      <!-- 800 -->
      <g transform="translate(278.351263 354.438438)scale(0.1 -0.1)">
       <defs>
        <path id="DejaVuSans-38" d="M 2034 2216 
Q 1584 2216 1326 1975 
Q 1069 1734 1069 1313 
Q 1069 891 1326 650 
Q 1584 409 2034 409 
Q 2484 409 2743 651 
Q 3003 894 3003 1313 
Q 3003 1734 2745 1975 
Q 2488 2216 2034 2216 
z
M 1403 2484 
Q 997 2584 770 2862 
Q 544 3141 544 3541 
Q 544 4100 942 4425 
Q 1341 4750 2034 4750 
Q 2731 4750 3128 4425 
Q 3525 4100 3525 3541 
Q 3525 3141 3298 2862 
Q 3072 2584 2669 2484 
Q 3125 2378 3379 2068 
Q 3634 1759 3634 1313 
Q 3634 634 3220 271 
Q 2806 -91 2034 -91 
Q 1263 -91 848 271 
Q 434 634 434 1313 
Q 434 1759 690 2068 
Q 947 2378 1403 2484 
z
M 1172 3481 
Q 1172 3119 1398 2916 
Q 1625 2713 2034 2713 
Q 2441 2713 2670 2916 
Q 2900 3119 2900 3481 
Q 2900 3844 2670 4047 
Q 2441 4250 2034 4250 
Q 1625 4250 1398 4047 
Q 1172 3844 1172 3481 
z
" transform="scale(0.015625)"/>
       </defs>
       <use xlink:href="#DejaVuSans-38"/>
       <use xlink:href="#DejaVuSans-30" x="63.623047"/>
       <use xlink:href="#DejaVuSans-30" x="127.246094"/>
      </g>
     </g>
    </g>
    <g id="xtick_6">
     <g id="line2d_6">
      <g>
       <use xlink:href="#mdf635e363a" x="348.828674" y="339.84" style="stroke: #000000; stroke-width: 0.8"/>
      </g>
     </g>
     <g id="text_6">
      <!-- 1000 -->
      <g transform="translate(336.103674 354.438438)scale(0.1 -0.1)">
       <defs>
        <path id="DejaVuSans-31" d="M 794 531 
L 1825 531 
L 1825 4091 
L 703 3866 
L 703 4441 
L 1819 4666 
L 2450 4666 
L 2450 531 
L 3481 531 
L 3481 0 
L 794 0 
L 794 531 
z
" transform="scale(0.015625)"/>
       </defs>
       <use xlink:href="#DejaVuSans-31"/>
       <use xlink:href="#DejaVuSans-30" x="63.623047"/>
       <use xlink:href="#DejaVuSans-30" x="127.246094"/>
       <use xlink:href="#DejaVuSans-30" x="190.869141"/>
      </g>
     </g>
    </g>
   </g>
   <g id="matplotlib.axis_2">
    <g id="ytick_1">
     <g id="line2d_7">
      <defs>
       <path id="m0e873e2104" d="M 0 0 
L -3.5 0 
" style="stroke: #000000; stroke-width: 0.8"/>
      </defs>
      <g>
       <use xlink:href="#m0e873e2104" x="28.942188" y="306.964667" style="stroke: #000000; stroke-width: 0.8"/>
      </g>
     </g>
     <g id="text_7">
      <!-- −3 -->
      <g transform="translate(7.2 310.763886)scale(0.1 -0.1)">
       <defs>
        <path id="DejaVuSans-2212" d="M 678 2272 
L 4684 2272 
L 4684 1741 
L 678 1741 
L 678 2272 
z
" transform="scale(0.015625)"/>
        <path id="DejaVuSans-33" d="M 2597 2516 
Q 3050 2419 3304 2112 
Q 3559 1806 3559 1356 
Q 3559 666 3084 287 
Q 2609 -91 1734 -91 
Q 1441 -91 1130 -33 
Q 819 25 488 141 
L 488 750 
Q 750 597 1062 519 
Q 1375 441 1716 441 
Q 2309 441 2620 675 
Q 2931 909 2931 1356 
Q 2931 1769 2642 2001 
Q 2353 2234 1838 2234 
L 1294 2234 
L 1294 2753 
L 1863 2753 
Q 2328 2753 2575 2939 
Q 2822 3125 2822 3475 
Q 2822 3834 2567 4026 
Q 2313 4219 1838 4219 
Q 1578 4219 1281 4162 
Q 984 4106 628 3988 
L 628 4550 
Q 988 4650 1302 4700 
Q 1616 4750 1894 4750 
Q 2613 4750 3031 4423 
Q 3450 4097 3450 3541 
Q 3450 3153 3228 2886 
Q 3006 2619 2597 2516 
z
" transform="scale(0.015625)"/>
       </defs>
       <use xlink:href="#DejaVuSans-2212"/>
       <use xlink:href="#DejaVuSans-33" x="83.789062"/>
      </g>
     </g>
    </g>
    <g id="ytick_2">
     <g id="line2d_8">
      <g>
       <use xlink:href="#m0e873e2104" x="28.942188" y="264.968146" style="stroke: #000000; stroke-width: 0.8"/>
      </g>
     </g>
     <g id="text_8">
      <!-- −2 -->
      <g transform="translate(7.2 268.767365)scale(0.1 -0.1)">
       <use xlink:href="#DejaVuSans-2212"/>
       <use xlink:href="#DejaVuSans-32" x="83.789062"/>
      </g>
     </g>
    </g>
    <g id="ytick_3">
     <g id="line2d_9">
      <g>
       <use xlink:href="#m0e873e2104" x="28.942188" y="222.971625" style="stroke: #000000; stroke-width: 0.8"/>
      </g>
     </g>
     <g id="text_9">
      <!-- −1 -->
      <g transform="translate(7.2 226.770844)scale(0.1 -0.1)">
       <use xlink:href="#DejaVuSans-2212"/>
       <use xlink:href="#DejaVuSans-31" x="83.789062"/>
      </g>
     </g>
    </g>
    <g id="ytick_4">
     <g id="line2d_10">
      <g>
       <use xlink:href="#m0e873e2104" x="28.942188" y="180.975105" style="stroke: #000000; stroke-width: 0.8"/>
      </g>
     </g>
     <g id="text_10">
      <!-- 0 -->
      <g transform="translate(15.579688 184.774323)scale(0.1 -0.1)">
       <use xlink:href="#DejaVuSans-30"/>
      </g>
     </g>
    </g>
    <g id="ytick_5">
     <g id="line2d_11">
      <g>
       <use xlink:href="#m0e873e2104" x="28.942188" y="138.978584" style="stroke: #000000; stroke-width: 0.8"/>
      </g>
     </g>
     <g id="text_11">
      <!-- 1 -->
      <g transform="translate(15.579688 142.777803)scale(0.1 -0.1)">
       <use xlink:href="#DejaVuSans-31"/>
      </g>
     </g>
    </g>
    <g id="ytick_6">
     <g id="line2d_12">
      <g>
       <use xlink:href="#m0e873e2104" x="28.942188" y="96.982063" style="stroke: #000000; stroke-width: 0.8"/>
      </g>
     </g>
     <g id="text_12">
      <!-- 2 -->
      <g transform="translate(15.579688 100.781282)scale(0.1 -0.1)">
       <use xlink:href="#DejaVuSans-32"/>
      </g>
     </g>
    </g>
    <g id="ytick_7">
     <g id="line2d_13">
      <g>
       <use xlink:href="#m0e873e2104" x="28.942188" y="54.985542" style="stroke: #000000; stroke-width: 0.8"/>
      </g>
     </g>
     <g id="text_13">
      <!-- 3 -->
      <g transform="translate(15.579688 58.784761)scale(0.1 -0.1)">
       <use xlink:href="#DejaVuSans-33"/>
      </g>
     </g>
    </g>
    <g id="ytick_8">
     <g id="line2d_14">
      <g>
       <use xlink:href="#m0e873e2104" x="28.942188" y="12.989022" style="stroke: #000000; stroke-width: 0.8"/>
      </g>
     </g>
     <g id="text_14">
      <!-- 4 -->
      <g transform="translate(15.579688 16.78824)scale(0.1 -0.1)">
       <use xlink:href="#DejaVuSans-34"/>
      </g>
     </g>
    </g>
   </g>
   <g id="line2d_15">
    <path d="M 44.465038 172.440716 
L 44.769706 224.988061 
M 45.379043 128.692496 
L 45.683711 235.295854 
M 46.293047 237.492229 
L 46.597716 179.702661 
M 47.207052 217.915432 
L 47.511721 177.817934 
M 48.121057 255.535775 
L 48.425726 118.57889 
M 49.035062 144.72803 
L 49.33973 170.224321 
M 49.949067 252.125652 
L 50.253735 177.392058 
M 50.863072 137.466233 
L 51.16774 207.997081 
M 51.777077 116.800109 
L 52.081745 229.649985 
M 52.691082 257.131748 
L 52.99575 195.574969 
M 53.605087 131.120588 
L 53.909755 101.285398 
M 54.519092 135.238863 
L 54.82376 166.738554 
M 55.433097 220.840345 
L 55.737765 133.67816 
M 56.347102 222.2481 
L 56.65177 113.236079 
M 57.261106 104.378771 
L 57.565775 170.399602 
M 58.175111 157.427888 
L 58.47978 167.960125 
M 59.089116 150.151007 
L 59.393785 155.923693 
M 60.003121 146.579721 
L 60.307789 140.179225 
M 60.917126 176.379867 
L 61.221794 144.753821 
M 61.831131 142.187385 
L 62.135799 121.577025 
M 62.745136 165.010923 
L 63.049804 171.313222 
M 63.659141 147.466292 
L 63.963809 133.34846 
M 64.573146 136.334424 
L 64.877814 110.614425 
M 65.487151 201.909099 
L 65.791819 151.727879 
M 66.401156 213.358352 
L 66.705824 173.704295 
M 67.31516 183.718634 
L 67.619829 184.000208 
M 68.229165 131.185493 
L 68.533834 145.01982 
M 69.14317 168.449129 
L 69.447839 145.603257 
M 70.057175 119.727021 
L 70.361844 118.059116 
M 70.97118 150.442075 
L 71.275848 141.504249 
M 71.885185 165.409612 
L 72.189853 209.891851 
M 72.79919 184.461456 
L 73.103858 184.226768 
M 73.713195 180.855087 
L 74.017863 147.66416 
M 74.6272 171.665026 
L 74.931868 108.037751 
M 75.541205 76.690846 
L 75.845873 170.500215 
M 76.45521 87.372456 
L 76.759878 63.294688 
M 77.369215 137.019951 
L 77.673883 83.827732 
M 78.283219 147.33128 
L 78.587888 166.541825 
M 79.197224 153.871691 
L 79.501893 156.851856 
M 80.111229 142.136553 
L 80.415898 116.013711 
M 81.025234 166.299978 
L 81.329902 155.703326 
M 81.939239 117.723314 
L 82.243907 98.575499 
M 82.853244 160.856481 
L 83.157912 152.573697 
M 83.767249 233.585989 
L 84.071917 157.42052 
M 84.681254 128.097857 
L 84.985922 115.783517 
M 85.595259 166.196873 
L 85.899927 204.310165 
M 86.509264 187.769285 
L 86.813932 237.413146 
M 87.423269 118.387124 
L 87.727937 144.517514 
M 88.337273 188.266715 
L 88.641942 179.689413 
M 89.251278 110.335181 
L 89.555947 216.147012 
M 90.165283 109.617003 
L 90.469952 251.141788 
M 91.079288 159.255781 
L 91.383957 102.305457 
M 91.993293 22.32 
L 92.297961 185.113455 
M 92.907298 101.825427 
L 93.211966 168.378237 
M 93.821303 213.896713 
L 94.125971 186.107031 
M 94.735308 86.086874 
L 95.039976 61.480942 
M 95.649313 97.567898 
L 95.953981 181.012246 
M 96.563318 131.097978 
L 96.867986 130.701766 
M 97.477323 122.703794 
L 97.781991 81.296102 
M 98.391328 145.916581 
L 98.695996 70.004969 
M 99.305332 115.189007 
L 99.610001 113.959969 
M 100.219337 92.463684 
L 100.524006 98.8971 
M 101.133342 110.531609 
L 101.438011 137.613617 
M 102.047347 186.310166 
L 102.352016 134.537679 
M 102.961352 140.313019 
L 103.26602 157.665576 
M 103.875357 196.92159 
L 104.180025 119.202253 
M 104.789362 167.641533 
L 105.09403 96.878317 
M 105.703367 231.793581 
L 106.008035 219.919956 
M 106.617372 260.794752 
L 106.92204 131.397768 
M 107.531377 50.203606 
L 107.836045 159.756864 
M 108.445382 128.385815 
L 108.75005 124.910944 
M 109.359387 112.230389 
L 109.664055 175.259588 
M 110.273391 126.994249 
L 110.57806 202.587441 
M 111.187396 149.844762 
L 111.492065 127.581981 
M 112.101401 151.035632 
L 112.40607 130.094971 
M 113.015406 163.085803 
L 113.320074 139.613891 
M 113.929411 103.868341 
L 114.234079 162.336843 
M 114.843416 190.527452 
L 115.148084 162.738454 
M 115.757421 105.878072 
L 116.062089 99.804164 
M 116.671426 99.884845 
L 116.976094 175.414509 
M 117.585431 166.557131 
L 117.890099 101.270743 
M 118.499436 151.359728 
L 118.804104 174.096558 
M 119.413441 59.618607 
L 119.718109 218.313585 
M 120.327445 151.212204 
L 120.632114 147.661275 
M 121.24145 126.837696 
L 121.546119 140.907738 
M 122.155455 188.075374 
L 122.460124 223.279266 
M 123.06946 165.24906 
L 123.374129 102.671916 
M 123.983465 144.907619 
L 124.288133 88.257259 
M 124.89747 198.175852 
L 125.202138 181.133471 
M 125.811475 213.377688 
L 126.116143 224.648344 
M 126.72548 245.422202 
L 127.030148 219.41921 
M 127.639485 250.819522 
L 127.944153 157.787479 
M 128.55349 173.453582 
L 128.858158 171.460415 
M 129.467495 113.944357 
L 129.772163 139.40538 
M 130.3815 176.144383 
L 130.686168 184.950036 
M 131.295504 149.090167 
L 131.600173 189.020284 
M 132.209509 203.199144 
L 132.514178 190.018462 
M 133.123514 177.829297 
L 133.428183 171.415884 
M 134.037519 95.067163 
L 134.342187 267.18768 
M 134.951524 167.92665 
L 135.256192 273.554494 
M 135.865529 211.413608 
L 136.170197 160.948755 
M 136.779534 226.972691 
L 137.084202 208.151253 
M 137.693539 137.716179 
L 137.998207 195.149965 
M 138.607544 241.095505 
L 138.912212 176.182908 
M 139.521549 185.336207 
L 139.826217 215.895203 
M 140.435554 165.740661 
L 140.740222 163.573991 
M 141.349559 78.176516 
L 141.654227 221.320826 
M 142.263563 208.148252 
L 142.568232 240.595414 
M 143.177568 188.924949 
L 143.482237 207.098601 
M 144.091573 212.5915 
L 144.396242 240.205745 
M 145.005578 161.310193 
L 145.310246 254.336922 
M 145.919583 173.400847 
L 146.224251 197.843651 
M 146.833588 237.139989 
L 147.138256 239.30564 
M 147.747593 236.71741 
L 148.052261 208.528837 
M 148.661598 169.857255 
L 148.966266 254.403159 
M 149.575603 177.741217 
L 149.880271 150.437945 
M 150.489608 243.839798 
L 150.794276 187.892404 
M 151.403613 294.288504 
L 151.708281 152.337518 
M 152.317617 130.736118 
L 152.622286 187.333626 
M 153.231622 161.022234 
L 153.536291 228.573164 
M 154.145627 243.771962 
L 154.450296 192.50558 
M 155.059632 188.946037 
L 155.364301 146.607696 
M 155.973637 199.622188 
L 156.278305 261.214088 
M 156.887642 181.636891 
L 157.19231 181.238669 
M 157.801647 235.301791 
L 158.106315 302.32643 
M 158.715652 259.770183 
L 159.02032 156.911585 
M 159.629657 226.995565 
L 159.934325 202.449977 
M 160.543662 305.232748 
L 160.84833 258.75253 
M 161.457667 215.112811 
L 161.762335 194.108296 
M 162.371672 174.657008 
L 162.67634 226.437897 
M 163.285676 238.620671 
L 163.590345 232.911062 
M 164.199681 306.123859 
L 164.50435 223.739762 
M 165.113686 178.058155 
L 165.418355 224.354776 
M 166.027691 203.099765 
L 166.332359 186.660007 
M 166.941696 192.0829 
L 167.246364 219.376956 
M 167.855701 269.659974 
L 168.160369 205.237944 
M 168.769706 177.098194 
L 169.074374 116.075582 
M 169.683711 266.247944 
L 169.988379 210.365594 
M 170.597716 261.480192 
L 170.902384 156.087102 
M 171.511721 114.04934 
L 171.816389 213.840869 
M 172.425726 157.956102 
L 172.730394 238.783621 
M 173.33973 137.326544 
L 173.644399 273.384833 
M 174.253735 222.805695 
L 174.558404 272.265994 
M 175.16774 245.788052 
L 175.472409 276.016018 
M 176.081745 201.388285 
L 176.386414 295.198346 
M 176.99575 223.124217 
L 177.300418 224.772863 
M 177.909755 166.267165 
L 178.214423 211.627301 
M 178.82376 180.707612 
L 179.128428 230.335848 
M 179.737765 305.38588 
L 180.042433 247.369318 
M 180.65177 238.988526 
L 180.956438 255.753646 
M 181.565775 199.355304 
L 181.870443 264.295942 
M 182.47978 266.914508 
L 182.784448 206.070657 
M 183.393785 156.797236 
L 183.698453 224.381981 
M 184.307789 212.58219 
L 184.612458 169.30583 
M 185.221794 250.710842 
L 185.526463 241.253452 
M 186.135799 156.48653 
L 186.440468 296.766007 
M 187.049804 225.766345 
L 187.354473 218.48226 
M 187.963809 257.253439 
L 188.268477 240.455219 
M 188.877814 297.100022 
L 189.182482 273.69804 
M 189.791819 286.343795 
L 190.096487 268.356549 
M 190.705824 250.413637 
L 191.010492 211.430367 
M 191.619829 257.689583 
L 191.924497 243.189176 
M 192.533834 234.699732 
L 192.838502 262.556025 
M 193.447839 179.361428 
L 193.752507 251.275854 
M 194.361844 224.315977 
L 194.666512 205.481554 
M 195.275848 282.593148 
L 195.580517 159.177372 
M 196.189853 305.598782 
L 196.494522 258.803995 
M 197.103858 260.527111 
L 197.408527 268.116606 
M 198.017863 293.398496 
L 198.322531 251.964303 
M 198.931868 209.095423 
L 199.236536 224.780794 
M 199.845873 217.093361 
L 200.150541 257.085958 
M 200.759878 280.892989 
L 201.064546 182.169066 
M 201.673883 167.748376 
L 201.978551 214.179355 
M 202.587888 248.529002 
L 202.892556 298.038261 
M 203.501893 177.761923 
L 203.806561 210.765116 
M 204.415898 252.866412 
L 204.720566 295.134917 
M 205.329902 208.303616 
L 205.634571 179.049044 
M 206.243907 211.174608 
L 206.548576 198.932703 
M 207.157912 183.552325 
L 207.462581 247.646112 
M 208.071917 152.375422 
L 208.376586 231.62297 
M 208.985922 222.69211 
L 209.29059 222.064855 
M 209.899927 239.229701 
L 210.204595 237.382103 
M 210.813932 204.238874 
L 211.1186 177.997434 
M 211.727937 324.72 
L 212.032605 224.268495 
M 212.641942 196.889246 
L 212.94661 163.852468 
M 213.555947 222.884716 
L 213.860615 211.884672 
M 214.469952 167.344494 
L 214.77462 194.701988 
M 215.383957 189.304863 
L 215.688625 108.604819 
M 216.297961 209.701342 
L 216.60263 256.753657 
M 217.211966 190.155586 
L 217.516635 312.856182 
M 218.125971 195.815577 
L 218.43064 241.413832 
M 219.039976 177.409251 
L 219.344645 176.225156 
M 219.953981 247.771473 
L 220.258649 205.151981 
M 220.867986 148.368398 
L 221.172654 255.036832 
M 221.781991 209.945348 
L 222.086659 228.325065 
M 222.695996 157.333117 
L 223.000664 220.657932 
M 223.610001 192.2931 
L 223.914669 172.480711 
M 224.524006 182.994123 
L 224.828674 203.377583 
M 225.438011 155.452476 
L 225.742679 280.923787 
M 226.352016 222.670646 
L 226.656684 155.649484 
M 227.26602 238.198141 
L 227.570689 145.309849 
M 228.180025 177.145922 
L 228.484694 116.604445 
M 229.09403 157.384312 
L 229.398699 161.682576 
M 230.008035 164.750272 
L 230.312703 186.765147 
M 230.92204 103.430105 
L 231.226708 220.993058 
M 231.836045 207.322392 
L 232.140713 221.530099 
M 232.75005 213.891645 
L 233.054718 235.86714 
M 233.664055 164.222641 
L 233.968723 152.050895 
M 234.57806 213.883378 
L 234.882728 137.178009 
M 235.492065 158.380329 
L 235.796733 142.625288 
M 236.40607 197.9397 
L 236.710738 218.950316 
M 237.320074 212.529496 
L 237.624743 168.455636 
M 238.234079 157.155084 
L 238.538748 166.847445 
M 239.148084 127.2049 
L 239.452753 154.794379 
M 240.062089 204.038318 
L 240.366758 112.967734 
M 240.976094 126.007965 
L 241.280762 123.778446 
M 241.890099 203.107581 
L 242.194767 252.744015 
M 242.804104 198.031545 
L 243.108772 136.535293 
M 243.718109 176.75006 
L 244.022777 172.661488 
M 244.632114 100.965473 
L 244.936782 143.135039 
M 245.546119 275.950024 
L 245.850787 155.495364 
M 246.460124 128.70442 
L 246.764792 138.723954 
M 247.374129 135.025966 
L 247.678797 172.237272 
M 248.288133 229.017896 
L 248.592802 69.756612 
M 249.202138 185.294738 
L 249.506807 179.037922 
M 250.116143 151.739336 
L 250.420812 204.369772 
M 251.030148 162.871578 
L 251.334816 126.016337 
M 251.944153 152.486018 
L 252.248821 211.268389 
M 252.858158 218.749768 
L 253.162826 124.563538 
M 253.772163 174.586152 
L 254.076831 183.912905 
M 254.686168 151.702429 
L 254.990836 173.687447 
M 255.600173 38.415117 
L 255.904841 131.70162 
M 256.514178 171.30576 
L 256.818846 189.246119 
M 257.428183 122.056333 
L 257.732851 220.849009 
M 258.342187 148.838223 
L 258.646856 150.873854 
M 259.256192 155.117628 
L 259.560861 103.825049 
M 260.170197 124.895083 
L 260.474866 132.057226 
M 261.084202 138.065869 
L 261.388871 163.627622 
M 261.998207 109.369163 
L 262.302875 57.900065 
M 262.912212 122.809179 
L 263.21688 96.144016 
M 263.826217 88.206432 
L 264.130885 111.445023 
M 264.740222 175.610242 
L 265.04489 178.930015 
M 265.654227 136.71364 
L 265.958895 68.816529 
M 266.568232 121.675191 
L 266.8729 216.599747 
M 267.482237 132.119199 
L 267.786905 55.07676 
M 268.396242 139.699407 
L 268.70091 142.202741 
M 269.310246 160.292211 
L 269.614915 139.003344 
M 270.224251 137.344029 
L 270.52892 104.791655 
M 271.138256 157.787143 
L 271.442925 45.627829 
M 272.052261 102.350395 
L 272.35693 159.634716 
M 272.966266 108.008592 
L 273.270934 154.763594 
M 273.880271 141.951356 
L 274.184939 96.843739 
M 274.794276 64.650474 
L 275.098944 175.315602 
M 275.708281 134.180249 
L 276.012949 131.072631 
M 276.622286 162.147593 
L 276.926954 119.051284 
M 277.536291 54.774618 
L 277.840959 93.097907 
M 278.450296 124.614099 
L 278.754964 137.064302 
M 279.364301 221.230919 
L 279.668969 135.518985 
M 280.278305 196.629101 
L 280.582974 179.737133 
M 281.19231 103.332851 
L 281.496979 137.699081 
M 282.106315 112.415871 
L 282.410984 121.830469 
M 283.02032 143.326361 
L 283.324988 113.847478 
M 283.934325 137.882865 
L 284.238993 214.680373 
M 284.84833 98.784762 
L 285.152998 127.101147 
M 285.762335 186.77254 
L 286.067003 160.561374 
M 286.67634 120.283419 
L 286.981008 185.820697 
M 287.590345 116.077028 
L 287.895013 90.185644 
M 288.50435 188.162974 
L 288.809018 155.383865 
M 289.418355 194.739471 
L 289.723023 165.517207 
M 290.332359 159.797387 
L 290.637028 182.782922 
M 291.246364 178.674004 
L 291.551033 185.677602 
M 292.160369 142.526016 
L 292.465038 139.170551 
M 293.074374 71.469215 
L 293.379043 92.404852 
M 293.988379 140.428149 
L 294.293047 76.519765 
M 294.902384 90.35959 
L 295.207052 126.760298 
M 295.816389 67.428168 
L 296.121057 171.234796 
M 296.730394 154.274559 
L 297.035062 139.418481 
M 297.644399 169.667341 
L 297.949067 194.115356 
M 298.558404 127.117814 
L 298.863072 87.937171 
M 299.472409 166.392843 
L 299.777077 169.783856 
M 300.386414 164.700603 
L 300.691082 200.728119 
M 301.300418 90.477704 
L 301.605087 168.68857 
M 302.214423 161.714623 
L 302.519092 83.833977 
M 303.128428 134.937888 
L 303.433097 189.88433 
M 304.042433 112.169103 
L 304.347102 117.546324 
M 304.956438 114.29326 
L 305.261106 174.104806 
M 305.870443 143.347519 
L 306.175111 119.493134 
M 306.784448 141.591642 
L 307.089116 79.765551 
M 307.698453 167.751344 
L 308.003121 140.091419 
M 308.612458 178.209298 
L 308.917126 152.385814 
M 309.526463 183.402233 
L 309.831131 237.987282 
M 310.440468 249.378198 
L 310.745136 157.589125 
M 311.354473 165.914439 
L 311.659141 208.781869 
M 312.268477 200.820151 
L 312.573146 161.921977 
M 313.182482 200.034521 
L 313.487151 147.858766 
M 314.096487 112.291908 
L 314.401156 142.948479 
M 315.010492 205.909237 
L 315.31516 141.642172 
M 315.924497 126.208994 
L 316.229165 147.610663 
M 316.838502 201.310225 
L 317.14317 230.152973 
M 317.752507 146.548255 
L 318.057175 166.57628 
M 318.666512 192.636107 
L 318.97118 183.509697 
M 319.580517 143.370734 
L 319.885185 125.819343 
M 320.494522 151.154663 
L 320.79919 166.063705 
M 321.408527 182.329478 
L 321.713195 153.697782 
M 322.322531 167.119335 
L 322.6272 86.390179 
M 323.236536 178.141024 
L 323.541205 182.63747 
M 324.150541 152.535772 
L 324.45521 122.679778 
M 325.064546 222.927044 
L 325.369215 168.565002 
M 325.978551 154.854234 
L 326.283219 253.455816 
M 326.892556 200.181472 
L 327.197224 184.24015 
M 327.806561 143.781681 
L 328.111229 219.465615 
M 328.720566 172.086513 
L 329.025234 169.597811 
M 329.634571 240.888688 
L 329.939239 164.254598 
M 330.548576 185.264885 
L 330.853244 174.009266 
M 331.462581 200.959839 
L 331.767249 130.892615 
M 332.376586 154.691486 
L 332.681254 223.421244 
M 333.29059 209.37522 
L 333.595259 207.667388 
M 334.204595 133.918669 
L 334.509264 296.197286 
M 335.1186 147.281236 
L 335.423269 218.135016 
M 336.032605 191.167655 
L 336.337273 166.134162 
M 336.94661 248.594674 
L 337.251278 156.853799 
M 337.860615 204.029524 
L 338.165283 200.379993 
M 338.77462 153.503904 
L 339.079288 142.953404 
M 339.688625 211.098951 
L 339.993293 231.658483 
M 340.60263 188.229428 
L 340.907298 251.175843 
M 341.516635 179.094273 
L 341.821303 210.571345 
M 342.43064 242.603684 
L 342.735308 168.707336 
M 343.344645 185.905623 
L 343.649313 189.392274 
M 344.258649 170.796007 
L 344.563318 178.420059 
M 345.172654 171.296575 
L 345.477323 253.725854 
M 346.086659 155.365501 
L 346.391328 198.147669 
M 347.000664 206.262511 
L 347.305332 152.335659 
M 347.914669 182.292533 
L 348.219337 246.456433 
L 348.219337 246.456433 
" clip-path="url(#p0a483a70d2)" style="fill: none; stroke: #000000; stroke-width: 1.5; stroke-linecap: square"/>
   </g>
   <g id="line2d_16">
    <path d="M 44.160369 176.511779 
L 46.597716 175.125059 
L 49.33973 173.289102 
L 52.081745 171.187172 
L 55.433097 168.330056 
L 61.526463 162.750342 
L 66.096487 158.696374 
L 69.447839 155.997041 
L 72.494522 153.808642 
L 75.541205 151.890445 
L 78.587888 150.238291 
L 81.634571 148.839227 
L 84.681254 147.686439 
L 87.727937 146.786224 
L 90.469952 146.212132 
L 92.907298 145.913559 
L 95.344645 145.844444 
L 97.477323 145.995461 
L 99.610001 146.365946 
L 101.742679 146.974122 
L 103.875357 147.836171 
L 106.008035 148.962425 
L 108.140713 150.359365 
L 110.273391 152.02671 
L 112.40607 153.956153 
L 114.843416 156.467824 
L 117.585431 159.645494 
L 120.632114 163.54692 
L 124.288133 168.610897 
L 130.686168 177.949367 
L 136.474866 186.253269 
L 140.435554 191.566442 
L 144.091573 196.101127 
L 147.442925 199.917598 
L 150.794276 203.415302 
L 154.450296 206.898354 
L 158.410984 210.343681 
L 162.981008 214.005793 
L 168.465038 218.10128 
L 173.33973 221.505653 
L 176.99575 223.831462 
L 180.042433 225.522658 
L 182.47978 226.646504 
L 184.612458 227.41629 
L 186.745136 227.94924 
L 188.573146 228.193091 
L 190.401156 228.223068 
L 192.229165 228.02558 
L 194.057175 227.590625 
L 195.885185 226.913879 
L 197.713195 225.996925 
L 199.541205 224.844858 
L 201.673883 223.217201 
L 203.806561 221.30468 
L 206.243907 218.806317 
L 208.985922 215.650933 
L 212.032605 211.79931 
L 215.993293 206.395287 
L 221.477323 198.480853 
L 237.929411 174.497109 
L 245.24145 164.311532 
L 250.420812 157.429821 
L 254.3815 152.522319 
L 257.428183 149.075137 
L 260.170197 146.29871 
L 262.607544 144.144652 
L 264.740222 142.533149 
L 266.8729 141.197505 
L 269.005578 140.149358 
L 270.833588 139.481292 
L 272.661598 139.023835 
L 274.489608 138.769898 
L 276.317617 138.709634 
L 278.450296 138.866489 
L 280.582974 139.24781 
L 283.02032 139.928934 
L 285.457667 140.842156 
L 288.199681 142.114157 
L 290.941696 143.620806 
L 293.988379 145.547881 
L 297.035062 147.730333 
L 300.386414 150.41328 
L 304.042433 153.655398 
L 308.003121 157.488578 
L 313.182482 162.849706 
L 322.322531 172.360462 
L 325.673883 175.506358 
L 328.415898 177.808382 
L 330.853244 179.598874 
L 333.29059 181.114406 
L 335.423269 182.198435 
L 337.555947 183.05203 
L 339.688625 183.680791 
L 341.821303 184.097073 
L 344.258649 184.342341 
L 347.000664 184.37137 
L 348.524006 184.297282 
L 348.524006 184.297282 
" clip-path="url(#p0a483a70d2)" style="fill: none; stroke: #0000ff; stroke-opacity: 0.5; stroke-width: 2; stroke-linecap: square"/>
   </g>
   <g id="patch_3">
    <path d="M 28.942188 339.84 
L 28.942188 7.2 
" style="fill: none; stroke: #000000; stroke-width: 0.8; stroke-linejoin: miter; stroke-linecap: square"/>
   </g>
   <g id="patch_4">
    <path d="M 363.742188 339.84 
L 363.742188 7.2 
" style="fill: none; stroke: #000000; stroke-width: 0.8; stroke-linejoin: miter; stroke-linecap: square"/>
   </g>
   <g id="patch_5">
    <path d="M 28.942188 339.84 
L 363.742188 339.84 
" style="fill: none; stroke: #000000; stroke-width: 0.8; stroke-linejoin: miter; stroke-linecap: square"/>
   </g>
   <g id="patch_6">
    <path d="M 28.942188 7.2 
L 363.742188 7.2 
" style="fill: none; stroke: #000000; stroke-width: 0.8; stroke-linejoin: miter; stroke-linecap: square"/>
   </g>
   <g id="legend_1">
    <g id="patch_7">
     <path d="M 292.05 44.55625 
L 356.742188 44.55625 
Q 358.742188 44.55625 358.742188 42.55625 
L 358.742188 14.2 
Q 358.742188 12.2 356.742188 12.2 
L 292.05 12.2 
Q 290.05 12.2 290.05 14.2 
L 290.05 42.55625 
Q 290.05 44.55625 292.05 44.55625 
z
" style="fill: #ffffff; opacity: 0.8; stroke: #cccccc; stroke-linejoin: miter"/>
    </g>
    <g id="line2d_17">
     <path d="M 294.05 20.298438 
L 304.05 20.298438 
L 314.05 20.298438 
" style="fill: none; stroke: #000000; stroke-width: 1.5; stroke-linecap: square"/>
    </g>
    <g id="text_15">
     <!-- Before -->
     <g transform="translate(322.05 23.798438)scale(0.1 -0.1)">
      <defs>
       <path id="DejaVuSans-42" d="M 1259 2228 
L 1259 519 
L 2272 519 
Q 2781 519 3026 730 
Q 3272 941 3272 1375 
Q 3272 1813 3026 2020 
Q 2781 2228 2272 2228 
L 1259 2228 
z
M 1259 4147 
L 1259 2741 
L 2194 2741 
Q 2656 2741 2882 2914 
Q 3109 3088 3109 3444 
Q 3109 3797 2882 3972 
Q 2656 4147 2194 4147 
L 1259 4147 
z
M 628 4666 
L 2241 4666 
Q 2963 4666 3353 4366 
Q 3744 4066 3744 3513 
Q 3744 3084 3544 2831 
Q 3344 2578 2956 2516 
Q 3422 2416 3680 2098 
Q 3938 1781 3938 1306 
Q 3938 681 3513 340 
Q 3088 0 2303 0 
L 628 0 
L 628 4666 
z
" transform="scale(0.015625)"/>
       <path id="DejaVuSans-65" d="M 3597 1894 
L 3597 1613 
L 953 1613 
Q 991 1019 1311 708 
Q 1631 397 2203 397 
Q 2534 397 2845 478 
Q 3156 559 3463 722 
L 3463 178 
Q 3153 47 2828 -22 
Q 2503 -91 2169 -91 
Q 1331 -91 842 396 
Q 353 884 353 1716 
Q 353 2575 817 3079 
Q 1281 3584 2069 3584 
Q 2775 3584 3186 3129 
Q 3597 2675 3597 1894 
z
M 3022 2063 
Q 3016 2534 2758 2815 
Q 2500 3097 2075 3097 
Q 1594 3097 1305 2825 
Q 1016 2553 972 2059 
L 3022 2063 
z
" transform="scale(0.015625)"/>
       <path id="DejaVuSans-66" d="M 2375 4863 
L 2375 4384 
L 1825 4384 
Q 1516 4384 1395 4259 
Q 1275 4134 1275 3809 
L 1275 3500 
L 2222 3500 
L 2222 3053 
L 1275 3053 
L 1275 0 
L 697 0 
L 697 3053 
L 147 3053 
L 147 3500 
L 697 3500 
L 697 3744 
Q 697 4328 969 4595 
Q 1241 4863 1831 4863 
L 2375 4863 
z
" transform="scale(0.015625)"/>
       <path id="DejaVuSans-6f" d="M 1959 3097 
Q 1497 3097 1228 2736 
Q 959 2375 959 1747 
Q 959 1119 1226 758 
Q 1494 397 1959 397 
Q 2419 397 2687 759 
Q 2956 1122 2956 1747 
Q 2956 2369 2687 2733 
Q 2419 3097 1959 3097 
z
M 1959 3584 
Q 2709 3584 3137 3096 
Q 3566 2609 3566 1747 
Q 3566 888 3137 398 
Q 2709 -91 1959 -91 
Q 1206 -91 779 398 
Q 353 888 353 1747 
Q 353 2609 779 3096 
Q 1206 3584 1959 3584 
z
" transform="scale(0.015625)"/>
       <path id="DejaVuSans-72" d="M 2631 2963 
Q 2534 3019 2420 3045 
Q 2306 3072 2169 3072 
Q 1681 3072 1420 2755 
Q 1159 2438 1159 1844 
L 1159 0 
L 581 0 
L 581 3500 
L 1159 3500 
L 1159 2956 
Q 1341 3275 1631 3429 
Q 1922 3584 2338 3584 
Q 2397 3584 2469 3576 
Q 2541 3569 2628 3553 
L 2631 2963 
z
" transform="scale(0.015625)"/>
      </defs>
      <use xlink:href="#DejaVuSans-42"/>
      <use xlink:href="#DejaVuSans-65" x="68.603516"/>
      <use xlink:href="#DejaVuSans-66" x="130.126953"/>
      <use xlink:href="#DejaVuSans-6f" x="165.332031"/>
      <use xlink:href="#DejaVuSans-72" x="226.513672"/>
      <use xlink:href="#DejaVuSans-65" x="265.376953"/>
     </g>
    </g>
    <g id="line2d_18">
     <path d="M 294.05 34.976563 
L 304.05 34.976563 
L 314.05 34.976563 
" style="fill: none; stroke: #0000ff; stroke-opacity: 0.5; stroke-width: 2; stroke-linecap: square"/>
    </g>
    <g id="text_16">
     <!-- After -->
     <g transform="translate(322.05 38.476563)scale(0.1 -0.1)">
      <defs>
       <path id="DejaVuSans-41" d="M 2188 4044 
L 1331 1722 
L 3047 1722 
L 2188 4044 
z
M 1831 4666 
L 2547 4666 
L 4325 0 
L 3669 0 
L 3244 1197 
L 1141 1197 
L 716 0 
L 50 0 
L 1831 4666 
z
" transform="scale(0.015625)"/>
       <path id="DejaVuSans-74" d="M 1172 4494 
L 1172 3500 
L 2356 3500 
L 2356 3053 
L 1172 3053 
L 1172 1153 
Q 1172 725 1289 603 
Q 1406 481 1766 481 
L 2356 481 
L 2356 0 
L 1766 0 
Q 1100 0 847 248 
Q 594 497 594 1153 
L 594 3053 
L 172 3053 
L 172 3500 
L 594 3500 
L 594 4494 
L 1172 4494 
z
" transform="scale(0.015625)"/>
      </defs>
      <use xlink:href="#DejaVuSans-41"/>
      <use xlink:href="#DejaVuSans-66" x="64.783203"/>
      <use xlink:href="#DejaVuSans-74" x="98.238281"/>
      <use xlink:href="#DejaVuSans-65" x="137.447266"/>
      <use xlink:href="#DejaVuSans-72" x="198.970703"/>
     </g>
    </g>
   </g>
  </g>
 </g>
 <defs>
  <clipPath id="p0a483a70d2">
   <rect x="28.942188" y="7.2" width="334.8" height="332.64"/>
  </clipPath>
 </defs>
</svg>
