<?xml version="1.0" encoding="utf-8" standalone="no"?>
<!DOCTYPE svg PUBLIC "-//W3C//DTD SVG 1.1//EN"
  "http://www.w3.org/Graphics/SVG/1.1/DTD/svg11.dtd">
<svg xmlns:xlink="http://www.w3.org/1999/xlink" width="394.079375pt" height="363.718125pt" viewBox="0 0 394.079375 363.718125" xmlns="http://www.w3.org/2000/svg" version="1.1">
 <metadata>
  <rdf:RDF xmlns:dc="http://purl.org/dc/elements/1.1/" xmlns:cc="http://creativecommons.org/ns#" xmlns:rdf="http://www.w3.org/1999/02/22-rdf-syntax-ns#">
   <cc:Work>
    <dc:type rdf:resource="http://purl.org/dc/dcmitype/StillImage"/>
    <dc:date>2022-05-09T16:18:24.709878</dc:date>
    <dc:format>image/svg+xml</dc:format>
    <dc:creator>
     <cc:Agent>
      <dc:title>Matplotlib v3.5.1, https://matplotlib.org/</dc:title>
     </cc:Agent>
    </dc:creator>
   </cc:Work>
  </rdf:RDF>
 </metadata>
 <defs>
  <style type="text/css">*{stroke-linejoin: round; stroke-linecap: butt}</style>
 </defs>
 <g id="figure_1">
  <g id="patch_1">
   <path d="M 0 363.718125 
L 394.079375 363.718125 
L 394.079375 0 
L 0 0 
L 0 363.718125 
z
" style="fill: none"/>
  </g>
  <g id="axes_1">
   <g id="patch_2">
    <path d="M 52.079375 339.84 
L 386.879375 339.84 
L 386.879375 7.2 
L 52.079375 7.2 
z
" style="fill: #ffffff"/>
   </g>
   <g id="matplotlib.axis_1">
    <g id="xtick_1">
     <g id="line2d_1">
      <defs>
       <path id="mb9bdb41bb6" d="M 0 0 
L 0 3.5 
" style="stroke: #000000; stroke-width: 0.8"/>
      </defs>
      <g>
       <use xlink:href="#mb9bdb41bb6" x="67.297557" y="339.84" style="stroke: #000000; stroke-width: 0.8"/>
      </g>
     </g>
     <g id="text_1">
      <!-- 0 -->
      <g transform="translate(64.116307 354.438437)scale(0.1 -0.1)">
       <defs>
        <path id="DejaVuSans-30" d="M 2034 4250 
Q 1547 4250 1301 3770 
Q 1056 3291 1056 2328 
Q 1056 1369 1301 889 
Q 1547 409 2034 409 
Q 2525 409 2770 889 
Q 3016 1369 3016 2328 
Q 3016 3291 2770 3770 
Q 2525 4250 2034 4250 
z
M 2034 4750 
Q 2819 4750 3233 4129 
Q 3647 3509 3647 2328 
Q 3647 1150 3233 529 
Q 2819 -91 2034 -91 
Q 1250 -91 836 529 
Q 422 1150 422 2328 
Q 422 3509 836 4129 
Q 1250 4750 2034 4750 
z
" transform="scale(0.015625)"/>
       </defs>
       <use xlink:href="#DejaVuSans-30"/>
      </g>
     </g>
    </g>
    <g id="xtick_2">
     <g id="line2d_2">
      <g>
       <use xlink:href="#mb9bdb41bb6" x="106.318536" y="339.84" style="stroke: #000000; stroke-width: 0.8"/>
      </g>
     </g>
     <g id="text_2">
      <!-- 5 -->
      <g transform="translate(103.137286 354.438437)scale(0.1 -0.1)">
       <defs>
        <path id="DejaVuSans-35" d="M 691 4666 
L 3169 4666 
L 3169 4134 
L 1269 4134 
L 1269 2991 
Q 1406 3038 1543 3061 
Q 1681 3084 1819 3084 
Q 2600 3084 3056 2656 
Q 3513 2228 3513 1497 
Q 3513 744 3044 326 
Q 2575 -91 1722 -91 
Q 1428 -91 1123 -41 
Q 819 9 494 109 
L 494 744 
Q 775 591 1075 516 
Q 1375 441 1709 441 
Q 2250 441 2565 725 
Q 2881 1009 2881 1497 
Q 2881 1984 2565 2268 
Q 2250 2553 1709 2553 
Q 1456 2553 1204 2497 
Q 953 2441 691 2322 
L 691 4666 
z
" transform="scale(0.015625)"/>
       </defs>
       <use xlink:href="#DejaVuSans-35"/>
      </g>
     </g>
    </g>
    <g id="xtick_3">
     <g id="line2d_3">
      <g>
       <use xlink:href="#mb9bdb41bb6" x="145.339515" y="339.84" style="stroke: #000000; stroke-width: 0.8"/>
      </g>
     </g>
     <g id="text_3">
      <!-- 10 -->
      <g transform="translate(138.977015 354.438437)scale(0.1 -0.1)">
       <defs>
        <path id="DejaVuSans-31" d="M 794 531 
L 1825 531 
L 1825 4091 
L 703 3866 
L 703 4441 
L 1819 4666 
L 2450 4666 
L 2450 531 
L 3481 531 
L 3481 0 
L 794 0 
L 794 531 
z
" transform="scale(0.015625)"/>
       </defs>
       <use xlink:href="#DejaVuSans-31"/>
       <use xlink:href="#DejaVuSans-30" x="63.623047"/>
      </g>
     </g>
    </g>
    <g id="xtick_4">
     <g id="line2d_4">
      <g>
       <use xlink:href="#mb9bdb41bb6" x="184.360494" y="339.84" style="stroke: #000000; stroke-width: 0.8"/>
      </g>
     </g>
     <g id="text_4">
      <!-- 15 -->
      <g transform="translate(177.997994 354.438437)scale(0.1 -0.1)">
       <use xlink:href="#DejaVuSans-31"/>
       <use xlink:href="#DejaVuSans-35" x="63.623047"/>
      </g>
     </g>
    </g>
    <g id="xtick_5">
     <g id="line2d_5">
      <g>
       <use xlink:href="#mb9bdb41bb6" x="223.381473" y="339.84" style="stroke: #000000; stroke-width: 0.8"/>
      </g>
     </g>
     <g id="text_5">
      <!-- 20 -->
      <g transform="translate(217.018973 354.438437)scale(0.1 -0.1)">
       <defs>
        <path id="DejaVuSans-32" d="M 1228 531 
L 3431 531 
L 3431 0 
L 469 0 
L 469 531 
Q 828 903 1448 1529 
Q 2069 2156 2228 2338 
Q 2531 2678 2651 2914 
Q 2772 3150 2772 3378 
Q 2772 3750 2511 3984 
Q 2250 4219 1831 4219 
Q 1534 4219 1204 4116 
Q 875 4013 500 3803 
L 500 4441 
Q 881 4594 1212 4672 
Q 1544 4750 1819 4750 
Q 2544 4750 2975 4387 
Q 3406 4025 3406 3419 
Q 3406 3131 3298 2873 
Q 3191 2616 2906 2266 
Q 2828 2175 2409 1742 
Q 1991 1309 1228 531 
z
" transform="scale(0.015625)"/>
       </defs>
       <use xlink:href="#DejaVuSans-32"/>
       <use xlink:href="#DejaVuSans-30" x="63.623047"/>
      </g>
     </g>
    </g>
    <g id="xtick_6">
     <g id="line2d_6">
      <g>
       <use xlink:href="#mb9bdb41bb6" x="262.402452" y="339.84" style="stroke: #000000; stroke-width: 0.8"/>
      </g>
     </g>
     <g id="text_6">
      <!-- 25 -->
      <g transform="translate(256.039952 354.438437)scale(0.1 -0.1)">
       <use xlink:href="#DejaVuSans-32"/>
       <use xlink:href="#DejaVuSans-35" x="63.623047"/>
      </g>
     </g>
    </g>
    <g id="xtick_7">
     <g id="line2d_7">
      <g>
       <use xlink:href="#mb9bdb41bb6" x="301.423431" y="339.84" style="stroke: #000000; stroke-width: 0.8"/>
      </g>
     </g>
     <g id="text_7">
      <!-- 30 -->
      <g transform="translate(295.060931 354.438437)scale(0.1 -0.1)">
       <defs>
        <path id="DejaVuSans-33" d="M 2597 2516 
Q 3050 2419 3304 2112 
Q 3559 1806 3559 1356 
Q 3559 666 3084 287 
Q 2609 -91 1734 -91 
Q 1441 -91 1130 -33 
Q 819 25 488 141 
L 488 750 
Q 750 597 1062 519 
Q 1375 441 1716 441 
Q 2309 441 2620 675 
Q 2931 909 2931 1356 
Q 2931 1769 2642 2001 
Q 2353 2234 1838 2234 
L 1294 2234 
L 1294 2753 
L 1863 2753 
Q 2328 2753 2575 2939 
Q 2822 3125 2822 3475 
Q 2822 3834 2567 4026 
Q 2313 4219 1838 4219 
Q 1578 4219 1281 4162 
Q 984 4106 628 3988 
L 628 4550 
Q 988 4650 1302 4700 
Q 1616 4750 1894 4750 
Q 2613 4750 3031 4423 
Q 3450 4097 3450 3541 
Q 3450 3153 3228 2886 
Q 3006 2619 2597 2516 
z
" transform="scale(0.015625)"/>
       </defs>
       <use xlink:href="#DejaVuSans-33"/>
       <use xlink:href="#DejaVuSans-30" x="63.623047"/>
      </g>
     </g>
    </g>
    <g id="xtick_8">
     <g id="line2d_8">
      <g>
       <use xlink:href="#mb9bdb41bb6" x="340.44441" y="339.84" style="stroke: #000000; stroke-width: 0.8"/>
      </g>
     </g>
     <g id="text_8">
      <!-- 35 -->
      <g transform="translate(334.08191 354.438437)scale(0.1 -0.1)">
       <use xlink:href="#DejaVuSans-33"/>
       <use xlink:href="#DejaVuSans-35" x="63.623047"/>
      </g>
     </g>
    </g>
    <g id="xtick_9">
     <g id="line2d_9">
      <g>
       <use xlink:href="#mb9bdb41bb6" x="379.465389" y="339.84" style="stroke: #000000; stroke-width: 0.8"/>
      </g>
     </g>
     <g id="text_9">
      <!-- 40 -->
      <g transform="translate(373.102889 354.438437)scale(0.1 -0.1)">
       <defs>
        <path id="DejaVuSans-34" d="M 2419 4116 
L 825 1625 
L 2419 1625 
L 2419 4116 
z
M 2253 4666 
L 3047 4666 
L 3047 1625 
L 3713 1625 
L 3713 1100 
L 3047 1100 
L 3047 0 
L 2419 0 
L 2419 1100 
L 313 1100 
L 313 1709 
L 2253 4666 
z
" transform="scale(0.015625)"/>
       </defs>
       <use xlink:href="#DejaVuSans-34"/>
       <use xlink:href="#DejaVuSans-30" x="63.623047"/>
      </g>
     </g>
    </g>
   </g>
   <g id="matplotlib.axis_2">
    <g id="ytick_1">
     <g id="line2d_10">
      <defs>
       <path id="m4dde7fa372" d="M 0 0 
L -3.5 0 
" style="stroke: #000000; stroke-width: 0.8"/>
      </defs>
      <g>
       <use xlink:href="#m4dde7fa372" x="52.079375" y="332.755728" style="stroke: #000000; stroke-width: 0.8"/>
      </g>
     </g>
     <g id="text_10">
      <!-- 0.0 -->
      <g transform="translate(29.17625 336.554947)scale(0.1 -0.1)">
       <defs>
        <path id="DejaVuSans-2e" d="M 684 794 
L 1344 794 
L 1344 0 
L 684 0 
L 684 794 
z
" transform="scale(0.015625)"/>
       </defs>
       <use xlink:href="#DejaVuSans-30"/>
       <use xlink:href="#DejaVuSans-2e" x="63.623047"/>
       <use xlink:href="#DejaVuSans-30" x="95.410156"/>
      </g>
     </g>
    </g>
    <g id="ytick_2">
     <g id="line2d_11">
      <g>
       <use xlink:href="#m4dde7fa372" x="52.079375" y="287.959262" style="stroke: #000000; stroke-width: 0.8"/>
      </g>
     </g>
     <g id="text_11">
      <!-- 2.5 -->
      <g transform="translate(29.17625 291.758481)scale(0.1 -0.1)">
       <use xlink:href="#DejaVuSans-32"/>
       <use xlink:href="#DejaVuSans-2e" x="63.623047"/>
       <use xlink:href="#DejaVuSans-35" x="95.410156"/>
      </g>
     </g>
    </g>
    <g id="ytick_3">
     <g id="line2d_12">
      <g>
       <use xlink:href="#m4dde7fa372" x="52.079375" y="243.162796" style="stroke: #000000; stroke-width: 0.8"/>
      </g>
     </g>
     <g id="text_12">
      <!-- 5.0 -->
      <g transform="translate(29.17625 246.962015)scale(0.1 -0.1)">
       <use xlink:href="#DejaVuSans-35"/>
       <use xlink:href="#DejaVuSans-2e" x="63.623047"/>
       <use xlink:href="#DejaVuSans-30" x="95.410156"/>
      </g>
     </g>
    </g>
    <g id="ytick_4">
     <g id="line2d_13">
      <g>
       <use xlink:href="#m4dde7fa372" x="52.079375" y="198.36633" style="stroke: #000000; stroke-width: 0.8"/>
      </g>
     </g>
     <g id="text_13">
      <!-- 7.5 -->
      <g transform="translate(29.17625 202.165549)scale(0.1 -0.1)">
       <defs>
        <path id="DejaVuSans-37" d="M 525 4666 
L 3525 4666 
L 3525 4397 
L 1831 0 
L 1172 0 
L 2766 4134 
L 525 4134 
L 525 4666 
z
" transform="scale(0.015625)"/>
       </defs>
       <use xlink:href="#DejaVuSans-37"/>
       <use xlink:href="#DejaVuSans-2e" x="63.623047"/>
       <use xlink:href="#DejaVuSans-35" x="95.410156"/>
      </g>
     </g>
    </g>
    <g id="ytick_5">
     <g id="line2d_14">
      <g>
       <use xlink:href="#m4dde7fa372" x="52.079375" y="153.569864" style="stroke: #000000; stroke-width: 0.8"/>
      </g>
     </g>
     <g id="text_14">
      <!-- 10.0 -->
      <g transform="translate(22.81375 157.369083)scale(0.1 -0.1)">
       <use xlink:href="#DejaVuSans-31"/>
       <use xlink:href="#DejaVuSans-30" x="63.623047"/>
       <use xlink:href="#DejaVuSans-2e" x="127.246094"/>
       <use xlink:href="#DejaVuSans-30" x="159.033203"/>
      </g>
     </g>
    </g>
    <g id="ytick_6">
     <g id="line2d_15">
      <g>
       <use xlink:href="#m4dde7fa372" x="52.079375" y="108.773398" style="stroke: #000000; stroke-width: 0.8"/>
      </g>
     </g>
     <g id="text_15">
      <!-- 12.5 -->
      <g transform="translate(22.81375 112.572617)scale(0.1 -0.1)">
       <use xlink:href="#DejaVuSans-31"/>
       <use xlink:href="#DejaVuSans-32" x="63.623047"/>
       <use xlink:href="#DejaVuSans-2e" x="127.246094"/>
       <use xlink:href="#DejaVuSans-35" x="159.033203"/>
      </g>
     </g>
    </g>
    <g id="ytick_7">
     <g id="line2d_16">
      <g>
       <use xlink:href="#m4dde7fa372" x="52.079375" y="63.976932" style="stroke: #000000; stroke-width: 0.8"/>
      </g>
     </g>
     <g id="text_16">
      <!-- 15.0 -->
      <g transform="translate(22.81375 67.776151)scale(0.1 -0.1)">
       <use xlink:href="#DejaVuSans-31"/>
       <use xlink:href="#DejaVuSans-35" x="63.623047"/>
       <use xlink:href="#DejaVuSans-2e" x="127.246094"/>
       <use xlink:href="#DejaVuSans-30" x="159.033203"/>
      </g>
     </g>
    </g>
    <g id="ytick_8">
     <g id="line2d_17">
      <g>
       <use xlink:href="#m4dde7fa372" x="52.079375" y="19.180466" style="stroke: #000000; stroke-width: 0.8"/>
      </g>
     </g>
     <g id="text_17">
      <!-- 17.5 -->
      <g transform="translate(22.81375 22.979684)scale(0.1 -0.1)">
       <use xlink:href="#DejaVuSans-31"/>
       <use xlink:href="#DejaVuSans-37" x="63.623047"/>
       <use xlink:href="#DejaVuSans-2e" x="127.246094"/>
       <use xlink:href="#DejaVuSans-35" x="159.033203"/>
      </g>
     </g>
    </g>
    <g id="text_18">
     <!-- Position Offset -->
     <g transform="translate(16.318125 216.900937)rotate(-90)scale(0.12 -0.12)">
      <defs>
       <path id="DejaVuSans-50" d="M 1259 4147 
L 1259 2394 
L 2053 2394 
Q 2494 2394 2734 2622 
Q 2975 2850 2975 3272 
Q 2975 3691 2734 3919 
Q 2494 4147 2053 4147 
L 1259 4147 
z
M 628 4666 
L 2053 4666 
Q 2838 4666 3239 4311 
Q 3641 3956 3641 3272 
Q 3641 2581 3239 2228 
Q 2838 1875 2053 1875 
L 1259 1875 
L 1259 0 
L 628 0 
L 628 4666 
z
" transform="scale(0.015625)"/>
       <path id="DejaVuSans-6f" d="M 1959 3097 
Q 1497 3097 1228 2736 
Q 959 2375 959 1747 
Q 959 1119 1226 758 
Q 1494 397 1959 397 
Q 2419 397 2687 759 
Q 2956 1122 2956 1747 
Q 2956 2369 2687 2733 
Q 2419 3097 1959 3097 
z
M 1959 3584 
Q 2709 3584 3137 3096 
Q 3566 2609 3566 1747 
Q 3566 888 3137 398 
Q 2709 -91 1959 -91 
Q 1206 -91 779 398 
Q 353 888 353 1747 
Q 353 2609 779 3096 
Q 1206 3584 1959 3584 
z
" transform="scale(0.015625)"/>
       <path id="DejaVuSans-73" d="M 2834 3397 
L 2834 2853 
Q 2591 2978 2328 3040 
Q 2066 3103 1784 3103 
Q 1356 3103 1142 2972 
Q 928 2841 928 2578 
Q 928 2378 1081 2264 
Q 1234 2150 1697 2047 
L 1894 2003 
Q 2506 1872 2764 1633 
Q 3022 1394 3022 966 
Q 3022 478 2636 193 
Q 2250 -91 1575 -91 
Q 1294 -91 989 -36 
Q 684 19 347 128 
L 347 722 
Q 666 556 975 473 
Q 1284 391 1588 391 
Q 1994 391 2212 530 
Q 2431 669 2431 922 
Q 2431 1156 2273 1281 
Q 2116 1406 1581 1522 
L 1381 1569 
Q 847 1681 609 1914 
Q 372 2147 372 2553 
Q 372 3047 722 3315 
Q 1072 3584 1716 3584 
Q 2034 3584 2315 3537 
Q 2597 3491 2834 3397 
z
" transform="scale(0.015625)"/>
       <path id="DejaVuSans-69" d="M 603 3500 
L 1178 3500 
L 1178 0 
L 603 0 
L 603 3500 
z
M 603 4863 
L 1178 4863 
L 1178 4134 
L 603 4134 
L 603 4863 
z
" transform="scale(0.015625)"/>
       <path id="DejaVuSans-74" d="M 1172 4494 
L 1172 3500 
L 2356 3500 
L 2356 3053 
L 1172 3053 
L 1172 1153 
Q 1172 725 1289 603 
Q 1406 481 1766 481 
L 2356 481 
L 2356 0 
L 1766 0 
Q 1100 0 847 248 
Q 594 497 594 1153 
L 594 3053 
L 172 3053 
L 172 3500 
L 594 3500 
L 594 4494 
L 1172 4494 
z
" transform="scale(0.015625)"/>
       <path id="DejaVuSans-6e" d="M 3513 2113 
L 3513 0 
L 2938 0 
L 2938 2094 
Q 2938 2591 2744 2837 
Q 2550 3084 2163 3084 
Q 1697 3084 1428 2787 
Q 1159 2491 1159 1978 
L 1159 0 
L 581 0 
L 581 3500 
L 1159 3500 
L 1159 2956 
Q 1366 3272 1645 3428 
Q 1925 3584 2291 3584 
Q 2894 3584 3203 3211 
Q 3513 2838 3513 2113 
z
" transform="scale(0.015625)"/>
       <path id="DejaVuSans-20" transform="scale(0.015625)"/>
       <path id="DejaVuSans-4f" d="M 2522 4238 
Q 1834 4238 1429 3725 
Q 1025 3213 1025 2328 
Q 1025 1447 1429 934 
Q 1834 422 2522 422 
Q 3209 422 3611 934 
Q 4013 1447 4013 2328 
Q 4013 3213 3611 3725 
Q 3209 4238 2522 4238 
z
M 2522 4750 
Q 3503 4750 4090 4092 
Q 4678 3434 4678 2328 
Q 4678 1225 4090 567 
Q 3503 -91 2522 -91 
Q 1538 -91 948 565 
Q 359 1222 359 2328 
Q 359 3434 948 4092 
Q 1538 4750 2522 4750 
z
" transform="scale(0.015625)"/>
       <path id="DejaVuSans-66" d="M 2375 4863 
L 2375 4384 
L 1825 4384 
Q 1516 4384 1395 4259 
Q 1275 4134 1275 3809 
L 1275 3500 
L 2222 3500 
L 2222 3053 
L 1275 3053 
L 1275 0 
L 697 0 
L 697 3053 
L 147 3053 
L 147 3500 
L 697 3500 
L 697 3744 
Q 697 4328 969 4595 
Q 1241 4863 1831 4863 
L 2375 4863 
z
" transform="scale(0.015625)"/>
       <path id="DejaVuSans-65" d="M 3597 1894 
L 3597 1613 
L 953 1613 
Q 991 1019 1311 708 
Q 1631 397 2203 397 
Q 2534 397 2845 478 
Q 3156 559 3463 722 
L 3463 178 
Q 3153 47 2828 -22 
Q 2503 -91 2169 -91 
Q 1331 -91 842 396 
Q 353 884 353 1716 
Q 353 2575 817 3079 
Q 1281 3584 2069 3584 
Q 2775 3584 3186 3129 
Q 3597 2675 3597 1894 
z
M 3022 2063 
Q 3016 2534 2758 2815 
Q 2500 3097 2075 3097 
Q 1594 3097 1305 2825 
Q 1016 2553 972 2059 
L 3022 2063 
z
" transform="scale(0.015625)"/>
      </defs>
      <use xlink:href="#DejaVuSans-50"/>
      <use xlink:href="#DejaVuSans-6f" x="56.677734"/>
      <use xlink:href="#DejaVuSans-73" x="117.859375"/>
      <use xlink:href="#DejaVuSans-69" x="169.958984"/>
      <use xlink:href="#DejaVuSans-74" x="197.742188"/>
      <use xlink:href="#DejaVuSans-69" x="236.951172"/>
      <use xlink:href="#DejaVuSans-6f" x="264.734375"/>
      <use xlink:href="#DejaVuSans-6e" x="325.916016"/>
      <use xlink:href="#DejaVuSans-20" x="389.294922"/>
      <use xlink:href="#DejaVuSans-4f" x="421.082031"/>
      <use xlink:href="#DejaVuSans-66" x="499.792969"/>
      <use xlink:href="#DejaVuSans-66" x="534.998047"/>
      <use xlink:href="#DejaVuSans-73" x="570.203125"/>
      <use xlink:href="#DejaVuSans-65" x="622.302734"/>
      <use xlink:href="#DejaVuSans-74" x="683.826172"/>
     </g>
    </g>
   </g>
   <g id="line2d_18">
    <path d="M 67.297557 317.631712 
L 71.199655 317.631712 
L 71.199655 311.235164 
L 79.003851 311.235164 
L 79.003851 305.598565 
L 86.808046 305.598565 
L 86.808046 312.518876 
L 94.612242 312.518876 
L 94.612242 312.860904 
L 102.416438 312.860904 
L 102.416438 310.492962 
L 110.220634 310.492962 
L 110.220634 304.048775 
L 118.02483 304.048775 
L 118.02483 307.208457 
L 125.829025 307.208457 
L 125.829025 303.275229 
L 133.633221 303.275229 
L 133.633221 293.987913 
L 141.437417 293.987913 
L 141.437417 285.086614 
L 149.241613 285.086614 
L 149.241613 265.902564 
L 157.045809 265.902564 
L 157.045809 243.527451 
L 164.850004 243.527451 
L 164.850004 213.508748 
L 172.6542 213.508748 
L 172.6542 205.999517 
L 180.458396 205.999517 
L 180.458396 183.318839 
L 188.262592 183.318839 
L 188.262592 22.32 
L 196.066788 22.32 
M 211.675179 150.99846 
L 219.479375 150.99846 
L 219.479375 228.880443 
L 227.283571 228.880443 
L 227.283571 250.791552 
L 235.087767 250.791552 
L 235.087767 253.855631 
L 242.891962 253.855631 
L 242.891962 234.134264 
L 250.696158 234.134264 
L 250.696158 226.771066 
L 258.500354 226.771066 
L 258.500354 255.175246 
L 266.30455 255.175246 
L 266.30455 277.214431 
L 274.108746 277.214431 
L 274.108746 288.321394 
L 281.912941 288.321394 
L 281.912941 284.07358 
L 289.717137 284.07358 
L 289.717137 258.817762 
L 297.521333 258.817762 
L 297.521333 164.177577 
L 305.325529 164.177577 
L 305.325529 54.190916 
L 313.129725 54.190916 
L 313.129725 210.406569 
L 320.93392 210.406569 
L 320.93392 294.084311 
L 328.738116 294.084311 
L 328.738116 313.88038 
L 336.542312 313.88038 
L 336.542312 316.561043 
L 344.346508 316.561043 
L 344.346508 320.40622 
L 352.150704 320.40622 
L 352.150704 322.817165 
L 359.954899 322.817165 
L 359.954899 322.354042 
L 367.759095 322.354042 
L 367.759095 319.075736 
L 371.661193 319.075736 
" clip-path="url(#p3f5ddb26ad)" style="fill: none; stroke: #1f77b4; stroke-opacity: 0.5; stroke-width: 2; stroke-linecap: square"/>
   </g>
   <g id="line2d_19">
    <path d="M 67.297557 320.543624 
L 71.199655 320.543624 
L 71.199655 314.207841 
L 79.003851 314.207841 
L 79.003851 311.599435 
L 86.808046 311.599435 
L 86.808046 311.729238 
L 94.612242 311.729238 
L 94.612242 311.680922 
L 102.416438 311.680922 
L 102.416438 309.756283 
L 110.220634 309.756283 
L 110.220634 307.062322 
L 118.02483 307.062322 
L 118.02483 304.324641 
L 125.829025 304.324641 
L 125.829025 299.324104 
L 133.633221 299.324104 
L 133.633221 291.311189 
L 141.437417 291.311189 
L 141.437417 280.277667 
L 149.241613 280.277667 
L 149.241613 263.552153 
L 157.045809 263.552153 
M 250.696158 242.264802 
L 258.500354 242.264802 
L 258.500354 251.546578 
L 266.30455 251.546578 
L 266.30455 263.392936 
L 274.108746 263.392936 
L 274.108746 272.479925 
L 281.912941 272.479925 
L 281.912941 271.398476 
L 289.717137 271.398476 
L 289.717137 251.093336 
L 297.521333 251.093336 
L 297.521333 216.223298 
L 305.325529 216.223298 
L 305.325529 203.019561 
L 313.129725 203.019561 
L 313.129725 236.942708 
L 320.93392 236.942708 
L 320.93392 282.139003 
L 328.738116 282.139003 
L 328.738116 307.349557 
L 336.542312 307.349557 
L 336.542312 316.544228 
L 344.346508 316.544228 
L 344.346508 319.768012 
L 352.150704 319.768012 
L 352.150704 321.326834 
L 359.954899 321.326834 
L 359.954899 322.318397 
L 367.759095 322.318397 
L 367.759095 324.72 
L 371.661193 324.72 
" clip-path="url(#p3f5ddb26ad)" style="fill: none; stroke: #ff7f0e; stroke-opacity: 0.5; stroke-width: 2; stroke-linecap: square"/>
    <defs>
     <path id="ma2835ad554" d="M -3 3 
L 3 3 
L 3 -3 
L -3 -3 
z
" style="stroke: #ff7f0e; stroke-opacity: 0.5; stroke-linejoin: miter"/>
    </defs>
    <g clip-path="url(#p3f5ddb26ad)">
     <use xlink:href="#ma2835ad554" x="67.297557" y="320.543624" style="fill: #ff7f0e; fill-opacity: 0.5; stroke: #ff7f0e; stroke-opacity: 0.5; stroke-linejoin: miter"/>
     <use xlink:href="#ma2835ad554" x="75.101753" y="314.207841" style="fill: #ff7f0e; fill-opacity: 0.5; stroke: #ff7f0e; stroke-opacity: 0.5; stroke-linejoin: miter"/>
     <use xlink:href="#ma2835ad554" x="82.905948" y="311.599435" style="fill: #ff7f0e; fill-opacity: 0.5; stroke: #ff7f0e; stroke-opacity: 0.5; stroke-linejoin: miter"/>
     <use xlink:href="#ma2835ad554" x="90.710144" y="311.729238" style="fill: #ff7f0e; fill-opacity: 0.5; stroke: #ff7f0e; stroke-opacity: 0.5; stroke-linejoin: miter"/>
     <use xlink:href="#ma2835ad554" x="98.51434" y="311.680922" style="fill: #ff7f0e; fill-opacity: 0.5; stroke: #ff7f0e; stroke-opacity: 0.5; stroke-linejoin: miter"/>
     <use xlink:href="#ma2835ad554" x="106.318536" y="309.756283" style="fill: #ff7f0e; fill-opacity: 0.5; stroke: #ff7f0e; stroke-opacity: 0.5; stroke-linejoin: miter"/>
     <use xlink:href="#ma2835ad554" x="114.122732" y="307.062322" style="fill: #ff7f0e; fill-opacity: 0.5; stroke: #ff7f0e; stroke-opacity: 0.5; stroke-linejoin: miter"/>
     <use xlink:href="#ma2835ad554" x="121.926927" y="304.324641" style="fill: #ff7f0e; fill-opacity: 0.5; stroke: #ff7f0e; stroke-opacity: 0.5; stroke-linejoin: miter"/>
     <use xlink:href="#ma2835ad554" x="129.731123" y="299.324104" style="fill: #ff7f0e; fill-opacity: 0.5; stroke: #ff7f0e; stroke-opacity: 0.5; stroke-linejoin: miter"/>
     <use xlink:href="#ma2835ad554" x="137.535319" y="291.311189" style="fill: #ff7f0e; fill-opacity: 0.5; stroke: #ff7f0e; stroke-opacity: 0.5; stroke-linejoin: miter"/>
     <use xlink:href="#ma2835ad554" x="145.339515" y="280.277667" style="fill: #ff7f0e; fill-opacity: 0.5; stroke: #ff7f0e; stroke-opacity: 0.5; stroke-linejoin: miter"/>
     <use xlink:href="#ma2835ad554" x="153.143711" y="263.552153" style="fill: #ff7f0e; fill-opacity: 0.5; stroke: #ff7f0e; stroke-opacity: 0.5; stroke-linejoin: miter"/>
     <use xlink:href="#ma2835ad554" x="254.598256" y="242.264802" style="fill: #ff7f0e; fill-opacity: 0.5; stroke: #ff7f0e; stroke-opacity: 0.5; stroke-linejoin: miter"/>
     <use xlink:href="#ma2835ad554" x="262.402452" y="251.546578" style="fill: #ff7f0e; fill-opacity: 0.5; stroke: #ff7f0e; stroke-opacity: 0.5; stroke-linejoin: miter"/>
     <use xlink:href="#ma2835ad554" x="270.206648" y="263.392936" style="fill: #ff7f0e; fill-opacity: 0.5; stroke: #ff7f0e; stroke-opacity: 0.5; stroke-linejoin: miter"/>
     <use xlink:href="#ma2835ad554" x="278.010844" y="272.479925" style="fill: #ff7f0e; fill-opacity: 0.5; stroke: #ff7f0e; stroke-opacity: 0.5; stroke-linejoin: miter"/>
     <use xlink:href="#ma2835ad554" x="285.815039" y="271.398476" style="fill: #ff7f0e; fill-opacity: 0.5; stroke: #ff7f0e; stroke-opacity: 0.5; stroke-linejoin: miter"/>
     <use xlink:href="#ma2835ad554" x="293.619235" y="251.093336" style="fill: #ff7f0e; fill-opacity: 0.5; stroke: #ff7f0e; stroke-opacity: 0.5; stroke-linejoin: miter"/>
     <use xlink:href="#ma2835ad554" x="301.423431" y="216.223298" style="fill: #ff7f0e; fill-opacity: 0.5; stroke: #ff7f0e; stroke-opacity: 0.5; stroke-linejoin: miter"/>
     <use xlink:href="#ma2835ad554" x="309.227627" y="203.019561" style="fill: #ff7f0e; fill-opacity: 0.5; stroke: #ff7f0e; stroke-opacity: 0.5; stroke-linejoin: miter"/>
     <use xlink:href="#ma2835ad554" x="317.031823" y="236.942708" style="fill: #ff7f0e; fill-opacity: 0.5; stroke: #ff7f0e; stroke-opacity: 0.5; stroke-linejoin: miter"/>
     <use xlink:href="#ma2835ad554" x="324.836018" y="282.139003" style="fill: #ff7f0e; fill-opacity: 0.5; stroke: #ff7f0e; stroke-opacity: 0.5; stroke-linejoin: miter"/>
     <use xlink:href="#ma2835ad554" x="332.640214" y="307.349557" style="fill: #ff7f0e; fill-opacity: 0.5; stroke: #ff7f0e; stroke-opacity: 0.5; stroke-linejoin: miter"/>
     <use xlink:href="#ma2835ad554" x="340.44441" y="316.544228" style="fill: #ff7f0e; fill-opacity: 0.5; stroke: #ff7f0e; stroke-opacity: 0.5; stroke-linejoin: miter"/>
     <use xlink:href="#ma2835ad554" x="348.248606" y="319.768012" style="fill: #ff7f0e; fill-opacity: 0.5; stroke: #ff7f0e; stroke-opacity: 0.5; stroke-linejoin: miter"/>
     <use xlink:href="#ma2835ad554" x="356.052802" y="321.326834" style="fill: #ff7f0e; fill-opacity: 0.5; stroke: #ff7f0e; stroke-opacity: 0.5; stroke-linejoin: miter"/>
     <use xlink:href="#ma2835ad554" x="363.856997" y="322.318397" style="fill: #ff7f0e; fill-opacity: 0.5; stroke: #ff7f0e; stroke-opacity: 0.5; stroke-linejoin: miter"/>
     <use xlink:href="#ma2835ad554" x="371.661193" y="324.72" style="fill: #ff7f0e; fill-opacity: 0.5; stroke: #ff7f0e; stroke-opacity: 0.5; stroke-linejoin: miter"/>
    </g>
   </g>
   <g id="line2d_20">
    <path d="M 67.297557 320.543624 
L 71.199655 320.543624 
L 71.199655 314.207841 
L 79.003851 314.207841 
L 79.003851 311.599435 
L 86.808046 311.599435 
L 86.808046 311.729238 
L 94.612242 311.729238 
L 94.612242 311.680922 
L 102.416438 311.680922 
L 102.416438 309.756283 
L 110.220634 309.756283 
L 110.220634 307.062322 
L 118.02483 307.062322 
L 118.02483 304.324641 
L 125.829025 304.324641 
L 125.829025 299.324104 
L 133.633221 299.324104 
L 133.633221 291.311189 
L 141.437417 291.311189 
L 141.437417 280.277667 
L 149.241613 280.277667 
L 149.241613 263.552153 
L 157.045809 263.552153 
L 157.045809 240.855899 
L 164.850004 240.855899 
L 164.850004 216.955937 
L 172.6542 216.955937 
L 172.6542 196.841305 
L 180.458396 196.841305 
L 180.458396 186.969152 
L 188.262592 186.969152 
L 188.262592 206.980849 
L 196.066788 206.980849 
L 196.066788 245.643807 
L 203.870983 245.643807 
L 203.870983 244.838479 
L 211.675179 244.838479 
L 211.675179 213.503184 
L 219.479375 213.503184 
L 219.479375 213.421072 
L 227.283571 213.421072 
L 227.283571 233.178199 
L 235.087767 233.178199 
L 235.087767 242.015107 
L 242.891962 242.015107 
L 242.891962 240.890888 
L 250.696158 240.890888 
L 250.696158 242.264802 
L 258.500354 242.264802 
L 258.500354 251.546578 
L 266.30455 251.546578 
L 266.30455 263.392936 
L 274.108746 263.392936 
L 274.108746 272.479925 
L 281.912941 272.479925 
L 281.912941 271.398476 
L 289.717137 271.398476 
L 289.717137 251.093336 
L 297.521333 251.093336 
L 297.521333 216.223298 
L 305.325529 216.223298 
L 305.325529 203.019561 
L 313.129725 203.019561 
L 313.129725 236.942708 
L 320.93392 236.942708 
L 320.93392 282.139003 
L 328.738116 282.139003 
L 328.738116 307.349557 
L 336.542312 307.349557 
L 336.542312 316.544228 
L 344.346508 316.544228 
L 344.346508 319.768012 
L 352.150704 319.768012 
L 352.150704 321.326834 
L 359.954899 321.326834 
L 359.954899 322.318397 
L 367.759095 322.318397 
L 367.759095 324.72 
L 371.661193 324.72 
" clip-path="url(#p3f5ddb26ad)" style="fill: none; stroke: #2ca02c; stroke-opacity: 0.5; stroke-width: 2; stroke-linecap: square"/>
    <defs>
     <path id="m9a9d2bd2ef" d="M -3 3 
L 3 3 
L 3 -3 
L -3 -3 
z
" style="stroke: #2ca02c; stroke-opacity: 0.5; stroke-linejoin: miter"/>
    </defs>
    <g clip-path="url(#p3f5ddb26ad)">
     <use xlink:href="#m9a9d2bd2ef" x="67.297557" y="320.543624" style="fill: #2ca02c; fill-opacity: 0.5; stroke: #2ca02c; stroke-opacity: 0.5; stroke-linejoin: miter"/>
     <use xlink:href="#m9a9d2bd2ef" x="75.101753" y="314.207841" style="fill: #2ca02c; fill-opacity: 0.5; stroke: #2ca02c; stroke-opacity: 0.5; stroke-linejoin: miter"/>
     <use xlink:href="#m9a9d2bd2ef" x="82.905948" y="311.599435" style="fill: #2ca02c; fill-opacity: 0.5; stroke: #2ca02c; stroke-opacity: 0.5; stroke-linejoin: miter"/>
     <use xlink:href="#m9a9d2bd2ef" x="90.710144" y="311.729238" style="fill: #2ca02c; fill-opacity: 0.5; stroke: #2ca02c; stroke-opacity: 0.5; stroke-linejoin: miter"/>
     <use xlink:href="#m9a9d2bd2ef" x="98.51434" y="311.680922" style="fill: #2ca02c; fill-opacity: 0.5; stroke: #2ca02c; stroke-opacity: 0.5; stroke-linejoin: miter"/>
     <use xlink:href="#m9a9d2bd2ef" x="106.318536" y="309.756283" style="fill: #2ca02c; fill-opacity: 0.5; stroke: #2ca02c; stroke-opacity: 0.5; stroke-linejoin: miter"/>
     <use xlink:href="#m9a9d2bd2ef" x="114.122732" y="307.062322" style="fill: #2ca02c; fill-opacity: 0.5; stroke: #2ca02c; stroke-opacity: 0.5; stroke-linejoin: miter"/>
     <use xlink:href="#m9a9d2bd2ef" x="121.926927" y="304.324641" style="fill: #2ca02c; fill-opacity: 0.5; stroke: #2ca02c; stroke-opacity: 0.5; stroke-linejoin: miter"/>
     <use xlink:href="#m9a9d2bd2ef" x="129.731123" y="299.324104" style="fill: #2ca02c; fill-opacity: 0.5; stroke: #2ca02c; stroke-opacity: 0.5; stroke-linejoin: miter"/>
     <use xlink:href="#m9a9d2bd2ef" x="137.535319" y="291.311189" style="fill: #2ca02c; fill-opacity: 0.5; stroke: #2ca02c; stroke-opacity: 0.5; stroke-linejoin: miter"/>
     <use xlink:href="#m9a9d2bd2ef" x="145.339515" y="280.277667" style="fill: #2ca02c; fill-opacity: 0.5; stroke: #2ca02c; stroke-opacity: 0.5; stroke-linejoin: miter"/>
     <use xlink:href="#m9a9d2bd2ef" x="153.143711" y="263.552153" style="fill: #2ca02c; fill-opacity: 0.5; stroke: #2ca02c; stroke-opacity: 0.5; stroke-linejoin: miter"/>
     <use xlink:href="#m9a9d2bd2ef" x="160.947906" y="240.855899" style="fill: #2ca02c; fill-opacity: 0.5; stroke: #2ca02c; stroke-opacity: 0.5; stroke-linejoin: miter"/>
     <use xlink:href="#m9a9d2bd2ef" x="168.752102" y="216.955937" style="fill: #2ca02c; fill-opacity: 0.5; stroke: #2ca02c; stroke-opacity: 0.5; stroke-linejoin: miter"/>
     <use xlink:href="#m9a9d2bd2ef" x="176.556298" y="196.841305" style="fill: #2ca02c; fill-opacity: 0.5; stroke: #2ca02c; stroke-opacity: 0.5; stroke-linejoin: miter"/>
     <use xlink:href="#m9a9d2bd2ef" x="184.360494" y="186.969152" style="fill: #2ca02c; fill-opacity: 0.5; stroke: #2ca02c; stroke-opacity: 0.5; stroke-linejoin: miter"/>
     <use xlink:href="#m9a9d2bd2ef" x="192.16469" y="206.980849" style="fill: #2ca02c; fill-opacity: 0.5; stroke: #2ca02c; stroke-opacity: 0.5; stroke-linejoin: miter"/>
     <use xlink:href="#m9a9d2bd2ef" x="199.968885" y="245.643807" style="fill: #2ca02c; fill-opacity: 0.5; stroke: #2ca02c; stroke-opacity: 0.5; stroke-linejoin: miter"/>
     <use xlink:href="#m9a9d2bd2ef" x="207.773081" y="244.838479" style="fill: #2ca02c; fill-opacity: 0.5; stroke: #2ca02c; stroke-opacity: 0.5; stroke-linejoin: miter"/>
     <use xlink:href="#m9a9d2bd2ef" x="215.577277" y="213.503184" style="fill: #2ca02c; fill-opacity: 0.5; stroke: #2ca02c; stroke-opacity: 0.5; stroke-linejoin: miter"/>
     <use xlink:href="#m9a9d2bd2ef" x="223.381473" y="213.421072" style="fill: #2ca02c; fill-opacity: 0.5; stroke: #2ca02c; stroke-opacity: 0.5; stroke-linejoin: miter"/>
     <use xlink:href="#m9a9d2bd2ef" x="231.185669" y="233.178199" style="fill: #2ca02c; fill-opacity: 0.5; stroke: #2ca02c; stroke-opacity: 0.5; stroke-linejoin: miter"/>
     <use xlink:href="#m9a9d2bd2ef" x="238.989865" y="242.015107" style="fill: #2ca02c; fill-opacity: 0.5; stroke: #2ca02c; stroke-opacity: 0.5; stroke-linejoin: miter"/>
     <use xlink:href="#m9a9d2bd2ef" x="246.79406" y="240.890888" style="fill: #2ca02c; fill-opacity: 0.5; stroke: #2ca02c; stroke-opacity: 0.5; stroke-linejoin: miter"/>
     <use xlink:href="#m9a9d2bd2ef" x="254.598256" y="242.264802" style="fill: #2ca02c; fill-opacity: 0.5; stroke: #2ca02c; stroke-opacity: 0.5; stroke-linejoin: miter"/>
     <use xlink:href="#m9a9d2bd2ef" x="262.402452" y="251.546578" style="fill: #2ca02c; fill-opacity: 0.5; stroke: #2ca02c; stroke-opacity: 0.5; stroke-linejoin: miter"/>
     <use xlink:href="#m9a9d2bd2ef" x="270.206648" y="263.392936" style="fill: #2ca02c; fill-opacity: 0.5; stroke: #2ca02c; stroke-opacity: 0.5; stroke-linejoin: miter"/>
     <use xlink:href="#m9a9d2bd2ef" x="278.010844" y="272.479925" style="fill: #2ca02c; fill-opacity: 0.5; stroke: #2ca02c; stroke-opacity: 0.5; stroke-linejoin: miter"/>
     <use xlink:href="#m9a9d2bd2ef" x="285.815039" y="271.398476" style="fill: #2ca02c; fill-opacity: 0.5; stroke: #2ca02c; stroke-opacity: 0.5; stroke-linejoin: miter"/>
     <use xlink:href="#m9a9d2bd2ef" x="293.619235" y="251.093336" style="fill: #2ca02c; fill-opacity: 0.5; stroke: #2ca02c; stroke-opacity: 0.5; stroke-linejoin: miter"/>
     <use xlink:href="#m9a9d2bd2ef" x="301.423431" y="216.223298" style="fill: #2ca02c; fill-opacity: 0.5; stroke: #2ca02c; stroke-opacity: 0.5; stroke-linejoin: miter"/>
     <use xlink:href="#m9a9d2bd2ef" x="309.227627" y="203.019561" style="fill: #2ca02c; fill-opacity: 0.5; stroke: #2ca02c; stroke-opacity: 0.5; stroke-linejoin: miter"/>
     <use xlink:href="#m9a9d2bd2ef" x="317.031823" y="236.942708" style="fill: #2ca02c; fill-opacity: 0.5; stroke: #2ca02c; stroke-opacity: 0.5; stroke-linejoin: miter"/>
     <use xlink:href="#m9a9d2bd2ef" x="324.836018" y="282.139003" style="fill: #2ca02c; fill-opacity: 0.5; stroke: #2ca02c; stroke-opacity: 0.5; stroke-linejoin: miter"/>
     <use xlink:href="#m9a9d2bd2ef" x="332.640214" y="307.349557" style="fill: #2ca02c; fill-opacity: 0.5; stroke: #2ca02c; stroke-opacity: 0.5; stroke-linejoin: miter"/>
     <use xlink:href="#m9a9d2bd2ef" x="340.44441" y="316.544228" style="fill: #2ca02c; fill-opacity: 0.5; stroke: #2ca02c; stroke-opacity: 0.5; stroke-linejoin: miter"/>
     <use xlink:href="#m9a9d2bd2ef" x="348.248606" y="319.768012" style="fill: #2ca02c; fill-opacity: 0.5; stroke: #2ca02c; stroke-opacity: 0.5; stroke-linejoin: miter"/>
     <use xlink:href="#m9a9d2bd2ef" x="356.052802" y="321.326834" style="fill: #2ca02c; fill-opacity: 0.5; stroke: #2ca02c; stroke-opacity: 0.5; stroke-linejoin: miter"/>
     <use xlink:href="#m9a9d2bd2ef" x="363.856997" y="322.318397" style="fill: #2ca02c; fill-opacity: 0.5; stroke: #2ca02c; stroke-opacity: 0.5; stroke-linejoin: miter"/>
     <use xlink:href="#m9a9d2bd2ef" x="371.661193" y="324.72" style="fill: #2ca02c; fill-opacity: 0.5; stroke: #2ca02c; stroke-opacity: 0.5; stroke-linejoin: miter"/>
    </g>
   </g>
   <g id="line2d_21">
    <path d="M 67.297557 320.543551 
L 71.199655 320.543551 
L 71.199655 314.20773 
L 79.003851 314.20773 
L 79.003851 311.599309 
L 86.808046 311.599309 
L 86.808046 311.729113 
L 94.612242 311.729113 
L 94.612242 311.680796 
L 102.416438 311.680796 
L 102.416438 309.756146 
L 110.220634 309.756146 
L 110.220634 307.062169 
L 118.02483 307.062169 
L 118.02483 304.324471 
L 125.829025 304.324471 
L 125.829025 299.323904 
L 133.633221 299.323904 
L 133.633221 291.310942 
L 141.437417 291.310942 
L 141.437417 280.277354 
L 149.241613 280.277354 
L 149.241613 263.55174 
L 157.045809 263.55174 
L 157.045809 240.851655 
L 164.850004 240.851655 
L 164.850004 216.789936 
L 172.6542 216.789936 
L 172.6542 194.148828 
L 180.458396 194.148828 
L 180.458396 168.285756 
L 188.262592 168.285756 
L 188.262592 145.820291 
L 196.066788 145.820291 
L 196.066788 149.676139 
L 203.870983 149.676139 
L 203.870983 164.105748 
L 211.675179 164.105748 
L 211.675179 177.53662 
L 219.479375 177.53662 
L 219.479375 206.464956 
L 227.283571 206.464956 
L 227.283571 232.540727 
L 235.087767 232.540727 
L 235.087767 241.982512 
L 242.891962 241.982512 
L 242.891962 240.889621 
L 250.696158 240.889621 
L 250.696158 242.264262 
L 258.500354 242.264262 
L 258.500354 251.546094 
L 266.30455 251.546094 
L 266.30455 263.392522 
L 274.108746 263.392522 
L 274.108746 272.479566 
L 281.912941 272.479566 
L 281.912941 271.398111 
L 289.717137 271.398111 
L 289.717137 251.092849 
L 297.521333 251.092849 
L 297.521333 216.222603 
L 305.325529 216.222603 
L 305.325529 203.018788 
L 313.129725 203.018788 
L 313.129725 236.942137 
L 320.93392 236.942137 
L 320.93392 282.138701 
L 328.738116 282.138701 
L 328.738116 307.349406 
L 336.542312 307.349406 
L 336.542312 316.544131 
L 344.346508 316.544131 
L 344.346508 319.767935 
L 352.150704 319.767935 
L 352.150704 321.326766 
L 359.954899 321.326766 
L 359.954899 322.318334 
L 367.759095 322.318334 
L 367.759095 324.719952 
L 371.661193 324.719952 
" clip-path="url(#p3f5ddb26ad)" style="fill: none; stroke: #d62728; stroke-opacity: 0.5; stroke-width: 2; stroke-linecap: square"/>
   </g>
   <g id="patch_3">
    <path d="M 52.079375 339.84 
L 52.079375 7.2 
" style="fill: none; stroke: #000000; stroke-width: 0.8; stroke-linejoin: miter; stroke-linecap: square"/>
   </g>
   <g id="patch_4">
    <path d="M 386.879375 339.84 
L 386.879375 7.2 
" style="fill: none; stroke: #000000; stroke-width: 0.8; stroke-linejoin: miter; stroke-linecap: square"/>
   </g>
   <g id="patch_5">
    <path d="M 52.079375 339.84 
L 386.879375 339.84 
" style="fill: none; stroke: #000000; stroke-width: 0.8; stroke-linejoin: miter; stroke-linecap: square"/>
   </g>
   <g id="patch_6">
    <path d="M 52.079375 7.2 
L 386.879375 7.2 
" style="fill: none; stroke: #000000; stroke-width: 0.8; stroke-linejoin: miter; stroke-linecap: square"/>
   </g>
   <g id="legend_1">
    <g id="patch_7">
     <path d="M 59.079375 73.9125 
L 172.2075 73.9125 
Q 174.2075 73.9125 174.2075 71.9125 
L 174.2075 14.2 
Q 174.2075 12.2 172.2075 12.2 
L 59.079375 12.2 
Q 57.079375 12.2 57.079375 14.2 
L 57.079375 71.9125 
Q 57.079375 73.9125 59.079375 73.9125 
z
" style="fill: #ffffff; opacity: 0.8; stroke: #cccccc; stroke-linejoin: miter"/>
    </g>
    <g id="line2d_22">
     <path d="M 61.079375 20.298437 
L 66.079375 20.298437 
L 66.079375 20.298437 
L 76.079375 20.298437 
L 76.079375 20.298437 
L 81.079375 20.298437 
" style="fill: none; stroke: #1f77b4; stroke-opacity: 0.5; stroke-width: 2; stroke-linecap: square"/>
    </g>
    <g id="text_19">
     <!-- input -->
     <g transform="translate(89.079375 23.798437)scale(0.1 -0.1)">
      <defs>
       <path id="DejaVuSans-70" d="M 1159 525 
L 1159 -1331 
L 581 -1331 
L 581 3500 
L 1159 3500 
L 1159 2969 
Q 1341 3281 1617 3432 
Q 1894 3584 2278 3584 
Q 2916 3584 3314 3078 
Q 3713 2572 3713 1747 
Q 3713 922 3314 415 
Q 2916 -91 2278 -91 
Q 1894 -91 1617 61 
Q 1341 213 1159 525 
z
M 3116 1747 
Q 3116 2381 2855 2742 
Q 2594 3103 2138 3103 
Q 1681 3103 1420 2742 
Q 1159 2381 1159 1747 
Q 1159 1113 1420 752 
Q 1681 391 2138 391 
Q 2594 391 2855 752 
Q 3116 1113 3116 1747 
z
" transform="scale(0.015625)"/>
       <path id="DejaVuSans-75" d="M 544 1381 
L 544 3500 
L 1119 3500 
L 1119 1403 
Q 1119 906 1312 657 
Q 1506 409 1894 409 
Q 2359 409 2629 706 
Q 2900 1003 2900 1516 
L 2900 3500 
L 3475 3500 
L 3475 0 
L 2900 0 
L 2900 538 
Q 2691 219 2414 64 
Q 2138 -91 1772 -91 
Q 1169 -91 856 284 
Q 544 659 544 1381 
z
M 1991 3584 
L 1991 3584 
z
" transform="scale(0.015625)"/>
      </defs>
      <use xlink:href="#DejaVuSans-69"/>
      <use xlink:href="#DejaVuSans-6e" x="27.783203"/>
      <use xlink:href="#DejaVuSans-70" x="91.162109"/>
      <use xlink:href="#DejaVuSans-75" x="154.638672"/>
      <use xlink:href="#DejaVuSans-74" x="218.017578"/>
     </g>
    </g>
    <g id="line2d_23">
     <path d="M 61.079375 34.976562 
L 66.079375 34.976562 
L 66.079375 34.976562 
L 76.079375 34.976562 
L 76.079375 34.976562 
L 81.079375 34.976562 
" style="fill: none; stroke: #ff7f0e; stroke-opacity: 0.5; stroke-width: 2; stroke-linecap: square"/>
     <g>
      <use xlink:href="#ma2835ad554" x="71.079375" y="34.976562" style="fill: #ff7f0e; fill-opacity: 0.5; stroke: #ff7f0e; stroke-opacity: 0.5; stroke-linejoin: miter"/>
     </g>
    </g>
    <g id="text_20">
     <!-- scipy -->
     <g transform="translate(89.079375 38.476562)scale(0.1 -0.1)">
      <defs>
       <path id="DejaVuSans-63" d="M 3122 3366 
L 3122 2828 
Q 2878 2963 2633 3030 
Q 2388 3097 2138 3097 
Q 1578 3097 1268 2742 
Q 959 2388 959 1747 
Q 959 1106 1268 751 
Q 1578 397 2138 397 
Q 2388 397 2633 464 
Q 2878 531 3122 666 
L 3122 134 
Q 2881 22 2623 -34 
Q 2366 -91 2075 -91 
Q 1284 -91 818 406 
Q 353 903 353 1747 
Q 353 2603 823 3093 
Q 1294 3584 2113 3584 
Q 2378 3584 2631 3529 
Q 2884 3475 3122 3366 
z
" transform="scale(0.015625)"/>
       <path id="DejaVuSans-79" d="M 2059 -325 
Q 1816 -950 1584 -1140 
Q 1353 -1331 966 -1331 
L 506 -1331 
L 506 -850 
L 844 -850 
Q 1081 -850 1212 -737 
Q 1344 -625 1503 -206 
L 1606 56 
L 191 3500 
L 800 3500 
L 1894 763 
L 2988 3500 
L 3597 3500 
L 2059 -325 
z
" transform="scale(0.015625)"/>
      </defs>
      <use xlink:href="#DejaVuSans-73"/>
      <use xlink:href="#DejaVuSans-63" x="52.099609"/>
      <use xlink:href="#DejaVuSans-69" x="107.080078"/>
      <use xlink:href="#DejaVuSans-70" x="134.863281"/>
      <use xlink:href="#DejaVuSans-79" x="198.339844"/>
     </g>
    </g>
    <g id="line2d_24">
     <path d="M 61.079375 49.654687 
L 66.079375 49.654687 
L 66.079375 49.654687 
L 76.079375 49.654687 
L 76.079375 49.654687 
L 81.079375 49.654687 
" style="fill: none; stroke: #2ca02c; stroke-opacity: 0.5; stroke-width: 2; stroke-linecap: square"/>
     <g>
      <use xlink:href="#m9a9d2bd2ef" x="71.079375" y="49.654687" style="fill: #2ca02c; fill-opacity: 0.5; stroke: #2ca02c; stroke-opacity: 0.5; stroke-linejoin: miter"/>
     </g>
    </g>
    <g id="text_21">
     <!-- scipy nan-&gt;zero -->
     <g transform="translate(89.079375 53.154687)scale(0.1 -0.1)">
      <defs>
       <path id="DejaVuSans-61" d="M 2194 1759 
Q 1497 1759 1228 1600 
Q 959 1441 959 1056 
Q 959 750 1161 570 
Q 1363 391 1709 391 
Q 2188 391 2477 730 
Q 2766 1069 2766 1631 
L 2766 1759 
L 2194 1759 
z
M 3341 1997 
L 3341 0 
L 2766 0 
L 2766 531 
Q 2569 213 2275 61 
Q 1981 -91 1556 -91 
Q 1019 -91 701 211 
Q 384 513 384 1019 
Q 384 1609 779 1909 
Q 1175 2209 1959 2209 
L 2766 2209 
L 2766 2266 
Q 2766 2663 2505 2880 
Q 2244 3097 1772 3097 
Q 1472 3097 1187 3025 
Q 903 2953 641 2809 
L 641 3341 
Q 956 3463 1253 3523 
Q 1550 3584 1831 3584 
Q 2591 3584 2966 3190 
Q 3341 2797 3341 1997 
z
" transform="scale(0.015625)"/>
       <path id="DejaVuSans-2d" d="M 313 2009 
L 1997 2009 
L 1997 1497 
L 313 1497 
L 313 2009 
z
" transform="scale(0.015625)"/>
       <path id="DejaVuSans-3e" d="M 678 3150 
L 678 3719 
L 4684 2266 
L 4684 1747 
L 678 294 
L 678 863 
L 3897 2003 
L 678 3150 
z
" transform="scale(0.015625)"/>
       <path id="DejaVuSans-7a" d="M 353 3500 
L 3084 3500 
L 3084 2975 
L 922 459 
L 3084 459 
L 3084 0 
L 275 0 
L 275 525 
L 2438 3041 
L 353 3041 
L 353 3500 
z
" transform="scale(0.015625)"/>
       <path id="DejaVuSans-72" d="M 2631 2963 
Q 2534 3019 2420 3045 
Q 2306 3072 2169 3072 
Q 1681 3072 1420 2755 
Q 1159 2438 1159 1844 
L 1159 0 
L 581 0 
L 581 3500 
L 1159 3500 
L 1159 2956 
Q 1341 3275 1631 3429 
Q 1922 3584 2338 3584 
Q 2397 3584 2469 3576 
Q 2541 3569 2628 3553 
L 2631 2963 
z
" transform="scale(0.015625)"/>
      </defs>
      <use xlink:href="#DejaVuSans-73"/>
      <use xlink:href="#DejaVuSans-63" x="52.099609"/>
      <use xlink:href="#DejaVuSans-69" x="107.080078"/>
      <use xlink:href="#DejaVuSans-70" x="134.863281"/>
      <use xlink:href="#DejaVuSans-79" x="198.339844"/>
      <use xlink:href="#DejaVuSans-20" x="257.519531"/>
      <use xlink:href="#DejaVuSans-6e" x="289.306641"/>
      <use xlink:href="#DejaVuSans-61" x="352.685547"/>
      <use xlink:href="#DejaVuSans-6e" x="413.964844"/>
      <use xlink:href="#DejaVuSans-2d" x="477.34375"/>
      <use xlink:href="#DejaVuSans-3e" x="513.427734"/>
      <use xlink:href="#DejaVuSans-7a" x="597.216797"/>
      <use xlink:href="#DejaVuSans-65" x="649.707031"/>
      <use xlink:href="#DejaVuSans-72" x="711.230469"/>
      <use xlink:href="#DejaVuSans-6f" x="750.09375"/>
     </g>
    </g>
    <g id="line2d_25">
     <path d="M 61.079375 64.332812 
L 66.079375 64.332812 
L 66.079375 64.332812 
L 76.079375 64.332812 
L 76.079375 64.332812 
L 81.079375 64.332812 
" style="fill: none; stroke: #d62728; stroke-opacity: 0.5; stroke-width: 2; stroke-linecap: square"/>
    </g>
    <g id="text_22">
     <!-- astropy -->
     <g transform="translate(89.079375 67.832812)scale(0.1 -0.1)">
      <use xlink:href="#DejaVuSans-61"/>
      <use xlink:href="#DejaVuSans-73" x="61.279297"/>
      <use xlink:href="#DejaVuSans-74" x="113.378906"/>
      <use xlink:href="#DejaVuSans-72" x="152.587891"/>
      <use xlink:href="#DejaVuSans-6f" x="191.451172"/>
      <use xlink:href="#DejaVuSans-70" x="252.632812"/>
      <use xlink:href="#DejaVuSans-79" x="316.109375"/>
     </g>
    </g>
   </g>
  </g>
 </g>
 <defs>
  <clipPath id="p3f5ddb26ad">
   <rect x="52.079375" y="7.2" width="334.8" height="332.64"/>
  </clipPath>
 </defs>
</svg>
