<?xml version="1.0" encoding="utf-8" standalone="no"?>
<!DOCTYPE svg PUBLIC "-//W3C//DTD SVG 1.1//EN"
  "http://www.w3.org/Graphics/SVG/1.1/DTD/svg11.dtd">
<svg xmlns:xlink="http://www.w3.org/1999/xlink" width="370.942187pt" height="363.718125pt" viewBox="0 0 370.942187 363.718125" xmlns="http://www.w3.org/2000/svg" version="1.1">
 <metadata>
  <rdf:RDF xmlns:dc="http://purl.org/dc/elements/1.1/" xmlns:cc="http://creativecommons.org/ns#" xmlns:rdf="http://www.w3.org/1999/02/22-rdf-syntax-ns#">
   <cc:Work>
    <dc:type rdf:resource="http://purl.org/dc/dcmitype/StillImage"/>
    <dc:date>2022-05-09T11:02:19.201024</dc:date>
    <dc:format>image/svg+xml</dc:format>
    <dc:creator>
     <cc:Agent>
      <dc:title>Matplotlib v3.5.1, https://matplotlib.org/</dc:title>
     </cc:Agent>
    </dc:creator>
   </cc:Work>
  </rdf:RDF>
 </metadata>
 <defs>
  <style type="text/css">*{stroke-linejoin: round; stroke-linecap: butt}</style>
 </defs>
 <g id="figure_1">
  <g id="patch_1">
   <path d="M 0 363.718125 
L 370.942187 363.718125 
L 370.942187 0 
L 0 0 
L 0 363.718125 
z
" style="fill: none"/>
  </g>
  <g id="axes_1">
   <g id="patch_2">
    <path d="M 28.942188 339.84 
L 363.742188 339.84 
L 363.742188 7.2 
L 28.942188 7.2 
z
" style="fill: #ffffff"/>
   </g>
   <g id="matplotlib.axis_1">
    <g id="xtick_1">
     <g id="line2d_1">
      <defs>
       <path id="mf05fab0937" d="M 0 0 
L 0 3.5 
" style="stroke: #000000; stroke-width: 0.8"/>
      </defs>
      <g>
       <use xlink:href="#mf05fab0937" x="44.160369" y="339.84" style="stroke: #000000; stroke-width: 0.8"/>
      </g>
     </g>
     <g id="text_1">
      <!-- 0 -->
      <g transform="translate(40.979119 354.438437)scale(0.1 -0.1)">
       <defs>
        <path id="DejaVuSans-30" d="M 2034 4250 
Q 1547 4250 1301 3770 
Q 1056 3291 1056 2328 
Q 1056 1369 1301 889 
Q 1547 409 2034 409 
Q 2525 409 2770 889 
Q 3016 1369 3016 2328 
Q 3016 3291 2770 3770 
Q 2525 4250 2034 4250 
z
M 2034 4750 
Q 2819 4750 3233 4129 
Q 3647 3509 3647 2328 
Q 3647 1150 3233 529 
Q 2819 -91 2034 -91 
Q 1250 -91 836 529 
Q 422 1150 422 2328 
Q 422 3509 836 4129 
Q 1250 4750 2034 4750 
z
" transform="scale(0.015625)"/>
       </defs>
       <use xlink:href="#DejaVuSans-30"/>
      </g>
     </g>
    </g>
    <g id="xtick_2">
     <g id="line2d_2">
      <g>
       <use xlink:href="#mf05fab0937" x="105.09403" y="339.84" style="stroke: #000000; stroke-width: 0.8"/>
      </g>
     </g>
     <g id="text_2">
      <!-- 200 -->
      <g transform="translate(95.55028 354.438437)scale(0.1 -0.1)">
       <defs>
        <path id="DejaVuSans-32" d="M 1228 531 
L 3431 531 
L 3431 0 
L 469 0 
L 469 531 
Q 828 903 1448 1529 
Q 2069 2156 2228 2338 
Q 2531 2678 2651 2914 
Q 2772 3150 2772 3378 
Q 2772 3750 2511 3984 
Q 2250 4219 1831 4219 
Q 1534 4219 1204 4116 
Q 875 4013 500 3803 
L 500 4441 
Q 881 4594 1212 4672 
Q 1544 4750 1819 4750 
Q 2544 4750 2975 4387 
Q 3406 4025 3406 3419 
Q 3406 3131 3298 2873 
Q 3191 2616 2906 2266 
Q 2828 2175 2409 1742 
Q 1991 1309 1228 531 
z
" transform="scale(0.015625)"/>
       </defs>
       <use xlink:href="#DejaVuSans-32"/>
       <use xlink:href="#DejaVuSans-30" x="63.623047"/>
       <use xlink:href="#DejaVuSans-30" x="127.246094"/>
      </g>
     </g>
    </g>
    <g id="xtick_3">
     <g id="line2d_3">
      <g>
       <use xlink:href="#mf05fab0937" x="166.027691" y="339.84" style="stroke: #000000; stroke-width: 0.8"/>
      </g>
     </g>
     <g id="text_3">
      <!-- 400 -->
      <g transform="translate(156.483941 354.438437)scale(0.1 -0.1)">
       <defs>
        <path id="DejaVuSans-34" d="M 2419 4116 
L 825 1625 
L 2419 1625 
L 2419 4116 
z
M 2253 4666 
L 3047 4666 
L 3047 1625 
L 3713 1625 
L 3713 1100 
L 3047 1100 
L 3047 0 
L 2419 0 
L 2419 1100 
L 313 1100 
L 313 1709 
L 2253 4666 
z
" transform="scale(0.015625)"/>
       </defs>
       <use xlink:href="#DejaVuSans-34"/>
       <use xlink:href="#DejaVuSans-30" x="63.623047"/>
       <use xlink:href="#DejaVuSans-30" x="127.246094"/>
      </g>
     </g>
    </g>
    <g id="xtick_4">
     <g id="line2d_4">
      <g>
       <use xlink:href="#mf05fab0937" x="226.961352" y="339.84" style="stroke: #000000; stroke-width: 0.8"/>
      </g>
     </g>
     <g id="text_4">
      <!-- 600 -->
      <g transform="translate(217.417602 354.438437)scale(0.1 -0.1)">
       <defs>
        <path id="DejaVuSans-36" d="M 2113 2584 
Q 1688 2584 1439 2293 
Q 1191 2003 1191 1497 
Q 1191 994 1439 701 
Q 1688 409 2113 409 
Q 2538 409 2786 701 
Q 3034 994 3034 1497 
Q 3034 2003 2786 2293 
Q 2538 2584 2113 2584 
z
M 3366 4563 
L 3366 3988 
Q 3128 4100 2886 4159 
Q 2644 4219 2406 4219 
Q 1781 4219 1451 3797 
Q 1122 3375 1075 2522 
Q 1259 2794 1537 2939 
Q 1816 3084 2150 3084 
Q 2853 3084 3261 2657 
Q 3669 2231 3669 1497 
Q 3669 778 3244 343 
Q 2819 -91 2113 -91 
Q 1303 -91 875 529 
Q 447 1150 447 2328 
Q 447 3434 972 4092 
Q 1497 4750 2381 4750 
Q 2619 4750 2861 4703 
Q 3103 4656 3366 4563 
z
" transform="scale(0.015625)"/>
       </defs>
       <use xlink:href="#DejaVuSans-36"/>
       <use xlink:href="#DejaVuSans-30" x="63.623047"/>
       <use xlink:href="#DejaVuSans-30" x="127.246094"/>
      </g>
     </g>
    </g>
    <g id="xtick_5">
     <g id="line2d_5">
      <g>
       <use xlink:href="#mf05fab0937" x="287.895013" y="339.84" style="stroke: #000000; stroke-width: 0.8"/>
      </g>
     </g>
     <g id="text_5">
      <!-- 800 -->
      <g transform="translate(278.351263 354.438437)scale(0.1 -0.1)">
       <defs>
        <path id="DejaVuSans-38" d="M 2034 2216 
Q 1584 2216 1326 1975 
Q 1069 1734 1069 1313 
Q 1069 891 1326 650 
Q 1584 409 2034 409 
Q 2484 409 2743 651 
Q 3003 894 3003 1313 
Q 3003 1734 2745 1975 
Q 2488 2216 2034 2216 
z
M 1403 2484 
Q 997 2584 770 2862 
Q 544 3141 544 3541 
Q 544 4100 942 4425 
Q 1341 4750 2034 4750 
Q 2731 4750 3128 4425 
Q 3525 4100 3525 3541 
Q 3525 3141 3298 2862 
Q 3072 2584 2669 2484 
Q 3125 2378 3379 2068 
Q 3634 1759 3634 1313 
Q 3634 634 3220 271 
Q 2806 -91 2034 -91 
Q 1263 -91 848 271 
Q 434 634 434 1313 
Q 434 1759 690 2068 
Q 947 2378 1403 2484 
z
M 1172 3481 
Q 1172 3119 1398 2916 
Q 1625 2713 2034 2713 
Q 2441 2713 2670 2916 
Q 2900 3119 2900 3481 
Q 2900 3844 2670 4047 
Q 2441 4250 2034 4250 
Q 1625 4250 1398 4047 
Q 1172 3844 1172 3481 
z
" transform="scale(0.015625)"/>
       </defs>
       <use xlink:href="#DejaVuSans-38"/>
       <use xlink:href="#DejaVuSans-30" x="63.623047"/>
       <use xlink:href="#DejaVuSans-30" x="127.246094"/>
      </g>
     </g>
    </g>
    <g id="xtick_6">
     <g id="line2d_6">
      <g>
       <use xlink:href="#mf05fab0937" x="348.828674" y="339.84" style="stroke: #000000; stroke-width: 0.8"/>
      </g>
     </g>
     <g id="text_6">
      <!-- 1000 -->
      <g transform="translate(336.103674 354.438437)scale(0.1 -0.1)">
       <defs>
        <path id="DejaVuSans-31" d="M 794 531 
L 1825 531 
L 1825 4091 
L 703 3866 
L 703 4441 
L 1819 4666 
L 2450 4666 
L 2450 531 
L 3481 531 
L 3481 0 
L 794 0 
L 794 531 
z
" transform="scale(0.015625)"/>
       </defs>
       <use xlink:href="#DejaVuSans-31"/>
       <use xlink:href="#DejaVuSans-30" x="63.623047"/>
       <use xlink:href="#DejaVuSans-30" x="127.246094"/>
       <use xlink:href="#DejaVuSans-30" x="190.869141"/>
      </g>
     </g>
    </g>
   </g>
   <g id="matplotlib.axis_2">
    <g id="ytick_1">
     <g id="line2d_7">
      <defs>
       <path id="m009e8e7206" d="M 0 0 
L -3.5 0 
" style="stroke: #000000; stroke-width: 0.8"/>
      </defs>
      <g>
       <use xlink:href="#m009e8e7206" x="28.942188" y="330.636348" style="stroke: #000000; stroke-width: 0.8"/>
      </g>
     </g>
     <g id="text_7">
      <!-- −3 -->
      <g transform="translate(7.2 334.435567)scale(0.1 -0.1)">
       <defs>
        <path id="DejaVuSans-2212" d="M 678 2272 
L 4684 2272 
L 4684 1741 
L 678 1741 
L 678 2272 
z
" transform="scale(0.015625)"/>
        <path id="DejaVuSans-33" d="M 2597 2516 
Q 3050 2419 3304 2112 
Q 3559 1806 3559 1356 
Q 3559 666 3084 287 
Q 2609 -91 1734 -91 
Q 1441 -91 1130 -33 
Q 819 25 488 141 
L 488 750 
Q 750 597 1062 519 
Q 1375 441 1716 441 
Q 2309 441 2620 675 
Q 2931 909 2931 1356 
Q 2931 1769 2642 2001 
Q 2353 2234 1838 2234 
L 1294 2234 
L 1294 2753 
L 1863 2753 
Q 2328 2753 2575 2939 
Q 2822 3125 2822 3475 
Q 2822 3834 2567 4026 
Q 2313 4219 1838 4219 
Q 1578 4219 1281 4162 
Q 984 4106 628 3988 
L 628 4550 
Q 988 4650 1302 4700 
Q 1616 4750 1894 4750 
Q 2613 4750 3031 4423 
Q 3450 4097 3450 3541 
Q 3450 3153 3228 2886 
Q 3006 2619 2597 2516 
z
" transform="scale(0.015625)"/>
       </defs>
       <use xlink:href="#DejaVuSans-2212"/>
       <use xlink:href="#DejaVuSans-33" x="83.789062"/>
      </g>
     </g>
    </g>
    <g id="ytick_2">
     <g id="line2d_8">
      <g>
       <use xlink:href="#m009e8e7206" x="28.942188" y="284.284366" style="stroke: #000000; stroke-width: 0.8"/>
      </g>
     </g>
     <g id="text_8">
      <!-- −2 -->
      <g transform="translate(7.2 288.083585)scale(0.1 -0.1)">
       <use xlink:href="#DejaVuSans-2212"/>
       <use xlink:href="#DejaVuSans-32" x="83.789062"/>
      </g>
     </g>
    </g>
    <g id="ytick_3">
     <g id="line2d_9">
      <g>
       <use xlink:href="#m009e8e7206" x="28.942188" y="237.932385" style="stroke: #000000; stroke-width: 0.8"/>
      </g>
     </g>
     <g id="text_9">
      <!-- −1 -->
      <g transform="translate(7.2 241.731604)scale(0.1 -0.1)">
       <use xlink:href="#DejaVuSans-2212"/>
       <use xlink:href="#DejaVuSans-31" x="83.789062"/>
      </g>
     </g>
    </g>
    <g id="ytick_4">
     <g id="line2d_10">
      <g>
       <use xlink:href="#m009e8e7206" x="28.942188" y="191.580403" style="stroke: #000000; stroke-width: 0.8"/>
      </g>
     </g>
     <g id="text_10">
      <!-- 0 -->
      <g transform="translate(15.579688 195.379622)scale(0.1 -0.1)">
       <use xlink:href="#DejaVuSans-30"/>
      </g>
     </g>
    </g>
    <g id="ytick_5">
     <g id="line2d_11">
      <g>
       <use xlink:href="#m009e8e7206" x="28.942188" y="145.228422" style="stroke: #000000; stroke-width: 0.8"/>
      </g>
     </g>
     <g id="text_11">
      <!-- 1 -->
      <g transform="translate(15.579688 149.02764)scale(0.1 -0.1)">
       <use xlink:href="#DejaVuSans-31"/>
      </g>
     </g>
    </g>
    <g id="ytick_6">
     <g id="line2d_12">
      <g>
       <use xlink:href="#m009e8e7206" x="28.942188" y="98.87644" style="stroke: #000000; stroke-width: 0.8"/>
      </g>
     </g>
     <g id="text_12">
      <!-- 2 -->
      <g transform="translate(15.579688 102.675659)scale(0.1 -0.1)">
       <use xlink:href="#DejaVuSans-32"/>
      </g>
     </g>
    </g>
    <g id="ytick_7">
     <g id="line2d_13">
      <g>
       <use xlink:href="#m009e8e7206" x="28.942188" y="52.524458" style="stroke: #000000; stroke-width: 0.8"/>
      </g>
     </g>
     <g id="text_13">
      <!-- 3 -->
      <g transform="translate(15.579688 56.323677)scale(0.1 -0.1)">
       <use xlink:href="#DejaVuSans-33"/>
      </g>
     </g>
    </g>
   </g>
   <g id="line2d_14">
    <path d="M 44.465038 249.577501 
L 44.769706 89.905881 
M 45.379043 193.502408 
L 45.683711 131.05979 
M 46.293047 156.249088 
L 46.597716 96.923736 
M 47.207052 247.815997 
L 47.511721 215.323425 
M 48.121057 242.37909 
L 48.425726 111.214182 
M 49.035062 189.301235 
L 49.33973 245.36483 
M 49.949067 197.822467 
L 50.253735 206.831212 
M 50.863072 128.199565 
L 51.16774 185.672492 
M 51.777077 204.832005 
L 52.081745 230.785812 
M 52.691082 267.88972 
L 52.99575 99.88704 
M 53.605087 174.8599 
L 53.909755 231.150968 
M 54.519092 182.999258 
L 54.82376 199.122716 
M 55.433097 115.753022 
L 55.737765 222.723396 
M 56.347102 317.513174 
L 56.65177 128.922388 
M 57.261106 156.554708 
L 57.565775 83.407047 
M 58.175111 121.995112 
L 58.47978 142.852842 
M 59.089116 217.196925 
L 59.393785 208.473722 
M 60.003121 128.399865 
L 60.307789 144.339157 
M 60.917126 132.278433 
L 61.221794 145.443516 
M 61.831131 174.321784 
L 62.135799 166.550432 
M 62.745136 132.89024 
L 63.049804 57.369453 
M 63.659141 222.332844 
L 63.963809 167.284286 
M 64.573146 168.044561 
L 64.877814 137.449704 
M 65.487151 171.967218 
L 65.791819 100.916691 
M 66.401156 135.124405 
L 66.705824 183.086522 
M 67.31516 191.41671 
L 67.619829 252.800281 
M 68.229165 256.558277 
L 68.533834 118.746426 
M 69.14317 140.125967 
L 69.447839 175.951711 
M 70.057175 135.937957 
L 70.361844 172.415501 
M 70.97118 125.363834 
L 71.275848 149.722039 
M 71.885185 120.899927 
L 72.189853 195.496835 
M 72.79919 142.599262 
L 73.103858 239.727628 
M 73.713195 142.830871 
L 74.017863 109.759047 
M 74.6272 92.472403 
L 74.931868 85.010175 
M 75.541205 194.152728 
L 75.845873 167.152844 
M 76.45521 170.972707 
L 76.759878 144.492418 
M 77.369215 224.842984 
L 77.673883 212.478111 
M 78.283219 174.470878 
L 78.587888 159.135842 
M 79.197224 78.792951 
L 79.501893 152.169196 
M 80.111229 168.72698 
L 80.415898 132.35547 
M 81.025234 137.643218 
L 81.329902 198.595294 
M 81.939239 78.586314 
L 82.243907 107.547751 
M 82.853244 144.689263 
L 83.157912 124.448108 
M 83.767249 151.208972 
L 84.071917 200.207203 
M 84.681254 148.908425 
L 84.985922 162.765509 
M 85.595259 223.847791 
L 85.899927 172.860109 
M 86.509264 115.10985 
L 86.813932 188.079027 
M 87.423269 210.2112 
L 87.727937 103.772059 
M 88.337273 119.281469 
L 88.641942 161.405402 
M 89.251278 186.636283 
L 89.555947 185.148769 
M 90.165283 32.145398 
L 90.469952 144.105813 
M 91.079288 159.343247 
L 91.383957 92.271491 
M 91.993293 142.771589 
L 92.297961 150.278398 
M 92.907298 188.045118 
L 93.211966 117.779509 
M 93.821303 97.613641 
L 94.125971 201.042906 
M 94.735308 144.058962 
L 95.039976 132.492395 
M 95.649313 95.50121 
L 95.953981 188.036442 
M 96.563318 204.864958 
L 96.867986 169.87679 
M 97.477323 209.243334 
L 97.781991 137.818812 
M 98.391328 149.316563 
L 98.695996 173.908285 
M 99.305332 102.714273 
L 99.610001 197.5849 
M 100.219337 66.806988 
L 100.524006 167.951637 
M 101.133342 154.719733 
L 101.438011 126.476763 
M 102.047347 192.069325 
L 102.352016 127.035369 
M 102.961352 148.349587 
L 103.26602 159.498457 
M 103.875357 132.998593 
L 104.180025 125.055696 
M 104.789362 159.068725 
L 105.09403 54.974851 
M 105.703367 128.223581 
L 106.008035 155.985874 
M 106.617372 155.405164 
L 106.92204 113.378533 
M 107.531377 238.866472 
L 107.836045 216.982307 
M 108.445382 144.026489 
L 108.75005 137.158057 
M 109.359387 175.804683 
L 109.664055 120.313352 
M 110.273391 165.015762 
L 110.57806 157.568338 
M 111.187396 194.838113 
L 111.492065 175.766967 
M 112.101401 165.422267 
L 112.40607 162.306651 
M 113.015406 133.243699 
L 113.320074 146.348019 
M 113.929411 185.266958 
L 114.234079 97.281111 
M 114.843416 110.701983 
L 115.148084 215.855227 
M 115.757421 184.671442 
L 116.062089 173.793361 
M 116.671426 154.37284 
L 116.976094 202.547871 
M 117.585431 90.690148 
L 117.890099 115.921405 
M 118.499436 133.708682 
L 118.804104 132.49658 
M 119.413441 239.486364 
L 119.718109 194.893876 
M 120.327445 198.178305 
L 120.632114 187.946804 
M 121.24145 206.044351 
L 121.546119 169.171625 
M 122.155455 115.338603 
L 122.460124 172.17991 
M 123.06946 118.511288 
L 123.374129 176.900232 
M 123.983465 178.293548 
L 124.288133 245.884096 
M 124.89747 161.189502 
L 125.202138 178.455966 
M 125.811475 82.216163 
L 126.116143 129.755811 
M 126.72548 138.250099 
L 127.030148 145.603289 
M 127.639485 147.590807 
L 127.944153 194.859069 
M 128.55349 209.633546 
L 128.858158 213.680232 
M 129.467495 149.752084 
L 129.772163 196.03678 
M 130.3815 140.227127 
L 130.686168 123.701877 
M 131.295504 211.277745 
L 131.600173 226.324076 
M 132.209509 156.354685 
L 132.514178 191.543711 
M 133.123514 144.661601 
L 133.428183 171.809964 
M 134.037519 171.820594 
L 134.342187 164.71638 
M 134.951524 230.914132 
L 135.256192 163.212385 
M 135.865529 224.104608 
L 136.170197 140.158697 
M 136.779534 282.593876 
L 137.084202 167.874644 
M 137.693539 238.226385 
L 137.998207 197.711948 
M 138.607544 163.83073 
L 138.912212 202.473103 
M 139.521549 200.076052 
L 139.826217 123.10899 
M 140.435554 222.988548 
L 140.740222 127.719944 
M 141.349559 219.05161 
L 141.654227 155.263571 
M 142.263563 157.749737 
L 142.568232 206.761532 
M 143.177568 228.351537 
L 143.482237 196.404473 
M 144.091573 211.817328 
L 144.396242 229.843906 
M 145.005578 223.624273 
L 145.310246 229.503878 
M 145.919583 200.406948 
L 146.224251 229.40761 
M 146.833588 248.825948 
L 147.138256 161.454565 
M 147.747593 166.68358 
L 148.052261 231.156685 
M 148.661598 184.900831 
L 148.966266 255.908808 
M 149.575603 234.257283 
L 149.880271 214.478306 
M 150.489608 191.995815 
L 150.794276 117.255923 
M 151.403613 182.556081 
L 151.708281 241.482717 
M 152.317617 254.836954 
L 152.622286 196.442804 
M 153.231622 269.921942 
L 153.536291 264.38178 
M 154.145627 171.788693 
L 154.450296 178.737447 
M 155.059632 215.911262 
L 155.364301 203.687009 
M 155.973637 286.12263 
L 156.278305 191.351546 
M 156.887642 212.462323 
L 157.19231 123.24496 
M 157.801647 175.070937 
L 158.106315 243.383572 
M 158.715652 148.100686 
L 159.02032 188.873715 
M 159.629657 183.468079 
L 159.934325 256.96032 
M 160.543662 158.168234 
L 160.84833 231.074217 
M 161.457667 184.350195 
L 161.762335 239.61986 
M 162.371672 212.645441 
L 162.67634 286.170682 
M 163.285676 232.677593 
L 163.590345 239.668737 
M 164.199681 246.473878 
L 164.50435 239.559697 
M 165.113686 289.288372 
L 165.418355 228.867768 
M 166.027691 284.589009 
L 166.332359 205.471319 
M 166.941696 241.272611 
L 167.246364 147.927832 
M 167.855701 195.819914 
L 168.160369 259.90927 
M 168.769706 286.791115 
L 169.074374 225.148479 
M 169.683711 203.751183 
L 169.988379 271.255583 
M 170.597716 213.739045 
L 170.902384 196.02569 
M 171.511721 311.164561 
L 171.816389 208.808092 
M 172.425726 298.423862 
L 172.730394 272.862669 
M 173.33973 260.520813 
L 173.644399 237.600605 
M 174.253735 251.747366 
L 174.558404 234.561061 
M 175.16774 262.815545 
L 175.472409 180.698321 
M 176.081745 265.771673 
L 176.386414 285.252262 
M 176.99575 230.023443 
L 177.300418 246.288352 
M 177.909755 233.05197 
L 178.214423 235.757328 
M 178.82376 241.765119 
L 179.128428 242.428628 
M 179.737765 292.00937 
L 180.042433 257.895427 
M 180.65177 266.263233 
L 180.956438 205.502914 
M 181.565775 197.399473 
L 181.870443 265.413136 
M 182.47978 276.243872 
L 182.784448 268.41955 
M 183.393785 292.539489 
L 183.698453 229.234067 
M 184.307789 257.461007 
L 184.612458 298.684206 
M 185.221794 246.173796 
L 185.526463 188.825322 
M 186.135799 264.795896 
L 186.440468 195.538842 
M 187.049804 246.752721 
L 187.354473 177.597119 
M 187.963809 174.424437 
L 188.268477 204.905689 
M 188.877814 212.132078 
L 189.182482 227.014645 
M 189.791819 285.737402 
L 190.096487 201.792276 
M 190.705824 240.230367 
L 191.010492 269.851349 
M 191.619829 247.613013 
L 191.924497 305.591288 
M 192.533834 280.172255 
L 192.838502 322.386475 
M 193.447839 305.053382 
L 193.752507 199.109981 
M 194.361844 252.153829 
L 194.666512 250.299846 
M 195.275848 258.758888 
L 195.580517 165.515554 
M 196.189853 168.86231 
L 196.494522 251.988554 
M 197.103858 234.628488 
L 197.408527 166.400356 
M 198.017863 283.029669 
L 198.322531 203.989569 
M 198.931868 228.088011 
L 199.236536 195.939973 
M 199.845873 174.965999 
L 200.150541 236.397771 
M 200.759878 247.946112 
L 201.064546 218.786483 
M 201.673883 202.732984 
L 201.978551 324.72 
M 202.587888 223.364698 
L 202.892556 218.020355 
M 203.501893 209.449986 
L 203.806561 224.838771 
M 204.415898 214.411651 
L 204.720566 190.55355 
M 205.329902 259.852738 
L 205.634571 209.105203 
M 206.243907 216.256238 
L 206.548576 275.349328 
M 207.157912 261.988817 
L 207.462581 254.696027 
M 208.071917 269.256886 
L 208.376586 320.961736 
M 208.985922 202.939063 
L 209.29059 322.091715 
M 209.899927 219.69781 
L 210.204595 191.248277 
M 210.813932 225.28825 
L 211.1186 297.341431 
M 211.727937 269.064616 
L 212.032605 206.951806 
M 212.641942 208.414457 
L 212.94661 214.791805 
M 213.555947 189.8255 
L 213.860615 190.70593 
M 214.469952 201.734763 
L 214.77462 234.137826 
M 215.383957 260.081066 
L 215.688625 260.698745 
M 216.297961 146.038178 
L 216.60263 182.481833 
M 217.211966 274.483567 
L 217.516635 270.87543 
M 218.125971 273.962587 
L 218.43064 215.138051 
M 219.039976 180.892208 
L 219.344645 254.126287 
M 219.953981 201.400538 
L 220.258649 300.537326 
M 220.867986 219.75291 
L 221.172654 143.909043 
M 221.781991 210.063698 
L 222.086659 248.65985 
M 222.695996 230.477406 
L 223.000664 267.832064 
M 223.610001 311.872775 
L 223.914669 207.79653 
M 224.524006 161.548585 
L 224.828674 234.75591 
M 225.438011 262.999801 
L 225.742679 242.424097 
M 226.352016 94.144575 
L 226.656684 171.65944 
M 227.26602 241.110349 
L 227.570689 211.831543 
M 228.180025 198.407993 
L 228.484694 178.614525 
M 229.09403 149.07366 
L 229.398699 172.063314 
M 230.008035 192.570748 
L 230.312703 262.591275 
M 230.92204 145.012654 
L 231.226708 158.721432 
M 231.836045 152.661669 
L 232.140713 159.806741 
M 232.75005 175.374436 
L 233.054718 282.922676 
M 233.664055 186.174942 
L 233.968723 259.18936 
M 234.57806 224.372462 
L 234.882728 229.962244 
M 235.492065 170.202744 
L 235.796733 114.417524 
M 236.40607 136.664554 
L 236.710738 212.50363 
M 237.320074 169.696692 
L 237.624743 96.700833 
M 238.234079 170.433388 
L 238.538748 212.630346 
M 239.148084 132.520771 
L 239.452753 226.368005 
M 240.062089 197.05417 
L 240.366758 196.950864 
M 240.976094 202.565647 
L 241.280762 211.300231 
M 241.890099 93.918429 
L 242.194767 230.459159 
M 242.804104 267.736586 
L 243.108772 217.721778 
M 243.718109 196.491032 
L 244.022777 197.513586 
M 244.632114 210.239132 
L 244.936782 157.23369 
M 245.546119 174.698705 
L 245.850787 106.016181 
M 246.460124 217.877831 
L 246.764792 137.350402 
M 247.374129 117.767078 
L 247.678797 209.122265 
M 248.288133 154.900536 
L 248.592802 154.985961 
M 249.202138 180.600623 
L 249.506807 234.64119 
M 250.116143 204.795012 
L 250.420812 193.27828 
M 251.030148 164.008239 
L 251.334816 194.072802 
M 251.944153 181.056018 
L 252.248821 134.423773 
M 252.858158 80.906347 
L 253.162826 178.382097 
M 253.772163 198.351546 
L 254.076831 142.081164 
M 254.686168 219.944866 
L 254.990836 191.127014 
M 255.600173 187.761575 
L 255.904841 152.46699 
M 256.514178 141.206881 
L 256.818846 192.167389 
M 257.428183 261.129076 
L 257.732851 121.267656 
M 258.342187 282.982493 
L 258.646856 222.501197 
M 259.256192 133.375079 
L 259.560861 213.915088 
M 260.170197 243.666402 
L 260.474866 130.935934 
M 261.084202 222.564849 
L 261.388871 229.078639 
M 261.998207 112.332167 
L 262.302875 102.828539 
M 262.912212 92.181805 
L 263.21688 200.871722 
M 263.826217 161.593672 
L 264.130885 218.127461 
M 264.740222 103.468134 
L 265.04489 209.857342 
M 265.654227 156.745948 
L 265.958895 186.856632 
M 266.568232 170.014242 
L 266.8729 183.268334 
M 267.482237 193.070297 
L 267.786905 117.320796 
M 268.396242 95.777181 
L 268.70091 29.562095 
M 269.310246 170.892253 
L 269.614915 219.751774 
M 270.224251 85.99804 
L 270.52892 188.892771 
M 271.138256 212.657391 
L 271.442925 166.833818 
M 272.052261 160.527023 
L 272.35693 202.494668 
M 272.966266 148.53725 
L 273.270934 156.562603 
M 273.880271 109.659913 
L 274.184939 191.319828 
M 274.794276 124.502343 
L 275.098944 55.986871 
M 275.708281 88.462528 
L 276.012949 81.645733 
M 276.622286 112.371186 
L 276.926954 238.893218 
M 277.536291 184.369285 
L 277.840959 229.205587 
M 278.450296 87.413826 
L 278.754964 140.431443 
M 279.364301 166.800845 
L 279.668969 148.261831 
M 280.278305 242.892054 
L 280.582974 125.497446 
M 281.19231 102.102219 
L 281.496979 158.865403 
M 282.106315 224.616633 
L 282.410984 136.850868 
M 283.02032 169.629323 
L 283.324988 175.703552 
M 283.934325 94.676411 
L 284.238993 109.541066 
M 284.84833 197.151268 
L 285.152998 193.386429 
M 285.762335 140.49659 
L 286.067003 189.735341 
M 286.67634 204.535141 
L 286.981008 165.699951 
M 287.590345 213.786872 
L 287.895013 182.012475 
M 288.50435 72.911847 
L 288.809018 175.161661 
M 289.418355 158.963231 
L 289.723023 196.656536 
M 290.332359 186.21654 
L 290.637028 107.627692 
M 291.246364 192.762602 
L 291.551033 145.125274 
M 292.160369 196.377121 
L 292.465038 150.310402 
M 293.074374 200.202802 
L 293.379043 139.959229 
M 293.988379 173.396328 
L 294.293047 236.793691 
M 294.902384 154.681422 
L 295.207052 144.55236 
M 295.816389 75.560228 
L 296.121057 110.878888 
M 296.730394 209.18377 
L 297.035062 130.987614 
M 297.644399 102.201344 
L 297.949067 128.773136 
M 298.558404 124.195676 
L 298.863072 22.32 
M 299.472409 74.550313 
L 299.777077 231.15966 
M 300.386414 83.661033 
L 300.691082 165.059853 
M 301.300418 166.798858 
L 301.605087 155.315404 
M 302.214423 120.590279 
L 302.519092 136.49378 
M 303.128428 97.716436 
L 303.433097 151.848463 
M 304.042433 192.013707 
L 304.347102 258.581554 
M 304.956438 144.577735 
L 305.261106 180.754913 
M 305.870443 120.454531 
L 306.175111 139.074584 
M 306.784448 157.395121 
L 307.089116 138.538817 
M 307.698453 176.577824 
L 308.003121 182.365657 
M 308.612458 165.684295 
L 308.917126 192.351471 
M 309.526463 155.770361 
L 309.831131 179.278561 
M 310.440468 206.542851 
L 310.745136 112.940654 
M 311.354473 137.202173 
L 311.659141 197.902447 
M 312.268477 181.586198 
L 312.573146 179.33006 
M 313.182482 202.605233 
L 313.487151 103.987034 
M 314.096487 127.327072 
L 314.401156 201.024219 
M 315.010492 74.4943 
L 315.31516 230.466837 
M 315.924497 104.210492 
L 316.229165 201.600677 
M 316.838502 152.268254 
L 317.14317 188.534294 
M 317.752507 128.286376 
L 318.057175 157.154193 
M 318.666512 188.012939 
L 318.97118 100.971125 
M 319.580517 213.721504 
L 319.885185 174.206827 
M 320.494522 186.259008 
L 320.79919 150.421439 
M 321.408527 182.942482 
L 321.713195 253.365358 
M 322.322531 206.946321 
L 322.6272 128.143608 
M 323.236536 209.007142 
L 323.541205 131.598604 
M 324.150541 192.148513 
L 324.45521 140.837305 
M 325.064546 210.867647 
L 325.369215 193.958615 
M 325.978551 236.316121 
L 326.283219 205.699398 
M 326.892556 178.300506 
L 327.197224 262.227486 
M 327.806561 160.0364 
L 328.111229 139.554936 
M 328.720566 117.266266 
L 329.025234 181.021931 
M 329.634571 156.712298 
L 329.939239 256.791759 
M 330.548576 288.804576 
L 330.853244 273.031467 
M 331.462581 269.179944 
L 331.767249 231.995712 
M 332.376586 213.575267 
L 332.681254 112.929377 
M 333.29059 174.909829 
L 333.595259 242.312374 
M 334.204595 218.594443 
L 334.509264 167.004354 
M 335.1186 176.57354 
L 335.423269 184.195455 
M 336.032605 236.551949 
L 336.337273 158.598673 
M 336.94661 195.267813 
L 337.251278 189.344376 
M 337.860615 188.453056 
L 338.165283 155.253226 
M 338.77462 177.130748 
L 339.079288 214.912562 
M 339.688625 216.849313 
L 339.993293 140.525557 
M 340.60263 192.463635 
L 340.907298 266.544632 
M 341.516635 223.221647 
L 341.821303 199.602465 
M 342.43064 247.191069 
L 342.735308 238.951624 
M 343.344645 196.365139 
L 343.649313 241.781344 
M 344.258649 189.239379 
L 344.563318 113.40281 
M 345.172654 270.916411 
L 345.477323 200.74333 
M 346.086659 187.163747 
L 346.391328 314.781631 
M 347.000664 213.05375 
L 347.305332 226.283133 
M 347.914669 275.824157 
L 348.219337 143.437227 
L 348.219337 143.437227 
" clip-path="url(#p75c7e57b50)" style="fill: none; stroke: #000000; stroke-width: 1.5; stroke-linecap: square"/>
   </g>
   <g id="line2d_15">
    <path d="M 44.160369 184.500208 
L 46.902384 182.717605 
L 49.644399 180.677534 
L 52.691082 178.141623 
L 56.65177 174.526619 
L 67.31516 164.566097 
L 70.666512 161.829858 
L 73.713195 159.628832 
L 76.45521 157.90678 
L 79.197224 156.439881 
L 81.939239 155.232689 
L 84.681254 154.289482 
L 87.1186 153.674918 
L 89.555947 153.274671 
L 91.993293 153.092513 
L 94.43064 153.134356 
L 96.867986 153.403044 
L 99.305332 153.9022 
L 101.742679 154.633834 
L 104.180025 155.597975 
L 106.617372 156.792396 
L 109.359387 158.407086 
L 112.101401 160.302393 
L 114.843416 162.469312 
L 117.890099 165.184164 
L 120.936782 168.206905 
L 124.288133 171.862215 
L 127.944153 176.198673 
L 131.904841 181.242579 
L 137.084202 188.229593 
L 145.919583 200.611465 
L 154.754964 212.862955 
L 159.629657 219.256232 
L 163.285676 223.707796 
L 166.332359 227.088402 
L 169.074374 229.802937 
L 171.511721 231.91141 
L 173.644399 233.496321 
L 175.777077 234.822364 
L 177.909755 235.882424 
L 180.042433 236.677373 
L 182.175111 237.21193 
L 184.307789 237.500988 
L 186.440468 237.558174 
L 188.573146 237.405295 
L 191.010492 236.996044 
L 193.447839 236.360764 
L 196.189853 235.401189 
L 198.931868 234.196077 
L 201.673883 232.745779 
L 204.415898 231.037859 
L 207.157912 229.053677 
L 209.899927 226.773601 
L 212.641942 224.187795 
L 215.383957 221.294946 
L 218.43064 217.751535 
L 222.086659 213.121694 
L 227.26602 206.147005 
L 233.968723 197.163316 
L 237.929411 192.218728 
L 241.585431 187.999512 
L 245.24145 184.110301 
L 249.202138 180.21353 
L 254.076831 175.750062 
L 259.256192 171.317707 
L 263.826217 167.694945 
L 267.482237 165.06779 
L 270.52892 163.115599 
L 273.575603 161.417042 
L 276.317617 160.121484 
L 279.059632 159.052569 
L 281.801647 158.213347 
L 284.543662 157.603242 
L 287.285676 157.227923 
L 290.027691 157.100837 
L 292.465038 157.214452 
L 294.902384 157.563835 
L 297.035062 158.082635 
L 299.16774 158.817975 
L 301.300418 159.782354 
L 303.433097 160.986144 
L 305.565775 162.432294 
L 308.003121 164.377203 
L 310.440468 166.613393 
L 313.182482 169.433347 
L 316.533834 173.216556 
L 327.806561 186.290164 
L 330.548576 188.948223 
L 332.985922 190.977424 
L 335.1186 192.464575 
L 337.251278 193.669378 
L 339.383957 194.590107 
L 341.516635 195.241448 
L 343.649313 195.645359 
L 345.781991 195.831789 
L 348.219337 195.822922 
L 348.524006 195.807774 
L 348.524006 195.807774 
" clip-path="url(#p75c7e57b50)" style="fill: none; stroke: #0000ff; stroke-opacity: 0.5; stroke-width: 2; stroke-linecap: square"/>
   </g>
   <g id="patch_3">
    <path d="M 28.942188 339.84 
L 28.942188 7.2 
" style="fill: none; stroke: #000000; stroke-width: 0.8; stroke-linejoin: miter; stroke-linecap: square"/>
   </g>
   <g id="patch_4">
    <path d="M 363.742188 339.84 
L 363.742188 7.2 
" style="fill: none; stroke: #000000; stroke-width: 0.8; stroke-linejoin: miter; stroke-linecap: square"/>
   </g>
   <g id="patch_5">
    <path d="M 28.942188 339.84 
L 363.742188 339.84 
" style="fill: none; stroke: #000000; stroke-width: 0.8; stroke-linejoin: miter; stroke-linecap: square"/>
   </g>
   <g id="patch_6">
    <path d="M 28.942188 7.2 
L 363.742188 7.2 
" style="fill: none; stroke: #000000; stroke-width: 0.8; stroke-linejoin: miter; stroke-linecap: square"/>
   </g>
   <g id="legend_1">
    <g id="patch_7">
     <path d="M 163.996094 44.55625 
L 228.688281 44.55625 
Q 230.688281 44.55625 230.688281 42.55625 
L 230.688281 14.2 
Q 230.688281 12.2 228.688281 12.2 
L 163.996094 12.2 
Q 161.996094 12.2 161.996094 14.2 
L 161.996094 42.55625 
Q 161.996094 44.55625 163.996094 44.55625 
z
" style="fill: #ffffff; opacity: 0.8; stroke: #cccccc; stroke-linejoin: miter"/>
    </g>
    <g id="line2d_16">
     <path d="M 165.996094 20.298437 
L 175.996094 20.298437 
L 185.996094 20.298437 
" style="fill: none; stroke: #000000; stroke-width: 1.5; stroke-linecap: square"/>
    </g>
    <g id="text_14">
     <!-- Before -->
     <g transform="translate(193.996094 23.798437)scale(0.1 -0.1)">
      <defs>
       <path id="DejaVuSans-42" d="M 1259 2228 
L 1259 519 
L 2272 519 
Q 2781 519 3026 730 
Q 3272 941 3272 1375 
Q 3272 1813 3026 2020 
Q 2781 2228 2272 2228 
L 1259 2228 
z
M 1259 4147 
L 1259 2741 
L 2194 2741 
Q 2656 2741 2882 2914 
Q 3109 3088 3109 3444 
Q 3109 3797 2882 3972 
Q 2656 4147 2194 4147 
L 1259 4147 
z
M 628 4666 
L 2241 4666 
Q 2963 4666 3353 4366 
Q 3744 4066 3744 3513 
Q 3744 3084 3544 2831 
Q 3344 2578 2956 2516 
Q 3422 2416 3680 2098 
Q 3938 1781 3938 1306 
Q 3938 681 3513 340 
Q 3088 0 2303 0 
L 628 0 
L 628 4666 
z
" transform="scale(0.015625)"/>
       <path id="DejaVuSans-65" d="M 3597 1894 
L 3597 1613 
L 953 1613 
Q 991 1019 1311 708 
Q 1631 397 2203 397 
Q 2534 397 2845 478 
Q 3156 559 3463 722 
L 3463 178 
Q 3153 47 2828 -22 
Q 2503 -91 2169 -91 
Q 1331 -91 842 396 
Q 353 884 353 1716 
Q 353 2575 817 3079 
Q 1281 3584 2069 3584 
Q 2775 3584 3186 3129 
Q 3597 2675 3597 1894 
z
M 3022 2063 
Q 3016 2534 2758 2815 
Q 2500 3097 2075 3097 
Q 1594 3097 1305 2825 
Q 1016 2553 972 2059 
L 3022 2063 
z
" transform="scale(0.015625)"/>
       <path id="DejaVuSans-66" d="M 2375 4863 
L 2375 4384 
L 1825 4384 
Q 1516 4384 1395 4259 
Q 1275 4134 1275 3809 
L 1275 3500 
L 2222 3500 
L 2222 3053 
L 1275 3053 
L 1275 0 
L 697 0 
L 697 3053 
L 147 3053 
L 147 3500 
L 697 3500 
L 697 3744 
Q 697 4328 969 4595 
Q 1241 4863 1831 4863 
L 2375 4863 
z
" transform="scale(0.015625)"/>
       <path id="DejaVuSans-6f" d="M 1959 3097 
Q 1497 3097 1228 2736 
Q 959 2375 959 1747 
Q 959 1119 1226 758 
Q 1494 397 1959 397 
Q 2419 397 2687 759 
Q 2956 1122 2956 1747 
Q 2956 2369 2687 2733 
Q 2419 3097 1959 3097 
z
M 1959 3584 
Q 2709 3584 3137 3096 
Q 3566 2609 3566 1747 
Q 3566 888 3137 398 
Q 2709 -91 1959 -91 
Q 1206 -91 779 398 
Q 353 888 353 1747 
Q 353 2609 779 3096 
Q 1206 3584 1959 3584 
z
" transform="scale(0.015625)"/>
       <path id="DejaVuSans-72" d="M 2631 2963 
Q 2534 3019 2420 3045 
Q 2306 3072 2169 3072 
Q 1681 3072 1420 2755 
Q 1159 2438 1159 1844 
L 1159 0 
L 581 0 
L 581 3500 
L 1159 3500 
L 1159 2956 
Q 1341 3275 1631 3429 
Q 1922 3584 2338 3584 
Q 2397 3584 2469 3576 
Q 2541 3569 2628 3553 
L 2631 2963 
z
" transform="scale(0.015625)"/>
      </defs>
      <use xlink:href="#DejaVuSans-42"/>
      <use xlink:href="#DejaVuSans-65" x="68.603516"/>
      <use xlink:href="#DejaVuSans-66" x="130.126953"/>
      <use xlink:href="#DejaVuSans-6f" x="165.332031"/>
      <use xlink:href="#DejaVuSans-72" x="226.513672"/>
      <use xlink:href="#DejaVuSans-65" x="265.376953"/>
     </g>
    </g>
    <g id="line2d_17">
     <path d="M 165.996094 34.976562 
L 175.996094 34.976562 
L 185.996094 34.976562 
" style="fill: none; stroke: #0000ff; stroke-opacity: 0.5; stroke-width: 2; stroke-linecap: square"/>
    </g>
    <g id="text_15">
     <!-- After -->
     <g transform="translate(193.996094 38.476562)scale(0.1 -0.1)">
      <defs>
       <path id="DejaVuSans-41" d="M 2188 4044 
L 1331 1722 
L 3047 1722 
L 2188 4044 
z
M 1831 4666 
L 2547 4666 
L 4325 0 
L 3669 0 
L 3244 1197 
L 1141 1197 
L 716 0 
L 50 0 
L 1831 4666 
z
" transform="scale(0.015625)"/>
       <path id="DejaVuSans-74" d="M 1172 4494 
L 1172 3500 
L 2356 3500 
L 2356 3053 
L 1172 3053 
L 1172 1153 
Q 1172 725 1289 603 
Q 1406 481 1766 481 
L 2356 481 
L 2356 0 
L 1766 0 
Q 1100 0 847 248 
Q 594 497 594 1153 
L 594 3053 
L 172 3053 
L 172 3500 
L 594 3500 
L 594 4494 
L 1172 4494 
z
" transform="scale(0.015625)"/>
      </defs>
      <use xlink:href="#DejaVuSans-41"/>
      <use xlink:href="#DejaVuSans-66" x="64.783203"/>
      <use xlink:href="#DejaVuSans-74" x="98.238281"/>
      <use xlink:href="#DejaVuSans-65" x="137.447266"/>
      <use xlink:href="#DejaVuSans-72" x="198.970703"/>
     </g>
    </g>
   </g>
  </g>
 </g>
 <defs>
  <clipPath id="p75c7e57b50">
   <rect x="28.942188" y="7.2" width="334.8" height="332.64"/>
  </clipPath>
 </defs>
</svg>
