<?xml version="1.0" encoding="utf-8" standalone="no"?>
<!DOCTYPE svg PUBLIC "-//W3C//DTD SVG 1.1//EN"
  "http://www.w3.org/Graphics/SVG/1.1/DTD/svg11.dtd">
<svg xmlns:xlink="http://www.w3.org/1999/xlink" width="387.716875pt" height="379.331875pt" viewBox="0 0 387.716875 379.331875" xmlns="http://www.w3.org/2000/svg" version="1.1">
 <metadata>
  <rdf:RDF xmlns:dc="http://purl.org/dc/elements/1.1/" xmlns:cc="http://creativecommons.org/ns#" xmlns:rdf="http://www.w3.org/1999/02/22-rdf-syntax-ns#">
   <cc:Work>
    <dc:type rdf:resource="http://purl.org/dc/dcmitype/StillImage"/>
    <dc:date>2022-05-09T09:55:14.757485</dc:date>
    <dc:format>image/svg+xml</dc:format>
    <dc:creator>
     <cc:Agent>
      <dc:title>Matplotlib v3.5.1, https://matplotlib.org/</dc:title>
     </cc:Agent>
    </dc:creator>
   </cc:Work>
  </rdf:RDF>
 </metadata>
 <defs>
  <style type="text/css">*{stroke-linejoin: round; stroke-linecap: butt}</style>
 </defs>
 <g id="figure_1">
  <g id="patch_1">
   <path d="M 0 379.331875 
L 387.716875 379.331875 
L 387.716875 0 
L 0 0 
L 0 379.331875 
z
" style="fill: none"/>
  </g>
  <g id="axes_1">
   <g id="patch_2">
    <path d="M 45.716875 339.84 
L 380.516875 339.84 
L 380.516875 7.2 
L 45.716875 7.2 
z
" style="fill: #ffffff"/>
   </g>
   <g id="matplotlib.axis_1">
    <g id="xtick_1">
     <g id="line2d_1">
      <defs>
       <path id="mc17bbcb96f" d="M 0 0 
L 0 3.5 
" style="stroke: #000000; stroke-width: 0.8"/>
      </defs>
      <g>
       <use xlink:href="#mc17bbcb96f" x="79.196875" y="339.84" style="stroke: #000000; stroke-width: 0.8"/>
      </g>
     </g>
     <g id="text_1">
      <!-- −4 -->
      <g transform="translate(71.825781 354.438437)scale(0.1 -0.1)">
       <defs>
        <path id="DejaVuSans-2212" d="M 678 2272 
L 4684 2272 
L 4684 1741 
L 678 1741 
L 678 2272 
z
" transform="scale(0.015625)"/>
        <path id="DejaVuSans-34" d="M 2419 4116 
L 825 1625 
L 2419 1625 
L 2419 4116 
z
M 2253 4666 
L 3047 4666 
L 3047 1625 
L 3713 1625 
L 3713 1100 
L 3047 1100 
L 3047 0 
L 2419 0 
L 2419 1100 
L 313 1100 
L 313 1709 
L 2253 4666 
z
" transform="scale(0.015625)"/>
       </defs>
       <use xlink:href="#DejaVuSans-2212"/>
       <use xlink:href="#DejaVuSans-34" x="83.789062"/>
      </g>
     </g>
    </g>
    <g id="xtick_2">
     <g id="line2d_2">
      <g>
       <use xlink:href="#mc17bbcb96f" x="146.156875" y="339.84" style="stroke: #000000; stroke-width: 0.8"/>
      </g>
     </g>
     <g id="text_2">
      <!-- −2 -->
      <g transform="translate(138.785781 354.438437)scale(0.1 -0.1)">
       <defs>
        <path id="DejaVuSans-32" d="M 1228 531 
L 3431 531 
L 3431 0 
L 469 0 
L 469 531 
Q 828 903 1448 1529 
Q 2069 2156 2228 2338 
Q 2531 2678 2651 2914 
Q 2772 3150 2772 3378 
Q 2772 3750 2511 3984 
Q 2250 4219 1831 4219 
Q 1534 4219 1204 4116 
Q 875 4013 500 3803 
L 500 4441 
Q 881 4594 1212 4672 
Q 1544 4750 1819 4750 
Q 2544 4750 2975 4387 
Q 3406 4025 3406 3419 
Q 3406 3131 3298 2873 
Q 3191 2616 2906 2266 
Q 2828 2175 2409 1742 
Q 1991 1309 1228 531 
z
" transform="scale(0.015625)"/>
       </defs>
       <use xlink:href="#DejaVuSans-2212"/>
       <use xlink:href="#DejaVuSans-32" x="83.789062"/>
      </g>
     </g>
    </g>
    <g id="xtick_3">
     <g id="line2d_3">
      <g>
       <use xlink:href="#mc17bbcb96f" x="213.116875" y="339.84" style="stroke: #000000; stroke-width: 0.8"/>
      </g>
     </g>
     <g id="text_3">
      <!-- 0 -->
      <g transform="translate(209.935625 354.438437)scale(0.1 -0.1)">
       <defs>
        <path id="DejaVuSans-30" d="M 2034 4250 
Q 1547 4250 1301 3770 
Q 1056 3291 1056 2328 
Q 1056 1369 1301 889 
Q 1547 409 2034 409 
Q 2525 409 2770 889 
Q 3016 1369 3016 2328 
Q 3016 3291 2770 3770 
Q 2525 4250 2034 4250 
z
M 2034 4750 
Q 2819 4750 3233 4129 
Q 3647 3509 3647 2328 
Q 3647 1150 3233 529 
Q 2819 -91 2034 -91 
Q 1250 -91 836 529 
Q 422 1150 422 2328 
Q 422 3509 836 4129 
Q 1250 4750 2034 4750 
z
" transform="scale(0.015625)"/>
       </defs>
       <use xlink:href="#DejaVuSans-30"/>
      </g>
     </g>
    </g>
    <g id="xtick_4">
     <g id="line2d_4">
      <g>
       <use xlink:href="#mc17bbcb96f" x="280.076875" y="339.84" style="stroke: #000000; stroke-width: 0.8"/>
      </g>
     </g>
     <g id="text_4">
      <!-- 2 -->
      <g transform="translate(276.895625 354.438437)scale(0.1 -0.1)">
       <use xlink:href="#DejaVuSans-32"/>
      </g>
     </g>
    </g>
    <g id="xtick_5">
     <g id="line2d_5">
      <g>
       <use xlink:href="#mc17bbcb96f" x="347.036875" y="339.84" style="stroke: #000000; stroke-width: 0.8"/>
      </g>
     </g>
     <g id="text_5">
      <!-- 4 -->
      <g transform="translate(343.855625 354.438437)scale(0.1 -0.1)">
       <use xlink:href="#DejaVuSans-34"/>
      </g>
     </g>
    </g>
    <g id="text_6">
     <!-- x [a.u.] -->
     <g transform="translate(191.68375 369.63625)scale(0.12 -0.12)">
      <defs>
       <path id="DejaVuSans-78" d="M 3513 3500 
L 2247 1797 
L 3578 0 
L 2900 0 
L 1881 1375 
L 863 0 
L 184 0 
L 1544 1831 
L 300 3500 
L 978 3500 
L 1906 2253 
L 2834 3500 
L 3513 3500 
z
" transform="scale(0.015625)"/>
       <path id="DejaVuSans-20" transform="scale(0.015625)"/>
       <path id="DejaVuSans-5b" d="M 550 4863 
L 1875 4863 
L 1875 4416 
L 1125 4416 
L 1125 -397 
L 1875 -397 
L 1875 -844 
L 550 -844 
L 550 4863 
z
" transform="scale(0.015625)"/>
       <path id="DejaVuSans-61" d="M 2194 1759 
Q 1497 1759 1228 1600 
Q 959 1441 959 1056 
Q 959 750 1161 570 
Q 1363 391 1709 391 
Q 2188 391 2477 730 
Q 2766 1069 2766 1631 
L 2766 1759 
L 2194 1759 
z
M 3341 1997 
L 3341 0 
L 2766 0 
L 2766 531 
Q 2569 213 2275 61 
Q 1981 -91 1556 -91 
Q 1019 -91 701 211 
Q 384 513 384 1019 
Q 384 1609 779 1909 
Q 1175 2209 1959 2209 
L 2766 2209 
L 2766 2266 
Q 2766 2663 2505 2880 
Q 2244 3097 1772 3097 
Q 1472 3097 1187 3025 
Q 903 2953 641 2809 
L 641 3341 
Q 956 3463 1253 3523 
Q 1550 3584 1831 3584 
Q 2591 3584 2966 3190 
Q 3341 2797 3341 1997 
z
" transform="scale(0.015625)"/>
       <path id="DejaVuSans-2e" d="M 684 794 
L 1344 794 
L 1344 0 
L 684 0 
L 684 794 
z
" transform="scale(0.015625)"/>
       <path id="DejaVuSans-75" d="M 544 1381 
L 544 3500 
L 1119 3500 
L 1119 1403 
Q 1119 906 1312 657 
Q 1506 409 1894 409 
Q 2359 409 2629 706 
Q 2900 1003 2900 1516 
L 2900 3500 
L 3475 3500 
L 3475 0 
L 2900 0 
L 2900 538 
Q 2691 219 2414 64 
Q 2138 -91 1772 -91 
Q 1169 -91 856 284 
Q 544 659 544 1381 
z
M 1991 3584 
L 1991 3584 
z
" transform="scale(0.015625)"/>
       <path id="DejaVuSans-5d" d="M 1947 4863 
L 1947 -844 
L 622 -844 
L 622 -397 
L 1369 -397 
L 1369 4416 
L 622 4416 
L 622 4863 
L 1947 4863 
z
" transform="scale(0.015625)"/>
      </defs>
      <use xlink:href="#DejaVuSans-78"/>
      <use xlink:href="#DejaVuSans-20" x="59.179688"/>
      <use xlink:href="#DejaVuSans-5b" x="90.966797"/>
      <use xlink:href="#DejaVuSans-61" x="129.980469"/>
      <use xlink:href="#DejaVuSans-2e" x="191.259766"/>
      <use xlink:href="#DejaVuSans-75" x="223.046875"/>
      <use xlink:href="#DejaVuSans-2e" x="286.425781"/>
      <use xlink:href="#DejaVuSans-5d" x="318.212891"/>
     </g>
    </g>
   </g>
   <g id="matplotlib.axis_2">
    <g id="ytick_1">
     <g id="line2d_6">
      <defs>
       <path id="m9c39aef2a9" d="M 0 0 
L -3.5 0 
" style="stroke: #000000; stroke-width: 0.8"/>
      </defs>
      <g>
       <use xlink:href="#m9c39aef2a9" x="45.716875" y="319.05" style="stroke: #000000; stroke-width: 0.8"/>
      </g>
     </g>
     <g id="text_7">
      <!-- 0.0 -->
      <g transform="translate(22.81375 322.849219)scale(0.1 -0.1)">
       <use xlink:href="#DejaVuSans-30"/>
       <use xlink:href="#DejaVuSans-2e" x="63.623047"/>
       <use xlink:href="#DejaVuSans-30" x="95.410156"/>
      </g>
     </g>
    </g>
    <g id="ytick_2">
     <g id="line2d_7">
      <g>
       <use xlink:href="#m9c39aef2a9" x="45.716875" y="277.47" style="stroke: #000000; stroke-width: 0.8"/>
      </g>
     </g>
     <g id="text_8">
      <!-- 0.2 -->
      <g transform="translate(22.81375 281.269219)scale(0.1 -0.1)">
       <use xlink:href="#DejaVuSans-30"/>
       <use xlink:href="#DejaVuSans-2e" x="63.623047"/>
       <use xlink:href="#DejaVuSans-32" x="95.410156"/>
      </g>
     </g>
    </g>
    <g id="ytick_3">
     <g id="line2d_8">
      <g>
       <use xlink:href="#m9c39aef2a9" x="45.716875" y="235.89" style="stroke: #000000; stroke-width: 0.8"/>
      </g>
     </g>
     <g id="text_9">
      <!-- 0.4 -->
      <g transform="translate(22.81375 239.689219)scale(0.1 -0.1)">
       <use xlink:href="#DejaVuSans-30"/>
       <use xlink:href="#DejaVuSans-2e" x="63.623047"/>
       <use xlink:href="#DejaVuSans-34" x="95.410156"/>
      </g>
     </g>
    </g>
    <g id="ytick_4">
     <g id="line2d_9">
      <g>
       <use xlink:href="#m9c39aef2a9" x="45.716875" y="194.31" style="stroke: #000000; stroke-width: 0.8"/>
      </g>
     </g>
     <g id="text_10">
      <!-- 0.6 -->
      <g transform="translate(22.81375 198.109219)scale(0.1 -0.1)">
       <defs>
        <path id="DejaVuSans-36" d="M 2113 2584 
Q 1688 2584 1439 2293 
Q 1191 2003 1191 1497 
Q 1191 994 1439 701 
Q 1688 409 2113 409 
Q 2538 409 2786 701 
Q 3034 994 3034 1497 
Q 3034 2003 2786 2293 
Q 2538 2584 2113 2584 
z
M 3366 4563 
L 3366 3988 
Q 3128 4100 2886 4159 
Q 2644 4219 2406 4219 
Q 1781 4219 1451 3797 
Q 1122 3375 1075 2522 
Q 1259 2794 1537 2939 
Q 1816 3084 2150 3084 
Q 2853 3084 3261 2657 
Q 3669 2231 3669 1497 
Q 3669 778 3244 343 
Q 2819 -91 2113 -91 
Q 1303 -91 875 529 
Q 447 1150 447 2328 
Q 447 3434 972 4092 
Q 1497 4750 2381 4750 
Q 2619 4750 2861 4703 
Q 3103 4656 3366 4563 
z
" transform="scale(0.015625)"/>
       </defs>
       <use xlink:href="#DejaVuSans-30"/>
       <use xlink:href="#DejaVuSans-2e" x="63.623047"/>
       <use xlink:href="#DejaVuSans-36" x="95.410156"/>
      </g>
     </g>
    </g>
    <g id="ytick_5">
     <g id="line2d_10">
      <g>
       <use xlink:href="#m9c39aef2a9" x="45.716875" y="152.73" style="stroke: #000000; stroke-width: 0.8"/>
      </g>
     </g>
     <g id="text_11">
      <!-- 0.8 -->
      <g transform="translate(22.81375 156.529219)scale(0.1 -0.1)">
       <defs>
        <path id="DejaVuSans-38" d="M 2034 2216 
Q 1584 2216 1326 1975 
Q 1069 1734 1069 1313 
Q 1069 891 1326 650 
Q 1584 409 2034 409 
Q 2484 409 2743 651 
Q 3003 894 3003 1313 
Q 3003 1734 2745 1975 
Q 2488 2216 2034 2216 
z
M 1403 2484 
Q 997 2584 770 2862 
Q 544 3141 544 3541 
Q 544 4100 942 4425 
Q 1341 4750 2034 4750 
Q 2731 4750 3128 4425 
Q 3525 4100 3525 3541 
Q 3525 3141 3298 2862 
Q 3072 2584 2669 2484 
Q 3125 2378 3379 2068 
Q 3634 1759 3634 1313 
Q 3634 634 3220 271 
Q 2806 -91 2034 -91 
Q 1263 -91 848 271 
Q 434 634 434 1313 
Q 434 1759 690 2068 
Q 947 2378 1403 2484 
z
M 1172 3481 
Q 1172 3119 1398 2916 
Q 1625 2713 2034 2713 
Q 2441 2713 2670 2916 
Q 2900 3119 2900 3481 
Q 2900 3844 2670 4047 
Q 2441 4250 2034 4250 
Q 1625 4250 1398 4047 
Q 1172 3844 1172 3481 
z
" transform="scale(0.015625)"/>
       </defs>
       <use xlink:href="#DejaVuSans-30"/>
       <use xlink:href="#DejaVuSans-2e" x="63.623047"/>
       <use xlink:href="#DejaVuSans-38" x="95.410156"/>
      </g>
     </g>
    </g>
    <g id="ytick_6">
     <g id="line2d_11">
      <g>
       <use xlink:href="#m9c39aef2a9" x="45.716875" y="111.15" style="stroke: #000000; stroke-width: 0.8"/>
      </g>
     </g>
     <g id="text_12">
      <!-- 1.0 -->
      <g transform="translate(22.81375 114.949219)scale(0.1 -0.1)">
       <defs>
        <path id="DejaVuSans-31" d="M 794 531 
L 1825 531 
L 1825 4091 
L 703 3866 
L 703 4441 
L 1819 4666 
L 2450 4666 
L 2450 531 
L 3481 531 
L 3481 0 
L 794 0 
L 794 531 
z
" transform="scale(0.015625)"/>
       </defs>
       <use xlink:href="#DejaVuSans-31"/>
       <use xlink:href="#DejaVuSans-2e" x="63.623047"/>
       <use xlink:href="#DejaVuSans-30" x="95.410156"/>
      </g>
     </g>
    </g>
    <g id="ytick_7">
     <g id="line2d_12">
      <g>
       <use xlink:href="#m9c39aef2a9" x="45.716875" y="69.57" style="stroke: #000000; stroke-width: 0.8"/>
      </g>
     </g>
     <g id="text_13">
      <!-- 1.2 -->
      <g transform="translate(22.81375 73.369219)scale(0.1 -0.1)">
       <use xlink:href="#DejaVuSans-31"/>
       <use xlink:href="#DejaVuSans-2e" x="63.623047"/>
       <use xlink:href="#DejaVuSans-32" x="95.410156"/>
      </g>
     </g>
    </g>
    <g id="ytick_8">
     <g id="line2d_13">
      <g>
       <use xlink:href="#m9c39aef2a9" x="45.716875" y="27.99" style="stroke: #000000; stroke-width: 0.8"/>
      </g>
     </g>
     <g id="text_14">
      <!-- 1.4 -->
      <g transform="translate(22.81375 31.789219)scale(0.1 -0.1)">
       <use xlink:href="#DejaVuSans-31"/>
       <use xlink:href="#DejaVuSans-2e" x="63.623047"/>
       <use xlink:href="#DejaVuSans-34" x="95.410156"/>
      </g>
     </g>
    </g>
    <g id="text_15">
     <!-- amplitude [a.u.] -->
     <g transform="translate(16.318125 221.721562)rotate(-90)scale(0.12 -0.12)">
      <defs>
       <path id="DejaVuSans-6d" d="M 3328 2828 
Q 3544 3216 3844 3400 
Q 4144 3584 4550 3584 
Q 5097 3584 5394 3201 
Q 5691 2819 5691 2113 
L 5691 0 
L 5113 0 
L 5113 2094 
Q 5113 2597 4934 2840 
Q 4756 3084 4391 3084 
Q 3944 3084 3684 2787 
Q 3425 2491 3425 1978 
L 3425 0 
L 2847 0 
L 2847 2094 
Q 2847 2600 2669 2842 
Q 2491 3084 2119 3084 
Q 1678 3084 1418 2786 
Q 1159 2488 1159 1978 
L 1159 0 
L 581 0 
L 581 3500 
L 1159 3500 
L 1159 2956 
Q 1356 3278 1631 3431 
Q 1906 3584 2284 3584 
Q 2666 3584 2933 3390 
Q 3200 3197 3328 2828 
z
" transform="scale(0.015625)"/>
       <path id="DejaVuSans-70" d="M 1159 525 
L 1159 -1331 
L 581 -1331 
L 581 3500 
L 1159 3500 
L 1159 2969 
Q 1341 3281 1617 3432 
Q 1894 3584 2278 3584 
Q 2916 3584 3314 3078 
Q 3713 2572 3713 1747 
Q 3713 922 3314 415 
Q 2916 -91 2278 -91 
Q 1894 -91 1617 61 
Q 1341 213 1159 525 
z
M 3116 1747 
Q 3116 2381 2855 2742 
Q 2594 3103 2138 3103 
Q 1681 3103 1420 2742 
Q 1159 2381 1159 1747 
Q 1159 1113 1420 752 
Q 1681 391 2138 391 
Q 2594 391 2855 752 
Q 3116 1113 3116 1747 
z
" transform="scale(0.015625)"/>
       <path id="DejaVuSans-6c" d="M 603 4863 
L 1178 4863 
L 1178 0 
L 603 0 
L 603 4863 
z
" transform="scale(0.015625)"/>
       <path id="DejaVuSans-69" d="M 603 3500 
L 1178 3500 
L 1178 0 
L 603 0 
L 603 3500 
z
M 603 4863 
L 1178 4863 
L 1178 4134 
L 603 4134 
L 603 4863 
z
" transform="scale(0.015625)"/>
       <path id="DejaVuSans-74" d="M 1172 4494 
L 1172 3500 
L 2356 3500 
L 2356 3053 
L 1172 3053 
L 1172 1153 
Q 1172 725 1289 603 
Q 1406 481 1766 481 
L 2356 481 
L 2356 0 
L 1766 0 
Q 1100 0 847 248 
Q 594 497 594 1153 
L 594 3053 
L 172 3053 
L 172 3500 
L 594 3500 
L 594 4494 
L 1172 4494 
z
" transform="scale(0.015625)"/>
       <path id="DejaVuSans-64" d="M 2906 2969 
L 2906 4863 
L 3481 4863 
L 3481 0 
L 2906 0 
L 2906 525 
Q 2725 213 2448 61 
Q 2172 -91 1784 -91 
Q 1150 -91 751 415 
Q 353 922 353 1747 
Q 353 2572 751 3078 
Q 1150 3584 1784 3584 
Q 2172 3584 2448 3432 
Q 2725 3281 2906 2969 
z
M 947 1747 
Q 947 1113 1208 752 
Q 1469 391 1925 391 
Q 2381 391 2643 752 
Q 2906 1113 2906 1747 
Q 2906 2381 2643 2742 
Q 2381 3103 1925 3103 
Q 1469 3103 1208 2742 
Q 947 2381 947 1747 
z
" transform="scale(0.015625)"/>
       <path id="DejaVuSans-65" d="M 3597 1894 
L 3597 1613 
L 953 1613 
Q 991 1019 1311 708 
Q 1631 397 2203 397 
Q 2534 397 2845 478 
Q 3156 559 3463 722 
L 3463 178 
Q 3153 47 2828 -22 
Q 2503 -91 2169 -91 
Q 1331 -91 842 396 
Q 353 884 353 1716 
Q 353 2575 817 3079 
Q 1281 3584 2069 3584 
Q 2775 3584 3186 3129 
Q 3597 2675 3597 1894 
z
M 3022 2063 
Q 3016 2534 2758 2815 
Q 2500 3097 2075 3097 
Q 1594 3097 1305 2825 
Q 1016 2553 972 2059 
L 3022 2063 
z
" transform="scale(0.015625)"/>
      </defs>
      <use xlink:href="#DejaVuSans-61"/>
      <use xlink:href="#DejaVuSans-6d" x="61.279297"/>
      <use xlink:href="#DejaVuSans-70" x="158.691406"/>
      <use xlink:href="#DejaVuSans-6c" x="222.167969"/>
      <use xlink:href="#DejaVuSans-69" x="249.951172"/>
      <use xlink:href="#DejaVuSans-74" x="277.734375"/>
      <use xlink:href="#DejaVuSans-75" x="316.943359"/>
      <use xlink:href="#DejaVuSans-64" x="380.322266"/>
      <use xlink:href="#DejaVuSans-65" x="443.798828"/>
      <use xlink:href="#DejaVuSans-20" x="505.322266"/>
      <use xlink:href="#DejaVuSans-5b" x="537.109375"/>
      <use xlink:href="#DejaVuSans-61" x="576.123047"/>
      <use xlink:href="#DejaVuSans-2e" x="637.402344"/>
      <use xlink:href="#DejaVuSans-75" x="669.189453"/>
      <use xlink:href="#DejaVuSans-2e" x="732.568359"/>
      <use xlink:href="#DejaVuSans-5d" x="764.355469"/>
     </g>
    </g>
   </g>
   <g id="line2d_14">
    <path d="M 45.716875 311.10969 
L 49.098693 312.307803 
L 52.480511 325.647547 
L 55.86233 315.281796 
L 59.244148 308.835182 
L 62.625966 317.293007 
L 66.007784 309.619017 
L 69.389602 306.530004 
L 72.77142 324.621195 
L 76.153239 310.719338 
L 79.535057 311.592054 
L 82.916875 307.30034 
L 86.298693 317.23561 
L 89.680511 308.371665 
L 93.06233 314.848521 
L 96.444148 310.157838 
L 99.825966 314.911497 
L 103.207784 306.055842 
L 106.589602 304.902869 
L 109.97142 312.166699 
L 113.353239 312.76146 
L 116.735057 317.112011 
L 120.116875 307.06792 
L 123.498693 315.108834 
L 126.880511 319.330406 
L 130.26233 312.136265 
L 133.644148 316.186995 
L 137.025966 312.303564 
L 140.407784 311.91662 
L 143.789602 305.751702 
L 147.17142 314.072728 
L 150.553239 315.203977 
L 153.935057 310.421429 
L 157.316875 298.340391 
L 160.698693 309.069787 
L 164.080511 304.668598 
L 167.46233 286.630487 
L 170.844148 294.452415 
L 174.225966 280.421928 
L 177.607784 287.989395 
L 180.989602 283.192885 
L 184.37142 262.009713 
L 187.753239 263.411938 
L 191.135057 247.459465 
L 194.516875 228.954159 
L 197.898693 210.465159 
L 201.280511 171.868002 
L 204.66233 160.292839 
L 208.044148 137.36335 
L 211.425966 107.380816 
L 214.807784 105.73628 
L 218.189602 131.974645 
L 221.57142 146.657724 
L 224.953239 179.709871 
L 228.335057 196.7137 
L 231.716875 228.665885 
L 235.098693 242.716694 
L 238.480511 265.645181 
L 241.86233 256.954183 
L 245.244148 273.409584 
L 248.625966 274.577711 
L 252.007784 278.954923 
L 255.389602 280.977364 
L 258.77142 292.661409 
L 262.153239 296.988099 
L 265.535057 301.275631 
L 268.916875 306.846388 
L 272.298693 311.514242 
L 275.680511 311.628948 
L 279.06233 300.605387 
L 282.444148 305.799216 
L 285.825966 304.768943 
L 289.207784 306.066159 
L 292.589602 305.07545 
L 295.97142 310.788685 
L 299.353239 306.020182 
L 302.735057 316.883589 
L 306.116875 311.255416 
L 309.498693 308.139742 
L 312.880511 319.785214 
L 316.26233 304.644089 
L 319.644148 304.769184 
L 323.025966 318.075843 
L 326.407784 316.393578 
L 329.789602 312.257476 
L 333.17142 309.030009 
L 336.553239 320.488714 
L 339.935057 316.252309 
L 343.316875 313.9376 
L 346.698693 313.508009 
L 350.080511 307.192408 
L 353.46233 314.476663 
L 356.844148 325.196262 
L 360.225966 318.836498 
L 363.607784 310.852323 
L 366.989602 322.493482 
L 370.37142 325.457046 
L 373.753239 320.950939 
L 377.135057 322.60213 
L 380.516875 317.161753 
" clip-path="url(#p2bdba78907)" style="fill: none; stroke: #1f77b4; stroke-width: 1.5; stroke-linecap: square"/>
   </g>
   <g id="line2d_15">
    <path d="M 45.716875 316.516287 
L 49.098693 316.195354 
L 52.480511 315.849395 
L 55.86233 315.196648 
L 59.244148 314.290798 
L 62.625966 313.489135 
L 66.007784 313.098303 
L 69.389602 313.086656 
L 72.77142 313.119137 
L 76.153239 312.901179 
L 79.535057 312.478699 
L 82.916875 312.12183 
L 86.298693 311.971893 
L 89.680511 311.911598 
L 93.06233 311.71825 
L 96.444148 311.260215 
L 99.825966 310.627705 
L 103.207784 310.150674 
L 106.589602 310.188707 
L 109.97142 310.805901 
L 113.353239 311.718158 
L 116.735057 312.599504 
L 120.116875 313.337041 
L 123.498693 313.922773 
L 126.880511 314.246814 
L 130.26233 314.139249 
L 133.644148 313.573437 
L 137.025966 312.745395 
L 140.407784 311.953313 
L 143.789602 311.347187 
L 147.17142 310.733686 
L 150.553239 309.696398 
L 153.935057 307.950575 
L 157.316875 305.486986 
L 160.698693 302.380661 
L 164.080511 298.686743 
L 167.46233 294.575375 
L 170.844148 290.291162 
L 174.225966 285.80258 
L 177.607784 280.599004 
L 180.989602 273.929904 
L 184.37142 265.157508 
L 187.753239 253.814703 
L 191.135057 239.523473 
L 194.516875 222.182614 
L 197.898693 202.358061 
L 201.280511 181.456295 
L 204.66233 161.600028 
L 208.044148 145.43643 
L 211.425966 135.777458 
L 214.807784 134.711191 
L 218.189602 142.560939 
L 221.57142 157.665907 
L 224.953239 177.206735 
L 228.335057 198.250754 
L 231.716875 218.334663 
L 235.098693 235.698109 
L 238.480511 249.489145 
L 241.86233 259.843896 
L 245.244148 267.605186 
L 248.625966 273.821384 
L 252.007784 279.374853 
L 255.389602 284.813386 
L 258.77142 290.278391 
L 262.153239 295.542535 
L 265.535057 300.165627 
L 268.916875 303.669602 
L 272.298693 305.731131 
L 275.680511 306.411819 
L 279.06233 306.230118 
L 282.444148 305.889843 
L 285.825966 305.891262 
L 289.207784 306.390801 
L 292.589602 307.321994 
L 295.97142 308.519504 
L 299.353239 309.749117 
L 302.735057 310.743699 
L 306.116875 311.304499 
L 309.498693 311.407003 
L 312.880511 311.251122 
L 316.26233 311.209685 
L 319.644148 311.58551 
L 323.025966 312.333987 
L 326.407784 313.140092 
L 329.789602 313.789138 
L 333.17142 314.278323 
L 336.553239 314.578338 
L 339.935057 314.563099 
L 343.316875 314.288319 
L 346.698693 314.152233 
L 350.080511 314.593017 
L 353.46233 315.640521 
L 356.844148 316.903532 
L 360.225966 318.034219 
L 363.607784 319.027304 
L 366.989602 319.960839 
L 370.37142 320.667496 
L 373.753239 320.872068 
L 377.135057 320.546622 
L 380.516875 319.96657 
" clip-path="url(#p2bdba78907)" style="fill: none; stroke: #ff7f0e; stroke-width: 1.5; stroke-linecap: square"/>
   </g>
   <g id="line2d_16">
    <path d="M 45.716875 317.433008 
L 49.098693 316.679367 
L 52.480511 314.636404 
L 55.86233 315.873067 
L 59.244148 315.33531 
L 62.625966 311.511801 
L 66.007784 313.379681 
L 69.389602 313.756512 
L 72.77142 312.616322 
L 76.153239 312.152586 
L 79.535057 314.293708 
L 82.916875 311.043802 
L 86.298693 311.869638 
L 89.680511 311.582795 
L 93.06233 313.105026 
L 96.444148 310.869073 
L 99.825966 310.175314 
L 103.207784 309.638949 
L 106.589602 310.159673 
L 109.97142 310.599776 
L 113.353239 310.802192 
L 116.735057 312.843385 
L 120.116875 314.276126 
L 123.498693 314.151087 
L 126.880511 313.966084 
L 130.26233 315.013213 
L 133.644148 314.37477 
L 137.025966 311.659029 
L 140.407784 312.046322 
L 143.789602 311.849718 
L 147.17142 311.473291 
L 150.553239 308.758045 
L 153.935057 309.421662 
L 157.316875 307.540836 
L 160.698693 301.826138 
L 164.080511 298.632336 
L 167.46233 295.048643 
L 170.844148 290.832565 
L 174.225966 286.537422 
L 177.607784 281.613267 
L 180.989602 275.405172 
L 184.37142 268.812679 
L 187.753239 257.005632 
L 191.135057 242.460087 
L 194.516875 224.431745 
L 197.898693 203.807925 
L 201.280511 181.788702 
L 204.66233 157.474033 
L 208.044148 136.528257 
L 211.425966 128.549586 
L 214.807784 125.822563 
L 218.189602 134.291867 
L 221.57142 152.158444 
L 224.953239 176.744365 
L 228.335057 198.892775 
L 231.716875 222.690266 
L 235.098693 238.139129 
L 238.480511 253.478306 
L 241.86233 262.660671 
L 245.244148 269.908316 
L 248.625966 272.974753 
L 252.007784 280.116198 
L 255.389602 284.831901 
L 258.77142 290.171485 
L 262.153239 295.749778 
L 265.535057 301.857154 
L 268.916875 305.650662 
L 272.298693 306.374119 
L 275.680511 307.278836 
L 279.06233 306.863347 
L 282.444148 305.773731 
L 285.825966 304.463031 
L 289.207784 306.499691 
L 292.589602 306.543884 
L 295.97142 308.966813 
L 299.353239 310.004664 
L 302.735057 310.617523 
L 306.116875 312.416829 
L 309.498693 312.14161 
L 312.880511 309.718729 
L 316.26233 311.082814 
L 319.644148 312.733582 
L 323.025966 311.228034 
L 326.407784 312.105218 
L 329.789602 315.249124 
L 333.17142 314.884417 
L 336.553239 314.393222 
L 339.935057 314.643328 
L 343.316875 314.275808 
L 346.698693 313.073398 
L 350.080511 314.862188 
L 353.46233 315.841968 
L 356.844148 315.310831 
L 360.225966 318.371046 
L 363.607784 320.567122 
L 366.989602 319.718058 
L 370.37142 320.471184 
L 373.753239 321.73307 
L 377.135057 321.044374 
L 380.516875 319.762964 
" clip-path="url(#p2bdba78907)" style="fill: none; stroke: #2ca02c; stroke-width: 1.5; stroke-linecap: square"/>
   </g>
   <g id="patch_3">
    <path d="M 45.716875 339.84 
L 45.716875 7.2 
" style="fill: none; stroke: #000000; stroke-width: 0.8; stroke-linejoin: miter; stroke-linecap: square"/>
   </g>
   <g id="patch_4">
    <path d="M 380.516875 339.84 
L 380.516875 7.2 
" style="fill: none; stroke: #000000; stroke-width: 0.8; stroke-linejoin: miter; stroke-linecap: square"/>
   </g>
   <g id="patch_5">
    <path d="M 45.716875 339.84 
L 380.516875 339.84 
" style="fill: none; stroke: #000000; stroke-width: 0.8; stroke-linejoin: miter; stroke-linecap: square"/>
   </g>
   <g id="patch_6">
    <path d="M 45.716875 7.2 
L 380.516875 7.2 
" style="fill: none; stroke: #000000; stroke-width: 0.8; stroke-linejoin: miter; stroke-linecap: square"/>
   </g>
   <g id="legend_1">
    <g id="patch_7">
     <path d="M 129.70375 69.64125 
L 372.116875 69.64125 
Q 374.516875 69.64125 374.516875 67.24125 
L 374.516875 15.6 
Q 374.516875 13.2 372.116875 13.2 
L 129.70375 13.2 
Q 127.30375 13.2 127.30375 15.6 
L 127.30375 67.24125 
Q 127.30375 69.64125 129.70375 69.64125 
z
" style="fill: #ffffff; opacity: 0.8; stroke: #cccccc; stroke-linejoin: miter"/>
    </g>
    <g id="line2d_17">
     <path d="M 132.10375 22.918125 
L 144.10375 22.918125 
L 156.10375 22.918125 
" style="fill: none; stroke: #1f77b4; stroke-width: 1.5; stroke-linecap: square"/>
    </g>
    <g id="text_16">
     <!-- Original -->
     <g transform="translate(165.70375 27.118125)scale(0.12 -0.12)">
      <defs>
       <path id="DejaVuSans-4f" d="M 2522 4238 
Q 1834 4238 1429 3725 
Q 1025 3213 1025 2328 
Q 1025 1447 1429 934 
Q 1834 422 2522 422 
Q 3209 422 3611 934 
Q 4013 1447 4013 2328 
Q 4013 3213 3611 3725 
Q 3209 4238 2522 4238 
z
M 2522 4750 
Q 3503 4750 4090 4092 
Q 4678 3434 4678 2328 
Q 4678 1225 4090 567 
Q 3503 -91 2522 -91 
Q 1538 -91 948 565 
Q 359 1222 359 2328 
Q 359 3434 948 4092 
Q 1538 4750 2522 4750 
z
" transform="scale(0.015625)"/>
       <path id="DejaVuSans-72" d="M 2631 2963 
Q 2534 3019 2420 3045 
Q 2306 3072 2169 3072 
Q 1681 3072 1420 2755 
Q 1159 2438 1159 1844 
L 1159 0 
L 581 0 
L 581 3500 
L 1159 3500 
L 1159 2956 
Q 1341 3275 1631 3429 
Q 1922 3584 2338 3584 
Q 2397 3584 2469 3576 
Q 2541 3569 2628 3553 
L 2631 2963 
z
" transform="scale(0.015625)"/>
       <path id="DejaVuSans-67" d="M 2906 1791 
Q 2906 2416 2648 2759 
Q 2391 3103 1925 3103 
Q 1463 3103 1205 2759 
Q 947 2416 947 1791 
Q 947 1169 1205 825 
Q 1463 481 1925 481 
Q 2391 481 2648 825 
Q 2906 1169 2906 1791 
z
M 3481 434 
Q 3481 -459 3084 -895 
Q 2688 -1331 1869 -1331 
Q 1566 -1331 1297 -1286 
Q 1028 -1241 775 -1147 
L 775 -588 
Q 1028 -725 1275 -790 
Q 1522 -856 1778 -856 
Q 2344 -856 2625 -561 
Q 2906 -266 2906 331 
L 2906 616 
Q 2728 306 2450 153 
Q 2172 0 1784 0 
Q 1141 0 747 490 
Q 353 981 353 1791 
Q 353 2603 747 3093 
Q 1141 3584 1784 3584 
Q 2172 3584 2450 3431 
Q 2728 3278 2906 2969 
L 2906 3500 
L 3481 3500 
L 3481 434 
z
" transform="scale(0.015625)"/>
       <path id="DejaVuSans-6e" d="M 3513 2113 
L 3513 0 
L 2938 0 
L 2938 2094 
Q 2938 2591 2744 2837 
Q 2550 3084 2163 3084 
Q 1697 3084 1428 2787 
Q 1159 2491 1159 1978 
L 1159 0 
L 581 0 
L 581 3500 
L 1159 3500 
L 1159 2956 
Q 1366 3272 1645 3428 
Q 1925 3584 2291 3584 
Q 2894 3584 3203 3211 
Q 3513 2838 3513 2113 
z
" transform="scale(0.015625)"/>
      </defs>
      <use xlink:href="#DejaVuSans-4f"/>
      <use xlink:href="#DejaVuSans-72" x="78.710938"/>
      <use xlink:href="#DejaVuSans-69" x="119.824219"/>
      <use xlink:href="#DejaVuSans-67" x="147.607422"/>
      <use xlink:href="#DejaVuSans-69" x="211.083984"/>
      <use xlink:href="#DejaVuSans-6e" x="238.867188"/>
      <use xlink:href="#DejaVuSans-61" x="302.246094"/>
      <use xlink:href="#DejaVuSans-6c" x="363.525391"/>
     </g>
    </g>
    <g id="line2d_18">
     <path d="M 132.10375 40.531875 
L 144.10375 40.531875 
L 156.10375 40.531875 
" style="fill: none; stroke: #ff7f0e; stroke-width: 1.5; stroke-linecap: square"/>
    </g>
    <g id="text_17">
     <!-- Smoothed with Gaussian1DKernel -->
     <g transform="translate(165.70375 44.731875)scale(0.12 -0.12)">
      <defs>
       <path id="DejaVuSans-53" d="M 3425 4513 
L 3425 3897 
Q 3066 4069 2747 4153 
Q 2428 4238 2131 4238 
Q 1616 4238 1336 4038 
Q 1056 3838 1056 3469 
Q 1056 3159 1242 3001 
Q 1428 2844 1947 2747 
L 2328 2669 
Q 3034 2534 3370 2195 
Q 3706 1856 3706 1288 
Q 3706 609 3251 259 
Q 2797 -91 1919 -91 
Q 1588 -91 1214 -16 
Q 841 59 441 206 
L 441 856 
Q 825 641 1194 531 
Q 1563 422 1919 422 
Q 2459 422 2753 634 
Q 3047 847 3047 1241 
Q 3047 1584 2836 1778 
Q 2625 1972 2144 2069 
L 1759 2144 
Q 1053 2284 737 2584 
Q 422 2884 422 3419 
Q 422 4038 858 4394 
Q 1294 4750 2059 4750 
Q 2388 4750 2728 4690 
Q 3069 4631 3425 4513 
z
" transform="scale(0.015625)"/>
       <path id="DejaVuSans-6f" d="M 1959 3097 
Q 1497 3097 1228 2736 
Q 959 2375 959 1747 
Q 959 1119 1226 758 
Q 1494 397 1959 397 
Q 2419 397 2687 759 
Q 2956 1122 2956 1747 
Q 2956 2369 2687 2733 
Q 2419 3097 1959 3097 
z
M 1959 3584 
Q 2709 3584 3137 3096 
Q 3566 2609 3566 1747 
Q 3566 888 3137 398 
Q 2709 -91 1959 -91 
Q 1206 -91 779 398 
Q 353 888 353 1747 
Q 353 2609 779 3096 
Q 1206 3584 1959 3584 
z
" transform="scale(0.015625)"/>
       <path id="DejaVuSans-68" d="M 3513 2113 
L 3513 0 
L 2938 0 
L 2938 2094 
Q 2938 2591 2744 2837 
Q 2550 3084 2163 3084 
Q 1697 3084 1428 2787 
Q 1159 2491 1159 1978 
L 1159 0 
L 581 0 
L 581 4863 
L 1159 4863 
L 1159 2956 
Q 1366 3272 1645 3428 
Q 1925 3584 2291 3584 
Q 2894 3584 3203 3211 
Q 3513 2838 3513 2113 
z
" transform="scale(0.015625)"/>
       <path id="DejaVuSans-77" d="M 269 3500 
L 844 3500 
L 1563 769 
L 2278 3500 
L 2956 3500 
L 3675 769 
L 4391 3500 
L 4966 3500 
L 4050 0 
L 3372 0 
L 2619 2869 
L 1863 0 
L 1184 0 
L 269 3500 
z
" transform="scale(0.015625)"/>
       <path id="DejaVuSans-47" d="M 3809 666 
L 3809 1919 
L 2778 1919 
L 2778 2438 
L 4434 2438 
L 4434 434 
Q 4069 175 3628 42 
Q 3188 -91 2688 -91 
Q 1594 -91 976 548 
Q 359 1188 359 2328 
Q 359 3472 976 4111 
Q 1594 4750 2688 4750 
Q 3144 4750 3555 4637 
Q 3966 4525 4313 4306 
L 4313 3634 
Q 3963 3931 3569 4081 
Q 3175 4231 2741 4231 
Q 1884 4231 1454 3753 
Q 1025 3275 1025 2328 
Q 1025 1384 1454 906 
Q 1884 428 2741 428 
Q 3075 428 3337 486 
Q 3600 544 3809 666 
z
" transform="scale(0.015625)"/>
       <path id="DejaVuSans-73" d="M 2834 3397 
L 2834 2853 
Q 2591 2978 2328 3040 
Q 2066 3103 1784 3103 
Q 1356 3103 1142 2972 
Q 928 2841 928 2578 
Q 928 2378 1081 2264 
Q 1234 2150 1697 2047 
L 1894 2003 
Q 2506 1872 2764 1633 
Q 3022 1394 3022 966 
Q 3022 478 2636 193 
Q 2250 -91 1575 -91 
Q 1294 -91 989 -36 
Q 684 19 347 128 
L 347 722 
Q 666 556 975 473 
Q 1284 391 1588 391 
Q 1994 391 2212 530 
Q 2431 669 2431 922 
Q 2431 1156 2273 1281 
Q 2116 1406 1581 1522 
L 1381 1569 
Q 847 1681 609 1914 
Q 372 2147 372 2553 
Q 372 3047 722 3315 
Q 1072 3584 1716 3584 
Q 2034 3584 2315 3537 
Q 2597 3491 2834 3397 
z
" transform="scale(0.015625)"/>
       <path id="DejaVuSans-44" d="M 1259 4147 
L 1259 519 
L 2022 519 
Q 2988 519 3436 956 
Q 3884 1394 3884 2338 
Q 3884 3275 3436 3711 
Q 2988 4147 2022 4147 
L 1259 4147 
z
M 628 4666 
L 1925 4666 
Q 3281 4666 3915 4102 
Q 4550 3538 4550 2338 
Q 4550 1131 3912 565 
Q 3275 0 1925 0 
L 628 0 
L 628 4666 
z
" transform="scale(0.015625)"/>
       <path id="DejaVuSans-4b" d="M 628 4666 
L 1259 4666 
L 1259 2694 
L 3353 4666 
L 4166 4666 
L 1850 2491 
L 4331 0 
L 3500 0 
L 1259 2247 
L 1259 0 
L 628 0 
L 628 4666 
z
" transform="scale(0.015625)"/>
      </defs>
      <use xlink:href="#DejaVuSans-53"/>
      <use xlink:href="#DejaVuSans-6d" x="63.476562"/>
      <use xlink:href="#DejaVuSans-6f" x="160.888672"/>
      <use xlink:href="#DejaVuSans-6f" x="222.070312"/>
      <use xlink:href="#DejaVuSans-74" x="283.251953"/>
      <use xlink:href="#DejaVuSans-68" x="322.460938"/>
      <use xlink:href="#DejaVuSans-65" x="385.839844"/>
      <use xlink:href="#DejaVuSans-64" x="447.363281"/>
      <use xlink:href="#DejaVuSans-20" x="510.839844"/>
      <use xlink:href="#DejaVuSans-77" x="542.626953"/>
      <use xlink:href="#DejaVuSans-69" x="624.414062"/>
      <use xlink:href="#DejaVuSans-74" x="652.197266"/>
      <use xlink:href="#DejaVuSans-68" x="691.40625"/>
      <use xlink:href="#DejaVuSans-20" x="754.785156"/>
      <use xlink:href="#DejaVuSans-47" x="786.572266"/>
      <use xlink:href="#DejaVuSans-61" x="864.0625"/>
      <use xlink:href="#DejaVuSans-75" x="925.341797"/>
      <use xlink:href="#DejaVuSans-73" x="988.720703"/>
      <use xlink:href="#DejaVuSans-73" x="1040.820312"/>
      <use xlink:href="#DejaVuSans-69" x="1092.919922"/>
      <use xlink:href="#DejaVuSans-61" x="1120.703125"/>
      <use xlink:href="#DejaVuSans-6e" x="1181.982422"/>
      <use xlink:href="#DejaVuSans-31" x="1245.361328"/>
      <use xlink:href="#DejaVuSans-44" x="1308.984375"/>
      <use xlink:href="#DejaVuSans-4b" x="1385.986328"/>
      <use xlink:href="#DejaVuSans-65" x="1446.5625"/>
      <use xlink:href="#DejaVuSans-72" x="1508.085938"/>
      <use xlink:href="#DejaVuSans-6e" x="1547.449219"/>
      <use xlink:href="#DejaVuSans-65" x="1610.828125"/>
      <use xlink:href="#DejaVuSans-6c" x="1672.351562"/>
     </g>
    </g>
    <g id="line2d_19">
     <path d="M 132.10375 58.145625 
L 144.10375 58.145625 
L 156.10375 58.145625 
" style="fill: none; stroke: #2ca02c; stroke-width: 1.5; stroke-linecap: square"/>
    </g>
    <g id="text_18">
     <!-- Smoothed with Box1DKernel -->
     <g transform="translate(165.70375 62.345625)scale(0.12 -0.12)">
      <defs>
       <path id="DejaVuSans-42" d="M 1259 2228 
L 1259 519 
L 2272 519 
Q 2781 519 3026 730 
Q 3272 941 3272 1375 
Q 3272 1813 3026 2020 
Q 2781 2228 2272 2228 
L 1259 2228 
z
M 1259 4147 
L 1259 2741 
L 2194 2741 
Q 2656 2741 2882 2914 
Q 3109 3088 3109 3444 
Q 3109 3797 2882 3972 
Q 2656 4147 2194 4147 
L 1259 4147 
z
M 628 4666 
L 2241 4666 
Q 2963 4666 3353 4366 
Q 3744 4066 3744 3513 
Q 3744 3084 3544 2831 
Q 3344 2578 2956 2516 
Q 3422 2416 3680 2098 
Q 3938 1781 3938 1306 
Q 3938 681 3513 340 
Q 3088 0 2303 0 
L 628 0 
L 628 4666 
z
" transform="scale(0.015625)"/>
      </defs>
      <use xlink:href="#DejaVuSans-53"/>
      <use xlink:href="#DejaVuSans-6d" x="63.476562"/>
      <use xlink:href="#DejaVuSans-6f" x="160.888672"/>
      <use xlink:href="#DejaVuSans-6f" x="222.070312"/>
      <use xlink:href="#DejaVuSans-74" x="283.251953"/>
      <use xlink:href="#DejaVuSans-68" x="322.460938"/>
      <use xlink:href="#DejaVuSans-65" x="385.839844"/>
      <use xlink:href="#DejaVuSans-64" x="447.363281"/>
      <use xlink:href="#DejaVuSans-20" x="510.839844"/>
      <use xlink:href="#DejaVuSans-77" x="542.626953"/>
      <use xlink:href="#DejaVuSans-69" x="624.414062"/>
      <use xlink:href="#DejaVuSans-74" x="652.197266"/>
      <use xlink:href="#DejaVuSans-68" x="691.40625"/>
      <use xlink:href="#DejaVuSans-20" x="754.785156"/>
      <use xlink:href="#DejaVuSans-42" x="786.572266"/>
      <use xlink:href="#DejaVuSans-6f" x="855.175781"/>
      <use xlink:href="#DejaVuSans-78" x="913.232422"/>
      <use xlink:href="#DejaVuSans-31" x="972.412109"/>
      <use xlink:href="#DejaVuSans-44" x="1036.035156"/>
      <use xlink:href="#DejaVuSans-4b" x="1113.037109"/>
      <use xlink:href="#DejaVuSans-65" x="1173.613281"/>
      <use xlink:href="#DejaVuSans-72" x="1235.136719"/>
      <use xlink:href="#DejaVuSans-6e" x="1274.5"/>
      <use xlink:href="#DejaVuSans-65" x="1337.878906"/>
      <use xlink:href="#DejaVuSans-6c" x="1399.402344"/>
     </g>
    </g>
   </g>
  </g>
 </g>
 <defs>
  <clipPath id="p2bdba78907">
   <rect x="45.716875" y="7.2" width="334.8" height="332.64"/>
  </clipPath>
 </defs>
</svg>
