<?xml version="1.0" encoding="utf-8" standalone="no"?>
<!DOCTYPE svg PUBLIC "-//W3C//DTD SVG 1.1//EN"
  "http://www.w3.org/Graphics/SVG/1.1/DTD/svg11.dtd">
<svg xmlns:xlink="http://www.w3.org/1999/xlink" width="482.527457pt" height="282.390242pt" viewBox="0 0 482.527457 282.390242" xmlns="http://www.w3.org/2000/svg" version="1.1">
 <metadata>
  <rdf:RDF xmlns:dc="http://purl.org/dc/elements/1.1/" xmlns:cc="http://creativecommons.org/ns#" xmlns:rdf="http://www.w3.org/1999/02/22-rdf-syntax-ns#">
   <cc:Work>
    <dc:type rdf:resource="http://purl.org/dc/dcmitype/StillImage"/>
    <dc:date>2022-05-09T11:02:32.023068</dc:date>
    <dc:format>image/svg+xml</dc:format>
    <dc:creator>
     <cc:Agent>
      <dc:title>Matplotlib v3.5.1, https://matplotlib.org/</dc:title>
     </cc:Agent>
    </dc:creator>
   </cc:Work>
  </rdf:RDF>
 </metadata>
 <defs>
  <style type="text/css">*{stroke-linejoin: round; stroke-linecap: butt}</style>
 </defs>
 <g id="figure_1">
  <g id="patch_1">
   <path d="M 0 282.390242 
L 482.527457 282.390242 
L 482.527457 0 
L 0 0 
L 0 282.390242 
z
" style="fill: none"/>
  </g>
  <g id="axes_1">
   <g id="patch_2">
    <path d="M 252.127457 263.374125 
C 311.320789 263.374125 368.097684 251.615245 409.95369 230.687242 
C 451.809697 209.759239 475.327457 181.370791 475.327457 151.774125 
C 475.327457 122.177459 451.809697 93.789011 409.95369 72.861008 
C 368.097684 51.933005 311.320789 40.174125 252.127457 40.174125 
C 192.934125 40.174125 136.15723 51.933005 94.301223 72.861008 
C 52.445217 93.789011 28.927457 122.177459 28.927457 151.774125 
C 28.927457 181.370791 52.445217 209.759239 94.301223 230.687242 
C 136.15723 251.615245 192.934125 263.374125 252.127457 263.374125 
z
" style="fill: #ffffff"/>
   </g>
   <g id="matplotlib.axis_1">
    <g id="xtick_1">
     <g id="line2d_1">
      <path d="M 198.588598 255.203258 
L 191.960661 253.643604 
L 185.469397 251.983198 
L 179.119272 250.225175 
L 172.914492 248.372665 
L 166.859014 246.428787 
L 160.956555 244.396646 
L 155.210604 242.279331 
L 149.624434 240.079911 
L 144.201113 237.801432 
L 138.943511 235.446919 
L 133.854313 233.019371 
L 128.936027 230.521759 
L 124.190992 227.957028 
L 119.621391 225.328095 
L 115.229254 222.63785 
L 111.016469 219.889151 
L 106.984792 217.08483 
L 103.135849 214.227691 
L 99.471145 211.32051 
L 95.992074 208.366034 
L 92.699919 205.366984 
L 89.595863 202.326057 
L 86.680991 199.245924 
L 83.956298 196.129231 
L 81.42269 192.978604 
L 79.080992 189.796644 
L 76.931951 186.585936 
L 74.976237 183.349043 
L 73.214451 180.088512 
L 71.647123 176.806875 
L 70.274719 173.506649 
L 69.097641 170.190338 
L 68.11623 166.860436 
L 67.330768 163.519427 
L 66.741477 160.169786 
L 66.348525 156.813985 
L 66.152021 153.454489 
L 66.152021 150.093761 
L 66.348525 146.734265 
L 66.741477 143.378464 
L 67.330768 140.028823 
L 68.11623 136.687814 
L 69.097641 133.357912 
L 70.274719 130.041601 
L 71.647123 126.741375 
L 73.214451 123.459738 
L 74.976237 120.199207 
L 76.931951 116.962314 
L 79.080992 113.751606 
L 81.42269 110.569646 
L 83.956298 107.419019 
L 86.680991 104.302326 
L 89.595863 101.222193 
L 92.699919 98.181266 
L 95.992074 95.182216 
L 99.471145 92.22774 
L 103.135849 89.320559 
L 106.984792 86.46342 
L 111.016469 83.659099 
L 115.229254 80.9104 
L 119.621391 78.220155 
L 124.190992 75.591222 
L 128.936027 73.026491 
L 133.854313 70.528879 
L 138.943511 68.101331 
L 144.201113 65.746818 
L 149.624434 63.468339 
L 155.210604 61.268919 
L 160.956555 59.151604 
L 166.859014 57.119463 
L 172.914492 55.175585 
L 179.119272 53.323075 
L 185.469397 51.565052 
L 191.960661 49.904646 
L 198.588598 48.344992 
" clip-path="url(#p13d214ebe2)" style="fill: none; stroke: #b0b0b0; stroke-width: 0.8; stroke-linecap: square"/>
     </g>
     <g id="text_1">
      <!-- -150° -->
      <g transform="translate(52.279801 145.694437)scale(0.1 -0.1)">
       <defs>
        <path id="DejaVuSans-2d" d="M 313 2009 
L 1997 2009 
L 1997 1497 
L 313 1497 
L 313 2009 
z
" transform="scale(0.015625)"/>
        <path id="DejaVuSans-31" d="M 794 531 
L 1825 531 
L 1825 4091 
L 703 3866 
L 703 4441 
L 1819 4666 
L 2450 4666 
L 2450 531 
L 3481 531 
L 3481 0 
L 794 0 
L 794 531 
z
" transform="scale(0.015625)"/>
        <path id="DejaVuSans-35" d="M 691 4666 
L 3169 4666 
L 3169 4134 
L 1269 4134 
L 1269 2991 
Q 1406 3038 1543 3061 
Q 1681 3084 1819 3084 
Q 2600 3084 3056 2656 
Q 3513 2228 3513 1497 
Q 3513 744 3044 326 
Q 2575 -91 1722 -91 
Q 1428 -91 1123 -41 
Q 819 9 494 109 
L 494 744 
Q 775 591 1075 516 
Q 1375 441 1709 441 
Q 2250 441 2565 725 
Q 2881 1009 2881 1497 
Q 2881 1984 2565 2268 
Q 2250 2553 1709 2553 
Q 1456 2553 1204 2497 
Q 953 2441 691 2322 
L 691 4666 
z
" transform="scale(0.015625)"/>
        <path id="DejaVuSans-30" d="M 2034 4250 
Q 1547 4250 1301 3770 
Q 1056 3291 1056 2328 
Q 1056 1369 1301 889 
Q 1547 409 2034 409 
Q 2525 409 2770 889 
Q 3016 1369 3016 2328 
Q 3016 3291 2770 3770 
Q 2525 4250 2034 4250 
z
M 2034 4750 
Q 2819 4750 3233 4129 
Q 3647 3509 3647 2328 
Q 3647 1150 3233 529 
Q 2819 -91 2034 -91 
Q 1250 -91 836 529 
Q 422 1150 422 2328 
Q 422 3509 836 4129 
Q 1250 4750 2034 4750 
z
" transform="scale(0.015625)"/>
        <path id="DejaVuSans-b0" d="M 1600 4347 
Q 1350 4347 1178 4173 
Q 1006 4000 1006 3750 
Q 1006 3503 1178 3333 
Q 1350 3163 1600 3163 
Q 1850 3163 2022 3333 
Q 2194 3503 2194 3750 
Q 2194 3997 2020 4172 
Q 1847 4347 1600 4347 
z
M 1600 4750 
Q 1800 4750 1984 4673 
Q 2169 4597 2303 4453 
Q 2447 4313 2519 4134 
Q 2591 3956 2591 3750 
Q 2591 3338 2302 3052 
Q 2013 2766 1594 2766 
Q 1172 2766 890 3047 
Q 609 3328 609 3750 
Q 609 4169 896 4459 
Q 1184 4750 1600 4750 
z
" transform="scale(0.015625)"/>
       </defs>
       <use xlink:href="#DejaVuSans-2d"/>
       <use xlink:href="#DejaVuSans-31" x="36.083984"/>
       <use xlink:href="#DejaVuSans-35" x="99.707031"/>
       <use xlink:href="#DejaVuSans-30" x="163.330078"/>
       <use xlink:href="#DejaVuSans-b0" x="226.953125"/>
      </g>
     </g>
    </g>
    <g id="xtick_2">
     <g id="line2d_2">
      <path d="M 205.842553 251.504232 
L 200.334952 249.580524 
L 194.984788 247.58792 
L 189.79203 245.529653 
L 184.75653 243.408826 
L 179.878032 241.228424 
L 175.156195 238.991317 
L 170.590598 236.700263 
L 166.180761 234.357916 
L 161.926148 231.966827 
L 157.826182 229.529453 
L 153.880249 227.048157 
L 150.087713 224.525218 
L 146.447918 221.96283 
L 142.960194 219.36311 
L 139.623869 216.728102 
L 136.438268 214.059777 
L 133.40272 211.360044 
L 130.516564 208.630748 
L 127.779151 205.873675 
L 125.189847 203.090559 
L 122.748039 200.283081 
L 120.453134 197.452874 
L 118.304566 194.601529 
L 116.301791 191.730593 
L 114.4443 188.841577 
L 112.731608 185.935956 
L 111.163267 183.015173 
L 109.738859 180.080642 
L 108.458002 177.133751 
L 107.320349 174.175863 
L 106.325589 171.20832 
L 105.473451 168.232448 
L 104.763697 165.249553 
L 104.196132 162.260932 
L 103.770596 159.267868 
L 103.486972 156.271636 
L 103.34518 153.273506 
L 103.34518 150.274744 
L 103.486972 147.276614 
L 103.770596 144.280382 
L 104.196132 141.287318 
L 104.763697 138.298697 
L 105.473451 135.315802 
L 106.325589 132.33993 
L 107.320349 129.372387 
L 108.458002 126.414499 
L 109.738859 123.467608 
L 111.163267 120.533077 
L 112.731608 117.612294 
L 114.4443 114.706673 
L 116.301791 111.817657 
L 118.304566 108.946721 
L 120.453134 106.095376 
L 122.748039 103.265169 
L 125.189847 100.457691 
L 127.779151 97.674575 
L 130.516564 94.917502 
L 133.40272 92.188206 
L 136.438268 89.488473 
L 139.623869 86.820148 
L 142.960194 84.18514 
L 146.447918 81.58542 
L 150.087713 79.023032 
L 153.880249 76.500093 
L 157.826182 74.018797 
L 161.926148 71.581423 
L 166.180761 69.190334 
L 170.590598 66.847987 
L 175.156195 64.556933 
L 179.878032 62.319826 
L 184.75653 60.139424 
L 189.79203 58.018597 
L 194.984788 55.96033 
L 200.334952 53.967726 
L 205.842553 52.044018 
" clip-path="url(#p13d214ebe2)" style="fill: none; stroke: #b0b0b0; stroke-width: 0.8; stroke-linecap: square"/>
     </g>
     <g id="text_2">
      <!-- -120° -->
      <g transform="translate(89.479801 145.694437)scale(0.1 -0.1)">
       <defs>
        <path id="DejaVuSans-32" d="M 1228 531 
L 3431 531 
L 3431 0 
L 469 0 
L 469 531 
Q 828 903 1448 1529 
Q 2069 2156 2228 2338 
Q 2531 2678 2651 2914 
Q 2772 3150 2772 3378 
Q 2772 3750 2511 3984 
Q 2250 4219 1831 4219 
Q 1534 4219 1204 4116 
Q 875 4013 500 3803 
L 500 4441 
Q 881 4594 1212 4672 
Q 1544 4750 1819 4750 
Q 2544 4750 2975 4387 
Q 3406 4025 3406 3419 
Q 3406 3131 3298 2873 
Q 3191 2616 2906 2266 
Q 2828 2175 2409 1742 
Q 1991 1309 1228 531 
z
" transform="scale(0.015625)"/>
       </defs>
       <use xlink:href="#DejaVuSans-2d"/>
       <use xlink:href="#DejaVuSans-31" x="36.083984"/>
       <use xlink:href="#DejaVuSans-32" x="99.707031"/>
       <use xlink:href="#DejaVuSans-30" x="163.330078"/>
       <use xlink:href="#DejaVuSans-b0" x="226.953125"/>
      </g>
     </g>
    </g>
    <g id="xtick_3">
     <g id="line2d_3">
      <path d="M 215.445694 248.575773 
L 211.216996 246.393561 
L 207.134509 244.171066 
L 203.195424 241.910656 
L 199.397021 239.614551 
L 195.736678 237.284843 
L 192.211866 234.923496 
L 188.820156 232.532362 
L 185.559212 230.113187 
L 182.426794 227.667619 
L 179.420759 225.197212 
L 176.539055 222.703438 
L 173.779724 220.187691 
L 171.140898 217.651289 
L 168.6208 215.095485 
L 166.217737 212.521471 
L 163.930106 209.930377 
L 161.756385 207.323284 
L 159.695138 204.70122 
L 157.745006 202.06517 
L 155.904711 199.416075 
L 154.173054 196.754837 
L 152.548907 194.082324 
L 151.031222 191.399369 
L 149.619021 188.706777 
L 148.311397 186.005322 
L 147.107515 183.295758 
L 146.006608 180.578811 
L 145.007976 177.85519 
L 144.110988 175.125583 
L 143.315078 172.390664 
L 142.619744 169.651091 
L 142.024549 166.907509 
L 141.529122 164.160554 
L 141.13315 161.41085 
L 140.836388 158.659016 
L 140.638649 155.905666 
L 140.53981 153.151406 
L 140.53981 150.396844 
L 140.638649 147.642584 
L 140.836388 144.889234 
L 141.13315 142.1374 
L 141.529122 139.387696 
L 142.024549 136.640741 
L 142.619744 133.897159 
L 143.315078 131.157586 
L 144.110988 128.422667 
L 145.007976 125.69306 
L 146.006608 122.969439 
L 147.107515 120.252492 
L 148.311397 117.542928 
L 149.619021 114.841473 
L 151.031222 112.148881 
L 152.548907 109.465926 
L 154.173054 106.793413 
L 155.904711 104.132175 
L 157.745006 101.48308 
L 159.695138 98.84703 
L 161.756385 96.224966 
L 163.930106 93.617873 
L 166.217737 91.026779 
L 168.6208 88.452765 
L 171.140898 85.896961 
L 173.779724 83.360559 
L 176.539055 80.844812 
L 179.420759 78.351038 
L 182.426794 75.880631 
L 185.559212 73.435063 
L 188.820156 71.015888 
L 192.211866 68.624754 
L 195.736678 66.263407 
L 199.397021 63.933699 
L 203.195424 61.637594 
L 207.134509 59.377184 
L 211.216996 57.154689 
L 215.445694 54.972477 
" clip-path="url(#p13d214ebe2)" style="fill: none; stroke: #b0b0b0; stroke-width: 0.8; stroke-linecap: square"/>
     </g>
     <g id="text_3">
      <!-- -90° -->
      <g transform="translate(129.861051 145.694437)scale(0.1 -0.1)">
       <defs>
        <path id="DejaVuSans-39" d="M 703 97 
L 703 672 
Q 941 559 1184 500 
Q 1428 441 1663 441 
Q 2288 441 2617 861 
Q 2947 1281 2994 2138 
Q 2813 1869 2534 1725 
Q 2256 1581 1919 1581 
Q 1219 1581 811 2004 
Q 403 2428 403 3163 
Q 403 3881 828 4315 
Q 1253 4750 1959 4750 
Q 2769 4750 3195 4129 
Q 3622 3509 3622 2328 
Q 3622 1225 3098 567 
Q 2575 -91 1691 -91 
Q 1453 -91 1209 -44 
Q 966 3 703 97 
z
M 1959 2075 
Q 2384 2075 2632 2365 
Q 2881 2656 2881 3163 
Q 2881 3666 2632 3958 
Q 2384 4250 1959 4250 
Q 1534 4250 1286 3958 
Q 1038 3666 1038 3163 
Q 1038 2656 1286 2365 
Q 1534 2075 1959 2075 
z
" transform="scale(0.015625)"/>
       </defs>
       <use xlink:href="#DejaVuSans-2d"/>
       <use xlink:href="#DejaVuSans-39" x="36.083984"/>
       <use xlink:href="#DejaVuSans-30" x="99.707031"/>
       <use xlink:href="#DejaVuSans-b0" x="163.330078"/>
      </g>
     </g>
    </g>
    <g id="xtick_4">
     <g id="line2d_4">
      <path d="M 226.754597 246.466926 
L 223.896219 244.114342 
L 221.148528 241.743467 
L 218.508107 239.355525 
L 215.971743 236.951649 
L 213.536411 234.53289 
L 211.199266 232.100222 
L 208.95763 229.654554 
L 206.808985 227.196728 
L 204.750961 224.727531 
L 202.78133 222.247698 
L 200.897996 219.757916 
L 199.09899 217.258829 
L 197.38246 214.75104 
L 195.746671 212.235116 
L 194.18999 209.711592 
L 192.710889 207.180971 
L 191.307936 204.643728 
L 189.979791 202.100313 
L 188.725201 199.551152 
L 187.542998 196.99665 
L 186.432095 194.437192 
L 185.391479 191.873146 
L 184.420214 189.304863 
L 183.517434 186.732678 
L 182.68234 184.156915 
L 181.914202 181.577883 
L 181.212353 178.995883 
L 180.576185 176.411204 
L 180.005156 173.824125 
L 179.498777 171.234921 
L 179.056621 168.643857 
L 178.678315 166.051192 
L 178.36354 163.457182 
L 178.112035 160.862076 
L 177.923589 158.266122 
L 177.798045 155.669564 
L 177.735299 153.072645 
L 177.735299 150.475605 
L 177.798045 147.878686 
L 177.923589 145.282128 
L 178.112035 142.686174 
L 178.36354 140.091068 
L 178.678315 137.497058 
L 179.056621 134.904393 
L 179.498777 132.313329 
L 180.005156 129.724125 
L 180.576185 127.137046 
L 181.212353 124.552367 
L 181.914202 121.970367 
L 182.68234 119.391335 
L 183.517434 116.815572 
L 184.420214 114.243387 
L 185.391479 111.675104 
L 186.432095 109.111058 
L 187.542998 106.5516 
L 188.725201 103.997098 
L 189.979791 101.447937 
L 191.307936 98.904522 
L 192.710889 96.367279 
L 194.18999 93.836658 
L 195.746671 91.313134 
L 197.38246 88.79721 
L 199.09899 86.289421 
L 200.897996 83.790334 
L 202.78133 81.300552 
L 204.750961 78.820719 
L 206.808985 76.351522 
L 208.95763 73.893696 
L 211.199266 71.448028 
L 213.536411 69.01536 
L 215.971743 66.596601 
L 218.508107 64.192725 
L 221.148528 61.804783 
L 223.896219 59.433908 
L 226.754597 57.081324 
" clip-path="url(#p13d214ebe2)" style="fill: none; stroke: #b0b0b0; stroke-width: 0.8; stroke-linecap: square"/>
     </g>
     <g id="text_4">
      <!-- -60° -->
      <g transform="translate(167.061051 145.694437)scale(0.1 -0.1)">
       <defs>
        <path id="DejaVuSans-36" d="M 2113 2584 
Q 1688 2584 1439 2293 
Q 1191 2003 1191 1497 
Q 1191 994 1439 701 
Q 1688 409 2113 409 
Q 2538 409 2786 701 
Q 3034 994 3034 1497 
Q 3034 2003 2786 2293 
Q 2538 2584 2113 2584 
z
M 3366 4563 
L 3366 3988 
Q 3128 4100 2886 4159 
Q 2644 4219 2406 4219 
Q 1781 4219 1451 3797 
Q 1122 3375 1075 2522 
Q 1259 2794 1537 2939 
Q 1816 3084 2150 3084 
Q 2853 3084 3261 2657 
Q 3669 2231 3669 1497 
Q 3669 778 3244 343 
Q 2819 -91 2113 -91 
Q 1303 -91 875 529 
Q 447 1150 447 2328 
Q 447 3434 972 4092 
Q 1497 4750 2381 4750 
Q 2619 4750 2861 4703 
Q 3103 4656 3366 4563 
z
" transform="scale(0.015625)"/>
       </defs>
       <use xlink:href="#DejaVuSans-2d"/>
       <use xlink:href="#DejaVuSans-36" x="36.083984"/>
       <use xlink:href="#DejaVuSans-30" x="99.707031"/>
       <use xlink:href="#DejaVuSans-b0" x="163.330078"/>
      </g>
     </g>
    </g>
    <g id="xtick_5">
     <g id="line2d_5">
      <path d="M 239.169552 245.197621 
L 237.730013 242.748725 
L 236.349717 240.295209 
L 235.026456 237.837402 
L 233.758176 235.37561 
L 232.542965 232.910113 
L 231.379042 230.441167 
L 230.264745 227.969012 
L 229.198528 225.493867 
L 228.178945 223.015935 
L 227.204649 220.535407 
L 226.274382 218.052457 
L 225.38697 215.56725 
L 224.541317 213.079937 
L 223.736401 210.590662 
L 222.971268 208.099557 
L 222.245027 205.606749 
L 221.55685 203.112355 
L 220.905964 200.616485 
L 220.291652 198.119245 
L 219.713246 195.620734 
L 219.170127 193.121045 
L 218.661721 190.620267 
L 218.187501 188.118485 
L 217.746977 185.61578 
L 217.339701 183.11223 
L 216.965266 180.607908 
L 216.623297 178.102887 
L 216.313457 175.597235 
L 216.035443 173.091018 
L 215.788986 170.584302 
L 215.573847 168.077148 
L 215.38982 165.569619 
L 215.236729 163.061774 
L 215.11443 160.553673 
L 215.022807 158.045372 
L 214.961772 155.53693 
L 214.931269 153.028403 
L 214.931269 150.519847 
L 214.961772 148.01132 
L 215.022807 145.502878 
L 215.11443 142.994577 
L 215.236729 140.486476 
L 215.38982 137.978631 
L 215.573847 135.471102 
L 215.788986 132.963948 
L 216.035443 130.457232 
L 216.313457 127.951015 
L 216.623297 125.445363 
L 216.965266 122.940342 
L 217.339701 120.43602 
L 217.746977 117.93247 
L 218.187501 115.429765 
L 218.661721 112.927983 
L 219.170127 110.427205 
L 219.713246 107.927516 
L 220.291652 105.429005 
L 220.905964 102.931765 
L 221.55685 100.435895 
L 222.245027 97.941501 
L 222.971268 95.448693 
L 223.736401 92.957588 
L 224.541317 90.468313 
L 225.38697 87.981 
L 226.274382 85.495793 
L 227.204649 83.012843 
L 228.178945 80.532315 
L 229.198528 78.054383 
L 230.264745 75.579238 
L 231.379042 73.107083 
L 232.542965 70.638137 
L 233.758176 68.17264 
L 235.026456 65.710848 
L 236.349717 63.253041 
L 237.730013 60.799525 
L 239.169552 58.350629 
" clip-path="url(#p13d214ebe2)" style="fill: none; stroke: #b0b0b0; stroke-width: 0.8; stroke-linecap: square"/>
     </g>
     <g id="text_5">
      <!-- -30° -->
      <g transform="translate(204.261051 145.694437)scale(0.1 -0.1)">
       <defs>
        <path id="DejaVuSans-33" d="M 2597 2516 
Q 3050 2419 3304 2112 
Q 3559 1806 3559 1356 
Q 3559 666 3084 287 
Q 2609 -91 1734 -91 
Q 1441 -91 1130 -33 
Q 819 25 488 141 
L 488 750 
Q 750 597 1062 519 
Q 1375 441 1716 441 
Q 2309 441 2620 675 
Q 2931 909 2931 1356 
Q 2931 1769 2642 2001 
Q 2353 2234 1838 2234 
L 1294 2234 
L 1294 2753 
L 1863 2753 
Q 2328 2753 2575 2939 
Q 2822 3125 2822 3475 
Q 2822 3834 2567 4026 
Q 2313 4219 1838 4219 
Q 1578 4219 1281 4162 
Q 984 4106 628 3988 
L 628 4550 
Q 988 4650 1302 4700 
Q 1616 4750 1894 4750 
Q 2613 4750 3031 4423 
Q 3450 4097 3450 3541 
Q 3450 3153 3228 2886 
Q 3006 2619 2597 2516 
z
" transform="scale(0.015625)"/>
       </defs>
       <use xlink:href="#DejaVuSans-2d"/>
       <use xlink:href="#DejaVuSans-33" x="36.083984"/>
       <use xlink:href="#DejaVuSans-30" x="99.707031"/>
       <use xlink:href="#DejaVuSans-b0" x="163.330078"/>
      </g>
     </g>
    </g>
    <g id="xtick_6">
     <g id="line2d_6">
      <path d="M 252.127457 244.774125 
L 252.127457 242.294125 
L 252.127457 239.814125 
L 252.127457 237.334125 
L 252.127457 234.854125 
L 252.127457 232.374125 
L 252.127457 229.894125 
L 252.127457 227.414125 
L 252.127457 224.934125 
L 252.127457 222.454125 
L 252.127457 219.974125 
L 252.127457 217.494125 
L 252.127457 215.014125 
L 252.127457 212.534125 
L 252.127457 210.054125 
L 252.127457 207.574125 
L 252.127457 205.094125 
L 252.127457 202.614125 
L 252.127457 200.134125 
L 252.127457 197.654125 
L 252.127457 195.174125 
L 252.127457 192.694125 
L 252.127457 190.214125 
L 252.127457 187.734125 
L 252.127457 185.254125 
L 252.127457 182.774125 
L 252.127457 180.294125 
L 252.127457 177.814125 
L 252.127457 175.334125 
L 252.127457 172.854125 
L 252.127457 170.374125 
L 252.127457 167.894125 
L 252.127457 165.414125 
L 252.127457 162.934125 
L 252.127457 160.454125 
L 252.127457 157.974125 
L 252.127457 155.494125 
L 252.127457 153.014125 
L 252.127457 150.534125 
L 252.127457 148.054125 
L 252.127457 145.574125 
L 252.127457 143.094125 
L 252.127457 140.614125 
L 252.127457 138.134125 
L 252.127457 135.654125 
L 252.127457 133.174125 
L 252.127457 130.694125 
L 252.127457 128.214125 
L 252.127457 125.734125 
L 252.127457 123.254125 
L 252.127457 120.774125 
L 252.127457 118.294125 
L 252.127457 115.814125 
L 252.127457 113.334125 
L 252.127457 110.854125 
L 252.127457 108.374125 
L 252.127457 105.894125 
L 252.127457 103.414125 
L 252.127457 100.934125 
L 252.127457 98.454125 
L 252.127457 95.974125 
L 252.127457 93.494125 
L 252.127457 91.014125 
L 252.127457 88.534125 
L 252.127457 86.054125 
L 252.127457 83.574125 
L 252.127457 81.094125 
L 252.127457 78.614125 
L 252.127457 76.134125 
L 252.127457 73.654125 
L 252.127457 71.174125 
L 252.127457 68.694125 
L 252.127457 66.214125 
L 252.127457 63.734125 
L 252.127457 61.254125 
L 252.127457 58.774125 
" clip-path="url(#p13d214ebe2)" style="fill: none; stroke: #b0b0b0; stroke-width: 0.8; stroke-linecap: square"/>
     </g>
     <g id="text_6">
      <!-- 0° -->
      <g transform="translate(246.446207 145.694437)scale(0.1 -0.1)">
       <use xlink:href="#DejaVuSans-30"/>
       <use xlink:href="#DejaVuSans-b0" x="63.623047"/>
      </g>
     </g>
    </g>
    <g id="xtick_7">
     <g id="line2d_7">
      <path d="M 265.085362 245.197621 
L 266.524901 242.748725 
L 267.905197 240.295209 
L 269.228458 237.837402 
L 270.496738 235.37561 
L 271.711948 232.910113 
L 272.875872 230.441167 
L 273.990168 227.969012 
L 275.056386 225.493867 
L 276.075969 223.015935 
L 277.050265 220.535407 
L 277.980532 218.052457 
L 278.867944 215.56725 
L 279.713597 213.079937 
L 280.518513 210.590662 
L 281.283646 208.099557 
L 282.009887 205.606749 
L 282.698064 203.112355 
L 283.348949 200.616485 
L 283.963262 198.119245 
L 284.541668 195.620734 
L 285.084787 193.121045 
L 285.593193 190.620267 
L 286.067413 188.118485 
L 286.507937 185.61578 
L 286.915212 183.11223 
L 287.289648 180.607908 
L 287.631617 178.102887 
L 287.941457 175.597235 
L 288.219471 173.091018 
L 288.465928 170.584302 
L 288.681067 168.077148 
L 288.865094 165.569619 
L 289.018185 163.061774 
L 289.140484 160.553673 
L 289.232107 158.045372 
L 289.293142 155.53693 
L 289.323645 153.028403 
L 289.323645 150.519847 
L 289.293142 148.01132 
L 289.232107 145.502878 
L 289.140484 142.994577 
L 289.018185 140.486476 
L 288.865094 137.978631 
L 288.681067 135.471102 
L 288.465928 132.963948 
L 288.219471 130.457232 
L 287.941457 127.951015 
L 287.631617 125.445363 
L 287.289648 122.940342 
L 286.915212 120.43602 
L 286.507937 117.93247 
L 286.067413 115.429765 
L 285.593193 112.927983 
L 285.084787 110.427205 
L 284.541668 107.927516 
L 283.963262 105.429005 
L 283.348949 102.931765 
L 282.698064 100.435895 
L 282.009887 97.941501 
L 281.283646 95.448693 
L 280.518513 92.957588 
L 279.713597 90.468313 
L 278.867944 87.981 
L 277.980532 85.495793 
L 277.050265 83.012843 
L 276.075969 80.532315 
L 275.056386 78.054383 
L 273.990168 75.579238 
L 272.875872 73.107083 
L 271.711948 70.638137 
L 270.496738 68.17264 
L 269.228458 65.710848 
L 267.905197 63.253041 
L 266.524901 60.799525 
L 265.085362 58.350629 
" clip-path="url(#p13d214ebe2)" style="fill: none; stroke: #b0b0b0; stroke-width: 0.8; stroke-linecap: square"/>
     </g>
     <g id="text_7">
      <!-- 30° -->
      <g transform="translate(280.464957 145.694437)scale(0.1 -0.1)">
       <use xlink:href="#DejaVuSans-33"/>
       <use xlink:href="#DejaVuSans-30" x="63.623047"/>
       <use xlink:href="#DejaVuSans-b0" x="127.246094"/>
      </g>
     </g>
    </g>
    <g id="xtick_8">
     <g id="line2d_8">
      <path d="M 277.500316 246.466926 
L 280.358694 244.114342 
L 283.106386 241.743467 
L 285.746806 239.355525 
L 288.283171 236.951649 
L 290.718503 234.53289 
L 293.055648 232.100222 
L 295.297284 229.654554 
L 297.445929 227.196728 
L 299.503953 224.727531 
L 301.473584 222.247698 
L 303.356918 219.757916 
L 305.155924 217.258829 
L 306.872454 214.75104 
L 308.508243 212.235116 
L 310.064924 209.711592 
L 311.544025 207.180971 
L 312.946978 204.643728 
L 314.275123 202.100313 
L 315.529713 199.551152 
L 316.711916 196.99665 
L 317.822819 194.437192 
L 318.863435 191.873146 
L 319.8347 189.304863 
L 320.73748 186.732678 
L 321.572574 184.156915 
L 322.340711 181.577883 
L 323.042561 178.995883 
L 323.678729 176.411204 
L 324.249758 173.824125 
L 324.756137 171.234921 
L 325.198293 168.643857 
L 325.576599 166.051192 
L 325.891373 163.457182 
L 326.142879 160.862076 
L 326.331325 158.266122 
L 326.456869 155.669564 
L 326.519615 153.072645 
L 326.519615 150.475605 
L 326.456869 147.878686 
L 326.331325 145.282128 
L 326.142879 142.686174 
L 325.891373 140.091068 
L 325.576599 137.497058 
L 325.198293 134.904393 
L 324.756137 132.313329 
L 324.249758 129.724125 
L 323.678729 127.137046 
L 323.042561 124.552367 
L 322.340711 121.970367 
L 321.572574 119.391335 
L 320.73748 116.815572 
L 319.8347 114.243387 
L 318.863435 111.675104 
L 317.822819 109.111058 
L 316.711916 106.5516 
L 315.529713 103.997098 
L 314.275123 101.447937 
L 312.946978 98.904522 
L 311.544025 96.367279 
L 310.064924 93.836658 
L 308.508243 91.313134 
L 306.872454 88.79721 
L 305.155924 86.289421 
L 303.356918 83.790334 
L 301.473584 81.300552 
L 299.503953 78.820719 
L 297.445929 76.351522 
L 295.297284 73.893696 
L 293.055648 71.448028 
L 290.718503 69.01536 
L 288.283171 66.596601 
L 285.746806 64.192725 
L 283.106386 61.804783 
L 280.358694 59.433908 
L 277.500316 57.081324 
" clip-path="url(#p13d214ebe2)" style="fill: none; stroke: #b0b0b0; stroke-width: 0.8; stroke-linecap: square"/>
     </g>
     <g id="text_8">
      <!-- 60° -->
      <g transform="translate(317.664957 145.694437)scale(0.1 -0.1)">
       <use xlink:href="#DejaVuSans-36"/>
       <use xlink:href="#DejaVuSans-30" x="63.623047"/>
       <use xlink:href="#DejaVuSans-b0" x="127.246094"/>
      </g>
     </g>
    </g>
    <g id="xtick_9">
     <g id="line2d_9">
      <path d="M 288.80922 248.575773 
L 293.037918 246.393561 
L 297.120404 244.171066 
L 301.05949 241.910656 
L 304.857893 239.614551 
L 308.518236 237.284843 
L 312.043048 234.923496 
L 315.434758 232.532362 
L 318.695702 230.113187 
L 321.828119 227.667619 
L 324.834155 225.197212 
L 327.715859 222.703438 
L 330.47519 220.187691 
L 333.114015 217.651289 
L 335.634114 215.095485 
L 338.037177 212.521471 
L 340.324808 209.930377 
L 342.498529 207.323284 
L 344.559776 204.70122 
L 346.509908 202.06517 
L 348.350202 199.416075 
L 350.08186 196.754837 
L 351.706006 194.082324 
L 353.223691 191.399369 
L 354.635893 188.706777 
L 355.943517 186.005322 
L 357.147399 183.295758 
L 358.248306 180.578811 
L 359.246938 177.85519 
L 360.143926 175.125583 
L 360.939836 172.390664 
L 361.63517 169.651091 
L 362.230364 166.907509 
L 362.725792 164.160554 
L 363.121764 161.41085 
L 363.418526 158.659016 
L 363.616265 155.905666 
L 363.715104 153.151406 
L 363.715104 150.396844 
L 363.616265 147.642584 
L 363.418526 144.889234 
L 363.121764 142.1374 
L 362.725792 139.387696 
L 362.230364 136.640741 
L 361.63517 133.897159 
L 360.939836 131.157586 
L 360.143926 128.422667 
L 359.246938 125.69306 
L 358.248306 122.969439 
L 357.147399 120.252492 
L 355.943517 117.542928 
L 354.635893 114.841473 
L 353.223691 112.148881 
L 351.706006 109.465926 
L 350.08186 106.793413 
L 348.350202 104.132175 
L 346.509908 101.48308 
L 344.559776 98.84703 
L 342.498529 96.224966 
L 340.324808 93.617873 
L 338.037177 91.026779 
L 335.634114 88.452765 
L 333.114015 85.896961 
L 330.47519 83.360559 
L 327.715859 80.844812 
L 324.834155 78.351038 
L 321.828119 75.880631 
L 318.695702 73.435063 
L 315.434758 71.015888 
L 312.043048 68.624754 
L 308.518236 66.263407 
L 304.857893 63.933699 
L 301.05949 61.637594 
L 297.120404 59.377184 
L 293.037918 57.154689 
L 288.80922 54.972477 
" clip-path="url(#p13d214ebe2)" style="fill: none; stroke: #b0b0b0; stroke-width: 0.8; stroke-linecap: square"/>
     </g>
     <g id="text_9">
      <!-- 90° -->
      <g transform="translate(354.864957 145.694437)scale(0.1 -0.1)">
       <use xlink:href="#DejaVuSans-39"/>
       <use xlink:href="#DejaVuSans-30" x="63.623047"/>
       <use xlink:href="#DejaVuSans-b0" x="127.246094"/>
      </g>
     </g>
    </g>
    <g id="xtick_10">
     <g id="line2d_10">
      <path d="M 298.412361 251.504232 
L 303.919962 249.580524 
L 309.270126 247.58792 
L 314.462883 245.529653 
L 319.498384 243.408826 
L 324.376882 241.228424 
L 329.098719 238.991317 
L 333.664315 236.700263 
L 338.074152 234.357916 
L 342.328765 231.966827 
L 346.428732 229.529453 
L 350.374665 227.048157 
L 354.167201 224.525218 
L 357.806996 221.96283 
L 361.294719 219.36311 
L 364.631044 216.728102 
L 367.816646 214.059777 
L 370.852193 211.360044 
L 373.738349 208.630748 
L 376.475763 205.873675 
L 379.065066 203.090559 
L 381.506875 200.283081 
L 383.801779 197.452874 
L 385.950348 194.601529 
L 387.953122 191.730593 
L 389.810614 188.841577 
L 391.523306 185.935956 
L 393.091647 183.015173 
L 394.516055 180.080642 
L 395.796912 177.133751 
L 396.934565 174.175863 
L 397.929324 171.20832 
L 398.781463 168.232448 
L 399.491217 165.249553 
L 400.058782 162.260932 
L 400.484318 159.267868 
L 400.767942 156.271636 
L 400.909734 153.273506 
L 400.909734 150.274744 
L 400.767942 147.276614 
L 400.484318 144.280382 
L 400.058782 141.287318 
L 399.491217 138.298697 
L 398.781463 135.315802 
L 397.929324 132.33993 
L 396.934565 129.372387 
L 395.796912 126.414499 
L 394.516055 123.467608 
L 393.091647 120.533077 
L 391.523306 117.612294 
L 389.810614 114.706673 
L 387.953122 111.817657 
L 385.950348 108.946721 
L 383.801779 106.095376 
L 381.506875 103.265169 
L 379.065066 100.457691 
L 376.475763 97.674575 
L 373.738349 94.917502 
L 370.852193 92.188206 
L 367.816646 89.488473 
L 364.631044 86.820148 
L 361.294719 84.18514 
L 357.806996 81.58542 
L 354.167201 79.023032 
L 350.374665 76.500093 
L 346.428732 74.018797 
L 342.328765 71.581423 
L 338.074152 69.190334 
L 333.664315 66.847987 
L 329.098719 64.556933 
L 324.376882 62.319826 
L 319.498384 60.139424 
L 314.462883 58.018597 
L 309.270126 55.96033 
L 303.919962 53.967726 
L 298.412361 52.044018 
" clip-path="url(#p13d214ebe2)" style="fill: none; stroke: #b0b0b0; stroke-width: 0.8; stroke-linecap: square"/>
     </g>
     <g id="text_10">
      <!-- 120° -->
      <g transform="translate(388.883707 145.694437)scale(0.1 -0.1)">
       <use xlink:href="#DejaVuSans-31"/>
       <use xlink:href="#DejaVuSans-32" x="63.623047"/>
       <use xlink:href="#DejaVuSans-30" x="127.246094"/>
       <use xlink:href="#DejaVuSans-b0" x="190.869141"/>
      </g>
     </g>
    </g>
    <g id="xtick_11">
     <g id="line2d_11">
      <path d="M 305.666316 255.203258 
L 312.294253 253.643604 
L 318.785517 251.983198 
L 325.135642 250.225175 
L 331.340421 248.372665 
L 337.3959 246.428787 
L 343.298359 244.396646 
L 349.04431 242.279331 
L 354.63048 240.079911 
L 360.053801 237.801432 
L 365.311402 235.446919 
L 370.4006 233.019371 
L 375.318887 230.521759 
L 380.063922 227.957028 
L 384.633523 225.328095 
L 389.02566 222.63785 
L 393.238445 219.889151 
L 397.270122 217.08483 
L 401.119065 214.227691 
L 404.783768 211.32051 
L 408.26284 208.366034 
L 411.554995 205.366984 
L 414.659051 202.326057 
L 417.573923 199.245924 
L 420.298616 196.129231 
L 422.832224 192.978604 
L 425.173921 189.796644 
L 427.322963 186.585936 
L 429.278677 183.349043 
L 431.040463 180.088512 
L 432.607791 176.806875 
L 433.980195 173.506649 
L 435.157273 170.190338 
L 436.138684 166.860436 
L 436.924146 163.519427 
L 437.513437 160.169786 
L 437.906389 156.813985 
L 438.102893 153.454489 
L 438.102893 150.093761 
L 437.906389 146.734265 
L 437.513437 143.378464 
L 436.924146 140.028823 
L 436.138684 136.687814 
L 435.157273 133.357912 
L 433.980195 130.041601 
L 432.607791 126.741375 
L 431.040463 123.459738 
L 429.278677 120.199207 
L 427.322963 116.962314 
L 425.173921 113.751606 
L 422.832224 110.569646 
L 420.298616 107.419019 
L 417.573923 104.302326 
L 414.659051 101.222193 
L 411.554995 98.181266 
L 408.26284 95.182216 
L 404.783768 92.22774 
L 401.119065 89.320559 
L 397.270122 86.46342 
L 393.238445 83.659099 
L 389.02566 80.9104 
L 384.633523 78.220155 
L 380.063922 75.591222 
L 375.318887 73.026491 
L 370.4006 70.528879 
L 365.311402 68.101331 
L 360.053801 65.746818 
L 354.63048 63.468339 
L 349.04431 61.268919 
L 343.298359 59.151604 
L 337.3959 57.119463 
L 331.340421 55.175585 
L 325.135642 53.323075 
L 318.785517 51.565052 
L 312.294253 49.904646 
L 305.666316 48.344992 
" clip-path="url(#p13d214ebe2)" style="fill: none; stroke: #b0b0b0; stroke-width: 0.8; stroke-linecap: square"/>
     </g>
     <g id="text_11">
      <!-- 150° -->
      <g transform="translate(426.083707 145.694437)scale(0.1 -0.1)">
       <use xlink:href="#DejaVuSans-31"/>
       <use xlink:href="#DejaVuSans-35" x="63.623047"/>
       <use xlink:href="#DejaVuSans-30" x="127.246094"/>
       <use xlink:href="#DejaVuSans-b0" x="190.869141"/>
      </g>
     </g>
    </g>
   </g>
   <g id="matplotlib.axis_2">
    <g id="ytick_1">
     <g id="line2d_12">
      <path d="M 194.359046 259.571447 
L 194.804602 258.833938 
L 195.342082 258.110012 
L 195.968793 257.400514 
L 196.681999 256.706223 
L 197.478934 256.027851 
L 198.35681 255.366049 
L 199.312827 254.721408 
L 200.344179 254.094467 
L 201.44806 253.485712 
L 202.621674 252.895582 
L 203.862236 252.324472 
L 205.166976 251.772736 
L 206.533146 251.240688 
L 207.95802 250.728609 
L 209.438898 250.236748 
L 210.973107 249.765324 
L 212.558004 249.31453 
L 214.190974 248.884533 
L 215.869433 248.47548 
L 217.590829 248.087498 
L 219.352638 247.720694 
L 221.152368 247.375162 
L 222.987557 247.050981 
L 224.855769 246.748217 
L 226.754597 246.466926 
L 228.681663 246.207153 
L 230.634609 245.968937 
L 232.611104 245.752309 
L 234.608836 245.557293 
L 236.625517 245.383908 
L 238.658872 245.232171 
L 240.706646 245.102093 
L 242.766596 244.993683 
L 244.836492 244.906949 
L 246.914114 244.841894 
L 248.997248 244.798522 
L 251.083687 244.776836 
L 253.171227 244.776836 
L 255.257666 244.798522 
L 257.3408 244.841894 
L 259.418421 244.906949 
L 261.488317 244.993683 
L 263.548268 245.102093 
L 265.596041 245.232171 
L 267.629397 245.383908 
L 269.646077 245.557293 
L 271.64381 245.752309 
L 273.620305 245.968937 
L 275.573251 246.207153 
L 277.500316 246.466926 
L 279.399145 246.748217 
L 281.267357 247.050981 
L 283.102546 247.375162 
L 284.902276 247.720694 
L 286.664085 248.087498 
L 288.385481 248.47548 
L 290.06394 248.884533 
L 291.69691 249.31453 
L 293.281807 249.765324 
L 294.816016 250.236748 
L 296.296894 250.728609 
L 297.721768 251.240688 
L 299.087938 251.772736 
L 300.392678 252.324472 
L 301.633239 252.895582 
L 302.806854 253.485712 
L 303.910735 254.094467 
L 304.942087 254.721408 
L 305.898104 255.366049 
L 306.77598 256.027851 
L 307.572915 256.706223 
L 308.286121 257.400514 
L 308.912832 258.110012 
L 309.450312 258.833938 
L 309.895868 259.571447 
" clip-path="url(#p13d214ebe2)" style="fill: none; stroke: #b0b0b0; stroke-width: 0.8; stroke-linecap: square"/>
     </g>
     <g id="text_12">
      <!-- -75° -->
      <g transform="translate(165.026234 273.110554)scale(0.1 -0.1)">
       <defs>
        <path id="DejaVuSans-37" d="M 525 4666 
L 3525 4666 
L 3525 4397 
L 1831 0 
L 1172 0 
L 2766 4134 
L 525 4134 
L 525 4666 
z
" transform="scale(0.015625)"/>
       </defs>
       <use xlink:href="#DejaVuSans-2d"/>
       <use xlink:href="#DejaVuSans-37" x="36.083984"/>
       <use xlink:href="#DejaVuSans-35" x="99.707031"/>
       <use xlink:href="#DejaVuSans-b0" x="163.330078"/>
      </g>
     </g>
    </g>
    <g id="ytick_2">
     <g id="line2d_13">
      <path d="M 140.527457 248.42256 
L 142.087595 247.155106 
L 143.786947 245.929976 
L 145.618163 244.746998 
L 147.574206 243.605905 
L 149.648351 242.506351 
L 151.83417 241.447926 
L 154.125533 240.430165 
L 156.516586 239.452561 
L 159.001746 238.514575 
L 161.575692 237.615643 
L 164.233345 236.755184 
L 166.969862 235.932608 
L 169.780623 235.147319 
L 172.661216 234.398723 
L 175.607431 233.686232 
L 178.615242 233.009263 
L 181.680799 232.367248 
L 184.800418 231.759634 
L 187.970568 231.185883 
L 191.187862 230.645479 
L 194.449049 230.137926 
L 197.750999 229.66275 
L 201.090702 229.219501 
L 204.46525 228.807754 
L 207.871835 228.42711 
L 211.307741 228.077197 
L 214.770332 227.757669 
L 218.257045 227.468208 
L 221.765388 227.208524 
L 225.292926 226.978356 
L 228.837278 226.77747 
L 232.396111 226.605663 
L 235.967129 226.462759 
L 239.548072 226.348611 
L 243.136706 226.263103 
L 246.730819 226.206146 
L 250.328213 226.177682 
L 253.9267 226.177682 
L 257.524095 226.206146 
L 261.118207 226.263103 
L 264.706842 226.348611 
L 268.287785 226.462759 
L 271.858803 226.605663 
L 275.417635 226.77747 
L 278.961988 226.978356 
L 282.489526 227.208524 
L 285.997869 227.468208 
L 289.484582 227.757669 
L 292.947172 228.077197 
L 296.383078 228.42711 
L 299.789664 228.807754 
L 303.164212 229.219501 
L 306.503914 229.66275 
L 309.805865 230.137926 
L 313.067052 230.645479 
L 316.284346 231.185883 
L 319.454496 231.759634 
L 322.574115 232.367248 
L 325.639672 233.009263 
L 328.647483 233.686232 
L 331.593697 234.398723 
L 334.474291 235.147319 
L 337.285052 235.932608 
L 340.021569 236.755184 
L 342.679222 237.615643 
L 345.253167 238.514575 
L 347.738328 239.452561 
L 350.129381 240.430165 
L 352.420743 241.447926 
L 354.606563 242.506351 
L 356.680707 243.605905 
L 358.636751 244.746998 
L 360.467966 245.929976 
L 362.167319 247.155106 
L 363.727457 248.42256 
" clip-path="url(#p13d214ebe2)" style="fill: none; stroke: #b0b0b0; stroke-width: 0.8; stroke-linecap: square"/>
     </g>
     <g id="text_13">
      <!-- -60° -->
      <g transform="translate(111.194644 260.846779)scale(0.1 -0.1)">
       <use xlink:href="#DejaVuSans-2d"/>
       <use xlink:href="#DejaVuSans-36" x="36.083984"/>
       <use xlink:href="#DejaVuSans-30" x="99.707031"/>
       <use xlink:href="#DejaVuSans-b0" x="163.330078"/>
      </g>
     </g>
    </g>
    <g id="ytick_3">
     <g id="line2d_14">
      <path d="M 94.301223 230.687242 
L 97.344748 229.233424 
L 100.516768 227.846265 
L 103.808028 226.523259 
L 107.209987 225.261981 
L 110.714758 224.060096 
L 114.315055 222.915359 
L 118.004136 221.825619 
L 121.77576 220.788821 
L 125.624145 219.803008 
L 129.543925 218.866316 
L 133.530116 217.976974 
L 137.578081 217.133307 
L 141.683506 216.333726 
L 145.842362 215.576733 
L 150.050891 214.860912 
L 154.305573 214.184933 
L 158.603114 213.547542 
L 162.940419 212.947565 
L 167.314579 212.383902 
L 171.722854 211.855522 
L 176.162654 211.361467 
L 180.631533 210.900844 
L 185.127169 210.472824 
L 189.647355 210.076642 
L 194.18999 209.711592 
L 198.753065 209.377027 
L 203.334657 209.072356 
L 207.932918 208.797043 
L 212.546068 208.550607 
L 217.172387 208.332616 
L 221.810207 208.142693 
L 226.457905 207.980506 
L 231.113898 207.845775 
L 235.776634 207.738268 
L 240.444588 207.6578 
L 245.116254 207.604231 
L 249.790143 207.577469 
L 254.464771 207.577469 
L 259.13866 207.604231 
L 263.810326 207.6578 
L 268.47828 207.738268 
L 273.141016 207.845775 
L 277.797009 207.980506 
L 282.444707 208.142693 
L 287.082527 208.332616 
L 291.708846 208.550607 
L 296.321996 208.797043 
L 300.920257 209.072356 
L 305.501849 209.377027 
L 310.064924 209.711592 
L 314.607559 210.076642 
L 319.127745 210.472824 
L 323.623381 210.900844 
L 328.092259 211.361467 
L 332.53206 211.855522 
L 336.940334 212.383902 
L 341.314495 212.947565 
L 345.6518 213.547542 
L 349.949341 214.184933 
L 354.204023 214.860912 
L 358.412552 215.576733 
L 362.571408 216.333726 
L 366.676832 217.133307 
L 370.724798 217.976974 
L 374.710989 218.866316 
L 378.630769 219.803008 
L 382.479154 220.788821 
L 386.250778 221.825619 
L 389.939859 222.915359 
L 393.540155 224.060096 
L 397.044927 225.261981 
L 400.446886 226.523259 
L 403.738146 227.846265 
L 406.910166 229.233424 
L 409.95369 230.687242 
" clip-path="url(#p13d214ebe2)" style="fill: none; stroke: #b0b0b0; stroke-width: 0.8; stroke-linecap: square"/>
     </g>
     <g id="text_14">
      <!-- -45° -->
      <g transform="translate(64.968411 241.337928)scale(0.1 -0.1)">
       <defs>
        <path id="DejaVuSans-34" d="M 2419 4116 
L 825 1625 
L 2419 1625 
L 2419 4116 
z
M 2253 4666 
L 3047 4666 
L 3047 1625 
L 3713 1625 
L 3713 1100 
L 3047 1100 
L 3047 0 
L 2419 0 
L 2419 1100 
L 313 1100 
L 313 1709 
L 2253 4666 
z
" transform="scale(0.015625)"/>
       </defs>
       <use xlink:href="#DejaVuSans-2d"/>
       <use xlink:href="#DejaVuSans-34" x="36.083984"/>
       <use xlink:href="#DejaVuSans-35" x="99.707031"/>
       <use xlink:href="#DejaVuSans-b0" x="163.330078"/>
      </g>
     </g>
    </g>
    <g id="ytick_4">
     <g id="line2d_15">
      <path d="M 58.830587 207.574125 
L 63.335711 206.321455 
L 67.918265 205.137893 
L 72.571573 204.019414 
L 77.289624 202.962297 
L 82.066998 201.9631 
L 86.898793 201.018639 
L 91.780568 200.125966 
L 96.708293 199.282353 
L 101.678301 198.485276 
L 106.687251 197.732397 
L 111.73209 197.021551 
L 116.810024 196.350732 
L 121.91849 195.718083 
L 127.055132 195.121885 
L 132.21778 194.560546 
L 137.404431 194.032593 
L 142.61323 193.536662 
L 147.842458 193.071494 
L 153.090517 192.635923 
L 158.355917 192.228876 
L 163.637268 191.849362 
L 168.933264 191.49647 
L 174.242682 191.169365 
L 179.564368 190.867279 
L 184.897233 190.589513 
L 190.240245 190.335429 
L 195.592421 190.104451 
L 200.952826 189.896059 
L 206.320563 189.709787 
L 211.694771 189.545223 
L 217.07462 189.402004 
L 222.459307 189.279816 
L 227.84805 189.178394 
L 233.240086 189.097518 
L 238.634669 189.037013 
L 244.031062 188.996749 
L 249.428538 188.976638 
L 254.826375 188.976638 
L 260.223852 188.996749 
L 265.620245 189.037013 
L 271.014828 189.097518 
L 276.406864 189.178394 
L 281.795607 189.279816 
L 287.180294 189.402004 
L 292.560143 189.545223 
L 297.934351 189.709787 
L 303.302088 189.896059 
L 308.662493 190.104451 
L 314.014669 190.335429 
L 319.35768 190.589513 
L 324.690546 190.867279 
L 330.012232 191.169365 
L 335.32165 191.49647 
L 340.617646 191.849362 
L 345.898996 192.228876 
L 351.164397 192.635923 
L 356.412456 193.071494 
L 361.641684 193.536662 
L 366.850483 194.032593 
L 372.037134 194.560546 
L 377.199782 195.121885 
L 382.336424 195.718083 
L 387.44489 196.350732 
L 392.522823 197.021551 
L 397.567663 197.732397 
L 402.576613 198.485276 
L 407.546621 199.282353 
L 412.474346 200.125966 
L 417.356121 201.018639 
L 422.187916 201.9631 
L 426.96529 202.962297 
L 431.683341 204.019414 
L 436.336649 205.137893 
L 440.919203 206.321455 
L 445.424327 207.574125 
" clip-path="url(#p13d214ebe2)" style="fill: none; stroke: #b0b0b0; stroke-width: 0.8; stroke-linecap: square"/>
     </g>
     <g id="text_15">
      <!-- -30° -->
      <g transform="translate(29.497774 215.9135)scale(0.1 -0.1)">
       <use xlink:href="#DejaVuSans-2d"/>
       <use xlink:href="#DejaVuSans-33" x="36.083984"/>
       <use xlink:href="#DejaVuSans-30" x="99.707031"/>
       <use xlink:href="#DejaVuSans-b0" x="163.330078"/>
      </g>
     </g>
    </g>
    <g id="ytick_5">
     <g id="line2d_16">
      <path d="M 36.532813 180.65833 
L 42.098352 179.937393 
L 47.686801 179.260377 
L 53.295986 178.624212 
L 58.923976 178.026115 
L 64.569057 177.463562 
L 70.229696 176.934256 
L 75.904522 176.436107 
L 81.592304 175.96721 
L 87.291935 175.525825 
L 93.002415 175.110362 
L 98.722839 174.719365 
L 104.452388 174.351504 
L 110.190316 174.005556 
L 115.935941 173.680402 
L 121.688641 173.375016 
L 127.447848 173.088454 
L 133.213036 172.819852 
L 138.983723 172.568416 
L 144.759463 172.333418 
L 150.539844 172.114189 
L 156.324481 171.910118 
L 162.113016 171.720645 
L 167.905116 171.545258 
L 173.700468 171.383492 
L 179.498777 171.234921 
L 185.299765 171.099162 
L 191.103169 170.975868 
L 196.908739 170.864726 
L 202.716237 170.765459 
L 208.525434 170.677821 
L 214.33611 170.601597 
L 220.148055 170.5366 
L 225.961061 170.482673 
L 231.77493 170.439685 
L 237.589465 170.407534 
L 243.404473 170.386143 
L 249.219764 170.37546 
L 255.03515 170.37546 
L 260.850441 170.386143 
L 266.665449 170.407534 
L 272.479984 170.439685 
L 278.293852 170.482673 
L 284.106859 170.5366 
L 289.918804 170.601597 
L 295.72948 170.677821 
L 301.538677 170.765459 
L 307.346175 170.864726 
L 313.151745 170.975868 
L 318.955149 171.099162 
L 324.756137 171.234921 
L 330.554446 171.383492 
L 336.349797 171.545258 
L 342.141898 171.720645 
L 347.930433 171.910118 
L 353.71507 172.114189 
L 359.495451 172.333418 
L 365.271191 172.568416 
L 371.041878 172.819852 
L 376.807066 173.088454 
L 382.566273 173.375016 
L 388.318973 173.680402 
L 394.064598 174.005556 
L 399.802525 174.351504 
L 405.532074 174.719365 
L 411.252499 175.110362 
L 416.962979 175.525825 
L 422.66261 175.96721 
L 428.350392 176.436107 
L 434.025218 176.934256 
L 439.685857 177.463562 
L 445.330938 178.026115 
L 450.958928 178.624212 
L 456.568113 179.260377 
L 462.156562 179.937393 
L 467.722101 180.65833 
" clip-path="url(#p13d214ebe2)" style="fill: none; stroke: #b0b0b0; stroke-width: 0.8; stroke-linecap: square"/>
     </g>
     <g id="text_16">
      <!-- -15° -->
      <g transform="translate(7.2 186.306126)scale(0.1 -0.1)">
       <use xlink:href="#DejaVuSans-2d"/>
       <use xlink:href="#DejaVuSans-31" x="36.083984"/>
       <use xlink:href="#DejaVuSans-35" x="99.707031"/>
       <use xlink:href="#DejaVuSans-b0" x="163.330078"/>
      </g>
     </g>
    </g>
    <g id="ytick_6">
     <g id="line2d_17">
      <path d="M 28.927457 151.774125 
L 34.879457 151.774125 
L 40.831457 151.774125 
L 46.783457 151.774125 
L 52.735457 151.774125 
L 58.687457 151.774125 
L 64.639457 151.774125 
L 70.591457 151.774125 
L 76.543457 151.774125 
L 82.495457 151.774125 
L 88.447457 151.774125 
L 94.399457 151.774125 
L 100.351457 151.774125 
L 106.303457 151.774125 
L 112.255457 151.774125 
L 118.207457 151.774125 
L 124.159457 151.774125 
L 130.111457 151.774125 
L 136.063457 151.774125 
L 142.015457 151.774125 
L 147.967457 151.774125 
L 153.919457 151.774125 
L 159.871457 151.774125 
L 165.823457 151.774125 
L 171.775457 151.774125 
L 177.727457 151.774125 
L 183.679457 151.774125 
L 189.631457 151.774125 
L 195.583457 151.774125 
L 201.535457 151.774125 
L 207.487457 151.774125 
L 213.439457 151.774125 
L 219.391457 151.774125 
L 225.343457 151.774125 
L 231.295457 151.774125 
L 237.247457 151.774125 
L 243.199457 151.774125 
L 249.151457 151.774125 
L 255.103457 151.774125 
L 261.055457 151.774125 
L 267.007457 151.774125 
L 272.959457 151.774125 
L 278.911457 151.774125 
L 284.863457 151.774125 
L 290.815457 151.774125 
L 296.767457 151.774125 
L 302.719457 151.774125 
L 308.671457 151.774125 
L 314.623457 151.774125 
L 320.575457 151.774125 
L 326.527457 151.774125 
L 332.479457 151.774125 
L 338.431457 151.774125 
L 344.383457 151.774125 
L 350.335457 151.774125 
L 356.287457 151.774125 
L 362.239457 151.774125 
L 368.191457 151.774125 
L 374.143457 151.774125 
L 380.095457 151.774125 
L 386.047457 151.774125 
L 391.999457 151.774125 
L 397.951457 151.774125 
L 403.903457 151.774125 
L 409.855457 151.774125 
L 415.807457 151.774125 
L 421.759457 151.774125 
L 427.711457 151.774125 
L 433.663457 151.774125 
L 439.615457 151.774125 
L 445.567457 151.774125 
L 451.519457 151.774125 
L 457.471457 151.774125 
L 463.423457 151.774125 
L 469.375457 151.774125 
L 475.327457 151.774125 
" clip-path="url(#p13d214ebe2)" style="fill: none; stroke: #b0b0b0; stroke-width: 0.8; stroke-linecap: square"/>
     </g>
     <g id="text_17">
      <!-- 0° -->
      <g transform="translate(9.564957 154.5335)scale(0.1 -0.1)">
       <use xlink:href="#DejaVuSans-30"/>
       <use xlink:href="#DejaVuSans-b0" x="63.623047"/>
      </g>
     </g>
    </g>
    <g id="ytick_7">
     <g id="line2d_18">
      <path d="M 36.532813 122.88992 
L 42.098352 123.610857 
L 47.686801 124.287873 
L 53.295986 124.924038 
L 58.923976 125.522135 
L 64.569057 126.084688 
L 70.229696 126.613994 
L 75.904522 127.112143 
L 81.592304 127.58104 
L 87.291935 128.022425 
L 93.002415 128.437888 
L 98.722839 128.828885 
L 104.452388 129.196746 
L 110.190316 129.542694 
L 115.935941 129.867848 
L 121.688641 130.173234 
L 127.447848 130.459796 
L 133.213036 130.728398 
L 138.983723 130.979834 
L 144.759463 131.214832 
L 150.539844 131.434061 
L 156.324481 131.638132 
L 162.113016 131.827605 
L 167.905116 132.002992 
L 173.700468 132.164758 
L 179.498777 132.313329 
L 185.299765 132.449088 
L 191.103169 132.572382 
L 196.908739 132.683524 
L 202.716237 132.782791 
L 208.525434 132.870429 
L 214.33611 132.946653 
L 220.148055 133.01165 
L 225.961061 133.065577 
L 231.77493 133.108565 
L 237.589465 133.140716 
L 243.404473 133.162107 
L 249.219764 133.17279 
L 255.03515 133.17279 
L 260.850441 133.162107 
L 266.665449 133.140716 
L 272.479984 133.108565 
L 278.293852 133.065577 
L 284.106859 133.01165 
L 289.918804 132.946653 
L 295.72948 132.870429 
L 301.538677 132.782791 
L 307.346175 132.683524 
L 313.151745 132.572382 
L 318.955149 132.449088 
L 324.756137 132.313329 
L 330.554446 132.164758 
L 336.349797 132.002992 
L 342.141898 131.827605 
L 347.930433 131.638132 
L 353.71507 131.434061 
L 359.495451 131.214832 
L 365.271191 130.979834 
L 371.041878 130.728398 
L 376.807066 130.459796 
L 382.566273 130.173234 
L 388.318973 129.867848 
L 394.064598 129.542694 
L 399.802525 129.196746 
L 405.532074 128.828885 
L 411.252499 128.437888 
L 416.962979 128.022425 
L 422.66261 127.58104 
L 428.350392 127.112143 
L 434.025218 126.613994 
L 439.685857 126.084688 
L 445.330938 125.522135 
L 450.958928 124.924038 
L 456.568113 124.287873 
L 462.156562 123.610857 
L 467.722101 122.88992 
" clip-path="url(#p13d214ebe2)" style="fill: none; stroke: #b0b0b0; stroke-width: 0.8; stroke-linecap: square"/>
     </g>
     <g id="text_18">
      <!-- 15° -->
      <g transform="translate(10.807813 122.760874)scale(0.1 -0.1)">
       <use xlink:href="#DejaVuSans-31"/>
       <use xlink:href="#DejaVuSans-35" x="63.623047"/>
       <use xlink:href="#DejaVuSans-b0" x="127.246094"/>
      </g>
     </g>
    </g>
    <g id="ytick_8">
     <g id="line2d_19">
      <path d="M 58.830587 95.974125 
L 63.335711 97.226795 
L 67.918265 98.410357 
L 72.571573 99.528836 
L 77.289624 100.585953 
L 82.066998 101.58515 
L 86.898793 102.529611 
L 91.780568 103.422284 
L 96.708293 104.265897 
L 101.678301 105.062974 
L 106.687251 105.815853 
L 111.73209 106.526699 
L 116.810024 107.197518 
L 121.91849 107.830167 
L 127.055132 108.426365 
L 132.21778 108.987704 
L 137.404431 109.515657 
L 142.61323 110.011588 
L 147.842458 110.476756 
L 153.090517 110.912327 
L 158.355917 111.319374 
L 163.637268 111.698888 
L 168.933264 112.05178 
L 174.242682 112.378885 
L 179.564368 112.680971 
L 184.897233 112.958737 
L 190.240245 113.212821 
L 195.592421 113.443799 
L 200.952826 113.652191 
L 206.320563 113.838463 
L 211.694771 114.003027 
L 217.07462 114.146246 
L 222.459307 114.268434 
L 227.84805 114.369856 
L 233.240086 114.450732 
L 238.634669 114.511237 
L 244.031062 114.551501 
L 249.428538 114.571612 
L 254.826375 114.571612 
L 260.223852 114.551501 
L 265.620245 114.511237 
L 271.014828 114.450732 
L 276.406864 114.369856 
L 281.795607 114.268434 
L 287.180294 114.146246 
L 292.560143 114.003027 
L 297.934351 113.838463 
L 303.302088 113.652191 
L 308.662493 113.443799 
L 314.014669 113.212821 
L 319.35768 112.958737 
L 324.690546 112.680971 
L 330.012232 112.378885 
L 335.32165 112.05178 
L 340.617646 111.698888 
L 345.898996 111.319374 
L 351.164397 110.912327 
L 356.412456 110.476756 
L 361.641684 110.011588 
L 366.850483 109.515657 
L 372.037134 108.987704 
L 377.199782 108.426365 
L 382.336424 107.830167 
L 387.44489 107.197518 
L 392.522823 106.526699 
L 397.567663 105.815853 
L 402.576613 105.062974 
L 407.546621 104.265897 
L 412.474346 103.422284 
L 417.356121 102.529611 
L 422.187916 101.58515 
L 426.96529 100.585953 
L 431.683341 99.528836 
L 436.336649 98.410357 
L 440.919203 97.226795 
L 445.424327 95.974125 
" clip-path="url(#p13d214ebe2)" style="fill: none; stroke: #b0b0b0; stroke-width: 0.8; stroke-linecap: square"/>
     </g>
     <g id="text_19">
      <!-- 30° -->
      <g transform="translate(33.105587 93.1535)scale(0.1 -0.1)">
       <use xlink:href="#DejaVuSans-33"/>
       <use xlink:href="#DejaVuSans-30" x="63.623047"/>
       <use xlink:href="#DejaVuSans-b0" x="127.246094"/>
      </g>
     </g>
    </g>
    <g id="ytick_9">
     <g id="line2d_20">
      <path d="M 94.301223 72.861008 
L 97.344748 74.314826 
L 100.516768 75.701985 
L 103.808028 77.024991 
L 107.209987 78.286269 
L 110.714758 79.488154 
L 114.315055 80.632891 
L 118.004136 81.722631 
L 121.77576 82.759429 
L 125.624145 83.745242 
L 129.543925 84.681934 
L 133.530116 85.571276 
L 137.578081 86.414943 
L 141.683506 87.214524 
L 145.842362 87.971517 
L 150.050891 88.687338 
L 154.305573 89.363317 
L 158.603114 90.000708 
L 162.940419 90.600685 
L 167.314579 91.164348 
L 171.722854 91.692728 
L 176.162654 92.186783 
L 180.631533 92.647406 
L 185.127169 93.075426 
L 189.647355 93.471608 
L 194.18999 93.836658 
L 198.753065 94.171223 
L 203.334657 94.475894 
L 207.932918 94.751207 
L 212.546068 94.997643 
L 217.172387 95.215634 
L 221.810207 95.405557 
L 226.457905 95.567744 
L 231.113898 95.702475 
L 235.776634 95.809982 
L 240.444588 95.89045 
L 245.116254 95.944019 
L 249.790143 95.970781 
L 254.464771 95.970781 
L 259.13866 95.944019 
L 263.810326 95.89045 
L 268.47828 95.809982 
L 273.141016 95.702475 
L 277.797009 95.567744 
L 282.444707 95.405557 
L 287.082527 95.215634 
L 291.708846 94.997643 
L 296.321996 94.751207 
L 300.920257 94.475894 
L 305.501849 94.171223 
L 310.064924 93.836658 
L 314.607559 93.471608 
L 319.127745 93.075426 
L 323.623381 92.647406 
L 328.092259 92.186783 
L 332.53206 91.692728 
L 336.940334 91.164348 
L 341.314495 90.600685 
L 345.6518 90.000708 
L 349.949341 89.363317 
L 354.204023 88.687338 
L 358.412552 87.971517 
L 362.571408 87.214524 
L 366.676832 86.414943 
L 370.724798 85.571276 
L 374.710989 84.681934 
L 378.630769 83.745242 
L 382.479154 82.759429 
L 386.250778 81.722631 
L 389.939859 80.632891 
L 393.540155 79.488154 
L 397.044927 78.286269 
L 400.446886 77.024991 
L 403.738146 75.701985 
L 406.910166 74.314826 
L 409.95369 72.861008 
" clip-path="url(#p13d214ebe2)" style="fill: none; stroke: #b0b0b0; stroke-width: 0.8; stroke-linecap: square"/>
     </g>
     <g id="text_20">
      <!-- 45° -->
      <g transform="translate(68.576223 67.729072)scale(0.1 -0.1)">
       <use xlink:href="#DejaVuSans-34"/>
       <use xlink:href="#DejaVuSans-35" x="63.623047"/>
       <use xlink:href="#DejaVuSans-b0" x="127.246094"/>
      </g>
     </g>
    </g>
    <g id="ytick_10">
     <g id="line2d_21">
      <path d="M 140.527457 55.12569 
L 142.087595 56.393144 
L 143.786947 57.618274 
L 145.618163 58.801252 
L 147.574206 59.942345 
L 149.648351 61.041899 
L 151.83417 62.100324 
L 154.125533 63.118085 
L 156.516586 64.095689 
L 159.001746 65.033675 
L 161.575692 65.932607 
L 164.233345 66.793066 
L 166.969862 67.615642 
L 169.780623 68.400931 
L 172.661216 69.149527 
L 175.607431 69.862018 
L 178.615242 70.538987 
L 181.680799 71.181002 
L 184.800418 71.788616 
L 187.970568 72.362367 
L 191.187862 72.902771 
L 194.449049 73.410324 
L 197.750999 73.8855 
L 201.090702 74.328749 
L 204.46525 74.740496 
L 207.871835 75.12114 
L 211.307741 75.471053 
L 214.770332 75.790581 
L 218.257045 76.080042 
L 221.765388 76.339726 
L 225.292926 76.569894 
L 228.837278 76.77078 
L 232.396111 76.942587 
L 235.967129 77.085491 
L 239.548072 77.199639 
L 243.136706 77.285147 
L 246.730819 77.342104 
L 250.328213 77.370568 
L 253.9267 77.370568 
L 257.524095 77.342104 
L 261.118207 77.285147 
L 264.706842 77.199639 
L 268.287785 77.085491 
L 271.858803 76.942587 
L 275.417635 76.77078 
L 278.961988 76.569894 
L 282.489526 76.339726 
L 285.997869 76.080042 
L 289.484582 75.790581 
L 292.947172 75.471053 
L 296.383078 75.12114 
L 299.789664 74.740496 
L 303.164212 74.328749 
L 306.503914 73.8855 
L 309.805865 73.410324 
L 313.067052 72.902771 
L 316.284346 72.362367 
L 319.454496 71.788616 
L 322.574115 71.181002 
L 325.639672 70.538987 
L 328.647483 69.862018 
L 331.593697 69.149527 
L 334.474291 68.400931 
L 337.285052 67.615642 
L 340.021569 66.793066 
L 342.679222 65.932607 
L 345.253167 65.033675 
L 347.738328 64.095689 
L 350.129381 63.118085 
L 352.420743 62.100324 
L 354.606563 61.041899 
L 356.680707 59.942345 
L 358.636751 58.801252 
L 360.467966 57.618274 
L 362.167319 56.393144 
L 363.727457 55.12569 
" clip-path="url(#p13d214ebe2)" style="fill: none; stroke: #b0b0b0; stroke-width: 0.8; stroke-linecap: square"/>
     </g>
     <g id="text_21">
      <!-- 60° -->
      <g transform="translate(114.802457 48.220221)scale(0.1 -0.1)">
       <use xlink:href="#DejaVuSans-36"/>
       <use xlink:href="#DejaVuSans-30" x="63.623047"/>
       <use xlink:href="#DejaVuSans-b0" x="127.246094"/>
      </g>
     </g>
    </g>
    <g id="ytick_11">
     <g id="line2d_22">
      <path d="M 194.359046 43.976803 
L 194.804602 44.714312 
L 195.342082 45.438238 
L 195.968793 46.147736 
L 196.681999 46.842027 
L 197.478934 47.520399 
L 198.35681 48.182201 
L 199.312827 48.826842 
L 200.344179 49.453783 
L 201.44806 50.062538 
L 202.621674 50.652668 
L 203.862236 51.223778 
L 205.166976 51.775514 
L 206.533146 52.307562 
L 207.95802 52.819641 
L 209.438898 53.311502 
L 210.973107 53.782926 
L 212.558004 54.23372 
L 214.190974 54.663717 
L 215.869433 55.07277 
L 217.590829 55.460752 
L 219.352638 55.827556 
L 221.152368 56.173088 
L 222.987557 56.497269 
L 224.855769 56.800033 
L 226.754597 57.081324 
L 228.681663 57.341097 
L 230.634609 57.579313 
L 232.611104 57.795941 
L 234.608836 57.990957 
L 236.625517 58.164342 
L 238.658872 58.316079 
L 240.706646 58.446157 
L 242.766596 58.554567 
L 244.836492 58.641301 
L 246.914114 58.706356 
L 248.997248 58.749728 
L 251.083687 58.771414 
L 253.171227 58.771414 
L 255.257666 58.749728 
L 257.3408 58.706356 
L 259.418421 58.641301 
L 261.488317 58.554567 
L 263.548268 58.446157 
L 265.596041 58.316079 
L 267.629397 58.164342 
L 269.646077 57.990957 
L 271.64381 57.795941 
L 273.620305 57.579313 
L 275.573251 57.341097 
L 277.500316 57.081324 
L 279.399145 56.800033 
L 281.267357 56.497269 
L 283.102546 56.173088 
L 284.902276 55.827556 
L 286.664085 55.460752 
L 288.385481 55.07277 
L 290.06394 54.663717 
L 291.69691 54.23372 
L 293.281807 53.782926 
L 294.816016 53.311502 
L 296.296894 52.819641 
L 297.721768 52.307562 
L 299.087938 51.775514 
L 300.392678 51.223778 
L 301.633239 50.652668 
L 302.806854 50.062538 
L 303.910735 49.453783 
L 304.942087 48.826842 
L 305.898104 48.182201 
L 306.77598 47.520399 
L 307.572915 46.842027 
L 308.286121 46.147736 
L 308.912832 45.438238 
L 309.450312 44.714312 
L 309.895868 43.976803 
" clip-path="url(#p13d214ebe2)" style="fill: none; stroke: #b0b0b0; stroke-width: 0.8; stroke-linecap: square"/>
     </g>
     <g id="text_22">
      <!-- 75° -->
      <g transform="translate(168.634046 35.956446)scale(0.1 -0.1)">
       <use xlink:href="#DejaVuSans-37"/>
       <use xlink:href="#DejaVuSans-35" x="63.623047"/>
       <use xlink:href="#DejaVuSans-b0" x="127.246094"/>
      </g>
     </g>
    </g>
   </g>
   <g id="line2d_23">
    <defs>
     <path id="m4d5ed380f4" d="M 0 1 
C 0.265203 1 0.51958 0.894634 0.707107 0.707107 
C 0.894634 0.51958 1 0.265203 1 0 
C 1 -0.265203 0.894634 -0.51958 0.707107 -0.707107 
C 0.51958 -0.894634 0.265203 -1 0 -1 
C -0.265203 -1 -0.51958 -0.894634 -0.707107 -0.707107 
C -0.894634 -0.51958 -1 -0.265203 -1 0 
C -1 0.265203 -0.894634 0.51958 -0.707107 0.707107 
C -0.51958 0.894634 -0.265203 1 0 1 
z
" style="stroke: #1f77b4; stroke-opacity: 0.3"/>
    </defs>
    <g clip-path="url(#p13d214ebe2)">
     <use xlink:href="#m4d5ed380f4" x="111.985679" y="124.439245" style="fill: #1f77b4; fill-opacity: 0.3; stroke: #1f77b4; stroke-opacity: 0.3"/>
     <use xlink:href="#m4d5ed380f4" x="309.205728" y="107.834999" style="fill: #1f77b4; fill-opacity: 0.3; stroke: #1f77b4; stroke-opacity: 0.3"/>
     <use xlink:href="#m4d5ed380f4" x="414.93354" y="141.781474" style="fill: #1f77b4; fill-opacity: 0.3; stroke: #1f77b4; stroke-opacity: 0.3"/>
     <use xlink:href="#m4d5ed380f4" x="326.465057" y="232.071358" style="fill: #1f77b4; fill-opacity: 0.3; stroke: #1f77b4; stroke-opacity: 0.3"/>
     <use xlink:href="#m4d5ed380f4" x="80.179735" y="207.192564" style="fill: #1f77b4; fill-opacity: 0.3; stroke: #1f77b4; stroke-opacity: 0.3"/>
     <use xlink:href="#m4d5ed380f4" x="192.24539" y="215.717308" style="fill: #1f77b4; fill-opacity: 0.3; stroke: #1f77b4; stroke-opacity: 0.3"/>
     <use xlink:href="#m4d5ed380f4" x="372.855889" y="113.956109" style="fill: #1f77b4; fill-opacity: 0.3; stroke: #1f77b4; stroke-opacity: 0.3"/>
     <use xlink:href="#m4d5ed380f4" x="233.407403" y="102.124632" style="fill: #1f77b4; fill-opacity: 0.3; stroke: #1f77b4; stroke-opacity: 0.3"/>
     <use xlink:href="#m4d5ed380f4" x="199.468304" y="242.79161" style="fill: #1f77b4; fill-opacity: 0.3; stroke: #1f77b4; stroke-opacity: 0.3"/>
     <use xlink:href="#m4d5ed380f4" x="168.748882" y="233.854515" style="fill: #1f77b4; fill-opacity: 0.3; stroke: #1f77b4; stroke-opacity: 0.3"/>
     <use xlink:href="#m4d5ed380f4" x="407.935952" y="170.230838" style="fill: #1f77b4; fill-opacity: 0.3; stroke: #1f77b4; stroke-opacity: 0.3"/>
     <use xlink:href="#m4d5ed380f4" x="336.889688" y="109.17602" style="fill: #1f77b4; fill-opacity: 0.3; stroke: #1f77b4; stroke-opacity: 0.3"/>
     <use xlink:href="#m4d5ed380f4" x="391.48037" y="104.294115" style="fill: #1f77b4; fill-opacity: 0.3; stroke: #1f77b4; stroke-opacity: 0.3"/>
     <use xlink:href="#m4d5ed380f4" x="285.794516" y="151.324965" style="fill: #1f77b4; fill-opacity: 0.3; stroke: #1f77b4; stroke-opacity: 0.3"/>
     <use xlink:href="#m4d5ed380f4" x="203.673802" y="50.86342" style="fill: #1f77b4; fill-opacity: 0.3; stroke: #1f77b4; stroke-opacity: 0.3"/>
     <use xlink:href="#m4d5ed380f4" x="245.556486" y="40.872639" style="fill: #1f77b4; fill-opacity: 0.3; stroke: #1f77b4; stroke-opacity: 0.3"/>
     <use xlink:href="#m4d5ed380f4" x="224.299295" y="210.214382" style="fill: #1f77b4; fill-opacity: 0.3; stroke: #1f77b4; stroke-opacity: 0.3"/>
     <use xlink:href="#m4d5ed380f4" x="113.262985" y="199.455272" style="fill: #1f77b4; fill-opacity: 0.3; stroke: #1f77b4; stroke-opacity: 0.3"/>
     <use xlink:href="#m4d5ed380f4" x="156.198249" y="94.619196" style="fill: #1f77b4; fill-opacity: 0.3; stroke: #1f77b4; stroke-opacity: 0.3"/>
     <use xlink:href="#m4d5ed380f4" x="337.360293" y="70.307859" style="fill: #1f77b4; fill-opacity: 0.3; stroke: #1f77b4; stroke-opacity: 0.3"/>
     <use xlink:href="#m4d5ed380f4" x="245.72844" y="225.449715" style="fill: #1f77b4; fill-opacity: 0.3; stroke: #1f77b4; stroke-opacity: 0.3"/>
     <use xlink:href="#m4d5ed380f4" x="85.854977" y="120.705836" style="fill: #1f77b4; fill-opacity: 0.3; stroke: #1f77b4; stroke-opacity: 0.3"/>
     <use xlink:href="#m4d5ed380f4" x="34.490995" y="139.200869" style="fill: #1f77b4; fill-opacity: 0.3; stroke: #1f77b4; stroke-opacity: 0.3"/>
     <use xlink:href="#m4d5ed380f4" x="213.33009" y="68.457967" style="fill: #1f77b4; fill-opacity: 0.3; stroke: #1f77b4; stroke-opacity: 0.3"/>
     <use xlink:href="#m4d5ed380f4" x="336.156808" y="223.63734" style="fill: #1f77b4; fill-opacity: 0.3; stroke: #1f77b4; stroke-opacity: 0.3"/>
     <use xlink:href="#m4d5ed380f4" x="130.434897" y="121.181475" style="fill: #1f77b4; fill-opacity: 0.3; stroke: #1f77b4; stroke-opacity: 0.3"/>
     <use xlink:href="#m4d5ed380f4" x="305.901648" y="72.02011" style="fill: #1f77b4; fill-opacity: 0.3; stroke: #1f77b4; stroke-opacity: 0.3"/>
     <use xlink:href="#m4d5ed380f4" x="236.870152" y="263.025909" style="fill: #1f77b4; fill-opacity: 0.3; stroke: #1f77b4; stroke-opacity: 0.3"/>
     <use xlink:href="#m4d5ed380f4" x="258.277348" y="75.747106" style="fill: #1f77b4; fill-opacity: 0.3; stroke: #1f77b4; stroke-opacity: 0.3"/>
     <use xlink:href="#m4d5ed380f4" x="208.158965" y="107.228166" style="fill: #1f77b4; fill-opacity: 0.3; stroke: #1f77b4; stroke-opacity: 0.3"/>
     <use xlink:href="#m4d5ed380f4" x="213.085115" y="161.068977" style="fill: #1f77b4; fill-opacity: 0.3; stroke: #1f77b4; stroke-opacity: 0.3"/>
     <use xlink:href="#m4d5ed380f4" x="266.624623" y="246.817543" style="fill: #1f77b4; fill-opacity: 0.3; stroke: #1f77b4; stroke-opacity: 0.3"/>
     <use xlink:href="#m4d5ed380f4" x="278.139668" y="195.262526" style="fill: #1f77b4; fill-opacity: 0.3; stroke: #1f77b4; stroke-opacity: 0.3"/>
     <use xlink:href="#m4d5ed380f4" x="290.281463" y="111.589012" style="fill: #1f77b4; fill-opacity: 0.3; stroke: #1f77b4; stroke-opacity: 0.3"/>
     <use xlink:href="#m4d5ed380f4" x="346.399417" y="239.818914" style="fill: #1f77b4; fill-opacity: 0.3; stroke: #1f77b4; stroke-opacity: 0.3"/>
     <use xlink:href="#m4d5ed380f4" x="210.414841" y="92.285371" style="fill: #1f77b4; fill-opacity: 0.3; stroke: #1f77b4; stroke-opacity: 0.3"/>
     <use xlink:href="#m4d5ed380f4" x="341.547506" y="222.004199" style="fill: #1f77b4; fill-opacity: 0.3; stroke: #1f77b4; stroke-opacity: 0.3"/>
     <use xlink:href="#m4d5ed380f4" x="400.248998" y="76.473892" style="fill: #1f77b4; fill-opacity: 0.3; stroke: #1f77b4; stroke-opacity: 0.3"/>
     <use xlink:href="#m4d5ed380f4" x="228.539149" y="170.104226" style="fill: #1f77b4; fill-opacity: 0.3; stroke: #1f77b4; stroke-opacity: 0.3"/>
     <use xlink:href="#m4d5ed380f4" x="234.879671" y="202.031959" style="fill: #1f77b4; fill-opacity: 0.3; stroke: #1f77b4; stroke-opacity: 0.3"/>
     <use xlink:href="#m4d5ed380f4" x="198.74543" y="231.993307" style="fill: #1f77b4; fill-opacity: 0.3; stroke: #1f77b4; stroke-opacity: 0.3"/>
     <use xlink:href="#m4d5ed380f4" x="124.343679" y="90.01194" style="fill: #1f77b4; fill-opacity: 0.3; stroke: #1f77b4; stroke-opacity: 0.3"/>
     <use xlink:href="#m4d5ed380f4" x="243.916386" y="40.368496" style="fill: #1f77b4; fill-opacity: 0.3; stroke: #1f77b4; stroke-opacity: 0.3"/>
     <use xlink:href="#m4d5ed380f4" x="289.196037" y="57.734327" style="fill: #1f77b4; fill-opacity: 0.3; stroke: #1f77b4; stroke-opacity: 0.3"/>
     <use xlink:href="#m4d5ed380f4" x="373.840393" y="191.493168" style="fill: #1f77b4; fill-opacity: 0.3; stroke: #1f77b4; stroke-opacity: 0.3"/>
     <use xlink:href="#m4d5ed380f4" x="238.844342" y="257.597195" style="fill: #1f77b4; fill-opacity: 0.3; stroke: #1f77b4; stroke-opacity: 0.3"/>
     <use xlink:href="#m4d5ed380f4" x="451.115237" y="195.581095" style="fill: #1f77b4; fill-opacity: 0.3; stroke: #1f77b4; stroke-opacity: 0.3"/>
     <use xlink:href="#m4d5ed380f4" x="317.023165" y="93.353348" style="fill: #1f77b4; fill-opacity: 0.3; stroke: #1f77b4; stroke-opacity: 0.3"/>
     <use xlink:href="#m4d5ed380f4" x="231.659926" y="127.062455" style="fill: #1f77b4; fill-opacity: 0.3; stroke: #1f77b4; stroke-opacity: 0.3"/>
     <use xlink:href="#m4d5ed380f4" x="247.692987" y="193.771271" style="fill: #1f77b4; fill-opacity: 0.3; stroke: #1f77b4; stroke-opacity: 0.3"/>
     <use xlink:href="#m4d5ed380f4" x="243.485457" y="169.116669" style="fill: #1f77b4; fill-opacity: 0.3; stroke: #1f77b4; stroke-opacity: 0.3"/>
     <use xlink:href="#m4d5ed380f4" x="226.556371" y="211.924197" style="fill: #1f77b4; fill-opacity: 0.3; stroke: #1f77b4; stroke-opacity: 0.3"/>
     <use xlink:href="#m4d5ed380f4" x="443.572106" y="159.603672" style="fill: #1f77b4; fill-opacity: 0.3; stroke: #1f77b4; stroke-opacity: 0.3"/>
     <use xlink:href="#m4d5ed380f4" x="184.602163" y="244.964218" style="fill: #1f77b4; fill-opacity: 0.3; stroke: #1f77b4; stroke-opacity: 0.3"/>
     <use xlink:href="#m4d5ed380f4" x="203.258404" y="45.402625" style="fill: #1f77b4; fill-opacity: 0.3; stroke: #1f77b4; stroke-opacity: 0.3"/>
     <use xlink:href="#m4d5ed380f4" x="279.500221" y="47.052354" style="fill: #1f77b4; fill-opacity: 0.3; stroke: #1f77b4; stroke-opacity: 0.3"/>
     <use xlink:href="#m4d5ed380f4" x="212.056354" y="247.965524" style="fill: #1f77b4; fill-opacity: 0.3; stroke: #1f77b4; stroke-opacity: 0.3"/>
     <use xlink:href="#m4d5ed380f4" x="237.125299" y="45.011364" style="fill: #1f77b4; fill-opacity: 0.3; stroke: #1f77b4; stroke-opacity: 0.3"/>
     <use xlink:href="#m4d5ed380f4" x="189.701281" y="95.17673" style="fill: #1f77b4; fill-opacity: 0.3; stroke: #1f77b4; stroke-opacity: 0.3"/>
     <use xlink:href="#m4d5ed380f4" x="235.444372" y="75.232728" style="fill: #1f77b4; fill-opacity: 0.3; stroke: #1f77b4; stroke-opacity: 0.3"/>
     <use xlink:href="#m4d5ed380f4" x="184.247269" y="118.776727" style="fill: #1f77b4; fill-opacity: 0.3; stroke: #1f77b4; stroke-opacity: 0.3"/>
     <use xlink:href="#m4d5ed380f4" x="260.61348" y="191.52903" style="fill: #1f77b4; fill-opacity: 0.3; stroke: #1f77b4; stroke-opacity: 0.3"/>
     <use xlink:href="#m4d5ed380f4" x="309.243533" y="77.344222" style="fill: #1f77b4; fill-opacity: 0.3; stroke: #1f77b4; stroke-opacity: 0.3"/>
     <use xlink:href="#m4d5ed380f4" x="116.265737" y="127.224611" style="fill: #1f77b4; fill-opacity: 0.3; stroke: #1f77b4; stroke-opacity: 0.3"/>
     <use xlink:href="#m4d5ed380f4" x="50.904371" y="123.569198" style="fill: #1f77b4; fill-opacity: 0.3; stroke: #1f77b4; stroke-opacity: 0.3"/>
     <use xlink:href="#m4d5ed380f4" x="335.41368" y="138.471117" style="fill: #1f77b4; fill-opacity: 0.3; stroke: #1f77b4; stroke-opacity: 0.3"/>
     <use xlink:href="#m4d5ed380f4" x="285.264813" y="76.398286" style="fill: #1f77b4; fill-opacity: 0.3; stroke: #1f77b4; stroke-opacity: 0.3"/>
     <use xlink:href="#m4d5ed380f4" x="368.371578" y="136.056302" style="fill: #1f77b4; fill-opacity: 0.3; stroke: #1f77b4; stroke-opacity: 0.3"/>
     <use xlink:href="#m4d5ed380f4" x="439.358497" y="112.406833" style="fill: #1f77b4; fill-opacity: 0.3; stroke: #1f77b4; stroke-opacity: 0.3"/>
     <use xlink:href="#m4d5ed380f4" x="185.660208" y="67.202027" style="fill: #1f77b4; fill-opacity: 0.3; stroke: #1f77b4; stroke-opacity: 0.3"/>
     <use xlink:href="#m4d5ed380f4" x="170.266897" y="180.271088" style="fill: #1f77b4; fill-opacity: 0.3; stroke: #1f77b4; stroke-opacity: 0.3"/>
     <use xlink:href="#m4d5ed380f4" x="253.691804" y="42.701479" style="fill: #1f77b4; fill-opacity: 0.3; stroke: #1f77b4; stroke-opacity: 0.3"/>
     <use xlink:href="#m4d5ed380f4" x="399.526441" y="174.130258" style="fill: #1f77b4; fill-opacity: 0.3; stroke: #1f77b4; stroke-opacity: 0.3"/>
     <use xlink:href="#m4d5ed380f4" x="204.543469" y="126.378765" style="fill: #1f77b4; fill-opacity: 0.3; stroke: #1f77b4; stroke-opacity: 0.3"/>
     <use xlink:href="#m4d5ed380f4" x="283.369178" y="188.738048" style="fill: #1f77b4; fill-opacity: 0.3; stroke: #1f77b4; stroke-opacity: 0.3"/>
     <use xlink:href="#m4d5ed380f4" x="403.392518" y="98.995419" style="fill: #1f77b4; fill-opacity: 0.3; stroke: #1f77b4; stroke-opacity: 0.3"/>
     <use xlink:href="#m4d5ed380f4" x="186.263486" y="57.621668" style="fill: #1f77b4; fill-opacity: 0.3; stroke: #1f77b4; stroke-opacity: 0.3"/>
     <use xlink:href="#m4d5ed380f4" x="274.676586" y="81.806925" style="fill: #1f77b4; fill-opacity: 0.3; stroke: #1f77b4; stroke-opacity: 0.3"/>
     <use xlink:href="#m4d5ed380f4" x="242.074326" y="89.289225" style="fill: #1f77b4; fill-opacity: 0.3; stroke: #1f77b4; stroke-opacity: 0.3"/>
     <use xlink:href="#m4d5ed380f4" x="69.271105" y="179.65579" style="fill: #1f77b4; fill-opacity: 0.3; stroke: #1f77b4; stroke-opacity: 0.3"/>
     <use xlink:href="#m4d5ed380f4" x="64.429444" y="174.975936" style="fill: #1f77b4; fill-opacity: 0.3; stroke: #1f77b4; stroke-opacity: 0.3"/>
     <use xlink:href="#m4d5ed380f4" x="251.313119" y="246.014589" style="fill: #1f77b4; fill-opacity: 0.3; stroke: #1f77b4; stroke-opacity: 0.3"/>
     <use xlink:href="#m4d5ed380f4" x="214.62278" y="254.368868" style="fill: #1f77b4; fill-opacity: 0.3; stroke: #1f77b4; stroke-opacity: 0.3"/>
     <use xlink:href="#m4d5ed380f4" x="133.983193" y="208.542339" style="fill: #1f77b4; fill-opacity: 0.3; stroke: #1f77b4; stroke-opacity: 0.3"/>
     <use xlink:href="#m4d5ed380f4" x="174.153251" y="52.002257" style="fill: #1f77b4; fill-opacity: 0.3; stroke: #1f77b4; stroke-opacity: 0.3"/>
     <use xlink:href="#m4d5ed380f4" x="246.397538" y="255.74812" style="fill: #1f77b4; fill-opacity: 0.3; stroke: #1f77b4; stroke-opacity: 0.3"/>
     <use xlink:href="#m4d5ed380f4" x="106.097415" y="156.522614" style="fill: #1f77b4; fill-opacity: 0.3; stroke: #1f77b4; stroke-opacity: 0.3"/>
     <use xlink:href="#m4d5ed380f4" x="56.672726" y="116.858776" style="fill: #1f77b4; fill-opacity: 0.3; stroke: #1f77b4; stroke-opacity: 0.3"/>
     <use xlink:href="#m4d5ed380f4" x="301.909046" y="137.105624" style="fill: #1f77b4; fill-opacity: 0.3; stroke: #1f77b4; stroke-opacity: 0.3"/>
     <use xlink:href="#m4d5ed380f4" x="237.844045" y="169.390776" style="fill: #1f77b4; fill-opacity: 0.3; stroke: #1f77b4; stroke-opacity: 0.3"/>
     <use xlink:href="#m4d5ed380f4" x="98.803309" y="99.217134" style="fill: #1f77b4; fill-opacity: 0.3; stroke: #1f77b4; stroke-opacity: 0.3"/>
     <use xlink:href="#m4d5ed380f4" x="52.57725" y="115.070969" style="fill: #1f77b4; fill-opacity: 0.3; stroke: #1f77b4; stroke-opacity: 0.3"/>
     <use xlink:href="#m4d5ed380f4" x="320.071315" y="205.33007" style="fill: #1f77b4; fill-opacity: 0.3; stroke: #1f77b4; stroke-opacity: 0.3"/>
     <use xlink:href="#m4d5ed380f4" x="172.771814" y="197.554861" style="fill: #1f77b4; fill-opacity: 0.3; stroke: #1f77b4; stroke-opacity: 0.3"/>
     <use xlink:href="#m4d5ed380f4" x="162.724015" y="218.522314" style="fill: #1f77b4; fill-opacity: 0.3; stroke: #1f77b4; stroke-opacity: 0.3"/>
     <use xlink:href="#m4d5ed380f4" x="209.80908" y="225.700739" style="fill: #1f77b4; fill-opacity: 0.3; stroke: #1f77b4; stroke-opacity: 0.3"/>
     <use xlink:href="#m4d5ed380f4" x="291.476276" y="240.211609" style="fill: #1f77b4; fill-opacity: 0.3; stroke: #1f77b4; stroke-opacity: 0.3"/>
     <use xlink:href="#m4d5ed380f4" x="350.75105" y="139.376368" style="fill: #1f77b4; fill-opacity: 0.3; stroke: #1f77b4; stroke-opacity: 0.3"/>
     <use xlink:href="#m4d5ed380f4" x="130.910344" y="199.043447" style="fill: #1f77b4; fill-opacity: 0.3; stroke: #1f77b4; stroke-opacity: 0.3"/>
     <use xlink:href="#m4d5ed380f4" x="341.974647" y="214.975044" style="fill: #1f77b4; fill-opacity: 0.3; stroke: #1f77b4; stroke-opacity: 0.3"/>
    </g>
   </g>
   <g id="patch_3">
    <path d="M 252.127457 263.374125 
C 311.320789 263.374125 368.097684 251.615245 409.95369 230.687242 
C 451.809697 209.759239 475.327457 181.370791 475.327457 151.774125 
C 475.327457 122.177459 451.809697 93.789011 409.95369 72.861008 
C 368.097684 51.933005 311.320789 40.174125 252.127457 40.174125 
C 192.934125 40.174125 136.15723 51.933005 94.301223 72.861008 
C 52.445217 93.789011 28.927457 122.177459 28.927457 151.774125 
C 28.927457 181.370791 52.445217 209.759239 94.301223 230.687242 
C 136.15723 251.615245 192.934125 263.374125 252.127457 263.374125 
L 252.127457 263.374125 
z
" style="fill: none; stroke: #000000; stroke-width: 0.8; stroke-linejoin: miter; stroke-linecap: square"/>
   </g>
   <g id="text_23">
    <!-- Aitoff projection of our random data -->
    <g transform="translate(144.102144 16.318125)scale(0.12 -0.12)">
     <defs>
      <path id="DejaVuSans-41" d="M 2188 4044 
L 1331 1722 
L 3047 1722 
L 2188 4044 
z
M 1831 4666 
L 2547 4666 
L 4325 0 
L 3669 0 
L 3244 1197 
L 1141 1197 
L 716 0 
L 50 0 
L 1831 4666 
z
" transform="scale(0.015625)"/>
      <path id="DejaVuSans-69" d="M 603 3500 
L 1178 3500 
L 1178 0 
L 603 0 
L 603 3500 
z
M 603 4863 
L 1178 4863 
L 1178 4134 
L 603 4134 
L 603 4863 
z
" transform="scale(0.015625)"/>
      <path id="DejaVuSans-74" d="M 1172 4494 
L 1172 3500 
L 2356 3500 
L 2356 3053 
L 1172 3053 
L 1172 1153 
Q 1172 725 1289 603 
Q 1406 481 1766 481 
L 2356 481 
L 2356 0 
L 1766 0 
Q 1100 0 847 248 
Q 594 497 594 1153 
L 594 3053 
L 172 3053 
L 172 3500 
L 594 3500 
L 594 4494 
L 1172 4494 
z
" transform="scale(0.015625)"/>
      <path id="DejaVuSans-6f" d="M 1959 3097 
Q 1497 3097 1228 2736 
Q 959 2375 959 1747 
Q 959 1119 1226 758 
Q 1494 397 1959 397 
Q 2419 397 2687 759 
Q 2956 1122 2956 1747 
Q 2956 2369 2687 2733 
Q 2419 3097 1959 3097 
z
M 1959 3584 
Q 2709 3584 3137 3096 
Q 3566 2609 3566 1747 
Q 3566 888 3137 398 
Q 2709 -91 1959 -91 
Q 1206 -91 779 398 
Q 353 888 353 1747 
Q 353 2609 779 3096 
Q 1206 3584 1959 3584 
z
" transform="scale(0.015625)"/>
      <path id="DejaVuSans-66" d="M 2375 4863 
L 2375 4384 
L 1825 4384 
Q 1516 4384 1395 4259 
Q 1275 4134 1275 3809 
L 1275 3500 
L 2222 3500 
L 2222 3053 
L 1275 3053 
L 1275 0 
L 697 0 
L 697 3053 
L 147 3053 
L 147 3500 
L 697 3500 
L 697 3744 
Q 697 4328 969 4595 
Q 1241 4863 1831 4863 
L 2375 4863 
z
" transform="scale(0.015625)"/>
      <path id="DejaVuSans-20" transform="scale(0.015625)"/>
      <path id="DejaVuSans-70" d="M 1159 525 
L 1159 -1331 
L 581 -1331 
L 581 3500 
L 1159 3500 
L 1159 2969 
Q 1341 3281 1617 3432 
Q 1894 3584 2278 3584 
Q 2916 3584 3314 3078 
Q 3713 2572 3713 1747 
Q 3713 922 3314 415 
Q 2916 -91 2278 -91 
Q 1894 -91 1617 61 
Q 1341 213 1159 525 
z
M 3116 1747 
Q 3116 2381 2855 2742 
Q 2594 3103 2138 3103 
Q 1681 3103 1420 2742 
Q 1159 2381 1159 1747 
Q 1159 1113 1420 752 
Q 1681 391 2138 391 
Q 2594 391 2855 752 
Q 3116 1113 3116 1747 
z
" transform="scale(0.015625)"/>
      <path id="DejaVuSans-72" d="M 2631 2963 
Q 2534 3019 2420 3045 
Q 2306 3072 2169 3072 
Q 1681 3072 1420 2755 
Q 1159 2438 1159 1844 
L 1159 0 
L 581 0 
L 581 3500 
L 1159 3500 
L 1159 2956 
Q 1341 3275 1631 3429 
Q 1922 3584 2338 3584 
Q 2397 3584 2469 3576 
Q 2541 3569 2628 3553 
L 2631 2963 
z
" transform="scale(0.015625)"/>
      <path id="DejaVuSans-6a" d="M 603 3500 
L 1178 3500 
L 1178 -63 
Q 1178 -731 923 -1031 
Q 669 -1331 103 -1331 
L -116 -1331 
L -116 -844 
L 38 -844 
Q 366 -844 484 -692 
Q 603 -541 603 -63 
L 603 3500 
z
M 603 4863 
L 1178 4863 
L 1178 4134 
L 603 4134 
L 603 4863 
z
" transform="scale(0.015625)"/>
      <path id="DejaVuSans-65" d="M 3597 1894 
L 3597 1613 
L 953 1613 
Q 991 1019 1311 708 
Q 1631 397 2203 397 
Q 2534 397 2845 478 
Q 3156 559 3463 722 
L 3463 178 
Q 3153 47 2828 -22 
Q 2503 -91 2169 -91 
Q 1331 -91 842 396 
Q 353 884 353 1716 
Q 353 2575 817 3079 
Q 1281 3584 2069 3584 
Q 2775 3584 3186 3129 
Q 3597 2675 3597 1894 
z
M 3022 2063 
Q 3016 2534 2758 2815 
Q 2500 3097 2075 3097 
Q 1594 3097 1305 2825 
Q 1016 2553 972 2059 
L 3022 2063 
z
" transform="scale(0.015625)"/>
      <path id="DejaVuSans-63" d="M 3122 3366 
L 3122 2828 
Q 2878 2963 2633 3030 
Q 2388 3097 2138 3097 
Q 1578 3097 1268 2742 
Q 959 2388 959 1747 
Q 959 1106 1268 751 
Q 1578 397 2138 397 
Q 2388 397 2633 464 
Q 2878 531 3122 666 
L 3122 134 
Q 2881 22 2623 -34 
Q 2366 -91 2075 -91 
Q 1284 -91 818 406 
Q 353 903 353 1747 
Q 353 2603 823 3093 
Q 1294 3584 2113 3584 
Q 2378 3584 2631 3529 
Q 2884 3475 3122 3366 
z
" transform="scale(0.015625)"/>
      <path id="DejaVuSans-6e" d="M 3513 2113 
L 3513 0 
L 2938 0 
L 2938 2094 
Q 2938 2591 2744 2837 
Q 2550 3084 2163 3084 
Q 1697 3084 1428 2787 
Q 1159 2491 1159 1978 
L 1159 0 
L 581 0 
L 581 3500 
L 1159 3500 
L 1159 2956 
Q 1366 3272 1645 3428 
Q 1925 3584 2291 3584 
Q 2894 3584 3203 3211 
Q 3513 2838 3513 2113 
z
" transform="scale(0.015625)"/>
      <path id="DejaVuSans-75" d="M 544 1381 
L 544 3500 
L 1119 3500 
L 1119 1403 
Q 1119 906 1312 657 
Q 1506 409 1894 409 
Q 2359 409 2629 706 
Q 2900 1003 2900 1516 
L 2900 3500 
L 3475 3500 
L 3475 0 
L 2900 0 
L 2900 538 
Q 2691 219 2414 64 
Q 2138 -91 1772 -91 
Q 1169 -91 856 284 
Q 544 659 544 1381 
z
M 1991 3584 
L 1991 3584 
z
" transform="scale(0.015625)"/>
      <path id="DejaVuSans-61" d="M 2194 1759 
Q 1497 1759 1228 1600 
Q 959 1441 959 1056 
Q 959 750 1161 570 
Q 1363 391 1709 391 
Q 2188 391 2477 730 
Q 2766 1069 2766 1631 
L 2766 1759 
L 2194 1759 
z
M 3341 1997 
L 3341 0 
L 2766 0 
L 2766 531 
Q 2569 213 2275 61 
Q 1981 -91 1556 -91 
Q 1019 -91 701 211 
Q 384 513 384 1019 
Q 384 1609 779 1909 
Q 1175 2209 1959 2209 
L 2766 2209 
L 2766 2266 
Q 2766 2663 2505 2880 
Q 2244 3097 1772 3097 
Q 1472 3097 1187 3025 
Q 903 2953 641 2809 
L 641 3341 
Q 956 3463 1253 3523 
Q 1550 3584 1831 3584 
Q 2591 3584 2966 3190 
Q 3341 2797 3341 1997 
z
" transform="scale(0.015625)"/>
      <path id="DejaVuSans-64" d="M 2906 2969 
L 2906 4863 
L 3481 4863 
L 3481 0 
L 2906 0 
L 2906 525 
Q 2725 213 2448 61 
Q 2172 -91 1784 -91 
Q 1150 -91 751 415 
Q 353 922 353 1747 
Q 353 2572 751 3078 
Q 1150 3584 1784 3584 
Q 2172 3584 2448 3432 
Q 2725 3281 2906 2969 
z
M 947 1747 
Q 947 1113 1208 752 
Q 1469 391 1925 391 
Q 2381 391 2643 752 
Q 2906 1113 2906 1747 
Q 2906 2381 2643 2742 
Q 2381 3103 1925 3103 
Q 1469 3103 1208 2742 
Q 947 2381 947 1747 
z
" transform="scale(0.015625)"/>
      <path id="DejaVuSans-6d" d="M 3328 2828 
Q 3544 3216 3844 3400 
Q 4144 3584 4550 3584 
Q 5097 3584 5394 3201 
Q 5691 2819 5691 2113 
L 5691 0 
L 5113 0 
L 5113 2094 
Q 5113 2597 4934 2840 
Q 4756 3084 4391 3084 
Q 3944 3084 3684 2787 
Q 3425 2491 3425 1978 
L 3425 0 
L 2847 0 
L 2847 2094 
Q 2847 2600 2669 2842 
Q 2491 3084 2119 3084 
Q 1678 3084 1418 2786 
Q 1159 2488 1159 1978 
L 1159 0 
L 581 0 
L 581 3500 
L 1159 3500 
L 1159 2956 
Q 1356 3278 1631 3431 
Q 1906 3584 2284 3584 
Q 2666 3584 2933 3390 
Q 3200 3197 3328 2828 
z
" transform="scale(0.015625)"/>
     </defs>
     <use xlink:href="#DejaVuSans-41"/>
     <use xlink:href="#DejaVuSans-69" x="68.408203"/>
     <use xlink:href="#DejaVuSans-74" x="96.191406"/>
     <use xlink:href="#DejaVuSans-6f" x="135.400391"/>
     <use xlink:href="#DejaVuSans-66" x="196.582031"/>
     <use xlink:href="#DejaVuSans-66" x="231.787109"/>
     <use xlink:href="#DejaVuSans-20" x="266.992188"/>
     <use xlink:href="#DejaVuSans-70" x="298.779297"/>
     <use xlink:href="#DejaVuSans-72" x="362.255859"/>
     <use xlink:href="#DejaVuSans-6f" x="401.119141"/>
     <use xlink:href="#DejaVuSans-6a" x="462.300781"/>
     <use xlink:href="#DejaVuSans-65" x="490.083984"/>
     <use xlink:href="#DejaVuSans-63" x="551.607422"/>
     <use xlink:href="#DejaVuSans-74" x="606.587891"/>
     <use xlink:href="#DejaVuSans-69" x="645.796875"/>
     <use xlink:href="#DejaVuSans-6f" x="673.580078"/>
     <use xlink:href="#DejaVuSans-6e" x="734.761719"/>
     <use xlink:href="#DejaVuSans-20" x="798.140625"/>
     <use xlink:href="#DejaVuSans-6f" x="829.927734"/>
     <use xlink:href="#DejaVuSans-66" x="891.109375"/>
     <use xlink:href="#DejaVuSans-20" x="926.314453"/>
     <use xlink:href="#DejaVuSans-6f" x="958.101562"/>
     <use xlink:href="#DejaVuSans-75" x="1019.283203"/>
     <use xlink:href="#DejaVuSans-72" x="1082.662109"/>
     <use xlink:href="#DejaVuSans-20" x="1123.775391"/>
     <use xlink:href="#DejaVuSans-72" x="1155.5625"/>
     <use xlink:href="#DejaVuSans-61" x="1196.675781"/>
     <use xlink:href="#DejaVuSans-6e" x="1257.955078"/>
     <use xlink:href="#DejaVuSans-64" x="1321.333984"/>
     <use xlink:href="#DejaVuSans-6f" x="1384.810547"/>
     <use xlink:href="#DejaVuSans-6d" x="1445.992188"/>
     <use xlink:href="#DejaVuSans-20" x="1543.404297"/>
     <use xlink:href="#DejaVuSans-64" x="1575.191406"/>
     <use xlink:href="#DejaVuSans-61" x="1638.667969"/>
     <use xlink:href="#DejaVuSans-74" x="1699.947266"/>
     <use xlink:href="#DejaVuSans-61" x="1739.15625"/>
    </g>
   </g>
  </g>
 </g>
 <defs>
  <clipPath id="p13d214ebe2">
   <path d="M 252.127457 263.374125 
C 311.320789 263.374125 368.097684 251.615245 409.95369 230.687242 
C 451.809697 209.759239 475.327457 181.370791 475.327457 151.774125 
C 475.327457 122.177459 451.809697 93.789011 409.95369 72.861008 
C 368.097684 51.933005 311.320789 40.174125 252.127457 40.174125 
C 192.934125 40.174125 136.15723 51.933005 94.301223 72.861008 
C 52.445217 93.789011 28.927457 122.177459 28.927457 151.774125 
C 28.927457 181.370791 52.445217 209.759239 94.301223 230.687242 
C 136.15723 251.615245 192.934125 263.374125 252.127457 263.374125 
z
"/>
  </clipPath>
 </defs>
</svg>
