<?xml version="1.0" encoding="utf-8" standalone="no"?>
<!DOCTYPE svg PUBLIC "-//W3C//DTD SVG 1.1//EN"
  "http://www.w3.org/Graphics/SVG/1.1/DTD/svg11.dtd">
<svg xmlns:xlink="http://www.w3.org/1999/xlink" width="508.86375pt" height="271.987551pt" viewBox="0 0 508.86375 271.987551" xmlns="http://www.w3.org/2000/svg" version="1.1">
 <metadata>
  <rdf:RDF xmlns:dc="http://purl.org/dc/elements/1.1/" xmlns:cc="http://creativecommons.org/ns#" xmlns:rdf="http://www.w3.org/1999/02/22-rdf-syntax-ns#">
   <cc:Work>
    <dc:type rdf:resource="http://purl.org/dc/dcmitype/StillImage"/>
    <dc:date>2022-05-09T11:03:28.336903</dc:date>
    <dc:format>image/svg+xml</dc:format>
    <dc:creator>
     <cc:Agent>
      <dc:title>Matplotlib v3.5.1, https://matplotlib.org/</dc:title>
     </cc:Agent>
    </dc:creator>
   </cc:Work>
  </rdf:RDF>
 </metadata>
 <defs>
  <style type="text/css">*{stroke-linejoin: round; stroke-linecap: butt}</style>
 </defs>
 <g id="figure_1">
  <g id="patch_1">
   <path d="M 0 271.987551 
L 508.86375 271.987551 
L 508.86375 0 
L 0 0 
L 0 271.987551 
z
" style="fill: none"/>
  </g>
  <g id="axes_1">
   <g id="patch_2">
    <path d="M 55.26375 232.495676 
L 501.66375 232.495676 
L 501.66375 10.735676 
L 55.26375 10.735676 
z
" style="fill: #ffffff"/>
   </g>
   <g id="matplotlib.axis_1">
    <g id="xtick_1">
     <g id="line2d_1">
      <defs>
       <path id="mcaef7fe218" d="M 0 0 
L 0 3.5 
" style="stroke: #000000; stroke-width: 0.8"/>
      </defs>
      <g>
       <use xlink:href="#mcaef7fe218" x="116.136477" y="232.495676" style="stroke: #000000; stroke-width: 0.8"/>
      </g>
     </g>
     <g id="text_1">
      <!-- 2.6 -->
      <g transform="translate(108.184915 247.094114)scale(0.1 -0.1)">
       <defs>
        <path id="DejaVuSans-32" d="M 1228 531 
L 3431 531 
L 3431 0 
L 469 0 
L 469 531 
Q 828 903 1448 1529 
Q 2069 2156 2228 2338 
Q 2531 2678 2651 2914 
Q 2772 3150 2772 3378 
Q 2772 3750 2511 3984 
Q 2250 4219 1831 4219 
Q 1534 4219 1204 4116 
Q 875 4013 500 3803 
L 500 4441 
Q 881 4594 1212 4672 
Q 1544 4750 1819 4750 
Q 2544 4750 2975 4387 
Q 3406 4025 3406 3419 
Q 3406 3131 3298 2873 
Q 3191 2616 2906 2266 
Q 2828 2175 2409 1742 
Q 1991 1309 1228 531 
z
" transform="scale(0.015625)"/>
        <path id="DejaVuSans-2e" d="M 684 794 
L 1344 794 
L 1344 0 
L 684 0 
L 684 794 
z
" transform="scale(0.015625)"/>
        <path id="DejaVuSans-36" d="M 2113 2584 
Q 1688 2584 1439 2293 
Q 1191 2003 1191 1497 
Q 1191 994 1439 701 
Q 1688 409 2113 409 
Q 2538 409 2786 701 
Q 3034 994 3034 1497 
Q 3034 2003 2786 2293 
Q 2538 2584 2113 2584 
z
M 3366 4563 
L 3366 3988 
Q 3128 4100 2886 4159 
Q 2644 4219 2406 4219 
Q 1781 4219 1451 3797 
Q 1122 3375 1075 2522 
Q 1259 2794 1537 2939 
Q 1816 3084 2150 3084 
Q 2853 3084 3261 2657 
Q 3669 2231 3669 1497 
Q 3669 778 3244 343 
Q 2819 -91 2113 -91 
Q 1303 -91 875 529 
Q 447 1150 447 2328 
Q 447 3434 972 4092 
Q 1497 4750 2381 4750 
Q 2619 4750 2861 4703 
Q 3103 4656 3366 4563 
z
" transform="scale(0.015625)"/>
       </defs>
       <use xlink:href="#DejaVuSans-32"/>
       <use xlink:href="#DejaVuSans-2e" x="63.623047"/>
       <use xlink:href="#DejaVuSans-36" x="95.410156"/>
      </g>
     </g>
    </g>
    <g id="xtick_2">
     <g id="line2d_2">
      <g>
       <use xlink:href="#mcaef7fe218" x="197.300114" y="232.495676" style="stroke: #000000; stroke-width: 0.8"/>
      </g>
     </g>
     <g id="text_2">
      <!-- 2.8 -->
      <g transform="translate(189.348551 247.094114)scale(0.1 -0.1)">
       <defs>
        <path id="DejaVuSans-38" d="M 2034 2216 
Q 1584 2216 1326 1975 
Q 1069 1734 1069 1313 
Q 1069 891 1326 650 
Q 1584 409 2034 409 
Q 2484 409 2743 651 
Q 3003 894 3003 1313 
Q 3003 1734 2745 1975 
Q 2488 2216 2034 2216 
z
M 1403 2484 
Q 997 2584 770 2862 
Q 544 3141 544 3541 
Q 544 4100 942 4425 
Q 1341 4750 2034 4750 
Q 2731 4750 3128 4425 
Q 3525 4100 3525 3541 
Q 3525 3141 3298 2862 
Q 3072 2584 2669 2484 
Q 3125 2378 3379 2068 
Q 3634 1759 3634 1313 
Q 3634 634 3220 271 
Q 2806 -91 2034 -91 
Q 1263 -91 848 271 
Q 434 634 434 1313 
Q 434 1759 690 2068 
Q 947 2378 1403 2484 
z
M 1172 3481 
Q 1172 3119 1398 2916 
Q 1625 2713 2034 2713 
Q 2441 2713 2670 2916 
Q 2900 3119 2900 3481 
Q 2900 3844 2670 4047 
Q 2441 4250 2034 4250 
Q 1625 4250 1398 4047 
Q 1172 3844 1172 3481 
z
" transform="scale(0.015625)"/>
       </defs>
       <use xlink:href="#DejaVuSans-32"/>
       <use xlink:href="#DejaVuSans-2e" x="63.623047"/>
       <use xlink:href="#DejaVuSans-38" x="95.410156"/>
      </g>
     </g>
    </g>
    <g id="xtick_3">
     <g id="line2d_3">
      <g>
       <use xlink:href="#mcaef7fe218" x="278.46375" y="232.495676" style="stroke: #000000; stroke-width: 0.8"/>
      </g>
     </g>
     <g id="text_3">
      <!-- 3.0 -->
      <g transform="translate(270.512188 247.094114)scale(0.1 -0.1)">
       <defs>
        <path id="DejaVuSans-33" d="M 2597 2516 
Q 3050 2419 3304 2112 
Q 3559 1806 3559 1356 
Q 3559 666 3084 287 
Q 2609 -91 1734 -91 
Q 1441 -91 1130 -33 
Q 819 25 488 141 
L 488 750 
Q 750 597 1062 519 
Q 1375 441 1716 441 
Q 2309 441 2620 675 
Q 2931 909 2931 1356 
Q 2931 1769 2642 2001 
Q 2353 2234 1838 2234 
L 1294 2234 
L 1294 2753 
L 1863 2753 
Q 2328 2753 2575 2939 
Q 2822 3125 2822 3475 
Q 2822 3834 2567 4026 
Q 2313 4219 1838 4219 
Q 1578 4219 1281 4162 
Q 984 4106 628 3988 
L 628 4550 
Q 988 4650 1302 4700 
Q 1616 4750 1894 4750 
Q 2613 4750 3031 4423 
Q 3450 4097 3450 3541 
Q 3450 3153 3228 2886 
Q 3006 2619 2597 2516 
z
" transform="scale(0.015625)"/>
        <path id="DejaVuSans-30" d="M 2034 4250 
Q 1547 4250 1301 3770 
Q 1056 3291 1056 2328 
Q 1056 1369 1301 889 
Q 1547 409 2034 409 
Q 2525 409 2770 889 
Q 3016 1369 3016 2328 
Q 3016 3291 2770 3770 
Q 2525 4250 2034 4250 
z
M 2034 4750 
Q 2819 4750 3233 4129 
Q 3647 3509 3647 2328 
Q 3647 1150 3233 529 
Q 2819 -91 2034 -91 
Q 1250 -91 836 529 
Q 422 1150 422 2328 
Q 422 3509 836 4129 
Q 1250 4750 2034 4750 
z
" transform="scale(0.015625)"/>
       </defs>
       <use xlink:href="#DejaVuSans-33"/>
       <use xlink:href="#DejaVuSans-2e" x="63.623047"/>
       <use xlink:href="#DejaVuSans-30" x="95.410156"/>
      </g>
     </g>
    </g>
    <g id="xtick_4">
     <g id="line2d_4">
      <g>
       <use xlink:href="#mcaef7fe218" x="359.627386" y="232.495676" style="stroke: #000000; stroke-width: 0.8"/>
      </g>
     </g>
     <g id="text_4">
      <!-- 3.2 -->
      <g transform="translate(351.675824 247.094114)scale(0.1 -0.1)">
       <use xlink:href="#DejaVuSans-33"/>
       <use xlink:href="#DejaVuSans-2e" x="63.623047"/>
       <use xlink:href="#DejaVuSans-32" x="95.410156"/>
      </g>
     </g>
    </g>
    <g id="xtick_5">
     <g id="line2d_5">
      <g>
       <use xlink:href="#mcaef7fe218" x="440.791023" y="232.495676" style="stroke: #000000; stroke-width: 0.8"/>
      </g>
     </g>
     <g id="text_5">
      <!-- 3.4 -->
      <g transform="translate(432.83946 247.094114)scale(0.1 -0.1)">
       <defs>
        <path id="DejaVuSans-34" d="M 2419 4116 
L 825 1625 
L 2419 1625 
L 2419 4116 
z
M 2253 4666 
L 3047 4666 
L 3047 1625 
L 3713 1625 
L 3713 1100 
L 3047 1100 
L 3047 0 
L 2419 0 
L 2419 1100 
L 313 1100 
L 313 1709 
L 2253 4666 
z
" transform="scale(0.015625)"/>
       </defs>
       <use xlink:href="#DejaVuSans-33"/>
       <use xlink:href="#DejaVuSans-2e" x="63.623047"/>
       <use xlink:href="#DejaVuSans-34" x="95.410156"/>
      </g>
     </g>
    </g>
    <g id="text_6">
     <!-- period [day] -->
     <g transform="translate(241.723125 262.291926)scale(0.12 -0.12)">
      <defs>
       <path id="DejaVuSans-70" d="M 1159 525 
L 1159 -1331 
L 581 -1331 
L 581 3500 
L 1159 3500 
L 1159 2969 
Q 1341 3281 1617 3432 
Q 1894 3584 2278 3584 
Q 2916 3584 3314 3078 
Q 3713 2572 3713 1747 
Q 3713 922 3314 415 
Q 2916 -91 2278 -91 
Q 1894 -91 1617 61 
Q 1341 213 1159 525 
z
M 3116 1747 
Q 3116 2381 2855 2742 
Q 2594 3103 2138 3103 
Q 1681 3103 1420 2742 
Q 1159 2381 1159 1747 
Q 1159 1113 1420 752 
Q 1681 391 2138 391 
Q 2594 391 2855 752 
Q 3116 1113 3116 1747 
z
" transform="scale(0.015625)"/>
       <path id="DejaVuSans-65" d="M 3597 1894 
L 3597 1613 
L 953 1613 
Q 991 1019 1311 708 
Q 1631 397 2203 397 
Q 2534 397 2845 478 
Q 3156 559 3463 722 
L 3463 178 
Q 3153 47 2828 -22 
Q 2503 -91 2169 -91 
Q 1331 -91 842 396 
Q 353 884 353 1716 
Q 353 2575 817 3079 
Q 1281 3584 2069 3584 
Q 2775 3584 3186 3129 
Q 3597 2675 3597 1894 
z
M 3022 2063 
Q 3016 2534 2758 2815 
Q 2500 3097 2075 3097 
Q 1594 3097 1305 2825 
Q 1016 2553 972 2059 
L 3022 2063 
z
" transform="scale(0.015625)"/>
       <path id="DejaVuSans-72" d="M 2631 2963 
Q 2534 3019 2420 3045 
Q 2306 3072 2169 3072 
Q 1681 3072 1420 2755 
Q 1159 2438 1159 1844 
L 1159 0 
L 581 0 
L 581 3500 
L 1159 3500 
L 1159 2956 
Q 1341 3275 1631 3429 
Q 1922 3584 2338 3584 
Q 2397 3584 2469 3576 
Q 2541 3569 2628 3553 
L 2631 2963 
z
" transform="scale(0.015625)"/>
       <path id="DejaVuSans-69" d="M 603 3500 
L 1178 3500 
L 1178 0 
L 603 0 
L 603 3500 
z
M 603 4863 
L 1178 4863 
L 1178 4134 
L 603 4134 
L 603 4863 
z
" transform="scale(0.015625)"/>
       <path id="DejaVuSans-6f" d="M 1959 3097 
Q 1497 3097 1228 2736 
Q 959 2375 959 1747 
Q 959 1119 1226 758 
Q 1494 397 1959 397 
Q 2419 397 2687 759 
Q 2956 1122 2956 1747 
Q 2956 2369 2687 2733 
Q 2419 3097 1959 3097 
z
M 1959 3584 
Q 2709 3584 3137 3096 
Q 3566 2609 3566 1747 
Q 3566 888 3137 398 
Q 2709 -91 1959 -91 
Q 1206 -91 779 398 
Q 353 888 353 1747 
Q 353 2609 779 3096 
Q 1206 3584 1959 3584 
z
" transform="scale(0.015625)"/>
       <path id="DejaVuSans-64" d="M 2906 2969 
L 2906 4863 
L 3481 4863 
L 3481 0 
L 2906 0 
L 2906 525 
Q 2725 213 2448 61 
Q 2172 -91 1784 -91 
Q 1150 -91 751 415 
Q 353 922 353 1747 
Q 353 2572 751 3078 
Q 1150 3584 1784 3584 
Q 2172 3584 2448 3432 
Q 2725 3281 2906 2969 
z
M 947 1747 
Q 947 1113 1208 752 
Q 1469 391 1925 391 
Q 2381 391 2643 752 
Q 2906 1113 2906 1747 
Q 2906 2381 2643 2742 
Q 2381 3103 1925 3103 
Q 1469 3103 1208 2742 
Q 947 2381 947 1747 
z
" transform="scale(0.015625)"/>
       <path id="DejaVuSans-20" transform="scale(0.015625)"/>
       <path id="DejaVuSans-5b" d="M 550 4863 
L 1875 4863 
L 1875 4416 
L 1125 4416 
L 1125 -397 
L 1875 -397 
L 1875 -844 
L 550 -844 
L 550 4863 
z
" transform="scale(0.015625)"/>
       <path id="DejaVuSans-61" d="M 2194 1759 
Q 1497 1759 1228 1600 
Q 959 1441 959 1056 
Q 959 750 1161 570 
Q 1363 391 1709 391 
Q 2188 391 2477 730 
Q 2766 1069 2766 1631 
L 2766 1759 
L 2194 1759 
z
M 3341 1997 
L 3341 0 
L 2766 0 
L 2766 531 
Q 2569 213 2275 61 
Q 1981 -91 1556 -91 
Q 1019 -91 701 211 
Q 384 513 384 1019 
Q 384 1609 779 1909 
Q 1175 2209 1959 2209 
L 2766 2209 
L 2766 2266 
Q 2766 2663 2505 2880 
Q 2244 3097 1772 3097 
Q 1472 3097 1187 3025 
Q 903 2953 641 2809 
L 641 3341 
Q 956 3463 1253 3523 
Q 1550 3584 1831 3584 
Q 2591 3584 2966 3190 
Q 3341 2797 3341 1997 
z
" transform="scale(0.015625)"/>
       <path id="DejaVuSans-79" d="M 2059 -325 
Q 1816 -950 1584 -1140 
Q 1353 -1331 966 -1331 
L 506 -1331 
L 506 -850 
L 844 -850 
Q 1081 -850 1212 -737 
Q 1344 -625 1503 -206 
L 1606 56 
L 191 3500 
L 800 3500 
L 1894 763 
L 2988 3500 
L 3597 3500 
L 2059 -325 
z
" transform="scale(0.015625)"/>
       <path id="DejaVuSans-5d" d="M 1947 4863 
L 1947 -844 
L 622 -844 
L 622 -397 
L 1369 -397 
L 1369 4416 
L 622 4416 
L 622 4863 
L 1947 4863 
z
" transform="scale(0.015625)"/>
      </defs>
      <use xlink:href="#DejaVuSans-70"/>
      <use xlink:href="#DejaVuSans-65" x="63.476562"/>
      <use xlink:href="#DejaVuSans-72" x="125"/>
      <use xlink:href="#DejaVuSans-69" x="166.113281"/>
      <use xlink:href="#DejaVuSans-6f" x="193.896484"/>
      <use xlink:href="#DejaVuSans-64" x="255.078125"/>
      <use xlink:href="#DejaVuSans-20" x="318.554688"/>
      <use xlink:href="#DejaVuSans-5b" x="350.341797"/>
      <use xlink:href="#DejaVuSans-64" x="389.355469"/>
      <use xlink:href="#DejaVuSans-61" x="452.832031"/>
      <use xlink:href="#DejaVuSans-79" x="514.111328"/>
      <use xlink:href="#DejaVuSans-5d" x="573.291016"/>
     </g>
    </g>
   </g>
   <g id="matplotlib.axis_2">
    <g id="ytick_1">
     <g id="line2d_6">
      <defs>
       <path id="mb3125bd764" d="M 0 0 
L -3.5 0 
" style="stroke: #000000; stroke-width: 0.8"/>
      </defs>
      <g>
       <use xlink:href="#mb3125bd764" x="55.26375" y="224.204775" style="stroke: #000000; stroke-width: 0.8"/>
      </g>
     </g>
     <g id="text_7">
      <!-- 0 -->
      <g transform="translate(41.90125 228.003994)scale(0.1 -0.1)">
       <use xlink:href="#DejaVuSans-30"/>
      </g>
     </g>
    </g>
    <g id="ytick_2">
     <g id="line2d_7">
      <g>
       <use xlink:href="#mb3125bd764" x="55.26375" y="188.670516" style="stroke: #000000; stroke-width: 0.8"/>
      </g>
     </g>
     <g id="text_8">
      <!-- 1000 -->
      <g transform="translate(22.81375 192.469735)scale(0.1 -0.1)">
       <defs>
        <path id="DejaVuSans-31" d="M 794 531 
L 1825 531 
L 1825 4091 
L 703 3866 
L 703 4441 
L 1819 4666 
L 2450 4666 
L 2450 531 
L 3481 531 
L 3481 0 
L 794 0 
L 794 531 
z
" transform="scale(0.015625)"/>
       </defs>
       <use xlink:href="#DejaVuSans-31"/>
       <use xlink:href="#DejaVuSans-30" x="63.623047"/>
       <use xlink:href="#DejaVuSans-30" x="127.246094"/>
       <use xlink:href="#DejaVuSans-30" x="190.869141"/>
      </g>
     </g>
    </g>
    <g id="ytick_3">
     <g id="line2d_8">
      <g>
       <use xlink:href="#mb3125bd764" x="55.26375" y="153.136257" style="stroke: #000000; stroke-width: 0.8"/>
      </g>
     </g>
     <g id="text_9">
      <!-- 2000 -->
      <g transform="translate(22.81375 156.935475)scale(0.1 -0.1)">
       <use xlink:href="#DejaVuSans-32"/>
       <use xlink:href="#DejaVuSans-30" x="63.623047"/>
       <use xlink:href="#DejaVuSans-30" x="127.246094"/>
       <use xlink:href="#DejaVuSans-30" x="190.869141"/>
      </g>
     </g>
    </g>
    <g id="ytick_4">
     <g id="line2d_9">
      <g>
       <use xlink:href="#mb3125bd764" x="55.26375" y="117.601997" style="stroke: #000000; stroke-width: 0.8"/>
      </g>
     </g>
     <g id="text_10">
      <!-- 3000 -->
      <g transform="translate(22.81375 121.401216)scale(0.1 -0.1)">
       <use xlink:href="#DejaVuSans-33"/>
       <use xlink:href="#DejaVuSans-30" x="63.623047"/>
       <use xlink:href="#DejaVuSans-30" x="127.246094"/>
       <use xlink:href="#DejaVuSans-30" x="190.869141"/>
      </g>
     </g>
    </g>
    <g id="ytick_5">
     <g id="line2d_10">
      <g>
       <use xlink:href="#mb3125bd764" x="55.26375" y="82.067738" style="stroke: #000000; stroke-width: 0.8"/>
      </g>
     </g>
     <g id="text_11">
      <!-- 4000 -->
      <g transform="translate(22.81375 85.866956)scale(0.1 -0.1)">
       <use xlink:href="#DejaVuSans-34"/>
       <use xlink:href="#DejaVuSans-30" x="63.623047"/>
       <use xlink:href="#DejaVuSans-30" x="127.246094"/>
       <use xlink:href="#DejaVuSans-30" x="190.869141"/>
      </g>
     </g>
    </g>
    <g id="ytick_6">
     <g id="line2d_11">
      <g>
       <use xlink:href="#mb3125bd764" x="55.26375" y="46.533478" style="stroke: #000000; stroke-width: 0.8"/>
      </g>
     </g>
     <g id="text_12">
      <!-- 5000 -->
      <g transform="translate(22.81375 50.332697)scale(0.1 -0.1)">
       <defs>
        <path id="DejaVuSans-35" d="M 691 4666 
L 3169 4666 
L 3169 4134 
L 1269 4134 
L 1269 2991 
Q 1406 3038 1543 3061 
Q 1681 3084 1819 3084 
Q 2600 3084 3056 2656 
Q 3513 2228 3513 1497 
Q 3513 744 3044 326 
Q 2575 -91 1722 -91 
Q 1428 -91 1123 -41 
Q 819 9 494 109 
L 494 744 
Q 775 591 1075 516 
Q 1375 441 1709 441 
Q 2250 441 2565 725 
Q 2881 1009 2881 1497 
Q 2881 1984 2565 2268 
Q 2250 2553 1709 2553 
Q 1456 2553 1204 2497 
Q 953 2441 691 2322 
L 691 4666 
z
" transform="scale(0.015625)"/>
       </defs>
       <use xlink:href="#DejaVuSans-35"/>
       <use xlink:href="#DejaVuSans-30" x="63.623047"/>
       <use xlink:href="#DejaVuSans-30" x="127.246094"/>
       <use xlink:href="#DejaVuSans-30" x="190.869141"/>
      </g>
     </g>
    </g>
    <g id="ytick_7">
     <g id="line2d_12">
      <g>
       <use xlink:href="#mb3125bd764" x="55.26375" y="10.999219" style="stroke: #000000; stroke-width: 0.8"/>
      </g>
     </g>
     <g id="text_13">
      <!-- 6000 -->
      <g transform="translate(22.81375 14.798437)scale(0.1 -0.1)">
       <use xlink:href="#DejaVuSans-36"/>
       <use xlink:href="#DejaVuSans-30" x="63.623047"/>
       <use xlink:href="#DejaVuSans-30" x="127.246094"/>
       <use xlink:href="#DejaVuSans-30" x="190.869141"/>
      </g>
     </g>
    </g>
    <g id="text_14">
     <!-- power -->
     <g transform="translate(16.318125 140.161301)rotate(-90)scale(0.12 -0.12)">
      <defs>
       <path id="DejaVuSans-77" d="M 269 3500 
L 844 3500 
L 1563 769 
L 2278 3500 
L 2956 3500 
L 3675 769 
L 4391 3500 
L 4966 3500 
L 4050 0 
L 3372 0 
L 2619 2869 
L 1863 0 
L 1184 0 
L 269 3500 
z
" transform="scale(0.015625)"/>
      </defs>
      <use xlink:href="#DejaVuSans-70"/>
      <use xlink:href="#DejaVuSans-6f" x="63.476562"/>
      <use xlink:href="#DejaVuSans-77" x="124.658203"/>
      <use xlink:href="#DejaVuSans-65" x="206.445312"/>
      <use xlink:href="#DejaVuSans-72" x="267.96875"/>
     </g>
    </g>
   </g>
   <g id="line2d_13">
    <path d="M 75.554659 214.316227 
L 75.960883 213.300396 
L 76.367108 212.916662 
L 76.773332 214.330787 
L 77.179557 215.27741 
L 77.585781 215.633175 
L 77.992006 216.268595 
L 78.39823 215.721377 
L 79.210679 216.597726 
L 79.616903 216.251634 
L 80.023128 216.924531 
L 80.429352 217.031931 
L 80.835576 216.991953 
L 81.241801 217.137451 
L 81.648025 217.88957 
L 82.05425 217.774784 
L 82.866698 218.579698 
L 83.679147 218.876491 
L 84.085372 219.368373 
L 84.491596 219.440565 
L 84.89782 219.713414 
L 85.304045 219.7673 
L 85.710269 219.57431 
L 86.116494 219.791003 
L 86.522718 219.796191 
L 87.335167 220.636327 
L 87.741391 221.331509 
L 88.147616 221.238897 
L 88.55384 221.579497 
L 88.960064 221.723758 
L 89.366289 221.612275 
L 89.772513 221.875978 
L 90.178738 221.831501 
L 90.584962 221.935816 
L 90.991187 221.586622 
L 91.803635 221.658685 
L 92.20986 221.976618 
L 92.616084 221.82521 
L 93.022309 222.053508 
L 93.428533 221.802306 
L 93.834757 221.735336 
L 94.240982 221.915099 
L 94.647206 221.852236 
L 95.053431 221.914784 
L 95.865879 221.210573 
L 96.272104 221.129705 
L 96.678328 220.875864 
L 97.084553 220.327413 
L 97.490777 220.107369 
L 97.897001 220.052392 
L 99.115675 218.867457 
L 99.521899 218.686263 
L 99.928123 219.162715 
L 100.334348 218.427944 
L 100.740572 218.268124 
L 101.146797 218.660226 
L 101.553021 218.057671 
L 102.36547 218.43356 
L 102.771694 217.701513 
L 103.177919 218.148155 
L 103.584143 217.399021 
L 103.990368 217.991604 
L 104.396592 217.81069 
L 104.802816 217.152972 
L 105.209041 218.282303 
L 105.615265 218.802214 
L 106.02149 219.037855 
L 106.427714 219.87686 
L 106.833938 219.526499 
L 107.240163 220.049604 
L 107.646387 219.961261 
L 108.052612 220.585376 
L 108.86506 220.636564 
L 109.677509 221.903085 
L 110.083734 221.630337 
L 110.489958 221.789517 
L 110.896182 221.676151 
L 111.302407 221.977179 
L 111.708631 222.091922 
L 112.114856 222.005775 
L 112.52108 221.590782 
L 113.739753 221.52519 
L 114.145978 221.859856 
L 114.958426 221.973084 
L 115.364651 221.576629 
L 115.770875 221.474901 
L 116.1771 221.555081 
L 116.583324 221.980756 
L 116.989549 221.578748 
L 117.395773 221.694073 
L 117.801997 221.404294 
L 118.208222 221.451735 
L 118.614446 221.689914 
L 119.020671 221.750675 
L 119.426895 222.027107 
L 119.833119 221.825379 
L 120.239344 221.940221 
L 120.645568 221.713616 
L 121.051793 221.766895 
L 121.458017 221.568957 
L 122.270466 221.857034 
L 123.082915 222.191487 
L 123.489139 221.752068 
L 124.301588 221.750745 
L 124.707812 222.014638 
L 125.114037 222.042936 
L 125.520261 222.233433 
L 125.926485 221.879099 
L 126.33271 221.994586 
L 127.145159 221.819865 
L 127.957607 222.043503 
L 128.363832 221.935194 
L 128.770056 221.536715 
L 129.176281 221.479016 
L 129.582505 221.591442 
L 129.98873 221.560555 
L 130.394954 222.025788 
L 130.801178 222.11315 
L 131.207403 222.063574 
L 131.613627 221.775112 
L 132.019852 222.04696 
L 132.426076 221.99554 
L 132.8323 222.327715 
L 133.644749 222.247182 
L 134.050974 221.816537 
L 134.863422 221.839136 
L 135.269647 221.871435 
L 136.082096 222.287248 
L 137.300769 221.983528 
L 137.706993 222.013744 
L 138.113218 222.218479 
L 138.925666 222.258389 
L 139.331891 222.415676 
L 140.550564 222.199273 
L 140.956788 222.406675 
L 141.363013 222.286011 
L 141.769237 222.316168 
L 142.175462 221.953413 
L 143.394135 222.016988 
L 143.800359 222.370043 
L 144.206584 222.123891 
L 144.612808 222.099151 
L 145.019033 221.681837 
L 145.425257 221.856382 
L 147.456379 222.008181 
L 147.862603 221.755687 
L 148.675052 221.864287 
L 149.081277 222.085453 
L 149.487501 221.973386 
L 149.893725 221.982648 
L 150.29995 221.609977 
L 150.706174 221.751196 
L 151.518623 221.641289 
L 152.737296 221.916393 
L 153.143521 221.594011 
L 153.955969 221.713369 
L 155.580867 221.991782 
L 155.987092 221.794258 
L 156.79954 221.871844 
L 157.205765 222.155894 
L 158.424438 221.61357 
L 158.830662 221.724939 
L 159.643111 221.753869 
L 160.049336 221.956416 
L 160.45556 221.834858 
L 160.861784 222.025454 
L 161.268009 221.734319 
L 162.080458 221.704475 
L 163.299131 222.011331 
L 163.705355 221.715712 
L 165.330253 222.055713 
L 165.736477 221.724096 
L 166.142702 221.658584 
L 166.548926 221.863893 
L 166.95515 221.90219 
L 167.361375 222.084749 
L 167.767599 221.807935 
L 168.986273 221.972801 
L 169.798721 221.724651 
L 170.204946 221.484697 
L 170.61117 221.88356 
L 171.423619 221.793079 
L 171.829843 221.471844 
L 172.236068 221.418733 
L 172.642292 221.731116 
L 173.048517 221.886775 
L 174.26719 221.412181 
L 174.673414 221.875351 
L 175.485863 221.721771 
L 177.516985 221.701229 
L 177.923209 221.350776 
L 178.329434 221.20102 
L 178.735658 221.655971 
L 179.141883 221.72043 
L 180.360556 221.198301 
L 180.76678 221.494366 
L 181.173005 221.430695 
L 181.579229 221.245548 
L 181.985454 220.624817 
L 182.391678 220.767168 
L 182.797902 221.261679 
L 183.204127 220.955965 
L 184.016576 221.018726 
L 184.4228 221.03655 
L 184.829024 221.408613 
L 186.047698 221.318949 
L 186.453922 221.216109 
L 186.860146 221.546059 
L 187.266371 221.710965 
L 187.672595 221.662722 
L 188.07882 221.250134 
L 188.485044 221.18958 
L 188.891268 221.38188 
L 189.297493 221.704072 
L 190.109942 221.310935 
L 190.516166 221.23036 
L 190.92239 221.415077 
L 191.328615 221.145124 
L 191.734839 221.451384 
L 192.141064 221.292345 
L 192.547288 221.497763 
L 192.953512 221.375593 
L 193.359737 221.41834 
L 193.765961 221.274556 
L 194.57841 221.47927 
L 194.984635 221.11388 
L 195.390859 221.425128 
L 195.797083 221.065451 
L 196.203308 221.011716 
L 196.609532 221.100687 
L 197.015757 220.787927 
L 197.828205 221.205966 
L 198.23443 220.878986 
L 198.640654 220.861577 
L 199.046879 220.972667 
L 199.859327 220.735587 
L 200.265552 220.109417 
L 201.484225 220.30099 
L 201.890449 220.244468 
L 202.296674 219.600681 
L 202.702898 220.088395 
L 203.109123 219.498756 
L 203.515347 219.72844 
L 203.921571 219.751336 
L 204.327796 219.232585 
L 204.73402 219.193221 
L 205.140245 219.025271 
L 205.546469 218.439718 
L 205.952693 218.916791 
L 206.358918 218.848391 
L 206.765142 218.98461 
L 207.171367 218.634762 
L 207.577591 218.110032 
L 207.983816 217.946766 
L 208.39004 217.481645 
L 208.796264 217.265688 
L 209.202489 218.035928 
L 209.608713 217.94245 
L 210.014938 218.060645 
L 210.827386 216.914123 
L 211.233611 216.808999 
L 212.04606 217.984393 
L 212.858508 217.259019 
L 213.670957 217.452373 
L 214.88963 217.302475 
L 215.295855 216.830001 
L 215.702079 216.715592 
L 216.108304 216.464055 
L 216.514528 217.207528 
L 216.920752 216.673311 
L 217.326977 216.777817 
L 217.733201 216.701918 
L 218.139426 216.490854 
L 218.951874 216.408485 
L 219.358099 216.88958 
L 219.764323 216.534308 
L 220.170548 216.020715 
L 220.576772 215.98397 
L 220.982997 216.205134 
L 221.389221 216.176368 
L 221.795445 215.364663 
L 222.20167 214.99856 
L 222.607894 215.809294 
L 223.014119 215.978841 
L 223.420343 215.804393 
L 223.826567 214.940114 
L 224.232792 213.794111 
L 224.639016 213.696371 
L 225.045241 214.318398 
L 225.451465 214.490769 
L 225.857689 214.425877 
L 226.263914 213.685312 
L 227.076363 213.012146 
L 227.482587 213.443297 
L 227.888811 213.021084 
L 228.295036 213.631561 
L 228.70126 212.592951 
L 229.107485 212.514809 
L 229.513709 212.23627 
L 229.919933 213.429858 
L 230.326158 212.894538 
L 230.732382 211.965667 
L 231.138607 212.600152 
L 231.544831 212.873455 
L 231.951055 212.510995 
L 232.35728 212.641494 
L 232.763504 212.468846 
L 233.169729 212.526496 
L 233.982178 211.76347 
L 234.388402 211.16902 
L 235.200851 210.904349 
L 236.0133 210.004608 
L 236.825748 209.027472 
L 237.638197 209.060633 
L 238.450646 206.980406 
L 239.669319 206.377053 
L 240.075544 206.738019 
L 240.481768 206.111402 
L 240.887992 204.408254 
L 241.294217 203.231451 
L 241.700441 204.445705 
L 242.106666 203.236995 
L 242.51289 202.775069 
L 242.919114 202.061436 
L 243.325339 200.420216 
L 244.137788 198.63283 
L 244.950236 199.062063 
L 245.356461 197.736031 
L 245.762685 195.952052 
L 246.16891 196.398539 
L 246.575134 195.551591 
L 246.981359 194.312419 
L 247.387583 194.049807 
L 247.793807 194.82314 
L 248.200032 194.272447 
L 249.012481 192.165972 
L 249.824929 190.500906 
L 250.231154 188.055798 
L 250.637378 187.967254 
L 251.043603 187.256087 
L 251.449827 186.126214 
L 251.856051 185.931752 
L 252.262276 185.108942 
L 252.6685 184.71426 
L 253.480949 178.508876 
L 253.887173 179.114461 
L 254.293398 177.358181 
L 254.699622 177.952482 
L 255.105847 176.127016 
L 255.512071 172.315724 
L 256.32452 167.265192 
L 256.730744 165.778264 
L 257.136969 162.751553 
L 257.543193 154.599322 
L 257.949417 156.286672 
L 258.355642 155.578334 
L 258.761866 158.194646 
L 259.574315 147.556362 
L 259.98054 148.162333 
L 260.386764 146.917885 
L 260.792988 146.77578 
L 261.199213 144.338742 
L 261.605437 140.488075 
L 262.011662 139.104045 
L 262.417886 134.685989 
L 262.82411 135.573206 
L 263.230335 133.509985 
L 264.042784 123.199314 
L 264.449008 121.809679 
L 264.855232 122.495822 
L 265.667681 112.701373 
L 266.073906 110.066082 
L 266.886354 100.098376 
L 267.292579 101.055804 
L 268.105028 92.295674 
L 268.511252 89.184844 
L 268.917476 90.525285 
L 269.323701 86.58473 
L 269.729925 85.008003 
L 270.13615 80.376927 
L 270.542374 72.546512 
L 270.948598 73.015414 
L 271.354823 76.986033 
L 272.167272 65.710603 
L 273.385945 54.897311 
L 273.792169 50.822816 
L 274.198394 56.559358 
L 274.604618 55.854685 
L 275.010843 53.731256 
L 275.417067 53.32673 
L 275.823291 55.412629 
L 276.229516 53.265025 
L 276.63574 49.44988 
L 277.041965 40.82289 
L 277.448189 38.180349 
L 277.854413 38.976012 
L 278.260638 40.48221 
L 278.666862 26.501931 
L 279.073087 31.230614 
L 279.479311 20.815676 
L 279.885535 25.177927 
L 280.29176 27.353303 
L 280.697984 35.417365 
L 281.104209 38.182994 
L 281.510433 47.788413 
L 281.916657 53.271307 
L 282.322882 52.755828 
L 283.541555 66.630896 
L 283.947779 65.909489 
L 284.354004 72.652879 
L 284.760228 76.156059 
L 285.166453 84.719623 
L 286.385126 102.141972 
L 286.79135 74.670779 
L 287.197575 80.407707 
L 287.603799 81.87648 
L 288.010024 90.37135 
L 288.416248 92.880013 
L 288.822472 92.628953 
L 289.228697 94.774037 
L 289.634921 95.5116 
L 290.041146 89.798353 
L 290.44737 95.350428 
L 290.853594 99.345302 
L 291.259819 100.074373 
L 291.666043 106.620986 
L 292.072268 109.857476 
L 292.478492 117.577708 
L 292.884716 117.757499 
L 293.290941 120.752402 
L 293.697165 119.432903 
L 294.10339 121.978486 
L 294.509614 120.180027 
L 294.915838 127.139222 
L 295.728287 133.262959 
L 296.134512 133.262959 
L 296.540736 133.720588 
L 297.353185 139.697409 
L 297.759409 140.926296 
L 298.165634 144.015372 
L 298.571858 143.709582 
L 298.978083 144.995366 
L 299.384307 148.384355 
L 299.790531 150.094176 
L 300.196756 153.597419 
L 300.60298 153.313005 
L 301.009205 153.527499 
L 302.634102 163.400835 
L 303.446551 166.890388 
L 303.852775 167.337549 
L 305.071449 173.495498 
L 305.477673 173.279384 
L 305.883897 173.279384 
L 306.290122 176.86543 
L 306.696346 176.86543 
L 307.508795 180.584503 
L 307.915019 180.584503 
L 308.321244 182.607334 
L 308.727468 183.785737 
L 309.133693 186.267057 
L 309.539917 186.005146 
L 309.946141 186.005146 
L 310.352366 186.253366 
L 310.75859 187.549134 
L 311.164815 189.29145 
L 311.571039 190.503475 
L 311.977264 191.340306 
L 312.383488 190.590334 
L 312.789712 190.410102 
L 313.195937 192.809135 
L 313.602161 192.947725 
L 314.008386 195.561516 
L 314.41461 195.267976 
L 314.820834 195.518555 
L 315.227059 195.99745 
L 315.633283 197.349912 
L 316.039508 197.900898 
L 316.445732 200.216678 
L 316.851956 200.303642 
L 317.258181 199.552134 
L 317.664405 201.135305 
L 318.07063 201.827202 
L 318.476854 201.994088 
L 318.883078 202.408339 
L 319.289303 202.296483 
L 319.695527 203.421495 
L 320.101752 203.421495 
L 320.507976 203.663856 
L 320.9142 203.376269 
L 321.320425 204.34324 
L 322.132874 206.717404 
L 322.539098 207.216882 
L 322.945322 206.261378 
L 323.351547 207.419439 
L 323.757771 207.059701 
L 324.57022 208.463798 
L 324.976445 208.650933 
L 325.382669 208.650933 
L 325.788893 208.338393 
L 326.195118 209.070565 
L 326.601342 210.3108 
L 327.007567 210.941177 
L 327.820015 209.33181 
L 328.22624 209.940075 
L 328.632464 210.127858 
L 329.038689 211.758552 
L 329.444913 211.665419 
L 331.476035 213.749663 
L 331.882259 213.148034 
L 332.288484 212.963075 
L 332.694708 213.162289 
L 333.100933 213.161326 
L 333.507157 213.998384 
L 333.913381 213.123841 
L 334.72583 213.123841 
L 335.132055 213.893313 
L 335.538279 214.386674 
L 336.350728 213.5153 
L 336.756952 213.5153 
L 337.163177 213.715978 
L 337.569401 214.936942 
L 337.975626 214.790486 
L 338.38185 215.05286 
L 338.788074 215.931312 
L 339.194299 216.503589 
L 339.600523 216.150213 
L 340.006748 215.436946 
L 340.412972 215.581657 
L 340.819196 216.382423 
L 341.225421 216.402647 
L 341.631645 216.976013 
L 342.03787 217.123789 
L 342.444094 217.150276 
L 342.850318 217.794711 
L 343.662767 217.813587 
L 344.068992 218.025089 
L 344.475216 217.694756 
L 344.88144 218.246522 
L 345.287665 218.200369 
L 345.693889 217.975414 
L 346.100114 218.2741 
L 346.506338 218.371074 
L 346.912562 217.814356 
L 347.318787 217.814356 
L 347.725011 217.622158 
L 348.131236 217.781253 
L 350.162358 217.841383 
L 350.568582 218.143888 
L 350.974807 217.714403 
L 351.381031 217.792982 
L 352.19348 217.74893 
L 352.599704 217.865352 
L 353.005929 217.539818 
L 353.412153 218.383418 
L 353.818377 218.37468 
L 354.224602 218.821473 
L 354.630826 218.894943 
L 355.037051 217.989567 
L 355.443275 217.956079 
L 355.849499 218.39363 
L 356.255724 218.527211 
L 356.661948 218.465948 
L 357.068173 218.871072 
L 357.474397 218.133386 
L 357.880621 218.133386 
L 358.286846 217.888511 
L 358.69307 218.505946 
L 359.099295 217.959532 
L 359.505519 217.959532 
L 359.911743 218.756238 
L 360.317968 218.368481 
L 361.130417 218.368481 
L 361.536641 218.782909 
L 361.942865 218.755835 
L 362.34909 219.170425 
L 363.567763 219.155211 
L 364.786436 219.662419 
L 365.192661 219.322448 
L 365.598885 219.424012 
L 366.00511 218.810138 
L 367.223783 219.871007 
L 367.630007 219.801896 
L 368.036232 220.070143 
L 368.84868 219.8296 
L 369.254905 219.931914 
L 369.661129 220.165704 
L 370.067354 219.67984 
L 370.879802 220.539423 
L 371.692251 220.560797 
L 372.098476 220.743416 
L 372.910924 220.885239 
L 373.317149 221.031968 
L 373.723373 221.004544 
L 374.129598 220.481658 
L 374.535822 220.316788 
L 374.942046 220.912197 
L 375.348271 220.903925 
L 375.754495 221.073885 
L 376.16072 220.827781 
L 376.973169 220.741983 
L 377.379393 221.167264 
L 377.785617 221.169075 
L 378.191842 220.915119 
L 379.410515 220.868178 
L 380.222964 221.018652 
L 380.629188 221.271744 
L 381.035413 221.13945 
L 381.441637 221.18515 
L 381.847861 221.081497 
L 382.254086 220.846875 
L 382.66031 220.878043 
L 383.472759 220.767429 
L 384.691432 220.789968 
L 385.503881 220.587105 
L 387.128779 220.649298 
L 387.535003 220.236238 
L 389.159901 220.104716 
L 390.378574 220.375634 
L 391.191023 220.099911 
L 391.597247 220.250961 
L 392.409696 219.824388 
L 392.81592 219.887392 
L 393.222145 219.566053 
L 393.628369 219.933226 
L 394.440818 219.732854 
L 395.253267 219.968922 
L 396.065716 220.091072 
L 396.878164 220.478823 
L 397.284389 220.506318 
L 397.690613 220.729659 
L 398.503062 220.719121 
L 399.721735 220.603317 
L 400.12796 220.734409 
L 400.534184 220.642499 
L 401.752857 220.711431 
L 402.565306 220.627763 
L 402.971531 220.25474 
L 403.377755 220.467974 
L 403.783979 220.519194 
L 404.190204 220.806334 
L 405.408877 220.860605 
L 405.815101 220.945034 
L 406.221326 221.152113 
L 408.252448 221.345106 
L 410.28357 221.390316 
L 411.096019 221.077025 
L 411.908467 221.127697 
L 412.720916 220.900708 
L 413.127141 221.097182 
L 413.533365 221.063697 
L 413.939589 221.294692 
L 414.345814 221.211957 
L 414.752038 220.723976 
L 415.564487 220.414406 
L 416.78316 220.346584 
L 417.189385 220.759892 
L 417.595609 220.872022 
L 418.001834 220.679624 
L 418.408058 220.633522 
L 419.220507 220.176607 
L 420.43918 220.360027 
L 421.251629 221.05389 
L 421.657853 220.553494 
L 424.0952 221.047909 
L 424.907648 220.652976 
L 425.313873 221.11309 
L 425.720097 221.032499 
L 426.126322 221.297545 
L 426.532546 221.308278 
L 427.344995 220.67014 
L 427.751219 220.753992 
L 428.157444 220.627202 
L 428.969893 220.796456 
L 429.376117 221.142313 
L 429.782341 221.203052 
L 430.188566 221.065668 
L 430.59479 221.080913 
L 431.001015 220.771036 
L 433.438361 221.115265 
L 433.844585 220.598834 
L 434.25081 220.532359 
L 434.657034 220.712092 
L 435.063259 220.384832 
L 435.875707 220.44011 
L 436.281932 220.448387 
L 436.688156 220.258555 
L 437.094381 220.305068 
L 437.500605 220.546202 
L 438.313054 220.70541 
L 438.719278 220.538394 
L 439.531727 220.643263 
L 439.937951 220.322898 
L 440.7504 220.411553 
L 441.562849 220.509484 
L 441.969074 220.243686 
L 442.781522 220.337918 
L 444.40642 220.250382 
L 445.625093 220.250382 
L 446.031318 220.088286 
L 446.437542 220.297757 
L 446.843766 220.253677 
L 447.656215 220.371159 
L 451.312235 220.574432 
L 451.718459 220.726068 
L 452.937132 220.636284 
L 453.343357 220.372426 
L 454.155806 220.266438 
L 456.593152 220.566338 
L 458.21805 220.539888 
L 459.030499 220.483712 
L 459.436723 220.261558 
L 460.655396 220.326985 
L 461.874069 220.586689 
L 462.686518 220.492499 
L 463.092743 220.492499 
L 463.498967 220.32086 
L 463.905191 220.379697 
L 465.123865 220.162072 
L 466.342538 220.023328 
L 466.748762 219.785274 
L 467.561211 219.941425 
L 467.967436 219.73587 
L 468.779884 219.722323 
L 469.186109 219.861831 
L 470.404782 219.827426 
L 470.811006 220.101098 
L 471.217231 219.864864 
L 471.623455 219.947468 
L 473.248353 219.315985 
L 474.87325 219.734263 
L 475.279475 219.662139 
L 475.685699 219.814268 
L 476.904372 219.553673 
L 477.310597 219.353955 
L 477.716821 219.281521 
L 478.123046 219.403541 
L 478.52927 219.322525 
L 478.935494 219.567223 
L 479.341719 219.438812 
L 479.747943 219.601053 
L 481.372841 219.422289 
L 481.372841 219.422289 
" clip-path="url(#p97d8d135e2)" style="fill: none; stroke: #000000; stroke-width: 1.5; stroke-linecap: square"/>
   </g>
   <g id="patch_3">
    <path d="M 55.26375 232.495676 
L 55.26375 10.735676 
" style="fill: none; stroke: #000000; stroke-width: 0.8; stroke-linejoin: miter; stroke-linecap: square"/>
   </g>
   <g id="patch_4">
    <path d="M 501.66375 232.495676 
L 501.66375 10.735676 
" style="fill: none; stroke: #000000; stroke-width: 0.8; stroke-linejoin: miter; stroke-linecap: square"/>
   </g>
   <g id="patch_5">
    <path d="M 55.26375 232.495676 
L 501.66375 232.495676 
" style="fill: none; stroke: #000000; stroke-width: 0.8; stroke-linejoin: miter; stroke-linecap: square"/>
   </g>
   <g id="patch_6">
    <path d="M 55.26375 10.735676 
L 501.66375 10.735676 
" style="fill: none; stroke: #000000; stroke-width: 0.8; stroke-linejoin: miter; stroke-linecap: square"/>
   </g>
  </g>
 </g>
 <defs>
  <clipPath id="p97d8d135e2">
   <rect x="55.26375" y="10.735676" width="446.4" height="221.76"/>
  </clipPath>
 </defs>
</svg>
