<?xml version="1.0" encoding="utf-8" standalone="no"?>
<!DOCTYPE svg PUBLIC "-//W3C//DTD SVG 1.1//EN"
  "http://www.w3.org/Graphics/SVG/1.1/DTD/svg11.dtd">
<svg xmlns:xlink="http://www.w3.org/1999/xlink" width="502.50125pt" height="268.451875pt" viewBox="0 0 502.50125 268.451875" xmlns="http://www.w3.org/2000/svg" version="1.1">
 <metadata>
  <rdf:RDF xmlns:dc="http://purl.org/dc/elements/1.1/" xmlns:cc="http://creativecommons.org/ns#" xmlns:rdf="http://www.w3.org/1999/02/22-rdf-syntax-ns#">
   <cc:Work>
    <dc:type rdf:resource="http://purl.org/dc/dcmitype/StillImage"/>
    <dc:date>2022-05-09T11:03:28.163863</dc:date>
    <dc:format>image/svg+xml</dc:format>
    <dc:creator>
     <cc:Agent>
      <dc:title>Matplotlib v3.5.1, https://matplotlib.org/</dc:title>
     </cc:Agent>
    </dc:creator>
   </cc:Work>
  </rdf:RDF>
 </metadata>
 <defs>
  <style type="text/css">*{stroke-linejoin: round; stroke-linecap: butt}</style>
 </defs>
 <g id="figure_1">
  <g id="patch_1">
   <path d="M 0 268.451875 
L 502.50125 268.451875 
L 502.50125 0 
L 0 0 
L 0 268.451875 
z
" style="fill: none"/>
  </g>
  <g id="axes_1">
   <g id="patch_2">
    <path d="M 48.90125 228.96 
L 495.30125 228.96 
L 495.30125 7.2 
L 48.90125 7.2 
z
" style="fill: #ffffff"/>
   </g>
   <g id="matplotlib.axis_1">
    <g id="xtick_1">
     <g id="line2d_1">
      <defs>
       <path id="md17c36946e" d="M 0 0 
L 0 3.5 
" style="stroke: #000000; stroke-width: 0.8"/>
      </defs>
      <g>
       <use xlink:href="#md17c36946e" x="52.242875" y="228.96" style="stroke: #000000; stroke-width: 0.8"/>
      </g>
     </g>
     <g id="text_1">
      <!-- 0 -->
      <g transform="translate(49.061625 243.558437)scale(0.1 -0.1)">
       <defs>
        <path id="DejaVuSans-30" d="M 2034 4250 
Q 1547 4250 1301 3770 
Q 1056 3291 1056 2328 
Q 1056 1369 1301 889 
Q 1547 409 2034 409 
Q 2525 409 2770 889 
Q 3016 1369 3016 2328 
Q 3016 3291 2770 3770 
Q 2525 4250 2034 4250 
z
M 2034 4750 
Q 2819 4750 3233 4129 
Q 3647 3509 3647 2328 
Q 3647 1150 3233 529 
Q 2819 -91 2034 -91 
Q 1250 -91 836 529 
Q 422 1150 422 2328 
Q 422 3509 836 4129 
Q 1250 4750 2034 4750 
z
" transform="scale(0.015625)"/>
       </defs>
       <use xlink:href="#DejaVuSans-30"/>
      </g>
     </g>
    </g>
    <g id="xtick_2">
     <g id="line2d_2">
      <g>
       <use xlink:href="#md17c36946e" x="136.989295" y="228.96" style="stroke: #000000; stroke-width: 0.8"/>
      </g>
     </g>
     <g id="text_2">
      <!-- 2 -->
      <g transform="translate(133.808045 243.558437)scale(0.1 -0.1)">
       <defs>
        <path id="DejaVuSans-32" d="M 1228 531 
L 3431 531 
L 3431 0 
L 469 0 
L 469 531 
Q 828 903 1448 1529 
Q 2069 2156 2228 2338 
Q 2531 2678 2651 2914 
Q 2772 3150 2772 3378 
Q 2772 3750 2511 3984 
Q 2250 4219 1831 4219 
Q 1534 4219 1204 4116 
Q 875 4013 500 3803 
L 500 4441 
Q 881 4594 1212 4672 
Q 1544 4750 1819 4750 
Q 2544 4750 2975 4387 
Q 3406 4025 3406 3419 
Q 3406 3131 3298 2873 
Q 3191 2616 2906 2266 
Q 2828 2175 2409 1742 
Q 1991 1309 1228 531 
z
" transform="scale(0.015625)"/>
       </defs>
       <use xlink:href="#DejaVuSans-32"/>
      </g>
     </g>
    </g>
    <g id="xtick_3">
     <g id="line2d_3">
      <g>
       <use xlink:href="#md17c36946e" x="221.735715" y="228.96" style="stroke: #000000; stroke-width: 0.8"/>
      </g>
     </g>
     <g id="text_3">
      <!-- 4 -->
      <g transform="translate(218.554465 243.558437)scale(0.1 -0.1)">
       <defs>
        <path id="DejaVuSans-34" d="M 2419 4116 
L 825 1625 
L 2419 1625 
L 2419 4116 
z
M 2253 4666 
L 3047 4666 
L 3047 1625 
L 3713 1625 
L 3713 1100 
L 3047 1100 
L 3047 0 
L 2419 0 
L 2419 1100 
L 313 1100 
L 313 1709 
L 2253 4666 
z
" transform="scale(0.015625)"/>
       </defs>
       <use xlink:href="#DejaVuSans-34"/>
      </g>
     </g>
    </g>
    <g id="xtick_4">
     <g id="line2d_4">
      <g>
       <use xlink:href="#md17c36946e" x="306.482134" y="228.96" style="stroke: #000000; stroke-width: 0.8"/>
      </g>
     </g>
     <g id="text_4">
      <!-- 6 -->
      <g transform="translate(303.300884 243.558437)scale(0.1 -0.1)">
       <defs>
        <path id="DejaVuSans-36" d="M 2113 2584 
Q 1688 2584 1439 2293 
Q 1191 2003 1191 1497 
Q 1191 994 1439 701 
Q 1688 409 2113 409 
Q 2538 409 2786 701 
Q 3034 994 3034 1497 
Q 3034 2003 2786 2293 
Q 2538 2584 2113 2584 
z
M 3366 4563 
L 3366 3988 
Q 3128 4100 2886 4159 
Q 2644 4219 2406 4219 
Q 1781 4219 1451 3797 
Q 1122 3375 1075 2522 
Q 1259 2794 1537 2939 
Q 1816 3084 2150 3084 
Q 2853 3084 3261 2657 
Q 3669 2231 3669 1497 
Q 3669 778 3244 343 
Q 2819 -91 2113 -91 
Q 1303 -91 875 529 
Q 447 1150 447 2328 
Q 447 3434 972 4092 
Q 1497 4750 2381 4750 
Q 2619 4750 2861 4703 
Q 3103 4656 3366 4563 
z
" transform="scale(0.015625)"/>
       </defs>
       <use xlink:href="#DejaVuSans-36"/>
      </g>
     </g>
    </g>
    <g id="xtick_5">
     <g id="line2d_5">
      <g>
       <use xlink:href="#md17c36946e" x="391.228554" y="228.96" style="stroke: #000000; stroke-width: 0.8"/>
      </g>
     </g>
     <g id="text_5">
      <!-- 8 -->
      <g transform="translate(388.047304 243.558437)scale(0.1 -0.1)">
       <defs>
        <path id="DejaVuSans-38" d="M 2034 2216 
Q 1584 2216 1326 1975 
Q 1069 1734 1069 1313 
Q 1069 891 1326 650 
Q 1584 409 2034 409 
Q 2484 409 2743 651 
Q 3003 894 3003 1313 
Q 3003 1734 2745 1975 
Q 2488 2216 2034 2216 
z
M 1403 2484 
Q 997 2584 770 2862 
Q 544 3141 544 3541 
Q 544 4100 942 4425 
Q 1341 4750 2034 4750 
Q 2731 4750 3128 4425 
Q 3525 4100 3525 3541 
Q 3525 3141 3298 2862 
Q 3072 2584 2669 2484 
Q 3125 2378 3379 2068 
Q 3634 1759 3634 1313 
Q 3634 634 3220 271 
Q 2806 -91 2034 -91 
Q 1263 -91 848 271 
Q 434 634 434 1313 
Q 434 1759 690 2068 
Q 947 2378 1403 2484 
z
M 1172 3481 
Q 1172 3119 1398 2916 
Q 1625 2713 2034 2713 
Q 2441 2713 2670 2916 
Q 2900 3119 2900 3481 
Q 2900 3844 2670 4047 
Q 2441 4250 2034 4250 
Q 1625 4250 1398 4047 
Q 1172 3844 1172 3481 
z
" transform="scale(0.015625)"/>
       </defs>
       <use xlink:href="#DejaVuSans-38"/>
      </g>
     </g>
    </g>
    <g id="xtick_6">
     <g id="line2d_6">
      <g>
       <use xlink:href="#md17c36946e" x="475.974974" y="228.96" style="stroke: #000000; stroke-width: 0.8"/>
      </g>
     </g>
     <g id="text_6">
      <!-- 10 -->
      <g transform="translate(469.612474 243.558437)scale(0.1 -0.1)">
       <defs>
        <path id="DejaVuSans-31" d="M 794 531 
L 1825 531 
L 1825 4091 
L 703 3866 
L 703 4441 
L 1819 4666 
L 2450 4666 
L 2450 531 
L 3481 531 
L 3481 0 
L 794 0 
L 794 531 
z
" transform="scale(0.015625)"/>
       </defs>
       <use xlink:href="#DejaVuSans-31"/>
       <use xlink:href="#DejaVuSans-30" x="63.623047"/>
      </g>
     </g>
    </g>
    <g id="text_7">
     <!-- period [day] -->
     <g transform="translate(235.360625 258.75625)scale(0.12 -0.12)">
      <defs>
       <path id="DejaVuSans-70" d="M 1159 525 
L 1159 -1331 
L 581 -1331 
L 581 3500 
L 1159 3500 
L 1159 2969 
Q 1341 3281 1617 3432 
Q 1894 3584 2278 3584 
Q 2916 3584 3314 3078 
Q 3713 2572 3713 1747 
Q 3713 922 3314 415 
Q 2916 -91 2278 -91 
Q 1894 -91 1617 61 
Q 1341 213 1159 525 
z
M 3116 1747 
Q 3116 2381 2855 2742 
Q 2594 3103 2138 3103 
Q 1681 3103 1420 2742 
Q 1159 2381 1159 1747 
Q 1159 1113 1420 752 
Q 1681 391 2138 391 
Q 2594 391 2855 752 
Q 3116 1113 3116 1747 
z
" transform="scale(0.015625)"/>
       <path id="DejaVuSans-65" d="M 3597 1894 
L 3597 1613 
L 953 1613 
Q 991 1019 1311 708 
Q 1631 397 2203 397 
Q 2534 397 2845 478 
Q 3156 559 3463 722 
L 3463 178 
Q 3153 47 2828 -22 
Q 2503 -91 2169 -91 
Q 1331 -91 842 396 
Q 353 884 353 1716 
Q 353 2575 817 3079 
Q 1281 3584 2069 3584 
Q 2775 3584 3186 3129 
Q 3597 2675 3597 1894 
z
M 3022 2063 
Q 3016 2534 2758 2815 
Q 2500 3097 2075 3097 
Q 1594 3097 1305 2825 
Q 1016 2553 972 2059 
L 3022 2063 
z
" transform="scale(0.015625)"/>
       <path id="DejaVuSans-72" d="M 2631 2963 
Q 2534 3019 2420 3045 
Q 2306 3072 2169 3072 
Q 1681 3072 1420 2755 
Q 1159 2438 1159 1844 
L 1159 0 
L 581 0 
L 581 3500 
L 1159 3500 
L 1159 2956 
Q 1341 3275 1631 3429 
Q 1922 3584 2338 3584 
Q 2397 3584 2469 3576 
Q 2541 3569 2628 3553 
L 2631 2963 
z
" transform="scale(0.015625)"/>
       <path id="DejaVuSans-69" d="M 603 3500 
L 1178 3500 
L 1178 0 
L 603 0 
L 603 3500 
z
M 603 4863 
L 1178 4863 
L 1178 4134 
L 603 4134 
L 603 4863 
z
" transform="scale(0.015625)"/>
       <path id="DejaVuSans-6f" d="M 1959 3097 
Q 1497 3097 1228 2736 
Q 959 2375 959 1747 
Q 959 1119 1226 758 
Q 1494 397 1959 397 
Q 2419 397 2687 759 
Q 2956 1122 2956 1747 
Q 2956 2369 2687 2733 
Q 2419 3097 1959 3097 
z
M 1959 3584 
Q 2709 3584 3137 3096 
Q 3566 2609 3566 1747 
Q 3566 888 3137 398 
Q 2709 -91 1959 -91 
Q 1206 -91 779 398 
Q 353 888 353 1747 
Q 353 2609 779 3096 
Q 1206 3584 1959 3584 
z
" transform="scale(0.015625)"/>
       <path id="DejaVuSans-64" d="M 2906 2969 
L 2906 4863 
L 3481 4863 
L 3481 0 
L 2906 0 
L 2906 525 
Q 2725 213 2448 61 
Q 2172 -91 1784 -91 
Q 1150 -91 751 415 
Q 353 922 353 1747 
Q 353 2572 751 3078 
Q 1150 3584 1784 3584 
Q 2172 3584 2448 3432 
Q 2725 3281 2906 2969 
z
M 947 1747 
Q 947 1113 1208 752 
Q 1469 391 1925 391 
Q 2381 391 2643 752 
Q 2906 1113 2906 1747 
Q 2906 2381 2643 2742 
Q 2381 3103 1925 3103 
Q 1469 3103 1208 2742 
Q 947 2381 947 1747 
z
" transform="scale(0.015625)"/>
       <path id="DejaVuSans-20" transform="scale(0.015625)"/>
       <path id="DejaVuSans-5b" d="M 550 4863 
L 1875 4863 
L 1875 4416 
L 1125 4416 
L 1125 -397 
L 1875 -397 
L 1875 -844 
L 550 -844 
L 550 4863 
z
" transform="scale(0.015625)"/>
       <path id="DejaVuSans-61" d="M 2194 1759 
Q 1497 1759 1228 1600 
Q 959 1441 959 1056 
Q 959 750 1161 570 
Q 1363 391 1709 391 
Q 2188 391 2477 730 
Q 2766 1069 2766 1631 
L 2766 1759 
L 2194 1759 
z
M 3341 1997 
L 3341 0 
L 2766 0 
L 2766 531 
Q 2569 213 2275 61 
Q 1981 -91 1556 -91 
Q 1019 -91 701 211 
Q 384 513 384 1019 
Q 384 1609 779 1909 
Q 1175 2209 1959 2209 
L 2766 2209 
L 2766 2266 
Q 2766 2663 2505 2880 
Q 2244 3097 1772 3097 
Q 1472 3097 1187 3025 
Q 903 2953 641 2809 
L 641 3341 
Q 956 3463 1253 3523 
Q 1550 3584 1831 3584 
Q 2591 3584 2966 3190 
Q 3341 2797 3341 1997 
z
" transform="scale(0.015625)"/>
       <path id="DejaVuSans-79" d="M 2059 -325 
Q 1816 -950 1584 -1140 
Q 1353 -1331 966 -1331 
L 506 -1331 
L 506 -850 
L 844 -850 
Q 1081 -850 1212 -737 
Q 1344 -625 1503 -206 
L 1606 56 
L 191 3500 
L 800 3500 
L 1894 763 
L 2988 3500 
L 3597 3500 
L 2059 -325 
z
" transform="scale(0.015625)"/>
       <path id="DejaVuSans-5d" d="M 1947 4863 
L 1947 -844 
L 622 -844 
L 622 -397 
L 1369 -397 
L 1369 4416 
L 622 4416 
L 622 4863 
L 1947 4863 
z
" transform="scale(0.015625)"/>
      </defs>
      <use xlink:href="#DejaVuSans-70"/>
      <use xlink:href="#DejaVuSans-65" x="63.476562"/>
      <use xlink:href="#DejaVuSans-72" x="125"/>
      <use xlink:href="#DejaVuSans-69" x="166.113281"/>
      <use xlink:href="#DejaVuSans-6f" x="193.896484"/>
      <use xlink:href="#DejaVuSans-64" x="255.078125"/>
      <use xlink:href="#DejaVuSans-20" x="318.554688"/>
      <use xlink:href="#DejaVuSans-5b" x="350.341797"/>
      <use xlink:href="#DejaVuSans-64" x="389.355469"/>
      <use xlink:href="#DejaVuSans-61" x="452.832031"/>
      <use xlink:href="#DejaVuSans-79" x="514.111328"/>
      <use xlink:href="#DejaVuSans-5d" x="573.291016"/>
     </g>
    </g>
   </g>
   <g id="matplotlib.axis_2">
    <g id="ytick_1">
     <g id="line2d_7">
      <defs>
       <path id="m743ad93cb9" d="M 0 0 
L -3.5 0 
" style="stroke: #000000; stroke-width: 0.8"/>
      </defs>
      <g>
       <use xlink:href="#m743ad93cb9" x="48.90125" y="222.60108" style="stroke: #000000; stroke-width: 0.8"/>
      </g>
     </g>
     <g id="text_8">
      <!-- 0 -->
      <g transform="translate(35.53875 226.400299)scale(0.1 -0.1)">
       <use xlink:href="#DejaVuSans-30"/>
      </g>
     </g>
    </g>
    <g id="ytick_2">
     <g id="line2d_8">
      <g>
       <use xlink:href="#m743ad93cb9" x="48.90125" y="182.384232" style="stroke: #000000; stroke-width: 0.8"/>
      </g>
     </g>
     <g id="text_9">
      <!-- 20 -->
      <g transform="translate(29.17625 186.183451)scale(0.1 -0.1)">
       <use xlink:href="#DejaVuSans-32"/>
       <use xlink:href="#DejaVuSans-30" x="63.623047"/>
      </g>
     </g>
    </g>
    <g id="ytick_3">
     <g id="line2d_9">
      <g>
       <use xlink:href="#m743ad93cb9" x="48.90125" y="142.167384" style="stroke: #000000; stroke-width: 0.8"/>
      </g>
     </g>
     <g id="text_10">
      <!-- 40 -->
      <g transform="translate(29.17625 145.966603)scale(0.1 -0.1)">
       <use xlink:href="#DejaVuSans-34"/>
       <use xlink:href="#DejaVuSans-30" x="63.623047"/>
      </g>
     </g>
    </g>
    <g id="ytick_4">
     <g id="line2d_10">
      <g>
       <use xlink:href="#m743ad93cb9" x="48.90125" y="101.950537" style="stroke: #000000; stroke-width: 0.8"/>
      </g>
     </g>
     <g id="text_11">
      <!-- 60 -->
      <g transform="translate(29.17625 105.749755)scale(0.1 -0.1)">
       <use xlink:href="#DejaVuSans-36"/>
       <use xlink:href="#DejaVuSans-30" x="63.623047"/>
      </g>
     </g>
    </g>
    <g id="ytick_5">
     <g id="line2d_11">
      <g>
       <use xlink:href="#m743ad93cb9" x="48.90125" y="61.733689" style="stroke: #000000; stroke-width: 0.8"/>
      </g>
     </g>
     <g id="text_12">
      <!-- 80 -->
      <g transform="translate(29.17625 65.532908)scale(0.1 -0.1)">
       <use xlink:href="#DejaVuSans-38"/>
       <use xlink:href="#DejaVuSans-30" x="63.623047"/>
      </g>
     </g>
    </g>
    <g id="ytick_6">
     <g id="line2d_12">
      <g>
       <use xlink:href="#m743ad93cb9" x="48.90125" y="21.516841" style="stroke: #000000; stroke-width: 0.8"/>
      </g>
     </g>
     <g id="text_13">
      <!-- 100 -->
      <g transform="translate(22.81375 25.31606)scale(0.1 -0.1)">
       <use xlink:href="#DejaVuSans-31"/>
       <use xlink:href="#DejaVuSans-30" x="63.623047"/>
       <use xlink:href="#DejaVuSans-30" x="127.246094"/>
      </g>
     </g>
    </g>
    <g id="text_14">
     <!-- depth S/N -->
     <g transform="translate(16.318125 147.770625)rotate(-90)scale(0.12 -0.12)">
      <defs>
       <path id="DejaVuSans-74" d="M 1172 4494 
L 1172 3500 
L 2356 3500 
L 2356 3053 
L 1172 3053 
L 1172 1153 
Q 1172 725 1289 603 
Q 1406 481 1766 481 
L 2356 481 
L 2356 0 
L 1766 0 
Q 1100 0 847 248 
Q 594 497 594 1153 
L 594 3053 
L 172 3053 
L 172 3500 
L 594 3500 
L 594 4494 
L 1172 4494 
z
" transform="scale(0.015625)"/>
       <path id="DejaVuSans-68" d="M 3513 2113 
L 3513 0 
L 2938 0 
L 2938 2094 
Q 2938 2591 2744 2837 
Q 2550 3084 2163 3084 
Q 1697 3084 1428 2787 
Q 1159 2491 1159 1978 
L 1159 0 
L 581 0 
L 581 4863 
L 1159 4863 
L 1159 2956 
Q 1366 3272 1645 3428 
Q 1925 3584 2291 3584 
Q 2894 3584 3203 3211 
Q 3513 2838 3513 2113 
z
" transform="scale(0.015625)"/>
       <path id="DejaVuSans-53" d="M 3425 4513 
L 3425 3897 
Q 3066 4069 2747 4153 
Q 2428 4238 2131 4238 
Q 1616 4238 1336 4038 
Q 1056 3838 1056 3469 
Q 1056 3159 1242 3001 
Q 1428 2844 1947 2747 
L 2328 2669 
Q 3034 2534 3370 2195 
Q 3706 1856 3706 1288 
Q 3706 609 3251 259 
Q 2797 -91 1919 -91 
Q 1588 -91 1214 -16 
Q 841 59 441 206 
L 441 856 
Q 825 641 1194 531 
Q 1563 422 1919 422 
Q 2459 422 2753 634 
Q 3047 847 3047 1241 
Q 3047 1584 2836 1778 
Q 2625 1972 2144 2069 
L 1759 2144 
Q 1053 2284 737 2584 
Q 422 2884 422 3419 
Q 422 4038 858 4394 
Q 1294 4750 2059 4750 
Q 2388 4750 2728 4690 
Q 3069 4631 3425 4513 
z
" transform="scale(0.015625)"/>
       <path id="DejaVuSans-2f" d="M 1625 4666 
L 2156 4666 
L 531 -594 
L 0 -594 
L 1625 4666 
z
" transform="scale(0.015625)"/>
       <path id="DejaVuSans-4e" d="M 628 4666 
L 1478 4666 
L 3547 763 
L 3547 4666 
L 4159 4666 
L 4159 0 
L 3309 0 
L 1241 3903 
L 1241 0 
L 628 0 
L 628 4666 
z
" transform="scale(0.015625)"/>
      </defs>
      <use xlink:href="#DejaVuSans-64"/>
      <use xlink:href="#DejaVuSans-65" x="63.476562"/>
      <use xlink:href="#DejaVuSans-70" x="125"/>
      <use xlink:href="#DejaVuSans-74" x="188.476562"/>
      <use xlink:href="#DejaVuSans-68" x="227.685547"/>
      <use xlink:href="#DejaVuSans-20" x="291.064453"/>
      <use xlink:href="#DejaVuSans-53" x="322.851562"/>
      <use xlink:href="#DejaVuSans-2f" x="386.328125"/>
      <use xlink:href="#DejaVuSans-4e" x="420.019531"/>
     </g>
    </g>
   </g>
   <g id="line2d_13">
    <path d="M 69.192159 210.931465 
L 69.246955 207.030179 
L 69.277934 212.799099 
L 69.298649 210.063591 
L 69.319415 212.110392 
L 69.389001 207.458523 
L 69.406486 210.911017 
L 69.427515 205.96405 
L 69.476784 211.221618 
L 69.515695 209.494278 
L 69.619124 214.838191 
L 69.579746 207.848816 
L 69.629894 213.000015 
L 69.662285 214.641382 
L 69.723799 210.795219 
L 69.731064 211.413018 
L 69.811385 205.666602 
L 69.848138 209.071727 
L 69.885046 207.369921 
L 69.933259 212.878101 
L 69.940699 212.336242 
L 69.955599 214.10248 
L 70.109785 203.043258 
L 70.247397 179.736289 
L 70.39889 164.103696 
L 70.402808 164.17327 
L 70.525109 187.408452 
L 70.533056 185.513885 
L 70.693459 206.380725 
L 70.54101 185.447281 
L 70.701553 205.035075 
L 70.819719 218.372502 
L 70.848469 215.661099 
L 70.94772 210.491998 
L 70.976868 211.387127 
L 71.102823 216.430069 
L 71.132457 213.649675 
L 71.170695 216.900693 
L 71.183475 216.294193 
L 71.21764 218.73931 
L 71.256224 214.784695 
L 71.286342 216.214022 
L 71.338195 212.074035 
L 71.399049 213.378758 
L 71.447136 217.308427 
L 71.491061 212.977254 
L 71.513099 214.690427 
L 71.615127 211.670925 
L 71.62405 213.697003 
L 71.632981 213.050916 
L 71.63745 214.077174 
L 71.646393 213.441149 
L 71.758889 210.073732 
L 71.731771 214.139913 
L 71.763416 211.071567 
L 71.913993 218.473174 
L 71.781545 210.506387 
L 71.918593 217.970009 
L 72.029623 212.546701 
L 72.038932 213.147833 
L 72.04359 213.356844 
L 72.052912 208.986001 
L 72.090289 211.127692 
L 72.208006 202.441999 
L 72.241218 205.187227 
L 72.250727 208.021386 
L 72.322336 199.817441 
L 72.35593 206.903724 
L 72.360738 206.651821 
L 72.39446 210.350977 
L 72.399286 210.196621 
L 72.515824 216.321979 
L 72.41378 208.764887 
L 72.530486 213.325359 
L 72.703123 205.524127 
L 72.762991 207.494881 
L 72.90913 217.371246 
L 73.103802 197.691067 
L 73.108974 198.221283 
L 73.244365 178.219031 
L 73.349714 168.478194 
L 73.376216 170.086218 
L 73.381524 170.717917 
L 73.413431 164.182975 
L 73.429421 164.625489 
L 73.445435 157.944393 
L 73.531252 169.163948 
L 73.672197 187.434581 
L 73.937367 217.226311 
L 74.021583 213.968418 
L 74.032861 214.682734 
L 74.038505 212.308772 
L 74.134894 209.31646 
L 74.100777 216.058836 
L 74.14629 210.745673 
L 74.157698 213.869258 
L 74.191993 209.965677 
L 74.255147 211.755406 
L 74.312875 210.878335 
L 74.330253 213.204198 
L 74.452668 215.220015 
L 74.353466 211.794082 
L 74.464397 214.219477 
L 74.470266 213.378837 
L 74.535034 217.352831 
L 74.564599 214.696904 
L 74.641835 216.291822 
L 74.623964 213.351582 
L 74.647799 213.629836 
L 74.677663 209.597318 
L 74.701613 216.32454 
L 74.755686 214.034759 
L 74.76171 215.661261 
L 74.834253 210.580458 
L 74.846389 211.289198 
L 74.937826 205.126998 
L 74.974608 207.198999 
L 74.98075 207.140886 
L 74.986895 207.89891 
L 75.129159 215.049622 
L 75.260616 208.419533 
L 75.273214 208.830897 
L 75.279518 210.52275 
L 75.317417 205.302108 
L 75.38086 208.315837 
L 75.489518 216.063117 
L 75.406335 207.410991 
L 75.541005 216.032271 
L 75.57977 214.130061 
L 75.670725 214.140921 
L 75.703381 216.653966 
L 75.775546 214.001896 
L 75.788714 215.547151 
L 75.815096 215.93096 
L 75.921216 211.499073 
L 75.961257 209.614339 
L 76.028295 211.903707 
L 76.0687 211.292882 
L 76.095713 213.932317 
L 76.122787 212.286776 
L 76.190743 213.489936 
L 76.156717 211.245635 
L 76.218033 211.974035 
L 76.286533 208.904695 
L 76.252234 212.57764 
L 76.341615 209.539311 
L 76.362336 212.871613 
L 76.431663 208.48786 
L 76.445577 209.554465 
L 76.557463 205.538442 
L 76.459506 210.198629 
L 76.585596 207.583674 
L 76.613794 212.025903 
L 76.698783 210.125391 
L 76.727245 207.624636 
L 76.777212 215.363042 
L 76.805856 210.773484 
L 76.848948 216.160924 
L 76.863346 215.465412 
L 76.870551 218.087917 
L 76.957344 214.347452 
L 76.964604 215.228926 
L 77.169639 198.835274 
L 77.184414 199.123443 
L 77.191808 197.453203 
L 77.529153 163.937532 
L 77.551967 166.058358 
L 77.613007 167.535695 
L 77.605361 162.829141 
L 77.620658 163.768996 
L 77.68203 156.324845 
L 77.651307 163.835247 
L 77.7437 162.538114 
L 77.75143 162.426556 
L 77.938359 178.760191 
L 78.352924 209.366457 
L 78.361028 207.713231 
L 78.434186 213.906419 
L 78.44234 213.828591 
L 78.466833 214.513553 
L 78.524161 216.131637 
L 78.557033 212.619667 
L 78.639573 213.777188 
L 78.614756 211.722672 
L 78.647855 212.872527 
L 78.730967 210.429756 
L 78.739307 213.855535 
L 78.756002 212.244327 
L 78.822996 213.069262 
L 78.797833 211.34964 
L 78.85662 211.876695 
L 78.898769 212.693485 
L 78.890329 211.709418 
L 78.907215 212.130775 
L 78.949525 214.071183 
L 78.966487 210.665949 
L 79.008986 211.503557 
L 79.026023 212.19541 
L 79.163106 218.88 
L 79.180341 217.805796 
L 79.275524 210.661921 
L 79.310303 211.695494 
L 79.319012 211.942328 
L 79.336447 209.646181 
L 79.380131 208.148886 
L 79.397644 210.278876 
L 79.41518 209.677929 
L 79.423957 212.091462 
L 79.476734 207.415515 
L 79.520873 211.587115 
L 79.574028 210.074949 
L 79.582907 213.731102 
L 79.627391 210.84307 
L 79.672019 212.588299 
L 79.654151 209.610384 
L 79.725766 209.969454 
L 79.734744 209.922454 
L 79.879198 202.0933 
L 79.897362 204.151694 
L 80.025178 209.947056 
L 80.043534 209.662242 
L 80.061914 210.077733 
L 80.080319 206.959171 
L 80.08953 210.372811 
L 80.172708 209.146966 
L 80.19126 210.86116 
L 80.256385 206.756381 
L 80.265713 206.824016 
L 80.275047 206.08119 
L 80.378139 199.350966 
L 80.406387 199.957329 
L 80.481992 196.994736 
L 80.491472 198.013187 
L 80.615283 203.838303 
L 80.644009 203.338259 
L 80.788517 207.955314 
L 80.914952 212.410459 
L 80.934503 211.706378 
L 80.973685 210.550022 
L 81.042512 211.001099 
L 81.13149 212.338231 
L 81.08199 210.589594 
L 81.151337 211.603653 
L 81.161271 211.493303 
L 81.171212 212.486034 
L 81.201075 212.123126 
L 81.211044 212.419396 
L 81.231001 209.868242 
L 81.250985 211.203127 
L 81.301067 209.12189 
L 81.371473 209.882591 
L 81.452357 205.915046 
L 81.492967 208.227526 
L 81.53369 211.362384 
L 81.574527 207.224427 
L 81.594988 208.211718 
L 81.605229 207.670312 
L 81.615478 210.250653 
L 81.646266 210.220818 
L 81.749362 214.907711 
L 81.780431 214.182326 
L 81.83236 210.034636 
L 81.905368 212.174046 
L 81.936767 211.444061 
L 81.947248 212.486308 
L 81.957737 212.376169 
L 82.020824 213.591579 
L 82.041913 212.058135 
L 82.052469 212.443786 
L 82.297328 204.362405 
L 82.308066 204.691582 
L 82.318811 202.521851 
L 82.351092 203.73606 
L 82.361868 200.946115 
L 82.415863 205.585589 
L 82.459198 202.488487 
L 82.55716 206.063872 
L 82.600903 205.48764 
L 82.611858 205.426404 
L 82.622821 204.470722 
L 82.666754 209.802876 
L 82.677757 209.992121 
L 82.688768 209.013989 
L 82.699787 207.793024 
L 82.755001 212.814521 
L 82.866033 216.476488 
L 82.777143 211.717804 
L 82.910672 214.630008 
L 82.933041 215.069826 
L 83.468257 180.395048 
L 83.607913 167.003805 
L 83.678211 158.959101 
L 83.891006 137.968571 
L 83.902913 137.980663 
L 83.914828 141.921475 
L 83.98651 134.405626 
L 84.022472 129.722527 
L 84.058517 138.583372 
L 84.094643 134.81982 
L 84.239971 157.374883 
L 84.264321 154.798158 
L 84.34984 155.416316 
L 84.559443 176.924295 
L 85.1792 214.585332 
L 85.192096 214.555376 
L 85.205001 214.269243 
L 85.230843 215.187747 
L 85.256726 215.029605 
L 85.360663 218.134009 
L 85.399809 216.731282 
L 85.517802 213.643287 
L 85.478378 217.060093 
L 85.530965 214.242368 
L 85.703026 207.459147 
L 85.769679 208.528545 
L 85.783041 208.544725 
L 85.809798 206.718442 
L 85.836597 210.032007 
L 85.863439 208.237701 
L 85.944224 211.908184 
L 85.998296 211.249433 
L 86.052542 207.224662 
L 86.134239 208.704265 
L 86.216332 211.771962 
L 86.257528 210.91327 
L 86.312611 211.486565 
L 86.285047 210.768824 
L 86.340219 210.816565 
L 86.423314 213.632118 
L 86.451102 212.486556 
L 86.618786 208.157387 
L 86.49287 214.836694 
L 86.632834 208.55683 
L 86.646893 208.987652 
L 86.660964 207.236867 
L 86.717363 208.596018 
L 86.788122 205.086816 
L 86.802308 208.911191 
L 86.816507 208.784937 
L 86.930514 204.377499 
L 86.944818 206.311954 
L 87.059675 211.408672 
L 87.088508 210.852884 
L 87.102943 212.121606 
L 87.1608 208.248118 
L 87.218851 207.988241 
L 87.262515 210.234324 
L 87.306288 210.956578 
L 87.320904 208.992566 
L 87.350172 210.83381 
L 87.452994 204.610179 
L 87.467732 206.764487 
L 87.51202 205.200883 
L 87.541608 207.309702 
L 87.571245 205.739069 
L 87.660456 209.200159 
L 87.690293 207.828778 
L 87.720181 207.668949 
L 87.750119 206.834859 
L 87.765107 207.704724 
L 87.780107 207.511775 
L 87.855301 210.708435 
L 87.915685 209.784101 
L 88.297775 190.747422 
L 87.976274 210.469226 
L 88.390698 191.758958 
L 88.437339 193.59088 
L 88.4685 191.222399 
L 88.546638 184.703305 
L 88.577988 187.516857 
L 88.735552 197.036119 
L 88.751384 196.891083 
L 88.767229 197.738308 
L 88.783088 197.572209 
L 88.974477 202.586734 
L 88.990516 201.600726 
L 89.022638 203.804792 
L 89.038719 203.614651 
L 89.200313 210.439478 
L 89.216551 210.487428 
L 89.379714 216.02603 
L 89.41252 215.174557 
L 89.577421 209.865897 
L 89.643792 205.385372 
L 89.693725 207.801547 
L 89.827534 210.898791 
L 89.861136 210.137905 
L 89.911652 208.379716 
L 89.928521 211.012734 
L 89.945405 210.755497 
L 89.979218 211.457486 
L 89.996147 210.497491 
L 90.098043 204.530663 
L 90.13213 205.254397 
L 90.217618 202.344948 
L 90.251922 203.996372 
L 90.269096 204.786773 
L 90.286287 202.363482 
L 90.320714 204.437474 
L 90.389757 200.398915 
L 90.441703 201.697601 
L 90.63339 211.191261 
L 90.703572 209.128212 
L 90.738759 208.269264 
L 90.756377 209.508948 
L 90.915666 212.427716 
L 90.951242 211.886794 
L 90.969055 213.052891 
L 90.986884 213.731284 
L 91.040471 211.850884 
L 91.058366 211.853591 
L 91.166084 214.663287 
L 91.202123 213.909626 
L 91.365129 210.265394 
L 91.419767 210.22056 
L 91.438014 211.049986 
L 91.456278 209.585699 
L 91.492857 211.712707 
L 91.511171 210.795155 
L 91.584603 214.227949 
L 91.547853 210.110782 
L 91.639856 213.515055 
L 91.732292 210.264982 
L 91.787961 210.731632 
L 91.806553 211.127053 
L 91.974666 202.882591 
L 92.031022 204.683347 
L 92.068681 202.831113 
L 92.087538 203.034193 
L 92.106412 203.13596 
L 92.125304 200.989956 
L 92.182088 204.153193 
L 92.201052 203.037603 
L 92.564821 212.421374 
L 92.58415 212.04272 
L 92.661653 210.471416 
L 92.622864 212.262868 
L 92.681075 212.13542 
L 92.719976 211.218587 
L 92.739454 208.375908 
L 92.837128 208.79236 
L 92.856719 209.203308 
L 92.895958 207.79638 
L 92.915607 208.031916 
L 92.974665 210.039218 
L 93.033895 208.861713 
L 93.053677 208.92119 
L 93.073478 208.838635 
L 93.799336 176.275166 
L 94.360894 127.734454 
L 94.403095 128.781787 
L 94.466556 128.489448 
L 94.679478 113.905354 
L 94.700888 115.103904 
L 94.851368 130.498092 
L 94.872953 126.77439 
L 94.916187 132.997469 
L 94.937837 131.701551 
L 95.090004 143.081862 
L 95.620056 185.115575 
L 96.347535 209.327731 
L 96.370662 208.687891 
L 96.416989 209.805942 
L 96.673537 213.565022 
L 96.697007 212.973568 
L 96.720502 213.956682 
L 96.791137 216.837011 
L 96.838352 215.582213 
L 96.861996 216.771224 
L 96.885666 213.374134 
L 96.909361 215.469455 
L 96.933082 213.006556 
L 96.980598 215.812109 
L 97.028215 213.531609 
L 97.123754 209.16646 
L 97.195677 210.901327 
L 97.243753 211.998921 
L 97.291932 211.024852 
L 97.316061 210.800652 
L 97.340215 212.431638 
L 97.412833 210.965426 
L 97.558774 204.259062 
L 97.583189 205.141748 
L 97.632099 203.579052 
L 97.656593 202.185055 
L 97.681114 204.743081 
L 97.705661 204.375485 
L 97.853503 206.540623 
L 97.878237 206.490478 
L 97.952599 203.792809 
L 97.977441 206.113407 
L 98.027205 207.175537 
L 98.052128 206.558369 
L 98.202235 201.406794 
L 98.302855 204.108961 
L 98.35333 201.092191 
L 98.403916 202.9378 
L 98.556342 204.868527 
L 98.581844 204.649159 
L 98.786877 210.663853 
L 99.01972 216.986132 
L 99.045735 215.24982 
L 99.097852 214.72465 
L 99.123955 215.651125 
L 99.150086 213.210981 
L 99.732437 192.757486 
L 99.759251 193.678903 
L 99.893778 188.358019 
L 100.029069 196.65621 
L 100.056219 194.505875 
L 100.219772 201.214948 
L 100.274538 200.265965 
L 100.301968 199.627315 
L 100.32943 201.332436 
L 100.356923 200.076311 
L 100.63359 209.935531 
L 100.717212 208.956974 
L 100.689306 209.956006 
L 100.745151 208.963575 
L 100.885326 209.990686 
L 100.913458 209.272214 
L 100.941623 210.729451 
L 100.998051 211.277877 
L 101.139694 205.691417 
L 101.282163 211.166382 
L 101.310756 209.763175 
L 101.339383 211.776133 
L 101.368043 210.58573 
L 101.511848 215.333096 
L 101.627499 212.983694 
L 101.656497 214.5649 
L 101.714594 211.709319 
L 101.801997 212.863691 
L 101.772829 210.913908 
L 101.8312 211.879553 
L 102.422574 194.760539 
L 102.602746 186.065839 
L 102.632901 186.862917 
L 102.784217 180.822941 
L 102.81459 180.556824 
L 102.936445 182.182353 
L 103.058889 179.594298 
L 103.089593 180.109751 
L 103.120334 180.215313 
L 103.181927 178.902691 
L 103.398681 185.013781 
L 103.71155 188.090369 
L 103.964614 198.255527 
L 103.996422 198.253017 
L 104.220179 206.677334 
L 104.252303 204.880719 
L 104.284466 204.434274 
L 104.316668 205.023779 
L 104.445879 212.200536 
L 104.478282 212.099191 
L 104.510726 213.716218 
L 104.575733 212.266957 
L 104.640903 210.632505 
L 104.706235 211.244167 
L 104.738962 212.134159 
L 104.77173 210.278702 
L 104.837388 210.856814 
L 105.002256 204.539697 
L 105.035353 204.6226 
L 105.068492 204.114991 
L 105.16816 199.753971 
L 105.301637 204.432867 
L 105.335111 204.780973 
L 105.368628 203.859768 
L 105.402187 205.166394 
L 105.604434 208.597068 
L 106.185918 193.762798 
L 106.324584 187.403343 
L 106.394185 187.536305 
L 106.568973 183.838841 
L 106.604066 186.566628 
L 106.639204 182.090012 
L 106.709618 178.866069 
L 106.921956 193.412223 
L 106.957507 190.856293 
L 107.028747 193.306672 
L 107.100174 193.92028 
L 107.171786 191.359479 
L 107.207663 191.143727 
L 107.279557 195.254869 
L 107.315574 195.07399 
L 107.460117 204.430393 
L 107.569022 208.53292 
L 107.7149 208.493538 
L 107.75149 207.774582 
L 107.788128 208.522575 
L 108.008976 214.13362 
L 108.157186 210.922475 
L 108.194361 210.953146 
L 108.568855 201.558475 
L 108.606581 203.139872 
L 108.644357 201.172908 
L 108.682183 201.15966 
L 108.795968 198.144354 
L 108.833998 198.311789 
L 108.986632 201.754685 
L 109.024919 201.105011 
L 109.063258 201.539294 
L 109.101649 201.860689 
L 109.140092 201.219756 
L 109.294383 207.38896 
L 109.371843 206.909752 
L 109.488429 209.657928 
L 109.527396 209.302069 
L 109.723033 206.348572 
L 109.76232 206.974771 
L 109.880507 207.465641 
L 110.038846 201.345177 
L 110.078567 203.562648 
L 110.198057 205.336967 
L 110.277992 202.087864 
L 110.358148 202.940061 
L 110.398309 204.824575 
L 110.478798 203.658832 
L 110.55951 201.568345 
L 110.680999 202.399447 
L 110.802994 206.6073 
L 110.843773 206.526181 
L 110.884608 206.271455 
L 111.254703 214.018093 
L 111.379108 215.456306 
L 111.5458 213.240886 
L 111.587619 214.816358 
L 111.629498 214.142647 
L 111.797607 211.337738 
L 111.839783 211.694699 
L 112.136695 205.62935 
L 112.179353 206.367722 
L 112.222071 206.448298 
L 112.479667 202.220649 
L 112.522815 202.313286 
L 112.566024 203.03604 
L 112.65263 202.745543 
L 112.739485 203.571879 
L 112.826589 201.789322 
L 112.870236 202.733502 
L 112.913945 203.373267 
L 112.957718 203.093272 
L 113.089415 200.389028 
L 113.133441 200.637179 
L 113.177531 202.491873 
L 113.221685 199.70501 
L 113.265902 199.517332 
L 113.487957 196.722216 
L 113.532562 196.816988 
L 113.711633 192.282575 
L 113.936949 185.239534 
L 114.118395 179.288064 
L 114.995044 134.156502 
L 115.324315 106.630507 
L 115.561632 95.152079 
L 115.609309 96.894657 
L 115.752775 89.413344 
L 115.800741 91.316213 
L 115.84878 82.308747 
L 115.896891 86.182302 
L 115.945075 86.274253 
L 116.333191 116.3911 
L 116.382038 113.491957 
L 116.43096 114.219463 
L 116.825037 140.986272 
L 117.780651 180.548441 
L 118.036847 186.005078 
L 118.088327 189.272204 
L 118.191529 189.267082 
L 118.346939 193.550867 
L 118.398905 192.388708 
L 118.450953 192.860082 
L 118.60759 197.774069 
L 118.659967 198.992277 
L 118.712427 198.534482 
L 118.76497 197.954805 
L 118.870305 199.659069 
L 118.923098 198.612471 
L 119.08198 202.081665 
L 119.135109 202.258788 
L 119.188322 204.399224 
L 119.24162 203.20145 
L 119.295003 203.180716 
L 119.348471 204.201762 
L 119.455664 204.169016 
L 119.509389 202.434414 
L 119.5632 202.974138 
L 119.617097 203.223773 
L 119.67108 204.066261 
L 119.72515 203.053279 
L 119.779307 204.133776 
L 119.833551 202.900132 
L 119.887882 203.201816 
L 119.996806 203.768771 
L 120.106081 203.562254 
L 120.270657 205.216505 
L 120.325694 204.401987 
L 120.380819 206.458855 
L 120.436034 205.141395 
L 120.76921 211.268542 
L 120.825056 209.916423 
L 120.880993 211.139528 
L 120.937022 211.410164 
L 120.993142 211.297382 
L 121.049354 211.362978 
L 121.105658 211.309582 
L 121.162054 210.567431 
L 121.331798 206.526818 
L 121.388565 210.786449 
L 121.445426 207.298156 
L 121.50238 207.953138 
L 121.559428 207.343736 
L 121.61657 206.381663 
L 121.788563 210.371881 
L 121.9037 211.42949 
L 122.019218 210.444972 
L 122.251408 205.44798 
L 122.309698 205.961696 
L 122.897973 190.292413 
L 123.076386 196.814137 
L 123.136058 195.152811 
L 123.375753 200.337832 
L 123.556591 201.714942 
L 123.617075 201.502719 
L 123.677661 201.57629 
L 123.799143 206.128047 
L 123.860039 205.69896 
L 124.350965 194.675091 
L 124.412804 195.872552 
L 124.47475 195.736954 
L 124.536802 195.251821 
L 124.723599 189.319852 
L 124.786079 190.857259 
L 124.911364 190.119952 
L 125.037082 191.733532 
L 125.163235 194.832597 
L 125.226476 194.259552 
L 125.480541 199.141849 
L 125.608238 203.000474 
L 125.80062 205.486183 
L 126.188428 213.361631 
L 126.25346 212.471969 
L 126.318607 212.728989 
L 126.449246 211.323572 
L 126.514738 213.325552 
L 126.580346 212.6621 
L 126.64607 213.194369 
L 126.711911 213.063212 
L 126.843941 209.481174 
L 126.910133 209.789993 
L 127.109413 203.938549 
L 127.646064 194.899886 
L 127.985395 185.3181 
L 128.053628 185.013304 
L 128.190464 181.649544 
L 128.259067 184.370486 
L 128.327794 181.961639 
L 128.396646 184.417011 
L 128.465622 183.915065 
L 128.534724 178.499942 
L 128.603951 180.96337 
L 128.673303 181.553092 
L 128.812387 186.862023 
L 128.882119 187.201047 
L 129.021965 193.748148 
L 129.092079 192.141822 
L 129.162322 190.019023 
L 129.232693 190.89761 
L 129.728918 202.428434 
L 129.94355 203.076985 
L 130.303925 208.058114 
L 130.376401 208.261354 
L 130.449012 207.204485 
L 130.521758 209.416185 
L 130.59464 208.453426 
L 130.667657 210.275833 
L 130.887528 204.718108 
L 131.779481 185.354014 
L 132.00564 192.726204 
L 132.081312 193.507345 
L 132.157128 193.334243 
L 132.233088 192.044492 
L 132.461838 198.609528 
L 132.615065 202.701954 
L 132.691899 201.555302 
L 132.76888 201.765343 
L 133.000708 204.000904 
L 133.078281 203.744562 
L 133.156003 202.726769 
L 133.233875 203.300057 
L 133.390069 201.905314 
L 133.468393 203.397071 
L 133.546867 202.445604 
L 133.625493 202.558769 
L 133.704272 205.506306 
L 133.783203 205.311918 
L 133.862288 205.838612 
L 133.941525 204.801134 
L 134.020917 204.983372 
L 134.100464 205.535643 
L 134.340034 202.450885 
L 134.661651 196.635342 
L 134.742449 196.860847 
L 134.823406 195.984175 
L 135.148829 188.820277 
L 135.230586 188.879683 
L 135.312504 189.201103 
L 136.224396 164.095874 
L 136.392349 157.95018 
L 136.73028 151.079208 
L 136.815187 149.831971 
L 136.985515 144.607788 
L 137.242296 152.246521 
L 137.328236 151.711404 
L 137.41435 152.407223 
L 137.500639 152.092458 
L 137.760556 158.080117 
L 138.022064 164.868754 
L 138.109588 164.314413 
L 138.373238 172.539574 
L 138.549906 176.463585 
L 138.81627 187.102245 
L 138.905424 187.207418 
L 139.263884 196.400984 
L 139.353962 196.597595 
L 139.625321 200.828746 
L 139.71615 201.003657 
L 139.807168 202.416663 
L 139.898375 202.201878 
L 139.989773 202.649677 
L 140.081361 201.484105 
L 140.634933 207.439047 
L 140.914344 203.324066 
L 141.007874 201.864511 
L 141.195526 204.984926 
L 141.383974 205.984301 
L 141.573223 203.136644 
L 141.763276 205.056619 
L 142.241966 195.0997 
L 142.434879 191.513617 
L 142.725804 184.598197 
L 142.823196 182.451134 
L 142.920798 183.584485 
L 143.018611 180.577388 
L 143.214871 183.183591 
L 143.31332 182.611464 
L 143.411982 183.932695 
L 143.609948 191.263695 
L 143.908516 198.726527 
L 144.008472 197.989056 
L 144.108647 198.163351 
L 144.309654 201.748212 
L 144.410488 200.945257 
L 144.612819 204.258036 
L 144.714318 204.457845 
L 144.816041 204.151145 
L 144.917988 202.069588 
L 145.122556 204.601043 
L 145.225179 204.567583 
L 145.431107 202.307318 
L 146.054402 189.994091 
L 146.474584 180.529687 
L 146.898547 167.574188 
L 147.111963 166.446535 
L 147.326343 161.585999 
L 147.433896 164.474152 
L 147.541694 157.615605 
L 147.758023 162.181923 
L 147.975336 168.46994 
L 148.19364 173.690653 
L 148.303166 172.74109 
L 148.412942 173.142686 
L 149.300268 192.589081 
L 149.412336 192.793685 
L 149.637251 198.105515 
L 149.750099 198.45557 
L 149.86321 200.024996 
L 149.976582 199.002146 
L 150.090219 199.985558 
L 150.20412 199.639273 
L 150.318287 200.232572 
L 150.43272 199.992288 
L 150.54742 200.056926 
L 150.662389 202.07355 
L 150.777626 201.43942 
L 150.893135 202.725585 
L 151.124965 200.618185 
L 151.241289 202.391615 
L 151.357888 201.536242 
L 151.474761 202.303974 
L 151.709336 201.917629 
L 151.82704 203.528618 
L 151.945023 202.632116 
L 152.063286 203.568224 
L 152.18183 201.654015 
L 152.300656 203.350595 
L 152.539157 201.122788 
L 153.019586 192.371177 
L 153.140413 191.58649 
L 153.261531 192.557009 
L 153.382939 191.39944 
L 153.50464 191.982956 
L 153.626634 189.652486 
L 153.748922 184.035141 
L 153.871506 185.594921 
L 154.117564 184.841798 
L 154.364816 186.946346 
L 154.488892 186.262637 
L 154.737952 191.717125 
L 154.862938 191.438106 
L 155.113826 194.043815 
L 155.23973 194.662897 
L 155.492466 202.239982 
L 155.746445 204.32489 
L 155.873904 204.437908 
L 156.001677 204.348759 
L 156.258171 204.61779 
L 156.386894 203.31542 
L 156.515936 203.332033 
L 156.645298 204.120592 
L 157.165972 190.422153 
L 157.296953 192.895836 
L 157.691866 183.86749 
L 158.089759 173.242836 
L 158.223058 174.290033 
L 158.490666 181.139338 
L 158.624978 182.059513 
L 159.301661 192.282151 
L 159.574751 199.765988 
L 159.711819 200.495959 
L 159.849237 199.558069 
L 159.987008 201.057471 
L 160.125132 200.687964 
L 160.26361 199.043799 
L 160.681186 188.581568 
L 160.821097 190.156437 
L 161.243002 184.01743 
L 161.526099 192.75464 
L 161.953513 201.556809 
L 162.096728 198.652454 
L 162.240317 200.379563 
L 162.384282 198.335005 
L 162.528625 199.549087 
L 162.673346 199.536204 
L 162.818448 200.191488 
L 162.963932 199.246771 
L 163.109799 201.597208 
L 163.25605 200.161749 
L 163.402688 202.202148 
L 163.549714 200.41136 
L 163.69713 200.704195 
L 163.844936 198.988638 
L 164.141728 200.882754 
L 164.290717 200.411735 
L 164.440103 201.892305 
L 164.589888 200.988638 
L 164.890661 202.594287 
L 165.041652 202.55211 
L 165.193049 201.081828 
L 165.344852 201.727962 
L 165.497064 200.47691 
L 165.649687 200.921906 
L 165.802721 200.281123 
L 165.956169 200.928281 
L 166.264312 198.926314 
L 166.41901 202.081802 
L 166.574129 200.172115 
L 166.72967 201.23117 
L 166.885635 199.83951 
L 167.042025 200.325456 
L 167.198843 199.739561 
L 167.35609 200.702331 
L 167.513767 200.972012 
L 167.671877 200.788045 
L 167.830421 200.313954 
L 167.989402 201.660471 
L 168.308678 199.493311 
L 168.468978 198.317863 
L 168.629721 200.378219 
L 169.114628 197.15952 
L 169.277164 194.791394 
L 169.603594 197.733065 
L 169.767493 197.33521 
L 169.93185 197.426486 
L 170.096668 198.740482 
L 170.261948 197.098811 
L 170.427692 198.31294 
L 170.593903 197.7672 
L 170.760581 196.346158 
L 170.92773 196.483871 
L 171.095351 196.13375 
L 171.432017 191.544516 
L 171.601066 192.17275 
L 171.770596 187.531905 
L 172.111104 186.632627 
L 172.282086 184.822813 
L 172.453557 186.15438 
L 172.797973 182.870133 
L 172.970922 182.985517 
L 173.318313 180.843577 
L 173.49276 178.36431 
L 173.66771 178.188493 
L 173.843165 176.60658 
L 174.019128 173.577644 
L 174.372587 171.609151 
L 174.550086 173.023722 
L 175.085695 165.788355 
L 175.445382 157.663543 
L 175.626016 155.037068 
L 175.988878 145.741561 
L 176.17111 143.494006 
L 176.721043 126.397062 
L 176.90544 121.753333 
L 177.461923 95.373764 
L 177.648523 88.429438 
L 178.023397 70.670936 
L 178.779909 34.052864 
L 178.97046 34.656405 
L 179.161587 31.175901 
L 179.545575 17.28 
L 180.125934 53.561501 
L 180.320565 49.102841 
L 182.299958 121.593141 
L 183.108952 143.650568 
L 183.517235 153.782968 
L 183.722334 155.568825 
L 183.928074 161.323358 
L 184.549177 166.200707 
L 184.757515 172.583465 
L 184.96651 173.60272 
L 185.176166 173.770898 
L 185.386485 177.889598 
L 185.597471 178.200334 
L 186.234459 186.778919 
L 186.448143 186.876232 
L 186.662509 185.607916 
L 186.877561 186.621621 
L 187.093303 185.409144 
L 187.309737 189.023406 
L 187.526867 187.693335 
L 187.744696 187.750011 
L 187.963228 187.322769 
L 188.182466 190.072478 
L 188.402413 190.346375 
L 188.623073 191.924517 
L 188.84445 192.42362 
L 189.289366 196.59678 
L 189.512913 196.417517 
L 189.73719 197.185227 
L 189.962201 196.549226 
L 190.18795 196.40173 
L 190.641675 194.34431 
L 190.869659 192.963215 
L 191.098395 193.682769 
L 191.327887 192.133298 
L 191.55814 192.442504 
L 191.789155 194.946448 
L 192.020938 194.814568 
L 192.486822 195.488036 
L 192.720931 197.289003 
L 192.955822 197.913346 
L 193.427969 196.831087 
L 193.665233 194.453214 
L 193.903296 195.18623 
L 194.142161 193.42136 
L 194.381834 194.658281 
L 194.622317 195.219087 
L 195.105733 196.931451 
L 195.592443 194.616734 
L 195.837044 194.31371 
L 196.082481 195.151397 
L 196.328758 194.016364 
L 196.57588 193.517714 
L 196.823851 193.361499 
L 197.572904 194.760903 
L 197.824316 194.459423 
L 198.076599 194.441069 
L 198.329758 193.395164 
L 198.583798 194.263314 
L 198.838723 192.561002 
L 199.094537 191.761779 
L 199.351246 191.51407 
L 199.608854 190.868682 
L 199.867366 190.780827 
L 200.126786 190.071906 
L 200.38712 190.936047 
L 200.648371 190.522492 
L 200.910546 190.731336 
L 201.173649 192.733562 
L 201.437685 192.087822 
L 201.968575 189.477542 
L 202.503257 189.819155 
L 202.772032 190.560201 
L 203.041771 192.759592 
L 203.312478 192.661556 
L 203.584159 193.428795 
L 204.130463 182.688517 
L 204.405097 186.521872 
L 204.680725 185.442831 
L 205.234989 192.766457 
L 205.513635 192.17631 
L 205.793298 190.44802 
L 206.073983 190.993655 
L 206.355696 193.167843 
L 206.92223 190.273963 
L 207.207062 192.782821 
L 207.492944 194.309752 
L 207.779884 193.617761 
L 208.067886 193.788043 
L 208.356956 193.751094 
L 208.647101 191.936997 
L 208.938327 192.939933 
L 209.230639 186.665273 
L 209.524043 183.837026 
L 210.114155 175.18529 
L 210.708712 161.045906 
L 211.007673 154.142619 
L 211.307764 153.3957 
L 212.519559 171.960336 
L 212.825398 175.053491 
L 213.132407 181.307432 
L 213.440592 183.68321 
L 213.74996 184.735235 
L 214.060517 183.451007 
L 214.372271 184.060297 
L 214.685229 187.197001 
L 214.999397 184.681746 
L 215.314783 189.45721 
L 215.631393 187.759303 
L 215.949236 190.081021 
L 216.268317 187.16579 
L 216.588644 187.414886 
L 216.910226 186.350689 
L 217.233068 188.325199 
L 217.557178 188.420222 
L 217.882565 188.052669 
L 218.209234 189.60111 
L 218.537195 189.997413 
L 218.866455 188.504604 
L 219.197021 188.022982 
L 219.528901 182.993469 
L 219.862103 181.509949 
L 221.208293 162.249832 
L 221.548226 160.274132 
L 221.889529 156.647284 
L 222.576281 160.171479 
L 222.921746 163.79686 
L 223.268615 173.348519 
L 223.616897 176.847336 
L 224.317734 184.791778 
L 224.670306 185.279712 
L 225.379803 188.027039 
L 225.736746 187.424755 
L 226.095163 188.271459 
L 226.455065 188.045417 
L 226.816459 188.264594 
L 227.179356 187.904857 
L 227.543765 187.231249 
L 228.277157 189.706912 
L 228.646159 190.449352 
L 229.016711 192.173457 
L 229.388823 191.591673 
L 229.762505 189.524486 
L 230.137767 189.196002 
L 230.89307 185.830497 
L 231.273132 184.323005 
L 231.654815 186.184298 
L 232.038128 186.008681 
L 232.423083 186.169767 
L 232.80969 187.786315 
L 233.19796 186.927901 
L 233.587902 187.424847 
L 234.372852 190.696282 
L 234.76788 189.39384 
L 235.164626 189.167629 
L 235.5631 190.178593 
L 235.963314 188.799879 
L 236.36528 187.903591 
L 236.769008 187.51638 
L 237.17451 187.837492 
L 237.581799 186.801236 
L 237.990886 188.283413 
L 238.401782 188.243983 
L 238.814501 182.417609 
L 239.229054 178.911703 
L 240.483839 162.585752 
L 241.755579 138.664842 
L 242.183319 133.70307 
L 242.612995 133.258161 
L 243.044619 128.722529 
L 243.478205 136.675619 
L 243.913766 141.276919 
L 244.351315 147.522309 
L 244.790867 150.637801 
L 245.232435 158.526514 
L 245.676032 160.237514 
L 246.121674 166.262458 
L 246.569374 169.804998 
L 247.019146 175.620594 
L 247.471005 176.419241 
L 247.924965 179.835583 
L 248.381042 181.446475 
L 248.839249 179.395018 
L 249.299603 181.233515 
L 249.762117 179.273009 
L 250.226808 180.429134 
L 250.69369 182.918459 
L 251.16278 182.513998 
L 251.634092 184.429323 
L 252.107643 184.495749 
L 252.583449 186.41428 
L 253.061525 186.981379 
L 253.541889 188.352692 
L 254.024556 186.275676 
L 254.509544 186.496719 
L 254.996869 187.081623 
L 255.486547 184.298048 
L 255.978597 186.842435 
L 256.473034 184.588399 
L 256.969878 185.659666 
L 257.469144 185.709797 
L 257.970852 184.552065 
L 258.475019 186.816401 
L 258.981663 184.700842 
L 259.490802 186.093043 
L 260.002456 185.872278 
L 260.516642 183.583915 
L 261.033379 182.770908 
L 261.552687 179.94703 
L 262.599091 168.622903 
L 263.126226 159.287221 
L 264.188463 146.971431 
L 264.723604 152.725027 
L 265.261455 160.654597 
L 265.802035 162.850474 
L 266.345366 168.270708 
L 266.891469 176.763272 
L 267.440364 181.627765 
L 267.992075 184.928212 
L 268.546621 183.833853 
L 269.104025 184.764894 
L 269.66431 187.192338 
L 270.793609 182.959839 
L 271.36267 182.845548 
L 271.934701 180.451932 
L 272.509728 172.947562 
L 273.087772 173.118765 
L 273.668858 174.458615 
L 274.25301 174.21479 
L 274.840252 175.346481 
L 275.43061 179.053444 
L 276.024107 180.744341 
L 276.620769 179.583789 
L 277.220621 184.510673 
L 277.823689 184.705573 
L 278.429998 184.29858 
L 279.039576 183.241863 
L 279.652449 183.682861 
L 280.268642 186.207849 
L 280.888184 187.587935 
L 281.511102 187.714356 
L 282.137423 187.565745 
L 282.767176 186.36905 
L 283.400388 185.880341 
L 284.037088 185.812835 
L 284.677306 184.665741 
L 285.96841 179.488533 
L 287.273937 182.709394 
L 287.932185 181.486716 
L 289.259805 177.358421 
L 289.92924 178.36236 
L 290.602467 177.807296 
L 291.279518 174.690085 
L 291.960427 173.644961 
L 292.645226 173.30036 
L 293.333949 174.844327 
L 294.026629 175.242426 
L 294.723301 173.172204 
L 295.423999 171.959251 
L 296.128759 170.331566 
L 296.837615 169.825294 
L 297.550605 173.092067 
L 298.267763 167.754406 
L 298.989126 161.292006 
L 299.714732 157.000888 
L 301.178823 143.259398 
L 302.66034 125.684467 
L 303.407732 116.388994 
L 305.676915 83.038367 
L 306.442449 75.375424 
L 307.212621 82.61756 
L 308.767052 103.144856 
L 309.551397 110.50937 
L 311.933477 138.887327 
L 312.737334 146.922661 
L 313.546184 157.564734 
L 314.360073 164.631496 
L 315.179047 169.603521 
L 316.003156 173.890925 
L 316.832446 172.458163 
L 317.666968 174.412816 
L 318.50677 171.947028 
L 319.351904 175.527892 
L 320.20242 175.901009 
L 321.058369 176.889124 
L 321.919804 177.086951 
L 322.786778 177.155952 
L 323.659345 174.040532 
L 324.537558 173.953376 
L 325.421473 177.299943 
L 326.311145 175.139467 
L 327.206631 175.090124 
L 328.107988 176.963002 
L 329.928547 171.876289 
L 330.847867 177.117074 
L 331.773295 177.272278 
L 332.704891 176.783169 
L 333.642717 176.686167 
L 334.586837 177.111274 
L 335.537313 177.134504 
L 336.49421 175.381721 
L 337.457593 178.408807 
L 338.427528 178.296045 
L 339.404083 174.219275 
L 341.377324 178.179657 
L 342.374149 175.792525 
L 343.377871 179.040683 
L 344.388562 176.850196 
L 345.406295 175.766221 
L 346.431144 176.013864 
L 347.463183 174.424099 
L 348.502488 175.036107 
L 349.549137 173.769475 
L 350.603208 174.817136 
L 351.664779 174.950835 
L 352.733932 176.870787 
L 353.810747 176.97722 
L 354.895307 178.9919 
L 355.987697 179.995862 
L 357.088001 178.460589 
L 358.196306 177.76656 
L 359.312698 174.527987 
L 360.437268 175.864963 
L 361.570105 174.48268 
L 362.711301 177.196541 
L 363.860948 175.355807 
L 365.019141 174.320117 
L 366.185976 174.038224 
L 367.361549 162.497791 
L 368.545959 149.376408 
L 369.739306 131.95982 
L 370.941692 137.891026 
L 372.15322 146.473549 
L 373.373994 157.21563 
L 374.60412 169.772365 
L 375.843707 169.490932 
L 377.092864 174.632659 
L 378.351702 176.600731 
L 379.620335 176.510254 
L 380.898877 174.787129 
L 382.187444 173.283817 
L 383.486155 173.603454 
L 384.795131 173.239344 
L 386.114493 170.706597 
L 387.444365 172.986721 
L 388.784874 170.066043 
L 390.136148 164.708398 
L 391.498317 167.350052 
L 392.871513 166.173675 
L 394.255871 162.607708 
L 395.651527 165.746545 
L 397.05862 165.168854 
L 398.477291 160.868424 
L 399.907685 158.498033 
L 401.349946 157.67475 
L 402.804223 163.337241 
L 404.270667 166.612384 
L 405.749432 169.117869 
L 407.240672 175.600278 
L 408.744547 173.19617 
L 410.261218 168.934066 
L 411.790849 166.857905 
L 413.333607 165.435127 
L 414.889661 164.878767 
L 416.459185 164.989492 
L 418.042353 166.832355 
L 419.639344 166.72225 
L 421.250341 167.007992 
L 422.875528 168.885723 
L 424.515094 168.446079 
L 426.16923 158.42251 
L 427.838132 146.152893 
L 431.221029 111.295796 
L 432.935433 93.050071 
L 434.665418 97.865061 
L 436.411199 107.232373 
L 438.172991 129.663668 
L 439.951017 137.807612 
L 441.745502 149.151849 
L 443.556676 156.117108 
L 445.384772 156.481065 
L 447.230029 157.441653 
L 449.09269 163.117466 
L 450.973001 164.684205 
L 452.871216 162.561057 
L 454.78759 163.145138 
L 456.722386 163.555716 
L 458.675871 160.434481 
L 460.648316 161.611024 
L 462.64 162.318202 
L 464.651205 162.001186 
L 466.682219 161.094341 
L 468.733337 164.298293 
L 470.804858 162.926754 
L 472.897089 160.967217 
L 475.010341 161.520172 
L 475.010341 161.520172 
" clip-path="url(#p101b331c46)" style="fill: none; stroke: #000000; stroke-width: 1.5; stroke-linecap: square"/>
   </g>
   <g id="patch_3">
    <path d="M 48.90125 228.96 
L 48.90125 7.2 
" style="fill: none; stroke: #000000; stroke-width: 0.8; stroke-linejoin: miter; stroke-linecap: square"/>
   </g>
   <g id="patch_4">
    <path d="M 495.30125 228.96 
L 495.30125 7.2 
" style="fill: none; stroke: #000000; stroke-width: 0.8; stroke-linejoin: miter; stroke-linecap: square"/>
   </g>
   <g id="patch_5">
    <path d="M 48.90125 228.96 
L 495.30125 228.96 
" style="fill: none; stroke: #000000; stroke-width: 0.8; stroke-linejoin: miter; stroke-linecap: square"/>
   </g>
   <g id="patch_6">
    <path d="M 48.90125 7.2 
L 495.30125 7.2 
" style="fill: none; stroke: #000000; stroke-width: 0.8; stroke-linejoin: miter; stroke-linecap: square"/>
   </g>
  </g>
 </g>
 <defs>
  <clipPath id="p101b331c46">
   <rect x="48.90125" y="7.2" width="446.4" height="221.76"/>
  </clipPath>
 </defs>
</svg>
