<?xml version="1.0" encoding="utf-8" standalone="no"?>
<!DOCTYPE svg PUBLIC "-//W3C//DTD SVG 1.1//EN"
  "http://www.w3.org/Graphics/SVG/1.1/DTD/svg11.dtd">
<svg xmlns:xlink="http://www.w3.org/1999/xlink" width="508.86375pt" height="268.451875pt" viewBox="0 0 508.86375 268.451875" xmlns="http://www.w3.org/2000/svg" version="1.1">
 <metadata>
  <rdf:RDF xmlns:dc="http://purl.org/dc/elements/1.1/" xmlns:cc="http://creativecommons.org/ns#" xmlns:rdf="http://www.w3.org/1999/02/22-rdf-syntax-ns#">
   <cc:Work>
    <dc:type rdf:resource="http://purl.org/dc/dcmitype/StillImage"/>
    <dc:date>2022-05-03T11:27:05.258025</dc:date>
    <dc:format>image/svg+xml</dc:format>
    <dc:creator>
     <cc:Agent>
      <dc:title>Matplotlib v3.5.2, https://matplotlib.org/</dc:title>
     </cc:Agent>
    </dc:creator>
   </cc:Work>
  </rdf:RDF>
 </metadata>
 <defs>
  <style type="text/css">*{stroke-linejoin: round; stroke-linecap: butt}</style>
 </defs>
 <g id="figure_1">
  <g id="patch_1">
   <path d="M 0 268.451875 
L 508.86375 268.451875 
L 508.86375 0 
L 0 0 
L 0 268.451875 
z
" style="fill: none"/>
  </g>
  <g id="axes_1">
   <g id="patch_2">
    <path d="M 55.26375 228.96 
L 501.66375 228.96 
L 501.66375 7.2 
L 55.26375 7.2 
z
" style="fill: #ffffff"/>
   </g>
   <g id="matplotlib.axis_1">
    <g id="xtick_1">
     <g id="line2d_1">
      <defs>
       <path id="ma2a943b1fa" d="M 0 0 
L 0 3.5 
" style="stroke: #000000; stroke-width: 0.8"/>
      </defs>
      <g>
       <use xlink:href="#ma2a943b1fa" x="58.605375" y="228.96" style="stroke: #000000; stroke-width: 0.8"/>
      </g>
     </g>
     <g id="text_1">
      <!-- 0 -->
      <g transform="translate(55.424125 243.558437)scale(0.1 -0.1)">
       <defs>
        <path id="DejaVuSans-30" d="M 2034 4250 
Q 1547 4250 1301 3770 
Q 1056 3291 1056 2328 
Q 1056 1369 1301 889 
Q 1547 409 2034 409 
Q 2525 409 2770 889 
Q 3016 1369 3016 2328 
Q 3016 3291 2770 3770 
Q 2525 4250 2034 4250 
z
M 2034 4750 
Q 2819 4750 3233 4129 
Q 3647 3509 3647 2328 
Q 3647 1150 3233 529 
Q 2819 -91 2034 -91 
Q 1250 -91 836 529 
Q 422 1150 422 2328 
Q 422 3509 836 4129 
Q 1250 4750 2034 4750 
z
" transform="scale(0.015625)"/>
       </defs>
       <use xlink:href="#DejaVuSans-30"/>
      </g>
     </g>
    </g>
    <g id="xtick_2">
     <g id="line2d_2">
      <g>
       <use xlink:href="#ma2a943b1fa" x="143.351795" y="228.96" style="stroke: #000000; stroke-width: 0.8"/>
      </g>
     </g>
     <g id="text_2">
      <!-- 2 -->
      <g transform="translate(140.170545 243.558437)scale(0.1 -0.1)">
       <defs>
        <path id="DejaVuSans-32" d="M 1228 531 
L 3431 531 
L 3431 0 
L 469 0 
L 469 531 
Q 828 903 1448 1529 
Q 2069 2156 2228 2338 
Q 2531 2678 2651 2914 
Q 2772 3150 2772 3378 
Q 2772 3750 2511 3984 
Q 2250 4219 1831 4219 
Q 1534 4219 1204 4116 
Q 875 4013 500 3803 
L 500 4441 
Q 881 4594 1212 4672 
Q 1544 4750 1819 4750 
Q 2544 4750 2975 4387 
Q 3406 4025 3406 3419 
Q 3406 3131 3298 2873 
Q 3191 2616 2906 2266 
Q 2828 2175 2409 1742 
Q 1991 1309 1228 531 
z
" transform="scale(0.015625)"/>
       </defs>
       <use xlink:href="#DejaVuSans-32"/>
      </g>
     </g>
    </g>
    <g id="xtick_3">
     <g id="line2d_3">
      <g>
       <use xlink:href="#ma2a943b1fa" x="228.098215" y="228.96" style="stroke: #000000; stroke-width: 0.8"/>
      </g>
     </g>
     <g id="text_3">
      <!-- 4 -->
      <g transform="translate(224.916965 243.558437)scale(0.1 -0.1)">
       <defs>
        <path id="DejaVuSans-34" d="M 2419 4116 
L 825 1625 
L 2419 1625 
L 2419 4116 
z
M 2253 4666 
L 3047 4666 
L 3047 1625 
L 3713 1625 
L 3713 1100 
L 3047 1100 
L 3047 0 
L 2419 0 
L 2419 1100 
L 313 1100 
L 313 1709 
L 2253 4666 
z
" transform="scale(0.015625)"/>
       </defs>
       <use xlink:href="#DejaVuSans-34"/>
      </g>
     </g>
    </g>
    <g id="xtick_4">
     <g id="line2d_4">
      <g>
       <use xlink:href="#ma2a943b1fa" x="312.844634" y="228.96" style="stroke: #000000; stroke-width: 0.8"/>
      </g>
     </g>
     <g id="text_4">
      <!-- 6 -->
      <g transform="translate(309.663384 243.558437)scale(0.1 -0.1)">
       <defs>
        <path id="DejaVuSans-36" d="M 2113 2584 
Q 1688 2584 1439 2293 
Q 1191 2003 1191 1497 
Q 1191 994 1439 701 
Q 1688 409 2113 409 
Q 2538 409 2786 701 
Q 3034 994 3034 1497 
Q 3034 2003 2786 2293 
Q 2538 2584 2113 2584 
z
M 3366 4563 
L 3366 3988 
Q 3128 4100 2886 4159 
Q 2644 4219 2406 4219 
Q 1781 4219 1451 3797 
Q 1122 3375 1075 2522 
Q 1259 2794 1537 2939 
Q 1816 3084 2150 3084 
Q 2853 3084 3261 2657 
Q 3669 2231 3669 1497 
Q 3669 778 3244 343 
Q 2819 -91 2113 -91 
Q 1303 -91 875 529 
Q 447 1150 447 2328 
Q 447 3434 972 4092 
Q 1497 4750 2381 4750 
Q 2619 4750 2861 4703 
Q 3103 4656 3366 4563 
z
" transform="scale(0.015625)"/>
       </defs>
       <use xlink:href="#DejaVuSans-36"/>
      </g>
     </g>
    </g>
    <g id="xtick_5">
     <g id="line2d_5">
      <g>
       <use xlink:href="#ma2a943b1fa" x="397.591054" y="228.96" style="stroke: #000000; stroke-width: 0.8"/>
      </g>
     </g>
     <g id="text_5">
      <!-- 8 -->
      <g transform="translate(394.409804 243.558437)scale(0.1 -0.1)">
       <defs>
        <path id="DejaVuSans-38" d="M 2034 2216 
Q 1584 2216 1326 1975 
Q 1069 1734 1069 1313 
Q 1069 891 1326 650 
Q 1584 409 2034 409 
Q 2484 409 2743 651 
Q 3003 894 3003 1313 
Q 3003 1734 2745 1975 
Q 2488 2216 2034 2216 
z
M 1403 2484 
Q 997 2584 770 2862 
Q 544 3141 544 3541 
Q 544 4100 942 4425 
Q 1341 4750 2034 4750 
Q 2731 4750 3128 4425 
Q 3525 4100 3525 3541 
Q 3525 3141 3298 2862 
Q 3072 2584 2669 2484 
Q 3125 2378 3379 2068 
Q 3634 1759 3634 1313 
Q 3634 634 3220 271 
Q 2806 -91 2034 -91 
Q 1263 -91 848 271 
Q 434 634 434 1313 
Q 434 1759 690 2068 
Q 947 2378 1403 2484 
z
M 1172 3481 
Q 1172 3119 1398 2916 
Q 1625 2713 2034 2713 
Q 2441 2713 2670 2916 
Q 2900 3119 2900 3481 
Q 2900 3844 2670 4047 
Q 2441 4250 2034 4250 
Q 1625 4250 1398 4047 
Q 1172 3844 1172 3481 
z
" transform="scale(0.015625)"/>
       </defs>
       <use xlink:href="#DejaVuSans-38"/>
      </g>
     </g>
    </g>
    <g id="xtick_6">
     <g id="line2d_6">
      <g>
       <use xlink:href="#ma2a943b1fa" x="482.337474" y="228.96" style="stroke: #000000; stroke-width: 0.8"/>
      </g>
     </g>
     <g id="text_6">
      <!-- 10 -->
      <g transform="translate(475.974974 243.558437)scale(0.1 -0.1)">
       <defs>
        <path id="DejaVuSans-31" d="M 794 531 
L 1825 531 
L 1825 4091 
L 703 3866 
L 703 4441 
L 1819 4666 
L 2450 4666 
L 2450 531 
L 3481 531 
L 3481 0 
L 794 0 
L 794 531 
z
" transform="scale(0.015625)"/>
       </defs>
       <use xlink:href="#DejaVuSans-31"/>
       <use xlink:href="#DejaVuSans-30" x="63.623047"/>
      </g>
     </g>
    </g>
    <g id="text_7">
     <!-- period [day] -->
     <g transform="translate(241.723125 258.75625)scale(0.12 -0.12)">
      <defs>
       <path id="DejaVuSans-70" d="M 1159 525 
L 1159 -1331 
L 581 -1331 
L 581 3500 
L 1159 3500 
L 1159 2969 
Q 1341 3281 1617 3432 
Q 1894 3584 2278 3584 
Q 2916 3584 3314 3078 
Q 3713 2572 3713 1747 
Q 3713 922 3314 415 
Q 2916 -91 2278 -91 
Q 1894 -91 1617 61 
Q 1341 213 1159 525 
z
M 3116 1747 
Q 3116 2381 2855 2742 
Q 2594 3103 2138 3103 
Q 1681 3103 1420 2742 
Q 1159 2381 1159 1747 
Q 1159 1113 1420 752 
Q 1681 391 2138 391 
Q 2594 391 2855 752 
Q 3116 1113 3116 1747 
z
" transform="scale(0.015625)"/>
       <path id="DejaVuSans-65" d="M 3597 1894 
L 3597 1613 
L 953 1613 
Q 991 1019 1311 708 
Q 1631 397 2203 397 
Q 2534 397 2845 478 
Q 3156 559 3463 722 
L 3463 178 
Q 3153 47 2828 -22 
Q 2503 -91 2169 -91 
Q 1331 -91 842 396 
Q 353 884 353 1716 
Q 353 2575 817 3079 
Q 1281 3584 2069 3584 
Q 2775 3584 3186 3129 
Q 3597 2675 3597 1894 
z
M 3022 2063 
Q 3016 2534 2758 2815 
Q 2500 3097 2075 3097 
Q 1594 3097 1305 2825 
Q 1016 2553 972 2059 
L 3022 2063 
z
" transform="scale(0.015625)"/>
       <path id="DejaVuSans-72" d="M 2631 2963 
Q 2534 3019 2420 3045 
Q 2306 3072 2169 3072 
Q 1681 3072 1420 2755 
Q 1159 2438 1159 1844 
L 1159 0 
L 581 0 
L 581 3500 
L 1159 3500 
L 1159 2956 
Q 1341 3275 1631 3429 
Q 1922 3584 2338 3584 
Q 2397 3584 2469 3576 
Q 2541 3569 2628 3553 
L 2631 2963 
z
" transform="scale(0.015625)"/>
       <path id="DejaVuSans-69" d="M 603 3500 
L 1178 3500 
L 1178 0 
L 603 0 
L 603 3500 
z
M 603 4863 
L 1178 4863 
L 1178 4134 
L 603 4134 
L 603 4863 
z
" transform="scale(0.015625)"/>
       <path id="DejaVuSans-6f" d="M 1959 3097 
Q 1497 3097 1228 2736 
Q 959 2375 959 1747 
Q 959 1119 1226 758 
Q 1494 397 1959 397 
Q 2419 397 2687 759 
Q 2956 1122 2956 1747 
Q 2956 2369 2687 2733 
Q 2419 3097 1959 3097 
z
M 1959 3584 
Q 2709 3584 3137 3096 
Q 3566 2609 3566 1747 
Q 3566 888 3137 398 
Q 2709 -91 1959 -91 
Q 1206 -91 779 398 
Q 353 888 353 1747 
Q 353 2609 779 3096 
Q 1206 3584 1959 3584 
z
" transform="scale(0.015625)"/>
       <path id="DejaVuSans-64" d="M 2906 2969 
L 2906 4863 
L 3481 4863 
L 3481 0 
L 2906 0 
L 2906 525 
Q 2725 213 2448 61 
Q 2172 -91 1784 -91 
Q 1150 -91 751 415 
Q 353 922 353 1747 
Q 353 2572 751 3078 
Q 1150 3584 1784 3584 
Q 2172 3584 2448 3432 
Q 2725 3281 2906 2969 
z
M 947 1747 
Q 947 1113 1208 752 
Q 1469 391 1925 391 
Q 2381 391 2643 752 
Q 2906 1113 2906 1747 
Q 2906 2381 2643 2742 
Q 2381 3103 1925 3103 
Q 1469 3103 1208 2742 
Q 947 2381 947 1747 
z
" transform="scale(0.015625)"/>
       <path id="DejaVuSans-20" transform="scale(0.015625)"/>
       <path id="DejaVuSans-5b" d="M 550 4863 
L 1875 4863 
L 1875 4416 
L 1125 4416 
L 1125 -397 
L 1875 -397 
L 1875 -844 
L 550 -844 
L 550 4863 
z
" transform="scale(0.015625)"/>
       <path id="DejaVuSans-61" d="M 2194 1759 
Q 1497 1759 1228 1600 
Q 959 1441 959 1056 
Q 959 750 1161 570 
Q 1363 391 1709 391 
Q 2188 391 2477 730 
Q 2766 1069 2766 1631 
L 2766 1759 
L 2194 1759 
z
M 3341 1997 
L 3341 0 
L 2766 0 
L 2766 531 
Q 2569 213 2275 61 
Q 1981 -91 1556 -91 
Q 1019 -91 701 211 
Q 384 513 384 1019 
Q 384 1609 779 1909 
Q 1175 2209 1959 2209 
L 2766 2209 
L 2766 2266 
Q 2766 2663 2505 2880 
Q 2244 3097 1772 3097 
Q 1472 3097 1187 3025 
Q 903 2953 641 2809 
L 641 3341 
Q 956 3463 1253 3523 
Q 1550 3584 1831 3584 
Q 2591 3584 2966 3190 
Q 3341 2797 3341 1997 
z
" transform="scale(0.015625)"/>
       <path id="DejaVuSans-79" d="M 2059 -325 
Q 1816 -950 1584 -1140 
Q 1353 -1331 966 -1331 
L 506 -1331 
L 506 -850 
L 844 -850 
Q 1081 -850 1212 -737 
Q 1344 -625 1503 -206 
L 1606 56 
L 191 3500 
L 800 3500 
L 1894 763 
L 2988 3500 
L 3597 3500 
L 2059 -325 
z
" transform="scale(0.015625)"/>
       <path id="DejaVuSans-5d" d="M 1947 4863 
L 1947 -844 
L 622 -844 
L 622 -397 
L 1369 -397 
L 1369 4416 
L 622 4416 
L 622 4863 
L 1947 4863 
z
" transform="scale(0.015625)"/>
      </defs>
      <use xlink:href="#DejaVuSans-70"/>
      <use xlink:href="#DejaVuSans-65" x="63.476562"/>
      <use xlink:href="#DejaVuSans-72" x="125"/>
      <use xlink:href="#DejaVuSans-69" x="166.113281"/>
      <use xlink:href="#DejaVuSans-6f" x="193.896484"/>
      <use xlink:href="#DejaVuSans-64" x="255.078125"/>
      <use xlink:href="#DejaVuSans-20" x="318.554688"/>
      <use xlink:href="#DejaVuSans-5b" x="350.341797"/>
      <use xlink:href="#DejaVuSans-64" x="389.355469"/>
      <use xlink:href="#DejaVuSans-61" x="452.832031"/>
      <use xlink:href="#DejaVuSans-79" x="514.111328"/>
      <use xlink:href="#DejaVuSans-5d" x="573.291016"/>
     </g>
    </g>
   </g>
   <g id="matplotlib.axis_2">
    <g id="ytick_1">
     <g id="line2d_7">
      <defs>
       <path id="mb21d9959b9" d="M 0 0 
L -3.5 0 
" style="stroke: #000000; stroke-width: 0.8"/>
      </defs>
      <g>
       <use xlink:href="#mb21d9959b9" x="55.26375" y="218.972903" style="stroke: #000000; stroke-width: 0.8"/>
      </g>
     </g>
     <g id="text_8">
      <!-- 0 -->
      <g transform="translate(41.90125 222.772122)scale(0.1 -0.1)">
       <use xlink:href="#DejaVuSans-30"/>
      </g>
     </g>
    </g>
    <g id="ytick_2">
     <g id="line2d_8">
      <g>
       <use xlink:href="#mb21d9959b9" x="55.26375" y="182.564702" style="stroke: #000000; stroke-width: 0.8"/>
      </g>
     </g>
     <g id="text_9">
      <!-- 1000 -->
      <g transform="translate(22.81375 186.363921)scale(0.1 -0.1)">
       <use xlink:href="#DejaVuSans-31"/>
       <use xlink:href="#DejaVuSans-30" x="63.623047"/>
       <use xlink:href="#DejaVuSans-30" x="127.246094"/>
       <use xlink:href="#DejaVuSans-30" x="190.869141"/>
      </g>
     </g>
    </g>
    <g id="ytick_3">
     <g id="line2d_9">
      <g>
       <use xlink:href="#mb21d9959b9" x="55.26375" y="146.156501" style="stroke: #000000; stroke-width: 0.8"/>
      </g>
     </g>
     <g id="text_10">
      <!-- 2000 -->
      <g transform="translate(22.81375 149.95572)scale(0.1 -0.1)">
       <use xlink:href="#DejaVuSans-32"/>
       <use xlink:href="#DejaVuSans-30" x="63.623047"/>
       <use xlink:href="#DejaVuSans-30" x="127.246094"/>
       <use xlink:href="#DejaVuSans-30" x="190.869141"/>
      </g>
     </g>
    </g>
    <g id="ytick_4">
     <g id="line2d_10">
      <g>
       <use xlink:href="#mb21d9959b9" x="55.26375" y="109.7483" style="stroke: #000000; stroke-width: 0.8"/>
      </g>
     </g>
     <g id="text_11">
      <!-- 3000 -->
      <g transform="translate(22.81375 113.547519)scale(0.1 -0.1)">
       <defs>
        <path id="DejaVuSans-33" d="M 2597 2516 
Q 3050 2419 3304 2112 
Q 3559 1806 3559 1356 
Q 3559 666 3084 287 
Q 2609 -91 1734 -91 
Q 1441 -91 1130 -33 
Q 819 25 488 141 
L 488 750 
Q 750 597 1062 519 
Q 1375 441 1716 441 
Q 2309 441 2620 675 
Q 2931 909 2931 1356 
Q 2931 1769 2642 2001 
Q 2353 2234 1838 2234 
L 1294 2234 
L 1294 2753 
L 1863 2753 
Q 2328 2753 2575 2939 
Q 2822 3125 2822 3475 
Q 2822 3834 2567 4026 
Q 2313 4219 1838 4219 
Q 1578 4219 1281 4162 
Q 984 4106 628 3988 
L 628 4550 
Q 988 4650 1302 4700 
Q 1616 4750 1894 4750 
Q 2613 4750 3031 4423 
Q 3450 4097 3450 3541 
Q 3450 3153 3228 2886 
Q 3006 2619 2597 2516 
z
" transform="scale(0.015625)"/>
       </defs>
       <use xlink:href="#DejaVuSans-33"/>
       <use xlink:href="#DejaVuSans-30" x="63.623047"/>
       <use xlink:href="#DejaVuSans-30" x="127.246094"/>
       <use xlink:href="#DejaVuSans-30" x="190.869141"/>
      </g>
     </g>
    </g>
    <g id="ytick_5">
     <g id="line2d_11">
      <g>
       <use xlink:href="#mb21d9959b9" x="55.26375" y="73.340099" style="stroke: #000000; stroke-width: 0.8"/>
      </g>
     </g>
     <g id="text_12">
      <!-- 4000 -->
      <g transform="translate(22.81375 77.139318)scale(0.1 -0.1)">
       <use xlink:href="#DejaVuSans-34"/>
       <use xlink:href="#DejaVuSans-30" x="63.623047"/>
       <use xlink:href="#DejaVuSans-30" x="127.246094"/>
       <use xlink:href="#DejaVuSans-30" x="190.869141"/>
      </g>
     </g>
    </g>
    <g id="ytick_6">
     <g id="line2d_12">
      <g>
       <use xlink:href="#mb21d9959b9" x="55.26375" y="36.931898" style="stroke: #000000; stroke-width: 0.8"/>
      </g>
     </g>
     <g id="text_13">
      <!-- 5000 -->
      <g transform="translate(22.81375 40.731117)scale(0.1 -0.1)">
       <defs>
        <path id="DejaVuSans-35" d="M 691 4666 
L 3169 4666 
L 3169 4134 
L 1269 4134 
L 1269 2991 
Q 1406 3038 1543 3061 
Q 1681 3084 1819 3084 
Q 2600 3084 3056 2656 
Q 3513 2228 3513 1497 
Q 3513 744 3044 326 
Q 2575 -91 1722 -91 
Q 1428 -91 1123 -41 
Q 819 9 494 109 
L 494 744 
Q 775 591 1075 516 
Q 1375 441 1709 441 
Q 2250 441 2565 725 
Q 2881 1009 2881 1497 
Q 2881 1984 2565 2268 
Q 2250 2553 1709 2553 
Q 1456 2553 1204 2497 
Q 953 2441 691 2322 
L 691 4666 
z
" transform="scale(0.015625)"/>
       </defs>
       <use xlink:href="#DejaVuSans-35"/>
       <use xlink:href="#DejaVuSans-30" x="63.623047"/>
       <use xlink:href="#DejaVuSans-30" x="127.246094"/>
       <use xlink:href="#DejaVuSans-30" x="190.869141"/>
      </g>
     </g>
    </g>
    <g id="text_14">
     <!-- power -->
     <g transform="translate(16.318125 136.625625)rotate(-90)scale(0.12 -0.12)">
      <defs>
       <path id="DejaVuSans-77" d="M 269 3500 
L 844 3500 
L 1563 769 
L 2278 3500 
L 2956 3500 
L 3675 769 
L 4391 3500 
L 4966 3500 
L 4050 0 
L 3372 0 
L 2619 2869 
L 1863 0 
L 1184 0 
L 269 3500 
z
" transform="scale(0.015625)"/>
      </defs>
      <use xlink:href="#DejaVuSans-70"/>
      <use xlink:href="#DejaVuSans-6f" x="63.476562"/>
      <use xlink:href="#DejaVuSans-77" x="124.658203"/>
      <use xlink:href="#DejaVuSans-65" x="206.445312"/>
      <use xlink:href="#DejaVuSans-72" x="267.96875"/>
     </g>
    </g>
   </g>
   <g id="line2d_13">
    <path d="M 75.554659 217.752818 
L 75.609455 216.787632 
L 75.640434 218.11466 
L 75.661149 217.558965 
L 75.681915 218.002336 
L 75.751501 216.92059 
L 75.768986 217.747319 
L 75.790015 216.485609 
L 75.839284 217.787976 
L 75.878195 217.43379 
L 75.981624 218.451661 
L 75.942246 217.032736 
L 75.992394 218.168632 
L 76.024785 218.424757 
L 76.086299 217.798923 
L 76.093564 217.926408 
L 76.173885 216.601753 
L 76.210638 217.425342 
L 76.247546 216.977813 
L 76.295759 218.166823 
L 76.306922 218.038576 
L 76.318099 218.354124 
L 76.366698 217.653824 
L 76.411797 217.838461 
L 76.76139 189.905236 
L 76.769227 194.036159 
L 76.887609 208.432411 
L 76.895556 207.322046 
L 76.90351 207.044511 
L 77.047872 216.028817 
L 77.182219 218.823411 
L 77.198637 218.654763 
L 77.31022 217.764963 
L 77.339368 217.933144 
L 77.452652 218.608538 
L 77.461098 218.531988 
L 77.494957 218.318794 
L 77.58014 218.851819 
L 77.700695 218.077186 
L 77.709365 218.509862 
L 77.809636 218.750088 
L 77.718043 218.130657 
L 77.822792 218.664236 
L 77.915394 218.104657 
L 77.933134 218.401321 
L 77.937574 218.40469 
L 77.942016 218.292267 
L 77.977627 218.030949 
L 77.99995 218.409895 
L 78.058231 218.114538 
L 78.094271 218.401937 
L 78.067229 218.070762 
L 78.116864 218.079194 
L 78.121389 217.774376 
L 78.194074 218.352088 
L 78.22147 218.322202 
L 78.226044 218.280862 
L 78.276493 218.831755 
L 78.570506 216.013104 
L 78.608471 217.068851 
L 78.613227 217.343974 
L 78.684836 215.122815 
L 78.71843 217.136241 
L 78.723238 217.07682 
L 78.75696 217.804037 
L 78.761786 217.779556 
L 78.878324 218.655327 
L 78.77628 217.495818 
L 78.888096 218.495374 
L 78.976473 216.972723 
L 79.020951 217.341655 
L 79.045745 217.647946 
L 79.06065 217.256295 
L 79.065623 216.681617 
L 79.160577 218.059221 
L 79.27163 218.763308 
L 79.200821 217.513597 
L 79.281785 218.612851 
L 79.297037 218.728075 
L 79.507754 212.949842 
L 79.659408 200.210931 
L 79.675222 200.472667 
L 79.680498 200.935694 
L 79.712214 197.251335 
L 79.749336 198.569314 
L 79.807935 188.616636 
L 79.861489 194.964081 
L 79.974839 205.131868 
L 79.985698 204.498932 
L 79.996567 203.778665 
L 80.034697 209.815161 
L 80.238521 218.160949 
L 80.244083 218.124716 
L 80.288687 218.562782 
L 80.299867 218.75578 
L 80.384083 218.437376 
L 80.395361 218.521614 
L 80.497394 217.65854 
L 80.463277 218.657012 
L 80.50879 217.917406 
L 80.520198 218.412936 
L 80.554493 217.81639 
L 80.617647 218.115294 
L 80.675375 217.989297 
L 80.692753 218.344878 
L 80.815168 218.578889 
L 80.715966 218.146168 
L 80.826897 218.466455 
L 80.832766 218.357307 
L 80.897534 218.777156 
L 80.933021 218.549057 
L 81.004335 218.681972 
L 81.016265 218.160555 
L 81.022235 218.308615 
L 81.040163 217.730991 
L 81.058121 218.575389 
L 81.064113 218.690033 
L 81.136268 218.180973 
L 81.15438 218.372192 
L 81.27587 217.040375 
L 81.17252 218.560611 
L 81.281979 217.168488 
L 81.300326 216.761027 
L 81.380171 217.836795 
L 81.398677 217.567376 
L 81.423398 218.203031 
L 81.460581 218.058141 
L 81.491659 218.566365 
L 81.55407 218.035414 
L 81.572859 218.234691 
L 81.679917 216.87272 
L 81.717941 217.049037 
L 81.832769 218.596084 
L 81.839182 218.583404 
L 81.903505 218.662829 
L 81.871299 218.423739 
L 81.9358 218.612531 
L 82.033225 218.445948 
L 81.994157 218.630886 
L 82.046276 218.545101 
L 82.065881 218.714831 
L 82.138046 218.433776 
L 82.151214 218.612462 
L 82.283716 218.086478 
L 82.177596 218.654714 
L 82.29038 218.136036 
L 82.317074 217.920673 
L 82.323757 217.748225 
L 82.404248 218.205059 
L 82.417717 218.187438 
L 82.424457 218.45481 
L 82.4312 218.067706 
L 82.526014 218.204812 
L 82.553243 218.393924 
L 82.594202 217.967134 
L 82.628442 218.16501 
L 82.649033 217.670591 
L 82.724836 218.308556 
L 82.752519 217.828819 
L 82.780266 218.154562 
L 82.787213 218.019001 
L 82.898905 217.004179 
L 82.90592 217.086701 
L 82.919963 216.884127 
L 82.92699 217.258433 
L 82.941056 217.215719 
L 82.976294 218.181878 
L 83.068392 217.640326 
L 83.233051 218.83084 
L 83.089745 217.382684 
L 83.261914 218.79339 
L 83.269141 218.808978 
L 83.290845 218.592523 
L 83.50264 215.658502 
L 83.327104 218.605512 
L 83.51738 215.749679 
L 83.891653 194.914658 
L 83.914467 196.570559 
L 83.975507 197.906251 
L 83.967861 194.074279 
L 83.990813 194.334797 
L 84.013807 194.998214 
L 84.029159 192.572628 
L 84.04453 188.121794 
L 84.129403 195.67192 
L 84.594472 216.967428 
L 84.610534 216.805378 
L 84.755992 218.180004 
L 84.764121 217.989405 
L 84.837508 218.635807 
L 84.853872 218.413383 
L 84.886661 218.692294 
L 84.977256 218.198521 
L 85.060159 218.46452 
L 85.043537 218.080774 
L 85.085132 218.299104 
L 85.093467 218.007018 
L 85.101807 218.463148 
L 85.193894 218.237912 
L 85.202297 218.164989 
L 85.278166 218.438307 
L 85.286623 218.198613 
L 85.328987 218.049491 
L 85.405582 218.540793 
L 85.41412 218.47268 
L 85.482617 218.76729 
L 85.525606 218.88 
L 85.551466 218.619493 
L 85.577375 218.739477 
L 85.742631 217.57568 
L 85.751385 217.782844 
L 85.786457 218.237849 
L 85.830424 217.449253 
L 85.8657 217.955304 
L 85.945407 218.455055 
L 85.901068 217.931629 
L 86.007725 218.201607 
L 86.034519 218.32206 
L 86.133216 217.368295 
L 86.151237 217.442954 
L 86.169282 217.218365 
L 86.178313 217.22311 
L 86.232625 216.265152 
L 86.287152 217.210365 
L 86.424414 217.964217 
L 86.442819 217.403785 
L 86.488937 218.013911 
L 86.535208 217.81942 
L 86.55376 218.088996 
L 86.618885 217.310745 
L 86.628213 217.322478 
L 86.637547 217.193543 
L 86.740639 215.433006 
L 86.778316 215.473986 
L 86.787751 215.521431 
L 86.797192 215.287719 
L 86.844492 214.734647 
L 86.863457 215.988586 
L 86.891952 215.634405 
L 87.083398 217.281308 
L 87.112338 217.069295 
L 87.151017 217.591373 
L 87.277452 218.303081 
L 87.287224 218.191786 
L 87.297003 218.208422 
L 87.316581 218.088446 
L 87.375474 218.019771 
L 87.355816 218.193131 
L 87.405012 218.097472 
L 87.44449 218.034259 
L 87.533712 218.292006 
L 87.814857 217.161507 
L 87.835148 217.438623 
L 87.89619 218.166879 
L 87.947254 217.552432 
L 88.111862 218.596002 
L 87.967729 217.531928 
L 88.174067 218.459211 
L 88.19486 218.012811 
L 88.299267 218.211987 
L 88.383324 218.466053 
L 88.414969 218.320998 
L 88.724368 216.030472 
L 88.745943 216.676456 
L 88.821698 216.445262 
L 88.865159 217.249721 
L 88.897836 216.670091 
L 88.91966 217.316917 
L 88.985321 216.907476 
L 89.195139 218.700852 
L 89.306737 218.475854 
L 89.228533 218.741249 
L 89.317942 218.552946 
L 89.329155 218.607102 
L 89.374088 218.29029 
L 89.46435 217.405722 
L 89.62359 215.629055 
L 89.796037 210.942863 
L 90.052457 192.570177 
L 90.22972 178.596267 
L 90.277328 179.425089 
L 90.384972 166.63213 
L 90.553881 187.778729 
L 90.602471 193.106728 
L 90.68786 191.830859 
L 90.71234 191.640754 
L 90.736858 194.468637 
L 90.872379 204.526387 
L 90.884756 203.825529 
L 91.046523 211.768864 
L 91.222556 214.970914 
L 91.235203 214.938773 
L 91.413296 217.677829 
L 91.426091 217.428384 
L 91.490218 218.338207 
L 91.503073 218.330527 
L 91.515939 218.445217 
L 91.528814 218.416131 
L 91.658126 218.746382 
L 91.710135 218.773406 
L 91.723163 218.853676 
L 91.801547 218.650501 
L 91.814647 218.769316 
L 91.840878 218.78649 
L 91.999139 218.330624 
L 92.065526 217.594761 
L 92.132179 217.791226 
L 92.145541 217.79316 
L 92.172298 217.473647 
L 92.199097 218.032723 
L 92.225939 217.744319 
L 92.306724 218.285182 
L 92.360796 218.20093 
L 92.415042 217.549847 
L 92.496739 217.824358 
L 92.578832 218.274083 
L 92.620028 218.15416 
L 92.675111 218.245906 
L 92.702719 218.154545 
L 92.785814 218.49195 
L 92.813602 218.366878 
L 93.023464 217.547341 
L 92.85537 218.606131 
L 93.05164 217.600949 
L 93.079863 217.82832 
L 93.122283 217.410882 
L 93.136447 217.427538 
L 93.150622 217.138892 
L 93.164808 217.86852 
L 93.221672 217.736866 
L 93.235917 217.796051 
L 93.264442 217.649146 
L 93.293014 216.946974 
L 93.364652 217.946006 
L 93.39339 217.993549 
L 93.465443 218.327873 
L 93.494348 217.986673 
L 93.508818 217.973159 
L 93.581351 217.709628 
L 93.610448 218.004076 
L 93.668788 218.168082 
L 93.683404 217.875867 
L 93.712672 218.157472 
L 93.815494 217.027376 
L 93.830232 217.498867 
L 93.87452 217.171078 
L 93.904108 217.587765 
L 93.933745 217.283048 
L 94.022956 217.910479 
L 94.052793 217.674228 
L 94.097643 217.585614 
L 94.112619 217.492614 
L 94.157621 217.84297 
L 94.217801 218.132861 
L 94.278185 218.001689 
L 94.338774 218.103317 
L 94.552467 215.219934 
L 94.737678 213.094092 
L 94.753198 213.285595 
L 94.799839 213.937803 
L 94.831 213.085991 
L 94.909138 210.537061 
L 94.940488 211.766632 
L 95.098052 215.106396 
L 95.113884 215.072651 
L 95.272958 216.185894 
L 95.288942 216.083976 
L 95.320951 216.577996 
L 95.385138 216.881402 
L 95.353016 216.379194 
L 95.401219 216.850038 
L 95.54659 217.996175 
L 95.742214 218.721442 
L 95.75861 218.71578 
L 95.956492 217.640982 
L 95.973077 217.75972 
L 96.006292 217.23323 
L 96.072899 217.76033 
L 96.190034 218.176351 
L 96.206828 218.053324 
L 96.223636 218.071147 
L 96.24046 217.985702 
L 96.257298 217.994356 
L 96.274152 217.800291 
L 96.341718 218.267456 
L 96.580118 216.550277 
L 96.614422 216.931871 
L 96.631596 217.104057 
L 96.648787 216.557875 
L 96.717704 216.908768 
L 96.752257 216.088903 
L 96.82155 216.604015 
L 96.99589 218.231475 
L 97.030949 217.813761 
L 97.101259 217.776614 
L 97.136511 218.094195 
L 97.154161 218.361027 
L 97.260402 218.323191 
L 97.349384 218.529884 
L 97.385092 218.36368 
L 97.420866 218.336003 
L 97.456706 218.455146 
L 97.492612 218.394495 
L 97.528584 218.618094 
L 97.618807 218.538924 
L 97.782267 218.104348 
L 97.818778 218.01822 
L 97.892004 218.453315 
L 97.910353 218.081585 
L 97.947103 218.569532 
L 97.983921 218.481467 
L 98.002356 218.501834 
L 98.020809 218.410971 
L 98.206288 217.831153 
L 98.262273 217.176206 
L 98.299684 217.297829 
L 98.337166 216.771024 
L 98.431181 216.776093 
L 98.468912 216.835313 
L 98.487804 216.342941 
L 98.544588 217.048069 
L 98.563552 216.802778 
L 98.927321 218.389005 
L 99.258458 217.731693 
L 99.278107 217.767841 
L 99.337165 218.081523 
L 99.396395 217.905912 
L 99.435978 217.890776 
L 99.755426 215.431446 
L 100.161836 206.819608 
L 100.618259 174.095634 
L 100.723394 168.827779 
L 100.765595 170.049974 
L 100.935249 162.895157 
L 101.041978 154.026636 
L 101.063388 155.605761 
L 101.213868 172.736871 
L 101.235453 169.133854 
L 101.278687 175.132602 
L 101.300337 173.635375 
L 101.452504 184.298083 
L 101.760116 200.810933 
L 102.02732 211.614101 
L 102.502977 217.576867 
L 102.548822 217.456544 
L 102.594762 217.615706 
L 102.710035 217.990022 
L 102.733162 217.913974 
L 102.779489 218.070748 
L 102.942403 218.447453 
L 102.965774 218.28482 
L 103.036037 218.521033 
L 103.059507 218.46214 
L 103.083002 218.559356 
L 103.153637 218.789819 
L 103.200852 218.697726 
L 103.224496 218.781636 
L 103.248166 218.494983 
L 103.271861 218.68704 
L 103.295582 218.455502 
L 103.343098 218.715137 
L 103.390715 218.513449 
L 103.486254 217.964744 
L 103.558177 218.208782 
L 103.606253 218.343866 
L 103.654432 218.239829 
L 103.678561 218.199888 
L 103.702715 218.400568 
L 103.775333 218.244236 
L 103.921274 217.154616 
L 103.945689 217.317461 
L 104.019093 216.705193 
L 104.068161 217.172221 
L 104.216003 217.566169 
L 104.240737 217.554794 
L 104.315099 217.040117 
L 104.339941 217.488536 
L 104.389705 217.674408 
L 104.414628 217.5633 
L 104.564735 216.527529 
L 104.665355 217.113574 
L 104.71583 216.442153 
L 104.766416 216.860397 
L 104.918842 217.248604 
L 104.944344 217.204601 
L 105.072278 218.03893 
L 105.097949 217.823247 
L 105.38222 218.798315 
L 105.434279 218.662046 
L 105.486455 218.704269 
L 105.591155 218.304161 
L 106.094937 214.094883 
L 106.121751 214.383074 
L 106.256278 212.550663 
L 106.391569 215.310651 
L 106.418719 214.675836 
L 106.582272 216.489066 
L 106.637038 216.268634 
L 106.664468 216.085697 
L 106.69193 216.516281 
L 106.719423 216.230768 
L 106.968281 217.939098 
L 107.051806 218.101386 
L 107.079712 217.957622 
L 107.135621 218.013497 
L 107.191659 217.969139 
L 107.247826 218.10616 
L 107.275958 218.003995 
L 107.304123 218.205668 
L 107.360551 218.276601 
L 107.502194 217.42844 
L 107.644663 218.265382 
L 107.673256 218.081081 
L 107.701883 218.342614 
L 107.730543 218.192171 
L 107.874348 218.688434 
L 107.989999 218.4745 
L 108.018997 218.624078 
L 108.048028 218.582223 
L 108.135329 218.233793 
L 108.164497 218.457667 
L 108.487634 217.301605 
L 108.665674 215.642557 
L 108.69547 215.705091 
L 108.725303 215.568588 
L 108.935128 212.651303 
L 109.086082 209.908316 
L 109.116381 210.285703 
L 109.17709 209.447572 
L 109.268426 209.529339 
L 109.298945 210.138155 
L 109.329501 209.536866 
L 109.421389 208.718012 
L 109.452093 208.980815 
L 109.482834 209.030401 
L 109.513611 208.873948 
L 109.544427 208.430975 
L 109.575279 209.26034 
L 109.730103 211.025326 
L 110.105548 213.184762 
L 110.295345 215.622937 
L 110.454582 216.675337 
L 110.582679 217.610644 
L 110.614803 217.28389 
L 110.646966 217.198772 
L 110.679168 217.311052 
L 110.808379 218.3928 
L 110.840782 218.391142 
L 110.873226 218.551066 
L 110.938233 218.40425 
L 111.003403 218.207887 
L 111.068735 218.28774 
L 111.101462 218.387117 
L 111.13423 218.163429 
L 111.199888 218.246632 
L 111.53066 216.193432 
L 111.664137 217.209028 
L 111.966934 217.928653 
L 111.731128 217.113648 
L 112.034693 217.833712 
L 112.204844 216.61172 
L 112.239004 216.760997 
L 112.513862 214.546279 
L 112.548418 214.518246 
L 112.687084 212.293215 
L 112.756685 212.506221 
L 112.931473 210.939144 
L 112.966566 212.025942 
L 113.001704 210.22903 
L 113.072118 208.812009 
L 113.284456 214.468236 
L 113.320007 213.594258 
L 113.391247 214.432932 
L 113.462674 214.654118 
L 113.534286 213.821438 
L 113.570163 213.795563 
L 113.642057 215.023667 
L 113.678074 215.003841 
L 113.822617 217.252453 
L 113.931522 217.931991 
L 114.040859 217.852861 
L 114.371476 218.598437 
L 114.445482 218.460331 
L 114.556861 218.254994 
L 115.158468 215.804861 
L 115.196498 215.853595 
L 115.349132 216.680602 
L 115.387419 216.535498 
L 115.425758 216.635726 
L 115.502592 216.56568 
L 115.541086 216.92067 
L 115.656883 217.742891 
L 115.695587 217.497 
L 115.850929 218.086117 
L 115.889896 218.032815 
L 116.085533 217.599696 
L 116.12482 217.672696 
L 116.243007 217.756696 
L 116.401346 216.575614 
L 116.441067 217.047437 
L 116.560557 217.407158 
L 116.640492 216.725644 
L 116.720648 216.92669 
L 116.760809 217.294229 
L 116.841298 217.070211 
L 116.92201 216.628451 
L 117.043499 216.811343 
L 117.165494 217.629103 
L 117.206273 217.609072 
L 117.328949 217.603194 
L 117.658613 218.682568 
L 117.9083 218.512912 
L 117.950119 218.654728 
L 117.991998 218.593513 
L 118.160107 218.31032 
L 118.202283 218.342881 
L 118.244518 218.243789 
L 118.499195 217.499292 
L 118.541853 217.594173 
L 118.584571 217.603051 
L 118.842167 216.802279 
L 118.885315 216.819467 
L 118.928524 216.959638 
L 119.01513 216.893336 
L 119.101985 217.065062 
L 119.189089 216.71989 
L 119.232736 216.910147 
L 119.276445 217.03636 
L 119.320218 216.999189 
L 119.451915 216.418314 
L 119.495941 216.470758 
L 119.540031 216.8767 
L 119.717031 215.893528 
L 119.761441 215.985278 
L 120.164062 213.330306 
L 120.435434 209.681289 
L 120.709209 205.400716 
L 121.031693 193.943518 
L 121.217478 184.302102 
L 121.45127 170.092472 
L 121.924132 135.635703 
L 121.971809 137.806523 
L 122.115275 127.961773 
L 122.163241 130.34176 
L 122.21128 117.820332 
L 122.259391 123.601164 
L 122.307575 123.621148 
L 122.598219 157.387874 
L 122.646918 154.303102 
L 122.695691 161.097145 
L 122.744538 157.754902 
L 122.79346 158.464878 
L 123.138013 182.768745 
L 123.787811 204.54689 
L 123.990389 208.063734 
L 124.041231 208.014728 
L 124.194231 210.298233 
L 124.24539 210.169742 
L 124.709439 214.665225 
L 124.761405 214.308383 
L 124.813453 214.450233 
L 124.97009 215.828434 
L 125.022467 216.119749 
L 125.074927 216.018104 
L 125.12747 215.868773 
L 125.232805 216.289317 
L 125.285598 216.040547 
L 125.44448 216.822495 
L 125.497609 216.87493 
L 125.550822 217.284648 
L 125.60412 217.071289 
L 125.657503 217.044497 
L 125.818164 217.235775 
L 125.871889 216.90284 
L 125.9257 217.006602 
L 126.141807 217.224161 
L 126.196051 216.991746 
L 126.250382 217.046497 
L 126.523352 217.317768 
L 126.57821 217.150942 
L 126.743319 217.632967 
L 126.798534 217.416875 
L 126.853838 217.624823 
L 127.075955 218.296542 
L 127.13171 218.317363 
L 127.187556 218.147391 
L 127.243493 218.297374 
L 127.468158 218.320623 
L 127.524554 218.232482 
L 127.694298 217.635827 
L 127.751065 218.248911 
L 127.807926 217.763849 
L 127.86488 217.862585 
L 127.921928 217.767585 
L 127.97907 217.608433 
L 128.151063 218.214681 
L 128.2662 218.338727 
L 128.323911 218.291657 
L 128.381718 218.213455 
L 128.613908 217.460755 
L 128.672198 217.548346 
L 129.023981 215.73913 
L 129.260473 213.608182 
L 129.438886 215.582493 
L 129.498558 215.107489 
L 129.678178 216.217355 
L 129.919091 216.75626 
L 130.040161 216.727999 
L 130.161643 217.597128 
L 130.222539 217.525338 
L 130.713465 215.027964 
L 130.775304 215.356995 
L 130.899302 215.187097 
L 131.086099 213.354104 
L 131.148579 213.84099 
L 131.273864 213.627038 
L 131.399582 214.139544 
L 131.525735 215.059146 
L 131.588976 214.900538 
L 131.843041 216.17803 
L 132.550928 218.538385 
L 132.811746 218.325183 
L 132.877238 218.533993 
L 132.942846 218.47572 
L 133.074411 218.513499 
L 133.206441 218.093275 
L 133.272633 218.143611 
L 133.471913 217.177792 
L 133.80642 216.007906 
L 134.076186 214.151948 
L 134.211797 212.35533 
L 134.279785 212.684888 
L 134.552964 210.29461 
L 134.621567 211.38335 
L 134.690294 210.431291 
L 134.759146 211.475317 
L 134.828122 211.281296 
L 134.897224 208.98301 
L 134.966451 210.052617 
L 135.035803 210.333129 
L 135.174887 212.427181 
L 135.244619 212.550778 
L 135.384465 214.749868 
L 135.454579 214.204777 
L 135.524822 213.501392 
L 135.595193 213.80728 
L 136.020138 216.47167 
L 136.162831 216.961831 
L 136.234374 216.946944 
L 136.377859 217.30855 
L 136.594082 217.76175 
L 136.738901 217.937386 
L 136.811512 217.779121 
L 136.884258 218.095495 
L 136.95714 217.962113 
L 137.030157 218.204023 
L 137.176601 217.764772 
L 137.842424 213.914297 
L 138.141981 211.978577 
L 138.36814 214.485864 
L 138.443812 214.748108 
L 138.519628 214.704783 
L 138.595588 214.322887 
L 138.824338 216.095199 
L 138.977565 217.004143 
L 139.054399 216.768279 
L 139.13138 216.810869 
L 139.363208 217.253732 
L 139.440781 217.198184 
L 139.518503 216.998146 
L 139.596375 217.115586 
L 139.752569 216.831529 
L 139.830893 217.137259 
L 139.987993 216.964619 
L 140.066772 217.510258 
L 140.145703 217.476805 
L 140.224788 217.568912 
L 140.383417 217.420267 
L 140.462964 217.518508 
L 140.782703 216.571141 
L 140.863028 216.470954 
L 141.024151 215.596496 
L 141.104949 215.669585 
L 141.185906 215.438785 
L 141.511329 213.289811 
L 141.675004 213.395632 
L 142.252991 207.486232 
L 142.586896 201.869702 
L 142.670788 198.209033 
L 142.754849 198.305669 
L 143.09278 193.567675 
L 143.177687 192.688386 
L 143.348015 188.993767 
L 143.604796 194.455668 
L 143.690736 194.069757 
L 143.77685 194.636594 
L 143.863139 194.444756 
L 144.036241 196.67377 
L 144.384564 202.34628 
L 144.472088 202.034835 
L 144.647675 205.765652 
L 144.912406 208.336461 
L 145.17877 212.619741 
L 145.267924 212.65025 
L 145.626384 215.517978 
L 145.716462 215.56201 
L 145.89718 216.292048 
L 146.169668 216.942803 
L 146.260875 216.90166 
L 146.352273 216.988306 
L 146.443861 216.760675 
L 146.904687 217.71059 
L 146.997433 217.830551 
L 147.370374 216.86176 
L 147.558026 217.445155 
L 147.746474 217.606856 
L 147.935723 217.108775 
L 148.125776 217.457565 
L 148.797379 214.217439 
L 149.088304 211.870785 
L 149.185696 211.04994 
L 149.283298 211.486839 
L 149.381111 210.255106 
L 149.577371 211.290251 
L 149.67582 211.082943 
L 149.774482 211.579484 
L 149.972448 214.084915 
L 150.271016 216.124779 
L 150.370972 215.974396 
L 150.471147 216.021582 
L 150.672154 216.829834 
L 150.772988 216.659082 
L 150.975319 217.309199 
L 151.178541 217.292521 
L 151.280488 216.901051 
L 151.485056 217.377846 
L 151.587679 217.358671 
L 151.793607 216.918474 
L 152.626523 212.431628 
L 152.942718 208.714386 
L 153.154699 205.256451 
L 153.367635 203.655214 
L 153.474463 203.406504 
L 153.688843 200.635351 
L 153.796396 202.357551 
L 153.904194 198.216586 
L 154.55614 207.221665 
L 154.665666 206.760952 
L 154.775442 207.002594 
L 155.439405 213.827708 
L 155.662768 214.588996 
L 155.774836 214.641543 
L 155.999751 216.050896 
L 156.112599 216.14147 
L 156.22571 216.48686 
L 156.339082 216.255015 
L 156.452719 216.476814 
L 156.56662 216.398394 
L 156.680787 216.535007 
L 156.90992 216.487154 
L 157.024889 216.915328 
L 157.140126 216.785054 
L 157.255635 217.043965 
L 157.487465 216.614508 
L 157.603789 216.980757 
L 157.720388 216.805029 
L 157.837261 216.963441 
L 158.071836 216.87485 
L 158.18954 217.186028 
L 158.307523 217.011956 
L 158.425786 217.19247 
L 158.54433 216.825707 
L 158.663156 217.150526 
L 158.901657 216.693116 
L 159.382086 214.49363 
L 159.502913 214.255504 
L 159.624031 214.514554 
L 159.745439 214.16702 
L 159.86714 214.257191 
L 159.989134 213.520995 
L 160.111422 211.503761 
L 160.234006 212.091877 
L 160.480064 211.828885 
L 160.727316 212.617196 
L 160.851392 212.385737 
L 161.100452 214.209544 
L 161.225438 214.173661 
L 161.476326 214.933822 
L 161.60223 215.092105 
L 161.854966 216.935298 
L 162.108945 217.33747 
L 162.620671 217.373818 
L 162.749394 217.155769 
L 162.878436 217.159882 
L 163.007798 217.303426 
L 163.528472 213.9112 
L 163.659453 214.645406 
L 163.922399 212.700181 
L 164.186664 210.13399 
L 164.452259 207.096206 
L 164.585558 207.582484 
L 164.719194 210.142348 
L 164.987478 210.903435 
L 165.528137 214.412361 
L 165.664161 214.49887 
L 165.937251 216.430866 
L 166.074319 216.593368 
L 166.211737 216.387164 
L 166.349508 216.713944 
L 166.487632 216.626913 
L 166.62611 216.251325 
L 167.043686 213.318666 
L 167.183597 213.827261 
L 167.605502 211.754554 
L 167.888599 214.651246 
L 168.316013 216.808085 
L 168.459228 216.181435 
L 168.602817 216.569543 
L 168.746782 216.117744 
L 168.891125 216.400451 
L 169.035846 216.39619 
L 169.180948 216.54444 
L 169.326432 216.335372 
L 169.472299 216.830433 
L 169.61855 216.531435 
L 169.765188 216.953076 
L 169.912214 216.57512 
L 170.05963 216.641771 
L 170.207436 216.26365 
L 170.504228 216.670934 
L 170.653217 216.575201 
L 170.802603 216.885625 
L 170.952388 216.697025 
L 171.253161 217.013082 
L 171.404152 217.006948 
L 171.555549 216.7068 
L 171.707352 216.84084 
L 171.859564 216.582802 
L 172.012187 216.696499 
L 172.165221 216.544264 
L 172.318669 216.678087 
L 172.626812 216.234551 
L 172.78151 216.911392 
L 172.936629 216.5031 
L 173.09217 216.730832 
L 173.248135 216.432077 
L 173.404525 216.544699 
L 173.561343 216.411109 
L 173.876267 216.727543 
L 174.192921 216.592642 
L 174.351902 216.879368 
L 174.831478 216.1666 
L 174.992221 216.620123 
L 175.477128 215.892486 
L 175.639664 215.300105 
L 175.966094 216.032916 
L 176.29435 215.945594 
L 176.459168 216.230088 
L 176.624448 215.838001 
L 176.790192 216.12023 
L 176.956403 215.974491 
L 177.123081 215.639522 
L 177.457851 215.56936 
L 177.794517 214.255574 
L 177.963566 214.486826 
L 178.133096 213.000013 
L 178.473604 212.706659 
L 178.644586 212.063917 
L 178.816057 212.542375 
L 179.160473 211.310639 
L 179.333422 211.363284 
L 179.680813 210.549913 
L 179.85526 209.540266 
L 180.03021 209.480383 
L 180.205665 208.819254 
L 180.381628 207.425586 
L 180.735087 206.432782 
L 180.912586 207.12523 
L 181.448195 203.456301 
L 181.807882 198.668362 
L 181.988516 197.016147 
L 182.351378 190.48279 
L 182.53361 188.824487 
L 183.452884 159.109431 
L 184.011023 131.779177 
L 184.763019 76.199255 
L 185.142409 47.795512 
L 185.33296 50.063866 
L 185.524087 44.214008 
L 185.908075 17.28 
L 186.488434 82.480461 
L 186.683065 75.413611 
L 187.665172 131.636248 
L 187.863404 136.797505 
L 188.461769 164.344538 
L 189.065701 181.41574 
L 189.471452 189.324422 
L 189.879735 196.410422 
L 190.084834 197.566238 
L 190.290574 201.055441 
L 190.703993 203.466476 
L 190.911677 203.786132 
L 191.120015 207.066845 
L 191.32901 207.535052 
L 191.538666 207.619441 
L 191.748985 209.443859 
L 191.959971 209.565889 
L 192.596959 212.865936 
L 192.810643 212.830898 
L 193.025009 212.401095 
L 193.240061 212.762952 
L 193.455803 212.319637 
L 193.672237 213.532479 
L 193.889367 213.092933 
L 194.107196 213.133915 
L 194.325728 212.993068 
L 194.544966 213.872587 
L 194.764913 213.974172 
L 194.985573 214.465787 
L 195.20695 214.594953 
L 195.651866 215.722062 
L 195.875413 215.664724 
L 196.09969 215.862541 
L 197.004175 215.162979 
L 197.232159 214.776998 
L 197.460895 214.963373 
L 197.690387 214.534011 
L 197.92064 214.632871 
L 198.151655 215.311984 
L 198.383438 215.282869 
L 198.849322 215.45397 
L 199.083431 215.897756 
L 199.318322 216.042901 
L 199.790469 215.78888 
L 200.027733 215.176194 
L 200.265796 215.377105 
L 200.504661 214.892729 
L 200.744334 215.233303 
L 201.226115 215.614827 
L 201.468233 215.808578 
L 201.954943 215.210166 
L 202.199544 215.124128 
L 202.444981 215.369876 
L 202.93838 214.96232 
L 203.186351 214.921253 
L 203.935404 215.292047 
L 204.439099 215.212938 
L 204.692258 214.932704 
L 204.946298 215.169325 
L 205.201223 214.709834 
L 205.713746 214.412295 
L 205.971354 214.223456 
L 206.229866 214.202119 
L 206.489286 214.00278 
L 206.74962 214.255954 
L 207.010871 214.134468 
L 207.273046 214.19227 
L 207.536149 214.767495 
L 207.800185 214.581388 
L 208.331075 213.811418 
L 208.865757 213.898775 
L 209.134532 214.107729 
L 209.404271 214.737122 
L 209.674978 214.709245 
L 209.946659 214.929241 
L 210.492963 211.339193 
L 210.767597 212.721811 
L 211.043225 212.373985 
L 211.597489 214.718845 
L 211.876135 214.546536 
L 212.155798 214.063265 
L 212.436483 214.230985 
L 212.718196 214.852226 
L 213.28473 214.041179 
L 213.569562 214.763726 
L 213.855444 215.175789 
L 214.142384 214.970898 
L 214.719456 215.013919 
L 215.009601 214.498017 
L 215.300827 214.774857 
L 215.593139 212.86265 
L 215.886543 211.859277 
L 216.476655 208.368574 
L 216.773375 205.442788 
L 217.370173 196.925599 
L 217.670264 196.394693 
L 218.577383 204.964323 
L 219.494907 210.930168 
L 219.803092 211.821511 
L 220.11246 212.199365 
L 220.423017 211.728321 
L 220.734771 211.944681 
L 221.047729 213.029642 
L 221.361897 212.158764 
L 221.677283 213.74775 
L 221.993893 213.210861 
L 222.311736 213.947897 
L 222.630817 213.012882 
L 222.951144 213.102569 
L 223.272726 212.761731 
L 223.595568 213.425755 
L 223.919678 213.444874 
L 224.245065 213.340147 
L 224.571734 213.820243 
L 224.899695 213.956439 
L 225.228955 213.454736 
L 225.559521 213.321577 
L 225.891401 211.550207 
L 226.224603 210.958484 
L 227.232222 204.857125 
L 227.570793 201.693869 
L 227.910726 200.53432 
L 228.252029 198.401884 
L 228.938781 200.560885 
L 229.284246 202.620062 
L 229.631115 207.466097 
L 230.680234 212.233722 
L 231.032806 212.392759 
L 231.742303 213.372876 
L 232.099246 213.179085 
L 232.457663 213.47181 
L 232.817565 213.343682 
L 233.178959 213.411954 
L 233.906265 213.087622 
L 234.272196 213.570803 
L 235.379211 214.583007 
L 235.751323 214.435036 
L 236.125005 213.809853 
L 236.500267 213.701269 
L 237.635632 212.094387 
L 238.017315 212.743819 
L 238.785583 212.751828 
L 239.17219 213.279814 
L 239.56046 212.992488 
L 239.950402 213.154912 
L 240.735352 214.157298 
L 241.13038 213.777155 
L 241.527126 213.722611 
L 241.9256 214.006832 
L 242.72778 213.291431 
L 243.131508 213.163917 
L 243.53701 213.263779 
L 243.944299 212.927858 
L 244.353386 213.468902 
L 244.764282 213.384785 
L 246.42621 205.422985 
L 246.846339 201.831499 
L 247.268352 197.015777 
L 247.692261 190.270933 
L 248.545819 181.619321 
L 248.975495 181.402274 
L 249.407119 177.469088 
L 249.840705 184.312126 
L 250.276266 187.876256 
L 250.713815 192.524315 
L 251.153367 194.648459 
L 251.594935 199.799135 
L 252.038532 200.790606 
L 252.484174 204.126376 
L 252.931874 205.934758 
L 253.381646 208.66498 
L 253.833505 209.022783 
L 254.287465 210.413861 
L 254.743542 211.050639 
L 255.201749 210.241143 
L 255.662103 210.980893 
L 256.124617 210.214507 
L 256.589308 210.667066 
L 257.05619 211.607218 
L 257.52528 211.440653 
L 257.996592 212.15033 
L 258.470143 212.152775 
L 258.945949 212.819037 
L 259.424025 212.988542 
L 259.904389 213.431745 
L 260.387056 212.739271 
L 260.872044 212.811672 
L 261.359369 213.025294 
L 261.849047 212.063801 
L 262.341097 212.948076 
L 262.835534 212.175262 
L 263.332378 212.556355 
L 263.831644 212.573759 
L 264.333352 212.155137 
L 264.837519 212.96132 
L 265.344163 212.243544 
L 265.853302 212.709294 
L 266.364956 212.64652 
L 266.879142 211.863264 
L 267.395879 211.575398 
L 267.915187 210.427322 
L 268.961591 205.351454 
L 269.488726 200.241987 
L 270.550963 192.176657 
L 271.086104 196.110567 
L 271.623955 201.042306 
L 272.164535 202.28232 
L 272.707866 205.17312 
L 273.253969 209.15012 
L 273.802864 211.132501 
L 274.354575 212.330955 
L 274.909121 211.961332 
L 275.466525 212.290608 
L 276.02681 213.099216 
L 277.156109 211.607266 
L 277.72517 211.576284 
L 278.297201 210.684641 
L 278.872228 207.52396 
L 279.450272 207.608635 
L 280.031358 208.232341 
L 280.61551 208.106493 
L 281.202752 208.587437 
L 281.79311 210.134675 
L 282.386607 210.778011 
L 282.983269 210.326259 
L 283.583121 212.172306 
L 284.186189 212.252218 
L 284.792498 212.198628 
L 285.402076 211.738061 
L 286.014949 211.99697 
L 286.631142 212.742122 
L 287.250684 213.267523 
L 287.873602 213.349873 
L 288.499923 213.201426 
L 289.129676 212.793969 
L 289.762888 212.636096 
L 290.399588 212.616094 
L 291.039806 212.23458 
L 292.33091 210.292428 
L 293.636437 211.521661 
L 294.294685 211.045534 
L 295.622305 209.423371 
L 296.29174 209.99597 
L 296.964967 209.621613 
L 297.642018 208.280343 
L 298.322927 207.814535 
L 299.007726 207.674422 
L 299.696449 208.381952 
L 300.389129 208.557788 
L 301.085801 207.633168 
L 301.786499 207.082059 
L 302.491259 206.324943 
L 303.200115 206.078745 
L 303.913105 207.619778 
L 304.630263 205.025462 
L 305.351626 201.554037 
L 306.077232 199.050864 
L 306.807118 194.917871 
L 307.541323 189.815442 
L 308.279884 183.450731 
L 309.770232 166.614149 
L 311.278478 142.412875 
L 312.039415 128.383664 
L 312.804949 118.266664 
L 313.575121 128.16489 
L 314.349975 141.404351 
L 315.129552 152.502415 
L 315.913897 160.475892 
L 317.497065 178.928677 
L 318.295977 186.446574 
L 319.099834 192.418409 
L 319.908684 199.381788 
L 320.722573 203.391939 
L 321.541547 205.950064 
L 322.365656 207.977544 
L 323.194946 207.363023 
L 324.029468 208.266996 
L 324.86927 207.137264 
L 325.714404 208.682969 
L 326.56492 208.892235 
L 327.420869 209.319267 
L 329.149278 209.362605 
L 330.021845 208.022439 
L 330.900058 207.99442 
L 331.783973 209.413528 
L 332.673645 208.501653 
L 333.569131 208.479869 
L 334.470488 209.285831 
L 336.291047 207.043067 
L 337.210367 209.356094 
L 338.135795 209.426541 
L 339.067391 209.209339 
L 340.005217 209.178073 
L 340.949337 209.373465 
L 341.899813 209.393138 
L 342.85671 208.645596 
L 343.820093 209.903931 
L 344.790028 209.848247 
L 345.766583 208.069164 
L 347.739824 209.776437 
L 348.736649 208.782572 
L 349.740371 210.12033 
L 350.751062 209.212677 
L 351.768795 208.749995 
L 352.793644 208.857817 
L 353.825683 208.233516 
L 354.864988 208.515383 
L 355.911637 207.956664 
L 356.965708 208.342477 
L 358.027279 208.472463 
L 359.096432 209.241618 
L 360.173247 209.307997 
L 361.257807 210.100491 
L 362.350197 210.508692 
L 363.450501 209.873551 
L 364.558806 209.604597 
L 365.675198 208.235642 
L 366.799768 208.824571 
L 367.932605 208.243076 
L 369.073801 209.399554 
L 370.223448 208.781054 
L 371.381641 208.334709 
L 372.548476 208.004428 
L 373.724049 202.189274 
L 374.908459 194.125258 
L 376.101806 180.958148 
L 377.304192 185.855536 
L 379.736494 199.201411 
L 380.96662 206.052869 
L 382.206207 205.894673 
L 383.455364 208.282349 
L 384.714202 209.116157 
L 385.982835 209.233538 
L 387.261377 208.340117 
L 388.549944 207.833611 
L 389.848655 207.971941 
L 391.157631 207.824852 
L 392.476993 206.670246 
L 393.806865 207.629761 
L 395.147374 206.215793 
L 396.498648 203.607321 
L 397.860817 204.984719 
L 399.234013 204.315586 
L 400.618371 202.488767 
L 402.014027 204.168535 
L 403.42112 203.873837 
L 404.839791 201.527993 
L 406.270185 200.210278 
L 407.712446 199.734998 
L 409.166723 202.887231 
L 410.633167 204.601393 
L 412.111932 205.865533 
L 413.603172 208.814135 
L 415.107047 207.673285 
L 416.623718 205.680584 
L 418.153349 204.668896 
L 419.696107 203.95243 
L 421.252161 203.650816 
L 422.821685 203.717334 
L 424.404853 204.670405 
L 426.001844 204.606536 
L 427.612841 204.745819 
L 429.238028 205.683872 
L 430.877594 205.465448 
L 432.53173 200.031569 
L 434.200632 192.138005 
L 435.884497 178.467902 
L 437.583529 161.442567 
L 439.297933 141.275742 
L 441.027918 147.312351 
L 442.773699 157.702553 
L 444.535491 179.313451 
L 446.313517 186.009922 
L 448.108002 194.214726 
L 449.919176 198.698094 
L 451.747272 198.91947 
L 453.592529 199.507823 
L 455.45519 202.701494 
L 457.335501 203.539469 
L 459.233716 202.395665 
L 463.084886 202.907553 
L 465.038371 201.191479 
L 467.010816 201.858159 
L 469.0025 202.2442 
L 471.013705 202.07643 
L 473.044719 201.575842 
L 475.095837 203.309099 
L 477.167358 202.638702 
L 479.259589 201.539469 
L 481.372841 201.807132 
L 481.372841 201.807132 
" clip-path="url(#peb86daadcb)" style="fill: none; stroke: #000000; stroke-width: 1.5; stroke-linecap: square"/>
   </g>
   <g id="patch_3">
    <path d="M 55.26375 228.96 
L 55.26375 7.2 
" style="fill: none; stroke: #000000; stroke-width: 0.8; stroke-linejoin: miter; stroke-linecap: square"/>
   </g>
   <g id="patch_4">
    <path d="M 501.66375 228.96 
L 501.66375 7.2 
" style="fill: none; stroke: #000000; stroke-width: 0.8; stroke-linejoin: miter; stroke-linecap: square"/>
   </g>
   <g id="patch_5">
    <path d="M 55.26375 228.96 
L 501.66375 228.96 
" style="fill: none; stroke: #000000; stroke-width: 0.8; stroke-linejoin: miter; stroke-linecap: square"/>
   </g>
   <g id="patch_6">
    <path d="M 55.26375 7.2 
L 501.66375 7.2 
" style="fill: none; stroke: #000000; stroke-width: 0.8; stroke-linejoin: miter; stroke-linecap: square"/>
   </g>
  </g>
 </g>
 <defs>
  <clipPath id="peb86daadcb">
   <rect x="55.26375" y="7.2" width="446.4" height="221.76"/>
  </clipPath>
 </defs>
</svg>
