<?xml version="1.0" encoding="utf-8" standalone="no"?>
<!DOCTYPE svg PUBLIC "-//W3C//DTD SVG 1.1//EN"
  "http://www.w3.org/Graphics/SVG/1.1/DTD/svg11.dtd">
<svg xmlns:xlink="http://www.w3.org/1999/xlink" width="387.716875pt" height="299.971094pt" viewBox="0 0 387.716875 299.971094" xmlns="http://www.w3.org/2000/svg" version="1.1">
 <metadata>
  <rdf:RDF xmlns:dc="http://purl.org/dc/elements/1.1/" xmlns:cc="http://creativecommons.org/ns#" xmlns:rdf="http://www.w3.org/1999/02/22-rdf-syntax-ns#">
   <cc:Work>
    <dc:type rdf:resource="http://purl.org/dc/dcmitype/StillImage"/>
    <dc:date>2022-05-09T11:03:37.062404</dc:date>
    <dc:format>image/svg+xml</dc:format>
    <dc:creator>
     <cc:Agent>
      <dc:title>Matplotlib v3.5.1, https://matplotlib.org/</dc:title>
     </cc:Agent>
    </dc:creator>
   </cc:Work>
  </rdf:RDF>
 </metadata>
 <defs>
  <style type="text/css">*{stroke-linejoin: round; stroke-linecap: butt}</style>
 </defs>
 <g id="figure_1">
  <g id="patch_1">
   <path d="M 0 299.971094 
L 387.716875 299.971094 
L 387.716875 0 
L 0 0 
L 0 299.971094 
z
" style="fill: none"/>
  </g>
  <g id="axes_1">
   <g id="patch_2">
    <path d="M 45.716875 260.479219 
L 380.516875 260.479219 
L 380.516875 10.999219 
L 45.716875 10.999219 
z
" style="fill: #ffffff"/>
   </g>
   <g id="matplotlib.axis_1">
    <g id="xtick_1">
     <g id="line2d_1">
      <defs>
       <path id="mee50c1f580" d="M 0 0 
L 0 3.5 
" style="stroke: #000000; stroke-width: 0.8"/>
      </defs>
      <g>
       <use xlink:href="#mee50c1f580" x="86.311333" y="260.479219" style="stroke: #000000; stroke-width: 0.8"/>
      </g>
     </g>
     <g id="text_1">
      <!-- 0.25 -->
      <g transform="translate(75.178521 275.077656)scale(0.1 -0.1)">
       <defs>
        <path id="DejaVuSans-30" d="M 2034 4250 
Q 1547 4250 1301 3770 
Q 1056 3291 1056 2328 
Q 1056 1369 1301 889 
Q 1547 409 2034 409 
Q 2525 409 2770 889 
Q 3016 1369 3016 2328 
Q 3016 3291 2770 3770 
Q 2525 4250 2034 4250 
z
M 2034 4750 
Q 2819 4750 3233 4129 
Q 3647 3509 3647 2328 
Q 3647 1150 3233 529 
Q 2819 -91 2034 -91 
Q 1250 -91 836 529 
Q 422 1150 422 2328 
Q 422 3509 836 4129 
Q 1250 4750 2034 4750 
z
" transform="scale(0.015625)"/>
        <path id="DejaVuSans-2e" d="M 684 794 
L 1344 794 
L 1344 0 
L 684 0 
L 684 794 
z
" transform="scale(0.015625)"/>
        <path id="DejaVuSans-32" d="M 1228 531 
L 3431 531 
L 3431 0 
L 469 0 
L 469 531 
Q 828 903 1448 1529 
Q 2069 2156 2228 2338 
Q 2531 2678 2651 2914 
Q 2772 3150 2772 3378 
Q 2772 3750 2511 3984 
Q 2250 4219 1831 4219 
Q 1534 4219 1204 4116 
Q 875 4013 500 3803 
L 500 4441 
Q 881 4594 1212 4672 
Q 1544 4750 1819 4750 
Q 2544 4750 2975 4387 
Q 3406 4025 3406 3419 
Q 3406 3131 3298 2873 
Q 3191 2616 2906 2266 
Q 2828 2175 2409 1742 
Q 1991 1309 1228 531 
z
" transform="scale(0.015625)"/>
        <path id="DejaVuSans-35" d="M 691 4666 
L 3169 4666 
L 3169 4134 
L 1269 4134 
L 1269 2991 
Q 1406 3038 1543 3061 
Q 1681 3084 1819 3084 
Q 2600 3084 3056 2656 
Q 3513 2228 3513 1497 
Q 3513 744 3044 326 
Q 2575 -91 1722 -91 
Q 1428 -91 1123 -41 
Q 819 9 494 109 
L 494 744 
Q 775 591 1075 516 
Q 1375 441 1709 441 
Q 2250 441 2565 725 
Q 2881 1009 2881 1497 
Q 2881 1984 2565 2268 
Q 2250 2553 1709 2553 
Q 1456 2553 1204 2497 
Q 953 2441 691 2322 
L 691 4666 
z
" transform="scale(0.015625)"/>
       </defs>
       <use xlink:href="#DejaVuSans-30"/>
       <use xlink:href="#DejaVuSans-2e" x="63.623047"/>
       <use xlink:href="#DejaVuSans-32" x="95.410156"/>
       <use xlink:href="#DejaVuSans-35" x="159.033203"/>
      </g>
     </g>
    </g>
    <g id="xtick_2">
     <g id="line2d_2">
      <g>
       <use xlink:href="#mee50c1f580" x="128.605128" y="260.479219" style="stroke: #000000; stroke-width: 0.8"/>
      </g>
     </g>
     <g id="text_2">
      <!-- 0.50 -->
      <g transform="translate(117.472315 275.077656)scale(0.1 -0.1)">
       <use xlink:href="#DejaVuSans-30"/>
       <use xlink:href="#DejaVuSans-2e" x="63.623047"/>
       <use xlink:href="#DejaVuSans-35" x="95.410156"/>
       <use xlink:href="#DejaVuSans-30" x="159.033203"/>
      </g>
     </g>
    </g>
    <g id="xtick_3">
     <g id="line2d_3">
      <g>
       <use xlink:href="#mee50c1f580" x="170.898922" y="260.479219" style="stroke: #000000; stroke-width: 0.8"/>
      </g>
     </g>
     <g id="text_3">
      <!-- 0.75 -->
      <g transform="translate(159.76611 275.077656)scale(0.1 -0.1)">
       <defs>
        <path id="DejaVuSans-37" d="M 525 4666 
L 3525 4666 
L 3525 4397 
L 1831 0 
L 1172 0 
L 2766 4134 
L 525 4134 
L 525 4666 
z
" transform="scale(0.015625)"/>
       </defs>
       <use xlink:href="#DejaVuSans-30"/>
       <use xlink:href="#DejaVuSans-2e" x="63.623047"/>
       <use xlink:href="#DejaVuSans-37" x="95.410156"/>
       <use xlink:href="#DejaVuSans-35" x="159.033203"/>
      </g>
     </g>
    </g>
    <g id="xtick_4">
     <g id="line2d_4">
      <g>
       <use xlink:href="#mee50c1f580" x="213.192717" y="260.479219" style="stroke: #000000; stroke-width: 0.8"/>
      </g>
     </g>
     <g id="text_4">
      <!-- 1.00 -->
      <g transform="translate(202.059904 275.077656)scale(0.1 -0.1)">
       <defs>
        <path id="DejaVuSans-31" d="M 794 531 
L 1825 531 
L 1825 4091 
L 703 3866 
L 703 4441 
L 1819 4666 
L 2450 4666 
L 2450 531 
L 3481 531 
L 3481 0 
L 794 0 
L 794 531 
z
" transform="scale(0.015625)"/>
       </defs>
       <use xlink:href="#DejaVuSans-31"/>
       <use xlink:href="#DejaVuSans-2e" x="63.623047"/>
       <use xlink:href="#DejaVuSans-30" x="95.410156"/>
       <use xlink:href="#DejaVuSans-30" x="159.033203"/>
      </g>
     </g>
    </g>
    <g id="xtick_5">
     <g id="line2d_5">
      <g>
       <use xlink:href="#mee50c1f580" x="255.486511" y="260.479219" style="stroke: #000000; stroke-width: 0.8"/>
      </g>
     </g>
     <g id="text_5">
      <!-- 1.25 -->
      <g transform="translate(244.353699 275.077656)scale(0.1 -0.1)">
       <use xlink:href="#DejaVuSans-31"/>
       <use xlink:href="#DejaVuSans-2e" x="63.623047"/>
       <use xlink:href="#DejaVuSans-32" x="95.410156"/>
       <use xlink:href="#DejaVuSans-35" x="159.033203"/>
      </g>
     </g>
    </g>
    <g id="xtick_6">
     <g id="line2d_6">
      <g>
       <use xlink:href="#mee50c1f580" x="297.780306" y="260.479219" style="stroke: #000000; stroke-width: 0.8"/>
      </g>
     </g>
     <g id="text_6">
      <!-- 1.50 -->
      <g transform="translate(286.647493 275.077656)scale(0.1 -0.1)">
       <use xlink:href="#DejaVuSans-31"/>
       <use xlink:href="#DejaVuSans-2e" x="63.623047"/>
       <use xlink:href="#DejaVuSans-35" x="95.410156"/>
       <use xlink:href="#DejaVuSans-30" x="159.033203"/>
      </g>
     </g>
    </g>
    <g id="xtick_7">
     <g id="line2d_7">
      <g>
       <use xlink:href="#mee50c1f580" x="340.0741" y="260.479219" style="stroke: #000000; stroke-width: 0.8"/>
      </g>
     </g>
     <g id="text_7">
      <!-- 1.75 -->
      <g transform="translate(328.941287 275.077656)scale(0.1 -0.1)">
       <use xlink:href="#DejaVuSans-31"/>
       <use xlink:href="#DejaVuSans-2e" x="63.623047"/>
       <use xlink:href="#DejaVuSans-37" x="95.410156"/>
       <use xlink:href="#DejaVuSans-35" x="159.033203"/>
      </g>
     </g>
    </g>
    <g id="text_8">
     <!-- frequency -->
     <g transform="translate(183.025 290.275469)scale(0.12 -0.12)">
      <defs>
       <path id="DejaVuSans-66" d="M 2375 4863 
L 2375 4384 
L 1825 4384 
Q 1516 4384 1395 4259 
Q 1275 4134 1275 3809 
L 1275 3500 
L 2222 3500 
L 2222 3053 
L 1275 3053 
L 1275 0 
L 697 0 
L 697 3053 
L 147 3053 
L 147 3500 
L 697 3500 
L 697 3744 
Q 697 4328 969 4595 
Q 1241 4863 1831 4863 
L 2375 4863 
z
" transform="scale(0.015625)"/>
       <path id="DejaVuSans-72" d="M 2631 2963 
Q 2534 3019 2420 3045 
Q 2306 3072 2169 3072 
Q 1681 3072 1420 2755 
Q 1159 2438 1159 1844 
L 1159 0 
L 581 0 
L 581 3500 
L 1159 3500 
L 1159 2956 
Q 1341 3275 1631 3429 
Q 1922 3584 2338 3584 
Q 2397 3584 2469 3576 
Q 2541 3569 2628 3553 
L 2631 2963 
z
" transform="scale(0.015625)"/>
       <path id="DejaVuSans-65" d="M 3597 1894 
L 3597 1613 
L 953 1613 
Q 991 1019 1311 708 
Q 1631 397 2203 397 
Q 2534 397 2845 478 
Q 3156 559 3463 722 
L 3463 178 
Q 3153 47 2828 -22 
Q 2503 -91 2169 -91 
Q 1331 -91 842 396 
Q 353 884 353 1716 
Q 353 2575 817 3079 
Q 1281 3584 2069 3584 
Q 2775 3584 3186 3129 
Q 3597 2675 3597 1894 
z
M 3022 2063 
Q 3016 2534 2758 2815 
Q 2500 3097 2075 3097 
Q 1594 3097 1305 2825 
Q 1016 2553 972 2059 
L 3022 2063 
z
" transform="scale(0.015625)"/>
       <path id="DejaVuSans-71" d="M 947 1747 
Q 947 1113 1208 752 
Q 1469 391 1925 391 
Q 2381 391 2643 752 
Q 2906 1113 2906 1747 
Q 2906 2381 2643 2742 
Q 2381 3103 1925 3103 
Q 1469 3103 1208 2742 
Q 947 2381 947 1747 
z
M 2906 525 
Q 2725 213 2448 61 
Q 2172 -91 1784 -91 
Q 1150 -91 751 415 
Q 353 922 353 1747 
Q 353 2572 751 3078 
Q 1150 3584 1784 3584 
Q 2172 3584 2448 3432 
Q 2725 3281 2906 2969 
L 2906 3500 
L 3481 3500 
L 3481 -1331 
L 2906 -1331 
L 2906 525 
z
" transform="scale(0.015625)"/>
       <path id="DejaVuSans-75" d="M 544 1381 
L 544 3500 
L 1119 3500 
L 1119 1403 
Q 1119 906 1312 657 
Q 1506 409 1894 409 
Q 2359 409 2629 706 
Q 2900 1003 2900 1516 
L 2900 3500 
L 3475 3500 
L 3475 0 
L 2900 0 
L 2900 538 
Q 2691 219 2414 64 
Q 2138 -91 1772 -91 
Q 1169 -91 856 284 
Q 544 659 544 1381 
z
M 1991 3584 
L 1991 3584 
z
" transform="scale(0.015625)"/>
       <path id="DejaVuSans-6e" d="M 3513 2113 
L 3513 0 
L 2938 0 
L 2938 2094 
Q 2938 2591 2744 2837 
Q 2550 3084 2163 3084 
Q 1697 3084 1428 2787 
Q 1159 2491 1159 1978 
L 1159 0 
L 581 0 
L 581 3500 
L 1159 3500 
L 1159 2956 
Q 1366 3272 1645 3428 
Q 1925 3584 2291 3584 
Q 2894 3584 3203 3211 
Q 3513 2838 3513 2113 
z
" transform="scale(0.015625)"/>
       <path id="DejaVuSans-63" d="M 3122 3366 
L 3122 2828 
Q 2878 2963 2633 3030 
Q 2388 3097 2138 3097 
Q 1578 3097 1268 2742 
Q 959 2388 959 1747 
Q 959 1106 1268 751 
Q 1578 397 2138 397 
Q 2388 397 2633 464 
Q 2878 531 3122 666 
L 3122 134 
Q 2881 22 2623 -34 
Q 2366 -91 2075 -91 
Q 1284 -91 818 406 
Q 353 903 353 1747 
Q 353 2603 823 3093 
Q 1294 3584 2113 3584 
Q 2378 3584 2631 3529 
Q 2884 3475 3122 3366 
z
" transform="scale(0.015625)"/>
       <path id="DejaVuSans-79" d="M 2059 -325 
Q 1816 -950 1584 -1140 
Q 1353 -1331 966 -1331 
L 506 -1331 
L 506 -850 
L 844 -850 
Q 1081 -850 1212 -737 
Q 1344 -625 1503 -206 
L 1606 56 
L 191 3500 
L 800 3500 
L 1894 763 
L 2988 3500 
L 3597 3500 
L 2059 -325 
z
" transform="scale(0.015625)"/>
      </defs>
      <use xlink:href="#DejaVuSans-66"/>
      <use xlink:href="#DejaVuSans-72" x="35.205078"/>
      <use xlink:href="#DejaVuSans-65" x="74.068359"/>
      <use xlink:href="#DejaVuSans-71" x="135.591797"/>
      <use xlink:href="#DejaVuSans-75" x="199.068359"/>
      <use xlink:href="#DejaVuSans-65" x="262.447266"/>
      <use xlink:href="#DejaVuSans-6e" x="323.970703"/>
      <use xlink:href="#DejaVuSans-63" x="387.349609"/>
      <use xlink:href="#DejaVuSans-79" x="442.330078"/>
     </g>
    </g>
   </g>
   <g id="matplotlib.axis_2">
    <g id="ytick_1">
     <g id="line2d_8">
      <defs>
       <path id="m15ec17d3b8" d="M 0 0 
L -3.5 0 
" style="stroke: #000000; stroke-width: 0.8"/>
      </defs>
      <g>
       <use xlink:href="#m15ec17d3b8" x="45.716875" y="260.479219" style="stroke: #000000; stroke-width: 0.8"/>
      </g>
     </g>
     <g id="text_9">
      <!-- 0.0 -->
      <g transform="translate(22.81375 264.278437)scale(0.1 -0.1)">
       <use xlink:href="#DejaVuSans-30"/>
       <use xlink:href="#DejaVuSans-2e" x="63.623047"/>
       <use xlink:href="#DejaVuSans-30" x="95.410156"/>
      </g>
     </g>
    </g>
    <g id="ytick_2">
     <g id="line2d_9">
      <g>
       <use xlink:href="#m15ec17d3b8" x="45.716875" y="210.583219" style="stroke: #000000; stroke-width: 0.8"/>
      </g>
     </g>
     <g id="text_10">
      <!-- 0.2 -->
      <g transform="translate(22.81375 214.382438)scale(0.1 -0.1)">
       <use xlink:href="#DejaVuSans-30"/>
       <use xlink:href="#DejaVuSans-2e" x="63.623047"/>
       <use xlink:href="#DejaVuSans-32" x="95.410156"/>
      </g>
     </g>
    </g>
    <g id="ytick_3">
     <g id="line2d_10">
      <g>
       <use xlink:href="#m15ec17d3b8" x="45.716875" y="160.687219" style="stroke: #000000; stroke-width: 0.8"/>
      </g>
     </g>
     <g id="text_11">
      <!-- 0.4 -->
      <g transform="translate(22.81375 164.486437)scale(0.1 -0.1)">
       <defs>
        <path id="DejaVuSans-34" d="M 2419 4116 
L 825 1625 
L 2419 1625 
L 2419 4116 
z
M 2253 4666 
L 3047 4666 
L 3047 1625 
L 3713 1625 
L 3713 1100 
L 3047 1100 
L 3047 0 
L 2419 0 
L 2419 1100 
L 313 1100 
L 313 1709 
L 2253 4666 
z
" transform="scale(0.015625)"/>
       </defs>
       <use xlink:href="#DejaVuSans-30"/>
       <use xlink:href="#DejaVuSans-2e" x="63.623047"/>
       <use xlink:href="#DejaVuSans-34" x="95.410156"/>
      </g>
     </g>
    </g>
    <g id="ytick_4">
     <g id="line2d_11">
      <g>
       <use xlink:href="#m15ec17d3b8" x="45.716875" y="110.791219" style="stroke: #000000; stroke-width: 0.8"/>
      </g>
     </g>
     <g id="text_12">
      <!-- 0.6 -->
      <g transform="translate(22.81375 114.590437)scale(0.1 -0.1)">
       <defs>
        <path id="DejaVuSans-36" d="M 2113 2584 
Q 1688 2584 1439 2293 
Q 1191 2003 1191 1497 
Q 1191 994 1439 701 
Q 1688 409 2113 409 
Q 2538 409 2786 701 
Q 3034 994 3034 1497 
Q 3034 2003 2786 2293 
Q 2538 2584 2113 2584 
z
M 3366 4563 
L 3366 3988 
Q 3128 4100 2886 4159 
Q 2644 4219 2406 4219 
Q 1781 4219 1451 3797 
Q 1122 3375 1075 2522 
Q 1259 2794 1537 2939 
Q 1816 3084 2150 3084 
Q 2853 3084 3261 2657 
Q 3669 2231 3669 1497 
Q 3669 778 3244 343 
Q 2819 -91 2113 -91 
Q 1303 -91 875 529 
Q 447 1150 447 2328 
Q 447 3434 972 4092 
Q 1497 4750 2381 4750 
Q 2619 4750 2861 4703 
Q 3103 4656 3366 4563 
z
" transform="scale(0.015625)"/>
       </defs>
       <use xlink:href="#DejaVuSans-30"/>
       <use xlink:href="#DejaVuSans-2e" x="63.623047"/>
       <use xlink:href="#DejaVuSans-36" x="95.410156"/>
      </g>
     </g>
    </g>
    <g id="ytick_5">
     <g id="line2d_12">
      <g>
       <use xlink:href="#m15ec17d3b8" x="45.716875" y="60.895219" style="stroke: #000000; stroke-width: 0.8"/>
      </g>
     </g>
     <g id="text_13">
      <!-- 0.8 -->
      <g transform="translate(22.81375 64.694437)scale(0.1 -0.1)">
       <defs>
        <path id="DejaVuSans-38" d="M 2034 2216 
Q 1584 2216 1326 1975 
Q 1069 1734 1069 1313 
Q 1069 891 1326 650 
Q 1584 409 2034 409 
Q 2484 409 2743 651 
Q 3003 894 3003 1313 
Q 3003 1734 2745 1975 
Q 2488 2216 2034 2216 
z
M 1403 2484 
Q 997 2584 770 2862 
Q 544 3141 544 3541 
Q 544 4100 942 4425 
Q 1341 4750 2034 4750 
Q 2731 4750 3128 4425 
Q 3525 4100 3525 3541 
Q 3525 3141 3298 2862 
Q 3072 2584 2669 2484 
Q 3125 2378 3379 2068 
Q 3634 1759 3634 1313 
Q 3634 634 3220 271 
Q 2806 -91 2034 -91 
Q 1263 -91 848 271 
Q 434 634 434 1313 
Q 434 1759 690 2068 
Q 947 2378 1403 2484 
z
M 1172 3481 
Q 1172 3119 1398 2916 
Q 1625 2713 2034 2713 
Q 2441 2713 2670 2916 
Q 2900 3119 2900 3481 
Q 2900 3844 2670 4047 
Q 2441 4250 2034 4250 
Q 1625 4250 1398 4047 
Q 1172 3844 1172 3481 
z
" transform="scale(0.015625)"/>
       </defs>
       <use xlink:href="#DejaVuSans-30"/>
       <use xlink:href="#DejaVuSans-2e" x="63.623047"/>
       <use xlink:href="#DejaVuSans-38" x="95.410156"/>
      </g>
     </g>
    </g>
    <g id="ytick_6">
     <g id="line2d_13">
      <g>
       <use xlink:href="#m15ec17d3b8" x="45.716875" y="10.999219" style="stroke: #000000; stroke-width: 0.8"/>
      </g>
     </g>
     <g id="text_14">
      <!-- 1.0 -->
      <g transform="translate(22.81375 14.798438)scale(0.1 -0.1)">
       <use xlink:href="#DejaVuSans-31"/>
       <use xlink:href="#DejaVuSans-2e" x="63.623047"/>
       <use xlink:href="#DejaVuSans-30" x="95.410156"/>
      </g>
     </g>
    </g>
    <g id="text_15">
     <!-- Lomb-Scargle Power -->
     <g transform="translate(16.318125 196.824844)rotate(-90)scale(0.12 -0.12)">
      <defs>
       <path id="DejaVuSans-4c" d="M 628 4666 
L 1259 4666 
L 1259 531 
L 3531 531 
L 3531 0 
L 628 0 
L 628 4666 
z
" transform="scale(0.015625)"/>
       <path id="DejaVuSans-6f" d="M 1959 3097 
Q 1497 3097 1228 2736 
Q 959 2375 959 1747 
Q 959 1119 1226 758 
Q 1494 397 1959 397 
Q 2419 397 2687 759 
Q 2956 1122 2956 1747 
Q 2956 2369 2687 2733 
Q 2419 3097 1959 3097 
z
M 1959 3584 
Q 2709 3584 3137 3096 
Q 3566 2609 3566 1747 
Q 3566 888 3137 398 
Q 2709 -91 1959 -91 
Q 1206 -91 779 398 
Q 353 888 353 1747 
Q 353 2609 779 3096 
Q 1206 3584 1959 3584 
z
" transform="scale(0.015625)"/>
       <path id="DejaVuSans-6d" d="M 3328 2828 
Q 3544 3216 3844 3400 
Q 4144 3584 4550 3584 
Q 5097 3584 5394 3201 
Q 5691 2819 5691 2113 
L 5691 0 
L 5113 0 
L 5113 2094 
Q 5113 2597 4934 2840 
Q 4756 3084 4391 3084 
Q 3944 3084 3684 2787 
Q 3425 2491 3425 1978 
L 3425 0 
L 2847 0 
L 2847 2094 
Q 2847 2600 2669 2842 
Q 2491 3084 2119 3084 
Q 1678 3084 1418 2786 
Q 1159 2488 1159 1978 
L 1159 0 
L 581 0 
L 581 3500 
L 1159 3500 
L 1159 2956 
Q 1356 3278 1631 3431 
Q 1906 3584 2284 3584 
Q 2666 3584 2933 3390 
Q 3200 3197 3328 2828 
z
" transform="scale(0.015625)"/>
       <path id="DejaVuSans-62" d="M 3116 1747 
Q 3116 2381 2855 2742 
Q 2594 3103 2138 3103 
Q 1681 3103 1420 2742 
Q 1159 2381 1159 1747 
Q 1159 1113 1420 752 
Q 1681 391 2138 391 
Q 2594 391 2855 752 
Q 3116 1113 3116 1747 
z
M 1159 2969 
Q 1341 3281 1617 3432 
Q 1894 3584 2278 3584 
Q 2916 3584 3314 3078 
Q 3713 2572 3713 1747 
Q 3713 922 3314 415 
Q 2916 -91 2278 -91 
Q 1894 -91 1617 61 
Q 1341 213 1159 525 
L 1159 0 
L 581 0 
L 581 4863 
L 1159 4863 
L 1159 2969 
z
" transform="scale(0.015625)"/>
       <path id="DejaVuSans-2d" d="M 313 2009 
L 1997 2009 
L 1997 1497 
L 313 1497 
L 313 2009 
z
" transform="scale(0.015625)"/>
       <path id="DejaVuSans-53" d="M 3425 4513 
L 3425 3897 
Q 3066 4069 2747 4153 
Q 2428 4238 2131 4238 
Q 1616 4238 1336 4038 
Q 1056 3838 1056 3469 
Q 1056 3159 1242 3001 
Q 1428 2844 1947 2747 
L 2328 2669 
Q 3034 2534 3370 2195 
Q 3706 1856 3706 1288 
Q 3706 609 3251 259 
Q 2797 -91 1919 -91 
Q 1588 -91 1214 -16 
Q 841 59 441 206 
L 441 856 
Q 825 641 1194 531 
Q 1563 422 1919 422 
Q 2459 422 2753 634 
Q 3047 847 3047 1241 
Q 3047 1584 2836 1778 
Q 2625 1972 2144 2069 
L 1759 2144 
Q 1053 2284 737 2584 
Q 422 2884 422 3419 
Q 422 4038 858 4394 
Q 1294 4750 2059 4750 
Q 2388 4750 2728 4690 
Q 3069 4631 3425 4513 
z
" transform="scale(0.015625)"/>
       <path id="DejaVuSans-61" d="M 2194 1759 
Q 1497 1759 1228 1600 
Q 959 1441 959 1056 
Q 959 750 1161 570 
Q 1363 391 1709 391 
Q 2188 391 2477 730 
Q 2766 1069 2766 1631 
L 2766 1759 
L 2194 1759 
z
M 3341 1997 
L 3341 0 
L 2766 0 
L 2766 531 
Q 2569 213 2275 61 
Q 1981 -91 1556 -91 
Q 1019 -91 701 211 
Q 384 513 384 1019 
Q 384 1609 779 1909 
Q 1175 2209 1959 2209 
L 2766 2209 
L 2766 2266 
Q 2766 2663 2505 2880 
Q 2244 3097 1772 3097 
Q 1472 3097 1187 3025 
Q 903 2953 641 2809 
L 641 3341 
Q 956 3463 1253 3523 
Q 1550 3584 1831 3584 
Q 2591 3584 2966 3190 
Q 3341 2797 3341 1997 
z
" transform="scale(0.015625)"/>
       <path id="DejaVuSans-67" d="M 2906 1791 
Q 2906 2416 2648 2759 
Q 2391 3103 1925 3103 
Q 1463 3103 1205 2759 
Q 947 2416 947 1791 
Q 947 1169 1205 825 
Q 1463 481 1925 481 
Q 2391 481 2648 825 
Q 2906 1169 2906 1791 
z
M 3481 434 
Q 3481 -459 3084 -895 
Q 2688 -1331 1869 -1331 
Q 1566 -1331 1297 -1286 
Q 1028 -1241 775 -1147 
L 775 -588 
Q 1028 -725 1275 -790 
Q 1522 -856 1778 -856 
Q 2344 -856 2625 -561 
Q 2906 -266 2906 331 
L 2906 616 
Q 2728 306 2450 153 
Q 2172 0 1784 0 
Q 1141 0 747 490 
Q 353 981 353 1791 
Q 353 2603 747 3093 
Q 1141 3584 1784 3584 
Q 2172 3584 2450 3431 
Q 2728 3278 2906 2969 
L 2906 3500 
L 3481 3500 
L 3481 434 
z
" transform="scale(0.015625)"/>
       <path id="DejaVuSans-6c" d="M 603 4863 
L 1178 4863 
L 1178 0 
L 603 0 
L 603 4863 
z
" transform="scale(0.015625)"/>
       <path id="DejaVuSans-20" transform="scale(0.015625)"/>
       <path id="DejaVuSans-50" d="M 1259 4147 
L 1259 2394 
L 2053 2394 
Q 2494 2394 2734 2622 
Q 2975 2850 2975 3272 
Q 2975 3691 2734 3919 
Q 2494 4147 2053 4147 
L 1259 4147 
z
M 628 4666 
L 2053 4666 
Q 2838 4666 3239 4311 
Q 3641 3956 3641 3272 
Q 3641 2581 3239 2228 
Q 2838 1875 2053 1875 
L 1259 1875 
L 1259 0 
L 628 0 
L 628 4666 
z
" transform="scale(0.015625)"/>
       <path id="DejaVuSans-77" d="M 269 3500 
L 844 3500 
L 1563 769 
L 2278 3500 
L 2956 3500 
L 3675 769 
L 4391 3500 
L 4966 3500 
L 4050 0 
L 3372 0 
L 2619 2869 
L 1863 0 
L 1184 0 
L 269 3500 
z
" transform="scale(0.015625)"/>
      </defs>
      <use xlink:href="#DejaVuSans-4c"/>
      <use xlink:href="#DejaVuSans-6f" x="53.962891"/>
      <use xlink:href="#DejaVuSans-6d" x="115.144531"/>
      <use xlink:href="#DejaVuSans-62" x="212.556641"/>
      <use xlink:href="#DejaVuSans-2d" x="276.033203"/>
      <use xlink:href="#DejaVuSans-53" x="312.117188"/>
      <use xlink:href="#DejaVuSans-63" x="375.59375"/>
      <use xlink:href="#DejaVuSans-61" x="430.574219"/>
      <use xlink:href="#DejaVuSans-72" x="491.853516"/>
      <use xlink:href="#DejaVuSans-67" x="531.216797"/>
      <use xlink:href="#DejaVuSans-6c" x="594.693359"/>
      <use xlink:href="#DejaVuSans-65" x="622.476562"/>
      <use xlink:href="#DejaVuSans-20" x="684"/>
      <use xlink:href="#DejaVuSans-50" x="715.787109"/>
      <use xlink:href="#DejaVuSans-6f" x="772.464844"/>
      <use xlink:href="#DejaVuSans-77" x="833.646484"/>
      <use xlink:href="#DejaVuSans-65" x="915.433594"/>
      <use xlink:href="#DejaVuSans-72" x="976.957031"/>
     </g>
    </g>
   </g>
   <g id="line2d_14">
    <path d="M 60.935057 259.347217 
L 61.284498 257.999108 
L 61.63394 257.212468 
L 62.682265 256.378901 
L 63.031706 255.506975 
L 63.381148 255.180766 
L 63.73059 256.364941 
L 64.429473 260.044693 
L 64.778914 260.214303 
L 65.477798 258.308677 
L 65.827239 258.152891 
L 66.176681 258.130258 
L 66.526122 257.303748 
L 67.225006 254.107204 
L 67.574447 253.685478 
L 67.923889 255.676095 
L 68.27333 259.082094 
L 68.622772 259.783254 
L 69.671097 251.658625 
L 70.020539 253.363623 
L 70.36998 257.623704 
L 70.719422 260.388306 
L 71.068863 259.545588 
L 71.418305 257.686254 
L 71.767747 257.692351 
L 72.117188 259.404854 
L 72.46663 259.894891 
L 72.816071 256.81132 
L 73.165513 251.947479 
L 73.514955 249.20008 
L 73.864396 250.286699 
L 74.563279 257.690198 
L 74.912721 255.578644 
L 75.611604 244.246975 
L 75.961046 243.964749 
L 76.310487 247.768117 
L 77.009371 257.222638 
L 77.358812 259.149385 
L 77.708254 259.241757 
L 78.407137 258.177443 
L 78.756579 257.959462 
L 79.10602 257.334039 
L 79.455462 255.47235 
L 79.804903 252.870066 
L 80.154345 251.499633 
L 80.503787 252.689987 
L 81.20267 258.075336 
L 81.552111 255.805627 
L 82.250995 241.395594 
L 82.600436 238.610566 
L 82.949878 240.664125 
L 83.998203 257.969356 
L 84.347644 260.278154 
L 84.697086 259.926922 
L 85.745411 256.283177 
L 86.094852 256.831578 
L 86.444294 258.467728 
L 86.793735 259.138356 
L 87.143177 257.370329 
L 87.84206 251.015221 
L 88.191502 251.379917 
L 89.239827 259.193368 
L 89.589268 259.689513 
L 89.93871 259.603106 
L 90.288151 259.657455 
L 90.637593 259.861999 
L 90.987035 259.773169 
L 91.685918 258.822405 
L 92.03536 258.820715 
L 92.384801 259.017381 
L 92.734243 258.956395 
L 93.782568 257.944686 
L 94.132009 257.972241 
L 94.481451 258.264428 
L 95.180334 259.457136 
L 95.529776 260.053281 
L 95.879217 260.379999 
L 96.228659 260.25764 
L 96.5781 259.494932 
L 96.927542 257.920909 
L 97.626425 252.941902 
L 97.975867 251.554252 
L 98.325308 251.998707 
L 98.67475 253.908215 
L 99.373633 258.781112 
L 99.723075 259.326713 
L 100.072516 257.664387 
L 101.470283 245.400008 
L 101.819724 245.583785 
L 102.169166 248.19865 
L 103.217491 259.744883 
L 103.566932 260.097343 
L 104.615257 254.277268 
L 104.964699 254.999931 
L 105.663582 260.124455 
L 106.013024 259.945264 
L 106.362465 256.555861 
L 107.061348 247.708426 
L 107.41079 246.49885 
L 107.760232 248.096879 
L 108.808556 256.372214 
L 109.157998 258.407219 
L 109.50744 258.593551 
L 110.206323 254.508193 
L 110.555764 253.772892 
L 110.905206 255.157293 
L 111.604089 259.714594 
L 111.953531 260.336081 
L 112.302972 260.186717 
L 112.652414 260.21277 
L 113.001856 260.454319 
L 113.351297 260.28548 
L 113.700739 259.82344 
L 114.050181 259.668683 
L 114.399622 259.861859 
L 114.749064 259.053252 
L 115.098505 255.577257 
L 115.447947 250.890864 
L 115.797389 247.778091 
L 116.14683 247.529254 
L 116.496272 250.50038 
L 116.845713 255.310014 
L 117.195155 258.460551 
L 117.544597 258.531764 
L 117.894038 257.720472 
L 118.24348 258.166094 
L 118.592921 259.702176 
L 118.942363 260.389917 
L 119.291805 259.475971 
L 119.641246 258.092525 
L 120.340129 256.279463 
L 120.689571 254.091245 
L 121.039013 250.520862 
L 121.388454 248.150993 
L 121.737896 250.14968 
L 122.087337 254.890478 
L 122.436779 256.66747 
L 122.786221 253.139734 
L 123.485104 243.765361 
L 123.834545 243.317618 
L 124.183987 247.825457 
L 124.533429 255.129221 
L 124.88287 259.912175 
L 125.232312 259.359169 
L 126.280637 246.302343 
L 126.630078 247.139635 
L 127.328961 255.093629 
L 127.678403 256.195087 
L 128.377286 250.42865 
L 128.726728 249.993231 
L 129.076169 252.949017 
L 129.425611 257.043227 
L 129.775053 259.576454 
L 130.124494 258.921675 
L 131.172819 248.795918 
L 131.522261 249.974445 
L 132.570585 259.561887 
L 132.920027 259.357634 
L 133.968352 252.939059 
L 134.317793 253.395318 
L 135.016677 256.318158 
L 135.366118 256.580158 
L 135.71556 255.647743 
L 136.414443 252.529174 
L 136.763885 252.690375 
L 137.113326 254.596072 
L 137.81221 259.113875 
L 138.161651 260.175732 
L 138.511093 260.474111 
L 138.860534 260.28516 
L 139.209976 259.552852 
L 139.908859 256.472489 
L 140.258301 255.012694 
L 140.607742 255.118717 
L 141.656067 260.321089 
L 142.005509 260.315681 
L 142.35495 259.567882 
L 142.704392 259.110152 
L 143.053834 259.43524 
L 143.403275 259.916927 
L 143.752717 259.286072 
L 144.102158 256.331088 
L 144.801042 246.764069 
L 145.150483 243.66521 
L 145.499925 243.236758 
L 145.849366 246.161086 
L 146.54825 255.123976 
L 146.897691 257.718038 
L 147.247133 258.793711 
L 147.596574 258.718411 
L 147.946016 258.163517 
L 148.295458 257.229222 
L 148.994341 254.653567 
L 149.343782 255.401417 
L 149.693224 257.324733 
L 150.042666 258.445482 
L 150.392107 256.544533 
L 151.09099 245.665621 
L 151.440432 243.612453 
L 151.789874 246.545663 
L 152.488757 258.368131 
L 152.838198 259.9456 
L 153.18764 258.187462 
L 153.537082 255.330332 
L 153.886523 253.551524 
L 154.235965 253.302071 
L 154.585406 253.23456 
L 154.934848 252.904991 
L 155.28429 252.965902 
L 155.633731 253.8972 
L 156.682056 259.335068 
L 157.031498 260.016861 
L 157.380939 260.235376 
L 157.730381 260.215456 
L 158.079823 259.978705 
L 158.429264 259.39793 
L 158.778706 258.248357 
L 159.128147 256.348544 
L 160.176472 248.347036 
L 160.525914 249.807679 
L 161.224797 256.005949 
L 161.574239 258.041193 
L 161.92368 256.757957 
L 162.273122 252.650453 
L 162.622563 250.219477 
L 162.972005 251.496319 
L 163.670888 259.751823 
L 164.02033 259.805572 
L 165.068655 246.76633 
L 165.418096 249.021904 
L 166.116979 259.757422 
L 166.466421 258.632336 
L 166.815863 253.896787 
L 167.165304 250.767028 
L 167.514746 252.584078 
L 167.864187 256.264034 
L 168.213629 257.907096 
L 168.563071 256.792865 
L 169.261954 250.111252 
L 169.611395 250.676614 
L 170.310279 257.931587 
L 170.65972 258.690267 
L 171.009162 258.585394 
L 171.708045 258.796974 
L 172.057487 257.956531 
L 172.406928 256.109333 
L 172.75637 255.437336 
L 173.105811 257.061088 
L 173.455253 259.236231 
L 173.804695 260.389556 
L 174.154136 260.26602 
L 174.503578 259.513177 
L 174.853019 259.334373 
L 175.202461 259.969331 
L 175.551903 260.317413 
L 175.901344 259.731165 
L 176.250786 258.451309 
L 176.600227 257.63494 
L 176.949669 258.148763 
L 177.299111 259.172007 
L 177.648552 259.835928 
L 177.997994 259.705168 
L 179.046319 255.79862 
L 179.39576 255.270386 
L 179.745202 256.230777 
L 180.444085 260.200658 
L 180.793527 259.628418 
L 182.191293 247.033999 
L 182.540735 246.667988 
L 182.890176 248.571187 
L 183.938501 259.312963 
L 184.287943 260.097714 
L 184.637384 258.957051 
L 185.336268 255.512701 
L 185.685709 255.909088 
L 186.384592 260.193432 
L 186.734034 260.028684 
L 187.083476 257.029067 
L 187.782359 247.427726 
L 188.1318 246.879806 
L 189.180125 260.303796 
L 189.529567 259.604902 
L 190.22845 254.482152 
L 190.577892 254.323806 
L 191.626216 258.625262 
L 191.975658 259.098973 
L 192.3251 258.93355 
L 192.674541 258.262935 
L 193.722866 255.210218 
L 194.072308 255.197372 
L 194.771191 256.771127 
L 195.819516 260.077861 
L 196.168957 259.886774 
L 196.86784 258.054879 
L 197.217282 258.391448 
L 197.916165 260.205843 
L 198.265607 260.472118 
L 198.96449 260.410786 
L 199.313932 259.371429 
L 199.663373 256.344449 
L 200.362256 248.231762 
L 200.711698 247.773991 
L 201.410581 256.264169 
L 201.760023 257.754334 
L 202.109465 256.474022 
L 202.458906 255.932823 
L 202.808348 256.741979 
L 203.157789 257.220848 
L 203.507231 255.618917 
L 203.856673 252.186665 
L 204.206114 250.307516 
L 204.555556 252.158494 
L 205.254439 259.35417 
L 205.603881 259.969885 
L 205.953322 258.814954 
L 206.302764 258.170666 
L 207.001647 259.624707 
L 207.351089 257.762793 
L 208.399413 242.573084 
L 208.748855 243.987799 
L 209.098297 248.467298 
L 209.79718 260.173168 
L 210.146621 258.152623 
L 210.496063 251.360213 
L 210.845505 248.468659 
L 211.544388 256.916994 
L 211.893829 244.900649 
L 212.243271 192.438595 
L 212.942154 31.550144 
L 213.291596 17.613268 
L 213.641037 55.015881 
L 214.689362 255.818481 
L 215.038804 255.49516 
L 215.388245 238.005505 
L 215.737687 228.177647 
L 216.087129 232.941845 
L 216.786012 255.302608 
L 217.135453 256.949277 
L 217.484895 255.680974 
L 217.834337 255.954536 
L 218.183778 257.874253 
L 218.53322 258.691999 
L 218.882661 257.213657 
L 219.232103 255.167975 
L 219.581545 254.39727 
L 219.930986 254.925859 
L 220.629869 256.726213 
L 220.979311 257.117551 
L 221.678194 257.376605 
L 222.027636 257.202819 
L 222.377077 256.489242 
L 223.075961 254.516634 
L 223.425402 255.086237 
L 224.473727 260.291231 
L 224.823169 258.157263 
L 225.522052 248.721694 
L 225.871494 245.888017 
L 226.220935 245.592836 
L 226.919818 250.322797 
L 227.26926 251.254353 
L 227.618702 251.581462 
L 228.317585 253.086623 
L 228.667026 253.252251 
L 229.016468 252.575399 
L 229.36591 252.306945 
L 229.715351 253.748345 
L 230.064793 256.171398 
L 230.414234 257.582244 
L 230.763676 257.64788 
L 231.462559 257.39034 
L 231.812001 257.361313 
L 232.161442 257.943654 
L 232.510884 259.072914 
L 232.860326 259.790248 
L 233.209767 259.445653 
L 233.559209 258.168023 
L 233.90865 256.053418 
L 234.258092 252.52489 
L 235.306417 239.022634 
L 235.655858 237.964606 
L 236.0053 241.665137 
L 236.704183 256.905168 
L 237.053625 259.445176 
L 237.752508 243.954006 
L 238.10195 241.766068 
L 238.451391 245.27441 
L 239.150274 255.721604 
L 239.499716 257.833571 
L 239.849158 258.022204 
L 240.198599 258.480661 
L 240.548041 259.585024 
L 240.897482 260.151172 
L 241.596366 259.274245 
L 241.945807 259.432892 
L 242.295249 259.885825 
L 242.64469 259.30203 
L 243.693015 253.239278 
L 244.042457 254.000131 
L 244.74134 257.376212 
L 245.090782 258.437687 
L 245.440223 258.543254 
L 245.789665 257.053407 
L 246.488548 250.901113 
L 246.83799 251.812186 
L 247.536873 259.678987 
L 247.886315 259.750454 
L 248.235756 254.891611 
L 248.585198 247.986343 
L 248.934639 245.076744 
L 249.284081 247.167688 
L 249.633523 250.880355 
L 249.982964 252.838381 
L 250.681847 251.323811 
L 251.031289 252.638044 
L 251.380731 254.544074 
L 251.730172 255.556781 
L 252.079614 255.809301 
L 252.429055 255.534212 
L 252.778497 255.779935 
L 253.826822 259.858799 
L 254.176263 260.373426 
L 254.525705 260.412271 
L 255.224588 260.018549 
L 255.57403 259.554226 
L 255.923471 258.668023 
L 256.971796 254.370566 
L 257.321238 254.712422 
L 258.020121 259.801573 
L 258.369563 259.085944 
L 259.068446 250.298452 
L 259.417887 249.782308 
L 260.116771 258.557361 
L 260.466212 256.530165 
L 260.815654 247.891294 
L 261.165095 235.527087 
L 261.514537 228.626086 
L 261.863979 234.750817 
L 262.562862 259.679492 
L 262.912303 257.57538 
L 263.611187 235.872762 
L 263.960628 232.006867 
L 264.31007 237.128783 
L 265.008953 255.615056 
L 265.358395 258.700309 
L 265.707836 257.670005 
L 266.057278 255.278701 
L 266.406719 253.660022 
L 267.455044 252.038387 
L 267.804486 252.022286 
L 268.153927 253.805267 
L 268.852811 258.23734 
L 269.202252 259.487835 
L 269.551694 260.067785 
L 269.901136 260.228329 
L 270.250577 259.952621 
L 270.600019 258.895398 
L 271.648344 252.465983 
L 271.997785 251.809561 
L 272.347227 251.961501 
L 273.04611 252.608566 
L 273.395552 252.500356 
L 274.094435 251.356069 
L 274.443876 252.49679 
L 275.492201 260.240953 
L 275.841643 259.117336 
L 276.889968 247.19499 
L 277.239409 246.80677 
L 277.588851 248.31538 
L 278.287734 254.160454 
L 278.986617 259.400489 
L 279.336059 260.37533 
L 279.6855 260.353709 
L 280.384384 259.31298 
L 280.733825 258.974909 
L 281.083267 258.474943 
L 281.432708 257.625104 
L 282.131592 255.034674 
L 282.830475 252.441317 
L 283.179916 252.991464 
L 284.228241 260.160769 
L 284.577683 260.318641 
L 284.927124 258.881095 
L 285.626008 252.636464 
L 286.324891 245.599315 
L 286.674332 246.138069 
L 287.373216 256.477928 
L 287.722657 258.073738 
L 288.072099 255.007429 
L 288.42154 249.998762 
L 288.770982 247.755436 
L 289.120424 250.645953 
L 289.819307 259.654883 
L 290.168748 260.328275 
L 290.51819 259.185013 
L 290.867632 258.494481 
L 291.217073 259.097032 
L 291.566515 260.059983 
L 291.915957 260.477653 
L 292.265398 260.273394 
L 292.61484 259.899922 
L 292.964281 259.179511 
L 293.313723 257.882367 
L 293.663165 257.031438 
L 294.012606 257.371834 
L 294.711489 260.211132 
L 295.060931 260.166577 
L 295.759814 256.782932 
L 296.109256 257.133339 
L 296.458697 258.936835 
L 296.808139 260.153492 
L 297.157581 258.477441 
L 297.856464 250.867876 
L 298.205905 250.783158 
L 299.603672 259.225415 
L 299.953113 260.37112 
L 300.302555 260.121822 
L 300.651997 258.968035 
L 301.001438 258.451599 
L 301.700321 260.476341 
L 302.049763 258.681719 
L 302.748646 246.843698 
L 303.098088 244.081066 
L 303.447529 246.592493 
L 303.796971 252.002819 
L 304.146413 255.482475 
L 304.495854 254.86497 
L 304.845296 252.519719 
L 305.194737 251.438292 
L 305.544179 252.084494 
L 306.941945 257.775194 
L 307.640829 260.209737 
L 307.99027 259.989797 
L 308.689153 256.596671 
L 309.038595 256.616269 
L 309.737478 259.857812 
L 310.08692 260.33361 
L 310.785803 259.465076 
L 311.135245 259.553741 
L 311.834128 260.205376 
L 312.533011 260.444822 
L 312.882453 260.148107 
L 313.231894 259.012996 
L 313.930778 255.191981 
L 314.280219 254.990313 
L 314.629661 256.278109 
L 315.328544 259.6963 
L 315.677986 260.386622 
L 316.027427 259.965588 
L 317.075752 257.608952 
L 317.425194 256.407752 
L 317.774635 255.735694 
L 318.124077 256.176262 
L 319.172402 260.295887 
L 319.521843 260.053332 
L 320.220726 257.958114 
L 320.570168 258.339657 
L 320.91961 259.138336 
L 321.269051 258.54561 
L 321.618493 256.828167 
L 321.967934 255.756263 
L 322.317376 256.244088 
L 323.016259 259.036574 
L 323.365701 258.416544 
L 324.064584 250.731186 
L 324.414026 250.343794 
L 325.46235 259.892632 
L 325.811792 260.354175 
L 326.510675 257.510486 
L 326.860117 257.213563 
L 327.209558 257.68705 
L 327.908442 259.585218 
L 328.257883 260.038321 
L 328.607325 260.128074 
L 329.306208 259.892922 
L 330.005091 259.684694 
L 330.354533 259.653929 
L 330.703974 259.48184 
L 331.053416 258.923208 
L 331.752299 257.120915 
L 332.101741 256.54034 
L 332.451182 256.662963 
L 333.150066 259.302753 
L 333.499507 259.82308 
L 333.848949 259.130993 
L 335.246715 254.178219 
L 335.945599 248.151235 
L 336.29504 247.205391 
L 336.644482 249.659189 
L 337.343365 259.455173 
L 337.692807 260.222045 
L 338.39169 253.917878 
L 338.741131 252.861491 
L 339.789456 260.459106 
L 340.138898 258.958776 
L 340.837781 252.565689 
L 341.187223 252.507247 
L 341.886106 256.452734 
L 342.235547 257.507722 
L 342.584989 257.03377 
L 343.283872 254.274398 
L 343.633314 253.674005 
L 343.982755 254.091398 
L 345.03108 258.566432 
L 345.380522 258.455036 
L 346.079405 256.881465 
L 346.428847 256.5974 
L 347.12773 257.31795 
L 347.477171 256.876259 
L 348.176055 254.082706 
L 348.525496 253.875599 
L 348.874938 254.190924 
L 349.224379 253.423972 
L 349.573821 250.999229 
L 350.272704 244.084697 
L 350.622146 242.451462 
L 350.971587 244.861001 
L 351.670471 256.481715 
L 352.019912 257.097301 
L 352.369354 255.31161 
L 352.718795 252.671079 
L 353.068237 251.374662 
L 353.417679 253.210058 
L 354.116562 259.536635 
L 354.466003 260.428706 
L 354.815445 259.514382 
L 355.164887 258.249541 
L 355.514328 257.847786 
L 355.86377 258.251045 
L 356.213211 259.066071 
L 356.562653 259.579079 
L 356.912095 259.111981 
L 357.610978 257.267551 
L 357.96042 257.366931 
L 358.659303 258.265623 
L 359.008744 258.357414 
L 359.358186 258.073695 
L 360.057069 256.078602 
L 360.406511 256.533852 
L 361.105394 259.684284 
L 361.454836 260.452303 
L 361.804277 260.012403 
L 362.50316 257.611339 
L 362.852602 257.630046 
L 363.202044 258.151773 
L 363.551485 258.302197 
L 364.250368 257.988716 
L 364.59981 258.111703 
L 365.298693 259.057242 
L 365.298693 259.057242 
" clip-path="url(#pafdb4c400c)" style="fill: none; stroke: #1f77b4; stroke-width: 1.5; stroke-linecap: square"/>
   </g>
   <g id="patch_3">
    <path d="M 45.716875 260.479219 
L 45.716875 10.999219 
" style="fill: none; stroke: #000000; stroke-width: 0.8; stroke-linejoin: miter; stroke-linecap: square"/>
   </g>
   <g id="patch_4">
    <path d="M 380.516875 260.479219 
L 380.516875 10.999219 
" style="fill: none; stroke: #000000; stroke-width: 0.8; stroke-linejoin: miter; stroke-linecap: square"/>
   </g>
   <g id="patch_5">
    <path d="M 45.716875 260.479219 
L 380.516875 260.479219 
" style="fill: none; stroke: #000000; stroke-width: 0.8; stroke-linejoin: miter; stroke-linecap: square"/>
   </g>
   <g id="patch_6">
    <path d="M 45.716875 10.999219 
L 380.516875 10.999219 
" style="fill: none; stroke: #000000; stroke-width: 0.8; stroke-linejoin: miter; stroke-linecap: square"/>
   </g>
  </g>
 </g>
 <defs>
  <clipPath id="pafdb4c400c">
   <rect x="45.716875" y="10.999219" width="334.8" height="249.48"/>
  </clipPath>
 </defs>
</svg>
