<?xml version="1.0" encoding="utf-8" standalone="no"?>
<!DOCTYPE svg PUBLIC "-//W3C//DTD SVG 1.1//EN"
  "http://www.w3.org/Graphics/SVG/1.1/DTD/svg11.dtd">
<svg xmlns:xlink="http://www.w3.org/1999/xlink" width="827.550937pt" height="356.291875pt" viewBox="0 0 827.550937 356.291875" xmlns="http://www.w3.org/2000/svg" version="1.1">
 <metadata>
  <rdf:RDF xmlns:dc="http://purl.org/dc/elements/1.1/" xmlns:cc="http://creativecommons.org/ns#" xmlns:rdf="http://www.w3.org/1999/02/22-rdf-syntax-ns#">
   <cc:Work>
    <dc:type rdf:resource="http://purl.org/dc/dcmitype/StillImage"/>
    <dc:date>2022-05-09T11:03:38.542835</dc:date>
    <dc:format>image/svg+xml</dc:format>
    <dc:creator>
     <cc:Agent>
      <dc:title>Matplotlib v3.5.1, https://matplotlib.org/</dc:title>
     </cc:Agent>
    </dc:creator>
   </cc:Work>
  </rdf:RDF>
 </metadata>
 <defs>
  <style type="text/css">*{stroke-linejoin: round; stroke-linecap: butt}</style>
 </defs>
 <g id="figure_1">
  <g id="patch_1">
   <path d="M 0 356.291875 
L 827.550937 356.291875 
L 827.550937 0 
L 0 0 
L 0 356.291875 
z
" style="fill: none"/>
  </g>
  <g id="axes_1">
   <g id="patch_2">
    <path d="M 52.079375 316.8 
L 397.679375 316.8 
L 397.679375 43.2 
L 52.079375 43.2 
z
" style="fill: #ffffff"/>
   </g>
   <g id="matplotlib.axis_1">
    <g id="xtick_1">
     <g id="line2d_1">
      <defs>
       <path id="m3aee0fc79a" d="M 0 0 
L 0 3.5 
" style="stroke: #000000; stroke-width: 0.8"/>
      </defs>
      <g>
       <use xlink:href="#m3aee0fc79a" x="52.079375" y="316.8" style="stroke: #000000; stroke-width: 0.8"/>
      </g>
     </g>
     <g id="text_1">
      <!-- 0 -->
      <g transform="translate(48.898125 331.398437)scale(0.1 -0.1)">
       <defs>
        <path id="DejaVuSans-30" d="M 2034 4250 
Q 1547 4250 1301 3770 
Q 1056 3291 1056 2328 
Q 1056 1369 1301 889 
Q 1547 409 2034 409 
Q 2525 409 2770 889 
Q 3016 1369 3016 2328 
Q 3016 3291 2770 3770 
Q 2525 4250 2034 4250 
z
M 2034 4750 
Q 2819 4750 3233 4129 
Q 3647 3509 3647 2328 
Q 3647 1150 3233 529 
Q 2819 -91 2034 -91 
Q 1250 -91 836 529 
Q 422 1150 422 2328 
Q 422 3509 836 4129 
Q 1250 4750 2034 4750 
z
" transform="scale(0.015625)"/>
       </defs>
       <use xlink:href="#DejaVuSans-30"/>
      </g>
     </g>
    </g>
    <g id="xtick_2">
     <g id="line2d_2">
      <g>
       <use xlink:href="#m3aee0fc79a" x="121.199375" y="316.8" style="stroke: #000000; stroke-width: 0.8"/>
      </g>
     </g>
     <g id="text_2">
      <!-- 10 -->
      <g transform="translate(114.836875 331.398437)scale(0.1 -0.1)">
       <defs>
        <path id="DejaVuSans-31" d="M 794 531 
L 1825 531 
L 1825 4091 
L 703 3866 
L 703 4441 
L 1819 4666 
L 2450 4666 
L 2450 531 
L 3481 531 
L 3481 0 
L 794 0 
L 794 531 
z
" transform="scale(0.015625)"/>
       </defs>
       <use xlink:href="#DejaVuSans-31"/>
       <use xlink:href="#DejaVuSans-30" x="63.623047"/>
      </g>
     </g>
    </g>
    <g id="xtick_3">
     <g id="line2d_3">
      <g>
       <use xlink:href="#m3aee0fc79a" x="190.319375" y="316.8" style="stroke: #000000; stroke-width: 0.8"/>
      </g>
     </g>
     <g id="text_3">
      <!-- 20 -->
      <g transform="translate(183.956875 331.398437)scale(0.1 -0.1)">
       <defs>
        <path id="DejaVuSans-32" d="M 1228 531 
L 3431 531 
L 3431 0 
L 469 0 
L 469 531 
Q 828 903 1448 1529 
Q 2069 2156 2228 2338 
Q 2531 2678 2651 2914 
Q 2772 3150 2772 3378 
Q 2772 3750 2511 3984 
Q 2250 4219 1831 4219 
Q 1534 4219 1204 4116 
Q 875 4013 500 3803 
L 500 4441 
Q 881 4594 1212 4672 
Q 1544 4750 1819 4750 
Q 2544 4750 2975 4387 
Q 3406 4025 3406 3419 
Q 3406 3131 3298 2873 
Q 3191 2616 2906 2266 
Q 2828 2175 2409 1742 
Q 1991 1309 1228 531 
z
" transform="scale(0.015625)"/>
       </defs>
       <use xlink:href="#DejaVuSans-32"/>
       <use xlink:href="#DejaVuSans-30" x="63.623047"/>
      </g>
     </g>
    </g>
    <g id="xtick_4">
     <g id="line2d_4">
      <g>
       <use xlink:href="#m3aee0fc79a" x="259.439375" y="316.8" style="stroke: #000000; stroke-width: 0.8"/>
      </g>
     </g>
     <g id="text_4">
      <!-- 30 -->
      <g transform="translate(253.076875 331.398437)scale(0.1 -0.1)">
       <defs>
        <path id="DejaVuSans-33" d="M 2597 2516 
Q 3050 2419 3304 2112 
Q 3559 1806 3559 1356 
Q 3559 666 3084 287 
Q 2609 -91 1734 -91 
Q 1441 -91 1130 -33 
Q 819 25 488 141 
L 488 750 
Q 750 597 1062 519 
Q 1375 441 1716 441 
Q 2309 441 2620 675 
Q 2931 909 2931 1356 
Q 2931 1769 2642 2001 
Q 2353 2234 1838 2234 
L 1294 2234 
L 1294 2753 
L 1863 2753 
Q 2328 2753 2575 2939 
Q 2822 3125 2822 3475 
Q 2822 3834 2567 4026 
Q 2313 4219 1838 4219 
Q 1578 4219 1281 4162 
Q 984 4106 628 3988 
L 628 4550 
Q 988 4650 1302 4700 
Q 1616 4750 1894 4750 
Q 2613 4750 3031 4423 
Q 3450 4097 3450 3541 
Q 3450 3153 3228 2886 
Q 3006 2619 2597 2516 
z
" transform="scale(0.015625)"/>
       </defs>
       <use xlink:href="#DejaVuSans-33"/>
       <use xlink:href="#DejaVuSans-30" x="63.623047"/>
      </g>
     </g>
    </g>
    <g id="xtick_5">
     <g id="line2d_5">
      <g>
       <use xlink:href="#m3aee0fc79a" x="328.559375" y="316.8" style="stroke: #000000; stroke-width: 0.8"/>
      </g>
     </g>
     <g id="text_5">
      <!-- 40 -->
      <g transform="translate(322.196875 331.398437)scale(0.1 -0.1)">
       <defs>
        <path id="DejaVuSans-34" d="M 2419 4116 
L 825 1625 
L 2419 1625 
L 2419 4116 
z
M 2253 4666 
L 3047 4666 
L 3047 1625 
L 3713 1625 
L 3713 1100 
L 3047 1100 
L 3047 0 
L 2419 0 
L 2419 1100 
L 313 1100 
L 313 1709 
L 2253 4666 
z
" transform="scale(0.015625)"/>
       </defs>
       <use xlink:href="#DejaVuSans-34"/>
       <use xlink:href="#DejaVuSans-30" x="63.623047"/>
      </g>
     </g>
    </g>
    <g id="xtick_6">
     <g id="line2d_6">
      <g>
       <use xlink:href="#m3aee0fc79a" x="397.679375" y="316.8" style="stroke: #000000; stroke-width: 0.8"/>
      </g>
     </g>
     <g id="text_6">
      <!-- 50 -->
      <g transform="translate(391.316875 331.398437)scale(0.1 -0.1)">
       <defs>
        <path id="DejaVuSans-35" d="M 691 4666 
L 3169 4666 
L 3169 4134 
L 1269 4134 
L 1269 2991 
Q 1406 3038 1543 3061 
Q 1681 3084 1819 3084 
Q 2600 3084 3056 2656 
Q 3513 2228 3513 1497 
Q 3513 744 3044 326 
Q 2575 -91 1722 -91 
Q 1428 -91 1123 -41 
Q 819 9 494 109 
L 494 744 
Q 775 591 1075 516 
Q 1375 441 1709 441 
Q 2250 441 2565 725 
Q 2881 1009 2881 1497 
Q 2881 1984 2565 2268 
Q 2250 2553 1709 2553 
Q 1456 2553 1204 2497 
Q 953 2441 691 2322 
L 691 4666 
z
" transform="scale(0.015625)"/>
       </defs>
       <use xlink:href="#DejaVuSans-35"/>
       <use xlink:href="#DejaVuSans-30" x="63.623047"/>
      </g>
     </g>
    </g>
    <g id="text_7">
     <!-- Observation time (days) -->
     <g transform="translate(152.128437 346.59625)scale(0.12 -0.12)">
      <defs>
       <path id="DejaVuSans-4f" d="M 2522 4238 
Q 1834 4238 1429 3725 
Q 1025 3213 1025 2328 
Q 1025 1447 1429 934 
Q 1834 422 2522 422 
Q 3209 422 3611 934 
Q 4013 1447 4013 2328 
Q 4013 3213 3611 3725 
Q 3209 4238 2522 4238 
z
M 2522 4750 
Q 3503 4750 4090 4092 
Q 4678 3434 4678 2328 
Q 4678 1225 4090 567 
Q 3503 -91 2522 -91 
Q 1538 -91 948 565 
Q 359 1222 359 2328 
Q 359 3434 948 4092 
Q 1538 4750 2522 4750 
z
" transform="scale(0.015625)"/>
       <path id="DejaVuSans-62" d="M 3116 1747 
Q 3116 2381 2855 2742 
Q 2594 3103 2138 3103 
Q 1681 3103 1420 2742 
Q 1159 2381 1159 1747 
Q 1159 1113 1420 752 
Q 1681 391 2138 391 
Q 2594 391 2855 752 
Q 3116 1113 3116 1747 
z
M 1159 2969 
Q 1341 3281 1617 3432 
Q 1894 3584 2278 3584 
Q 2916 3584 3314 3078 
Q 3713 2572 3713 1747 
Q 3713 922 3314 415 
Q 2916 -91 2278 -91 
Q 1894 -91 1617 61 
Q 1341 213 1159 525 
L 1159 0 
L 581 0 
L 581 4863 
L 1159 4863 
L 1159 2969 
z
" transform="scale(0.015625)"/>
       <path id="DejaVuSans-73" d="M 2834 3397 
L 2834 2853 
Q 2591 2978 2328 3040 
Q 2066 3103 1784 3103 
Q 1356 3103 1142 2972 
Q 928 2841 928 2578 
Q 928 2378 1081 2264 
Q 1234 2150 1697 2047 
L 1894 2003 
Q 2506 1872 2764 1633 
Q 3022 1394 3022 966 
Q 3022 478 2636 193 
Q 2250 -91 1575 -91 
Q 1294 -91 989 -36 
Q 684 19 347 128 
L 347 722 
Q 666 556 975 473 
Q 1284 391 1588 391 
Q 1994 391 2212 530 
Q 2431 669 2431 922 
Q 2431 1156 2273 1281 
Q 2116 1406 1581 1522 
L 1381 1569 
Q 847 1681 609 1914 
Q 372 2147 372 2553 
Q 372 3047 722 3315 
Q 1072 3584 1716 3584 
Q 2034 3584 2315 3537 
Q 2597 3491 2834 3397 
z
" transform="scale(0.015625)"/>
       <path id="DejaVuSans-65" d="M 3597 1894 
L 3597 1613 
L 953 1613 
Q 991 1019 1311 708 
Q 1631 397 2203 397 
Q 2534 397 2845 478 
Q 3156 559 3463 722 
L 3463 178 
Q 3153 47 2828 -22 
Q 2503 -91 2169 -91 
Q 1331 -91 842 396 
Q 353 884 353 1716 
Q 353 2575 817 3079 
Q 1281 3584 2069 3584 
Q 2775 3584 3186 3129 
Q 3597 2675 3597 1894 
z
M 3022 2063 
Q 3016 2534 2758 2815 
Q 2500 3097 2075 3097 
Q 1594 3097 1305 2825 
Q 1016 2553 972 2059 
L 3022 2063 
z
" transform="scale(0.015625)"/>
       <path id="DejaVuSans-72" d="M 2631 2963 
Q 2534 3019 2420 3045 
Q 2306 3072 2169 3072 
Q 1681 3072 1420 2755 
Q 1159 2438 1159 1844 
L 1159 0 
L 581 0 
L 581 3500 
L 1159 3500 
L 1159 2956 
Q 1341 3275 1631 3429 
Q 1922 3584 2338 3584 
Q 2397 3584 2469 3576 
Q 2541 3569 2628 3553 
L 2631 2963 
z
" transform="scale(0.015625)"/>
       <path id="DejaVuSans-76" d="M 191 3500 
L 800 3500 
L 1894 563 
L 2988 3500 
L 3597 3500 
L 2284 0 
L 1503 0 
L 191 3500 
z
" transform="scale(0.015625)"/>
       <path id="DejaVuSans-61" d="M 2194 1759 
Q 1497 1759 1228 1600 
Q 959 1441 959 1056 
Q 959 750 1161 570 
Q 1363 391 1709 391 
Q 2188 391 2477 730 
Q 2766 1069 2766 1631 
L 2766 1759 
L 2194 1759 
z
M 3341 1997 
L 3341 0 
L 2766 0 
L 2766 531 
Q 2569 213 2275 61 
Q 1981 -91 1556 -91 
Q 1019 -91 701 211 
Q 384 513 384 1019 
Q 384 1609 779 1909 
Q 1175 2209 1959 2209 
L 2766 2209 
L 2766 2266 
Q 2766 2663 2505 2880 
Q 2244 3097 1772 3097 
Q 1472 3097 1187 3025 
Q 903 2953 641 2809 
L 641 3341 
Q 956 3463 1253 3523 
Q 1550 3584 1831 3584 
Q 2591 3584 2966 3190 
Q 3341 2797 3341 1997 
z
" transform="scale(0.015625)"/>
       <path id="DejaVuSans-74" d="M 1172 4494 
L 1172 3500 
L 2356 3500 
L 2356 3053 
L 1172 3053 
L 1172 1153 
Q 1172 725 1289 603 
Q 1406 481 1766 481 
L 2356 481 
L 2356 0 
L 1766 0 
Q 1100 0 847 248 
Q 594 497 594 1153 
L 594 3053 
L 172 3053 
L 172 3500 
L 594 3500 
L 594 4494 
L 1172 4494 
z
" transform="scale(0.015625)"/>
       <path id="DejaVuSans-69" d="M 603 3500 
L 1178 3500 
L 1178 0 
L 603 0 
L 603 3500 
z
M 603 4863 
L 1178 4863 
L 1178 4134 
L 603 4134 
L 603 4863 
z
" transform="scale(0.015625)"/>
       <path id="DejaVuSans-6f" d="M 1959 3097 
Q 1497 3097 1228 2736 
Q 959 2375 959 1747 
Q 959 1119 1226 758 
Q 1494 397 1959 397 
Q 2419 397 2687 759 
Q 2956 1122 2956 1747 
Q 2956 2369 2687 2733 
Q 2419 3097 1959 3097 
z
M 1959 3584 
Q 2709 3584 3137 3096 
Q 3566 2609 3566 1747 
Q 3566 888 3137 398 
Q 2709 -91 1959 -91 
Q 1206 -91 779 398 
Q 353 888 353 1747 
Q 353 2609 779 3096 
Q 1206 3584 1959 3584 
z
" transform="scale(0.015625)"/>
       <path id="DejaVuSans-6e" d="M 3513 2113 
L 3513 0 
L 2938 0 
L 2938 2094 
Q 2938 2591 2744 2837 
Q 2550 3084 2163 3084 
Q 1697 3084 1428 2787 
Q 1159 2491 1159 1978 
L 1159 0 
L 581 0 
L 581 3500 
L 1159 3500 
L 1159 2956 
Q 1366 3272 1645 3428 
Q 1925 3584 2291 3584 
Q 2894 3584 3203 3211 
Q 3513 2838 3513 2113 
z
" transform="scale(0.015625)"/>
       <path id="DejaVuSans-20" transform="scale(0.015625)"/>
       <path id="DejaVuSans-6d" d="M 3328 2828 
Q 3544 3216 3844 3400 
Q 4144 3584 4550 3584 
Q 5097 3584 5394 3201 
Q 5691 2819 5691 2113 
L 5691 0 
L 5113 0 
L 5113 2094 
Q 5113 2597 4934 2840 
Q 4756 3084 4391 3084 
Q 3944 3084 3684 2787 
Q 3425 2491 3425 1978 
L 3425 0 
L 2847 0 
L 2847 2094 
Q 2847 2600 2669 2842 
Q 2491 3084 2119 3084 
Q 1678 3084 1418 2786 
Q 1159 2488 1159 1978 
L 1159 0 
L 581 0 
L 581 3500 
L 1159 3500 
L 1159 2956 
Q 1356 3278 1631 3431 
Q 1906 3584 2284 3584 
Q 2666 3584 2933 3390 
Q 3200 3197 3328 2828 
z
" transform="scale(0.015625)"/>
       <path id="DejaVuSans-28" d="M 1984 4856 
Q 1566 4138 1362 3434 
Q 1159 2731 1159 2009 
Q 1159 1288 1364 580 
Q 1569 -128 1984 -844 
L 1484 -844 
Q 1016 -109 783 600 
Q 550 1309 550 2009 
Q 550 2706 781 3412 
Q 1013 4119 1484 4856 
L 1984 4856 
z
" transform="scale(0.015625)"/>
       <path id="DejaVuSans-64" d="M 2906 2969 
L 2906 4863 
L 3481 4863 
L 3481 0 
L 2906 0 
L 2906 525 
Q 2725 213 2448 61 
Q 2172 -91 1784 -91 
Q 1150 -91 751 415 
Q 353 922 353 1747 
Q 353 2572 751 3078 
Q 1150 3584 1784 3584 
Q 2172 3584 2448 3432 
Q 2725 3281 2906 2969 
z
M 947 1747 
Q 947 1113 1208 752 
Q 1469 391 1925 391 
Q 2381 391 2643 752 
Q 2906 1113 2906 1747 
Q 2906 2381 2643 2742 
Q 2381 3103 1925 3103 
Q 1469 3103 1208 2742 
Q 947 2381 947 1747 
z
" transform="scale(0.015625)"/>
       <path id="DejaVuSans-79" d="M 2059 -325 
Q 1816 -950 1584 -1140 
Q 1353 -1331 966 -1331 
L 506 -1331 
L 506 -850 
L 844 -850 
Q 1081 -850 1212 -737 
Q 1344 -625 1503 -206 
L 1606 56 
L 191 3500 
L 800 3500 
L 1894 763 
L 2988 3500 
L 3597 3500 
L 2059 -325 
z
" transform="scale(0.015625)"/>
       <path id="DejaVuSans-29" d="M 513 4856 
L 1013 4856 
Q 1481 4119 1714 3412 
Q 1947 2706 1947 2009 
Q 1947 1309 1714 600 
Q 1481 -109 1013 -844 
L 513 -844 
Q 928 -128 1133 580 
Q 1338 1288 1338 2009 
Q 1338 2731 1133 3434 
Q 928 4138 513 4856 
z
" transform="scale(0.015625)"/>
      </defs>
      <use xlink:href="#DejaVuSans-4f"/>
      <use xlink:href="#DejaVuSans-62" x="78.710938"/>
      <use xlink:href="#DejaVuSans-73" x="142.1875"/>
      <use xlink:href="#DejaVuSans-65" x="194.287109"/>
      <use xlink:href="#DejaVuSans-72" x="255.810547"/>
      <use xlink:href="#DejaVuSans-76" x="296.923828"/>
      <use xlink:href="#DejaVuSans-61" x="356.103516"/>
      <use xlink:href="#DejaVuSans-74" x="417.382812"/>
      <use xlink:href="#DejaVuSans-69" x="456.591797"/>
      <use xlink:href="#DejaVuSans-6f" x="484.375"/>
      <use xlink:href="#DejaVuSans-6e" x="545.556641"/>
      <use xlink:href="#DejaVuSans-20" x="608.935547"/>
      <use xlink:href="#DejaVuSans-74" x="640.722656"/>
      <use xlink:href="#DejaVuSans-69" x="679.931641"/>
      <use xlink:href="#DejaVuSans-6d" x="707.714844"/>
      <use xlink:href="#DejaVuSans-65" x="805.126953"/>
      <use xlink:href="#DejaVuSans-20" x="866.650391"/>
      <use xlink:href="#DejaVuSans-28" x="898.4375"/>
      <use xlink:href="#DejaVuSans-64" x="937.451172"/>
      <use xlink:href="#DejaVuSans-61" x="1000.927734"/>
      <use xlink:href="#DejaVuSans-79" x="1062.207031"/>
      <use xlink:href="#DejaVuSans-73" x="1121.386719"/>
      <use xlink:href="#DejaVuSans-29" x="1173.486328"/>
     </g>
    </g>
   </g>
   <g id="matplotlib.axis_2">
    <g id="ytick_1">
     <g id="line2d_7">
      <defs>
       <path id="m18bf36a558" d="M 0 0 
L -3.5 0 
" style="stroke: #000000; stroke-width: 0.8"/>
      </defs>
      <g>
       <use xlink:href="#m18bf36a558" x="52.079375" y="87.920682" style="stroke: #000000; stroke-width: 0.8"/>
      </g>
     </g>
     <g id="text_8">
      <!-- 14.6 -->
      <g transform="translate(22.81375 91.719901)scale(0.1 -0.1)">
       <defs>
        <path id="DejaVuSans-2e" d="M 684 794 
L 1344 794 
L 1344 0 
L 684 0 
L 684 794 
z
" transform="scale(0.015625)"/>
        <path id="DejaVuSans-36" d="M 2113 2584 
Q 1688 2584 1439 2293 
Q 1191 2003 1191 1497 
Q 1191 994 1439 701 
Q 1688 409 2113 409 
Q 2538 409 2786 701 
Q 3034 994 3034 1497 
Q 3034 2003 2786 2293 
Q 2538 2584 2113 2584 
z
M 3366 4563 
L 3366 3988 
Q 3128 4100 2886 4159 
Q 2644 4219 2406 4219 
Q 1781 4219 1451 3797 
Q 1122 3375 1075 2522 
Q 1259 2794 1537 2939 
Q 1816 3084 2150 3084 
Q 2853 3084 3261 2657 
Q 3669 2231 3669 1497 
Q 3669 778 3244 343 
Q 2819 -91 2113 -91 
Q 1303 -91 875 529 
Q 447 1150 447 2328 
Q 447 3434 972 4092 
Q 1497 4750 2381 4750 
Q 2619 4750 2861 4703 
Q 3103 4656 3366 4563 
z
" transform="scale(0.015625)"/>
       </defs>
       <use xlink:href="#DejaVuSans-31"/>
       <use xlink:href="#DejaVuSans-34" x="63.623047"/>
       <use xlink:href="#DejaVuSans-2e" x="127.246094"/>
       <use xlink:href="#DejaVuSans-36" x="159.033203"/>
      </g>
     </g>
    </g>
    <g id="ytick_2">
     <g id="line2d_8">
      <g>
       <use xlink:href="#m18bf36a558" x="52.079375" y="148.118365" style="stroke: #000000; stroke-width: 0.8"/>
      </g>
     </g>
     <g id="text_9">
      <!-- 14.8 -->
      <g transform="translate(22.81375 151.917584)scale(0.1 -0.1)">
       <defs>
        <path id="DejaVuSans-38" d="M 2034 2216 
Q 1584 2216 1326 1975 
Q 1069 1734 1069 1313 
Q 1069 891 1326 650 
Q 1584 409 2034 409 
Q 2484 409 2743 651 
Q 3003 894 3003 1313 
Q 3003 1734 2745 1975 
Q 2488 2216 2034 2216 
z
M 1403 2484 
Q 997 2584 770 2862 
Q 544 3141 544 3541 
Q 544 4100 942 4425 
Q 1341 4750 2034 4750 
Q 2731 4750 3128 4425 
Q 3525 4100 3525 3541 
Q 3525 3141 3298 2862 
Q 3072 2584 2669 2484 
Q 3125 2378 3379 2068 
Q 3634 1759 3634 1313 
Q 3634 634 3220 271 
Q 2806 -91 2034 -91 
Q 1263 -91 848 271 
Q 434 634 434 1313 
Q 434 1759 690 2068 
Q 947 2378 1403 2484 
z
M 1172 3481 
Q 1172 3119 1398 2916 
Q 1625 2713 2034 2713 
Q 2441 2713 2670 2916 
Q 2900 3119 2900 3481 
Q 2900 3844 2670 4047 
Q 2441 4250 2034 4250 
Q 1625 4250 1398 4047 
Q 1172 3844 1172 3481 
z
" transform="scale(0.015625)"/>
       </defs>
       <use xlink:href="#DejaVuSans-31"/>
       <use xlink:href="#DejaVuSans-34" x="63.623047"/>
       <use xlink:href="#DejaVuSans-2e" x="127.246094"/>
       <use xlink:href="#DejaVuSans-38" x="159.033203"/>
      </g>
     </g>
    </g>
    <g id="ytick_3">
     <g id="line2d_9">
      <g>
       <use xlink:href="#m18bf36a558" x="52.079375" y="208.316048" style="stroke: #000000; stroke-width: 0.8"/>
      </g>
     </g>
     <g id="text_10">
      <!-- 15.0 -->
      <g transform="translate(22.81375 212.115267)scale(0.1 -0.1)">
       <use xlink:href="#DejaVuSans-31"/>
       <use xlink:href="#DejaVuSans-35" x="63.623047"/>
       <use xlink:href="#DejaVuSans-2e" x="127.246094"/>
       <use xlink:href="#DejaVuSans-30" x="159.033203"/>
      </g>
     </g>
    </g>
    <g id="ytick_4">
     <g id="line2d_10">
      <g>
       <use xlink:href="#m18bf36a558" x="52.079375" y="268.513731" style="stroke: #000000; stroke-width: 0.8"/>
      </g>
     </g>
     <g id="text_11">
      <!-- 15.2 -->
      <g transform="translate(22.81375 272.31295)scale(0.1 -0.1)">
       <use xlink:href="#DejaVuSans-31"/>
       <use xlink:href="#DejaVuSans-35" x="63.623047"/>
       <use xlink:href="#DejaVuSans-2e" x="127.246094"/>
       <use xlink:href="#DejaVuSans-32" x="159.033203"/>
      </g>
     </g>
    </g>
    <g id="text_12">
     <!-- Observed Magnitude -->
     <g transform="translate(16.318125 242.563125)rotate(-90)scale(0.12 -0.12)">
      <defs>
       <path id="DejaVuSans-4d" d="M 628 4666 
L 1569 4666 
L 2759 1491 
L 3956 4666 
L 4897 4666 
L 4897 0 
L 4281 0 
L 4281 4097 
L 3078 897 
L 2444 897 
L 1241 4097 
L 1241 0 
L 628 0 
L 628 4666 
z
" transform="scale(0.015625)"/>
       <path id="DejaVuSans-67" d="M 2906 1791 
Q 2906 2416 2648 2759 
Q 2391 3103 1925 3103 
Q 1463 3103 1205 2759 
Q 947 2416 947 1791 
Q 947 1169 1205 825 
Q 1463 481 1925 481 
Q 2391 481 2648 825 
Q 2906 1169 2906 1791 
z
M 3481 434 
Q 3481 -459 3084 -895 
Q 2688 -1331 1869 -1331 
Q 1566 -1331 1297 -1286 
Q 1028 -1241 775 -1147 
L 775 -588 
Q 1028 -725 1275 -790 
Q 1522 -856 1778 -856 
Q 2344 -856 2625 -561 
Q 2906 -266 2906 331 
L 2906 616 
Q 2728 306 2450 153 
Q 2172 0 1784 0 
Q 1141 0 747 490 
Q 353 981 353 1791 
Q 353 2603 747 3093 
Q 1141 3584 1784 3584 
Q 2172 3584 2450 3431 
Q 2728 3278 2906 2969 
L 2906 3500 
L 3481 3500 
L 3481 434 
z
" transform="scale(0.015625)"/>
       <path id="DejaVuSans-75" d="M 544 1381 
L 544 3500 
L 1119 3500 
L 1119 1403 
Q 1119 906 1312 657 
Q 1506 409 1894 409 
Q 2359 409 2629 706 
Q 2900 1003 2900 1516 
L 2900 3500 
L 3475 3500 
L 3475 0 
L 2900 0 
L 2900 538 
Q 2691 219 2414 64 
Q 2138 -91 1772 -91 
Q 1169 -91 856 284 
Q 544 659 544 1381 
z
M 1991 3584 
L 1991 3584 
z
" transform="scale(0.015625)"/>
      </defs>
      <use xlink:href="#DejaVuSans-4f"/>
      <use xlink:href="#DejaVuSans-62" x="78.710938"/>
      <use xlink:href="#DejaVuSans-73" x="142.1875"/>
      <use xlink:href="#DejaVuSans-65" x="194.287109"/>
      <use xlink:href="#DejaVuSans-72" x="255.810547"/>
      <use xlink:href="#DejaVuSans-76" x="296.923828"/>
      <use xlink:href="#DejaVuSans-65" x="356.103516"/>
      <use xlink:href="#DejaVuSans-64" x="417.626953"/>
      <use xlink:href="#DejaVuSans-20" x="481.103516"/>
      <use xlink:href="#DejaVuSans-4d" x="512.890625"/>
      <use xlink:href="#DejaVuSans-61" x="599.169922"/>
      <use xlink:href="#DejaVuSans-67" x="660.449219"/>
      <use xlink:href="#DejaVuSans-6e" x="723.925781"/>
      <use xlink:href="#DejaVuSans-69" x="787.304688"/>
      <use xlink:href="#DejaVuSans-74" x="815.087891"/>
      <use xlink:href="#DejaVuSans-75" x="854.296875"/>
      <use xlink:href="#DejaVuSans-64" x="917.675781"/>
      <use xlink:href="#DejaVuSans-65" x="981.152344"/>
     </g>
    </g>
   </g>
   <g id="LineCollection_1">
    <path d="M 52.210049 167.116484 
L 52.210049 185.812972 
" clip-path="url(#pf78a17794a)" style="fill: none; stroke: #000000; stroke-width: 1.5"/>
    <path d="M 58.630051 225.528582 
L 58.630051 239.79117 
" clip-path="url(#pf78a17794a)" style="fill: none; stroke: #000000; stroke-width: 1.5"/>
    <path d="M 65.617865 55.636364 
L 65.617865 77.868587 
" clip-path="url(#pf78a17794a)" style="fill: none; stroke: #000000; stroke-width: 1.5"/>
    <path d="M 71.127833 121.190537 
L 71.127833 142.293133 
" clip-path="url(#pf78a17794a)" style="fill: none; stroke: #000000; stroke-width: 1.5"/>
    <path d="M 80.971333 220.291625 
L 80.971333 233.265944 
" clip-path="url(#pf78a17794a)" style="fill: none; stroke: #000000; stroke-width: 1.5"/>
    <path d="M 87.430222 255.584799 
L 87.430222 279.188529 
" clip-path="url(#pf78a17794a)" style="fill: none; stroke: #000000; stroke-width: 1.5"/>
    <path d="M 93.326443 280.158384 
L 93.326443 296.87038 
" clip-path="url(#pf78a17794a)" style="fill: none; stroke: #000000; stroke-width: 1.5"/>
    <path d="M 100.99823 251.384191 
L 100.99823 271.23528 
" clip-path="url(#pf78a17794a)" style="fill: none; stroke: #000000; stroke-width: 1.5"/>
    <path d="M 107.569748 288.002932 
L 107.569748 301.376347 
" clip-path="url(#pf78a17794a)" style="fill: none; stroke: #000000; stroke-width: 1.5"/>
    <path d="M 113.904573 85.999528 
L 113.904573 95.561989 
" clip-path="url(#pf78a17794a)" style="fill: none; stroke: #000000; stroke-width: 1.5"/>
    <path d="M 121.87507 284.439351 
L 121.87507 293.561293 
" clip-path="url(#pf78a17794a)" style="fill: none; stroke: #000000; stroke-width: 1.5"/>
    <path d="M 127.896718 86.256918 
L 127.896718 95.549145 
" clip-path="url(#pf78a17794a)" style="fill: none; stroke: #000000; stroke-width: 1.5"/>
    <path d="M 134.796092 221.863305 
L 134.796092 238.787381 
" clip-path="url(#pf78a17794a)" style="fill: none; stroke: #000000; stroke-width: 1.5"/>
    <path d="M 141.387843 257.598205 
L 141.387843 265.652044 
" clip-path="url(#pf78a17794a)" style="fill: none; stroke: #000000; stroke-width: 1.5"/>
    <path d="M 149.161842 234.507186 
L 149.161842 240.886529 
" clip-path="url(#pf78a17794a)" style="fill: none; stroke: #000000; stroke-width: 1.5"/>
    <path d="M 155.690809 254.65957 
L 155.690809 275.722684 
" clip-path="url(#pf78a17794a)" style="fill: none; stroke: #000000; stroke-width: 1.5"/>
    <path d="M 163.048279 212.712542 
L 163.048279 220.527606 
" clip-path="url(#pf78a17794a)" style="fill: none; stroke: #000000; stroke-width: 1.5"/>
    <path d="M 169.163688 230.476532 
L 169.163688 244.633543 
" clip-path="url(#pf78a17794a)" style="fill: none; stroke: #000000; stroke-width: 1.5"/>
    <path d="M 176.583038 129.597879 
L 176.583038 144.439592 
" clip-path="url(#pf78a17794a)" style="fill: none; stroke: #000000; stroke-width: 1.5"/>
    <path d="M 182.790635 210.450401 
L 182.790635 227.671858 
" clip-path="url(#pf78a17794a)" style="fill: none; stroke: #000000; stroke-width: 1.5"/>
    <path d="M 190.900996 156.451471 
L 190.900996 171.573391 
" clip-path="url(#pf78a17794a)" style="fill: none; stroke: #000000; stroke-width: 1.5"/>
    <path d="M 197.361345 226.192969 
L 197.361345 249.140503 
" clip-path="url(#pf78a17794a)" style="fill: none; stroke: #000000; stroke-width: 1.5"/>
    <path d="M 204.371866 93.055317 
L 204.371866 112.626726 
" clip-path="url(#pf78a17794a)" style="fill: none; stroke: #000000; stroke-width: 1.5"/>
    <path d="M 211.339115 216.382861 
L 211.339115 232.777095 
" clip-path="url(#pf78a17794a)" style="fill: none; stroke: #000000; stroke-width: 1.5"/>
    <path d="M 217.268739 227.985764 
L 217.268739 245.153038 
" clip-path="url(#pf78a17794a)" style="fill: none; stroke: #000000; stroke-width: 1.5"/>
    <path d="M 225.42071 213.658785 
L 225.42071 228.826522 
" clip-path="url(#pf78a17794a)" style="fill: none; stroke: #000000; stroke-width: 1.5"/>
    <path d="M 233.212968 138.246093 
L 233.212968 161.688789 
" clip-path="url(#pf78a17794a)" style="fill: none; stroke: #000000; stroke-width: 1.5"/>
    <path d="M 237.570884 246.553182 
L 237.570884 256.665659 
" clip-path="url(#pf78a17794a)" style="fill: none; stroke: #000000; stroke-width: 1.5"/>
    <path d="M 244.420006 110.733989 
L 244.420006 129.197109 
" clip-path="url(#pf78a17794a)" style="fill: none; stroke: #000000; stroke-width: 1.5"/>
    <path d="M 251.487236 231.714747 
L 251.487236 247.759175 
" clip-path="url(#pf78a17794a)" style="fill: none; stroke: #000000; stroke-width: 1.5"/>
    <path d="M 260.020991 237.934889 
L 260.020991 244.713361 
" clip-path="url(#pf78a17794a)" style="fill: none; stroke: #000000; stroke-width: 1.5"/>
    <path d="M 266.440343 259.103251 
L 266.440343 270.471282 
" clip-path="url(#pf78a17794a)" style="fill: none; stroke: #000000; stroke-width: 1.5"/>
    <path d="M 274.008725 226.092403 
L 274.008725 248.856162 
" clip-path="url(#pf78a17794a)" style="fill: none; stroke: #000000; stroke-width: 1.5"/>
    <path d="M 280.674719 233.064617 
L 280.674719 253.253081 
" clip-path="url(#pf78a17794a)" style="fill: none; stroke: #000000; stroke-width: 1.5"/>
    <path d="M 287.232922 156.608271 
L 287.232922 162.85976 
" clip-path="url(#pf78a17794a)" style="fill: none; stroke: #000000; stroke-width: 1.5"/>
    <path d="M 294.195702 243.444374 
L 294.195702 254.821007 
" clip-path="url(#pf78a17794a)" style="fill: none; stroke: #000000; stroke-width: 1.5"/>
    <path d="M 300.794037 87.684912 
L 300.794037 93.881758 
" clip-path="url(#pf78a17794a)" style="fill: none; stroke: #000000; stroke-width: 1.5"/>
    <path d="M 308.423655 239.95684 
L 308.423655 260.920086 
" clip-path="url(#pf78a17794a)" style="fill: none; stroke: #000000; stroke-width: 1.5"/>
    <path d="M 313.954515 255.192274 
L 313.954515 263.205204 
" clip-path="url(#pf78a17794a)" style="fill: none; stroke: #000000; stroke-width: 1.5"/>
    <path d="M 321.355786 167.982486 
L 321.355786 175.039854 
" clip-path="url(#pf78a17794a)" style="fill: none; stroke: #000000; stroke-width: 1.5"/>
    <path d="M 328.727294 280.611737 
L 328.727294 304.363636 
" clip-path="url(#pf78a17794a)" style="fill: none; stroke: #000000; stroke-width: 1.5"/>
    <path d="M 336.716517 240.411466 
L 336.716517 254.483335 
" clip-path="url(#pf78a17794a)" style="fill: none; stroke: #000000; stroke-width: 1.5"/>
    <path d="M 341.854977 225.473128 
L 341.854977 237.242853 
" clip-path="url(#pf78a17794a)" style="fill: none; stroke: #000000; stroke-width: 1.5"/>
    <path d="M 348.549528 286.664758 
L 348.549528 293.569674 
" clip-path="url(#pf78a17794a)" style="fill: none; stroke: #000000; stroke-width: 1.5"/>
    <path d="M 355.818031 210.582681 
L 355.818031 223.63827 
" clip-path="url(#pf78a17794a)" style="fill: none; stroke: #000000; stroke-width: 1.5"/>
    <path d="M 363.789336 156.670772 
L 363.789336 169.300952 
" clip-path="url(#pf78a17794a)" style="fill: none; stroke: #000000; stroke-width: 1.5"/>
    <path d="M 369.868939 188.124693 
L 369.868939 203.59816 
" clip-path="url(#pf78a17794a)" style="fill: none; stroke: #000000; stroke-width: 1.5"/>
    <path d="M 377.858764 148.430938 
L 377.858764 154.573247 
" clip-path="url(#pf78a17794a)" style="fill: none; stroke: #000000; stroke-width: 1.5"/>
    <path d="M 382.561083 280.382274 
L 382.561083 289.074149 
" clip-path="url(#pf78a17794a)" style="fill: none; stroke: #000000; stroke-width: 1.5"/>
    <path d="M 391.54741 87.224993 
L 391.54741 97.035166 
" clip-path="url(#pf78a17794a)" style="fill: none; stroke: #000000; stroke-width: 1.5"/>
   </g>
   <g id="line2d_11">
    <defs>
     <path id="m03871f7406" d="M 0 3 
C 0.795609 3 1.55874 2.683901 2.12132 2.12132 
C 2.683901 1.55874 3 0.795609 3 0 
C 3 -0.795609 2.683901 -1.55874 2.12132 -2.12132 
C 1.55874 -2.683901 0.795609 -3 0 -3 
C -0.795609 -3 -1.55874 -2.683901 -2.12132 -2.12132 
C -2.683901 -1.55874 -3 -0.795609 -3 0 
C -3 0.795609 -2.683901 1.55874 -2.12132 2.12132 
C -1.55874 2.683901 -0.795609 3 0 3 
z
" style="stroke: #000000"/>
    </defs>
    <g clip-path="url(#pf78a17794a)">
     <use xlink:href="#m03871f7406" x="52.210049" y="176.464728" style="stroke: #000000"/>
     <use xlink:href="#m03871f7406" x="58.630051" y="232.659876" style="stroke: #000000"/>
     <use xlink:href="#m03871f7406" x="65.617865" y="66.752475" style="stroke: #000000"/>
     <use xlink:href="#m03871f7406" x="71.127833" y="131.741835" style="stroke: #000000"/>
     <use xlink:href="#m03871f7406" x="80.971333" y="226.778785" style="stroke: #000000"/>
     <use xlink:href="#m03871f7406" x="87.430222" y="267.386664" style="stroke: #000000"/>
     <use xlink:href="#m03871f7406" x="93.326443" y="288.514382" style="stroke: #000000"/>
     <use xlink:href="#m03871f7406" x="100.99823" y="261.309736" style="stroke: #000000"/>
     <use xlink:href="#m03871f7406" x="107.569748" y="294.68964" style="stroke: #000000"/>
     <use xlink:href="#m03871f7406" x="113.904573" y="90.780759" style="stroke: #000000"/>
     <use xlink:href="#m03871f7406" x="121.87507" y="289.000322" style="stroke: #000000"/>
     <use xlink:href="#m03871f7406" x="127.896718" y="90.903031" style="stroke: #000000"/>
     <use xlink:href="#m03871f7406" x="134.796092" y="230.325343" style="stroke: #000000"/>
     <use xlink:href="#m03871f7406" x="141.387843" y="261.625125" style="stroke: #000000"/>
     <use xlink:href="#m03871f7406" x="149.161842" y="237.696857" style="stroke: #000000"/>
     <use xlink:href="#m03871f7406" x="155.690809" y="265.191127" style="stroke: #000000"/>
     <use xlink:href="#m03871f7406" x="163.048279" y="216.620074" style="stroke: #000000"/>
     <use xlink:href="#m03871f7406" x="169.163688" y="237.555037" style="stroke: #000000"/>
     <use xlink:href="#m03871f7406" x="176.583038" y="137.018736" style="stroke: #000000"/>
     <use xlink:href="#m03871f7406" x="182.790635" y="219.06113" style="stroke: #000000"/>
     <use xlink:href="#m03871f7406" x="190.900996" y="164.012431" style="stroke: #000000"/>
     <use xlink:href="#m03871f7406" x="197.361345" y="237.666736" style="stroke: #000000"/>
     <use xlink:href="#m03871f7406" x="204.371866" y="102.841022" style="stroke: #000000"/>
     <use xlink:href="#m03871f7406" x="211.339115" y="224.579978" style="stroke: #000000"/>
     <use xlink:href="#m03871f7406" x="217.268739" y="236.569401" style="stroke: #000000"/>
     <use xlink:href="#m03871f7406" x="225.42071" y="221.242654" style="stroke: #000000"/>
     <use xlink:href="#m03871f7406" x="233.212968" y="149.967441" style="stroke: #000000"/>
     <use xlink:href="#m03871f7406" x="237.570884" y="251.60942" style="stroke: #000000"/>
     <use xlink:href="#m03871f7406" x="244.420006" y="119.965549" style="stroke: #000000"/>
     <use xlink:href="#m03871f7406" x="251.487236" y="239.736961" style="stroke: #000000"/>
     <use xlink:href="#m03871f7406" x="260.020991" y="241.324125" style="stroke: #000000"/>
     <use xlink:href="#m03871f7406" x="266.440343" y="264.787266" style="stroke: #000000"/>
     <use xlink:href="#m03871f7406" x="274.008725" y="237.474283" style="stroke: #000000"/>
     <use xlink:href="#m03871f7406" x="280.674719" y="243.158849" style="stroke: #000000"/>
     <use xlink:href="#m03871f7406" x="287.232922" y="159.734015" style="stroke: #000000"/>
     <use xlink:href="#m03871f7406" x="294.195702" y="249.132691" style="stroke: #000000"/>
     <use xlink:href="#m03871f7406" x="300.794037" y="90.783335" style="stroke: #000000"/>
     <use xlink:href="#m03871f7406" x="308.423655" y="250.438463" style="stroke: #000000"/>
     <use xlink:href="#m03871f7406" x="313.954515" y="259.198739" style="stroke: #000000"/>
     <use xlink:href="#m03871f7406" x="321.355786" y="171.51117" style="stroke: #000000"/>
     <use xlink:href="#m03871f7406" x="328.727294" y="292.487687" style="stroke: #000000"/>
     <use xlink:href="#m03871f7406" x="336.716517" y="247.447401" style="stroke: #000000"/>
     <use xlink:href="#m03871f7406" x="341.854977" y="231.35799" style="stroke: #000000"/>
     <use xlink:href="#m03871f7406" x="348.549528" y="290.117216" style="stroke: #000000"/>
     <use xlink:href="#m03871f7406" x="355.818031" y="217.110476" style="stroke: #000000"/>
     <use xlink:href="#m03871f7406" x="363.789336" y="162.985862" style="stroke: #000000"/>
     <use xlink:href="#m03871f7406" x="369.868939" y="195.861427" style="stroke: #000000"/>
     <use xlink:href="#m03871f7406" x="377.858764" y="151.502092" style="stroke: #000000"/>
     <use xlink:href="#m03871f7406" x="382.561083" y="284.728212" style="stroke: #000000"/>
     <use xlink:href="#m03871f7406" x="391.54741" y="92.13008" style="stroke: #000000"/>
    </g>
   </g>
   <g id="patch_3">
    <path d="M 52.079375 316.8 
L 52.079375 43.2 
" style="fill: none; stroke: #000000; stroke-width: 0.8; stroke-linejoin: miter; stroke-linecap: square"/>
   </g>
   <g id="patch_4">
    <path d="M 397.679375 316.8 
L 397.679375 43.2 
" style="fill: none; stroke: #000000; stroke-width: 0.8; stroke-linejoin: miter; stroke-linecap: square"/>
   </g>
   <g id="patch_5">
    <path d="M 52.079375 316.8 
L 397.679375 316.8 
" style="fill: none; stroke: #000000; stroke-width: 0.8; stroke-linejoin: miter; stroke-linecap: square"/>
   </g>
   <g id="patch_6">
    <path d="M 52.079375 43.2 
L 397.679375 43.2 
" style="fill: none; stroke: #000000; stroke-width: 0.8; stroke-linejoin: miter; stroke-linecap: square"/>
   </g>
  </g>
  <g id="axes_2">
   <g id="patch_7">
    <path d="M 466.799375 316.8 
L 812.399375 316.8 
L 812.399375 43.2 
L 466.799375 43.2 
z
" style="fill: #ffffff"/>
   </g>
   <g id="matplotlib.axis_3">
    <g id="xtick_7">
     <g id="line2d_12">
      <g>
       <use xlink:href="#m3aee0fc79a" x="466.799375" y="316.8" style="stroke: #000000; stroke-width: 0.8"/>
      </g>
     </g>
     <g id="text_13">
      <!-- 0.2 -->
      <g transform="translate(458.847812 331.398437)scale(0.1 -0.1)">
       <use xlink:href="#DejaVuSans-30"/>
       <use xlink:href="#DejaVuSans-2e" x="63.623047"/>
       <use xlink:href="#DejaVuSans-32" x="95.410156"/>
      </g>
     </g>
    </g>
    <g id="xtick_8">
     <g id="line2d_13">
      <g>
       <use xlink:href="#m3aee0fc79a" x="535.919375" y="316.8" style="stroke: #000000; stroke-width: 0.8"/>
      </g>
     </g>
     <g id="text_14">
      <!-- 0.4 -->
      <g transform="translate(527.967812 331.398437)scale(0.1 -0.1)">
       <use xlink:href="#DejaVuSans-30"/>
       <use xlink:href="#DejaVuSans-2e" x="63.623047"/>
       <use xlink:href="#DejaVuSans-34" x="95.410156"/>
      </g>
     </g>
    </g>
    <g id="xtick_9">
     <g id="line2d_14">
      <g>
       <use xlink:href="#m3aee0fc79a" x="605.039375" y="316.8" style="stroke: #000000; stroke-width: 0.8"/>
      </g>
     </g>
     <g id="text_15">
      <!-- 0.6 -->
      <g transform="translate(597.087812 331.398437)scale(0.1 -0.1)">
       <use xlink:href="#DejaVuSans-30"/>
       <use xlink:href="#DejaVuSans-2e" x="63.623047"/>
       <use xlink:href="#DejaVuSans-36" x="95.410156"/>
      </g>
     </g>
    </g>
    <g id="xtick_10">
     <g id="line2d_15">
      <g>
       <use xlink:href="#m3aee0fc79a" x="674.159375" y="316.8" style="stroke: #000000; stroke-width: 0.8"/>
      </g>
     </g>
     <g id="text_16">
      <!-- 0.8 -->
      <g transform="translate(666.207812 331.398437)scale(0.1 -0.1)">
       <use xlink:href="#DejaVuSans-30"/>
       <use xlink:href="#DejaVuSans-2e" x="63.623047"/>
       <use xlink:href="#DejaVuSans-38" x="95.410156"/>
      </g>
     </g>
    </g>
    <g id="xtick_11">
     <g id="line2d_16">
      <g>
       <use xlink:href="#m3aee0fc79a" x="743.279375" y="316.8" style="stroke: #000000; stroke-width: 0.8"/>
      </g>
     </g>
     <g id="text_17">
      <!-- 1.0 -->
      <g transform="translate(735.327812 331.398437)scale(0.1 -0.1)">
       <use xlink:href="#DejaVuSans-31"/>
       <use xlink:href="#DejaVuSans-2e" x="63.623047"/>
       <use xlink:href="#DejaVuSans-30" x="95.410156"/>
      </g>
     </g>
    </g>
    <g id="xtick_12">
     <g id="line2d_17">
      <g>
       <use xlink:href="#m3aee0fc79a" x="812.399375" y="316.8" style="stroke: #000000; stroke-width: 0.8"/>
      </g>
     </g>
     <g id="text_18">
      <!-- 1.2 -->
      <g transform="translate(804.447812 331.398437)scale(0.1 -0.1)">
       <use xlink:href="#DejaVuSans-31"/>
       <use xlink:href="#DejaVuSans-2e" x="63.623047"/>
       <use xlink:href="#DejaVuSans-32" x="95.410156"/>
      </g>
     </g>
    </g>
    <g id="text_19">
     <!-- period (days) -->
     <g transform="translate(599.733125 346.59625)scale(0.12 -0.12)">
      <defs>
       <path id="DejaVuSans-70" d="M 1159 525 
L 1159 -1331 
L 581 -1331 
L 581 3500 
L 1159 3500 
L 1159 2969 
Q 1341 3281 1617 3432 
Q 1894 3584 2278 3584 
Q 2916 3584 3314 3078 
Q 3713 2572 3713 1747 
Q 3713 922 3314 415 
Q 2916 -91 2278 -91 
Q 1894 -91 1617 61 
Q 1341 213 1159 525 
z
M 3116 1747 
Q 3116 2381 2855 2742 
Q 2594 3103 2138 3103 
Q 1681 3103 1420 2742 
Q 1159 2381 1159 1747 
Q 1159 1113 1420 752 
Q 1681 391 2138 391 
Q 2594 391 2855 752 
Q 3116 1113 3116 1747 
z
" transform="scale(0.015625)"/>
      </defs>
      <use xlink:href="#DejaVuSans-70"/>
      <use xlink:href="#DejaVuSans-65" x="63.476562"/>
      <use xlink:href="#DejaVuSans-72" x="125"/>
      <use xlink:href="#DejaVuSans-69" x="166.113281"/>
      <use xlink:href="#DejaVuSans-6f" x="193.896484"/>
      <use xlink:href="#DejaVuSans-64" x="255.078125"/>
      <use xlink:href="#DejaVuSans-20" x="318.554688"/>
      <use xlink:href="#DejaVuSans-28" x="350.341797"/>
      <use xlink:href="#DejaVuSans-64" x="389.355469"/>
      <use xlink:href="#DejaVuSans-61" x="452.832031"/>
      <use xlink:href="#DejaVuSans-79" x="514.111328"/>
      <use xlink:href="#DejaVuSans-73" x="573.291016"/>
      <use xlink:href="#DejaVuSans-29" x="625.390625"/>
     </g>
    </g>
   </g>
   <g id="matplotlib.axis_4">
    <g id="ytick_5">
     <g id="line2d_18">
      <g>
       <use xlink:href="#m18bf36a558" x="466.799375" y="316.8" style="stroke: #000000; stroke-width: 0.8"/>
      </g>
     </g>
     <g id="text_20">
      <!-- 0.0 -->
      <g transform="translate(443.89625 320.599219)scale(0.1 -0.1)">
       <use xlink:href="#DejaVuSans-30"/>
       <use xlink:href="#DejaVuSans-2e" x="63.623047"/>
       <use xlink:href="#DejaVuSans-30" x="95.410156"/>
      </g>
     </g>
    </g>
    <g id="ytick_6">
     <g id="line2d_19">
      <g>
       <use xlink:href="#m18bf36a558" x="466.799375" y="262.08" style="stroke: #000000; stroke-width: 0.8"/>
      </g>
     </g>
     <g id="text_21">
      <!-- 0.2 -->
      <g transform="translate(443.89625 265.879219)scale(0.1 -0.1)">
       <use xlink:href="#DejaVuSans-30"/>
       <use xlink:href="#DejaVuSans-2e" x="63.623047"/>
       <use xlink:href="#DejaVuSans-32" x="95.410156"/>
      </g>
     </g>
    </g>
    <g id="ytick_7">
     <g id="line2d_20">
      <g>
       <use xlink:href="#m18bf36a558" x="466.799375" y="207.36" style="stroke: #000000; stroke-width: 0.8"/>
      </g>
     </g>
     <g id="text_22">
      <!-- 0.4 -->
      <g transform="translate(443.89625 211.159219)scale(0.1 -0.1)">
       <use xlink:href="#DejaVuSans-30"/>
       <use xlink:href="#DejaVuSans-2e" x="63.623047"/>
       <use xlink:href="#DejaVuSans-34" x="95.410156"/>
      </g>
     </g>
    </g>
    <g id="ytick_8">
     <g id="line2d_21">
      <g>
       <use xlink:href="#m18bf36a558" x="466.799375" y="152.64" style="stroke: #000000; stroke-width: 0.8"/>
      </g>
     </g>
     <g id="text_23">
      <!-- 0.6 -->
      <g transform="translate(443.89625 156.439219)scale(0.1 -0.1)">
       <use xlink:href="#DejaVuSans-30"/>
       <use xlink:href="#DejaVuSans-2e" x="63.623047"/>
       <use xlink:href="#DejaVuSans-36" x="95.410156"/>
      </g>
     </g>
    </g>
    <g id="ytick_9">
     <g id="line2d_22">
      <g>
       <use xlink:href="#m18bf36a558" x="466.799375" y="97.92" style="stroke: #000000; stroke-width: 0.8"/>
      </g>
     </g>
     <g id="text_24">
      <!-- 0.8 -->
      <g transform="translate(443.89625 101.719219)scale(0.1 -0.1)">
       <use xlink:href="#DejaVuSans-30"/>
       <use xlink:href="#DejaVuSans-2e" x="63.623047"/>
       <use xlink:href="#DejaVuSans-38" x="95.410156"/>
      </g>
     </g>
    </g>
    <g id="ytick_10">
     <g id="line2d_23">
      <g>
       <use xlink:href="#m18bf36a558" x="466.799375" y="43.2" style="stroke: #000000; stroke-width: 0.8"/>
      </g>
     </g>
     <g id="text_25">
      <!-- 1.0 -->
      <g transform="translate(443.89625 46.999219)scale(0.1 -0.1)">
       <use xlink:href="#DejaVuSans-31"/>
       <use xlink:href="#DejaVuSans-2e" x="63.623047"/>
       <use xlink:href="#DejaVuSans-30" x="95.410156"/>
      </g>
     </g>
    </g>
    <g id="text_26">
     <!-- Lomb-Scargle Power -->
     <g transform="translate(437.400625 241.085625)rotate(-90)scale(0.12 -0.12)">
      <defs>
       <path id="DejaVuSans-4c" d="M 628 4666 
L 1259 4666 
L 1259 531 
L 3531 531 
L 3531 0 
L 628 0 
L 628 4666 
z
" transform="scale(0.015625)"/>
       <path id="DejaVuSans-2d" d="M 313 2009 
L 1997 2009 
L 1997 1497 
L 313 1497 
L 313 2009 
z
" transform="scale(0.015625)"/>
       <path id="DejaVuSans-53" d="M 3425 4513 
L 3425 3897 
Q 3066 4069 2747 4153 
Q 2428 4238 2131 4238 
Q 1616 4238 1336 4038 
Q 1056 3838 1056 3469 
Q 1056 3159 1242 3001 
Q 1428 2844 1947 2747 
L 2328 2669 
Q 3034 2534 3370 2195 
Q 3706 1856 3706 1288 
Q 3706 609 3251 259 
Q 2797 -91 1919 -91 
Q 1588 -91 1214 -16 
Q 841 59 441 206 
L 441 856 
Q 825 641 1194 531 
Q 1563 422 1919 422 
Q 2459 422 2753 634 
Q 3047 847 3047 1241 
Q 3047 1584 2836 1778 
Q 2625 1972 2144 2069 
L 1759 2144 
Q 1053 2284 737 2584 
Q 422 2884 422 3419 
Q 422 4038 858 4394 
Q 1294 4750 2059 4750 
Q 2388 4750 2728 4690 
Q 3069 4631 3425 4513 
z
" transform="scale(0.015625)"/>
       <path id="DejaVuSans-63" d="M 3122 3366 
L 3122 2828 
Q 2878 2963 2633 3030 
Q 2388 3097 2138 3097 
Q 1578 3097 1268 2742 
Q 959 2388 959 1747 
Q 959 1106 1268 751 
Q 1578 397 2138 397 
Q 2388 397 2633 464 
Q 2878 531 3122 666 
L 3122 134 
Q 2881 22 2623 -34 
Q 2366 -91 2075 -91 
Q 1284 -91 818 406 
Q 353 903 353 1747 
Q 353 2603 823 3093 
Q 1294 3584 2113 3584 
Q 2378 3584 2631 3529 
Q 2884 3475 3122 3366 
z
" transform="scale(0.015625)"/>
       <path id="DejaVuSans-6c" d="M 603 4863 
L 1178 4863 
L 1178 0 
L 603 0 
L 603 4863 
z
" transform="scale(0.015625)"/>
       <path id="DejaVuSans-50" d="M 1259 4147 
L 1259 2394 
L 2053 2394 
Q 2494 2394 2734 2622 
Q 2975 2850 2975 3272 
Q 2975 3691 2734 3919 
Q 2494 4147 2053 4147 
L 1259 4147 
z
M 628 4666 
L 2053 4666 
Q 2838 4666 3239 4311 
Q 3641 3956 3641 3272 
Q 3641 2581 3239 2228 
Q 2838 1875 2053 1875 
L 1259 1875 
L 1259 0 
L 628 0 
L 628 4666 
z
" transform="scale(0.015625)"/>
       <path id="DejaVuSans-77" d="M 269 3500 
L 844 3500 
L 1563 769 
L 2278 3500 
L 2956 3500 
L 3675 769 
L 4391 3500 
L 4966 3500 
L 4050 0 
L 3372 0 
L 2619 2869 
L 1863 0 
L 1184 0 
L 269 3500 
z
" transform="scale(0.015625)"/>
      </defs>
      <use xlink:href="#DejaVuSans-4c"/>
      <use xlink:href="#DejaVuSans-6f" x="53.962891"/>
      <use xlink:href="#DejaVuSans-6d" x="115.144531"/>
      <use xlink:href="#DejaVuSans-62" x="212.556641"/>
      <use xlink:href="#DejaVuSans-2d" x="276.033203"/>
      <use xlink:href="#DejaVuSans-53" x="312.117188"/>
      <use xlink:href="#DejaVuSans-63" x="375.59375"/>
      <use xlink:href="#DejaVuSans-61" x="430.574219"/>
      <use xlink:href="#DejaVuSans-72" x="491.853516"/>
      <use xlink:href="#DejaVuSans-67" x="531.216797"/>
      <use xlink:href="#DejaVuSans-6c" x="594.693359"/>
      <use xlink:href="#DejaVuSans-65" x="622.476562"/>
      <use xlink:href="#DejaVuSans-20" x="684"/>
      <use xlink:href="#DejaVuSans-50" x="715.787109"/>
      <use xlink:href="#DejaVuSans-6f" x="772.464844"/>
      <use xlink:href="#DejaVuSans-77" x="833.646484"/>
      <use xlink:href="#DejaVuSans-65" x="915.433594"/>
      <use xlink:href="#DejaVuSans-72" x="976.957031"/>
     </g>
    </g>
   </g>
   <g id="line2d_24">
    <path d="M 812.399375 271.780873 
L 810.381843 275.214231 
L 808.383846 290.762045 
L 806.405102 308.245448 
L 804.445333 316.661582 
L 802.504268 312.646256 
L 800.58164 302.951578 
L 798.677188 295.683488 
L 796.790655 297.236199 
L 794.92179 304.917295 
L 793.070346 309.241378 
L 791.23608 303.610085 
L 789.418754 290.049532 
L 787.618134 279.124675 
L 785.833992 279.356824 
L 784.066102 288.850426 
L 782.314243 300.772237 
L 780.578198 306.867042 
L 778.857753 301.316682 
L 777.152701 284.245627 
L 775.462834 262.798275 
L 773.787951 253.855893 
L 772.127853 266.401807 
L 770.482346 284.213522 
L 768.851238 297.122904 
L 767.234341 305.854148 
L 765.63147 310.483009 
L 764.042443 311.577603 
L 762.467081 309.777089 
L 760.90521 304.970727 
L 759.356656 298.953309 
L 757.82125 294.708613 
L 756.298826 291.489645 
L 754.789219 291.160306 
L 753.292267 297.319799 
L 751.807814 301.874811 
L 750.335702 297.639129 
L 748.875779 285.561499 
L 747.427893 269.364728 
L 745.991897 254.724896 
L 744.567644 255.775075 
L 743.154992 299.726935 
L 741.753798 291.499458 
L 740.363925 278.595902 
L 738.985235 279.097783 
L 737.617594 288.841741 
L 736.26087 304.978593 
L 734.914933 316.553226 
L 733.579654 309.793957 
L 732.254907 293.617065 
L 730.940569 282.960824 
L 729.636516 286.316648 
L 728.342629 298.850638 
L 727.05879 305.918235 
L 725.784881 302.696529 
L 724.520789 288.879801 
L 723.266399 264.393574 
L 722.021601 247.498881 
L 720.786285 245.163569 
L 719.560343 248.591631 
L 718.343669 259.476573 
L 717.136158 279.561155 
L 715.937708 296.992269 
L 714.748215 306.646765 
L 713.567581 306.778263 
L 712.395707 296.847578 
L 711.232495 288.728752 
L 710.077851 290.344274 
L 708.931679 295.960377 
L 707.793886 299.561242 
L 706.664382 300.696345 
L 705.543076 301.665199 
L 704.429879 304.42984 
L 703.324703 309.963325 
L 702.227462 314.88043 
L 701.138071 314.368964 
L 700.056446 309.235255 
L 698.982504 303.467344 
L 697.916164 301.233138 
L 696.857345 303.470597 
L 695.805967 307.245701 
L 694.761954 309.53898 
L 693.725226 310.081249 
L 692.69571 310.465572 
L 691.673329 311.56187 
L 690.658009 311.069516 
L 688.648265 302.8145 
L 687.653697 300.578352 
L 686.665905 298.859791 
L 685.68482 299.065315 
L 684.710374 301.767032 
L 683.7425 302.810575 
L 682.781131 301.540605 
L 681.826202 299.659974 
L 679.935408 292.670099 
L 678.999415 292.519003 
L 678.06961 294.631714 
L 677.145932 293.030177 
L 676.228318 289.101311 
L 675.316711 292.944505 
L 674.411051 301.453317 
L 673.511281 305.869524 
L 672.617343 306.751743 
L 671.72918 308.887916 
L 670.846737 311.629934 
L 669.969959 313.555101 
L 669.098791 314.281079 
L 668.23318 313.278925 
L 667.373072 309.97744 
L 666.518416 305.712229 
L 665.66916 304.681214 
L 663.986642 307.025814 
L 663.153281 309.550493 
L 662.32512 313.909955 
L 661.502109 316.6752 
L 660.684201 315.745762 
L 659.87135 312.173568 
L 658.260627 303.184689 
L 657.462664 301.622914 
L 656.669573 302.839157 
L 655.88131 305.737007 
L 655.097831 309.641793 
L 654.319092 312.569101 
L 653.54505 310.870494 
L 652.775664 302.368921 
L 652.010891 291.295298 
L 651.25069 284.063605 
L 650.495019 281.569303 
L 649.743839 281.711565 
L 648.99711 287.495725 
L 648.254793 299.26142 
L 647.516847 307.302975 
L 646.783235 303.894684 
L 645.328861 285.172086 
L 644.608023 281.351278 
L 643.89137 282.797361 
L 643.178865 290.025628 
L 641.766155 312.981886 
L 641.065879 314.158018 
L 640.36961 301.383854 
L 639.677313 271.009474 
L 638.988955 225.613514 
L 638.304501 199.437783 
L 637.62392 210.286466 
L 636.274242 262.442506 
L 635.60508 294.061276 
L 634.939662 314.890731 
L 634.277955 313.859379 
L 632.965553 291.685691 
L 632.314797 285.200278 
L 631.667631 286.741685 
L 631.024025 293.334459 
L 630.383949 295.820839 
L 629.747376 293.184495 
L 629.114276 292.372613 
L 628.484621 298.361711 
L 627.858382 307.796013 
L 627.235533 312.698261 
L 626.616045 305.507279 
L 625.999892 291.629874 
L 625.387047 280.97533 
L 624.777483 275.6425 
L 624.171173 279.071818 
L 622.968215 310.064314 
L 622.371515 314.948697 
L 621.777968 303.494537 
L 621.187548 288.136073 
L 620.600232 278.471238 
L 620.015993 279.288757 
L 618.856656 308.661259 
L 618.281509 315.048099 
L 617.709346 316.073359 
L 617.140143 316.523594 
L 616.573878 316.7252 
L 616.010527 314.606066 
L 615.450069 307.962425 
L 613.785826 276.783011 
L 613.236716 281.656445 
L 612.69039 293.408115 
L 612.146827 301.011417 
L 611.606004 302.336295 
L 611.067903 299.676296 
L 609.99978 291.845322 
L 609.469719 286.584045 
L 608.942297 284.299757 
L 608.417496 286.091215 
L 607.895296 291.340994 
L 606.858622 306.621977 
L 606.344109 309.610786 
L 605.832121 307.474634 
L 605.32264 299.762788 
L 604.311123 273.26318 
L 603.809051 272.05792 
L 602.812191 306.997963 
L 602.317369 315.061588 
L 601.824927 315.688497 
L 601.33485 310.626133 
L 600.847121 304.182196 
L 600.361722 301.891374 
L 599.397848 303.175753 
L 598.919341 303.867735 
L 598.443099 305.359136 
L 596.56046 315.11133 
L 596.095305 316.698954 
L 595.63232 316.405056 
L 595.171491 315.013499 
L 594.712802 312.605373 
L 593.801787 306.893829 
L 593.349432 304.55466 
L 592.899158 303.297562 
L 592.450952 303.965114 
L 592.004799 307.025286 
L 591.560686 312.415295 
L 591.118598 313.550904 
L 590.678521 306.333577 
L 589.804348 279.309266 
L 589.370224 265.785402 
L 588.938058 262.665151 
L 588.507836 276.14965 
L 588.079545 298.692566 
L 587.653172 314.199433 
L 587.228705 309.757436 
L 586.385436 265.321688 
L 585.966608 257.562116 
L 585.549636 271.105654 
L 585.134506 295.386884 
L 584.721207 312.66396 
L 584.309727 314.37526 
L 583.492173 292.825365 
L 583.086077 288.349974 
L 582.681751 291.370387 
L 582.279185 298.333602 
L 581.878368 301.406781 
L 581.479287 295.381488 
L 581.081932 285.920288 
L 580.686291 284.770937 
L 580.292353 295.506857 
L 579.900108 309.898445 
L 579.509544 315.560459 
L 579.120651 308.277308 
L 578.347834 279.111421 
L 577.963889 271.501868 
L 577.581572 276.691322 
L 576.821783 305.987827 
L 576.444289 312.342232 
L 576.068384 314.606081 
L 575.694056 314.218659 
L 575.321296 307.822523 
L 574.950093 291.03669 
L 574.212323 250.413859 
L 573.845736 244.589043 
L 573.480669 254.144525 
L 572.755054 288.328405 
L 572.394488 284.901041 
L 571.321646 229.448107 
L 570.966955 247.143293 
L 570.613709 282.369917 
L 570.2619 306.358791 
L 569.91152 301.586115 
L 569.56256 285.429759 
L 569.215011 279.516383 
L 568.868865 291.376771 
L 568.524113 308.899272 
L 568.180746 316.452704 
L 567.158879 276.615168 
L 566.820973 284.704873 
L 566.484411 300.627662 
L 566.149187 310.520237 
L 565.815291 307.246628 
L 564.821498 245.401759 
L 564.492839 251.683081 
L 563.191028 309.296326 
L 562.868744 308.479634 
L 562.227926 294.384784 
L 561.909378 293.381102 
L 561.592061 298.336341 
L 561.275968 299.948703 
L 560.961091 295.663884 
L 560.647425 294.129536 
L 560.023693 308.789513 
L 559.713614 310.755909 
L 559.404717 307.346911 
L 558.790444 293.029931 
L 558.485054 292.93103 
L 557.57579 314.424207 
L 557.274983 314.757592 
L 556.676752 310.820175 
L 556.379315 312.430867 
L 556.082989 312.768212 
L 555.787767 305.66749 
L 555.200613 288.958415 
L 554.908668 284.047828 
L 554.617803 287.933719 
L 554.03929 304.619476 
L 553.75163 306.21112 
L 553.465027 302.235286 
L 552.894966 285.711547 
L 552.611497 289.144635 
L 552.047655 305.273275 
L 551.76727 307.00647 
L 551.487901 307.032236 
L 551.209544 307.530801 
L 550.932192 306.384924 
L 550.655841 303.672984 
L 550.380485 302.29367 
L 550.106118 304.915287 
L 549.832735 309.848229 
L 549.560332 312.232329 
L 549.288901 312.170712 
L 549.01844 312.306053 
L 548.748941 313.401934 
L 548.480401 314.002363 
L 548.212813 314.12885 
L 547.415719 315.237236 
L 547.151893 314.158658 
L 546.627021 308.301197 
L 546.105823 302.617564 
L 545.846589 301.729025 
L 545.330828 303.376157 
L 544.818646 302.194576 
L 544.563885 303.12791 
L 543.804868 308.701302 
L 542.804964 314.207479 
L 542.557123 316.060248 
L 542.310126 315.328392 
L 542.06397 309.352479 
L 541.330505 271.122852 
L 541.08767 274.875515 
L 540.604454 300.874467 
L 540.364066 291.656207 
L 540.124484 259.585785 
L 539.647727 166.421466 
L 539.410543 144.502161 
L 539.17415 172.160321 
L 538.703723 295.648141 
L 538.46968 314.247733 
L 538.236413 310.679551 
L 538.003917 301.207067 
L 537.77219 297.943796 
L 537.311023 312.011193 
L 537.081576 309.064801 
L 536.397738 275.580618 
L 536.171281 279.952742 
L 535.720577 299.673049 
L 535.496323 298.576921 
L 535.272797 288.28691 
L 535.049994 270.683278 
L 534.827912 265.207056 
L 534.606547 276.978498 
L 534.165954 307.765894 
L 533.946719 312.627407 
L 533.728187 309.719567 
L 533.510355 304.436361 
L 533.293219 303.595629 
L 532.861024 311.034126 
L 532.645958 310.177535 
L 532.431575 308.053961 
L 532.217871 307.879423 
L 532.004845 308.249152 
L 531.792492 303.392594 
L 531.369795 281.55502 
L 531.159443 279.108493 
L 530.949753 286.430655 
L 530.532343 310.541674 
L 530.324617 313.81103 
L 530.117539 313.200813 
L 529.911107 313.409344 
L 529.500167 316.151983 
L 529.295654 314.918402 
L 528.888525 308.20977 
L 528.483907 294.125779 
L 528.282532 293.780271 
L 528.081777 298.013988 
L 527.881637 295.792027 
L 527.284889 272.039807 
L 527.087186 256.481582 
L 526.890086 249.807159 
L 526.107652 312.441955 
L 525.913522 312.312754 
L 525.719978 311.104041 
L 525.527018 311.741433 
L 525.334638 313.362874 
L 525.142836 313.789248 
L 524.951609 312.987047 
L 524.570873 309.67491 
L 524.192408 305.784559 
L 524.00402 306.788441 
L 523.628924 316.309758 
L 523.44221 316.326847 
L 523.256048 313.960994 
L 522.700856 304.017417 
L 522.333448 307.738831 
L 521.968192 312.596494 
L 521.786366 315.782437 
L 521.605071 315.373534 
L 521.424305 308.360147 
L 520.885157 265.493031 
L 520.706483 262.887073 
L 520.528327 271.396784 
L 520.173558 312.249129 
L 519.996941 315.369164 
L 519.470133 264.854303 
L 519.295537 264.816274 
L 518.77474 310.124552 
L 518.602131 308.635671 
L 518.430013 302.242049 
L 518.087243 278.075328 
L 517.916587 276.300384 
L 517.070511 309.262817 
L 516.902723 312.400456 
L 516.735406 310.036748 
L 516.402176 301.403769 
L 516.236259 301.57207 
L 516.070806 298.208 
L 515.905814 292.528284 
L 515.741281 291.361425 
L 515.250419 313.138107 
L 515.087704 305.25871 
L 514.60225 241.476514 
L 514.441323 236.413218 
L 514.280838 243.401416 
L 513.80202 292.336101 
L 513.643287 282.448833 
L 513.327118 246.817048 
L 513.16968 247.203499 
L 512.544189 316.707922 
L 512.233978 311.006935 
L 512.079499 310.981272 
L 511.925437 309.243815 
L 511.618554 297.926523 
L 511.46573 295.912786 
L 511.313316 298.597423 
L 511.009708 315.286823 
L 510.858512 313.796749 
L 510.407334 280.315485 
L 510.25774 280.530053 
L 509.663313 313.784219 
L 509.515685 315.351664 
L 509.368447 314.314364 
L 509.221595 309.530507 
L 508.783349 281.242141 
L 508.638031 280.209733 
L 508.493092 285.546467 
L 508.204349 302.936428 
L 508.060541 303.506498 
L 507.774044 298.292873 
L 507.489031 292.090474 
L 506.923408 316.504614 
L 506.782912 315.999438 
L 506.642777 315.93084 
L 506.503001 316.450647 
L 506.363583 316.273374 
L 506.224522 313.31961 
L 505.809466 300.451156 
L 505.671819 301.901535 
L 505.124716 314.269403 
L 504.988805 311.841647 
L 504.583128 291.182582 
L 504.448583 292.730166 
L 504.046973 313.995383 
L 503.913773 314.935686 
L 503.780907 312.445384 
L 503.516168 302.885174 
L 503.384294 301.937298 
L 503.252748 303.524854 
L 502.729822 314.127359 
L 502.599898 315.164737 
L 502.470296 315.103864 
L 502.341014 314.178427 
L 502.083404 309.754524 
L 501.699357 299.740479 
L 501.571969 301.770291 
L 501.318126 311.051829 
L 501.191669 310.665344 
L 500.939679 299.356376 
L 500.814143 298.574774 
L 500.563986 305.438325 
L 500.315039 312.109455 
L 500.067293 314.44601 
L 499.820741 315.97583 
L 499.69791 315.597019 
L 499.575374 311.658616 
L 499.331182 290.653291 
L 499.088158 268.8698 
L 498.846294 294.61765 
L 498.725793 289.178401 
L 498.127573 162.735692 
L 497.654072 311.282096 
L 497.418992 299.345458 
L 497.301866 302.801149 
L 497.068437 314.085638 
L 496.720338 286.531562 
L 496.374669 294.193294 
L 496.259981 291.350781 
L 496.031404 267.426868 
L 495.917512 256.4977 
L 495.803884 262.231853 
L 495.464571 309.633203 
L 495.239664 313.612487 
L 495.127597 314.299109 
L 495.015788 311.127215 
L 494.792938 300.665446 
L 494.681895 300.67331 
L 494.571105 301.552419 
L 494.460569 298.087829 
L 494.130467 260.2138 
L 494.020933 262.133724 
L 493.693818 307.654474 
L 493.368918 297.242762 
L 493.046208 316.103296 
L 492.939122 315.708079 
L 492.725669 310.672391 
L 492.51317 301.382106 
L 492.407276 301.367774 
L 492.301619 298.315862 
L 491.881336 261.338168 
L 491.776848 260.521781 
L 491.568566 285.499199 
L 491.361204 305.287012 
L 490.949216 310.836418 
L 490.744578 314.612569 
L 490.642595 314.817698 
L 490.540835 313.712979 
L 490.236889 306.671525 
L 489.934926 316.669485 
L 489.834709 315.653145 
L 489.53536 307.974496 
L 489.436009 308.259292 
L 489.336873 309.313579 
L 489.040744 316.275754 
L 488.942459 316.753922 
L 488.844386 316.268514 
L 488.64887 306.032199 
L 488.357163 269.196148 
L 488.260343 275.319572 
L 487.971119 316.255701 
L 487.875121 310.993171 
L 487.588347 256.130824 
L 487.398176 278.431802 
L 487.208808 315.585406 
L 487.114423 306.557691 
L 486.832459 259.05373 
L 486.738866 267.541202 
L 486.552267 311.92755 
L 486.459261 310.136041 
L 486.273831 299.047087 
L 486.181407 300.751174 
L 485.997135 315.31943 
L 485.722161 281.864475 
L 485.630883 283.699826 
L 485.358181 308.647162 
L 485.087166 211.559713 
L 484.997199 213.871207 
L 484.639177 307.616437 
L 484.55013 305.4727 
L 484.284079 278.28895 
L 484.107615 273.496786 
L 484.019653 269.97502 
L 483.931869 276.67206 
L 483.756836 310.354693 
L 483.669586 305.820467 
L 483.408893 259.742258 
L 483.063752 315.859644 
L 482.806714 286.757564 
L 482.551219 312.939093 
L 482.466395 311.300416 
L 482.212935 301.01936 
L 482.044803 301.534543 
L 481.960987 293.538979 
L 481.710536 243.832597 
L 481.378908 285.89879 
L 481.296409 288.705132 
L 481.131899 285.825527 
L 480.723442 316.468483 
L 480.64223 316.493402 
L 480.561177 315.845485 
L 480.238541 308.812587 
L 480.158274 309.69479 
L 479.918407 314.935182 
L 479.838761 314.718845 
L 479.679931 313.911813 
L 479.521714 314.660662 
L 479.442834 312.899484 
L 479.12883 282.700205 
L 478.97273 299.600027 
L 478.817228 315.231251 
L 478.662319 301.210001 
L 478.508001 285.824964 
L 478.431062 286.409031 
L 478.201123 311.544395 
L 477.820786 300.107404 
L 477.745149 298.840363 
L 477.669655 299.097347 
L 477.369097 316.220558 
L 477.29431 314.793333 
L 476.922472 290.993447 
L 476.554091 316.715124 
L 476.407695 303.28176 
L 476.189119 286.258909 
L 476.116529 289.015774 
L 475.899564 308.524255 
L 475.612137 246.95575 
L 475.54061 250.112786 
L 475.255811 316.415466 
L 475.184936 313.616463 
L 474.832496 299.535938 
L 474.762393 299.970831 
L 474.622567 304.142537 
L 474.552844 303.068464 
L 474.275212 281.563423 
L 474.206117 281.839086 
L 473.930979 306.99819 
L 473.862503 305.884203 
L 473.72592 290.599011 
L 473.589826 274.436379 
L 473.521961 279.238236 
L 473.319094 303.912149 
L 473.050286 269.959235 
L 472.849931 311.883141 
L 472.783382 307.549702 
L 472.650638 298.537497 
L 472.584441 299.698663 
L 472.386552 314.467511 
L 472.32082 314.422853 
L 472.059049 311.679684 
L 471.92885 301.330107 
L 471.734405 274.428842 
L 471.669816 277.607827 
L 471.412583 305.347653 
L 471.157132 297.198325 
L 471.093546 298.845862 
L 470.966702 308.609186 
L 470.903445 307.859723 
L 470.777257 298.512043 
L 470.714326 298.732462 
L 470.463683 316.294541 
L 470.276826 315.088535 
L 470.214754 315.083974 
L 470.090926 314.653664 
L 470.029171 314.704705 
L 469.905976 315.614163 
L 469.7832 316.732872 
L 469.721968 316.289448 
L 469.660841 313.263668 
L 469.478078 290.988555 
L 469.417364 292.882381 
L 469.235834 316.507905 
L 469.175528 311.662612 
L 468.935317 249.164434 
L 468.756216 316.312032 
L 468.696716 304.78747 
L 468.51881 265.892994 
L 468.341794 315.827097 
L 468.282985 308.602571 
L 468.16566 299.312541 
L 468.048725 315.506975 
L 467.990402 313.933798 
L 467.816014 283.309952 
L 467.642488 315.053833 
L 467.527281 272.917582 
L 467.412452 218.59315 
L 467.355179 235.948678 
L 467.183923 315.24934 
L 467.127025 316.39915 
L 466.956888 300.242917 
L 466.787582 234.218393 
L 466.787582 234.218393 
" clip-path="url(#p4011cf3f2f)" style="fill: none; stroke: #1f77b4; stroke-width: 1.5; stroke-linecap: square"/>
   </g>
   <g id="line2d_25">
    <path d="M 466.799375 211.111001 
L 812.399375 211.111001 
" clip-path="url(#p4011cf3f2f)" style="fill: none; stroke-dasharray: 1.5,2.475; stroke-dashoffset: 0; stroke: #000000; stroke-width: 1.5"/>
   </g>
   <g id="patch_8">
    <path d="M 466.799375 316.8 
L 466.799375 43.2 
" style="fill: none; stroke: #000000; stroke-width: 0.8; stroke-linejoin: miter; stroke-linecap: square"/>
   </g>
   <g id="patch_9">
    <path d="M 812.399375 316.8 
L 812.399375 43.2 
" style="fill: none; stroke: #000000; stroke-width: 0.8; stroke-linejoin: miter; stroke-linecap: square"/>
   </g>
   <g id="patch_10">
    <path d="M 466.799375 316.8 
L 812.399375 316.8 
" style="fill: none; stroke: #000000; stroke-width: 0.8; stroke-linejoin: miter; stroke-linecap: square"/>
   </g>
   <g id="patch_11">
    <path d="M 466.799375 43.2 
L 812.399375 43.2 
" style="fill: none; stroke: #000000; stroke-width: 0.8; stroke-linejoin: miter; stroke-linecap: square"/>
   </g>
  </g>
  <g id="axes_3">
   <g id="patch_12">
    <path d="M 665.519375 158.4 
L 795.119375 158.4 
L 795.119375 50.4 
L 665.519375 50.4 
z
" style="fill: #ffffff"/>
   </g>
   <g id="matplotlib.axis_5">
    <g id="xtick_13">
     <g id="line2d_26">
      <g>
       <use xlink:href="#m3aee0fc79a" x="671.410284" y="158.4" style="stroke: #000000; stroke-width: 0.8"/>
      </g>
     </g>
     <g id="text_27">
      <!-- 0.0 -->
      <g transform="translate(663.458722 172.998437)scale(0.1 -0.1)">
       <use xlink:href="#DejaVuSans-30"/>
       <use xlink:href="#DejaVuSans-2e" x="63.623047"/>
       <use xlink:href="#DejaVuSans-30" x="95.410156"/>
      </g>
     </g>
    </g>
    <g id="xtick_14">
     <g id="line2d_27">
      <g>
       <use xlink:href="#m3aee0fc79a" x="730.319375" y="158.4" style="stroke: #000000; stroke-width: 0.8"/>
      </g>
     </g>
     <g id="text_28">
      <!-- 0.5 -->
      <g transform="translate(722.367813 172.998437)scale(0.1 -0.1)">
       <use xlink:href="#DejaVuSans-30"/>
       <use xlink:href="#DejaVuSans-2e" x="63.623047"/>
       <use xlink:href="#DejaVuSans-35" x="95.410156"/>
      </g>
     </g>
    </g>
    <g id="xtick_15">
     <g id="line2d_28">
      <g>
       <use xlink:href="#m3aee0fc79a" x="789.228466" y="158.4" style="stroke: #000000; stroke-width: 0.8"/>
      </g>
     </g>
     <g id="text_29">
      <!-- 1.0 -->
      <g transform="translate(781.276903 172.998437)scale(0.1 -0.1)">
       <use xlink:href="#DejaVuSans-31"/>
       <use xlink:href="#DejaVuSans-2e" x="63.623047"/>
       <use xlink:href="#DejaVuSans-30" x="95.410156"/>
      </g>
     </g>
    </g>
    <g id="text_30">
     <!-- phase -->
     <g transform="translate(712.213438 188.19625)scale(0.12 -0.12)">
      <defs>
       <path id="DejaVuSans-68" d="M 3513 2113 
L 3513 0 
L 2938 0 
L 2938 2094 
Q 2938 2591 2744 2837 
Q 2550 3084 2163 3084 
Q 1697 3084 1428 2787 
Q 1159 2491 1159 1978 
L 1159 0 
L 581 0 
L 581 4863 
L 1159 4863 
L 1159 2956 
Q 1366 3272 1645 3428 
Q 1925 3584 2291 3584 
Q 2894 3584 3203 3211 
Q 3513 2838 3513 2113 
z
" transform="scale(0.015625)"/>
      </defs>
      <use xlink:href="#DejaVuSans-70"/>
      <use xlink:href="#DejaVuSans-68" x="63.476562"/>
      <use xlink:href="#DejaVuSans-61" x="126.855469"/>
      <use xlink:href="#DejaVuSans-73" x="188.134766"/>
      <use xlink:href="#DejaVuSans-65" x="240.234375"/>
     </g>
    </g>
   </g>
   <g id="matplotlib.axis_6">
    <g id="ytick_11">
     <g id="line2d_29">
      <g>
       <use xlink:href="#m18bf36a558" x="665.519375" y="68.052901" style="stroke: #000000; stroke-width: 0.8"/>
      </g>
     </g>
     <g id="text_31">
      <!-- 14.6 -->
      <g transform="translate(636.25375 71.852119)scale(0.1 -0.1)">
       <use xlink:href="#DejaVuSans-31"/>
       <use xlink:href="#DejaVuSans-34" x="63.623047"/>
       <use xlink:href="#DejaVuSans-2e" x="127.246094"/>
       <use xlink:href="#DejaVuSans-36" x="159.033203"/>
      </g>
     </g>
    </g>
    <g id="ytick_12">
     <g id="line2d_30">
      <g>
       <use xlink:href="#m18bf36a558" x="665.519375" y="91.815144" style="stroke: #000000; stroke-width: 0.8"/>
      </g>
     </g>
     <g id="text_32">
      <!-- 14.8 -->
      <g transform="translate(636.25375 95.614363)scale(0.1 -0.1)">
       <use xlink:href="#DejaVuSans-31"/>
       <use xlink:href="#DejaVuSans-34" x="63.623047"/>
       <use xlink:href="#DejaVuSans-2e" x="127.246094"/>
       <use xlink:href="#DejaVuSans-38" x="159.033203"/>
      </g>
     </g>
    </g>
    <g id="ytick_13">
     <g id="line2d_31">
      <g>
       <use xlink:href="#m18bf36a558" x="665.519375" y="115.577387" style="stroke: #000000; stroke-width: 0.8"/>
      </g>
     </g>
     <g id="text_33">
      <!-- 15.0 -->
      <g transform="translate(636.25375 119.376606)scale(0.1 -0.1)">
       <use xlink:href="#DejaVuSans-31"/>
       <use xlink:href="#DejaVuSans-35" x="63.623047"/>
       <use xlink:href="#DejaVuSans-2e" x="127.246094"/>
       <use xlink:href="#DejaVuSans-30" x="159.033203"/>
      </g>
     </g>
    </g>
    <g id="ytick_14">
     <g id="line2d_32">
      <g>
       <use xlink:href="#m18bf36a558" x="665.519375" y="139.339631" style="stroke: #000000; stroke-width: 0.8"/>
      </g>
     </g>
     <g id="text_34">
      <!-- 15.2 -->
      <g transform="translate(636.25375 143.138849)scale(0.1 -0.1)">
       <use xlink:href="#DejaVuSans-31"/>
       <use xlink:href="#DejaVuSans-35" x="63.623047"/>
       <use xlink:href="#DejaVuSans-2e" x="127.246094"/>
       <use xlink:href="#DejaVuSans-32" x="159.033203"/>
      </g>
     </g>
    </g>
    <g id="text_35">
     <!-- mag -->
     <g transform="translate(629.758125 117.730312)rotate(-90)scale(0.12 -0.12)">
      <use xlink:href="#DejaVuSans-6d"/>
      <use xlink:href="#DejaVuSans-61" x="97.412109"/>
      <use xlink:href="#DejaVuSans-67" x="158.691406"/>
     </g>
    </g>
   </g>
   <g id="LineCollection_2">
    <path d="M 676.841601 99.314402 
L 676.841601 106.694594 
" clip-path="url(#pa70be8c12e)" style="fill: none; stroke: #000000; stroke-width: 1.5"/>
    <path d="M 708.04599 122.371809 
L 708.04599 128.001778 
" clip-path="url(#pa70be8c12e)" style="fill: none; stroke: #000000; stroke-width: 1.5"/>
    <path d="M 762.850881 55.309091 
L 762.850881 64.084968 
" clip-path="url(#pa70be8c12e)" style="fill: none; stroke: #000000; stroke-width: 1.5"/>
    <path d="M 756.230595 81.185738 
L 756.230595 89.51571 
" clip-path="url(#pa70be8c12e)" style="fill: none; stroke: #000000; stroke-width: 1.5"/>
    <path d="M 694.092743 120.304589 
L 694.092743 125.426031 
" clip-path="url(#pa70be8c12e)" style="fill: none; stroke: #000000; stroke-width: 1.5"/>
    <path d="M 726.913435 134.236105 
L 726.913435 143.553367 
" clip-path="url(#pa70be8c12e)" style="fill: none; stroke: #000000; stroke-width: 1.5"/>
    <path d="M 736.347356 143.936204 
L 736.347356 150.533045 
" clip-path="url(#pa70be8c12e)" style="fill: none; stroke: #000000; stroke-width: 1.5"/>
    <path d="M 701.762701 132.57797 
L 701.762701 140.413926 
" clip-path="url(#pa70be8c12e)" style="fill: none; stroke: #000000; stroke-width: 1.5"/>
    <path d="M 739.264659 147.032736 
L 739.264659 152.311716 
" clip-path="url(#pa70be8c12e)" style="fill: none; stroke: #000000; stroke-width: 1.5"/>
    <path d="M 766.928724 67.294551 
L 766.928724 71.069206 
" clip-path="url(#pa70be8c12e)" style="fill: none; stroke: #000000; stroke-width: 1.5"/>
    <path d="M 744.759623 145.62606 
L 744.759623 149.226826 
" clip-path="url(#pa70be8c12e)" style="fill: none; stroke: #000000; stroke-width: 1.5"/>
    <path d="M 759.406846 67.396152 
L 759.406846 71.064136 
" clip-path="url(#pa70be8c12e)" style="fill: none; stroke: #000000; stroke-width: 1.5"/>
    <path d="M 692.717613 120.924989 
L 692.717613 127.605545 
" clip-path="url(#pa70be8c12e)" style="fill: none; stroke: #000000; stroke-width: 1.5"/>
    <path d="M 731.060558 135.03087 
L 731.060558 138.210017 
" clip-path="url(#pa70be8c12e)" style="fill: none; stroke: #000000; stroke-width: 1.5"/>
    <path d="M 700.724217 125.915995 
L 700.724217 128.434156 
" clip-path="url(#pa70be8c12e)" style="fill: none; stroke: #000000; stroke-width: 1.5"/>
    <path d="M 736.457611 133.870883 
L 736.457611 142.18527 
" clip-path="url(#pa70be8c12e)" style="fill: none; stroke: #000000; stroke-width: 1.5"/>
    <path d="M 688.808649 117.312846 
L 688.808649 120.397739 
" clip-path="url(#pa70be8c12e)" style="fill: none; stroke: #000000; stroke-width: 1.5"/>
    <path d="M 707.35295 124.324947 
L 707.35295 129.913241 
" clip-path="url(#pa70be8c12e)" style="fill: none; stroke: #000000; stroke-width: 1.5"/>
    <path d="M 780.094186 84.504426 
L 780.094186 90.362997 
" clip-path="url(#pa70be8c12e)" style="fill: none; stroke: #000000; stroke-width: 1.5"/>
    <path d="M 684.651966 116.419895 
L 684.651966 123.217839 
" clip-path="url(#pa70be8c12e)" style="fill: none; stroke: #000000; stroke-width: 1.5"/>
    <path d="M 786.114326 95.104528 
L 786.114326 101.073707 
" clip-path="url(#pa70be8c12e)" style="fill: none; stroke: #000000; stroke-width: 1.5"/>
    <path d="M 701.177502 122.634067 
L 701.177502 131.692304 
" clip-path="url(#pa70be8c12e)" style="fill: none; stroke: #000000; stroke-width: 1.5"/>
    <path d="M 756.92617 70.07973 
L 756.92617 77.805287 
" clip-path="url(#pa70be8c12e)" style="fill: none; stroke: #000000; stroke-width: 1.5"/>
    <path d="M 693.058133 118.761656 
L 693.058133 125.233064 
" clip-path="url(#pa70be8c12e)" style="fill: none; stroke: #000000; stroke-width: 1.5"/>
    <path d="M 703.88045 123.341749 
L 703.88045 130.118304 
" clip-path="url(#pa70be8c12e)" style="fill: none; stroke: #000000; stroke-width: 1.5"/>
    <path d="M 689.2541 117.686363 
L 689.2541 123.673627 
" clip-path="url(#pa70be8c12e)" style="fill: none; stroke: #000000; stroke-width: 1.5"/>
    <path d="M 777.494875 87.918195 
L 777.494875 97.171891 
" clip-path="url(#pa70be8c12e)" style="fill: none; stroke: #000000; stroke-width: 1.5"/>
    <path d="M 722.990754 130.670993 
L 722.990754 134.66276 
" clip-path="url(#pa70be8c12e)" style="fill: none; stroke: #000000; stroke-width: 1.5"/>
    <path d="M 772.031058 77.058154 
L 772.031058 84.346227 
" clip-path="url(#pa70be8c12e)" style="fill: none; stroke: #000000; stroke-width: 1.5"/>
    <path d="M 712.318591 124.813716 
L 712.318591 131.147043 
" clip-path="url(#pa70be8c12e)" style="fill: none; stroke: #000000; stroke-width: 1.5"/>
    <path d="M 713.560762 127.269035 
L 713.560762 129.944748 
" clip-path="url(#pa70be8c12e)" style="fill: none; stroke: #000000; stroke-width: 1.5"/>
    <path d="M 744.738106 135.624967 
L 744.738106 140.112348 
" clip-path="url(#pa70be8c12e)" style="fill: none; stroke: #000000; stroke-width: 1.5"/>
    <path d="M 705.855515 122.59437 
L 705.855515 131.580064 
" clip-path="url(#pa70be8c12e)" style="fill: none; stroke: #000000; stroke-width: 1.5"/>
    <path d="M 747.284279 125.346559 
L 747.284279 133.31569 
" clip-path="url(#pa70be8c12e)" style="fill: none; stroke: #000000; stroke-width: 1.5"/>
    <path d="M 784.232826 95.166423 
L 784.232826 97.634116 
" clip-path="url(#pa70be8c12e)" style="fill: none; stroke: #000000; stroke-width: 1.5"/>
    <path d="M 720.179011 129.443832 
L 720.179011 133.934608 
" clip-path="url(#pa70be8c12e)" style="fill: none; stroke: #000000; stroke-width: 1.5"/>
    <path d="M 758.795577 67.959834 
L 758.795577 70.405957 
" clip-path="url(#pa70be8c12e)" style="fill: none; stroke: #000000; stroke-width: 1.5"/>
    <path d="M 722.458202 128.067174 
L 722.458202 136.342139 
" clip-path="url(#pa70be8c12e)" style="fill: none; stroke: #000000; stroke-width: 1.5"/>
    <path d="M 716.706328 134.081161 
L 716.706328 137.24416 
" clip-path="url(#pa70be8c12e)" style="fill: none; stroke: #000000; stroke-width: 1.5"/>
    <path d="M 788.696115 99.656244 
L 788.696115 102.442048 
" clip-path="url(#pa70be8c12e)" style="fill: none; stroke: #000000; stroke-width: 1.5"/>
    <path d="M 741.630666 144.115159 
L 741.630666 153.490909 
" clip-path="url(#pa70be8c12e)" style="fill: none; stroke: #000000; stroke-width: 1.5"/>
    <path d="M 720.239883 128.246631 
L 720.239883 133.801316 
" clip-path="url(#pa70be8c12e)" style="fill: none; stroke: #000000; stroke-width: 1.5"/>
    <path d="M 698.178296 122.349919 
L 698.178296 126.995863 
" clip-path="url(#pa70be8c12e)" style="fill: none; stroke: #000000; stroke-width: 1.5"/>
    <path d="M 740.794006 146.50451 
L 740.794006 149.230135 
" clip-path="url(#pa70be8c12e)" style="fill: none; stroke: #000000; stroke-width: 1.5"/>
    <path d="M 689.447232 116.472111 
L 689.447232 121.625633 
" clip-path="url(#pa70be8c12e)" style="fill: none; stroke: #000000; stroke-width: 1.5"/>
    <path d="M 785.129901 95.191094 
L 785.129901 100.176691 
" clip-path="url(#pa70be8c12e)" style="fill: none; stroke: #000000; stroke-width: 1.5"/>
    <path d="M 684.367763 107.607116 
L 684.367763 113.715063 
" clip-path="url(#pa70be8c12e)" style="fill: none; stroke: #000000; stroke-width: 1.5"/>
    <path d="M 780.820172 91.938528 
L 780.820172 94.363124 
" clip-path="url(#pa70be8c12e)" style="fill: none; stroke: #000000; stroke-width: 1.5"/>
    <path d="M 740.630821 144.024582 
L 740.630821 147.455585 
" clip-path="url(#pa70be8c12e)" style="fill: none; stroke: #000000; stroke-width: 1.5"/>
    <path d="M 760.683668 67.778287 
L 760.683668 71.650724 
" clip-path="url(#pa70be8c12e)" style="fill: none; stroke: #000000; stroke-width: 1.5"/>
   </g>
   <g id="line2d_33">
    <path d="M 671.410284 91.160907 
L 673.814737 93.610917 
L 676.219189 96.388559 
L 678.623642 99.448225 
L 681.028095 102.739675 
L 683.432548 106.208863 
L 685.837 109.798826 
L 688.241453 113.450615 
L 690.645906 117.10427 
L 693.050358 120.699797 
L 695.454811 124.178157 
L 697.859264 127.482236 
L 700.263716 130.557782 
L 702.668169 133.354293 
L 705.072622 135.825851 
L 707.477074 137.931874 
L 709.881527 139.63778 
L 712.28598 140.915558 
L 714.690433 141.744228 
L 717.094885 142.110182 
L 719.499338 142.007412 
L 721.903791 141.437605 
L 724.308243 140.410118 
L 726.712696 138.941821 
L 729.117149 137.056824 
L 731.521601 134.786079 
L 733.926054 132.166871 
L 736.330507 129.242208 
L 738.734959 126.060112 
L 741.139412 122.672833 
L 743.543865 119.135991 
L 745.948317 115.50766 
L 748.35277 111.847418 
L 750.757223 108.215365 
L 753.161676 104.671139 
L 755.566128 101.272938 
L 757.970581 98.076558 
L 760.375034 95.134485 
L 762.779486 92.495027 
L 765.183939 90.201524 
L 767.588392 88.291636 
L 769.992844 86.796723 
L 772.397297 85.74133 
L 774.80175 85.142788 
L 777.206202 85.010925 
L 779.610655 85.347906 
L 782.015108 86.148198 
L 784.419561 87.398659 
L 786.824013 89.078758 
L 789.228466 91.160907 
" clip-path="url(#pa70be8c12e)" style="fill: none; stroke: #1f77b4; stroke-width: 1.5; stroke-linecap: square"/>
   </g>
   <g id="line2d_34">
    <defs>
     <path id="m5366ec005e" d="M 0 1.5 
C 0.397805 1.5 0.77937 1.341951 1.06066 1.06066 
C 1.341951 0.77937 1.5 0.397805 1.5 0 
C 1.5 -0.397805 1.341951 -0.77937 1.06066 -1.06066 
C 0.77937 -1.341951 0.397805 -1.5 0 -1.5 
C -0.397805 -1.5 -0.77937 -1.341951 -1.06066 -1.06066 
C -1.341951 -0.77937 -1.5 -0.397805 -1.5 0 
C -1.5 0.397805 -1.341951 0.77937 -1.06066 1.06066 
C -0.77937 1.341951 -0.397805 1.5 0 1.5 
z
" style="stroke: #000000"/>
    </defs>
    <g clip-path="url(#pa70be8c12e)">
     <use xlink:href="#m5366ec005e" x="676.841601" y="103.004498" style="stroke: #000000"/>
     <use xlink:href="#m5366ec005e" x="708.04599" y="125.186793" style="stroke: #000000"/>
     <use xlink:href="#m5366ec005e" x="762.850881" y="59.69703" style="stroke: #000000"/>
     <use xlink:href="#m5366ec005e" x="756.230595" y="85.350724" style="stroke: #000000"/>
     <use xlink:href="#m5366ec005e" x="694.092743" y="122.86531" style="stroke: #000000"/>
     <use xlink:href="#m5366ec005e" x="726.913435" y="138.894736" style="stroke: #000000"/>
     <use xlink:href="#m5366ec005e" x="736.347356" y="147.234624" style="stroke: #000000"/>
     <use xlink:href="#m5366ec005e" x="701.762701" y="136.495948" style="stroke: #000000"/>
     <use xlink:href="#m5366ec005e" x="739.264659" y="149.672226" style="stroke: #000000"/>
     <use xlink:href="#m5366ec005e" x="766.928724" y="69.181878" style="stroke: #000000"/>
     <use xlink:href="#m5366ec005e" x="744.759623" y="147.426443" style="stroke: #000000"/>
     <use xlink:href="#m5366ec005e" x="759.406846" y="69.230144" style="stroke: #000000"/>
     <use xlink:href="#m5366ec005e" x="692.717613" y="124.265267" style="stroke: #000000"/>
     <use xlink:href="#m5366ec005e" x="731.060558" y="136.620444" style="stroke: #000000"/>
     <use xlink:href="#m5366ec005e" x="700.724217" y="127.175075" style="stroke: #000000"/>
     <use xlink:href="#m5366ec005e" x="736.457611" y="138.028076" style="stroke: #000000"/>
     <use xlink:href="#m5366ec005e" x="688.808649" y="118.855292" style="stroke: #000000"/>
     <use xlink:href="#m5366ec005e" x="707.35295" y="127.119094" style="stroke: #000000"/>
     <use xlink:href="#m5366ec005e" x="780.094186" y="87.433711" style="stroke: #000000"/>
     <use xlink:href="#m5366ec005e" x="684.651966" y="119.818867" style="stroke: #000000"/>
     <use xlink:href="#m5366ec005e" x="786.114326" y="98.089118" style="stroke: #000000"/>
     <use xlink:href="#m5366ec005e" x="701.177502" y="127.163185" style="stroke: #000000"/>
     <use xlink:href="#m5366ec005e" x="756.92617" y="73.942509" style="stroke: #000000"/>
     <use xlink:href="#m5366ec005e" x="693.058133" y="121.99736" style="stroke: #000000"/>
     <use xlink:href="#m5366ec005e" x="703.88045" y="126.730027" style="stroke: #000000"/>
     <use xlink:href="#m5366ec005e" x="689.2541" y="120.679995" style="stroke: #000000"/>
     <use xlink:href="#m5366ec005e" x="777.494875" y="92.545043" style="stroke: #000000"/>
     <use xlink:href="#m5366ec005e" x="722.990754" y="132.666876" style="stroke: #000000"/>
     <use xlink:href="#m5366ec005e" x="772.031058" y="80.70219" style="stroke: #000000"/>
     <use xlink:href="#m5366ec005e" x="712.318591" y="127.980379" style="stroke: #000000"/>
     <use xlink:href="#m5366ec005e" x="713.560762" y="128.606892" style="stroke: #000000"/>
     <use xlink:href="#m5366ec005e" x="744.738106" y="137.868658" style="stroke: #000000"/>
     <use xlink:href="#m5366ec005e" x="705.855515" y="127.087217" style="stroke: #000000"/>
     <use xlink:href="#m5366ec005e" x="747.284279" y="129.331124" style="stroke: #000000"/>
     <use xlink:href="#m5366ec005e" x="784.232826" y="96.400269" style="stroke: #000000"/>
     <use xlink:href="#m5366ec005e" x="720.179011" y="131.68922" style="stroke: #000000"/>
     <use xlink:href="#m5366ec005e" x="758.795577" y="69.182895" style="stroke: #000000"/>
     <use xlink:href="#m5366ec005e" x="722.458202" y="132.204656" style="stroke: #000000"/>
     <use xlink:href="#m5366ec005e" x="716.706328" y="135.66266" style="stroke: #000000"/>
     <use xlink:href="#m5366ec005e" x="788.696115" y="101.049146" style="stroke: #000000"/>
     <use xlink:href="#m5366ec005e" x="741.630666" y="148.803034" style="stroke: #000000"/>
     <use xlink:href="#m5366ec005e" x="720.239883" y="131.023974" style="stroke: #000000"/>
     <use xlink:href="#m5366ec005e" x="698.178296" y="124.672891" style="stroke: #000000"/>
     <use xlink:href="#m5366ec005e" x="740.794006" y="147.867322" style="stroke: #000000"/>
     <use xlink:href="#m5366ec005e" x="689.447232" y="119.048872" style="stroke: #000000"/>
     <use xlink:href="#m5366ec005e" x="785.129901" y="97.683893" style="stroke: #000000"/>
     <use xlink:href="#m5366ec005e" x="684.367763" y="110.661089" style="stroke: #000000"/>
     <use xlink:href="#m5366ec005e" x="780.820172" y="93.150826" style="stroke: #000000"/>
     <use xlink:href="#m5366ec005e" x="740.630821" y="145.740083" style="stroke: #000000"/>
     <use xlink:href="#m5366ec005e" x="760.683668" y="69.714505" style="stroke: #000000"/>
    </g>
   </g>
   <g id="patch_13">
    <path d="M 665.519375 158.4 
L 665.519375 50.4 
" style="fill: none; stroke: #000000; stroke-width: 0.8; stroke-linejoin: miter; stroke-linecap: square"/>
   </g>
   <g id="patch_14">
    <path d="M 795.119375 158.4 
L 795.119375 50.4 
" style="fill: none; stroke: #000000; stroke-width: 0.8; stroke-linejoin: miter; stroke-linecap: square"/>
   </g>
   <g id="patch_15">
    <path d="M 665.519375 158.4 
L 795.119375 158.4 
" style="fill: none; stroke: #000000; stroke-width: 0.8; stroke-linejoin: miter; stroke-linecap: square"/>
   </g>
   <g id="patch_16">
    <path d="M 665.519375 50.4 
L 795.119375 50.4 
" style="fill: none; stroke: #000000; stroke-width: 0.8; stroke-linejoin: miter; stroke-linecap: square"/>
   </g>
  </g>
  <g id="text_36">
   <!-- Lomb-Scargle Periodogram (period=0.41 days) -->
   <g transform="translate(282.31625 16.318125)scale(0.12 -0.12)">
    <defs>
     <path id="DejaVuSans-3d" d="M 678 2906 
L 4684 2906 
L 4684 2381 
L 678 2381 
L 678 2906 
z
M 678 1631 
L 4684 1631 
L 4684 1100 
L 678 1100 
L 678 1631 
z
" transform="scale(0.015625)"/>
    </defs>
    <use xlink:href="#DejaVuSans-4c"/>
    <use xlink:href="#DejaVuSans-6f" x="53.962891"/>
    <use xlink:href="#DejaVuSans-6d" x="115.144531"/>
    <use xlink:href="#DejaVuSans-62" x="212.556641"/>
    <use xlink:href="#DejaVuSans-2d" x="276.033203"/>
    <use xlink:href="#DejaVuSans-53" x="312.117188"/>
    <use xlink:href="#DejaVuSans-63" x="375.59375"/>
    <use xlink:href="#DejaVuSans-61" x="430.574219"/>
    <use xlink:href="#DejaVuSans-72" x="491.853516"/>
    <use xlink:href="#DejaVuSans-67" x="531.216797"/>
    <use xlink:href="#DejaVuSans-6c" x="594.693359"/>
    <use xlink:href="#DejaVuSans-65" x="622.476562"/>
    <use xlink:href="#DejaVuSans-20" x="684"/>
    <use xlink:href="#DejaVuSans-50" x="715.787109"/>
    <use xlink:href="#DejaVuSans-65" x="772.464844"/>
    <use xlink:href="#DejaVuSans-72" x="833.988281"/>
    <use xlink:href="#DejaVuSans-69" x="875.101562"/>
    <use xlink:href="#DejaVuSans-6f" x="902.884766"/>
    <use xlink:href="#DejaVuSans-64" x="964.066406"/>
    <use xlink:href="#DejaVuSans-6f" x="1027.542969"/>
    <use xlink:href="#DejaVuSans-67" x="1088.724609"/>
    <use xlink:href="#DejaVuSans-72" x="1152.201172"/>
    <use xlink:href="#DejaVuSans-61" x="1193.314453"/>
    <use xlink:href="#DejaVuSans-6d" x="1254.59375"/>
    <use xlink:href="#DejaVuSans-20" x="1352.005859"/>
    <use xlink:href="#DejaVuSans-28" x="1383.792969"/>
    <use xlink:href="#DejaVuSans-70" x="1422.806641"/>
    <use xlink:href="#DejaVuSans-65" x="1486.283203"/>
    <use xlink:href="#DejaVuSans-72" x="1547.806641"/>
    <use xlink:href="#DejaVuSans-69" x="1588.919922"/>
    <use xlink:href="#DejaVuSans-6f" x="1616.703125"/>
    <use xlink:href="#DejaVuSans-64" x="1677.884766"/>
    <use xlink:href="#DejaVuSans-3d" x="1741.361328"/>
    <use xlink:href="#DejaVuSans-30" x="1825.150391"/>
    <use xlink:href="#DejaVuSans-2e" x="1888.773438"/>
    <use xlink:href="#DejaVuSans-34" x="1920.560547"/>
    <use xlink:href="#DejaVuSans-31" x="1984.183594"/>
    <use xlink:href="#DejaVuSans-20" x="2047.806641"/>
    <use xlink:href="#DejaVuSans-64" x="2079.59375"/>
    <use xlink:href="#DejaVuSans-61" x="2143.070312"/>
    <use xlink:href="#DejaVuSans-79" x="2204.349609"/>
    <use xlink:href="#DejaVuSans-73" x="2263.529297"/>
    <use xlink:href="#DejaVuSans-29" x="2315.628906"/>
   </g>
  </g>
 </g>
 <defs>
  <clipPath id="pf78a17794a">
   <rect x="52.079375" y="43.2" width="345.6" height="273.6"/>
  </clipPath>
  <clipPath id="p4011cf3f2f">
   <rect x="466.799375" y="43.2" width="345.6" height="273.6"/>
  </clipPath>
  <clipPath id="pa70be8c12e">
   <rect x="665.519375" y="50.4" width="129.6" height="108"/>
  </clipPath>
 </defs>
</svg>
