<?xml version="1.0" encoding="utf-8" standalone="no"?>
<!DOCTYPE svg PUBLIC "-//W3C//DTD SVG 1.1//EN"
  "http://www.w3.org/Graphics/SVG/1.1/DTD/svg11.dtd">
<svg xmlns:xlink="http://www.w3.org/1999/xlink" width="396.096563pt" height="311.29pt" viewBox="0 0 396.096563 311.29" xmlns="http://www.w3.org/2000/svg" version="1.1">
 <metadata>
  <rdf:RDF xmlns:dc="http://purl.org/dc/elements/1.1/" xmlns:cc="http://creativecommons.org/ns#" xmlns:rdf="http://www.w3.org/1999/02/22-rdf-syntax-ns#">
   <cc:Work>
    <dc:type rdf:resource="http://purl.org/dc/dcmitype/StillImage"/>
    <dc:date>2022-05-09T09:56:31.798793</dc:date>
    <dc:format>image/svg+xml</dc:format>
    <dc:creator>
     <cc:Agent>
      <dc:title>Matplotlib v3.5.1, https://matplotlib.org/</dc:title>
     </cc:Agent>
    </dc:creator>
   </cc:Work>
  </rdf:RDF>
 </metadata>
 <defs>
  <style type="text/css">*{stroke-linejoin: round; stroke-linecap: butt}</style>
 </defs>
 <g id="figure_1">
  <g id="patch_1">
   <path d="M 0 311.29 
L 396.096563 311.29 
L 396.096563 0 
L 0 0 
L 0 311.29 
z
" style="fill: none"/>
  </g>
  <g id="axes_1">
   <g id="patch_2">
    <path d="M 54.096563 271.798125 
L 388.896563 271.798125 
L 388.896563 22.318125 
L 54.096563 22.318125 
z
" style="fill: #ffffff"/>
   </g>
   <g id="matplotlib.axis_1">
    <g id="xtick_1">
     <g id="line2d_1">
      <defs>
       <path id="m80eb3dec80" d="M 0 0 
L 0 3.5 
" style="stroke: #000000; stroke-width: 0.8"/>
      </defs>
      <g>
       <use xlink:href="#m80eb3dec80" x="69.314744" y="271.798125" style="stroke: #000000; stroke-width: 0.8"/>
      </g>
     </g>
     <g id="text_1">
      <!-- 0.0 -->
      <g transform="translate(61.363182 286.396562)scale(0.1 -0.1)">
       <defs>
        <path id="DejaVuSans-30" d="M 2034 4250 
Q 1547 4250 1301 3770 
Q 1056 3291 1056 2328 
Q 1056 1369 1301 889 
Q 1547 409 2034 409 
Q 2525 409 2770 889 
Q 3016 1369 3016 2328 
Q 3016 3291 2770 3770 
Q 2525 4250 2034 4250 
z
M 2034 4750 
Q 2819 4750 3233 4129 
Q 3647 3509 3647 2328 
Q 3647 1150 3233 529 
Q 2819 -91 2034 -91 
Q 1250 -91 836 529 
Q 422 1150 422 2328 
Q 422 3509 836 4129 
Q 1250 4750 2034 4750 
z
" transform="scale(0.015625)"/>
        <path id="DejaVuSans-2e" d="M 684 794 
L 1344 794 
L 1344 0 
L 684 0 
L 684 794 
z
" transform="scale(0.015625)"/>
       </defs>
       <use xlink:href="#DejaVuSans-30"/>
       <use xlink:href="#DejaVuSans-2e" x="63.623047"/>
       <use xlink:href="#DejaVuSans-30" x="95.410156"/>
      </g>
     </g>
    </g>
    <g id="xtick_2">
     <g id="line2d_2">
      <g>
       <use xlink:href="#m80eb3dec80" x="130.187472" y="271.798125" style="stroke: #000000; stroke-width: 0.8"/>
      </g>
     </g>
     <g id="text_2">
      <!-- 0.2 -->
      <g transform="translate(122.235909 286.396562)scale(0.1 -0.1)">
       <defs>
        <path id="DejaVuSans-32" d="M 1228 531 
L 3431 531 
L 3431 0 
L 469 0 
L 469 531 
Q 828 903 1448 1529 
Q 2069 2156 2228 2338 
Q 2531 2678 2651 2914 
Q 2772 3150 2772 3378 
Q 2772 3750 2511 3984 
Q 2250 4219 1831 4219 
Q 1534 4219 1204 4116 
Q 875 4013 500 3803 
L 500 4441 
Q 881 4594 1212 4672 
Q 1544 4750 1819 4750 
Q 2544 4750 2975 4387 
Q 3406 4025 3406 3419 
Q 3406 3131 3298 2873 
Q 3191 2616 2906 2266 
Q 2828 2175 2409 1742 
Q 1991 1309 1228 531 
z
" transform="scale(0.015625)"/>
       </defs>
       <use xlink:href="#DejaVuSans-30"/>
       <use xlink:href="#DejaVuSans-2e" x="63.623047"/>
       <use xlink:href="#DejaVuSans-32" x="95.410156"/>
      </g>
     </g>
    </g>
    <g id="xtick_3">
     <g id="line2d_3">
      <g>
       <use xlink:href="#m80eb3dec80" x="191.060199" y="271.798125" style="stroke: #000000; stroke-width: 0.8"/>
      </g>
     </g>
     <g id="text_3">
      <!-- 0.4 -->
      <g transform="translate(183.108636 286.396562)scale(0.1 -0.1)">
       <defs>
        <path id="DejaVuSans-34" d="M 2419 4116 
L 825 1625 
L 2419 1625 
L 2419 4116 
z
M 2253 4666 
L 3047 4666 
L 3047 1625 
L 3713 1625 
L 3713 1100 
L 3047 1100 
L 3047 0 
L 2419 0 
L 2419 1100 
L 313 1100 
L 313 1709 
L 2253 4666 
z
" transform="scale(0.015625)"/>
       </defs>
       <use xlink:href="#DejaVuSans-30"/>
       <use xlink:href="#DejaVuSans-2e" x="63.623047"/>
       <use xlink:href="#DejaVuSans-34" x="95.410156"/>
      </g>
     </g>
    </g>
    <g id="xtick_4">
     <g id="line2d_4">
      <g>
       <use xlink:href="#m80eb3dec80" x="251.932926" y="271.798125" style="stroke: #000000; stroke-width: 0.8"/>
      </g>
     </g>
     <g id="text_4">
      <!-- 0.6 -->
      <g transform="translate(243.981364 286.396562)scale(0.1 -0.1)">
       <defs>
        <path id="DejaVuSans-36" d="M 2113 2584 
Q 1688 2584 1439 2293 
Q 1191 2003 1191 1497 
Q 1191 994 1439 701 
Q 1688 409 2113 409 
Q 2538 409 2786 701 
Q 3034 994 3034 1497 
Q 3034 2003 2786 2293 
Q 2538 2584 2113 2584 
z
M 3366 4563 
L 3366 3988 
Q 3128 4100 2886 4159 
Q 2644 4219 2406 4219 
Q 1781 4219 1451 3797 
Q 1122 3375 1075 2522 
Q 1259 2794 1537 2939 
Q 1816 3084 2150 3084 
Q 2853 3084 3261 2657 
Q 3669 2231 3669 1497 
Q 3669 778 3244 343 
Q 2819 -91 2113 -91 
Q 1303 -91 875 529 
Q 447 1150 447 2328 
Q 447 3434 972 4092 
Q 1497 4750 2381 4750 
Q 2619 4750 2861 4703 
Q 3103 4656 3366 4563 
z
" transform="scale(0.015625)"/>
       </defs>
       <use xlink:href="#DejaVuSans-30"/>
       <use xlink:href="#DejaVuSans-2e" x="63.623047"/>
       <use xlink:href="#DejaVuSans-36" x="95.410156"/>
      </g>
     </g>
    </g>
    <g id="xtick_5">
     <g id="line2d_5">
      <g>
       <use xlink:href="#m80eb3dec80" x="312.805653" y="271.798125" style="stroke: #000000; stroke-width: 0.8"/>
      </g>
     </g>
     <g id="text_5">
      <!-- 0.8 -->
      <g transform="translate(304.854091 286.396562)scale(0.1 -0.1)">
       <defs>
        <path id="DejaVuSans-38" d="M 2034 2216 
Q 1584 2216 1326 1975 
Q 1069 1734 1069 1313 
Q 1069 891 1326 650 
Q 1584 409 2034 409 
Q 2484 409 2743 651 
Q 3003 894 3003 1313 
Q 3003 1734 2745 1975 
Q 2488 2216 2034 2216 
z
M 1403 2484 
Q 997 2584 770 2862 
Q 544 3141 544 3541 
Q 544 4100 942 4425 
Q 1341 4750 2034 4750 
Q 2731 4750 3128 4425 
Q 3525 4100 3525 3541 
Q 3525 3141 3298 2862 
Q 3072 2584 2669 2484 
Q 3125 2378 3379 2068 
Q 3634 1759 3634 1313 
Q 3634 634 3220 271 
Q 2806 -91 2034 -91 
Q 1263 -91 848 271 
Q 434 634 434 1313 
Q 434 1759 690 2068 
Q 947 2378 1403 2484 
z
M 1172 3481 
Q 1172 3119 1398 2916 
Q 1625 2713 2034 2713 
Q 2441 2713 2670 2916 
Q 2900 3119 2900 3481 
Q 2900 3844 2670 4047 
Q 2441 4250 2034 4250 
Q 1625 4250 1398 4047 
Q 1172 3844 1172 3481 
z
" transform="scale(0.015625)"/>
       </defs>
       <use xlink:href="#DejaVuSans-30"/>
       <use xlink:href="#DejaVuSans-2e" x="63.623047"/>
       <use xlink:href="#DejaVuSans-38" x="95.410156"/>
      </g>
     </g>
    </g>
    <g id="xtick_6">
     <g id="line2d_6">
      <g>
       <use xlink:href="#m80eb3dec80" x="373.678381" y="271.798125" style="stroke: #000000; stroke-width: 0.8"/>
      </g>
     </g>
     <g id="text_6">
      <!-- 1.0 -->
      <g transform="translate(365.726818 286.396562)scale(0.1 -0.1)">
       <defs>
        <path id="DejaVuSans-31" d="M 794 531 
L 1825 531 
L 1825 4091 
L 703 3866 
L 703 4441 
L 1819 4666 
L 2450 4666 
L 2450 531 
L 3481 531 
L 3481 0 
L 794 0 
L 794 531 
z
" transform="scale(0.015625)"/>
       </defs>
       <use xlink:href="#DejaVuSans-31"/>
       <use xlink:href="#DejaVuSans-2e" x="63.623047"/>
       <use xlink:href="#DejaVuSans-30" x="95.410156"/>
      </g>
     </g>
    </g>
    <g id="text_7">
     <!-- phase -->
     <g transform="translate(203.390625 301.594375)scale(0.12 -0.12)">
      <defs>
       <path id="DejaVuSans-70" d="M 1159 525 
L 1159 -1331 
L 581 -1331 
L 581 3500 
L 1159 3500 
L 1159 2969 
Q 1341 3281 1617 3432 
Q 1894 3584 2278 3584 
Q 2916 3584 3314 3078 
Q 3713 2572 3713 1747 
Q 3713 922 3314 415 
Q 2916 -91 2278 -91 
Q 1894 -91 1617 61 
Q 1341 213 1159 525 
z
M 3116 1747 
Q 3116 2381 2855 2742 
Q 2594 3103 2138 3103 
Q 1681 3103 1420 2742 
Q 1159 2381 1159 1747 
Q 1159 1113 1420 752 
Q 1681 391 2138 391 
Q 2594 391 2855 752 
Q 3116 1113 3116 1747 
z
" transform="scale(0.015625)"/>
       <path id="DejaVuSans-68" d="M 3513 2113 
L 3513 0 
L 2938 0 
L 2938 2094 
Q 2938 2591 2744 2837 
Q 2550 3084 2163 3084 
Q 1697 3084 1428 2787 
Q 1159 2491 1159 1978 
L 1159 0 
L 581 0 
L 581 4863 
L 1159 4863 
L 1159 2956 
Q 1366 3272 1645 3428 
Q 1925 3584 2291 3584 
Q 2894 3584 3203 3211 
Q 3513 2838 3513 2113 
z
" transform="scale(0.015625)"/>
       <path id="DejaVuSans-61" d="M 2194 1759 
Q 1497 1759 1228 1600 
Q 959 1441 959 1056 
Q 959 750 1161 570 
Q 1363 391 1709 391 
Q 2188 391 2477 730 
Q 2766 1069 2766 1631 
L 2766 1759 
L 2194 1759 
z
M 3341 1997 
L 3341 0 
L 2766 0 
L 2766 531 
Q 2569 213 2275 61 
Q 1981 -91 1556 -91 
Q 1019 -91 701 211 
Q 384 513 384 1019 
Q 384 1609 779 1909 
Q 1175 2209 1959 2209 
L 2766 2209 
L 2766 2266 
Q 2766 2663 2505 2880 
Q 2244 3097 1772 3097 
Q 1472 3097 1187 3025 
Q 903 2953 641 2809 
L 641 3341 
Q 956 3463 1253 3523 
Q 1550 3584 1831 3584 
Q 2591 3584 2966 3190 
Q 3341 2797 3341 1997 
z
" transform="scale(0.015625)"/>
       <path id="DejaVuSans-73" d="M 2834 3397 
L 2834 2853 
Q 2591 2978 2328 3040 
Q 2066 3103 1784 3103 
Q 1356 3103 1142 2972 
Q 928 2841 928 2578 
Q 928 2378 1081 2264 
Q 1234 2150 1697 2047 
L 1894 2003 
Q 2506 1872 2764 1633 
Q 3022 1394 3022 966 
Q 3022 478 2636 193 
Q 2250 -91 1575 -91 
Q 1294 -91 989 -36 
Q 684 19 347 128 
L 347 722 
Q 666 556 975 473 
Q 1284 391 1588 391 
Q 1994 391 2212 530 
Q 2431 669 2431 922 
Q 2431 1156 2273 1281 
Q 2116 1406 1581 1522 
L 1381 1569 
Q 847 1681 609 1914 
Q 372 2147 372 2553 
Q 372 3047 722 3315 
Q 1072 3584 1716 3584 
Q 2034 3584 2315 3537 
Q 2597 3491 2834 3397 
z
" transform="scale(0.015625)"/>
       <path id="DejaVuSans-65" d="M 3597 1894 
L 3597 1613 
L 953 1613 
Q 991 1019 1311 708 
Q 1631 397 2203 397 
Q 2534 397 2845 478 
Q 3156 559 3463 722 
L 3463 178 
Q 3153 47 2828 -22 
Q 2503 -91 2169 -91 
Q 1331 -91 842 396 
Q 353 884 353 1716 
Q 353 2575 817 3079 
Q 1281 3584 2069 3584 
Q 2775 3584 3186 3129 
Q 3597 2675 3597 1894 
z
M 3022 2063 
Q 3016 2534 2758 2815 
Q 2500 3097 2075 3097 
Q 1594 3097 1305 2825 
Q 1016 2553 972 2059 
L 3022 2063 
z
" transform="scale(0.015625)"/>
      </defs>
      <use xlink:href="#DejaVuSans-70"/>
      <use xlink:href="#DejaVuSans-68" x="63.476562"/>
      <use xlink:href="#DejaVuSans-61" x="126.855469"/>
      <use xlink:href="#DejaVuSans-73" x="188.134766"/>
      <use xlink:href="#DejaVuSans-65" x="240.234375"/>
     </g>
    </g>
   </g>
   <g id="matplotlib.axis_2">
    <g id="ytick_1">
     <g id="line2d_7">
      <defs>
       <path id="m948f454a45" d="M 0 0 
L -3.5 0 
" style="stroke: #000000; stroke-width: 0.8"/>
      </defs>
      <g>
       <use xlink:href="#m948f454a45" x="54.096563" y="53.696942" style="stroke: #000000; stroke-width: 0.8"/>
      </g>
     </g>
     <g id="text_8">
      <!-- −1.0 -->
      <g transform="translate(22.81375 57.49616)scale(0.1 -0.1)">
       <defs>
        <path id="DejaVuSans-2212" d="M 678 2272 
L 4684 2272 
L 4684 1741 
L 678 1741 
L 678 2272 
z
" transform="scale(0.015625)"/>
       </defs>
       <use xlink:href="#DejaVuSans-2212"/>
       <use xlink:href="#DejaVuSans-31" x="83.789062"/>
       <use xlink:href="#DejaVuSans-2e" x="147.412109"/>
       <use xlink:href="#DejaVuSans-30" x="179.199219"/>
      </g>
     </g>
    </g>
    <g id="ytick_2">
     <g id="line2d_8">
      <g>
       <use xlink:href="#m948f454a45" x="54.096563" y="97.040833" style="stroke: #000000; stroke-width: 0.8"/>
      </g>
     </g>
     <g id="text_9">
      <!-- −0.5 -->
      <g transform="translate(22.81375 100.840052)scale(0.1 -0.1)">
       <defs>
        <path id="DejaVuSans-35" d="M 691 4666 
L 3169 4666 
L 3169 4134 
L 1269 4134 
L 1269 2991 
Q 1406 3038 1543 3061 
Q 1681 3084 1819 3084 
Q 2600 3084 3056 2656 
Q 3513 2228 3513 1497 
Q 3513 744 3044 326 
Q 2575 -91 1722 -91 
Q 1428 -91 1123 -41 
Q 819 9 494 109 
L 494 744 
Q 775 591 1075 516 
Q 1375 441 1709 441 
Q 2250 441 2565 725 
Q 2881 1009 2881 1497 
Q 2881 1984 2565 2268 
Q 2250 2553 1709 2553 
Q 1456 2553 1204 2497 
Q 953 2441 691 2322 
L 691 4666 
z
" transform="scale(0.015625)"/>
       </defs>
       <use xlink:href="#DejaVuSans-2212"/>
       <use xlink:href="#DejaVuSans-30" x="83.789062"/>
       <use xlink:href="#DejaVuSans-2e" x="147.412109"/>
       <use xlink:href="#DejaVuSans-35" x="179.199219"/>
      </g>
     </g>
    </g>
    <g id="ytick_3">
     <g id="line2d_9">
      <g>
       <use xlink:href="#m948f454a45" x="54.096563" y="140.384724" style="stroke: #000000; stroke-width: 0.8"/>
      </g>
     </g>
     <g id="text_10">
      <!-- 0.0 -->
      <g transform="translate(31.193438 144.183943)scale(0.1 -0.1)">
       <use xlink:href="#DejaVuSans-30"/>
       <use xlink:href="#DejaVuSans-2e" x="63.623047"/>
       <use xlink:href="#DejaVuSans-30" x="95.410156"/>
      </g>
     </g>
    </g>
    <g id="ytick_4">
     <g id="line2d_10">
      <g>
       <use xlink:href="#m948f454a45" x="54.096563" y="183.728616" style="stroke: #000000; stroke-width: 0.8"/>
      </g>
     </g>
     <g id="text_11">
      <!-- 0.5 -->
      <g transform="translate(31.193438 187.527834)scale(0.1 -0.1)">
       <use xlink:href="#DejaVuSans-30"/>
       <use xlink:href="#DejaVuSans-2e" x="63.623047"/>
       <use xlink:href="#DejaVuSans-35" x="95.410156"/>
      </g>
     </g>
    </g>
    <g id="ytick_5">
     <g id="line2d_11">
      <g>
       <use xlink:href="#m948f454a45" x="54.096563" y="227.072507" style="stroke: #000000; stroke-width: 0.8"/>
      </g>
     </g>
     <g id="text_12">
      <!-- 1.0 -->
      <g transform="translate(31.193438 230.871726)scale(0.1 -0.1)">
       <use xlink:href="#DejaVuSans-31"/>
       <use xlink:href="#DejaVuSans-2e" x="63.623047"/>
       <use xlink:href="#DejaVuSans-30" x="95.410156"/>
      </g>
     </g>
    </g>
    <g id="ytick_6">
     <g id="line2d_12">
      <g>
       <use xlink:href="#m948f454a45" x="54.096563" y="270.416398" style="stroke: #000000; stroke-width: 0.8"/>
      </g>
     </g>
     <g id="text_13">
      <!-- 1.5 -->
      <g transform="translate(31.193438 274.215617)scale(0.1 -0.1)">
       <use xlink:href="#DejaVuSans-31"/>
       <use xlink:href="#DejaVuSans-2e" x="63.623047"/>
       <use xlink:href="#DejaVuSans-35" x="95.410156"/>
      </g>
     </g>
    </g>
    <g id="text_14">
     <!-- magnitude -->
     <g transform="translate(16.318125 179.513437)rotate(-90)scale(0.12 -0.12)">
      <defs>
       <path id="DejaVuSans-6d" d="M 3328 2828 
Q 3544 3216 3844 3400 
Q 4144 3584 4550 3584 
Q 5097 3584 5394 3201 
Q 5691 2819 5691 2113 
L 5691 0 
L 5113 0 
L 5113 2094 
Q 5113 2597 4934 2840 
Q 4756 3084 4391 3084 
Q 3944 3084 3684 2787 
Q 3425 2491 3425 1978 
L 3425 0 
L 2847 0 
L 2847 2094 
Q 2847 2600 2669 2842 
Q 2491 3084 2119 3084 
Q 1678 3084 1418 2786 
Q 1159 2488 1159 1978 
L 1159 0 
L 581 0 
L 581 3500 
L 1159 3500 
L 1159 2956 
Q 1356 3278 1631 3431 
Q 1906 3584 2284 3584 
Q 2666 3584 2933 3390 
Q 3200 3197 3328 2828 
z
" transform="scale(0.015625)"/>
       <path id="DejaVuSans-67" d="M 2906 1791 
Q 2906 2416 2648 2759 
Q 2391 3103 1925 3103 
Q 1463 3103 1205 2759 
Q 947 2416 947 1791 
Q 947 1169 1205 825 
Q 1463 481 1925 481 
Q 2391 481 2648 825 
Q 2906 1169 2906 1791 
z
M 3481 434 
Q 3481 -459 3084 -895 
Q 2688 -1331 1869 -1331 
Q 1566 -1331 1297 -1286 
Q 1028 -1241 775 -1147 
L 775 -588 
Q 1028 -725 1275 -790 
Q 1522 -856 1778 -856 
Q 2344 -856 2625 -561 
Q 2906 -266 2906 331 
L 2906 616 
Q 2728 306 2450 153 
Q 2172 0 1784 0 
Q 1141 0 747 490 
Q 353 981 353 1791 
Q 353 2603 747 3093 
Q 1141 3584 1784 3584 
Q 2172 3584 2450 3431 
Q 2728 3278 2906 2969 
L 2906 3500 
L 3481 3500 
L 3481 434 
z
" transform="scale(0.015625)"/>
       <path id="DejaVuSans-6e" d="M 3513 2113 
L 3513 0 
L 2938 0 
L 2938 2094 
Q 2938 2591 2744 2837 
Q 2550 3084 2163 3084 
Q 1697 3084 1428 2787 
Q 1159 2491 1159 1978 
L 1159 0 
L 581 0 
L 581 3500 
L 1159 3500 
L 1159 2956 
Q 1366 3272 1645 3428 
Q 1925 3584 2291 3584 
Q 2894 3584 3203 3211 
Q 3513 2838 3513 2113 
z
" transform="scale(0.015625)"/>
       <path id="DejaVuSans-69" d="M 603 3500 
L 1178 3500 
L 1178 0 
L 603 0 
L 603 3500 
z
M 603 4863 
L 1178 4863 
L 1178 4134 
L 603 4134 
L 603 4863 
z
" transform="scale(0.015625)"/>
       <path id="DejaVuSans-74" d="M 1172 4494 
L 1172 3500 
L 2356 3500 
L 2356 3053 
L 1172 3053 
L 1172 1153 
Q 1172 725 1289 603 
Q 1406 481 1766 481 
L 2356 481 
L 2356 0 
L 1766 0 
Q 1100 0 847 248 
Q 594 497 594 1153 
L 594 3053 
L 172 3053 
L 172 3500 
L 594 3500 
L 594 4494 
L 1172 4494 
z
" transform="scale(0.015625)"/>
       <path id="DejaVuSans-75" d="M 544 1381 
L 544 3500 
L 1119 3500 
L 1119 1403 
Q 1119 906 1312 657 
Q 1506 409 1894 409 
Q 2359 409 2629 706 
Q 2900 1003 2900 1516 
L 2900 3500 
L 3475 3500 
L 3475 0 
L 2900 0 
L 2900 538 
Q 2691 219 2414 64 
Q 2138 -91 1772 -91 
Q 1169 -91 856 284 
Q 544 659 544 1381 
z
M 1991 3584 
L 1991 3584 
z
" transform="scale(0.015625)"/>
       <path id="DejaVuSans-64" d="M 2906 2969 
L 2906 4863 
L 3481 4863 
L 3481 0 
L 2906 0 
L 2906 525 
Q 2725 213 2448 61 
Q 2172 -91 1784 -91 
Q 1150 -91 751 415 
Q 353 922 353 1747 
Q 353 2572 751 3078 
Q 1150 3584 1784 3584 
Q 2172 3584 2448 3432 
Q 2725 3281 2906 2969 
z
M 947 1747 
Q 947 1113 1208 752 
Q 1469 391 1925 391 
Q 2381 391 2643 752 
Q 2906 1113 2906 1747 
Q 2906 2381 2643 2742 
Q 2381 3103 1925 3103 
Q 1469 3103 1208 2742 
Q 947 2381 947 1747 
z
" transform="scale(0.015625)"/>
      </defs>
      <use xlink:href="#DejaVuSans-6d"/>
      <use xlink:href="#DejaVuSans-61" x="97.412109"/>
      <use xlink:href="#DejaVuSans-67" x="158.691406"/>
      <use xlink:href="#DejaVuSans-6e" x="222.167969"/>
      <use xlink:href="#DejaVuSans-69" x="285.546875"/>
      <use xlink:href="#DejaVuSans-74" x="313.330078"/>
      <use xlink:href="#DejaVuSans-75" x="352.539062"/>
      <use xlink:href="#DejaVuSans-64" x="415.917969"/>
      <use xlink:href="#DejaVuSans-65" x="479.394531"/>
     </g>
    </g>
   </g>
   <g id="LineCollection_1">
    <path d="M 203.490669 188.052354 
L 203.490669 205.389911 
" clip-path="url(#p9e1f436f6b)" style="fill: none; stroke: #1f77b4; stroke-width: 1.5"/>
    <path d="M 347.349537 67.709935 
L 347.349537 85.047491 
" clip-path="url(#p9e1f436f6b)" style="fill: none; stroke: #1f77b4; stroke-width: 1.5"/>
    <path d="M 346.278079 61.571493 
L 346.278079 78.909049 
" clip-path="url(#p9e1f436f6b)" style="fill: none; stroke: #1f77b4; stroke-width: 1.5"/>
    <path d="M 305.976495 56.588734 
L 305.976495 73.92629 
" clip-path="url(#p9e1f436f6b)" style="fill: none; stroke: #1f77b4; stroke-width: 1.5"/>
    <path d="M 198.13338 171.466656 
L 198.13338 188.804212 
" clip-path="url(#p9e1f436f6b)" style="fill: none; stroke: #1f77b4; stroke-width: 1.5"/>
    <path d="M 257.794392 105.068642 
L 257.794392 122.406199 
" clip-path="url(#p9e1f436f6b)" style="fill: none; stroke: #1f77b4; stroke-width: 1.5"/>
    <path d="M 117.543326 180.528341 
L 117.543326 197.865897 
" clip-path="url(#p9e1f436f6b)" style="fill: none; stroke: #1f77b4; stroke-width: 1.5"/>
    <path d="M 267.873735 76.189987 
L 267.873735 93.527543 
" clip-path="url(#p9e1f436f6b)" style="fill: none; stroke: #1f77b4; stroke-width: 1.5"/>
    <path d="M 318.54328 43.156454 
L 318.54328 60.49401 
" clip-path="url(#p9e1f436f6b)" style="fill: none; stroke: #1f77b4; stroke-width: 1.5"/>
    <path d="M 89.073373 149.592621 
L 89.073373 166.930178 
" clip-path="url(#p9e1f436f6b)" style="fill: none; stroke: #1f77b4; stroke-width: 1.5"/>
    <path d="M 100.199964 180.668213 
L 100.199964 198.005769 
" clip-path="url(#p9e1f436f6b)" style="fill: none; stroke: #1f77b4; stroke-width: 1.5"/>
    <path d="M 291.702972 39.135599 
L 291.702972 56.473155 
" clip-path="url(#p9e1f436f6b)" style="fill: none; stroke: #1f77b4; stroke-width: 1.5"/>
    <path d="M 198.408901 192.189193 
L 198.408901 209.52675 
" clip-path="url(#p9e1f436f6b)" style="fill: none; stroke: #1f77b4; stroke-width: 1.5"/>
    <path d="M 168.004622 219.296105 
L 168.004622 236.633661 
" clip-path="url(#p9e1f436f6b)" style="fill: none; stroke: #1f77b4; stroke-width: 1.5"/>
    <path d="M 181.118601 199.341005 
L 181.118601 216.678562 
" clip-path="url(#p9e1f436f6b)" style="fill: none; stroke: #1f77b4; stroke-width: 1.5"/>
    <path d="M 293.677547 33.658125 
L 293.677547 50.995682 
" clip-path="url(#p9e1f436f6b)" style="fill: none; stroke: #1f77b4; stroke-width: 1.5"/>
    <path d="M 218.724704 154.70118 
L 218.724704 172.038736 
" clip-path="url(#p9e1f436f6b)" style="fill: none; stroke: #1f77b4; stroke-width: 1.5"/>
    <path d="M 186.633408 185.779131 
L 186.633408 203.116688 
" clip-path="url(#p9e1f436f6b)" style="fill: none; stroke: #1f77b4; stroke-width: 1.5"/>
    <path d="M 316.302909 47.339437 
L 316.302909 64.676993 
" clip-path="url(#p9e1f436f6b)" style="fill: none; stroke: #1f77b4; stroke-width: 1.5"/>
    <path d="M 131.209914 206.917369 
L 131.209914 224.254926 
" clip-path="url(#p9e1f436f6b)" style="fill: none; stroke: #1f77b4; stroke-width: 1.5"/>
    <path d="M 328.962047 64.757722 
L 328.962047 82.095279 
" clip-path="url(#p9e1f436f6b)" style="fill: none; stroke: #1f77b4; stroke-width: 1.5"/>
    <path d="M 213.37555 155.080324 
L 213.37555 172.41788 
" clip-path="url(#p9e1f436f6b)" style="fill: none; stroke: #1f77b4; stroke-width: 1.5"/>
    <path d="M 107.828177 159.655942 
L 107.828177 176.993499 
" clip-path="url(#p9e1f436f6b)" style="fill: none; stroke: #1f77b4; stroke-width: 1.5"/>
    <path d="M 180.198392 213.439723 
L 180.198392 230.77728 
" clip-path="url(#p9e1f436f6b)" style="fill: none; stroke: #1f77b4; stroke-width: 1.5"/>
    <path d="M 338.324863 59.952435 
L 338.324863 77.289992 
" clip-path="url(#p9e1f436f6b)" style="fill: none; stroke: #1f77b4; stroke-width: 1.5"/>
    <path d="M 213.962644 163.008558 
L 213.962644 180.346114 
" clip-path="url(#p9e1f436f6b)" style="fill: none; stroke: #1f77b4; stroke-width: 1.5"/>
    <path d="M 282.180331 62.445752 
L 282.180331 79.783308 
" clip-path="url(#p9e1f436f6b)" style="fill: none; stroke: #1f77b4; stroke-width: 1.5"/>
    <path d="M 185.866784 194.001766 
L 185.866784 211.339322 
" clip-path="url(#p9e1f436f6b)" style="fill: none; stroke: #1f77b4; stroke-width: 1.5"/>
    <path d="M 202.615998 181.827919 
L 202.615998 199.165475 
" clip-path="url(#p9e1f436f6b)" style="fill: none; stroke: #1f77b4; stroke-width: 1.5"/>
    <path d="M 174.264806 202.992986 
L 174.264806 220.330542 
" clip-path="url(#p9e1f436f6b)" style="fill: none; stroke: #1f77b4; stroke-width: 1.5"/>
    <path d="M 227.506304 139.076699 
L 227.506304 156.414255 
" clip-path="url(#p9e1f436f6b)" style="fill: none; stroke: #1f77b4; stroke-width: 1.5"/>
    <path d="M 315.095082 36.997503 
L 315.095082 54.335059 
" clip-path="url(#p9e1f436f6b)" style="fill: none; stroke: #1f77b4; stroke-width: 1.5"/>
    <path d="M 252.413691 85.369615 
L 252.413691 102.707171 
" clip-path="url(#p9e1f436f6b)" style="fill: none; stroke: #1f77b4; stroke-width: 1.5"/>
    <path d="M 89.89677 144.474099 
L 89.89677 161.811656 
" clip-path="url(#p9e1f436f6b)" style="fill: none; stroke: #1f77b4; stroke-width: 1.5"/>
    <path d="M 368.511994 113.340927 
L 368.511994 130.678483 
" clip-path="url(#p9e1f436f6b)" style="fill: none; stroke: #1f77b4; stroke-width: 1.5"/>
    <path d="M 360.95905 101.522318 
L 360.95905 118.859874 
" clip-path="url(#p9e1f436f6b)" style="fill: none; stroke: #1f77b4; stroke-width: 1.5"/>
    <path d="M 373.600511 114.692174 
L 373.600511 132.029731 
" clip-path="url(#p9e1f436f6b)" style="fill: none; stroke: #1f77b4; stroke-width: 1.5"/>
    <path d="M 251.414445 85.759648 
L 251.414445 103.097205 
" clip-path="url(#p9e1f436f6b)" style="fill: none; stroke: #1f77b4; stroke-width: 1.5"/>
    <path d="M 283.646779 53.647401 
L 283.646779 70.984958 
" clip-path="url(#p9e1f436f6b)" style="fill: none; stroke: #1f77b4; stroke-width: 1.5"/>
    <path d="M 75.568989 128.873275 
L 75.568989 146.210831 
" clip-path="url(#p9e1f436f6b)" style="fill: none; stroke: #1f77b4; stroke-width: 1.5"/>
    <path d="M 294.769806 64.402365 
L 294.769806 81.739922 
" clip-path="url(#p9e1f436f6b)" style="fill: none; stroke: #1f77b4; stroke-width: 1.5"/>
    <path d="M 165.642116 243.120568 
L 165.642116 260.458125 
" clip-path="url(#p9e1f436f6b)" style="fill: none; stroke: #1f77b4; stroke-width: 1.5"/>
    <path d="M 89.840762 149.681145 
L 89.840762 167.018702 
" clip-path="url(#p9e1f436f6b)" style="fill: none; stroke: #1f77b4; stroke-width: 1.5"/>
    <path d="M 146.903508 209.521501 
L 146.903508 226.859057 
" clip-path="url(#p9e1f436f6b)" style="fill: none; stroke: #1f77b4; stroke-width: 1.5"/>
    <path d="M 152.90026 198.936111 
L 152.90026 216.273668 
" clip-path="url(#p9e1f436f6b)" style="fill: none; stroke: #1f77b4; stroke-width: 1.5"/>
    <path d="M 228.640714 146.824703 
L 228.640714 164.16226 
" clip-path="url(#p9e1f436f6b)" style="fill: none; stroke: #1f77b4; stroke-width: 1.5"/>
    <path d="M 303.822405 37.988956 
L 303.822405 55.326513 
" clip-path="url(#p9e1f436f6b)" style="fill: none; stroke: #1f77b4; stroke-width: 1.5"/>
    <path d="M 327.92112 52.899473 
L 327.92112 70.23703 
" clip-path="url(#p9e1f436f6b)" style="fill: none; stroke: #1f77b4; stroke-width: 1.5"/>
    <path d="M 157.409977 213.097251 
L 157.409977 230.434808 
" clip-path="url(#p9e1f436f6b)" style="fill: none; stroke: #1f77b4; stroke-width: 1.5"/>
    <path d="M 368.630991 117.068131 
L 368.630991 134.405688 
" clip-path="url(#p9e1f436f6b)" style="fill: none; stroke: #1f77b4; stroke-width: 1.5"/>
    <path d="M 70.077003 135.959479 
L 70.077003 153.297035 
" clip-path="url(#p9e1f436f6b)" style="fill: none; stroke: #1f77b4; stroke-width: 1.5"/>
    <path d="M 293.526434 46.713978 
L 293.526434 64.051535 
" clip-path="url(#p9e1f436f6b)" style="fill: none; stroke: #1f77b4; stroke-width: 1.5"/>
    <path d="M 294.066506 49.261198 
L 294.066506 66.598755 
" clip-path="url(#p9e1f436f6b)" style="fill: none; stroke: #1f77b4; stroke-width: 1.5"/>
    <path d="M 228.784459 130.849684 
L 228.784459 148.18724 
" clip-path="url(#p9e1f436f6b)" style="fill: none; stroke: #1f77b4; stroke-width: 1.5"/>
    <path d="M 239.074536 108.206925 
L 239.074536 125.544482 
" clip-path="url(#p9e1f436f6b)" style="fill: none; stroke: #1f77b4; stroke-width: 1.5"/>
    <path d="M 105.392477 165.83465 
L 105.392477 183.172207 
" clip-path="url(#p9e1f436f6b)" style="fill: none; stroke: #1f77b4; stroke-width: 1.5"/>
    <path d="M 348.842354 76.657615 
L 348.842354 93.995172 
" clip-path="url(#p9e1f436f6b)" style="fill: none; stroke: #1f77b4; stroke-width: 1.5"/>
    <path d="M 345.482512 85.406077 
L 345.482512 102.743633 
" clip-path="url(#p9e1f436f6b)" style="fill: none; stroke: #1f77b4; stroke-width: 1.5"/>
    <path d="M 369.986643 121.818211 
L 369.986643 139.155767 
" clip-path="url(#p9e1f436f6b)" style="fill: none; stroke: #1f77b4; stroke-width: 1.5"/>
    <path d="M 209.231128 165.460545 
L 209.231128 182.798101 
" clip-path="url(#p9e1f436f6b)" style="fill: none; stroke: #1f77b4; stroke-width: 1.5"/>
    <path d="M 336.960814 54.281315 
L 336.960814 71.618871 
" clip-path="url(#p9e1f436f6b)" style="fill: none; stroke: #1f77b4; stroke-width: 1.5"/>
    <path d="M 111.059779 176.541426 
L 111.059779 193.878983 
" clip-path="url(#p9e1f436f6b)" style="fill: none; stroke: #1f77b4; stroke-width: 1.5"/>
    <path d="M 238.737981 110.536542 
L 238.737981 127.874099 
" clip-path="url(#p9e1f436f6b)" style="fill: none; stroke: #1f77b4; stroke-width: 1.5"/>
    <path d="M 235.070636 125.491356 
L 235.070636 142.828912 
" clip-path="url(#p9e1f436f6b)" style="fill: none; stroke: #1f77b4; stroke-width: 1.5"/>
    <path d="M 224.214488 165.429624 
L 224.214488 182.76718 
" clip-path="url(#p9e1f436f6b)" style="fill: none; stroke: #1f77b4; stroke-width: 1.5"/>
    <path d="M 188.106514 192.099184 
L 188.106514 209.43674 
" clip-path="url(#p9e1f436f6b)" style="fill: none; stroke: #1f77b4; stroke-width: 1.5"/>
    <path d="M 359.495181 97.564671 
L 359.495181 114.902228 
" clip-path="url(#p9e1f436f6b)" style="fill: none; stroke: #1f77b4; stroke-width: 1.5"/>
    <path d="M 194.948447 177.016003 
L 194.948447 194.35356 
" clip-path="url(#p9e1f436f6b)" style="fill: none; stroke: #1f77b4; stroke-width: 1.5"/>
    <path d="M 94.754885 182.402313 
L 94.754885 199.739869 
" clip-path="url(#p9e1f436f6b)" style="fill: none; stroke: #1f77b4; stroke-width: 1.5"/>
    <path d="M 281.536574 58.636168 
L 281.536574 75.973725 
" clip-path="url(#p9e1f436f6b)" style="fill: none; stroke: #1f77b4; stroke-width: 1.5"/>
    <path d="M 212.67284 152.724055 
L 212.67284 170.061612 
" clip-path="url(#p9e1f436f6b)" style="fill: none; stroke: #1f77b4; stroke-width: 1.5"/>
    <path d="M 336.163114 62.159039 
L 336.163114 79.496595 
" clip-path="url(#p9e1f436f6b)" style="fill: none; stroke: #1f77b4; stroke-width: 1.5"/>
    <path d="M 188.073424 199.142822 
L 188.073424 216.480379 
" clip-path="url(#p9e1f436f6b)" style="fill: none; stroke: #1f77b4; stroke-width: 1.5"/>
    <path d="M 193.380005 189.165743 
L 193.380005 206.5033 
" clip-path="url(#p9e1f436f6b)" style="fill: none; stroke: #1f77b4; stroke-width: 1.5"/>
    <path d="M 323.057179 51.878766 
L 323.057179 69.216323 
" clip-path="url(#p9e1f436f6b)" style="fill: none; stroke: #1f77b4; stroke-width: 1.5"/>
    <path d="M 116.441028 187.322863 
L 116.441028 204.66042 
" clip-path="url(#p9e1f436f6b)" style="fill: none; stroke: #1f77b4; stroke-width: 1.5"/>
    <path d="M 183.918511 187.648082 
L 183.918511 204.985639 
" clip-path="url(#p9e1f436f6b)" style="fill: none; stroke: #1f77b4; stroke-width: 1.5"/>
    <path d="M 139.421563 214.139123 
L 139.421563 231.47668 
" clip-path="url(#p9e1f436f6b)" style="fill: none; stroke: #1f77b4; stroke-width: 1.5"/>
    <path d="M 293.257142 62.435448 
L 293.257142 79.773005 
" clip-path="url(#p9e1f436f6b)" style="fill: none; stroke: #1f77b4; stroke-width: 1.5"/>
    <path d="M 201.907111 188.434875 
L 201.907111 205.772432 
" clip-path="url(#p9e1f436f6b)" style="fill: none; stroke: #1f77b4; stroke-width: 1.5"/>
    <path d="M 212.420947 166.928714 
L 212.420947 184.266271 
" clip-path="url(#p9e1f436f6b)" style="fill: none; stroke: #1f77b4; stroke-width: 1.5"/>
    <path d="M 270.936949 67.858052 
L 270.936949 85.195609 
" clip-path="url(#p9e1f436f6b)" style="fill: none; stroke: #1f77b4; stroke-width: 1.5"/>
    <path d="M 206.161545 193.088777 
L 206.161545 210.426334 
" clip-path="url(#p9e1f436f6b)" style="fill: none; stroke: #1f77b4; stroke-width: 1.5"/>
    <path d="M 284.515414 51.640451 
L 284.515414 68.978008 
" clip-path="url(#p9e1f436f6b)" style="fill: none; stroke: #1f77b4; stroke-width: 1.5"/>
    <path d="M 152.264422 214.07304 
L 152.264422 231.410597 
" clip-path="url(#p9e1f436f6b)" style="fill: none; stroke: #1f77b4; stroke-width: 1.5"/>
    <path d="M 72.373347 143.912583 
L 72.373347 161.25014 
" clip-path="url(#p9e1f436f6b)" style="fill: none; stroke: #1f77b4; stroke-width: 1.5"/>
    <path d="M 153.975116 221.78224 
L 153.975116 239.119796 
" clip-path="url(#p9e1f436f6b)" style="fill: none; stroke: #1f77b4; stroke-width: 1.5"/>
    <path d="M 134.667313 225.164551 
L 134.667313 242.502107 
" clip-path="url(#p9e1f436f6b)" style="fill: none; stroke: #1f77b4; stroke-width: 1.5"/>
    <path d="M 110.891997 195.434924 
L 110.891997 212.772481 
" clip-path="url(#p9e1f436f6b)" style="fill: none; stroke: #1f77b4; stroke-width: 1.5"/>
    <path d="M 110.027171 174.007695 
L 110.027171 191.345251 
" clip-path="url(#p9e1f436f6b)" style="fill: none; stroke: #1f77b4; stroke-width: 1.5"/>
    <path d="M 142.39628 205.940034 
L 142.39628 223.27759 
" clip-path="url(#p9e1f436f6b)" style="fill: none; stroke: #1f77b4; stroke-width: 1.5"/>
    <path d="M 274.071081 82.080302 
L 274.071081 99.417859 
" clip-path="url(#p9e1f436f6b)" style="fill: none; stroke: #1f77b4; stroke-width: 1.5"/>
    <path d="M 264.626226 89.07441 
L 264.626226 106.411966 
" clip-path="url(#p9e1f436f6b)" style="fill: none; stroke: #1f77b4; stroke-width: 1.5"/>
    <path d="M 107.175281 182.044306 
L 107.175281 199.381863 
" clip-path="url(#p9e1f436f6b)" style="fill: none; stroke: #1f77b4; stroke-width: 1.5"/>
    <path d="M 120.70095 198.911079 
L 120.70095 216.248636 
" clip-path="url(#p9e1f436f6b)" style="fill: none; stroke: #1f77b4; stroke-width: 1.5"/>
    <path d="M 89.128183 159.696284 
L 89.128183 177.03384 
" clip-path="url(#p9e1f436f6b)" style="fill: none; stroke: #1f77b4; stroke-width: 1.5"/>
    <path d="M 130.920437 200.846651 
L 130.920437 218.184208 
" clip-path="url(#p9e1f436f6b)" style="fill: none; stroke: #1f77b4; stroke-width: 1.5"/>
    <path d="M 303.709707 37.656283 
L 303.709707 54.99384 
" clip-path="url(#p9e1f436f6b)" style="fill: none; stroke: #1f77b4; stroke-width: 1.5"/>
    <path d="M 315.084543 54.94773 
L 315.084543 72.285287 
" clip-path="url(#p9e1f436f6b)" style="fill: none; stroke: #1f77b4; stroke-width: 1.5"/>
    <path d="M 144.184308 208.848549 
L 144.184308 226.186106 
" clip-path="url(#p9e1f436f6b)" style="fill: none; stroke: #1f77b4; stroke-width: 1.5"/>
   </g>
   <g id="line2d_13">
    <path d="M 69.314744 125.814982 
L 75.526247 136.517903 
L 81.73775 147.295592 
L 87.949253 157.97108 
L 94.160755 168.369076 
L 100.372258 178.318845 
L 106.583761 187.657012 
L 112.795264 196.230244 
L 119.006767 203.89777 
L 125.218269 210.533689 
L 131.429772 216.029038 
L 137.641275 220.293586 
L 143.852778 223.257307 
L 150.06428 224.871539 
L 156.275783 225.109774 
L 162.487286 223.968102 
L 168.698789 221.465268 
L 174.910292 217.642369 
L 181.121794 212.562177 
L 187.333297 206.308108 
L 193.5448 198.982854 
L 199.756303 190.706697 
L 205.967806 181.615528 
L 212.179308 171.858627 
L 218.390811 161.5962 
L 224.602314 150.996757 
L 230.813817 140.234339 
L 237.025319 129.485666 
L 243.236822 118.927231 
L 249.448325 108.732402 
L 255.659828 99.068579 
L 261.871331 90.094441 
L 268.082833 81.957343 
L 274.294336 74.790897 
L 280.505839 68.712774 
L 286.717342 63.822779 
L 292.928845 60.201203 
L 299.140347 57.907514 
L 305.35185 56.979374 
L 311.563353 57.432023 
L 317.774856 59.258028 
L 323.986358 62.427406 
L 330.197861 66.888116 
L 336.409364 72.566914 
L 342.620867 79.370554 
L 348.83237 87.18732 
L 355.043872 95.888862 
L 361.255375 105.332299 
L 367.466878 115.362571 
L 373.678381 125.814982 
" clip-path="url(#p9e1f436f6b)" style="fill: none; stroke: #000000; stroke-width: 1.5; stroke-linecap: square"/>
   </g>
   <g id="line2d_14">
    <defs>
     <path id="m12e59a1170" d="M 0 3 
C 0.795609 3 1.55874 2.683901 2.12132 2.12132 
C 2.683901 1.55874 3 0.795609 3 0 
C 3 -0.795609 2.683901 -1.55874 2.12132 -2.12132 
C 1.55874 -2.683901 0.795609 -3 0 -3 
C -0.795609 -3 -1.55874 -2.683901 -2.12132 -2.12132 
C -2.683901 -1.55874 -3 -0.795609 -3 0 
C -3 0.795609 -2.683901 1.55874 -2.12132 2.12132 
C -1.55874 2.683901 -0.795609 3 0 3 
z
"/>
    </defs>
    <g clip-path="url(#p9e1f436f6b)">
     <use xlink:href="#m12e59a1170" x="203.490669" y="196.721132" style="fill: #1f77b4"/>
     <use xlink:href="#m12e59a1170" x="347.349537" y="76.378713" style="fill: #1f77b4"/>
     <use xlink:href="#m12e59a1170" x="346.278079" y="70.240271" style="fill: #1f77b4"/>
     <use xlink:href="#m12e59a1170" x="305.976495" y="65.257512" style="fill: #1f77b4"/>
     <use xlink:href="#m12e59a1170" x="198.13338" y="180.135434" style="fill: #1f77b4"/>
     <use xlink:href="#m12e59a1170" x="257.794392" y="113.73742" style="fill: #1f77b4"/>
     <use xlink:href="#m12e59a1170" x="117.543326" y="189.197119" style="fill: #1f77b4"/>
     <use xlink:href="#m12e59a1170" x="267.873735" y="84.858765" style="fill: #1f77b4"/>
     <use xlink:href="#m12e59a1170" x="318.54328" y="51.825232" style="fill: #1f77b4"/>
     <use xlink:href="#m12e59a1170" x="89.073373" y="158.2614" style="fill: #1f77b4"/>
     <use xlink:href="#m12e59a1170" x="100.199964" y="189.336991" style="fill: #1f77b4"/>
     <use xlink:href="#m12e59a1170" x="291.702972" y="47.804377" style="fill: #1f77b4"/>
     <use xlink:href="#m12e59a1170" x="198.408901" y="200.857971" style="fill: #1f77b4"/>
     <use xlink:href="#m12e59a1170" x="168.004622" y="227.964883" style="fill: #1f77b4"/>
     <use xlink:href="#m12e59a1170" x="181.118601" y="208.009783" style="fill: #1f77b4"/>
     <use xlink:href="#m12e59a1170" x="293.677547" y="42.326903" style="fill: #1f77b4"/>
     <use xlink:href="#m12e59a1170" x="218.724704" y="163.369958" style="fill: #1f77b4"/>
     <use xlink:href="#m12e59a1170" x="186.633408" y="194.44791" style="fill: #1f77b4"/>
     <use xlink:href="#m12e59a1170" x="316.302909" y="56.008215" style="fill: #1f77b4"/>
     <use xlink:href="#m12e59a1170" x="131.209914" y="215.586148" style="fill: #1f77b4"/>
     <use xlink:href="#m12e59a1170" x="328.962047" y="73.426501" style="fill: #1f77b4"/>
     <use xlink:href="#m12e59a1170" x="213.37555" y="163.749102" style="fill: #1f77b4"/>
     <use xlink:href="#m12e59a1170" x="107.828177" y="168.324721" style="fill: #1f77b4"/>
     <use xlink:href="#m12e59a1170" x="180.198392" y="222.108502" style="fill: #1f77b4"/>
     <use xlink:href="#m12e59a1170" x="338.324863" y="68.621214" style="fill: #1f77b4"/>
     <use xlink:href="#m12e59a1170" x="213.962644" y="171.677336" style="fill: #1f77b4"/>
     <use xlink:href="#m12e59a1170" x="282.180331" y="71.11453" style="fill: #1f77b4"/>
     <use xlink:href="#m12e59a1170" x="185.866784" y="202.670544" style="fill: #1f77b4"/>
     <use xlink:href="#m12e59a1170" x="202.615998" y="190.496697" style="fill: #1f77b4"/>
     <use xlink:href="#m12e59a1170" x="174.264806" y="211.661764" style="fill: #1f77b4"/>
     <use xlink:href="#m12e59a1170" x="227.506304" y="147.745477" style="fill: #1f77b4"/>
     <use xlink:href="#m12e59a1170" x="315.095082" y="45.666281" style="fill: #1f77b4"/>
     <use xlink:href="#m12e59a1170" x="252.413691" y="94.038393" style="fill: #1f77b4"/>
     <use xlink:href="#m12e59a1170" x="89.89677" y="153.142877" style="fill: #1f77b4"/>
     <use xlink:href="#m12e59a1170" x="368.511994" y="122.009705" style="fill: #1f77b4"/>
     <use xlink:href="#m12e59a1170" x="360.95905" y="110.191096" style="fill: #1f77b4"/>
     <use xlink:href="#m12e59a1170" x="373.600511" y="123.360952" style="fill: #1f77b4"/>
     <use xlink:href="#m12e59a1170" x="251.414445" y="94.428426" style="fill: #1f77b4"/>
     <use xlink:href="#m12e59a1170" x="283.646779" y="62.31618" style="fill: #1f77b4"/>
     <use xlink:href="#m12e59a1170" x="75.568989" y="137.542053" style="fill: #1f77b4"/>
     <use xlink:href="#m12e59a1170" x="294.769806" y="73.071143" style="fill: #1f77b4"/>
     <use xlink:href="#m12e59a1170" x="165.642116" y="251.789347" style="fill: #1f77b4"/>
     <use xlink:href="#m12e59a1170" x="89.840762" y="158.349924" style="fill: #1f77b4"/>
     <use xlink:href="#m12e59a1170" x="146.903508" y="218.190279" style="fill: #1f77b4"/>
     <use xlink:href="#m12e59a1170" x="152.90026" y="207.60489" style="fill: #1f77b4"/>
     <use xlink:href="#m12e59a1170" x="228.640714" y="155.493482" style="fill: #1f77b4"/>
     <use xlink:href="#m12e59a1170" x="303.822405" y="46.657734" style="fill: #1f77b4"/>
     <use xlink:href="#m12e59a1170" x="327.92112" y="61.568251" style="fill: #1f77b4"/>
     <use xlink:href="#m12e59a1170" x="157.409977" y="221.76603" style="fill: #1f77b4"/>
     <use xlink:href="#m12e59a1170" x="368.630991" y="125.736909" style="fill: #1f77b4"/>
     <use xlink:href="#m12e59a1170" x="70.077003" y="144.628257" style="fill: #1f77b4"/>
     <use xlink:href="#m12e59a1170" x="293.526434" y="55.382757" style="fill: #1f77b4"/>
     <use xlink:href="#m12e59a1170" x="294.066506" y="57.929976" style="fill: #1f77b4"/>
     <use xlink:href="#m12e59a1170" x="228.784459" y="139.518462" style="fill: #1f77b4"/>
     <use xlink:href="#m12e59a1170" x="239.074536" y="116.875703" style="fill: #1f77b4"/>
     <use xlink:href="#m12e59a1170" x="105.392477" y="174.503428" style="fill: #1f77b4"/>
     <use xlink:href="#m12e59a1170" x="348.842354" y="85.326394" style="fill: #1f77b4"/>
     <use xlink:href="#m12e59a1170" x="345.482512" y="94.074855" style="fill: #1f77b4"/>
     <use xlink:href="#m12e59a1170" x="369.986643" y="130.486989" style="fill: #1f77b4"/>
     <use xlink:href="#m12e59a1170" x="209.231128" y="174.129323" style="fill: #1f77b4"/>
     <use xlink:href="#m12e59a1170" x="336.960814" y="62.950093" style="fill: #1f77b4"/>
     <use xlink:href="#m12e59a1170" x="111.059779" y="185.210205" style="fill: #1f77b4"/>
     <use xlink:href="#m12e59a1170" x="238.737981" y="119.20532" style="fill: #1f77b4"/>
     <use xlink:href="#m12e59a1170" x="235.070636" y="134.160134" style="fill: #1f77b4"/>
     <use xlink:href="#m12e59a1170" x="224.214488" y="174.098402" style="fill: #1f77b4"/>
     <use xlink:href="#m12e59a1170" x="188.106514" y="200.767962" style="fill: #1f77b4"/>
     <use xlink:href="#m12e59a1170" x="359.495181" y="106.233449" style="fill: #1f77b4"/>
     <use xlink:href="#m12e59a1170" x="194.948447" y="185.684782" style="fill: #1f77b4"/>
     <use xlink:href="#m12e59a1170" x="94.754885" y="191.071091" style="fill: #1f77b4"/>
     <use xlink:href="#m12e59a1170" x="281.536574" y="67.304947" style="fill: #1f77b4"/>
     <use xlink:href="#m12e59a1170" x="212.67284" y="161.392834" style="fill: #1f77b4"/>
     <use xlink:href="#m12e59a1170" x="336.163114" y="70.827817" style="fill: #1f77b4"/>
     <use xlink:href="#m12e59a1170" x="188.073424" y="207.8116" style="fill: #1f77b4"/>
     <use xlink:href="#m12e59a1170" x="193.380005" y="197.834521" style="fill: #1f77b4"/>
     <use xlink:href="#m12e59a1170" x="323.057179" y="60.547545" style="fill: #1f77b4"/>
     <use xlink:href="#m12e59a1170" x="116.441028" y="195.991641" style="fill: #1f77b4"/>
     <use xlink:href="#m12e59a1170" x="183.918511" y="196.316861" style="fill: #1f77b4"/>
     <use xlink:href="#m12e59a1170" x="139.421563" y="222.807902" style="fill: #1f77b4"/>
     <use xlink:href="#m12e59a1170" x="293.257142" y="71.104227" style="fill: #1f77b4"/>
     <use xlink:href="#m12e59a1170" x="201.907111" y="197.103654" style="fill: #1f77b4"/>
     <use xlink:href="#m12e59a1170" x="212.420947" y="175.597492" style="fill: #1f77b4"/>
     <use xlink:href="#m12e59a1170" x="270.936949" y="76.52683" style="fill: #1f77b4"/>
     <use xlink:href="#m12e59a1170" x="206.161545" y="201.757556" style="fill: #1f77b4"/>
     <use xlink:href="#m12e59a1170" x="284.515414" y="60.30923" style="fill: #1f77b4"/>
     <use xlink:href="#m12e59a1170" x="152.264422" y="222.741819" style="fill: #1f77b4"/>
     <use xlink:href="#m12e59a1170" x="72.373347" y="152.581362" style="fill: #1f77b4"/>
     <use xlink:href="#m12e59a1170" x="153.975116" y="230.451018" style="fill: #1f77b4"/>
     <use xlink:href="#m12e59a1170" x="134.667313" y="233.833329" style="fill: #1f77b4"/>
     <use xlink:href="#m12e59a1170" x="110.891997" y="204.103702" style="fill: #1f77b4"/>
     <use xlink:href="#m12e59a1170" x="110.027171" y="182.676473" style="fill: #1f77b4"/>
     <use xlink:href="#m12e59a1170" x="142.39628" y="214.608812" style="fill: #1f77b4"/>
     <use xlink:href="#m12e59a1170" x="274.071081" y="90.749081" style="fill: #1f77b4"/>
     <use xlink:href="#m12e59a1170" x="264.626226" y="97.743188" style="fill: #1f77b4"/>
     <use xlink:href="#m12e59a1170" x="107.175281" y="190.713084" style="fill: #1f77b4"/>
     <use xlink:href="#m12e59a1170" x="120.70095" y="207.579858" style="fill: #1f77b4"/>
     <use xlink:href="#m12e59a1170" x="89.128183" y="168.365062" style="fill: #1f77b4"/>
     <use xlink:href="#m12e59a1170" x="130.920437" y="209.51543" style="fill: #1f77b4"/>
     <use xlink:href="#m12e59a1170" x="303.709707" y="46.325061" style="fill: #1f77b4"/>
     <use xlink:href="#m12e59a1170" x="315.084543" y="63.616509" style="fill: #1f77b4"/>
     <use xlink:href="#m12e59a1170" x="144.184308" y="217.517327" style="fill: #1f77b4"/>
    </g>
   </g>
   <g id="patch_3">
    <path d="M 54.096563 271.798125 
L 54.096563 22.318125 
" style="fill: none; stroke: #000000; stroke-width: 0.8; stroke-linejoin: miter; stroke-linecap: square"/>
   </g>
   <g id="patch_4">
    <path d="M 388.896563 271.798125 
L 388.896563 22.318125 
" style="fill: none; stroke: #000000; stroke-width: 0.8; stroke-linejoin: miter; stroke-linecap: square"/>
   </g>
   <g id="patch_5">
    <path d="M 54.096563 271.798125 
L 388.896563 271.798125 
" style="fill: none; stroke: #000000; stroke-width: 0.8; stroke-linejoin: miter; stroke-linecap: square"/>
   </g>
   <g id="patch_6">
    <path d="M 54.096563 22.318125 
L 388.896563 22.318125 
" style="fill: none; stroke: #000000; stroke-width: 0.8; stroke-linejoin: miter; stroke-linecap: square"/>
   </g>
   <g id="text_15">
    <!-- phased data at frequency=1.00 -->
    <g transform="translate(125.837813 16.318125)scale(0.12 -0.12)">
     <defs>
      <path id="DejaVuSans-20" transform="scale(0.015625)"/>
      <path id="DejaVuSans-66" d="M 2375 4863 
L 2375 4384 
L 1825 4384 
Q 1516 4384 1395 4259 
Q 1275 4134 1275 3809 
L 1275 3500 
L 2222 3500 
L 2222 3053 
L 1275 3053 
L 1275 0 
L 697 0 
L 697 3053 
L 147 3053 
L 147 3500 
L 697 3500 
L 697 3744 
Q 697 4328 969 4595 
Q 1241 4863 1831 4863 
L 2375 4863 
z
" transform="scale(0.015625)"/>
      <path id="DejaVuSans-72" d="M 2631 2963 
Q 2534 3019 2420 3045 
Q 2306 3072 2169 3072 
Q 1681 3072 1420 2755 
Q 1159 2438 1159 1844 
L 1159 0 
L 581 0 
L 581 3500 
L 1159 3500 
L 1159 2956 
Q 1341 3275 1631 3429 
Q 1922 3584 2338 3584 
Q 2397 3584 2469 3576 
Q 2541 3569 2628 3553 
L 2631 2963 
z
" transform="scale(0.015625)"/>
      <path id="DejaVuSans-71" d="M 947 1747 
Q 947 1113 1208 752 
Q 1469 391 1925 391 
Q 2381 391 2643 752 
Q 2906 1113 2906 1747 
Q 2906 2381 2643 2742 
Q 2381 3103 1925 3103 
Q 1469 3103 1208 2742 
Q 947 2381 947 1747 
z
M 2906 525 
Q 2725 213 2448 61 
Q 2172 -91 1784 -91 
Q 1150 -91 751 415 
Q 353 922 353 1747 
Q 353 2572 751 3078 
Q 1150 3584 1784 3584 
Q 2172 3584 2448 3432 
Q 2725 3281 2906 2969 
L 2906 3500 
L 3481 3500 
L 3481 -1331 
L 2906 -1331 
L 2906 525 
z
" transform="scale(0.015625)"/>
      <path id="DejaVuSans-63" d="M 3122 3366 
L 3122 2828 
Q 2878 2963 2633 3030 
Q 2388 3097 2138 3097 
Q 1578 3097 1268 2742 
Q 959 2388 959 1747 
Q 959 1106 1268 751 
Q 1578 397 2138 397 
Q 2388 397 2633 464 
Q 2878 531 3122 666 
L 3122 134 
Q 2881 22 2623 -34 
Q 2366 -91 2075 -91 
Q 1284 -91 818 406 
Q 353 903 353 1747 
Q 353 2603 823 3093 
Q 1294 3584 2113 3584 
Q 2378 3584 2631 3529 
Q 2884 3475 3122 3366 
z
" transform="scale(0.015625)"/>
      <path id="DejaVuSans-79" d="M 2059 -325 
Q 1816 -950 1584 -1140 
Q 1353 -1331 966 -1331 
L 506 -1331 
L 506 -850 
L 844 -850 
Q 1081 -850 1212 -737 
Q 1344 -625 1503 -206 
L 1606 56 
L 191 3500 
L 800 3500 
L 1894 763 
L 2988 3500 
L 3597 3500 
L 2059 -325 
z
" transform="scale(0.015625)"/>
      <path id="DejaVuSans-3d" d="M 678 2906 
L 4684 2906 
L 4684 2381 
L 678 2381 
L 678 2906 
z
M 678 1631 
L 4684 1631 
L 4684 1100 
L 678 1100 
L 678 1631 
z
" transform="scale(0.015625)"/>
     </defs>
     <use xlink:href="#DejaVuSans-70"/>
     <use xlink:href="#DejaVuSans-68" x="63.476562"/>
     <use xlink:href="#DejaVuSans-61" x="126.855469"/>
     <use xlink:href="#DejaVuSans-73" x="188.134766"/>
     <use xlink:href="#DejaVuSans-65" x="240.234375"/>
     <use xlink:href="#DejaVuSans-64" x="301.757812"/>
     <use xlink:href="#DejaVuSans-20" x="365.234375"/>
     <use xlink:href="#DejaVuSans-64" x="397.021484"/>
     <use xlink:href="#DejaVuSans-61" x="460.498047"/>
     <use xlink:href="#DejaVuSans-74" x="521.777344"/>
     <use xlink:href="#DejaVuSans-61" x="560.986328"/>
     <use xlink:href="#DejaVuSans-20" x="622.265625"/>
     <use xlink:href="#DejaVuSans-61" x="654.052734"/>
     <use xlink:href="#DejaVuSans-74" x="715.332031"/>
     <use xlink:href="#DejaVuSans-20" x="754.541016"/>
     <use xlink:href="#DejaVuSans-66" x="786.328125"/>
     <use xlink:href="#DejaVuSans-72" x="821.533203"/>
     <use xlink:href="#DejaVuSans-65" x="860.396484"/>
     <use xlink:href="#DejaVuSans-71" x="921.919922"/>
     <use xlink:href="#DejaVuSans-75" x="985.396484"/>
     <use xlink:href="#DejaVuSans-65" x="1048.775391"/>
     <use xlink:href="#DejaVuSans-6e" x="1110.298828"/>
     <use xlink:href="#DejaVuSans-63" x="1173.677734"/>
     <use xlink:href="#DejaVuSans-79" x="1228.658203"/>
     <use xlink:href="#DejaVuSans-3d" x="1287.837891"/>
     <use xlink:href="#DejaVuSans-31" x="1371.626953"/>
     <use xlink:href="#DejaVuSans-2e" x="1435.25"/>
     <use xlink:href="#DejaVuSans-30" x="1467.037109"/>
     <use xlink:href="#DejaVuSans-30" x="1530.660156"/>
    </g>
   </g>
  </g>
 </g>
 <defs>
  <clipPath id="p9e1f436f6b">
   <rect x="54.096563" y="22.318125" width="334.8" height="249.48"/>
  </clipPath>
 </defs>
</svg>
