<?xml version="1.0" encoding="utf-8" standalone="no"?>
<!DOCTYPE svg PUBLIC "-//W3C//DTD SVG 1.1//EN"
  "http://www.w3.org/Graphics/SVG/1.1/DTD/svg11.dtd">
<svg xmlns:xlink="http://www.w3.org/1999/xlink" width="499.316875pt" height="323.891875pt" viewBox="0 0 499.316875 323.891875" xmlns="http://www.w3.org/2000/svg" version="1.1">
 <metadata>
  <rdf:RDF xmlns:dc="http://purl.org/dc/elements/1.1/" xmlns:cc="http://creativecommons.org/ns#" xmlns:rdf="http://www.w3.org/1999/02/22-rdf-syntax-ns#">
   <cc:Work>
    <dc:type rdf:resource="http://purl.org/dc/dcmitype/StillImage"/>
    <dc:date>2022-05-09T11:02:48.061817</dc:date>
    <dc:format>image/svg+xml</dc:format>
    <dc:creator>
     <cc:Agent>
      <dc:title>Matplotlib v3.5.1, https://matplotlib.org/</dc:title>
     </cc:Agent>
    </dc:creator>
   </cc:Work>
  </rdf:RDF>
 </metadata>
 <defs>
  <style type="text/css">*{stroke-linejoin: round; stroke-linecap: butt}</style>
 </defs>
 <g id="figure_1">
  <g id="patch_1">
   <path d="M 0 323.891875 
L 499.316875 323.891875 
L 499.316875 0 
L 0 0 
L 0 323.891875 
z
" style="fill: none"/>
  </g>
  <g id="axes_1">
   <g id="patch_2">
    <path d="M 45.716875 284.4 
L 492.116875 284.4 
L 492.116875 7.2 
L 45.716875 7.2 
z
" style="fill: #ffffff"/>
   </g>
   <g id="matplotlib.axis_1">
    <g id="xtick_1">
     <g id="line2d_1">
      <defs>
       <path id="mc83c34e17a" d="M 0 0 
L 0 3.5 
" style="stroke: #000000; stroke-width: 0.8"/>
      </defs>
      <g>
       <use xlink:href="#mc83c34e17a" x="66.007784" y="284.4" style="stroke: #000000; stroke-width: 0.8"/>
      </g>
     </g>
     <g id="text_1">
      <!-- 0.0 -->
      <g transform="translate(58.056222 298.998438)scale(0.1 -0.1)">
       <defs>
        <path id="DejaVuSans-30" d="M 2034 4250 
Q 1547 4250 1301 3770 
Q 1056 3291 1056 2328 
Q 1056 1369 1301 889 
Q 1547 409 2034 409 
Q 2525 409 2770 889 
Q 3016 1369 3016 2328 
Q 3016 3291 2770 3770 
Q 2525 4250 2034 4250 
z
M 2034 4750 
Q 2819 4750 3233 4129 
Q 3647 3509 3647 2328 
Q 3647 1150 3233 529 
Q 2819 -91 2034 -91 
Q 1250 -91 836 529 
Q 422 1150 422 2328 
Q 422 3509 836 4129 
Q 1250 4750 2034 4750 
z
" transform="scale(0.015625)"/>
        <path id="DejaVuSans-2e" d="M 684 794 
L 1344 794 
L 1344 0 
L 684 0 
L 684 794 
z
" transform="scale(0.015625)"/>
       </defs>
       <use xlink:href="#DejaVuSans-30"/>
       <use xlink:href="#DejaVuSans-2e" x="63.623047"/>
       <use xlink:href="#DejaVuSans-30" x="95.410156"/>
      </g>
     </g>
    </g>
    <g id="xtick_2">
     <g id="line2d_2">
      <g>
       <use xlink:href="#mc83c34e17a" x="133.644148" y="284.4" style="stroke: #000000; stroke-width: 0.8"/>
      </g>
     </g>
     <g id="text_2">
      <!-- 0.2 -->
      <g transform="translate(125.692585 298.998438)scale(0.1 -0.1)">
       <defs>
        <path id="DejaVuSans-32" d="M 1228 531 
L 3431 531 
L 3431 0 
L 469 0 
L 469 531 
Q 828 903 1448 1529 
Q 2069 2156 2228 2338 
Q 2531 2678 2651 2914 
Q 2772 3150 2772 3378 
Q 2772 3750 2511 3984 
Q 2250 4219 1831 4219 
Q 1534 4219 1204 4116 
Q 875 4013 500 3803 
L 500 4441 
Q 881 4594 1212 4672 
Q 1544 4750 1819 4750 
Q 2544 4750 2975 4387 
Q 3406 4025 3406 3419 
Q 3406 3131 3298 2873 
Q 3191 2616 2906 2266 
Q 2828 2175 2409 1742 
Q 1991 1309 1228 531 
z
" transform="scale(0.015625)"/>
       </defs>
       <use xlink:href="#DejaVuSans-30"/>
       <use xlink:href="#DejaVuSans-2e" x="63.623047"/>
       <use xlink:href="#DejaVuSans-32" x="95.410156"/>
      </g>
     </g>
    </g>
    <g id="xtick_3">
     <g id="line2d_3">
      <g>
       <use xlink:href="#mc83c34e17a" x="201.280511" y="284.4" style="stroke: #000000; stroke-width: 0.8"/>
      </g>
     </g>
     <g id="text_3">
      <!-- 0.4 -->
      <g transform="translate(193.328949 298.998438)scale(0.1 -0.1)">
       <defs>
        <path id="DejaVuSans-34" d="M 2419 4116 
L 825 1625 
L 2419 1625 
L 2419 4116 
z
M 2253 4666 
L 3047 4666 
L 3047 1625 
L 3713 1625 
L 3713 1100 
L 3047 1100 
L 3047 0 
L 2419 0 
L 2419 1100 
L 313 1100 
L 313 1709 
L 2253 4666 
z
" transform="scale(0.015625)"/>
       </defs>
       <use xlink:href="#DejaVuSans-30"/>
       <use xlink:href="#DejaVuSans-2e" x="63.623047"/>
       <use xlink:href="#DejaVuSans-34" x="95.410156"/>
      </g>
     </g>
    </g>
    <g id="xtick_4">
     <g id="line2d_4">
      <g>
       <use xlink:href="#mc83c34e17a" x="268.916875" y="284.4" style="stroke: #000000; stroke-width: 0.8"/>
      </g>
     </g>
     <g id="text_4">
      <!-- 0.6 -->
      <g transform="translate(260.965312 298.998438)scale(0.1 -0.1)">
       <defs>
        <path id="DejaVuSans-36" d="M 2113 2584 
Q 1688 2584 1439 2293 
Q 1191 2003 1191 1497 
Q 1191 994 1439 701 
Q 1688 409 2113 409 
Q 2538 409 2786 701 
Q 3034 994 3034 1497 
Q 3034 2003 2786 2293 
Q 2538 2584 2113 2584 
z
M 3366 4563 
L 3366 3988 
Q 3128 4100 2886 4159 
Q 2644 4219 2406 4219 
Q 1781 4219 1451 3797 
Q 1122 3375 1075 2522 
Q 1259 2794 1537 2939 
Q 1816 3084 2150 3084 
Q 2853 3084 3261 2657 
Q 3669 2231 3669 1497 
Q 3669 778 3244 343 
Q 2819 -91 2113 -91 
Q 1303 -91 875 529 
Q 447 1150 447 2328 
Q 447 3434 972 4092 
Q 1497 4750 2381 4750 
Q 2619 4750 2861 4703 
Q 3103 4656 3366 4563 
z
" transform="scale(0.015625)"/>
       </defs>
       <use xlink:href="#DejaVuSans-30"/>
       <use xlink:href="#DejaVuSans-2e" x="63.623047"/>
       <use xlink:href="#DejaVuSans-36" x="95.410156"/>
      </g>
     </g>
    </g>
    <g id="xtick_5">
     <g id="line2d_5">
      <g>
       <use xlink:href="#mc83c34e17a" x="336.553239" y="284.4" style="stroke: #000000; stroke-width: 0.8"/>
      </g>
     </g>
     <g id="text_5">
      <!-- 0.8 -->
      <g transform="translate(328.601676 298.998438)scale(0.1 -0.1)">
       <defs>
        <path id="DejaVuSans-38" d="M 2034 2216 
Q 1584 2216 1326 1975 
Q 1069 1734 1069 1313 
Q 1069 891 1326 650 
Q 1584 409 2034 409 
Q 2484 409 2743 651 
Q 3003 894 3003 1313 
Q 3003 1734 2745 1975 
Q 2488 2216 2034 2216 
z
M 1403 2484 
Q 997 2584 770 2862 
Q 544 3141 544 3541 
Q 544 4100 942 4425 
Q 1341 4750 2034 4750 
Q 2731 4750 3128 4425 
Q 3525 4100 3525 3541 
Q 3525 3141 3298 2862 
Q 3072 2584 2669 2484 
Q 3125 2378 3379 2068 
Q 3634 1759 3634 1313 
Q 3634 634 3220 271 
Q 2806 -91 2034 -91 
Q 1263 -91 848 271 
Q 434 634 434 1313 
Q 434 1759 690 2068 
Q 947 2378 1403 2484 
z
M 1172 3481 
Q 1172 3119 1398 2916 
Q 1625 2713 2034 2713 
Q 2441 2713 2670 2916 
Q 2900 3119 2900 3481 
Q 2900 3844 2670 4047 
Q 2441 4250 2034 4250 
Q 1625 4250 1398 4047 
Q 1172 3844 1172 3481 
z
" transform="scale(0.015625)"/>
       </defs>
       <use xlink:href="#DejaVuSans-30"/>
       <use xlink:href="#DejaVuSans-2e" x="63.623047"/>
       <use xlink:href="#DejaVuSans-38" x="95.410156"/>
      </g>
     </g>
    </g>
    <g id="xtick_6">
     <g id="line2d_6">
      <g>
       <use xlink:href="#mc83c34e17a" x="404.189602" y="284.4" style="stroke: #000000; stroke-width: 0.8"/>
      </g>
     </g>
     <g id="text_6">
      <!-- 1.0 -->
      <g transform="translate(396.23804 298.998438)scale(0.1 -0.1)">
       <defs>
        <path id="DejaVuSans-31" d="M 794 531 
L 1825 531 
L 1825 4091 
L 703 3866 
L 703 4441 
L 1819 4666 
L 2450 4666 
L 2450 531 
L 3481 531 
L 3481 0 
L 794 0 
L 794 531 
z
" transform="scale(0.015625)"/>
       </defs>
       <use xlink:href="#DejaVuSans-31"/>
       <use xlink:href="#DejaVuSans-2e" x="63.623047"/>
       <use xlink:href="#DejaVuSans-30" x="95.410156"/>
      </g>
     </g>
    </g>
    <g id="xtick_7">
     <g id="line2d_7">
      <g>
       <use xlink:href="#mc83c34e17a" x="471.825966" y="284.4" style="stroke: #000000; stroke-width: 0.8"/>
      </g>
     </g>
     <g id="text_7">
      <!-- 1.2 -->
      <g transform="translate(463.874403 298.998438)scale(0.1 -0.1)">
       <use xlink:href="#DejaVuSans-31"/>
       <use xlink:href="#DejaVuSans-2e" x="63.623047"/>
       <use xlink:href="#DejaVuSans-32" x="95.410156"/>
      </g>
     </g>
    </g>
    <g id="text_8">
     <!-- Energy -->
     <g transform="translate(247.909375 314.19625)scale(0.12 -0.12)">
      <defs>
       <path id="DejaVuSans-45" d="M 628 4666 
L 3578 4666 
L 3578 4134 
L 1259 4134 
L 1259 2753 
L 3481 2753 
L 3481 2222 
L 1259 2222 
L 1259 531 
L 3634 531 
L 3634 0 
L 628 0 
L 628 4666 
z
" transform="scale(0.015625)"/>
       <path id="DejaVuSans-6e" d="M 3513 2113 
L 3513 0 
L 2938 0 
L 2938 2094 
Q 2938 2591 2744 2837 
Q 2550 3084 2163 3084 
Q 1697 3084 1428 2787 
Q 1159 2491 1159 1978 
L 1159 0 
L 581 0 
L 581 3500 
L 1159 3500 
L 1159 2956 
Q 1366 3272 1645 3428 
Q 1925 3584 2291 3584 
Q 2894 3584 3203 3211 
Q 3513 2838 3513 2113 
z
" transform="scale(0.015625)"/>
       <path id="DejaVuSans-65" d="M 3597 1894 
L 3597 1613 
L 953 1613 
Q 991 1019 1311 708 
Q 1631 397 2203 397 
Q 2534 397 2845 478 
Q 3156 559 3463 722 
L 3463 178 
Q 3153 47 2828 -22 
Q 2503 -91 2169 -91 
Q 1331 -91 842 396 
Q 353 884 353 1716 
Q 353 2575 817 3079 
Q 1281 3584 2069 3584 
Q 2775 3584 3186 3129 
Q 3597 2675 3597 1894 
z
M 3022 2063 
Q 3016 2534 2758 2815 
Q 2500 3097 2075 3097 
Q 1594 3097 1305 2825 
Q 1016 2553 972 2059 
L 3022 2063 
z
" transform="scale(0.015625)"/>
       <path id="DejaVuSans-72" d="M 2631 2963 
Q 2534 3019 2420 3045 
Q 2306 3072 2169 3072 
Q 1681 3072 1420 2755 
Q 1159 2438 1159 1844 
L 1159 0 
L 581 0 
L 581 3500 
L 1159 3500 
L 1159 2956 
Q 1341 3275 1631 3429 
Q 1922 3584 2338 3584 
Q 2397 3584 2469 3576 
Q 2541 3569 2628 3553 
L 2631 2963 
z
" transform="scale(0.015625)"/>
       <path id="DejaVuSans-67" d="M 2906 1791 
Q 2906 2416 2648 2759 
Q 2391 3103 1925 3103 
Q 1463 3103 1205 2759 
Q 947 2416 947 1791 
Q 947 1169 1205 825 
Q 1463 481 1925 481 
Q 2391 481 2648 825 
Q 2906 1169 2906 1791 
z
M 3481 434 
Q 3481 -459 3084 -895 
Q 2688 -1331 1869 -1331 
Q 1566 -1331 1297 -1286 
Q 1028 -1241 775 -1147 
L 775 -588 
Q 1028 -725 1275 -790 
Q 1522 -856 1778 -856 
Q 2344 -856 2625 -561 
Q 2906 -266 2906 331 
L 2906 616 
Q 2728 306 2450 153 
Q 2172 0 1784 0 
Q 1141 0 747 490 
Q 353 981 353 1791 
Q 353 2603 747 3093 
Q 1141 3584 1784 3584 
Q 2172 3584 2450 3431 
Q 2728 3278 2906 2969 
L 2906 3500 
L 3481 3500 
L 3481 434 
z
" transform="scale(0.015625)"/>
       <path id="DejaVuSans-79" d="M 2059 -325 
Q 1816 -950 1584 -1140 
Q 1353 -1331 966 -1331 
L 506 -1331 
L 506 -850 
L 844 -850 
Q 1081 -850 1212 -737 
Q 1344 -625 1503 -206 
L 1606 56 
L 191 3500 
L 800 3500 
L 1894 763 
L 2988 3500 
L 3597 3500 
L 2059 -325 
z
" transform="scale(0.015625)"/>
      </defs>
      <use xlink:href="#DejaVuSans-45"/>
      <use xlink:href="#DejaVuSans-6e" x="63.183594"/>
      <use xlink:href="#DejaVuSans-65" x="126.5625"/>
      <use xlink:href="#DejaVuSans-72" x="188.085938"/>
      <use xlink:href="#DejaVuSans-67" x="227.449219"/>
      <use xlink:href="#DejaVuSans-79" x="290.925781"/>
     </g>
    </g>
   </g>
   <g id="matplotlib.axis_2">
    <g id="ytick_1">
     <g id="line2d_8">
      <defs>
       <path id="ma53a9fdf76" d="M 0 0 
L -3.5 0 
" style="stroke: #000000; stroke-width: 0.8"/>
      </defs>
      <g>
       <use xlink:href="#ma53a9fdf76" x="45.716875" y="271.8" style="stroke: #000000; stroke-width: 0.8"/>
      </g>
     </g>
     <g id="text_9">
      <!-- 0.0 -->
      <g transform="translate(22.81375 275.599219)scale(0.1 -0.1)">
       <use xlink:href="#DejaVuSans-30"/>
       <use xlink:href="#DejaVuSans-2e" x="63.623047"/>
       <use xlink:href="#DejaVuSans-30" x="95.410156"/>
      </g>
     </g>
    </g>
    <g id="ytick_2">
     <g id="line2d_9">
      <g>
       <use xlink:href="#ma53a9fdf76" x="45.716875" y="221.394215" style="stroke: #000000; stroke-width: 0.8"/>
      </g>
     </g>
     <g id="text_10">
      <!-- 0.2 -->
      <g transform="translate(22.81375 225.193433)scale(0.1 -0.1)">
       <use xlink:href="#DejaVuSans-30"/>
       <use xlink:href="#DejaVuSans-2e" x="63.623047"/>
       <use xlink:href="#DejaVuSans-32" x="95.410156"/>
      </g>
     </g>
    </g>
    <g id="ytick_3">
     <g id="line2d_10">
      <g>
       <use xlink:href="#ma53a9fdf76" x="45.716875" y="170.988429" style="stroke: #000000; stroke-width: 0.8"/>
      </g>
     </g>
     <g id="text_11">
      <!-- 0.4 -->
      <g transform="translate(22.81375 174.787648)scale(0.1 -0.1)">
       <use xlink:href="#DejaVuSans-30"/>
       <use xlink:href="#DejaVuSans-2e" x="63.623047"/>
       <use xlink:href="#DejaVuSans-34" x="95.410156"/>
      </g>
     </g>
    </g>
    <g id="ytick_4">
     <g id="line2d_11">
      <g>
       <use xlink:href="#ma53a9fdf76" x="45.716875" y="120.582644" style="stroke: #000000; stroke-width: 0.8"/>
      </g>
     </g>
     <g id="text_12">
      <!-- 0.6 -->
      <g transform="translate(22.81375 124.381862)scale(0.1 -0.1)">
       <use xlink:href="#DejaVuSans-30"/>
       <use xlink:href="#DejaVuSans-2e" x="63.623047"/>
       <use xlink:href="#DejaVuSans-36" x="95.410156"/>
      </g>
     </g>
    </g>
    <g id="ytick_5">
     <g id="line2d_12">
      <g>
       <use xlink:href="#ma53a9fdf76" x="45.716875" y="70.176858" style="stroke: #000000; stroke-width: 0.8"/>
      </g>
     </g>
     <g id="text_13">
      <!-- 0.8 -->
      <g transform="translate(22.81375 73.976077)scale(0.1 -0.1)">
       <use xlink:href="#DejaVuSans-30"/>
       <use xlink:href="#DejaVuSans-2e" x="63.623047"/>
       <use xlink:href="#DejaVuSans-38" x="95.410156"/>
      </g>
     </g>
    </g>
    <g id="ytick_6">
     <g id="line2d_13">
      <g>
       <use xlink:href="#ma53a9fdf76" x="45.716875" y="19.771073" style="stroke: #000000; stroke-width: 0.8"/>
      </g>
     </g>
     <g id="text_14">
      <!-- 1.0 -->
      <g transform="translate(22.81375 23.570291)scale(0.1 -0.1)">
       <use xlink:href="#DejaVuSans-31"/>
       <use xlink:href="#DejaVuSans-2e" x="63.623047"/>
       <use xlink:href="#DejaVuSans-30" x="95.410156"/>
      </g>
     </g>
    </g>
    <g id="text_15">
     <!-- Flux -->
     <g transform="translate(16.318125 158.271563)rotate(-90)scale(0.12 -0.12)">
      <defs>
       <path id="DejaVuSans-46" d="M 628 4666 
L 3309 4666 
L 3309 4134 
L 1259 4134 
L 1259 2759 
L 3109 2759 
L 3109 2228 
L 1259 2228 
L 1259 0 
L 628 0 
L 628 4666 
z
" transform="scale(0.015625)"/>
       <path id="DejaVuSans-6c" d="M 603 4863 
L 1178 4863 
L 1178 0 
L 603 0 
L 603 4863 
z
" transform="scale(0.015625)"/>
       <path id="DejaVuSans-75" d="M 544 1381 
L 544 3500 
L 1119 3500 
L 1119 1403 
Q 1119 906 1312 657 
Q 1506 409 1894 409 
Q 2359 409 2629 706 
Q 2900 1003 2900 1516 
L 2900 3500 
L 3475 3500 
L 3475 0 
L 2900 0 
L 2900 538 
Q 2691 219 2414 64 
Q 2138 -91 1772 -91 
Q 1169 -91 856 284 
Q 544 659 544 1381 
z
M 1991 3584 
L 1991 3584 
z
" transform="scale(0.015625)"/>
       <path id="DejaVuSans-78" d="M 3513 3500 
L 2247 1797 
L 3578 0 
L 2900 0 
L 1881 1375 
L 863 0 
L 184 0 
L 1544 1831 
L 300 3500 
L 978 3500 
L 1906 2253 
L 2834 3500 
L 3513 3500 
z
" transform="scale(0.015625)"/>
      </defs>
      <use xlink:href="#DejaVuSans-46"/>
      <use xlink:href="#DejaVuSans-6c" x="57.519531"/>
      <use xlink:href="#DejaVuSans-75" x="85.302734"/>
      <use xlink:href="#DejaVuSans-78" x="148.681641"/>
     </g>
    </g>
   </g>
   <g id="line2d_14">
    <path d="M 66.007784 271.8 
L 70.106958 271.8 
L 74.206131 271.8 
L 78.305305 271.8 
L 82.404478 271.8 
L 86.503652 271.8 
L 90.602825 271.8 
L 94.701999 271.8 
L 98.801173 271.8 
L 102.900346 271.8 
L 106.99952 271.799999 
L 111.098693 271.799999 
L 115.197867 271.799997 
L 119.29704 271.799994 
L 123.396214 271.799988 
L 127.495387 271.799975 
L 131.594561 271.799951 
L 135.693735 271.799905 
L 139.792908 271.799818 
L 143.892082 271.799656 
L 147.991255 271.799359 
L 152.090429 271.798822 
L 156.189602 271.797869 
L 160.288776 271.796199 
L 164.387949 271.79332 
L 168.487123 271.788432 
L 172.586296 271.78026 
L 176.68547 271.766806 
L 180.784644 271.744995 
L 184.883817 271.710182 
L 188.982991 271.655474 
L 193.082164 271.570838 
L 197.181338 271.441936 
L 201.280511 271.248689 
L 205.379685 270.963526 
L 209.478858 270.549374 
L 213.578032 269.957441 
L 217.677206 269.124933 
L 221.776379 267.972923 
L 225.875553 266.40466 
L 229.974726 264.304689 
L 234.0739 261.539237 
L 238.173073 257.958319 
L 242.272247 253.400027 
L 246.37142 247.697353 
L 250.470594 240.687747 
L 254.569768 232.225324 
L 258.668941 222.195342 
L 262.768115 210.530163 
L 266.867288 197.225529 
L 270.966462 182.35567 
L 275.065635 166.085484 
L 279.164809 148.678011 
L 283.263982 130.495563 
L 287.363156 111.993236 
L 291.46233 93.704193 
L 295.561503 76.216859 
L 299.660677 60.145105 
L 303.75985 46.093327 
L 307.859024 34.619127 
L 311.958197 26.196751 
L 316.057371 21.184612 
L 320.156544 19.8 
L 324.255718 22.103457 
L 328.354892 27.994388 
L 332.454065 37.218343 
L 336.553239 49.385252 
L 340.652412 63.99677 
L 344.751586 80.480081 
L 348.850759 98.224964 
L 352.949933 116.620796 
L 357.049106 135.090418 
L 361.14828 153.11835 
L 365.247454 170.271639 
L 369.346627 186.212497 
L 373.445801 200.702797 
L 377.544974 213.601223 
L 381.644148 224.854455 
L 385.743321 234.484085 
L 389.842495 242.571066 
L 393.941668 249.239379 
L 398.040842 254.640355 
L 402.140015 258.938704 
L 406.239189 262.300946 
L 410.338363 264.886545 
L 414.437536 266.841742 
L 418.53671 268.295853 
L 422.635883 269.359636 
L 426.735057 270.125265 
L 430.83423 270.667451 
L 434.933404 271.045279 
L 439.032577 271.304395 
L 443.131751 271.479296 
L 447.230925 271.595501 
L 451.330098 271.671502 
L 455.429272 271.720435 
L 459.528445 271.751452 
L 463.627619 271.77081 
L 467.726792 271.782705 
L 471.825966 271.789902 
" clip-path="url(#p22f4cebd57)" style="fill: none; stroke-dasharray: 5.55,2.4; stroke-dashoffset: 0; stroke: #008000; stroke-width: 1.5"/>
   </g>
   <g id="line2d_15">
    <path d="M 66.007784 271.8 
L 70.106958 271.8 
L 74.206131 271.8 
L 78.305305 271.8 
L 82.404478 271.8 
L 86.503652 271.8 
L 90.602825 271.8 
L 94.701999 271.8 
L 98.801173 271.8 
L 102.900346 271.799999 
L 106.99952 271.799997 
L 111.098693 271.799993 
L 115.197867 271.799984 
L 119.29704 271.799963 
L 123.396214 271.799917 
L 127.495387 271.799818 
L 131.594561 271.79961 
L 135.693735 271.799181 
L 139.792908 271.798316 
L 143.892082 271.79661 
L 147.991255 271.79332 
L 152.090429 271.787112 
L 156.189602 271.775656 
L 160.288776 271.754977 
L 164.387949 271.718476 
L 168.487123 271.655474 
L 172.586296 271.549148 
L 176.68547 271.373715 
L 180.784644 271.090756 
L 184.883817 270.644679 
L 188.982991 269.957441 
L 193.082164 268.922922 
L 197.181338 267.401612 
L 201.280511 265.216649 
L 205.379685 262.15256 
L 209.478858 257.958319 
L 213.578032 252.356378 
L 217.677206 245.059032 
L 221.776379 235.792854 
L 225.875553 224.330801 
L 229.974726 210.530163 
L 234.0739 194.372868 
L 238.173073 176.003148 
L 242.272247 155.756472 
L 246.37142 134.173448 
L 250.470594 111.993236 
L 254.569768 90.123102 
L 258.668941 69.583833 
L 262.768115 51.434469 
L 266.867288 36.683517 
L 270.966462 26.196751 
L 275.065635 20.61323 
L 279.164809 20.280863 
L 283.263982 25.220522 
L 287.363156 35.123878 
L 291.46233 49.385252 
L 295.561503 67.162916 
L 299.660677 87.461217 
L 303.75985 109.222397 
L 307.859024 131.416413 
L 311.958197 153.11835 
L 316.057371 173.565862 
L 320.156544 192.192695 
L 324.255718 208.638124 
L 328.354892 222.735345 
L 332.454065 234.484085 
L 336.553239 244.013678 
L 340.652412 251.542789 
L 344.751586 257.340947 
L 348.850759 261.695573 
L 352.949933 264.886545 
L 357.049106 267.168836 
L 361.14828 268.762636 
L 365.247454 269.849638 
L 369.346627 270.573846 
L 373.445801 271.045279 
L 377.544974 271.34518 
L 381.644148 271.531648 
L 385.743321 271.644982 
L 389.842495 271.712326 
L 393.941668 271.751452 
L 398.040842 271.77368 
L 402.140015 271.78603 
L 406.239189 271.79274 
L 410.338363 271.796306 
L 414.437536 271.79816 
L 418.53671 271.799103 
L 422.635883 271.799571 
L 426.735057 271.7998 
L 430.83423 271.799908 
L 434.933404 271.799959 
L 439.032577 271.799982 
L 443.131751 271.799992 
L 447.230925 271.799997 
L 451.330098 271.799999 
L 455.429272 271.799999 
L 459.528445 271.8 
L 463.627619 271.8 
L 467.726792 271.8 
L 471.825966 271.8 
" clip-path="url(#p22f4cebd57)" style="fill: none; stroke: #fddcaf; stroke-width: 1.5; stroke-linecap: square"/>
   </g>
   <g id="line2d_16">
    <path d="M 66.007784 271.8 
L 70.106958 271.8 
L 74.206131 271.8 
L 78.305305 271.8 
L 82.404478 271.8 
L 86.503652 271.8 
L 90.602825 271.8 
L 94.701999 271.799999 
L 98.801173 271.799998 
L 102.900346 271.799995 
L 106.99952 271.799988 
L 111.098693 271.799968 
L 115.197867 271.799917 
L 119.29704 271.799793 
L 123.396214 271.799499 
L 127.495387 271.798822 
L 131.594561 271.797309 
L 135.693735 271.794026 
L 139.792908 271.787112 
L 143.892082 271.772989 
L 147.991255 271.744995 
L 152.090429 271.691166 
L 156.189602 271.590775 
L 160.288776 271.409197 
L 164.387949 271.090756 
L 168.487123 270.549374 
L 172.586296 269.657344 
L 176.68547 268.233263 
L 180.784644 266.031227 
L 184.883817 262.734551 
L 188.982991 257.958319 
L 193.082164 251.265605 
L 197.181338 242.201577 
L 201.280511 230.347679 
L 205.379685 215.394336 
L 209.478858 197.225529 
L 213.578032 176.003148 
L 217.677206 152.234499 
L 221.776379 126.804629 
L 225.875553 100.957476 
L 229.974726 76.216859 
L 234.0739 54.249318 
L 238.173073 36.683517 
L 242.272247 24.912388 
L 246.37142 19.91105 
L 250.470594 22.103457 
L 254.569768 31.30307 
L 258.668941 46.739054 
L 262.768115 67.162916 
L 266.867288 91.015109 
L 270.966462 116.620796 
L 275.065635 142.380862 
L 279.164809 166.928596 
L 283.263982 189.232477 
L 287.363156 208.638124 
L 291.46233 224.854455 
L 295.561503 237.897842 
L 299.660677 248.012221 
L 303.75985 255.582868 
L 307.859024 261.057935 
L 311.958197 264.886545 
L 316.057371 267.476892 
L 320.156544 269.17342 
L 324.255718 270.249475 
L 328.354892 270.910675 
L 332.454065 271.304395 
L 336.553239 271.531648 
L 340.652412 271.658822 
L 344.751586 271.727836 
L 348.850759 271.76416 
L 352.949933 271.782705 
L 357.049106 271.791891 
L 361.14828 271.796306 
L 365.247454 271.798365 
L 369.346627 271.799297 
L 373.445801 271.799706 
L 377.544974 271.799881 
L 381.644148 271.799953 
L 385.743321 271.799982 
L 389.842495 271.799993 
L 393.941668 271.799998 
L 398.040842 271.799999 
L 402.140015 271.8 
L 406.239189 271.8 
L 410.338363 271.8 
L 414.437536 271.8 
L 418.53671 271.8 
L 422.635883 271.8 
L 426.735057 271.8 
L 430.83423 271.8 
L 434.933404 271.8 
L 439.032577 271.8 
L 443.131751 271.8 
L 447.230925 271.8 
L 451.330098 271.8 
L 455.429272 271.8 
L 459.528445 271.8 
L 463.627619 271.8 
L 467.726792 271.8 
L 471.825966 271.8 
" clip-path="url(#p22f4cebd57)" style="fill: none; stroke: #fdb27b; stroke-width: 1.5; stroke-linecap: square"/>
   </g>
   <g id="line2d_17">
    <path d="M 66.007784 271.8 
L 70.106958 271.8 
L 74.206131 271.8 
L 78.305305 271.8 
L 82.404478 271.8 
L 86.503652 271.8 
L 90.602825 271.8 
L 94.701999 271.799998 
L 98.801173 271.799995 
L 102.900346 271.799984 
L 106.99952 271.799951 
L 111.098693 271.79986 
L 115.197867 271.79961 
L 119.29704 271.798956 
L 123.396214 271.797309 
L 127.495387 271.79332 
L 131.594561 271.784031 
L 135.693735 271.763234 
L 139.792908 271.718476 
L 143.892082 271.625904 
L 147.991255 271.441936 
L 152.090429 271.090756 
L 156.189602 270.447004 
L 160.288776 269.314221 
L 164.387949 267.401612 
L 168.487123 264.304689 
L 172.586296 259.498705 
L 176.68547 252.356378 
L 180.784644 242.201577 
L 184.883817 228.406458 
L 188.982991 210.530163 
L 193.082164 188.483032 
L 197.181338 162.68479 
L 201.280511 134.173448 
L 205.379685 104.620019 
L 209.478858 76.216859 
L 213.578032 51.434469 
L 217.677206 32.677183 
L 221.776379 21.901601 
L 225.875553 20.280863 
L 229.974726 27.994388 
L 234.0739 44.195174 
L 238.173073 67.162916 
L 242.272247 94.604653 
L 246.37142 124.0303 
L 250.470594 153.11835 
L 254.569768 179.999116 
L 258.668941 203.412732 
L 262.768115 222.735345 
L 266.867288 237.897842 
L 270.966462 249.239379 
L 275.065635 257.340947 
L 279.164809 262.875297 
L 283.263982 266.494665 
L 287.363156 268.762636 
L 291.46233 270.125265 
L 295.561503 270.910675 
L 299.660677 271.34518 
L 303.75985 271.575981 
L 307.859024 271.693734 
L 311.958197 271.751452 
L 316.057371 271.77864 
L 320.156544 271.790949 
L 324.255718 271.796306 
L 328.354892 271.798548 
L 332.454065 271.79945 
L 336.553239 271.7998 
L 340.652412 271.79993 
L 344.751586 271.799976 
L 348.850759 271.799992 
L 352.949933 271.799998 
L 357.049106 271.799999 
L 361.14828 271.8 
L 365.247454 271.8 
L 369.346627 271.8 
L 373.445801 271.8 
L 377.544974 271.8 
L 381.644148 271.8 
L 385.743321 271.8 
L 389.842495 271.8 
L 393.941668 271.8 
L 398.040842 271.8 
L 402.140015 271.8 
L 406.239189 271.8 
L 410.338363 271.8 
L 414.437536 271.8 
L 418.53671 271.8 
L 422.635883 271.8 
L 426.735057 271.8 
L 430.83423 271.8 
L 434.933404 271.8 
L 439.032577 271.8 
L 443.131751 271.8 
L 447.230925 271.8 
L 451.330098 271.8 
L 455.429272 271.8 
L 459.528445 271.8 
L 463.627619 271.8 
L 467.726792 271.8 
L 471.825966 271.8 
" clip-path="url(#p22f4cebd57)" style="fill: none; stroke: #f26d4b; stroke-width: 1.5; stroke-linecap: square"/>
   </g>
   <g id="patch_3">
    <path d="M 45.716875 284.4 
L 45.716875 7.2 
" style="fill: none; stroke: #000000; stroke-width: 0.8; stroke-linejoin: miter; stroke-linecap: square"/>
   </g>
   <g id="patch_4">
    <path d="M 492.116875 284.4 
L 492.116875 7.2 
" style="fill: none; stroke: #000000; stroke-width: 0.8; stroke-linejoin: miter; stroke-linecap: square"/>
   </g>
   <g id="patch_5">
    <path d="M 45.716875 284.4 
L 492.116875 284.4 
" style="fill: none; stroke: #000000; stroke-width: 0.8; stroke-linejoin: miter; stroke-linecap: square"/>
   </g>
   <g id="patch_6">
    <path d="M 45.716875 7.2 
L 492.116875 7.2 
" style="fill: none; stroke: #000000; stroke-width: 0.8; stroke-linejoin: miter; stroke-linecap: square"/>
   </g>
   <g id="legend_1">
    <g id="patch_7">
     <path d="M 419.616875 73.9125 
L 485.116875 73.9125 
Q 487.116875 73.9125 487.116875 71.9125 
L 487.116875 14.2 
Q 487.116875 12.2 485.116875 12.2 
L 419.616875 12.2 
Q 417.616875 12.2 417.616875 14.2 
L 417.616875 71.9125 
Q 417.616875 73.9125 419.616875 73.9125 
z
" style="fill: #ffffff; opacity: 0.8; stroke: #cccccc; stroke-linejoin: miter"/>
    </g>
    <g id="line2d_18">
     <path d="M 421.616875 20.298437 
L 431.616875 20.298437 
L 441.616875 20.298437 
" style="fill: none; stroke-dasharray: 5.55,2.4; stroke-dashoffset: 0; stroke: #008000; stroke-width: 1.5"/>
    </g>
    <g id="text_16">
     <!-- $z=0$ -->
     <g transform="translate(449.616875 23.798437)scale(0.1 -0.1)">
      <defs>
       <path id="DejaVuSans-Oblique-7a" d="M 744 3500 
L 3475 3500 
L 3372 2975 
L 738 459 
L 2913 459 
L 2822 0 
L -19 0 
L 84 525 
L 2719 3041 
L 653 3041 
L 744 3500 
z
" transform="scale(0.015625)"/>
       <path id="DejaVuSans-3d" d="M 678 2906 
L 4684 2906 
L 4684 2381 
L 678 2381 
L 678 2906 
z
M 678 1631 
L 4684 1631 
L 4684 1100 
L 678 1100 
L 678 1631 
z
" transform="scale(0.015625)"/>
      </defs>
      <use xlink:href="#DejaVuSans-Oblique-7a" transform="translate(0 0.78125)"/>
      <use xlink:href="#DejaVuSans-3d" transform="translate(71.972656 0.78125)"/>
      <use xlink:href="#DejaVuSans-30" transform="translate(175.244141 0.78125)"/>
     </g>
    </g>
    <g id="line2d_19">
     <path d="M 421.616875 34.976562 
L 431.616875 34.976562 
L 441.616875 34.976562 
" style="fill: none; stroke: #fddcaf; stroke-width: 1.5; stroke-linecap: square"/>
    </g>
    <g id="text_17">
     <!-- $z=0.2$ -->
     <g transform="translate(449.616875 38.476562)scale(0.1 -0.1)">
      <use xlink:href="#DejaVuSans-Oblique-7a" transform="translate(0 0.78125)"/>
      <use xlink:href="#DejaVuSans-3d" transform="translate(71.972656 0.78125)"/>
      <use xlink:href="#DejaVuSans-30" transform="translate(175.244141 0.78125)"/>
      <use xlink:href="#DejaVuSans-2e" transform="translate(238.867188 0.78125)"/>
      <use xlink:href="#DejaVuSans-32" transform="translate(265.154297 0.78125)"/>
     </g>
    </g>
    <g id="line2d_20">
     <path d="M 421.616875 49.654687 
L 431.616875 49.654687 
L 441.616875 49.654687 
" style="fill: none; stroke: #fdb27b; stroke-width: 1.5; stroke-linecap: square"/>
    </g>
    <g id="text_18">
     <!-- $z=0.4$ -->
     <g transform="translate(449.616875 53.154687)scale(0.1 -0.1)">
      <use xlink:href="#DejaVuSans-Oblique-7a" transform="translate(0 0.78125)"/>
      <use xlink:href="#DejaVuSans-3d" transform="translate(71.972656 0.78125)"/>
      <use xlink:href="#DejaVuSans-30" transform="translate(175.244141 0.78125)"/>
      <use xlink:href="#DejaVuSans-2e" transform="translate(238.867188 0.78125)"/>
      <use xlink:href="#DejaVuSans-34" transform="translate(270.654297 0.78125)"/>
     </g>
    </g>
    <g id="line2d_21">
     <path d="M 421.616875 64.332812 
L 431.616875 64.332812 
L 441.616875 64.332812 
" style="fill: none; stroke: #f26d4b; stroke-width: 1.5; stroke-linecap: square"/>
    </g>
    <g id="text_19">
     <!-- $z=0.6$ -->
     <g transform="translate(449.616875 67.832812)scale(0.1 -0.1)">
      <use xlink:href="#DejaVuSans-Oblique-7a" transform="translate(0 0.78125)"/>
      <use xlink:href="#DejaVuSans-3d" transform="translate(71.972656 0.78125)"/>
      <use xlink:href="#DejaVuSans-30" transform="translate(175.244141 0.78125)"/>
      <use xlink:href="#DejaVuSans-2e" transform="translate(238.867188 0.78125)"/>
      <use xlink:href="#DejaVuSans-36" transform="translate(270.654297 0.78125)"/>
     </g>
    </g>
   </g>
  </g>
 </g>
 <defs>
  <clipPath id="p22f4cebd57">
   <rect x="45.716875" y="7.2" width="446.4" height="277.2"/>
  </clipPath>
 </defs>
</svg>
