<?xml version="1.0" encoding="utf-8" standalone="no"?>
<!DOCTYPE svg PUBLIC "-//W3C//DTD SVG 1.1//EN"
  "http://www.w3.org/Graphics/SVG/1.1/DTD/svg11.dtd">
<svg xmlns:xlink="http://www.w3.org/1999/xlink" width="499.316875pt" height="323.891875pt" viewBox="0 0 499.316875 323.891875" xmlns="http://www.w3.org/2000/svg" version="1.1">
 <metadata>
  <rdf:RDF xmlns:dc="http://purl.org/dc/elements/1.1/" xmlns:cc="http://creativecommons.org/ns#" xmlns:rdf="http://www.w3.org/1999/02/22-rdf-syntax-ns#">
   <cc:Work>
    <dc:type rdf:resource="http://purl.org/dc/dcmitype/StillImage"/>
    <dc:date>2022-05-03T11:26:09.489520</dc:date>
    <dc:format>image/svg+xml</dc:format>
    <dc:creator>
     <cc:Agent>
      <dc:title>Matplotlib v3.5.2, https://matplotlib.org/</dc:title>
     </cc:Agent>
    </dc:creator>
   </cc:Work>
  </rdf:RDF>
 </metadata>
 <defs>
  <style type="text/css">*{stroke-linejoin: round; stroke-linecap: butt}</style>
 </defs>
 <g id="figure_1">
  <g id="patch_1">
   <path d="M 0 323.891875 
L 499.316875 323.891875 
L 499.316875 0 
L 0 0 
L 0 323.891875 
z
" style="fill: none"/>
  </g>
  <g id="axes_1">
   <g id="patch_2">
    <path d="M 45.716875 284.4 
L 492.116875 284.4 
L 492.116875 7.2 
L 45.716875 7.2 
z
" style="fill: #ffffff"/>
   </g>
   <g id="matplotlib.axis_1">
    <g id="xtick_1">
     <g id="line2d_1">
      <defs>
       <path id="me7b6fe6597" d="M 0 0 
L 0 3.5 
" style="stroke: #000000; stroke-width: 0.8"/>
      </defs>
      <g>
       <use xlink:href="#me7b6fe6597" x="66.007784" y="284.4" style="stroke: #000000; stroke-width: 0.8"/>
      </g>
     </g>
     <g id="text_1">
      <!-- 1000 -->
      <g transform="translate(53.282784 298.998438)scale(0.1 -0.1)">
       <defs>
        <path id="DejaVuSans-31" d="M 794 531 
L 1825 531 
L 1825 4091 
L 703 3866 
L 703 4441 
L 1819 4666 
L 2450 4666 
L 2450 531 
L 3481 531 
L 3481 0 
L 794 0 
L 794 531 
z
" transform="scale(0.015625)"/>
        <path id="DejaVuSans-30" d="M 2034 4250 
Q 1547 4250 1301 3770 
Q 1056 3291 1056 2328 
Q 1056 1369 1301 889 
Q 1547 409 2034 409 
Q 2525 409 2770 889 
Q 3016 1369 3016 2328 
Q 3016 3291 2770 3770 
Q 2525 4250 2034 4250 
z
M 2034 4750 
Q 2819 4750 3233 4129 
Q 3647 3509 3647 2328 
Q 3647 1150 3233 529 
Q 2819 -91 2034 -91 
Q 1250 -91 836 529 
Q 422 1150 422 2328 
Q 422 3509 836 4129 
Q 1250 4750 2034 4750 
z
" transform="scale(0.015625)"/>
       </defs>
       <use xlink:href="#DejaVuSans-31"/>
       <use xlink:href="#DejaVuSans-30" x="63.623047"/>
       <use xlink:href="#DejaVuSans-30" x="127.246094"/>
       <use xlink:href="#DejaVuSans-30" x="190.869141"/>
      </g>
     </g>
    </g>
    <g id="xtick_2">
     <g id="line2d_2">
      <g>
       <use xlink:href="#me7b6fe6597" x="116.735057" y="284.4" style="stroke: #000000; stroke-width: 0.8"/>
      </g>
     </g>
     <g id="text_2">
      <!-- 1500 -->
      <g transform="translate(104.010057 298.998438)scale(0.1 -0.1)">
       <defs>
        <path id="DejaVuSans-35" d="M 691 4666 
L 3169 4666 
L 3169 4134 
L 1269 4134 
L 1269 2991 
Q 1406 3038 1543 3061 
Q 1681 3084 1819 3084 
Q 2600 3084 3056 2656 
Q 3513 2228 3513 1497 
Q 3513 744 3044 326 
Q 2575 -91 1722 -91 
Q 1428 -91 1123 -41 
Q 819 9 494 109 
L 494 744 
Q 775 591 1075 516 
Q 1375 441 1709 441 
Q 2250 441 2565 725 
Q 2881 1009 2881 1497 
Q 2881 1984 2565 2268 
Q 2250 2553 1709 2553 
Q 1456 2553 1204 2497 
Q 953 2441 691 2322 
L 691 4666 
z
" transform="scale(0.015625)"/>
       </defs>
       <use xlink:href="#DejaVuSans-31"/>
       <use xlink:href="#DejaVuSans-35" x="63.623047"/>
       <use xlink:href="#DejaVuSans-30" x="127.246094"/>
       <use xlink:href="#DejaVuSans-30" x="190.869141"/>
      </g>
     </g>
    </g>
    <g id="xtick_3">
     <g id="line2d_3">
      <g>
       <use xlink:href="#me7b6fe6597" x="167.46233" y="284.4" style="stroke: #000000; stroke-width: 0.8"/>
      </g>
     </g>
     <g id="text_3">
      <!-- 2000 -->
      <g transform="translate(154.73733 298.998438)scale(0.1 -0.1)">
       <defs>
        <path id="DejaVuSans-32" d="M 1228 531 
L 3431 531 
L 3431 0 
L 469 0 
L 469 531 
Q 828 903 1448 1529 
Q 2069 2156 2228 2338 
Q 2531 2678 2651 2914 
Q 2772 3150 2772 3378 
Q 2772 3750 2511 3984 
Q 2250 4219 1831 4219 
Q 1534 4219 1204 4116 
Q 875 4013 500 3803 
L 500 4441 
Q 881 4594 1212 4672 
Q 1544 4750 1819 4750 
Q 2544 4750 2975 4387 
Q 3406 4025 3406 3419 
Q 3406 3131 3298 2873 
Q 3191 2616 2906 2266 
Q 2828 2175 2409 1742 
Q 1991 1309 1228 531 
z
" transform="scale(0.015625)"/>
       </defs>
       <use xlink:href="#DejaVuSans-32"/>
       <use xlink:href="#DejaVuSans-30" x="63.623047"/>
       <use xlink:href="#DejaVuSans-30" x="127.246094"/>
       <use xlink:href="#DejaVuSans-30" x="190.869141"/>
      </g>
     </g>
    </g>
    <g id="xtick_4">
     <g id="line2d_4">
      <g>
       <use xlink:href="#me7b6fe6597" x="218.189602" y="284.4" style="stroke: #000000; stroke-width: 0.8"/>
      </g>
     </g>
     <g id="text_4">
      <!-- 2500 -->
      <g transform="translate(205.464602 298.998438)scale(0.1 -0.1)">
       <use xlink:href="#DejaVuSans-32"/>
       <use xlink:href="#DejaVuSans-35" x="63.623047"/>
       <use xlink:href="#DejaVuSans-30" x="127.246094"/>
       <use xlink:href="#DejaVuSans-30" x="190.869141"/>
      </g>
     </g>
    </g>
    <g id="xtick_5">
     <g id="line2d_5">
      <g>
       <use xlink:href="#me7b6fe6597" x="268.916875" y="284.4" style="stroke: #000000; stroke-width: 0.8"/>
      </g>
     </g>
     <g id="text_5">
      <!-- 3000 -->
      <g transform="translate(256.191875 298.998438)scale(0.1 -0.1)">
       <defs>
        <path id="DejaVuSans-33" d="M 2597 2516 
Q 3050 2419 3304 2112 
Q 3559 1806 3559 1356 
Q 3559 666 3084 287 
Q 2609 -91 1734 -91 
Q 1441 -91 1130 -33 
Q 819 25 488 141 
L 488 750 
Q 750 597 1062 519 
Q 1375 441 1716 441 
Q 2309 441 2620 675 
Q 2931 909 2931 1356 
Q 2931 1769 2642 2001 
Q 2353 2234 1838 2234 
L 1294 2234 
L 1294 2753 
L 1863 2753 
Q 2328 2753 2575 2939 
Q 2822 3125 2822 3475 
Q 2822 3834 2567 4026 
Q 2313 4219 1838 4219 
Q 1578 4219 1281 4162 
Q 984 4106 628 3988 
L 628 4550 
Q 988 4650 1302 4700 
Q 1616 4750 1894 4750 
Q 2613 4750 3031 4423 
Q 3450 4097 3450 3541 
Q 3450 3153 3228 2886 
Q 3006 2619 2597 2516 
z
" transform="scale(0.015625)"/>
       </defs>
       <use xlink:href="#DejaVuSans-33"/>
       <use xlink:href="#DejaVuSans-30" x="63.623047"/>
       <use xlink:href="#DejaVuSans-30" x="127.246094"/>
       <use xlink:href="#DejaVuSans-30" x="190.869141"/>
      </g>
     </g>
    </g>
    <g id="xtick_6">
     <g id="line2d_6">
      <g>
       <use xlink:href="#me7b6fe6597" x="319.644148" y="284.4" style="stroke: #000000; stroke-width: 0.8"/>
      </g>
     </g>
     <g id="text_6">
      <!-- 3500 -->
      <g transform="translate(306.919148 298.998438)scale(0.1 -0.1)">
       <use xlink:href="#DejaVuSans-33"/>
       <use xlink:href="#DejaVuSans-35" x="63.623047"/>
       <use xlink:href="#DejaVuSans-30" x="127.246094"/>
       <use xlink:href="#DejaVuSans-30" x="190.869141"/>
      </g>
     </g>
    </g>
    <g id="xtick_7">
     <g id="line2d_7">
      <g>
       <use xlink:href="#me7b6fe6597" x="370.37142" y="284.4" style="stroke: #000000; stroke-width: 0.8"/>
      </g>
     </g>
     <g id="text_7">
      <!-- 4000 -->
      <g transform="translate(357.64642 298.998438)scale(0.1 -0.1)">
       <defs>
        <path id="DejaVuSans-34" d="M 2419 4116 
L 825 1625 
L 2419 1625 
L 2419 4116 
z
M 2253 4666 
L 3047 4666 
L 3047 1625 
L 3713 1625 
L 3713 1100 
L 3047 1100 
L 3047 0 
L 2419 0 
L 2419 1100 
L 313 1100 
L 313 1709 
L 2253 4666 
z
" transform="scale(0.015625)"/>
       </defs>
       <use xlink:href="#DejaVuSans-34"/>
       <use xlink:href="#DejaVuSans-30" x="63.623047"/>
       <use xlink:href="#DejaVuSans-30" x="127.246094"/>
       <use xlink:href="#DejaVuSans-30" x="190.869141"/>
      </g>
     </g>
    </g>
    <g id="xtick_8">
     <g id="line2d_8">
      <g>
       <use xlink:href="#me7b6fe6597" x="421.098693" y="284.4" style="stroke: #000000; stroke-width: 0.8"/>
      </g>
     </g>
     <g id="text_8">
      <!-- 4500 -->
      <g transform="translate(408.373693 298.998438)scale(0.1 -0.1)">
       <use xlink:href="#DejaVuSans-34"/>
       <use xlink:href="#DejaVuSans-35" x="63.623047"/>
       <use xlink:href="#DejaVuSans-30" x="127.246094"/>
       <use xlink:href="#DejaVuSans-30" x="190.869141"/>
      </g>
     </g>
    </g>
    <g id="xtick_9">
     <g id="line2d_9">
      <g>
       <use xlink:href="#me7b6fe6597" x="471.825966" y="284.4" style="stroke: #000000; stroke-width: 0.8"/>
      </g>
     </g>
     <g id="text_9">
      <!-- 5000 -->
      <g transform="translate(459.100966 298.998438)scale(0.1 -0.1)">
       <use xlink:href="#DejaVuSans-35"/>
       <use xlink:href="#DejaVuSans-30" x="63.623047"/>
       <use xlink:href="#DejaVuSans-30" x="127.246094"/>
       <use xlink:href="#DejaVuSans-30" x="190.869141"/>
      </g>
     </g>
    </g>
    <g id="text_10">
     <!-- Wavelength -->
     <g transform="translate(233.321875 314.19625)scale(0.12 -0.12)">
      <defs>
       <path id="DejaVuSans-57" d="M 213 4666 
L 850 4666 
L 1831 722 
L 2809 4666 
L 3519 4666 
L 4500 722 
L 5478 4666 
L 6119 4666 
L 4947 0 
L 4153 0 
L 3169 4050 
L 2175 0 
L 1381 0 
L 213 4666 
z
" transform="scale(0.015625)"/>
       <path id="DejaVuSans-61" d="M 2194 1759 
Q 1497 1759 1228 1600 
Q 959 1441 959 1056 
Q 959 750 1161 570 
Q 1363 391 1709 391 
Q 2188 391 2477 730 
Q 2766 1069 2766 1631 
L 2766 1759 
L 2194 1759 
z
M 3341 1997 
L 3341 0 
L 2766 0 
L 2766 531 
Q 2569 213 2275 61 
Q 1981 -91 1556 -91 
Q 1019 -91 701 211 
Q 384 513 384 1019 
Q 384 1609 779 1909 
Q 1175 2209 1959 2209 
L 2766 2209 
L 2766 2266 
Q 2766 2663 2505 2880 
Q 2244 3097 1772 3097 
Q 1472 3097 1187 3025 
Q 903 2953 641 2809 
L 641 3341 
Q 956 3463 1253 3523 
Q 1550 3584 1831 3584 
Q 2591 3584 2966 3190 
Q 3341 2797 3341 1997 
z
" transform="scale(0.015625)"/>
       <path id="DejaVuSans-76" d="M 191 3500 
L 800 3500 
L 1894 563 
L 2988 3500 
L 3597 3500 
L 2284 0 
L 1503 0 
L 191 3500 
z
" transform="scale(0.015625)"/>
       <path id="DejaVuSans-65" d="M 3597 1894 
L 3597 1613 
L 953 1613 
Q 991 1019 1311 708 
Q 1631 397 2203 397 
Q 2534 397 2845 478 
Q 3156 559 3463 722 
L 3463 178 
Q 3153 47 2828 -22 
Q 2503 -91 2169 -91 
Q 1331 -91 842 396 
Q 353 884 353 1716 
Q 353 2575 817 3079 
Q 1281 3584 2069 3584 
Q 2775 3584 3186 3129 
Q 3597 2675 3597 1894 
z
M 3022 2063 
Q 3016 2534 2758 2815 
Q 2500 3097 2075 3097 
Q 1594 3097 1305 2825 
Q 1016 2553 972 2059 
L 3022 2063 
z
" transform="scale(0.015625)"/>
       <path id="DejaVuSans-6c" d="M 603 4863 
L 1178 4863 
L 1178 0 
L 603 0 
L 603 4863 
z
" transform="scale(0.015625)"/>
       <path id="DejaVuSans-6e" d="M 3513 2113 
L 3513 0 
L 2938 0 
L 2938 2094 
Q 2938 2591 2744 2837 
Q 2550 3084 2163 3084 
Q 1697 3084 1428 2787 
Q 1159 2491 1159 1978 
L 1159 0 
L 581 0 
L 581 3500 
L 1159 3500 
L 1159 2956 
Q 1366 3272 1645 3428 
Q 1925 3584 2291 3584 
Q 2894 3584 3203 3211 
Q 3513 2838 3513 2113 
z
" transform="scale(0.015625)"/>
       <path id="DejaVuSans-67" d="M 2906 1791 
Q 2906 2416 2648 2759 
Q 2391 3103 1925 3103 
Q 1463 3103 1205 2759 
Q 947 2416 947 1791 
Q 947 1169 1205 825 
Q 1463 481 1925 481 
Q 2391 481 2648 825 
Q 2906 1169 2906 1791 
z
M 3481 434 
Q 3481 -459 3084 -895 
Q 2688 -1331 1869 -1331 
Q 1566 -1331 1297 -1286 
Q 1028 -1241 775 -1147 
L 775 -588 
Q 1028 -725 1275 -790 
Q 1522 -856 1778 -856 
Q 2344 -856 2625 -561 
Q 2906 -266 2906 331 
L 2906 616 
Q 2728 306 2450 153 
Q 2172 0 1784 0 
Q 1141 0 747 490 
Q 353 981 353 1791 
Q 353 2603 747 3093 
Q 1141 3584 1784 3584 
Q 2172 3584 2450 3431 
Q 2728 3278 2906 2969 
L 2906 3500 
L 3481 3500 
L 3481 434 
z
" transform="scale(0.015625)"/>
       <path id="DejaVuSans-74" d="M 1172 4494 
L 1172 3500 
L 2356 3500 
L 2356 3053 
L 1172 3053 
L 1172 1153 
Q 1172 725 1289 603 
Q 1406 481 1766 481 
L 2356 481 
L 2356 0 
L 1766 0 
Q 1100 0 847 248 
Q 594 497 594 1153 
L 594 3053 
L 172 3053 
L 172 3500 
L 594 3500 
L 594 4494 
L 1172 4494 
z
" transform="scale(0.015625)"/>
       <path id="DejaVuSans-68" d="M 3513 2113 
L 3513 0 
L 2938 0 
L 2938 2094 
Q 2938 2591 2744 2837 
Q 2550 3084 2163 3084 
Q 1697 3084 1428 2787 
Q 1159 2491 1159 1978 
L 1159 0 
L 581 0 
L 581 4863 
L 1159 4863 
L 1159 2956 
Q 1366 3272 1645 3428 
Q 1925 3584 2291 3584 
Q 2894 3584 3203 3211 
Q 3513 2838 3513 2113 
z
" transform="scale(0.015625)"/>
      </defs>
      <use xlink:href="#DejaVuSans-57"/>
      <use xlink:href="#DejaVuSans-61" x="92.501953"/>
      <use xlink:href="#DejaVuSans-76" x="153.78125"/>
      <use xlink:href="#DejaVuSans-65" x="212.960938"/>
      <use xlink:href="#DejaVuSans-6c" x="274.484375"/>
      <use xlink:href="#DejaVuSans-65" x="302.267578"/>
      <use xlink:href="#DejaVuSans-6e" x="363.791016"/>
      <use xlink:href="#DejaVuSans-67" x="427.169922"/>
      <use xlink:href="#DejaVuSans-74" x="490.646484"/>
      <use xlink:href="#DejaVuSans-68" x="529.855469"/>
     </g>
    </g>
   </g>
   <g id="matplotlib.axis_2">
    <g id="ytick_1">
     <g id="line2d_10">
      <defs>
       <path id="m3666a60ff4" d="M 0 0 
L -3.5 0 
" style="stroke: #000000; stroke-width: 0.8"/>
      </defs>
      <g>
       <use xlink:href="#m3666a60ff4" x="45.716875" y="271.8" style="stroke: #000000; stroke-width: 0.8"/>
      </g>
     </g>
     <g id="text_11">
      <!-- 0.0 -->
      <g transform="translate(22.81375 275.599219)scale(0.1 -0.1)">
       <defs>
        <path id="DejaVuSans-2e" d="M 684 794 
L 1344 794 
L 1344 0 
L 684 0 
L 684 794 
z
" transform="scale(0.015625)"/>
       </defs>
       <use xlink:href="#DejaVuSans-30"/>
       <use xlink:href="#DejaVuSans-2e" x="63.623047"/>
       <use xlink:href="#DejaVuSans-30" x="95.410156"/>
      </g>
     </g>
    </g>
    <g id="ytick_2">
     <g id="line2d_11">
      <g>
       <use xlink:href="#m3666a60ff4" x="45.716875" y="221.399369" style="stroke: #000000; stroke-width: 0.8"/>
      </g>
     </g>
     <g id="text_12">
      <!-- 0.2 -->
      <g transform="translate(22.81375 225.198587)scale(0.1 -0.1)">
       <use xlink:href="#DejaVuSans-30"/>
       <use xlink:href="#DejaVuSans-2e" x="63.623047"/>
       <use xlink:href="#DejaVuSans-32" x="95.410156"/>
      </g>
     </g>
    </g>
    <g id="ytick_3">
     <g id="line2d_12">
      <g>
       <use xlink:href="#m3666a60ff4" x="45.716875" y="170.998737" style="stroke: #000000; stroke-width: 0.8"/>
      </g>
     </g>
     <g id="text_13">
      <!-- 0.4 -->
      <g transform="translate(22.81375 174.797956)scale(0.1 -0.1)">
       <use xlink:href="#DejaVuSans-30"/>
       <use xlink:href="#DejaVuSans-2e" x="63.623047"/>
       <use xlink:href="#DejaVuSans-34" x="95.410156"/>
      </g>
     </g>
    </g>
    <g id="ytick_4">
     <g id="line2d_13">
      <g>
       <use xlink:href="#m3666a60ff4" x="45.716875" y="120.598106" style="stroke: #000000; stroke-width: 0.8"/>
      </g>
     </g>
     <g id="text_14">
      <!-- 0.6 -->
      <g transform="translate(22.81375 124.397325)scale(0.1 -0.1)">
       <defs>
        <path id="DejaVuSans-36" d="M 2113 2584 
Q 1688 2584 1439 2293 
Q 1191 2003 1191 1497 
Q 1191 994 1439 701 
Q 1688 409 2113 409 
Q 2538 409 2786 701 
Q 3034 994 3034 1497 
Q 3034 2003 2786 2293 
Q 2538 2584 2113 2584 
z
M 3366 4563 
L 3366 3988 
Q 3128 4100 2886 4159 
Q 2644 4219 2406 4219 
Q 1781 4219 1451 3797 
Q 1122 3375 1075 2522 
Q 1259 2794 1537 2939 
Q 1816 3084 2150 3084 
Q 2853 3084 3261 2657 
Q 3669 2231 3669 1497 
Q 3669 778 3244 343 
Q 2819 -91 2113 -91 
Q 1303 -91 875 529 
Q 447 1150 447 2328 
Q 447 3434 972 4092 
Q 1497 4750 2381 4750 
Q 2619 4750 2861 4703 
Q 3103 4656 3366 4563 
z
" transform="scale(0.015625)"/>
       </defs>
       <use xlink:href="#DejaVuSans-30"/>
       <use xlink:href="#DejaVuSans-2e" x="63.623047"/>
       <use xlink:href="#DejaVuSans-36" x="95.410156"/>
      </g>
     </g>
    </g>
    <g id="ytick_5">
     <g id="line2d_14">
      <g>
       <use xlink:href="#m3666a60ff4" x="45.716875" y="70.197475" style="stroke: #000000; stroke-width: 0.8"/>
      </g>
     </g>
     <g id="text_15">
      <!-- 0.8 -->
      <g transform="translate(22.81375 73.996694)scale(0.1 -0.1)">
       <defs>
        <path id="DejaVuSans-38" d="M 2034 2216 
Q 1584 2216 1326 1975 
Q 1069 1734 1069 1313 
Q 1069 891 1326 650 
Q 1584 409 2034 409 
Q 2484 409 2743 651 
Q 3003 894 3003 1313 
Q 3003 1734 2745 1975 
Q 2488 2216 2034 2216 
z
M 1403 2484 
Q 997 2584 770 2862 
Q 544 3141 544 3541 
Q 544 4100 942 4425 
Q 1341 4750 2034 4750 
Q 2731 4750 3128 4425 
Q 3525 4100 3525 3541 
Q 3525 3141 3298 2862 
Q 3072 2584 2669 2484 
Q 3125 2378 3379 2068 
Q 3634 1759 3634 1313 
Q 3634 634 3220 271 
Q 2806 -91 2034 -91 
Q 1263 -91 848 271 
Q 434 634 434 1313 
Q 434 1759 690 2068 
Q 947 2378 1403 2484 
z
M 1172 3481 
Q 1172 3119 1398 2916 
Q 1625 2713 2034 2713 
Q 2441 2713 2670 2916 
Q 2900 3119 2900 3481 
Q 2900 3844 2670 4047 
Q 2441 4250 2034 4250 
Q 1625 4250 1398 4047 
Q 1172 3844 1172 3481 
z
" transform="scale(0.015625)"/>
       </defs>
       <use xlink:href="#DejaVuSans-30"/>
       <use xlink:href="#DejaVuSans-2e" x="63.623047"/>
       <use xlink:href="#DejaVuSans-38" x="95.410156"/>
      </g>
     </g>
    </g>
    <g id="ytick_6">
     <g id="line2d_15">
      <g>
       <use xlink:href="#m3666a60ff4" x="45.716875" y="19.796844" style="stroke: #000000; stroke-width: 0.8"/>
      </g>
     </g>
     <g id="text_16">
      <!-- 1.0 -->
      <g transform="translate(22.81375 23.596062)scale(0.1 -0.1)">
       <use xlink:href="#DejaVuSans-31"/>
       <use xlink:href="#DejaVuSans-2e" x="63.623047"/>
       <use xlink:href="#DejaVuSans-30" x="95.410156"/>
      </g>
     </g>
    </g>
    <g id="text_17">
     <!-- Flux -->
     <g transform="translate(16.318125 158.271563)rotate(-90)scale(0.12 -0.12)">
      <defs>
       <path id="DejaVuSans-46" d="M 628 4666 
L 3309 4666 
L 3309 4134 
L 1259 4134 
L 1259 2759 
L 3109 2759 
L 3109 2228 
L 1259 2228 
L 1259 0 
L 628 0 
L 628 4666 
z
" transform="scale(0.015625)"/>
       <path id="DejaVuSans-75" d="M 544 1381 
L 544 3500 
L 1119 3500 
L 1119 1403 
Q 1119 906 1312 657 
Q 1506 409 1894 409 
Q 2359 409 2629 706 
Q 2900 1003 2900 1516 
L 2900 3500 
L 3475 3500 
L 3475 0 
L 2900 0 
L 2900 538 
Q 2691 219 2414 64 
Q 2138 -91 1772 -91 
Q 1169 -91 856 284 
Q 544 659 544 1381 
z
M 1991 3584 
L 1991 3584 
z
" transform="scale(0.015625)"/>
       <path id="DejaVuSans-78" d="M 3513 3500 
L 2247 1797 
L 3578 0 
L 2900 0 
L 1881 1375 
L 863 0 
L 184 0 
L 1544 1831 
L 300 3500 
L 978 3500 
L 1906 2253 
L 2834 3500 
L 3513 3500 
z
" transform="scale(0.015625)"/>
      </defs>
      <use xlink:href="#DejaVuSans-46"/>
      <use xlink:href="#DejaVuSans-6c" x="57.519531"/>
      <use xlink:href="#DejaVuSans-75" x="85.302734"/>
      <use xlink:href="#DejaVuSans-78" x="148.681641"/>
     </g>
    </g>
   </g>
   <g id="line2d_16">
    <path d="M 66.007784 271.799061 
L 87.943902 271.68346 
L 94.037268 271.438596 
L 98.099512 271.069006 
L 101.349307 270.55228 
L 103.786654 269.967857 
L 106.224 269.148236 
L 108.255122 268.23088 
L 110.286244 267.044067 
L 111.911142 265.859237 
L 113.53604 264.42667 
L 115.160937 262.707149 
L 116.785835 260.658301 
L 118.410732 258.235065 
L 120.03563 255.390364 
L 121.660528 252.075994 
L 123.285425 248.243745 
L 124.910323 243.846749 
L 126.535221 238.841052 
L 128.160118 233.187376 
L 129.785016 226.853049 
L 131.816138 217.94235 
L 133.84726 207.908523 
L 135.878382 196.761039 
L 138.315728 181.983671 
L 140.753075 165.836225 
L 144.00287 142.634687 
L 153.752256 71.228097 
L 155.783378 58.26559 
L 157.8145 46.731872 
L 159.439398 38.745378 
L 161.064295 32.018105 
L 162.282968 27.874222 
L 163.501642 24.55221 
L 164.31409 22.811913 
L 165.126539 21.461033 
L 165.938988 20.506022 
L 166.751437 19.951457 
L 167.563886 19.8 
L 168.376334 20.052378 
L 169.188783 20.70738 
L 170.001232 21.761861 
L 170.813681 23.210772 
L 171.62613 25.0472 
L 172.844803 28.508872 
L 174.063476 32.785713 
L 175.282149 37.832863 
L 176.907047 45.669433 
L 178.531945 54.640601 
L 180.563067 67.209082 
L 183.000413 83.8374 
L 186.656433 110.698477 
L 193.156023 158.761724 
L 195.999594 178.066831 
L 198.436941 193.205636 
L 200.874287 206.843422 
L 202.905409 216.989624 
L 204.936531 226.012095 
L 206.967653 233.930713 
L 208.592551 239.50145 
L 210.217448 244.428798 
L 211.842346 248.752721 
L 213.467244 252.51763 
L 215.092141 255.770643 
L 216.717039 258.560038 
L 218.341936 260.933935 
L 219.966834 262.939202 
L 221.591732 264.620597 
L 223.216629 266.020121 
L 224.841527 267.176572 
L 226.872649 268.333794 
L 228.903771 269.227277 
L 231.341117 270.024604 
L 233.778464 270.592378 
L 237.028259 271.093632 
L 240.684279 271.425284 
L 245.965196 271.658383 
L 254.495909 271.774512 
L 280.494271 271.799954 
L 471.825966 271.8 
L 471.825966 271.8 
" clip-path="url(#p6f90492aed)" style="fill: none; stroke-dasharray: 5.55,2.4; stroke-dashoffset: 0; stroke: #008000; stroke-width: 1.5"/>
   </g>
   <g id="line2d_17">
    <path d="M 66.007784 271.799991 
L 113.129815 271.694636 
L 120.848079 271.455255 
L 125.722772 271.107923 
L 129.785016 270.600302 
L 133.034811 269.973993 
L 135.878382 269.201139 
L 138.315728 268.321018 
L 140.753075 267.189271 
L 142.784197 266.014023 
L 144.815319 264.589561 
L 146.846441 262.876714 
L 148.877563 260.833553 
L 150.908685 258.416026 
L 152.939807 255.578828 
L 154.970929 252.276511 
L 157.002051 248.464847 
L 159.033173 244.102416 
L 161.064295 239.152408 
L 163.095417 233.584597 
L 165.126539 227.377422 
L 167.157661 220.520108 
L 169.595008 211.437099 
L 172.032354 201.453668 
L 174.875925 188.759227 
L 178.12572 173.085395 
L 182.187964 152.300843 
L 189.500004 114.664791 
L 192.343574 101.21578 
L 194.780921 90.751525 
L 196.812043 82.99331 
L 198.436941 77.523816 
L 200.061838 72.784141 
L 201.686736 68.834725 
L 202.905409 66.422409 
L 204.124082 64.501358 
L 205.342755 63.085824 
L 206.155204 62.428347 
L 206.967653 62.002505 
L 207.780102 61.809717 
L 208.592551 61.850626 
L 209.404999 62.125096 
L 210.217448 62.632211 
L 211.029897 63.370282 
L 211.842346 64.336853 
L 213.061019 66.207934 
L 214.279692 68.571866 
L 215.498366 71.411222 
L 217.123263 75.900266 
L 218.748161 81.139718 
L 220.373058 87.063567 
L 222.40418 95.318909 
L 224.841527 106.267253 
L 227.685098 120.118029 
L 232.153566 143.173251 
L 238.246932 174.498423 
L 241.496728 190.075377 
L 244.340298 202.662973 
L 246.777645 212.544093 
L 249.214991 221.519342 
L 251.652338 229.560515 
L 253.68346 235.548513 
L 255.714582 240.903373 
L 257.745704 245.649841 
L 259.776826 249.820611 
L 261.807948 253.454273 
L 263.83907 256.593395 
L 265.870192 259.282787 
L 267.901314 261.567988 
L 269.932436 263.49399 
L 271.963558 265.104209 
L 273.99468 266.439697 
L 276.025802 267.538575 
L 278.463149 268.593698 
L 280.900495 269.411626 
L 283.744066 270.127434 
L 286.993861 270.705266 
L 291.056105 271.171455 
L 295.930798 271.488675 
L 302.836613 271.692562 
L 315.023345 271.786493 
L 367.832518 271.8 
L 471.825966 271.8 
L 471.825966 271.8 
" clip-path="url(#p6f90492aed)" style="fill: none; stroke: #fddcaf; stroke-width: 1.5; stroke-linecap: square"/>
   </g>
   <g id="line2d_18">
    <path d="M 66.007784 271.8 
L 139.128177 271.693102 
L 148.065114 271.457923 
L 154.15848 271.085663 
L 158.626949 270.609558 
L 162.282968 270.025025 
L 165.532764 269.303329 
L 168.376334 268.470748 
L 171.219905 267.404781 
L 173.657252 266.267552 
L 176.094598 264.887152 
L 178.531945 263.225681 
L 180.563067 261.597432 
L 182.594189 259.721884 
L 184.625311 257.574464 
L 186.656433 255.130681 
L 188.687555 252.366687 
L 190.718677 249.259911 
L 192.749799 245.789772 
L 194.780921 241.938441 
L 197.218267 236.793898 
L 199.655614 231.064044 
L 202.09296 224.744008 
L 204.530307 217.842125 
L 207.373877 209.086567 
L 210.217448 199.636984 
L 213.873468 186.629348 
L 218.341936 169.825687 
L 226.872649 137.541 
L 230.122444 126.204712 
L 232.559791 118.401797 
L 234.997137 111.366116 
L 237.028259 106.191088 
L 238.653157 102.555243 
L 240.278054 99.404549 
L 241.902952 96.768815 
L 243.121625 95.145314 
L 244.340298 93.834586 
L 245.558972 92.843789 
L 246.777645 92.178359 
L 247.996318 91.841957 
L 249.214991 91.836437 
L 250.433665 92.161829 
L 251.652338 92.816341 
L 252.871011 93.79637 
L 254.089684 95.09654 
L 255.308357 96.709748 
L 256.933255 99.332265 
L 258.558153 102.47043 
L 260.18305 106.094544 
L 262.214172 111.256175 
L 264.245294 117.05017 
L 266.682641 124.723473 
L 269.526212 134.479743 
L 273.182231 147.916118 
L 286.181412 196.680562 
L 289.431208 207.645479 
L 292.274778 216.515249 
L 295.118349 224.633701 
L 297.555696 230.963543 
L 299.993042 236.703227 
L 302.430389 241.857421 
L 304.867735 246.442054 
L 307.305081 250.482227 
L 309.336203 253.456197 
L 311.367325 256.095768 
L 313.398447 258.424076 
L 315.42957 260.465284 
L 317.866916 262.570372 
L 320.304262 264.339626 
L 322.741609 265.813956 
L 325.178955 267.032156 
L 328.022526 268.177622 
L 330.866097 269.07533 
L 334.115892 269.856266 
L 337.771912 270.491327 
L 341.834156 270.973012 
L 347.115073 271.358337 
L 354.020888 271.615406 
L 364.582723 271.756637 
L 389.768636 271.799215 
L 471.825966 271.8 
L 471.825966 271.8 
" clip-path="url(#p6f90492aed)" style="fill: none; stroke: #fdb27b; stroke-width: 1.5; stroke-linecap: square"/>
   </g>
   <g id="line2d_19">
    <path d="M 66.007784 271.8 
L 165.126539 271.693988 
L 175.688374 271.45137 
L 182.594189 271.082936 
L 187.875106 270.592745 
L 192.343574 269.962368 
L 195.999594 269.244804 
L 199.655614 268.291816 
L 202.905409 267.199325 
L 205.74898 266.015397 
L 208.592551 264.582382 
L 211.029897 263.127766 
L 213.467244 261.438556 
L 215.90459 259.489896 
L 218.341936 257.256953 
L 220.779283 254.715539 
L 223.216629 251.842811 
L 225.653976 248.618068 
L 228.091322 245.023605 
L 230.528669 241.045633 
L 232.966015 236.675216 
L 235.809586 231.076546 
L 238.653157 224.946308 
L 241.496728 218.305232 
L 244.746523 210.137227 
L 248.402542 200.309688 
L 252.871011 187.609327 
L 265.870192 150.159527 
L 269.119987 141.737374 
L 271.963558 135.019897 
L 274.400904 129.855944 
L 276.432027 126.032983 
L 278.463149 122.691823 
L 280.088046 120.391131 
L 281.712944 118.43959 
L 283.337841 116.851529 
L 284.962739 115.6387 
L 286.181412 114.98086 
L 287.400085 114.541993 
L 288.618759 114.323948 
L 289.837432 114.327646 
L 291.056105 114.553072 
L 292.274778 114.999273 
L 293.493452 115.664369 
L 294.712125 116.545562 
L 296.337022 118.050126 
L 297.96192 119.921043 
L 299.586818 122.144553 
L 301.211715 124.704447 
L 303.242837 128.349048 
L 305.273959 132.449842 
L 307.711306 137.909893 
L 310.554877 144.917245 
L 313.804672 153.593348 
L 317.866916 165.12281 
L 331.272321 203.762655 
L 334.928341 213.371307 
L 338.178136 221.307351 
L 341.021707 227.725723 
L 343.865278 233.622235 
L 346.708849 238.982607 
L 349.146195 243.14948 
L 351.583542 246.927861 
L 354.020888 250.329312 
L 356.458235 253.36976 
L 358.895581 256.068569 
L 361.332927 258.447652 
L 363.770274 260.530639 
L 366.20762 262.342135 
L 368.644967 263.907054 
L 371.488538 265.454014 
L 374.332108 266.736774 
L 377.175679 267.791113 
L 380.425475 268.758734 
L 384.081494 269.597645 
L 388.143738 270.284044 
L 392.612207 270.812783 
L 398.299348 271.243536 
L 405.611388 271.545467 
L 415.766998 271.721041 
L 435.265769 271.793658 
L 471.825966 271.799979 
L 471.825966 271.799979 
" clip-path="url(#p6f90492aed)" style="fill: none; stroke: #f26d4b; stroke-width: 1.5; stroke-linecap: square"/>
   </g>
   <g id="patch_3">
    <path d="M 45.716875 284.4 
L 45.716875 7.2 
" style="fill: none; stroke: #000000; stroke-width: 0.8; stroke-linejoin: miter; stroke-linecap: square"/>
   </g>
   <g id="patch_4">
    <path d="M 492.116875 284.4 
L 492.116875 7.2 
" style="fill: none; stroke: #000000; stroke-width: 0.8; stroke-linejoin: miter; stroke-linecap: square"/>
   </g>
   <g id="patch_5">
    <path d="M 45.716875 284.4 
L 492.116875 284.4 
" style="fill: none; stroke: #000000; stroke-width: 0.8; stroke-linejoin: miter; stroke-linecap: square"/>
   </g>
   <g id="patch_6">
    <path d="M 45.716875 7.2 
L 492.116875 7.2 
" style="fill: none; stroke: #000000; stroke-width: 0.8; stroke-linejoin: miter; stroke-linecap: square"/>
   </g>
   <g id="legend_1">
    <g id="patch_7">
     <path d="M 419.616875 73.9125 
L 485.116875 73.9125 
Q 487.116875 73.9125 487.116875 71.9125 
L 487.116875 14.2 
Q 487.116875 12.2 485.116875 12.2 
L 419.616875 12.2 
Q 417.616875 12.2 417.616875 14.2 
L 417.616875 71.9125 
Q 417.616875 73.9125 419.616875 73.9125 
z
" style="fill: #ffffff; opacity: 0.8; stroke: #cccccc; stroke-linejoin: miter"/>
    </g>
    <g id="line2d_20">
     <path d="M 421.616875 20.298437 
L 431.616875 20.298437 
L 441.616875 20.298437 
" style="fill: none; stroke-dasharray: 5.55,2.4; stroke-dashoffset: 0; stroke: #008000; stroke-width: 1.5"/>
    </g>
    <g id="text_18">
     <!-- $z=0$ -->
     <g transform="translate(449.616875 23.798437)scale(0.1 -0.1)">
      <defs>
       <path id="DejaVuSans-Oblique-7a" d="M 744 3500 
L 3475 3500 
L 3372 2975 
L 738 459 
L 2913 459 
L 2822 0 
L -19 0 
L 84 525 
L 2719 3041 
L 653 3041 
L 744 3500 
z
" transform="scale(0.015625)"/>
       <path id="DejaVuSans-3d" d="M 678 2906 
L 4684 2906 
L 4684 2381 
L 678 2381 
L 678 2906 
z
M 678 1631 
L 4684 1631 
L 4684 1100 
L 678 1100 
L 678 1631 
z
" transform="scale(0.015625)"/>
      </defs>
      <use xlink:href="#DejaVuSans-Oblique-7a" transform="translate(0 0.78125)"/>
      <use xlink:href="#DejaVuSans-3d" transform="translate(71.972656 0.78125)"/>
      <use xlink:href="#DejaVuSans-30" transform="translate(175.244141 0.78125)"/>
     </g>
    </g>
    <g id="line2d_21">
     <path d="M 421.616875 34.976562 
L 431.616875 34.976562 
L 441.616875 34.976562 
" style="fill: none; stroke: #fddcaf; stroke-width: 1.5; stroke-linecap: square"/>
    </g>
    <g id="text_19">
     <!-- $z=0.2$ -->
     <g transform="translate(449.616875 38.476562)scale(0.1 -0.1)">
      <use xlink:href="#DejaVuSans-Oblique-7a" transform="translate(0 0.78125)"/>
      <use xlink:href="#DejaVuSans-3d" transform="translate(71.972656 0.78125)"/>
      <use xlink:href="#DejaVuSans-30" transform="translate(175.244141 0.78125)"/>
      <use xlink:href="#DejaVuSans-2e" transform="translate(238.867188 0.78125)"/>
      <use xlink:href="#DejaVuSans-32" transform="translate(265.154297 0.78125)"/>
     </g>
    </g>
    <g id="line2d_22">
     <path d="M 421.616875 49.654687 
L 431.616875 49.654687 
L 441.616875 49.654687 
" style="fill: none; stroke: #fdb27b; stroke-width: 1.5; stroke-linecap: square"/>
    </g>
    <g id="text_20">
     <!-- $z=0.4$ -->
     <g transform="translate(449.616875 53.154687)scale(0.1 -0.1)">
      <use xlink:href="#DejaVuSans-Oblique-7a" transform="translate(0 0.78125)"/>
      <use xlink:href="#DejaVuSans-3d" transform="translate(71.972656 0.78125)"/>
      <use xlink:href="#DejaVuSans-30" transform="translate(175.244141 0.78125)"/>
      <use xlink:href="#DejaVuSans-2e" transform="translate(238.867188 0.78125)"/>
      <use xlink:href="#DejaVuSans-34" transform="translate(270.654297 0.78125)"/>
     </g>
    </g>
    <g id="line2d_23">
     <path d="M 421.616875 64.332812 
L 431.616875 64.332812 
L 441.616875 64.332812 
" style="fill: none; stroke: #f26d4b; stroke-width: 1.5; stroke-linecap: square"/>
    </g>
    <g id="text_21">
     <!-- $z=0.6$ -->
     <g transform="translate(449.616875 67.832812)scale(0.1 -0.1)">
      <use xlink:href="#DejaVuSans-Oblique-7a" transform="translate(0 0.78125)"/>
      <use xlink:href="#DejaVuSans-3d" transform="translate(71.972656 0.78125)"/>
      <use xlink:href="#DejaVuSans-30" transform="translate(175.244141 0.78125)"/>
      <use xlink:href="#DejaVuSans-2e" transform="translate(238.867188 0.78125)"/>
      <use xlink:href="#DejaVuSans-36" transform="translate(270.654297 0.78125)"/>
     </g>
    </g>
   </g>
  </g>
 </g>
 <defs>
  <clipPath id="p6f90492aed">
   <rect x="45.716875" y="7.2" width="446.4" height="277.2"/>
  </clipPath>
 </defs>
</svg>
