<?xml version="1.0" encoding="utf-8" standalone="no"?>
<!DOCTYPE svg PUBLIC "-//W3C//DTD SVG 1.1//EN"
  "http://www.w3.org/Graphics/SVG/1.1/DTD/svg11.dtd">
<svg xmlns:xlink="http://www.w3.org/1999/xlink" width="558.30125pt" height="393.755495pt" viewBox="0 0 558.30125 393.755495" xmlns="http://www.w3.org/2000/svg" version="1.1">
 <metadata>
  <rdf:RDF xmlns:dc="http://purl.org/dc/elements/1.1/" xmlns:cc="http://creativecommons.org/ns#" xmlns:rdf="http://www.w3.org/1999/02/22-rdf-syntax-ns#">
   <cc:Work>
    <dc:type rdf:resource="http://purl.org/dc/dcmitype/StillImage"/>
    <dc:date>2022-05-09T09:55:43.765412</dc:date>
    <dc:format>image/svg+xml</dc:format>
    <dc:creator>
     <cc:Agent>
      <dc:title>Matplotlib v3.5.1, https://matplotlib.org/</dc:title>
     </cc:Agent>
    </dc:creator>
   </cc:Work>
  </rdf:RDF>
 </metadata>
 <defs>
  <style type="text/css">*{stroke-linejoin: round; stroke-linecap: butt}</style>
 </defs>
 <g id="figure_1">
  <g id="patch_1">
   <path d="M 0 393.755495 
L 558.30125 393.755495 
L 558.30125 0 
L 0 0 
L 0 393.755495 
z
" style="fill: none"/>
  </g>
  <g id="axes_1">
   <g id="patch_2">
    <path d="M 48.90125 354.26362 
L 551.10125 354.26362 
L 551.10125 21.62362 
L 48.90125 21.62362 
z
" style="fill: #ffffff"/>
   </g>
   <g id="matplotlib.axis_1">
    <g id="xtick_1">
     <g id="line2d_1">
      <defs>
       <path id="mb634f46b46" d="M 0 0 
L 0 3.5 
" style="stroke: #000000; stroke-width: 0.8"/>
      </defs>
      <g>
       <use xlink:href="#mb634f46b46" x="141.741717" y="354.26362" style="stroke: #000000; stroke-width: 0.8"/>
      </g>
     </g>
     <g id="text_1">
      <!-- 4000 -->
      <g transform="translate(129.016717 368.862058)scale(0.1 -0.1)">
       <defs>
        <path id="DejaVuSans-34" d="M 2419 4116 
L 825 1625 
L 2419 1625 
L 2419 4116 
z
M 2253 4666 
L 3047 4666 
L 3047 1625 
L 3713 1625 
L 3713 1100 
L 3047 1100 
L 3047 0 
L 2419 0 
L 2419 1100 
L 313 1100 
L 313 1709 
L 2253 4666 
z
" transform="scale(0.015625)"/>
        <path id="DejaVuSans-30" d="M 2034 4250 
Q 1547 4250 1301 3770 
Q 1056 3291 1056 2328 
Q 1056 1369 1301 889 
Q 1547 409 2034 409 
Q 2525 409 2770 889 
Q 3016 1369 3016 2328 
Q 3016 3291 2770 3770 
Q 2525 4250 2034 4250 
z
M 2034 4750 
Q 2819 4750 3233 4129 
Q 3647 3509 3647 2328 
Q 3647 1150 3233 529 
Q 2819 -91 2034 -91 
Q 1250 -91 836 529 
Q 422 1150 422 2328 
Q 422 3509 836 4129 
Q 1250 4750 2034 4750 
z
" transform="scale(0.015625)"/>
       </defs>
       <use xlink:href="#DejaVuSans-34"/>
       <use xlink:href="#DejaVuSans-30" x="63.623047"/>
       <use xlink:href="#DejaVuSans-30" x="127.246094"/>
       <use xlink:href="#DejaVuSans-30" x="190.869141"/>
      </g>
     </g>
    </g>
    <g id="xtick_2">
     <g id="line2d_2">
      <g>
       <use xlink:href="#mb634f46b46" x="238.282344" y="354.26362" style="stroke: #000000; stroke-width: 0.8"/>
      </g>
     </g>
     <g id="text_2">
      <!-- 4500 -->
      <g transform="translate(225.557344 368.862058)scale(0.1 -0.1)">
       <defs>
        <path id="DejaVuSans-35" d="M 691 4666 
L 3169 4666 
L 3169 4134 
L 1269 4134 
L 1269 2991 
Q 1406 3038 1543 3061 
Q 1681 3084 1819 3084 
Q 2600 3084 3056 2656 
Q 3513 2228 3513 1497 
Q 3513 744 3044 326 
Q 2575 -91 1722 -91 
Q 1428 -91 1123 -41 
Q 819 9 494 109 
L 494 744 
Q 775 591 1075 516 
Q 1375 441 1709 441 
Q 2250 441 2565 725 
Q 2881 1009 2881 1497 
Q 2881 1984 2565 2268 
Q 2250 2553 1709 2553 
Q 1456 2553 1204 2497 
Q 953 2441 691 2322 
L 691 4666 
z
" transform="scale(0.015625)"/>
       </defs>
       <use xlink:href="#DejaVuSans-34"/>
       <use xlink:href="#DejaVuSans-35" x="63.623047"/>
       <use xlink:href="#DejaVuSans-30" x="127.246094"/>
       <use xlink:href="#DejaVuSans-30" x="190.869141"/>
      </g>
     </g>
    </g>
    <g id="xtick_3">
     <g id="line2d_3">
      <g>
       <use xlink:href="#mb634f46b46" x="334.822972" y="354.26362" style="stroke: #000000; stroke-width: 0.8"/>
      </g>
     </g>
     <g id="text_3">
      <!-- 5000 -->
      <g transform="translate(322.097972 368.862058)scale(0.1 -0.1)">
       <use xlink:href="#DejaVuSans-35"/>
       <use xlink:href="#DejaVuSans-30" x="63.623047"/>
       <use xlink:href="#DejaVuSans-30" x="127.246094"/>
       <use xlink:href="#DejaVuSans-30" x="190.869141"/>
      </g>
     </g>
    </g>
    <g id="xtick_4">
     <g id="line2d_4">
      <g>
       <use xlink:href="#mb634f46b46" x="431.363599" y="354.26362" style="stroke: #000000; stroke-width: 0.8"/>
      </g>
     </g>
     <g id="text_4">
      <!-- 5500 -->
      <g transform="translate(418.638599 368.862058)scale(0.1 -0.1)">
       <use xlink:href="#DejaVuSans-35"/>
       <use xlink:href="#DejaVuSans-35" x="63.623047"/>
       <use xlink:href="#DejaVuSans-30" x="127.246094"/>
       <use xlink:href="#DejaVuSans-30" x="190.869141"/>
      </g>
     </g>
    </g>
    <g id="xtick_5">
     <g id="line2d_5">
      <g>
       <use xlink:href="#mb634f46b46" x="527.904227" y="354.26362" style="stroke: #000000; stroke-width: 0.8"/>
      </g>
     </g>
     <g id="text_5">
      <!-- 6000 -->
      <g transform="translate(515.179227 368.862058)scale(0.1 -0.1)">
       <defs>
        <path id="DejaVuSans-36" d="M 2113 2584 
Q 1688 2584 1439 2293 
Q 1191 2003 1191 1497 
Q 1191 994 1439 701 
Q 1688 409 2113 409 
Q 2538 409 2786 701 
Q 3034 994 3034 1497 
Q 3034 2003 2786 2293 
Q 2538 2584 2113 2584 
z
M 3366 4563 
L 3366 3988 
Q 3128 4100 2886 4159 
Q 2644 4219 2406 4219 
Q 1781 4219 1451 3797 
Q 1122 3375 1075 2522 
Q 1259 2794 1537 2939 
Q 1816 3084 2150 3084 
Q 2853 3084 3261 2657 
Q 3669 2231 3669 1497 
Q 3669 778 3244 343 
Q 2819 -91 2113 -91 
Q 1303 -91 875 529 
Q 447 1150 447 2328 
Q 447 3434 972 4092 
Q 1497 4750 2381 4750 
Q 2619 4750 2861 4703 
Q 3103 4656 3366 4563 
z
" transform="scale(0.015625)"/>
       </defs>
       <use xlink:href="#DejaVuSans-36"/>
       <use xlink:href="#DejaVuSans-30" x="63.623047"/>
       <use xlink:href="#DejaVuSans-30" x="127.246094"/>
       <use xlink:href="#DejaVuSans-30" x="190.869141"/>
      </g>
     </g>
    </g>
    <g id="text_6">
     <!-- Wavelength -->
     <g transform="translate(264.40625 384.05987)scale(0.12 -0.12)">
      <defs>
       <path id="DejaVuSans-57" d="M 213 4666 
L 850 4666 
L 1831 722 
L 2809 4666 
L 3519 4666 
L 4500 722 
L 5478 4666 
L 6119 4666 
L 4947 0 
L 4153 0 
L 3169 4050 
L 2175 0 
L 1381 0 
L 213 4666 
z
" transform="scale(0.015625)"/>
       <path id="DejaVuSans-61" d="M 2194 1759 
Q 1497 1759 1228 1600 
Q 959 1441 959 1056 
Q 959 750 1161 570 
Q 1363 391 1709 391 
Q 2188 391 2477 730 
Q 2766 1069 2766 1631 
L 2766 1759 
L 2194 1759 
z
M 3341 1997 
L 3341 0 
L 2766 0 
L 2766 531 
Q 2569 213 2275 61 
Q 1981 -91 1556 -91 
Q 1019 -91 701 211 
Q 384 513 384 1019 
Q 384 1609 779 1909 
Q 1175 2209 1959 2209 
L 2766 2209 
L 2766 2266 
Q 2766 2663 2505 2880 
Q 2244 3097 1772 3097 
Q 1472 3097 1187 3025 
Q 903 2953 641 2809 
L 641 3341 
Q 956 3463 1253 3523 
Q 1550 3584 1831 3584 
Q 2591 3584 2966 3190 
Q 3341 2797 3341 1997 
z
" transform="scale(0.015625)"/>
       <path id="DejaVuSans-76" d="M 191 3500 
L 800 3500 
L 1894 563 
L 2988 3500 
L 3597 3500 
L 2284 0 
L 1503 0 
L 191 3500 
z
" transform="scale(0.015625)"/>
       <path id="DejaVuSans-65" d="M 3597 1894 
L 3597 1613 
L 953 1613 
Q 991 1019 1311 708 
Q 1631 397 2203 397 
Q 2534 397 2845 478 
Q 3156 559 3463 722 
L 3463 178 
Q 3153 47 2828 -22 
Q 2503 -91 2169 -91 
Q 1331 -91 842 396 
Q 353 884 353 1716 
Q 353 2575 817 3079 
Q 1281 3584 2069 3584 
Q 2775 3584 3186 3129 
Q 3597 2675 3597 1894 
z
M 3022 2063 
Q 3016 2534 2758 2815 
Q 2500 3097 2075 3097 
Q 1594 3097 1305 2825 
Q 1016 2553 972 2059 
L 3022 2063 
z
" transform="scale(0.015625)"/>
       <path id="DejaVuSans-6c" d="M 603 4863 
L 1178 4863 
L 1178 0 
L 603 0 
L 603 4863 
z
" transform="scale(0.015625)"/>
       <path id="DejaVuSans-6e" d="M 3513 2113 
L 3513 0 
L 2938 0 
L 2938 2094 
Q 2938 2591 2744 2837 
Q 2550 3084 2163 3084 
Q 1697 3084 1428 2787 
Q 1159 2491 1159 1978 
L 1159 0 
L 581 0 
L 581 3500 
L 1159 3500 
L 1159 2956 
Q 1366 3272 1645 3428 
Q 1925 3584 2291 3584 
Q 2894 3584 3203 3211 
Q 3513 2838 3513 2113 
z
" transform="scale(0.015625)"/>
       <path id="DejaVuSans-67" d="M 2906 1791 
Q 2906 2416 2648 2759 
Q 2391 3103 1925 3103 
Q 1463 3103 1205 2759 
Q 947 2416 947 1791 
Q 947 1169 1205 825 
Q 1463 481 1925 481 
Q 2391 481 2648 825 
Q 2906 1169 2906 1791 
z
M 3481 434 
Q 3481 -459 3084 -895 
Q 2688 -1331 1869 -1331 
Q 1566 -1331 1297 -1286 
Q 1028 -1241 775 -1147 
L 775 -588 
Q 1028 -725 1275 -790 
Q 1522 -856 1778 -856 
Q 2344 -856 2625 -561 
Q 2906 -266 2906 331 
L 2906 616 
Q 2728 306 2450 153 
Q 2172 0 1784 0 
Q 1141 0 747 490 
Q 353 981 353 1791 
Q 353 2603 747 3093 
Q 1141 3584 1784 3584 
Q 2172 3584 2450 3431 
Q 2728 3278 2906 2969 
L 2906 3500 
L 3481 3500 
L 3481 434 
z
" transform="scale(0.015625)"/>
       <path id="DejaVuSans-74" d="M 1172 4494 
L 1172 3500 
L 2356 3500 
L 2356 3053 
L 1172 3053 
L 1172 1153 
Q 1172 725 1289 603 
Q 1406 481 1766 481 
L 2356 481 
L 2356 0 
L 1766 0 
Q 1100 0 847 248 
Q 594 497 594 1153 
L 594 3053 
L 172 3053 
L 172 3500 
L 594 3500 
L 594 4494 
L 1172 4494 
z
" transform="scale(0.015625)"/>
       <path id="DejaVuSans-68" d="M 3513 2113 
L 3513 0 
L 2938 0 
L 2938 2094 
Q 2938 2591 2744 2837 
Q 2550 3084 2163 3084 
Q 1697 3084 1428 2787 
Q 1159 2491 1159 1978 
L 1159 0 
L 581 0 
L 581 4863 
L 1159 4863 
L 1159 2956 
Q 1366 3272 1645 3428 
Q 1925 3584 2291 3584 
Q 2894 3584 3203 3211 
Q 3513 2838 3513 2113 
z
" transform="scale(0.015625)"/>
      </defs>
      <use xlink:href="#DejaVuSans-57"/>
      <use xlink:href="#DejaVuSans-61" x="92.501953"/>
      <use xlink:href="#DejaVuSans-76" x="153.78125"/>
      <use xlink:href="#DejaVuSans-65" x="212.960938"/>
      <use xlink:href="#DejaVuSans-6c" x="274.484375"/>
      <use xlink:href="#DejaVuSans-65" x="302.267578"/>
      <use xlink:href="#DejaVuSans-6e" x="363.791016"/>
      <use xlink:href="#DejaVuSans-67" x="427.169922"/>
      <use xlink:href="#DejaVuSans-74" x="490.646484"/>
      <use xlink:href="#DejaVuSans-68" x="529.855469"/>
     </g>
    </g>
   </g>
   <g id="matplotlib.axis_2">
    <g id="ytick_1">
     <g id="line2d_6">
      <defs>
       <path id="m886b3de83b" d="M 0 0 
L -3.5 0 
" style="stroke: #000000; stroke-width: 0.8"/>
      </defs>
      <g>
       <use xlink:href="#m886b3de83b" x="48.90125" y="316.021089" style="stroke: #000000; stroke-width: 0.8"/>
      </g>
     </g>
     <g id="text_7">
      <!-- 0 -->
      <g transform="translate(35.53875 319.820307)scale(0.1 -0.1)">
       <use xlink:href="#DejaVuSans-30"/>
      </g>
     </g>
    </g>
    <g id="ytick_2">
     <g id="line2d_7">
      <g>
       <use xlink:href="#m886b3de83b" x="48.90125" y="276.702404" style="stroke: #000000; stroke-width: 0.8"/>
      </g>
     </g>
     <g id="text_8">
      <!-- 25 -->
      <g transform="translate(29.17625 280.501623)scale(0.1 -0.1)">
       <defs>
        <path id="DejaVuSans-32" d="M 1228 531 
L 3431 531 
L 3431 0 
L 469 0 
L 469 531 
Q 828 903 1448 1529 
Q 2069 2156 2228 2338 
Q 2531 2678 2651 2914 
Q 2772 3150 2772 3378 
Q 2772 3750 2511 3984 
Q 2250 4219 1831 4219 
Q 1534 4219 1204 4116 
Q 875 4013 500 3803 
L 500 4441 
Q 881 4594 1212 4672 
Q 1544 4750 1819 4750 
Q 2544 4750 2975 4387 
Q 3406 4025 3406 3419 
Q 3406 3131 3298 2873 
Q 3191 2616 2906 2266 
Q 2828 2175 2409 1742 
Q 1991 1309 1228 531 
z
" transform="scale(0.015625)"/>
       </defs>
       <use xlink:href="#DejaVuSans-32"/>
       <use xlink:href="#DejaVuSans-35" x="63.623047"/>
      </g>
     </g>
    </g>
    <g id="ytick_3">
     <g id="line2d_8">
      <g>
       <use xlink:href="#m886b3de83b" x="48.90125" y="237.38372" style="stroke: #000000; stroke-width: 0.8"/>
      </g>
     </g>
     <g id="text_9">
      <!-- 50 -->
      <g transform="translate(29.17625 241.182939)scale(0.1 -0.1)">
       <use xlink:href="#DejaVuSans-35"/>
       <use xlink:href="#DejaVuSans-30" x="63.623047"/>
      </g>
     </g>
    </g>
    <g id="ytick_4">
     <g id="line2d_9">
      <g>
       <use xlink:href="#m886b3de83b" x="48.90125" y="198.065036" style="stroke: #000000; stroke-width: 0.8"/>
      </g>
     </g>
     <g id="text_10">
      <!-- 75 -->
      <g transform="translate(29.17625 201.864255)scale(0.1 -0.1)">
       <defs>
        <path id="DejaVuSans-37" d="M 525 4666 
L 3525 4666 
L 3525 4397 
L 1831 0 
L 1172 0 
L 2766 4134 
L 525 4134 
L 525 4666 
z
" transform="scale(0.015625)"/>
       </defs>
       <use xlink:href="#DejaVuSans-37"/>
       <use xlink:href="#DejaVuSans-35" x="63.623047"/>
      </g>
     </g>
    </g>
    <g id="ytick_5">
     <g id="line2d_10">
      <g>
       <use xlink:href="#m886b3de83b" x="48.90125" y="158.746352" style="stroke: #000000; stroke-width: 0.8"/>
      </g>
     </g>
     <g id="text_11">
      <!-- 100 -->
      <g transform="translate(22.81375 162.545571)scale(0.1 -0.1)">
       <defs>
        <path id="DejaVuSans-31" d="M 794 531 
L 1825 531 
L 1825 4091 
L 703 3866 
L 703 4441 
L 1819 4666 
L 2450 4666 
L 2450 531 
L 3481 531 
L 3481 0 
L 794 0 
L 794 531 
z
" transform="scale(0.015625)"/>
       </defs>
       <use xlink:href="#DejaVuSans-31"/>
       <use xlink:href="#DejaVuSans-30" x="63.623047"/>
       <use xlink:href="#DejaVuSans-30" x="127.246094"/>
      </g>
     </g>
    </g>
    <g id="ytick_6">
     <g id="line2d_11">
      <g>
       <use xlink:href="#m886b3de83b" x="48.90125" y="119.427668" style="stroke: #000000; stroke-width: 0.8"/>
      </g>
     </g>
     <g id="text_12">
      <!-- 125 -->
      <g transform="translate(22.81375 123.226886)scale(0.1 -0.1)">
       <use xlink:href="#DejaVuSans-31"/>
       <use xlink:href="#DejaVuSans-32" x="63.623047"/>
       <use xlink:href="#DejaVuSans-35" x="127.246094"/>
      </g>
     </g>
    </g>
    <g id="ytick_7">
     <g id="line2d_12">
      <g>
       <use xlink:href="#m886b3de83b" x="48.90125" y="80.108984" style="stroke: #000000; stroke-width: 0.8"/>
      </g>
     </g>
     <g id="text_13">
      <!-- 150 -->
      <g transform="translate(22.81375 83.908202)scale(0.1 -0.1)">
       <use xlink:href="#DejaVuSans-31"/>
       <use xlink:href="#DejaVuSans-35" x="63.623047"/>
       <use xlink:href="#DejaVuSans-30" x="127.246094"/>
      </g>
     </g>
    </g>
    <g id="ytick_8">
     <g id="line2d_13">
      <g>
       <use xlink:href="#m886b3de83b" x="48.90125" y="40.790299" style="stroke: #000000; stroke-width: 0.8"/>
      </g>
     </g>
     <g id="text_14">
      <!-- 175 -->
      <g transform="translate(22.81375 44.589518)scale(0.1 -0.1)">
       <use xlink:href="#DejaVuSans-31"/>
       <use xlink:href="#DejaVuSans-37" x="63.623047"/>
       <use xlink:href="#DejaVuSans-35" x="127.246094"/>
      </g>
     </g>
    </g>
    <g id="text_15">
     <!-- Flux -->
     <g transform="translate(16.318125 200.415183)rotate(-90)scale(0.12 -0.12)">
      <defs>
       <path id="DejaVuSans-46" d="M 628 4666 
L 3309 4666 
L 3309 4134 
L 1259 4134 
L 1259 2759 
L 3109 2759 
L 3109 2228 
L 1259 2228 
L 1259 0 
L 628 0 
L 628 4666 
z
" transform="scale(0.015625)"/>
       <path id="DejaVuSans-75" d="M 544 1381 
L 544 3500 
L 1119 3500 
L 1119 1403 
Q 1119 906 1312 657 
Q 1506 409 1894 409 
Q 2359 409 2629 706 
Q 2900 1003 2900 1516 
L 2900 3500 
L 3475 3500 
L 3475 0 
L 2900 0 
L 2900 538 
Q 2691 219 2414 64 
Q 2138 -91 1772 -91 
Q 1169 -91 856 284 
Q 544 659 544 1381 
z
M 1991 3584 
L 1991 3584 
z
" transform="scale(0.015625)"/>
       <path id="DejaVuSans-78" d="M 3513 3500 
L 2247 1797 
L 3578 0 
L 2900 0 
L 1881 1375 
L 863 0 
L 184 0 
L 1544 1831 
L 300 3500 
L 978 3500 
L 1906 2253 
L 2834 3500 
L 3513 3500 
z
" transform="scale(0.015625)"/>
      </defs>
      <use xlink:href="#DejaVuSans-46"/>
      <use xlink:href="#DejaVuSans-6c" x="57.519531"/>
      <use xlink:href="#DejaVuSans-75" x="85.302734"/>
      <use xlink:href="#DejaVuSans-78" x="148.681641"/>
     </g>
    </g>
   </g>
   <g id="line2d_14">
    <path d="M 71.728523 315.527246 
L 71.890132 314.893429 
L 72.051934 313.690277 
L 72.375538 315.225278 
L 72.699335 288.265243 
L 72.86133 336.380303 
L 73.023326 314.363413 
L 73.185514 315.012958 
L 73.509504 318.757669 
L 73.671692 318.622413 
L 73.833881 312.578345 
L 73.996069 323.543539 
L 74.15845 315.59802 
L 74.320639 321.909455 
L 74.48302 318.098688 
L 74.645401 307.196403 
L 74.970164 328.079343 
L 75.132738 326.946965 
L 75.457694 315.30077 
L 75.620269 300.103312 
L 75.782843 311.787253 
L 75.94561 306.296792 
L 76.108378 313.70915 
L 76.271145 315.200114 
L 76.59668 322.214568 
L 76.759448 315.4549 
L 76.922408 317.331187 
L 77.085369 326.319438 
L 77.24833 308.916989 
L 77.41129 321.436058 
L 77.574444 309.520924 
L 77.737404 311.145572 
L 77.900558 319.606953 
L 78.553366 305.716448 
L 78.716713 315.789895 
L 78.880059 302.163612 
L 79.043406 337.754884 
L 79.370293 308.720395 
L 79.533832 325.443418 
L 79.697372 329.559298 
L 79.860912 324.240266 
L 80.024452 326.572651 
L 80.188185 309.868501 
L 80.351725 321.492677 
L 80.515458 306.060879 
L 80.67919 312.951086 
L 80.842923 315.10575 
L 81.006849 308.006368 
L 81.170775 307.155512 
L 81.334701 304.989839 
L 81.498627 304.667425 
L 81.990598 332.107149 
L 82.154717 307.315932 
L 82.318836 308.660631 
L 82.483149 323.084297 
L 82.647268 321.76948 
L 82.81158 315.665648 
L 82.975699 325.641584 
L 83.140204 321.244183 
L 83.304516 320.387035 
L 83.468828 324.211957 
L 83.797839 312.076638 
L 83.962151 310.275842 
L 84.126849 310.741376 
L 84.291355 315.483209 
L 84.456053 314.081891 
L 84.620751 311.463267 
L 84.950148 327.069639 
L 85.279738 321.835536 
L 85.444629 323.740133 
L 85.60952 332.29116 
L 85.774412 326.970556 
L 85.939303 316.676924 
L 86.104388 315.693957 
L 86.269472 316.997765 
L 86.434363 314.939038 
L 86.599641 314.902865 
L 86.764725 325.139878 
L 86.930003 323.10317 
L 87.095281 324.171065 
L 87.260558 323.13777 
L 87.425836 315.31178 
L 87.591113 315.4722 
L 87.756584 322.54799 
L 87.921861 311.2478 
L 88.252803 332.217241 
L 88.418466 308.017377 
L 88.583937 304.955238 
L 88.749601 304.810545 
L 89.080928 282.236902 
L 89.246785 279.405957 
L 89.578306 259.370728 
L 90.407976 327.552472 
L 90.573832 324.53437 
L 90.906125 307.356823 
L 91.238418 327.686156 
L 91.570904 312.655409 
L 91.737147 319.264094 
L 92.069826 317.191213 
L 92.236455 325.377363 
L 92.402891 321.744316 
L 92.569327 324.502915 
L 92.735763 320.089786 
L 93.069022 332.869931 
L 93.235651 320.43579 
L 93.40228 317.013492 
L 93.569102 316.470894 
L 93.735731 317.368933 
L 93.902553 324.855211 
L 94.069376 321.211155 
L 94.236198 325.290862 
L 94.570228 313.459083 
L 94.73705 316.194091 
L 95.071274 311.43653 
L 95.238289 310.450417 
L 95.405498 307.594308 
L 95.572706 310.525909 
L 95.739915 308.147915 
L 95.907123 318.807997 
L 96.074524 315.61532 
L 96.241733 322.853103 
L 96.409327 302.882357 
L 96.743937 332.973732 
L 97.079126 317.516771 
L 97.246721 315.660929 
L 97.749504 329.211721 
L 97.917292 325.85076 
L 98.252867 329.818801 
L 98.420655 329.573453 
L 98.588635 327.615382 
L 98.756616 332.965869 
L 98.924404 320.987825 
L 99.092577 320.078777 
L 99.260558 327.462826 
L 99.428539 326.847881 
L 99.596713 324.42585 
L 99.93306 316.705234 
L 100.269601 331.298756 
L 100.437775 327.624819 
L 100.606141 327.418789 
L 100.943068 337.846104 
L 101.111435 325.470155 
L 101.279995 324.131747 
L 101.617115 334.044773 
L 101.785675 334.345168 
L 101.954428 327.099521 
L 102.122988 337.490663 
L 102.291741 339.14362 
L 102.460494 331.388403 
L 103.135892 323.729123 
L 103.304838 327.189168 
L 103.642923 306.589323 
L 103.981202 316.30261 
L 104.150341 307.168094 
L 104.31948 311.897345 
L 104.488812 309.442286 
L 104.827477 316.647042 
L 105.166141 306.42733 
L 105.335474 304.019453 
L 105.504999 311.798262 
L 105.674524 306.472939 
L 105.84405 312.108093 
L 106.183293 308.866661 
L 106.353012 314.475078 
L 106.52273 315.769449 
L 106.692449 312.883458 
L 106.862167 315.264597 
L 107.032079 312.075065 
L 107.20199 304.846719 
L 107.371709 306.226018 
L 107.541813 313.91518 
L 107.711725 315.022394 
L 107.881829 314.850965 
L 108.051741 322.272759 
L 108.39195 316.321483 
L 108.562248 323.977617 
L 108.732352 321.429767 
L 108.90265 326.385494 
L 109.413543 319.047055 
L 109.754524 331.769008 
L 110.265997 320.004858 
L 110.43668 319.70289 
L 110.607364 315.513091 
L 110.948732 323.398846 
L 111.290293 307.498371 
L 111.46117 315.423445 
L 111.632046 315.324361 
L 111.802923 311.812417 
L 111.973993 323.422438 
L 112.14487 317.184922 
L 112.31594 316.776007 
L 112.48701 322.139076 
L 112.829343 304.212901 
L 113.000606 319.218484 
L 113.171676 319.187029 
L 113.342939 311.721197 
L 113.857115 324.584698 
L 114.028571 314.40745 
L 114.200027 312.163139 
L 114.543133 305.098358 
L 114.714589 304.827846 
L 114.886238 307.970195 
L 115.05808 308.677931 
L 115.229729 310.346616 
L 115.401379 310.409526 
L 115.573221 304.719326 
L 115.745063 310.884496 
L 115.916906 306.2213 
L 116.432819 280.616973 
L 116.604854 275.51498 
L 116.77689 274.649969 
L 116.948925 287.246103 
L 117.121153 313.086342 
L 117.293189 304.634398 
L 117.46561 307.345814 
L 117.637839 318.092397 
L 117.810067 309.569679 
L 117.982489 313.10836 
L 118.15491 320.563183 
L 118.327139 318.244953 
L 118.499561 312.435225 
L 118.672175 311.364184 
L 119.017404 322.393861 
L 119.190019 321.316529 
L 119.362634 318.312581 
L 119.535248 323.845507 
L 119.708056 312.672709 
L 119.880864 310.494454 
L 120.053672 316.871945 
L 120.226479 313.929335 
L 120.39948 306.17569 
L 120.745289 314.176256 
L 120.918289 311.532468 
L 121.091483 315.879541 
L 121.264484 309.826037 
L 121.437678 315.755294 
L 121.610872 314.29893 
L 121.784066 314.589888 
L 121.95726 310.002184 
L 122.130647 309.044381 
L 122.304034 312.292105 
L 122.477227 312.062483 
L 122.650808 317.298159 
L 122.824194 311.76838 
L 122.997581 310.32617 
L 123.344742 311.13299 
L 123.518322 316.357657 
L 123.865675 309.19222 
L 124.039448 316.404839 
L 124.213414 308.3681 
L 124.56096 310.330889 
L 124.734927 313.372582 
L 124.908893 312.880312 
L 125.082666 313.053314 
L 125.256825 315.887405 
L 125.430791 315.871678 
L 125.604951 310.893932 
L 125.77911 309.750545 
L 125.953269 315.906278 
L 126.127429 310.35448 
L 126.301781 310.41739 
L 126.476133 305.12824 
L 126.650486 308.806896 
L 126.99919 302.909094 
L 127.522634 314.699981 
L 127.697372 312.603509 
L 127.871918 307.488934 
L 128.046656 311.776243 
L 128.221202 307.918294 
L 128.74561 325.352199 
L 128.920542 328.261781 
L 129.270212 317.129875 
L 129.445337 320.324125 
L 129.620269 317.546654 
L 129.795393 317.015065 
L 129.970325 311.777816 
L 130.145643 316.459885 
L 130.32096 317.891085 
L 130.496085 308.220262 
L 130.846528 316.362375 
L 131.021845 311.543477 
L 131.372674 310.381217 
L 131.548185 308.743987 
L 131.723696 313.301808 
L 131.899207 313.896307 
L 132.07491 306.142662 
L 132.250614 309.20952 
L 132.426125 305.776212 
L 132.601829 307.503089 
L 132.953237 313.337982 
L 133.129134 305.990106 
L 133.305031 308.423146 
L 133.657018 325.191778 
L 134.009005 314.176256 
L 134.185096 322.378133 
L 134.537469 311.784107 
L 134.713559 313.521993 
L 134.889649 318.58624 
L 135.065932 317.496326 
L 135.242215 322.316796 
L 135.418692 322.86254 
L 135.595168 310.760249 
L 135.771644 316.626596 
L 135.94812 318.161598 
L 136.301073 310.26326 
L 136.831081 320.40119 
L 137.00775 318.741942 
L 137.18442 318.776542 
L 137.361475 321.113645 
L 137.538338 312.108093 
L 137.892063 317.725947 
L 138.068925 324.131747 
L 138.24598 320.232906 
L 138.423036 312.691582 
L 138.600092 315.016103 
L 138.77734 319.63998 
L 138.954396 313.688704 
L 139.308893 323.883253 
L 139.663583 307.103611 
L 139.841025 307.268749 
L 140.018273 318.513893 
L 140.728233 312.655409 
L 140.905868 319.309703 
L 141.083696 310.812149 
L 141.439158 321.156109 
L 141.616986 314.992512 
L 141.794814 313.098924 
L 141.972642 318.894498 
L 142.328491 313.93248 
L 142.506318 316.154772 
L 142.684532 312.807966 
L 143.218788 318.534339 
L 143.397002 313.536148 
L 143.575216 302.228094 
L 143.753623 315.101031 
L 144.110244 318.933817 
L 144.288458 321.074326 
L 144.467059 317.445998 
L 144.645659 316.961591 
L 144.824066 306.784343 
L 145.002666 314.852537 
L 145.181266 315.242579 
L 145.359866 311.172308 
L 145.538659 312.916485 
L 145.896053 318.336173 
L 146.074846 314.251748 
L 146.432626 319.155574 
L 146.611612 310.000612 
L 146.969585 323.420865 
L 147.148571 312.298396 
L 147.32775 317.559235 
L 147.50693 317.663037 
L 147.686109 323.265163 
L 147.865096 321.640515 
L 148.044468 317.486889 
L 148.223841 316.68007 
L 148.403213 312.900758 
L 148.582392 317.52149 
L 148.761958 325.430836 
L 148.941524 318.391219 
L 149.120896 323.803043 
L 149.300462 322.211422 
L 149.48022 315.467481 
L 149.659786 317.013492 
L 149.839544 315.752149 
L 150.198869 320.538019 
L 150.558579 316.233409 
L 150.738531 322.371842 
L 150.918289 322.224004 
L 151.098241 322.991505 
L 151.278386 315.022394 
L 151.458338 316.904973 
L 151.638483 313.699713 
L 151.818627 313.572321 
L 151.998965 319.886902 
L 152.17911 319.473269 
L 152.359255 320.975243 
L 152.539593 321.237892 
L 152.719931 308.302044 
L 152.900269 318.611403 
L 153.080799 318.702623 
L 153.26133 319.817701 
L 153.441668 318.312581 
L 153.622199 312.557899 
L 153.983454 317.25255 
L 154.163985 318.04836 
L 154.344902 320.468818 
L 154.706351 313.683986 
L 154.887268 312.814257 
L 155.068185 304.77909 
L 155.430019 318.188334 
L 155.79224 312.248068 
L 155.973157 312.26065 
L 156.154267 308.553684 
L 156.33557 309.752118 
L 156.51668 311.747934 
L 156.697984 310.357625 
L 156.879287 316.324629 
L 157.06059 315.962897 
L 157.242087 312.723037 
L 157.42339 313.460656 
L 157.786383 317.765265 
L 157.967879 315.338516 
L 158.149569 319.635262 
L 158.331065 317.96815 
L 158.512754 306.697842 
L 158.694637 319.421368 
L 158.876326 317.554517 
L 159.058016 311.41923 
L 159.239898 310.937969 
L 159.603664 321.272492 
L 159.967815 315.5068 
L 160.14989 317.512053 
L 160.331966 316.464603 
L 160.514042 316.511786 
L 160.696117 316.379675 
L 160.878386 319.806691 
L 161.060655 326.638706 
L 161.243116 323.392555 
L 161.425385 316.010079 
L 161.607847 322.379706 
L 161.790116 314.443623 
L 162.155232 321.97551 
L 162.337694 314.086609 
L 162.703004 320.298961 
L 162.885659 321.524132 
L 163.068314 315.341662 
L 163.250968 313.610067 
L 163.433816 317.055956 
L 163.616664 316.678497 
L 163.799512 322.373415 
L 163.982553 317.51048 
L 164.165594 320.600929 
L 164.348635 313.773633 
L 164.531676 312.543744 
L 164.714524 320.232906 
L 164.897952 320.357153 
L 165.080993 316.74298 
L 165.264227 320.591492 
L 165.447461 315.182814 
L 165.630888 317.090557 
L 165.814122 321.236319 
L 165.997549 315.840223 
L 166.18117 318.28899 
L 166.364597 316.87509 
L 166.548217 317.713365 
L 166.731837 320.93907 
L 167.099078 314.440477 
L 167.282698 319.051773 
L 167.466318 320.339853 
L 167.833945 312.765502 
L 168.017758 315.734849 
L 168.201765 312.428934 
L 168.385771 315.358962 
L 168.569778 314.898147 
L 168.753591 315.937733 
L 168.937791 319.584934 
L 169.12199 316.485049 
L 169.305997 316.269583 
L 169.674589 319.194893 
L 169.858788 322.518108 
L 170.043181 316.31362 
L 170.411966 321.621642 
L 170.596359 320.761349 
L 170.780751 312.012156 
L 170.965337 311.824999 
L 171.334701 323.747996 
L 171.519287 320.618229 
L 171.704066 312.237058 
L 171.888845 316.695797 
L 172.07343 318.23709 
L 172.258402 312.11753 
L 172.628153 322.219286 
L 172.813124 318.136434 
L 172.998096 317.862776 
L 173.183261 318.377064 
L 173.368426 315.429736 
L 173.553398 309.541369 
L 173.738756 316.024234 
L 173.923921 314.346113 
L 174.109086 319.435523 
L 174.294444 319.087946 
L 174.479802 319.627398 
L 174.665353 321.236319 
L 174.850711 318.340891 
L 175.036069 317.963432 
L 175.22162 324.647608 
L 175.407171 321.281929 
L 175.592915 321.178127 
L 175.778466 324.696363 
L 176.335506 310.087113 
L 176.70738 328.216172 
L 176.893318 319.573925 
L 177.079255 318.104979 
L 177.265192 323.872243 
L 177.451129 322.03842 
L 177.82339 314.561579 
L 178.00952 315.851232 
L 178.195844 320.459382 
L 178.382167 317.09213 
L 178.568297 319.72019 
L 178.754621 317.837612 
L 178.941137 320.531728 
L 179.127461 324.855211 
L 179.313977 321.54615 
L 179.500494 314.939038 
L 179.68701 315.483209 
L 179.873527 329.059164 
L 180.246946 309.014499 
L 180.433655 318.54063 
L 180.620365 318.515466 
L 180.807268 314.817937 
L 180.99417 320.806959 
L 181.181073 314.583597 
L 181.367783 313.062751 
L 181.554878 315.763158 
L 181.741974 314.915447 
L 181.928877 322.035275 
L 182.115972 312.715174 
L 182.303261 312.24964 
L 182.490164 319.795682 
L 183.052223 307.622618 
L 183.239705 319.380477 
L 183.426994 314.720426 
L 183.614476 320.964234 
L 183.801958 321.388875 
L 183.989633 318.641286 
L 184.177115 320.572619 
L 184.364597 317.836039 
L 184.552465 317.222668 
L 184.74014 315.522528 
L 184.927815 316.85779 
L 185.303551 325.144596 
L 185.491419 321.442349 
L 185.679287 314.353976 
L 185.867348 317.71651 
L 186.055216 318.793842 
L 186.243277 308.237562 
L 186.431532 324.948003 
L 186.807847 313.106788 
L 186.995908 324.18522 
L 187.184355 319.830283 
L 187.372803 312.023165 
L 187.561057 317.027647 
L 187.749504 317.787284 
L 187.937952 312.732474 
L 188.314846 318.734078 
L 188.503487 318.255963 
L 188.692127 315.877969 
L 189.069408 314.855683 
L 189.258241 316.15949 
L 189.447075 319.204329 
L 189.635908 316.035243 
L 190.013768 322.03842 
L 190.202602 321.324393 
L 190.391628 319.743782 
L 190.580655 319.984412 
L 190.769874 315.734849 
L 190.959094 308.951589 
L 191.14812 321.673543 
L 191.337533 318.869334 
L 191.526753 320.58992 
L 191.715972 312.559472 
L 191.905385 312.224476 
L 192.473816 321.522559 
L 192.852835 312.798529 
L 193.042441 319.360031 
L 193.232046 312.823693 
L 193.421845 312.664846 
L 193.611644 320.874587 
L 193.991049 314.237593 
L 194.181041 315.931442 
L 194.371033 318.682177 
L 194.561025 318.913371 
L 194.941009 314.231302 
L 195.321379 319.146138 
L 195.511564 311.944527 
L 195.701749 314.036281 
L 195.892127 322.448907 
L 196.082312 320.390181 
L 196.272883 319.690308 
L 196.463261 315.772594 
L 196.653639 319.784673 
L 196.844017 312.213467 
L 197.034589 313.794078 
L 197.22516 316.327774 
L 197.415924 313.042305 
L 197.79726 317.431843 
L 197.988217 314.037854 
L 198.178788 317.898949 
L 198.56051 316.233409 
L 198.75166 311.535613 
L 198.942425 315.906278 
L 199.133575 316.252282 
L 199.324725 322.658082 
L 199.515876 323.398846 
L 199.898177 313.926189 
L 200.089327 316.345075 
L 200.280671 315.456472 
L 200.472014 313.275072 
L 200.663358 319.341158 
L 201.429311 311.392493 
L 201.621041 308.978326 
L 202.004307 320.868296 
L 202.387766 308.794314 
L 202.579689 308.605585 
L 202.771419 310.4976 
L 202.963342 309.777282 
L 203.155264 308.501783 
L 203.347187 304.596652 
L 203.539303 304.598224 
L 203.731419 310.632856 
L 203.923535 304.466114 
L 204.115651 309.149755 
L 204.30796 310.206642 
L 204.500269 306.66796 
L 204.692577 306.672678 
L 204.884886 309.264566 
L 205.077388 309.492614 
L 205.269697 311.623687 
L 205.462199 312.350296 
L 205.654701 310.769685 
L 205.847203 305.205305 
L 206.039898 304.436231 
L 206.232594 312.458816 
L 206.425289 311.279255 
L 206.810872 306.148953 
L 207.003567 313.60063 
L 207.196648 311.228927 
L 207.389536 306.812653 
L 207.582425 308.372818 
L 207.775506 298.959925 
L 207.968587 296.898053 
L 208.547831 314.23602 
L 208.741105 314.619771 
L 209.127847 306.268482 
L 209.321121 313.690277 
L 209.514589 308.668495 
L 209.708056 307.833366 
L 210.095184 304.590361 
L 210.288651 313.400891 
L 210.482312 303.940816 
L 210.675972 303.4281 
L 211.063487 297.906184 
L 211.25734 304.107527 
L 211.64524 300.032539 
L 211.839094 299.254029 
L 212.033141 290.345988 
L 212.227187 296.095952 
L 212.421234 298.080759 
L 212.615281 305.104649 
L 212.80952 303.807133 
L 213.00376 305.183286 
L 213.198 309.519351 
L 213.392433 307.013964 
L 213.586865 307.471634 
L 213.975538 311.065362 
L 214.169971 308.180943 
L 214.364404 311.713334 
L 214.55903 309.475314 
L 214.753655 304.775945 
L 214.948474 315.802477 
L 215.143293 309.325903 
L 215.337919 309.582261 
L 215.922569 317.032365 
L 216.117388 305.946069 
L 216.507413 317.647309 
L 216.702425 319.89162 
L 216.89763 311.812417 
L 217.092642 310.931678 
L 217.28804 315.113613 
L 217.483245 311.288692 
L 217.67845 310.13115 
L 217.873849 316.003788 
L 218.069247 318.026341 
L 218.264645 316.297892 
L 218.655635 311.779389 
L 218.851226 313.072187 
L 219.046817 311.743216 
L 219.242602 315.602738 
L 219.633977 312.553181 
L 219.829762 315.192251 
L 220.025546 319.663571 
L 220.221524 319.713899 
L 220.417308 313.198007 
L 220.613478 312.686864 
L 220.809263 318.218217 
L 221.005627 317.222668 
L 221.201604 315.492645 
L 221.397581 316.255428 
L 221.593945 313.849124 
L 221.790116 316.106017 
L 221.986479 313.682413 
L 222.182843 316.950582 
L 222.379207 318.342464 
L 222.57557 314.64808 
L 222.772127 325.407245 
L 222.968684 322.124921 
L 223.165047 309.341631 
L 223.361797 311.456976 
L 223.558354 316.055689 
L 223.755104 317.408252 
L 224.148603 312.776511 
L 224.345353 321.461222 
L 224.542296 323.653632 
L 224.739239 317.683483 
L 224.936182 320.391754 
L 225.133124 319.232639 
L 225.33026 318.888207 
L 225.527396 321.038153 
L 225.724532 317.364215 
L 225.921668 321.681406 
L 226.316133 317.079548 
L 226.513655 316.936428 
L 226.710985 318.441547 
L 226.908507 313.981235 
L 227.105836 314.064591 
L 227.303358 322.89714 
L 227.698595 320.201451 
L 228.093832 309.069545 
L 228.489456 318.625558 
L 228.687171 311.749507 
L 228.885079 309.895238 
L 229.082988 315.272461 
L 229.280896 315.520955 
L 229.478997 316.816899 
L 229.677099 315.599592 
L 229.8752 313.231035 
L 230.073301 317.801439 
L 230.271596 318.43211 
L 230.46989 314.968921 
L 230.866286 322.124921 
L 231.064774 318.914944 
L 231.263068 322.340387 
L 231.461749 322.288487 
L 231.660236 315.034976 
L 232.454766 321.673543 
L 232.653446 321.97551 
L 232.852127 319.367895 
L 233.051001 310.464572 
L 233.250067 314.525406 
L 233.448941 315.052276 
L 233.647815 317.799866 
L 233.846882 317.644164 
L 234.045948 315.075867 
L 234.245015 316.356084 
L 234.444275 313.256199 
L 234.643342 313.856988 
L 235.041861 320.50971 
L 235.241314 318.819006 
L 235.440767 318.811142 
L 235.640027 311.807698 
L 235.839673 316.126463 
L 236.039126 310.189341 
L 236.238772 312.72461 
L 236.438418 310.26326 
L 236.83771 316.893963 
L 237.037356 314.018981 
L 237.237195 317.200649 
L 237.437034 313.212162 
L 237.636873 313.400891 
L 237.836906 319.010881 
L 238.036938 310.782267 
L 238.23697 317.247832 
L 238.637034 310.945833 
L 238.83726 310.941115 
L 239.037485 310.797995 
L 239.23771 314.085037 
L 239.437935 314.58517 
L 239.638354 309.291303 
L 239.838772 311.199045 
L 240.039384 307.701255 
L 240.239802 316.986755 
L 240.640832 311.158154 
L 241.042055 317.222668 
L 241.242859 317.31546 
L 241.443664 313.021859 
L 241.644661 313.514129 
L 241.845466 315.036549 
L 242.04627 319.194893 
L 242.448265 312.513862 
L 242.649263 319.548761 
L 242.85026 314.883992 
L 243.051451 323.523094 
L 243.252835 311.405075 
L 243.453832 317.387806 
L 243.655216 315.272461 
L 243.8566 311.663006 
L 244.057984 320.582056 
L 244.259367 317.482171 
L 244.460751 308.836779 
L 244.863712 318.730932 
L 245.065482 309.184356 
L 245.267059 310.426826 
L 245.468828 317.238395 
L 245.670405 309.357358 
L 245.872368 306.55944 
L 246.074138 312.023165 
L 246.276101 312.562617 
L 246.477871 314.085037 
L 246.680027 307.290768 
L 246.88199 309.772563 
L 247.083953 318.177325 
L 247.286109 311.925654 
L 247.488265 319.317567 
L 247.892771 310.964706 
L 248.094927 316.28531 
L 248.297469 312.315696 
L 248.499818 312.866157 
L 248.702167 313.770487 
L 248.904709 317.677192 
L 249.107252 317.324896 
L 249.309794 310.433117 
L 249.715071 317.379942 
L 249.917807 312.477689 
L 250.120542 316.283737 
L 250.32347 312.96524 
L 250.526206 307.616327 
L 250.729134 314.214002 
L 250.932063 313.956071 
L 251.135184 311.472703 
L 251.338112 306.455639 
L 251.541234 316.632887 
L 251.744355 311.317001 
L 251.94767 314.740872 
L 252.150791 312.54689 
L 252.354106 312.712028 
L 252.557421 315.566565 
L 252.760928 312.683719 
L 252.964243 307.273468 
L 253.16775 311.733779 
L 253.371065 312.929067 
L 253.574766 310.541637 
L 253.778273 313.647813 
L 253.982167 313.902598 
L 254.185675 317.829748 
L 254.389376 317.088984 
L 254.593269 314.515969 
L 254.797163 313.650958 
L 255.001057 314.448341 
L 255.204951 316.975746 
L 255.408845 311.691315 
L 255.817018 316.098153 
L 256.021298 314.434186 
L 256.225385 317.735383 
L 256.429472 315.086877 
L 256.633752 310.80114 
L 256.838225 316.662769 
L 257.042505 313.193289 
L 257.246785 314.586743 
L 257.451258 318.035778 
L 257.655924 310.475581 
L 258.065063 318.078242 
L 258.269729 313.712295 
L 258.474203 313.166552 
L 258.679062 312.123821 
L 258.883921 311.953964 
L 259.08878 310.678466 
L 259.293639 311.217918 
L 259.498499 310.041503 
L 259.703358 315.805622 
L 259.90841 313.850697 
L 260.113655 314.503387 
L 260.318515 316.890818 
L 260.52376 314.105482 
L 260.729005 316.290028 
L 260.934251 311.537186 
L 261.139496 316.129608 
L 261.344935 316.574696 
L 261.550373 321.049162 
L 261.755812 314.212429 
L 261.96125 313.257771 
L 262.166882 314.882419 
L 262.37232 315.514664 
L 262.783776 313.745323 
L 262.989408 313.800369 
L 263.195232 313.669831 
L 263.401057 311.175454 
L 263.607075 315.830786 
L 263.812899 317.549799 
L 264.018724 303.954971 
L 264.224742 307.967049 
L 264.430952 309.212665 
L 264.637163 313.188571 
L 264.842988 314.616625 
L 265.049392 316.842063 
L 265.255602 312.142694 
L 265.462006 316.032098 
L 265.668217 316.66906 
L 266.081025 312.509144 
L 266.494219 317.686628 
L 266.700622 314.907583 
L 266.907219 313.967081 
L 267.114009 323.576567 
L 267.527396 308.213971 
L 267.73438 312.331423 
L 267.94117 313.295517 
L 268.148153 318.23709 
L 268.355136 316.821617 
L 268.562119 313.374155 
L 268.769102 313.232607 
L 268.976278 314.202993 
L 269.183454 312.031028 
L 269.390437 314.621343 
L 269.597807 312.897612 
L 269.805176 313.96079 
L 270.219915 311.15029 
L 270.842408 320.09765 
L 271.257533 319.661999 
L 271.465289 316.860936 
L 271.673044 316.950582 
L 271.880799 315.244151 
L 272.088555 316.209818 
L 272.296503 312.526444 
L 272.504452 314.849392 
L 272.7124 319.451251 
L 272.920349 311.452257 
L 273.128491 314.501815 
L 273.544581 311.02447 
L 273.752915 316.2051 
L 273.96125 306.680542 
L 274.169392 306.266909 
L 274.377726 311.587514 
L 274.586061 306.142662 
L 275.00331 317.607991 
L 275.211837 314.129073 
L 275.420365 315.491073 
L 275.628893 313.215307 
L 275.837614 321.870136 
L 276.046334 319.896338 
L 276.255055 319.790964 
L 276.463969 317.343769 
L 276.672883 317.301305 
L 276.881797 319.750073 
L 277.090711 320.783368 
L 277.299818 317.463298 
L 277.508925 324.897675 
L 277.718032 316.113881 
L 277.927139 315.440745 
L 278.345739 317.76212 
L 278.554846 314.177829 
L 278.764339 312.792238 
L 279.183133 317.589118 
L 279.392626 315.18596 
L 279.602119 314.401159 
L 279.811805 319.429232 
L 280.021491 318.76396 
L 280.231178 315.71283 
L 280.440864 314.500242 
L 280.650743 317.526208 
L 280.860622 314.883992 
L 281.070309 316.625024 
L 281.280381 313.213735 
L 281.490454 314.511251 
L 281.700526 318.834734 
L 281.910405 318.784406 
L 282.120671 315.846514 
L 282.330743 315.574428 
L 282.541009 311.260382 
L 282.751274 322.51339 
L 282.961733 314.020554 
L 283.171998 322.27905 
L 283.382457 321.716007 
L 283.592915 314.309939 
L 283.803567 316.988328 
L 284.014219 317.373651 
L 284.224484 321.112072 
L 284.435329 311.729061 
L 284.64598 316.518077 
L 284.856632 317.705501 
L 285.278515 307.880548 
L 285.489359 315.682948 
L 285.700204 318.134861 
L 285.911435 315.368398 
L 286.12228 319.584934 
L 286.333511 319.960821 
L 286.544548 316.57155 
L 286.967203 319.41665 
L 287.178434 314.402732 
L 287.389665 317.609563 
L 287.601282 318.935389 
L 287.812513 319.463833 
L 288.02413 323.40671 
L 288.447171 314.063018 
L 288.658788 314.910729 
L 288.870405 312.878739 
L 289.082215 321.132518 
L 289.294026 322.143794 
L 289.505836 324.600425 
L 289.717839 317.96815 
L 289.929649 322.379706 
L 290.141459 323.035542 
L 290.565852 318.051505 
L 290.777855 313.448074 
L 291.202248 320.380744 
L 291.414637 314.503387 
L 291.626833 317.508908 
L 291.839223 313.871143 
L 292.264194 320.747194 
L 292.476584 312.776511 
L 292.901942 316.838917 
L 293.114524 315.572856 
L 293.3273 318.647577 
L 293.539882 319.402495 
L 293.752851 316.831053 
L 293.965627 317.982305 
L 294.178788 315.486354 
L 294.391564 309.796154 
L 294.604532 317.181776 
L 294.817694 317.04652 
L 295.030856 313.438637 
L 295.243824 314.880847 
L 295.670341 312.399051 
L 295.883696 308.901261 
L 296.310405 323.919426 
L 296.737308 313.345845 
L 296.950856 321.01928 
L 297.378145 312.796956 
L 297.591886 319.728054 
L 297.805627 318.716778 
L 298.233301 314.185692 
L 298.660976 316.139045 
L 298.87491 311.703897 
L 299.089038 314.336676 
L 299.517292 308.597721 
L 299.731419 305.62051 
L 299.945739 305.611074 
L 300.160059 309.24412 
L 300.5887 310.648584 
L 300.80302 306.024706 
L 301.017533 311.038625 
L 301.23224 309.1183 
L 301.446753 305.777785 
L 301.661266 305.534009 
L 301.876166 307.694964 
L 302.090872 311.49944 
L 302.305578 304.90491 
L 302.520478 303.638849 
L 302.735184 306.243318 
L 302.950277 304.451959 
L 303.165176 304.145273 
L 303.380075 300.10174 
L 303.595361 299.889419 
L 303.810454 303.248807 
L 304.025739 301.240409 
L 304.240832 300.292042 
L 304.456117 304.692589 
L 304.671403 298.057168 
L 304.886882 296.47813 
L 305.102167 298.706713 
L 305.317839 297.626235 
L 305.533318 297.43436 
L 305.748796 290.989241 
L 305.964468 292.684663 
L 306.179947 291.067879 
L 306.395812 286.94099 
L 306.611676 291.490948 
L 306.827348 293.664485 
L 307.043406 290.298805 
L 307.475136 292.752291 
L 307.691194 281.876743 
L 307.907252 284.171382 
L 308.339561 264.836026 
L 308.555812 261.044132 
L 308.772063 267.212447 
L 309.204758 288.269961 
L 309.421202 290.548872 
L 309.637646 294.947847 
L 309.854283 288.323435 
L 310.070727 295.421244 
L 310.287364 291.737869 
L 310.504001 295.553354 
L 310.720639 291.797634 
L 310.937469 293.062123 
L 311.154492 291.737869 
L 311.371129 296.018888 
L 311.588153 290.624364 
L 311.805176 290.493826 
L 312.022006 290.695138 
L 312.23903 291.621486 
L 312.456246 294.974583 
L 312.673462 293.728967 
L 312.890679 294.864491 
L 313.107895 299.318512 
L 313.325305 300.343943 
L 313.542714 298.506974 
L 313.759931 295.256105 
L 313.977533 305.409762 
L 314.195136 305.895741 
L 314.412545 301.421275 
L 314.630148 303.678167 
L 314.84775 297.51457 
L 315.065546 297.061619 
L 315.283342 301.245127 
L 315.501137 302.536353 
L 315.719126 306.669533 
L 315.936922 307.954467 
L 316.15491 301.754697 
L 316.372899 304.49285 
L 316.591081 305.263497 
L 316.809263 305.238333 
L 317.027252 305.523 
L 317.245627 304.334003 
L 317.463808 312.778083 
L 317.682183 303.016041 
L 317.900365 303.412373 
L 318.118933 307.229431 
L 318.337308 306.172545 
L 318.555876 307.040701 
L 318.774444 309.726954 
L 318.993205 305.353143 
L 319.430534 313.490538 
L 319.649295 314.921738 
L 319.868056 315.296052 
L 320.08701 309.338485 
L 320.305771 307.216849 
L 320.524725 311.39092 
L 320.743873 309.648316 
L 320.96302 304.692589 
L 321.401314 311.106253 
L 321.620655 309.418695 
L 321.839802 306.664814 
L 322.059142 310.332461 
L 322.278483 311.617396 
L 322.498016 309.8339 
L 322.717356 311.773098 
L 322.93689 306.600332 
L 323.156616 311.798262 
L 323.376149 310.69262 
L 323.595876 310.219224 
L 323.815602 316.006934 
L 324.255248 311.51674 
L 324.694894 310.835741 
L 324.915007 313.839688 
L 325.13512 309.934556 
L 325.355039 314.972066 
L 325.795458 312.147412 
L 326.456182 303.719059 
L 326.897179 269.464621 
L 327.338177 221.508408 
L 327.558676 238.327369 
L 328.000252 298.126369 
L 328.220751 306.004261 
L 328.662521 313.890016 
L 328.883406 314.169965 
L 329.325369 312.732474 
L 329.546447 306.837817 
L 329.988603 316.469322 
L 330.209874 311.732206 
L 330.431145 313.235753 
L 330.873881 311.085807 
L 331.095152 318.193053 
L 331.316809 320.943788 
L 331.759738 314.140083 
L 331.981395 318.590958 
L 332.424902 314.953193 
L 332.64656 314.865119 
L 332.868217 309.7647 
L 333.312111 316.717816 
L 333.534154 317.518344 
L 333.756198 314.747163 
L 333.978241 317.066966 
L 334.200285 313.816097 
L 334.422521 318.007468 
L 334.644758 310.033639 
L 335.089231 307.065865 
L 335.311853 300.80004 
L 335.53409 285.958023 
L 335.979142 224.49191 
L 336.201765 163.733534 
L 336.424388 64.166043 
L 336.64701 36.74362 
L 337.315458 279.825881 
L 337.761282 307.581726 
L 337.984291 308.676358 
L 338.430309 316.565259 
L 338.653511 317.902094 
L 338.876713 323.793606 
L 339.099915 317.914676 
L 339.32331 318.098688 
L 339.546705 315.07744 
L 339.7701 313.786215 
L 339.993495 311.43653 
L 340.217083 318.27169 
L 340.440478 318.403801 
L 340.664066 306.907018 
L 340.88804 311.760516 
L 341.111628 313.962362 
L 341.335409 308.475047 
L 341.55919 310.091831 
L 341.782972 319.938802 
L 342.007139 316.52594 
L 342.455087 319.888474 
L 342.679062 310.709921 
L 342.903229 316.964737 
L 343.351564 319.312849 
L 343.575924 313.863279 
L 344.024645 316.126463 
L 344.249005 309.635734 
L 344.698112 317.917822 
L 344.922666 316.194091 
L 345.147219 319.048627 
L 345.371966 318.800133 
L 345.596713 314.475078 
L 345.821459 316.77758 
L 346.046399 317.655173 
L 346.271145 313.29709 
L 346.496278 315.163941 
L 346.721411 314.056727 
L 346.946351 311.647278 
L 347.396616 320.806959 
L 347.621749 320.467245 
L 347.847075 316.900254 
L 348.0724 315.925151 
L 348.297726 319.289258 
L 348.523245 317.36736 
L 348.748764 317.667755 
L 348.97409 317.37837 
L 349.199802 315.709685 
L 349.425321 318.026341 
L 349.651033 315.638911 
L 349.876745 315.799331 
L 350.10265 319.119401 
L 350.328555 320.058331 
L 350.554267 320.220324 
L 350.780365 317.427125 
L 351.006077 320.078777 
L 351.232175 320.87616 
L 351.458466 318.342464 
L 351.684565 317.306023 
L 351.910663 318.605112 
L 352.136954 314.841528 
L 352.363245 314.795918 
L 352.589729 315.616892 
L 352.816021 318.98729 
L 353.042505 316.518077 
L 353.268989 318.980999 
L 353.495667 314.811646 
L 353.722151 314.520688 
L 353.949022 319.279821 
L 354.175506 318.661731 
L 354.402376 321.052307 
L 354.629247 321.075899 
L 354.856117 317.809302 
L 355.082988 316.335638 
L 355.310051 318.661731 
L 355.537115 318.699477 
L 355.764178 320.674848 
L 355.991242 318.356618 
L 356.218499 319.372613 
L 356.673012 313.292372 
L 356.900462 313.437065 
L 357.127718 314.20142 
L 357.355361 317.043374 
L 357.582618 316.017943 
L 357.81026 314.443623 
L 358.037903 317.491607 
L 358.265546 313.286081 
L 358.721025 314.792773 
L 358.949054 310.892359 
L 359.176697 319.555052 
L 359.404725 317.052811 
L 359.632754 323.299763 
L 359.860783 317.295014 
L 360.317034 314.157383 
L 360.545063 319.500006 
L 360.773285 315.253588 
L 361.001507 320.637102 
L 361.229923 318.078242 
L 361.458338 313.05646 
L 361.915361 320.778649 
L 362.372577 319.139847 
L 362.601186 315.956606 
L 362.829987 318.488729 
L 363.287396 311.919363 
L 363.516198 316.291601 
L 363.974186 315.498936 
L 364.203374 316.137472 
L 364.432368 315.264597 
L 364.661556 316.541668 
L 364.890743 316.252282 
L 365.119931 317.482171 
L 365.349311 312.315696 
L 365.578692 315.229997 
L 365.808072 316.636033 
L 366.037453 311.980701 
L 366.267026 317.136166 
L 366.496407 317.373651 
L 366.726174 311.884763 
L 366.955747 315.481636 
L 367.185514 322.920731 
L 367.415281 321.898445 
L 367.645047 320.36659 
L 367.875007 320.588347 
L 368.334734 318.018478 
L 368.564886 315.978624 
L 368.795039 320.54431 
L 369.025192 315.500509 
L 369.255345 313.759478 
L 369.485691 309.472169 
L 369.715844 316.620305 
L 369.94619 308.651194 
L 370.176729 312.523298 
L 370.407075 321.307092 
L 370.637614 316.1878 
L 370.868153 315.088449 
L 371.098692 312.812684 
L 371.329424 312.207176 
L 371.560349 316.110735 
L 371.790888 310.392226 
L 372.021813 317.460152 
L 372.252738 316.936428 
L 372.483664 315.664075 
L 372.714589 312.933785 
L 372.945707 315.986488 
L 373.176825 316.466176 
L 373.407943 312.708883 
L 373.639255 304.294684 
L 374.101684 310.659593 
L 374.332996 313.371009 
L 374.5645 313.443356 
L 374.796005 317.589118 
L 375.027509 319.331722 
L 375.259013 313.908889 
L 375.722408 319.861738 
L 375.954106 310.38908 
L 376.185997 312.601936 
L 376.417694 317.847048 
L 376.649585 315.291334 
L 376.881668 316.698943 
L 377.113752 314.352404 
L 377.345643 317.853339 
L 377.80981 310.606119 
L 378.042087 316.076135 
L 378.274363 313.591194 
L 378.506833 318.309436 
L 378.73911 317.917822 
L 379.20405 319.374186 
L 379.436713 315.132486 
L 379.669182 314.909156 
L 379.901845 319.501578 
L 380.134508 313.542439 
L 380.367171 315.955033 
L 380.600027 313.883725 
L 381.065932 316.698943 
L 381.298788 309.774136 
L 381.764886 313.367864 
L 381.998129 319.150856 
L 382.464613 312.556326 
L 382.697662 315.285043 
L 382.931097 315.440745 
L 383.164532 317.71651 
L 383.397968 314.471932 
L 383.631403 313.380446 
L 383.865031 314.882419 
L 384.098659 317.589118 
L 384.332288 312.899185 
L 384.565916 313.069042 
L 384.799931 310.607692 
L 385.033559 306.106489 
L 385.267573 310.423681 
L 385.501395 309.162337 
L 385.735409 314.347685 
L 386.203438 317.376797 
L 386.437646 320.711021 
L 386.671853 310.307297 
L 386.906254 319.82871 
L 387.140269 317.774702 
L 387.374862 318.075097 
L 387.609263 315.541401 
L 387.843664 314.709417 
L 388.078257 315.425017 
L 388.312851 314.309939 
L 388.547445 311.290264 
L 388.782038 311.029188 
L 389.016825 311.776243 
L 389.251805 310.072958 
L 389.721572 316.757134 
L 389.956359 318.80957 
L 390.426511 310.816868 
L 390.661684 312.175721 
L 391.13203 310.010048 
L 391.367396 308.111742 
L 391.602762 311.938236 
L 391.838129 308.169934 
L 392.073495 312.02631 
L 392.309054 309.608998 
L 392.544613 309.770991 
L 392.780172 314.604043 
L 393.015924 316.661197 
L 393.251483 317.71651 
L 393.487429 307.929303 
L 393.959126 314.410595 
L 394.195071 314.059873 
L 394.431017 304.610806 
L 394.666962 314.838383 
L 394.903293 310.101267 
L 395.139239 309.94242 
L 395.37557 313.952926 
L 395.611709 308.78016 
L 395.84804 311.845444 
L 396.084371 311.573359 
L 396.320896 318.095542 
L 396.557421 317.818739 
L 396.793945 315.294479 
L 397.03047 317.652028 
L 397.267187 313.245189 
L 397.503712 313.235753 
L 397.740622 317.607991 
L 397.97734 316.790162 
L 398.214251 322.676955 
L 398.451162 320.407481 
L 398.688265 320.108659 
L 398.925176 316.390684 
L 399.16228 317.368933 
L 399.399384 314.880847 
L 399.636487 314.506533 
L 399.873784 308.558402 
L 400.111081 307.853811 
L 400.348571 314.618198 
L 400.585868 315.325934 
L 400.823358 317.345342 
L 401.298531 313.064324 
L 401.536021 316.367093 
L 401.773704 317.47588 
L 402.011387 312.567335 
L 402.249263 314.180974 
L 402.487139 317.666182 
L 402.725015 279.492458 
L 403.20096 329.788919 
L 403.43903 329.63479 
L 403.677099 313.26249 
L 403.915168 315.772594 
L 404.153623 310.895505 
L 404.391886 314.125928 
L 404.630148 314.308367 
L 404.868603 316.203527 
L 405.345514 313.231035 
L 405.584162 315.631047 
L 405.822618 316.746125 
L 406.061459 317.28715 
L 406.300108 316.87509 
L 406.538949 319.078509 
L 407.016632 316.645469 
L 407.255667 317.633155 
L 407.494508 319.38205 
L 407.733543 315.546119 
L 408.211998 312.929067 
L 408.451033 320.254924 
L 408.690454 314.802209 
L 408.929681 317.345342 
L 409.169102 313.094206 
L 409.408523 319.00459 
L 409.647943 316.956873 
L 409.887557 320.072486 
L 410.127171 312.616091 
L 410.606592 321.81509 
L 410.846206 313.553448 
L 411.086013 318.126997 
L 411.326013 320.391754 
L 411.806013 315.332225 
L 412.286013 320.79595 
L 412.526206 312.639682 
L 412.766592 316.730398 
L 413.006785 317.379942 
L 413.247171 319.471696 
L 413.487557 322.96005 
L 413.72775 320.780222 
L 413.96833 320.935924 
L 414.208909 322.654937 
L 414.449488 317.903667 
L 414.69026 323.606449 
L 414.93084 317.931977 
L 415.171612 315.500509 
L 415.412384 318.669595 
L 415.65335 316.072989 
L 415.894315 316.006934 
L 416.376246 316.198809 
L 416.617404 320.385463 
L 416.858563 318.045214 
L 417.099721 321.994383 
L 417.341073 312.762356 
L 417.582425 318.292136 
L 417.823776 313.194862 
L 418.065128 314.269048 
L 418.306672 321.492677 
L 418.548217 315.564992 
L 418.789762 322.947468 
L 419.031499 316.252282 
L 419.273044 322.363979 
L 419.514975 319.454396 
L 419.756713 318.686895 
L 419.998643 315.011385 
L 420.482505 314.338249 
L 420.724629 315.870105 
L 420.966753 319.201184 
L 421.208877 314.821082 
L 421.451001 319.352167 
L 421.693318 318.965272 
L 421.935635 319.048627 
L 422.178145 317.088984 
L 422.420462 319.65728 
L 422.662972 320.185724 
L 422.905482 325.715503 
L 423.147992 319.861738 
L 423.390888 320.06934 
L 423.633398 316.9207 
L 423.876294 312.174149 
L 424.118997 316.035243 
L 424.361894 313.259344 
L 424.847686 318.395937 
L 425.090968 315.58701 
L 425.333865 315.349525 
L 425.577147 318.554785 
L 425.820429 317.652028 
L 426.063519 315.582292 
L 426.307187 320.476682 
L 426.55047 318.461992 
L 426.793752 317.641018 
L 427.037421 314.817937 
L 427.280896 318.564221 
L 427.524565 315.274034 
L 427.76804 317.818739 
L 428.011902 316.31362 
L 428.255763 315.505227 
L 428.499625 319.57707 
L 428.743293 317.354778 
L 428.987348 320.718885 
L 429.231403 316.768144 
L 429.475458 320.350862 
L 429.719512 316.546386 
L 429.96376 318.260681 
L 430.208008 321.05388 
L 430.452256 309.662471 
L 430.940944 319.974975 
L 431.185385 319.23893 
L 431.429826 321.585469 
L 431.67446 320.799095 
L 431.919094 316.033671 
L 432.163728 319.105246 
L 432.653382 316.856217 
L 432.898209 320.479827 
L 433.143036 320.185724 
L 433.388056 317.861203 
L 433.632883 318.461992 
L 433.878096 314.718854 
L 434.123116 322.928595 
L 434.36833 315.555555 
L 435.104355 318.229226 
L 435.349762 309.700217 
L 435.595168 316.904973 
L 435.840767 319.498433 
L 436.086367 315.462763 
L 436.577758 324.081419 
L 436.823358 315.704966 
L 437.06915 318.897644 
L 437.560928 315.384126 
L 437.806914 315.807195 
L 438.053092 315.333798 
L 438.299078 322.654937 
L 438.545256 319.915211 
L 438.791435 318.921235 
L 439.037614 319.485851 
L 439.283985 317.935122 
L 439.530357 318.268545 
L 440.023293 317.423979 
L 440.269858 309.435995 
L 440.516423 316.258573 
L 440.763181 318.416383 
L 441.009939 314.709417 
L 441.256503 315.368398 
L 441.503454 315.513091 
L 441.750212 315.121477 
L 442.244307 318.966844 
L 442.491258 318.054651 
L 442.985739 311.622114 
L 443.232883 321.533568 
L 443.480027 319.985985 
L 443.727557 319.952957 
L 443.974894 312.276377 
L 444.222231 315.377835 
L 444.469762 320.273797 
L 444.717292 319.201184 
L 444.965015 316.452021 
L 445.212738 315.83865 
L 445.460462 313.891589 
L 445.708185 319.036045 
L 445.956101 315.429736 
L 446.204017 314.094473 
L 446.451934 316.422139 
L 446.700043 312.951086 
L 446.94796 313.801942 
L 447.196262 318.029487 
L 447.692674 319.045482 
L 447.940976 319.89162 
L 448.189279 318.806424 
L 448.437775 319.893193 
L 448.68627 322.032129 
L 449.183454 317.80773 
L 449.43195 320.012721 
L 449.680832 318.182043 
L 449.92952 314.663808 
L 450.427091 318.029487 
L 450.676166 317.194358 
L 450.925047 317.158185 
L 451.174315 317.279286 
L 451.42339 318.336173 
L 451.672465 320.504991 
L 451.921733 319.14771 
L 452.171001 315.640484 
L 452.420462 314.239166 
L 452.919384 319.544043 
L 453.168845 318.965272 
L 453.418306 316.538522 
L 453.66796 320.599356 
L 453.917807 318.059369 
L 454.167268 318.311009 
L 454.417115 314.582025 
L 454.666962 318.103406 
L 454.917002 319.855447 
L 455.166849 318.16317 
L 455.41689 317.280859 
L 455.667123 319.468551 
L 455.917163 323.694523 
L 456.167396 322.431607 
L 456.41763 316.667488 
L 456.667863 323.062279 
L 456.918483 317.971295 
L 457.419335 313.418192 
L 457.920381 320.62452 
L 458.171194 318.419528 
L 458.421813 318.796988 
L 458.672626 321.492677 
L 458.923438 320.918624 
L 459.174444 316.999337 
L 459.425256 318.996727 
L 459.676262 319.761082 
L 459.927461 321.703425 
L 460.178659 318.880343 
L 460.429665 321.627933 
L 460.680864 320.772358 
L 461.183647 326.858891 
L 461.435039 322.724138 
L 461.686431 322.695828 
L 461.938016 318.815861 
L 462.189601 322.514962 
L 462.441379 323.213262 
L 462.692964 325.369499 
L 463.19652 321.063317 
L 463.448491 321.59176 
L 463.700462 319.772091 
L 463.95224 321.355848 
L 464.204404 321.736453 
L 464.456568 315.896842 
L 464.708732 322.730429 
L 465.213253 315.627902 
L 465.46561 318.292136 
L 465.717968 316.893963 
L 465.970325 316.647042 
L 466.222875 319.544043 
L 466.475618 325.350626 
L 466.728169 322.346678 
L 466.980912 317.916249 
L 467.233655 317.953995 
L 467.486399 317.158185 
L 467.739335 318.068806 
L 467.992272 316.2051 
L 468.245208 318.699477 
L 468.498338 319.789391 
L 468.751274 315.988061 
L 469.004597 316.558968 
L 469.511049 316.492913 
L 469.764178 318.515466 
L 470.017887 322.266468 
L 470.27121 323.035542 
L 470.524725 318.502884 
L 470.778241 317.013492 
L 471.03195 322.73672 
L 471.539174 319.377331 
L 471.793269 324.318904 
L 472.046978 316.942719 
L 472.30088 318.474574 
L 472.554782 321.050735 
L 472.808877 314.34454 
L 473.063165 317.603272 
L 473.317067 317.931977 
L 473.571355 312.439943 
L 473.825643 316.179936 
L 474.079931 313.253053 
L 474.334412 305.35157 
L 474.843374 312.660127 
L 475.097855 313.644667 
L 475.607203 318.796988 
L 475.861878 314.838383 
L 476.116745 314.272193 
L 476.371612 315.218987 
L 476.88154 318.381782 
L 477.1366 314.544279 
L 477.39166 319.506297 
L 477.646721 312.180439 
L 477.901974 312.468252 
L 478.157227 313.606921 
L 478.412481 317.279286 
L 478.667927 316.459885 
L 478.923374 317.181776 
L 479.179013 321.223737 
L 479.43446 315.96447 
L 479.6901 316.183082 
L 479.945739 318.342464 
L 480.201379 313.163407 
L 480.457404 320.020585 
L 480.713044 312.699446 
L 480.96907 316.069844 
L 481.225096 317.425552 
L 481.481121 314.526979 
L 481.737147 314.827373 
L 481.993366 314.659089 
L 482.505803 320.063049 
L 482.762215 317.777847 
L 483.018434 318.510748 
L 483.275039 317.836039 
L 483.531451 318.894498 
L 483.788056 318.032632 
L 484.044661 316.07928 
L 484.301266 318.155307 
L 484.558064 317.420834 
L 484.814862 315.868532 
L 485.07166 319.614816 
L 485.328651 320.901324 
L 485.585643 318.639713 
L 485.842634 322.617191 
L 486.099818 317.471162 
L 486.356809 324.359795 
L 486.613993 321.682979 
L 486.871371 320.646539 
L 487.128748 320.471964 
L 487.643503 316.584132 
L 488.158643 315.03183 
L 488.416214 318.743514 
L 488.931741 313.416619 
L 489.189504 315.723839 
L 489.447461 310.162605 
L 489.705417 317.530926 
L 489.963374 315.676657 
L 490.22133 316.036816 
L 490.47948 314.176256 
L 490.73763 317.472734 
L 490.995779 317.354778 
L 491.254122 313.29709 
L 491.770808 319.194893 
L 492.029343 316.407984 
L 492.287879 317.008774 
L 492.546415 313.908889 
L 492.805144 315.412435 
L 493.063873 308.959453 
L 493.322602 314.191983 
L 493.58133 312.476116 
L 493.840252 312.587781 
L 494.358096 318.831588 
L 494.617211 318.880343 
L 494.876326 316.96631 
L 495.135635 312.966813 
L 495.39475 319.249939 
L 495.654058 314.553715 
L 496.172867 311.279255 
L 496.432368 311.370475 
L 496.691869 312.007437 
L 496.951371 312.155276 
L 497.211065 314.383859 
L 497.730647 312.999841 
L 497.990341 316.49134 
L 498.250228 313.655677 
L 498.510309 312.353442 
L 499.03047 316.395402 
L 499.550631 312.218185 
L 499.810904 311.975982 
L 500.071178 315.365253 
L 500.592111 308.638612 
L 501.113044 315.242579 
L 501.373704 315.289761 
L 501.634363 314.000108 
L 501.895023 310.255397 
L 502.156069 313.007705 
L 502.416729 307.759447 
L 502.677581 311.431812 
L 502.938627 312.433652 
L 503.199673 309.670335 
L 503.460719 312.024738 
L 503.983197 303.747368 
L 504.244243 307.504662 
L 504.505675 306.439912 
L 504.767107 306.147381 
L 505.028539 308.498638 
L 505.289971 312.282668 
L 505.551596 312.271659 
L 506.075039 311.361038 
L 506.336857 316.621878 
L 506.598676 315.486354 
L 506.860494 315.973906 
L 507.122312 314.734581 
L 507.384323 314.729863 
L 507.646528 318.496593 
L 507.908539 316.798026 
L 508.170743 313.07376 
L 508.432948 315.264597 
L 508.695345 315.854377 
L 508.957549 317.16133 
L 509.219947 316.963164 
L 509.482537 311.993283 
L 510.007525 317.301305 
L 510.270309 312.897612 
L 510.532899 311.099962 
L 510.795876 313.430774 
L 511.058659 310.181478 
L 511.321636 312.309405 
L 511.584613 316.425285 
L 511.84759 312.664846 
L 512.110566 311.048061 
L 512.636906 314.302076 
L 512.900269 311.507304 
L 513.163631 309.973875 
L 513.426994 314.523833 
L 513.690357 314.611907 
L 513.953913 316.412703 
L 514.217469 313.331691 
L 514.481218 313.054887 
L 514.744774 317.725947 
L 515.536214 312.601936 
L 515.800349 315.217415 
L 516.064291 314.803782 
L 516.328233 313.364718 
L 516.592368 315.215842 
L 516.856503 312.561044 
L 517.120639 312.246495 
L 517.384967 317.348487 
L 517.649488 315.082158 
L 517.913816 314.01269 
L 518.178338 310.231806 
L 518.442859 310.849895 
L 518.70738 314.24703 
L 518.972095 313.174416 
L 519.236809 317.060675 
L 519.501717 315.417154 
L 520.296439 319.712327 
L 520.561347 315.903133 
L 520.826447 316.702088 
L 521.091741 319.940375 
L 521.622135 316.642324 
L 521.887429 316.540095 
L 522.152915 317.919395 
L 522.418402 315.643629 
L 522.949376 317.710219 
L 523.215055 312.870876 
L 523.480735 318.98729 
L 524.012288 319.224775 
L 524.278354 313.364718 
L 524.544227 316.702088 
L 524.810293 316.475613 
L 525.342425 321.15139 
L 525.874943 313.204298 
L 526.407654 318.82687 
L 526.673913 314.972066 
L 526.940558 316.077707 
L 527.20701 314.545852 
L 527.473849 314.712563 
L 527.740301 319.561343 
L 528.007139 318.793842 
L 528.273977 316.631315 
L 528.273977 316.631315 
" clip-path="url(#p4fcc46c481)" style="fill: none; stroke: #1f77b4; stroke-width: 1.5; stroke-linecap: square"/>
   </g>
   <g id="line2d_15">
    <path d="M 71.728523 315.247593 
L 292.476584 315.526136 
L 294.391564 315.281864 
L 295.670341 314.894066 
L 296.737308 314.321976 
L 297.591886 313.626634 
L 298.447236 312.654633 
L 299.303165 311.346635 
L 300.160059 309.653021 
L 301.23224 306.957215 
L 302.520478 302.926752 
L 306.611676 289.083432 
L 307.259271 287.710478 
L 307.907252 286.792966 
L 308.339561 286.459694 
L 308.772063 286.359724 
L 309.204758 286.495796 
L 309.637646 286.864959 
L 310.287364 287.835669 
L 310.937469 289.259874 
L 311.805176 291.737372 
L 313.107895 296.24858 
L 315.719126 305.419976 
L 316.809263 308.474826 
L 317.900365 310.873827 
L 318.774444 312.330853 
L 319.649295 313.422038 
L 320.524725 314.207039 
L 321.620655 314.855901 
L 322.717356 315.242117 
L 324.255248 315.514912 
L 325.575152 315.606882 
L 325.795458 315.551443 
L 326.01557 315.143273 
L 326.236069 313.203006 
L 326.456182 306.649097 
L 326.676873 290.865083 
L 327.117678 238.392287 
L 327.338177 228.09389 
L 327.558676 241.834764 
L 328.000252 294.115598 
L 328.220751 308.19813 
L 328.441829 313.755852 
L 328.662521 315.311394 
L 328.883406 315.628552 
L 329.546447 315.684037 
L 334.866994 315.678931 
L 335.089231 315.516801 
L 335.311853 314.31545 
L 335.53409 308.090843 
L 335.75652 285.60148 
L 335.979142 230.217433 
L 336.424388 61.673771 
L 336.64701 49.916638 
L 337.538273 304.344011 
L 337.761282 313.460947 
L 337.984291 315.384731 
L 338.2073 315.669406 
L 339.099915 315.702906 
L 528.273977 316.025054 
L 528.273977 316.025054 
" clip-path="url(#p4fcc46c481)" style="fill: none; stroke: #ff0000; stroke-width: 1.5; stroke-linecap: square"/>
   </g>
   <g id="patch_3">
    <path d="M 48.90125 354.26362 
L 48.90125 21.62362 
" style="fill: none; stroke: #000000; stroke-width: 0.8; stroke-linejoin: miter; stroke-linecap: square"/>
   </g>
   <g id="patch_4">
    <path d="M 551.10125 354.26362 
L 551.10125 21.62362 
" style="fill: none; stroke: #000000; stroke-width: 0.8; stroke-linejoin: miter; stroke-linecap: square"/>
   </g>
   <g id="patch_5">
    <path d="M 48.90125 354.26362 
L 551.10125 354.26362 
" style="fill: none; stroke: #000000; stroke-width: 0.8; stroke-linejoin: miter; stroke-linecap: square"/>
   </g>
   <g id="patch_6">
    <path d="M 48.90125 21.62362 
L 551.10125 21.62362 
" style="fill: none; stroke: #000000; stroke-width: 0.8; stroke-linejoin: miter; stroke-linecap: square"/>
   </g>
   <g id="text_16">
    <!-- Hbeta -->
    <g transform="translate(303.805158 208.00846)rotate(-90)scale(0.1 -0.1)">
     <defs>
      <path id="DejaVuSans-48" d="M 628 4666 
L 1259 4666 
L 1259 2753 
L 3553 2753 
L 3553 4666 
L 4184 4666 
L 4184 0 
L 3553 0 
L 3553 2222 
L 1259 2222 
L 1259 0 
L 628 0 
L 628 4666 
z
" transform="scale(0.015625)"/>
      <path id="DejaVuSans-62" d="M 3116 1747 
Q 3116 2381 2855 2742 
Q 2594 3103 2138 3103 
Q 1681 3103 1420 2742 
Q 1159 2381 1159 1747 
Q 1159 1113 1420 752 
Q 1681 391 2138 391 
Q 2594 391 2855 752 
Q 3116 1113 3116 1747 
z
M 1159 2969 
Q 1341 3281 1617 3432 
Q 1894 3584 2278 3584 
Q 2916 3584 3314 3078 
Q 3713 2572 3713 1747 
Q 3713 922 3314 415 
Q 2916 -91 2278 -91 
Q 1894 -91 1617 61 
Q 1341 213 1159 525 
L 1159 0 
L 581 0 
L 581 4863 
L 1159 4863 
L 1159 2969 
z
" transform="scale(0.015625)"/>
     </defs>
     <use xlink:href="#DejaVuSans-48"/>
     <use xlink:href="#DejaVuSans-62" x="75.195312"/>
     <use xlink:href="#DejaVuSans-65" x="138.671875"/>
     <use xlink:href="#DejaVuSans-74" x="200.195312"/>
     <use xlink:href="#DejaVuSans-61" x="239.404297"/>
    </g>
   </g>
   <g id="text_17">
    <!-- OIII_1 -->
    <g transform="translate(322.936721 161.104164)rotate(-90)scale(0.1 -0.1)">
     <defs>
      <path id="DejaVuSans-4f" d="M 2522 4238 
Q 1834 4238 1429 3725 
Q 1025 3213 1025 2328 
Q 1025 1447 1429 934 
Q 1834 422 2522 422 
Q 3209 422 3611 934 
Q 4013 1447 4013 2328 
Q 4013 3213 3611 3725 
Q 3209 4238 2522 4238 
z
M 2522 4750 
Q 3503 4750 4090 4092 
Q 4678 3434 4678 2328 
Q 4678 1225 4090 567 
Q 3503 -91 2522 -91 
Q 1538 -91 948 565 
Q 359 1222 359 2328 
Q 359 3434 948 4092 
Q 1538 4750 2522 4750 
z
" transform="scale(0.015625)"/>
      <path id="DejaVuSans-49" d="M 628 4666 
L 1259 4666 
L 1259 0 
L 628 0 
L 628 4666 
z
" transform="scale(0.015625)"/>
      <path id="DejaVuSans-5f" d="M 3263 -1063 
L 3263 -1509 
L -63 -1509 
L -63 -1063 
L 3263 -1063 
z
" transform="scale(0.015625)"/>
     </defs>
     <use xlink:href="#DejaVuSans-4f"/>
     <use xlink:href="#DejaVuSans-49" x="78.710938"/>
     <use xlink:href="#DejaVuSans-49" x="108.203125"/>
     <use xlink:href="#DejaVuSans-49" x="137.695312"/>
     <use xlink:href="#DejaVuSans-5f" x="167.1875"/>
     <use xlink:href="#DejaVuSans-31" x="217.1875"/>
    </g>
   </g>
   <g id="text_18">
    <!-- OIII_2 -->
    <g transform="translate(332.590784 35.284375)rotate(-90)scale(0.1 -0.1)">
     <use xlink:href="#DejaVuSans-4f"/>
     <use xlink:href="#DejaVuSans-49" x="78.710938"/>
     <use xlink:href="#DejaVuSans-49" x="108.203125"/>
     <use xlink:href="#DejaVuSans-49" x="137.695312"/>
     <use xlink:href="#DejaVuSans-5f" x="167.1875"/>
     <use xlink:href="#DejaVuSans-32" x="217.1875"/>
    </g>
   </g>
   <g id="legend_1">
    <g id="patch_7">
     <path d="M 489.57625 58.97987 
L 544.10125 58.97987 
Q 546.10125 58.97987 546.10125 56.97987 
L 546.10125 28.62362 
Q 546.10125 26.62362 544.10125 26.62362 
L 489.57625 26.62362 
Q 487.57625 26.62362 487.57625 28.62362 
L 487.57625 56.97987 
Q 487.57625 58.97987 489.57625 58.97987 
z
" style="fill: #ffffff; opacity: 0.8; stroke: #cccccc; stroke-linejoin: miter"/>
    </g>
    <g id="line2d_16">
     <path d="M 491.57625 34.722058 
L 501.57625 34.722058 
L 511.57625 34.722058 
" style="fill: none; stroke: #1f77b4; stroke-width: 1.5; stroke-linecap: square"/>
    </g>
    <g id="text_19">
     <!-- data -->
     <g transform="translate(519.57625 38.222058)scale(0.1 -0.1)">
      <defs>
       <path id="DejaVuSans-64" d="M 2906 2969 
L 2906 4863 
L 3481 4863 
L 3481 0 
L 2906 0 
L 2906 525 
Q 2725 213 2448 61 
Q 2172 -91 1784 -91 
Q 1150 -91 751 415 
Q 353 922 353 1747 
Q 353 2572 751 3078 
Q 1150 3584 1784 3584 
Q 2172 3584 2448 3432 
Q 2725 3281 2906 2969 
z
M 947 1747 
Q 947 1113 1208 752 
Q 1469 391 1925 391 
Q 2381 391 2643 752 
Q 2906 1113 2906 1747 
Q 2906 2381 2643 2742 
Q 2381 3103 1925 3103 
Q 1469 3103 1208 2742 
Q 947 2381 947 1747 
z
" transform="scale(0.015625)"/>
      </defs>
      <use xlink:href="#DejaVuSans-64"/>
      <use xlink:href="#DejaVuSans-61" x="63.476562"/>
      <use xlink:href="#DejaVuSans-74" x="124.755859"/>
      <use xlink:href="#DejaVuSans-61" x="163.964844"/>
     </g>
    </g>
    <g id="line2d_17">
     <path d="M 491.57625 49.400183 
L 501.57625 49.400183 
L 511.57625 49.400183 
" style="fill: none; stroke: #ff0000; stroke-width: 1.5; stroke-linecap: square"/>
    </g>
    <g id="text_20">
     <!-- fit -->
     <g transform="translate(519.57625 52.900183)scale(0.1 -0.1)">
      <defs>
       <path id="DejaVuSans-66" d="M 2375 4863 
L 2375 4384 
L 1825 4384 
Q 1516 4384 1395 4259 
Q 1275 4134 1275 3809 
L 1275 3500 
L 2222 3500 
L 2222 3053 
L 1275 3053 
L 1275 0 
L 697 0 
L 697 3053 
L 147 3053 
L 147 3500 
L 697 3500 
L 697 3744 
Q 697 4328 969 4595 
Q 1241 4863 1831 4863 
L 2375 4863 
z
" transform="scale(0.015625)"/>
       <path id="DejaVuSans-69" d="M 603 3500 
L 1178 3500 
L 1178 0 
L 603 0 
L 603 3500 
z
M 603 4863 
L 1178 4863 
L 1178 4134 
L 603 4134 
L 603 4863 
z
" transform="scale(0.015625)"/>
      </defs>
      <use xlink:href="#DejaVuSans-66"/>
      <use xlink:href="#DejaVuSans-69" x="35.205078"/>
      <use xlink:href="#DejaVuSans-74" x="62.988281"/>
     </g>
    </g>
   </g>
  </g>
 </g>
 <defs>
  <clipPath id="p4fcc46c481">
   <rect x="48.90125" y="21.62362" width="502.2" height="332.64"/>
  </clipPath>
 </defs>
</svg>
