<?xml version="1.0" encoding="utf-8" standalone="no"?>
<!DOCTYPE svg PUBLIC "-//W3C//DTD SVG 1.1//EN"
  "http://www.w3.org/Graphics/SVG/1.1/DTD/svg11.dtd">
<svg xmlns:xlink="http://www.w3.org/1999/xlink" width="392.640952pt" height="379.331875pt" viewBox="0 0 392.640952 379.331875" xmlns="http://www.w3.org/2000/svg" version="1.1">
 <metadata>
  <rdf:RDF xmlns:dc="http://purl.org/dc/elements/1.1/" xmlns:cc="http://creativecommons.org/ns#" xmlns:rdf="http://www.w3.org/1999/02/22-rdf-syntax-ns#">
   <cc:Work>
    <dc:type rdf:resource="http://purl.org/dc/dcmitype/StillImage"/>
    <dc:date>2022-05-03T11:26:12.973273</dc:date>
    <dc:format>image/svg+xml</dc:format>
    <dc:creator>
     <cc:Agent>
      <dc:title>Matplotlib v3.5.2, https://matplotlib.org/</dc:title>
     </cc:Agent>
    </dc:creator>
   </cc:Work>
  </rdf:RDF>
 </metadata>
 <defs>
  <style type="text/css">*{stroke-linejoin: round; stroke-linecap: butt}</style>
 </defs>
 <g id="figure_1">
  <g id="patch_1">
   <path d="M 0 379.331875 
L 392.640952 379.331875 
L 392.640952 0 
L 0 0 
L 0 379.331875 
z
" style="fill: none"/>
  </g>
  <g id="axes_1">
   <g id="patch_2">
    <path d="M 44.555937 339.84 
L 379.355938 339.84 
L 379.355938 7.2 
L 44.555937 7.2 
z
" style="fill: #ffffff"/>
   </g>
   <g id="matplotlib.axis_1">
    <g id="xtick_1">
     <g id="line2d_1">
      <defs>
       <path id="md49a9bae4d" d="M 0 0 
L 0 3.5 
" style="stroke: #000000; stroke-width: 0.8"/>
      </defs>
      <g>
       <use xlink:href="#md49a9bae4d" x="58.508423" y="339.84" style="stroke: #000000; stroke-width: 0.8"/>
      </g>
     </g>
     <g id="text_1">
      <!-- 0 -->
      <g transform="translate(55.327173 354.438438)scale(0.1 -0.1)">
       <defs>
        <path id="DejaVuSans-30" d="M 2034 4250 
Q 1547 4250 1301 3770 
Q 1056 3291 1056 2328 
Q 1056 1369 1301 889 
Q 1547 409 2034 409 
Q 2525 409 2770 889 
Q 3016 1369 3016 2328 
Q 3016 3291 2770 3770 
Q 2525 4250 2034 4250 
z
M 2034 4750 
Q 2819 4750 3233 4129 
Q 3647 3509 3647 2328 
Q 3647 1150 3233 529 
Q 2819 -91 2034 -91 
Q 1250 -91 836 529 
Q 422 1150 422 2328 
Q 422 3509 836 4129 
Q 1250 4750 2034 4750 
z
" transform="scale(0.015625)"/>
       </defs>
       <use xlink:href="#DejaVuSans-30"/>
      </g>
     </g>
    </g>
    <g id="xtick_2">
     <g id="line2d_2">
      <g>
       <use xlink:href="#md49a9bae4d" x="122.622429" y="339.84" style="stroke: #000000; stroke-width: 0.8"/>
      </g>
     </g>
     <g id="text_2">
      <!-- 2 -->
      <g transform="translate(119.441179 354.438438)scale(0.1 -0.1)">
       <defs>
        <path id="DejaVuSans-32" d="M 1228 531 
L 3431 531 
L 3431 0 
L 469 0 
L 469 531 
Q 828 903 1448 1529 
Q 2069 2156 2228 2338 
Q 2531 2678 2651 2914 
Q 2772 3150 2772 3378 
Q 2772 3750 2511 3984 
Q 2250 4219 1831 4219 
Q 1534 4219 1204 4116 
Q 875 4013 500 3803 
L 500 4441 
Q 881 4594 1212 4672 
Q 1544 4750 1819 4750 
Q 2544 4750 2975 4387 
Q 3406 4025 3406 3419 
Q 3406 3131 3298 2873 
Q 3191 2616 2906 2266 
Q 2828 2175 2409 1742 
Q 1991 1309 1228 531 
z
" transform="scale(0.015625)"/>
       </defs>
       <use xlink:href="#DejaVuSans-32"/>
      </g>
     </g>
    </g>
    <g id="xtick_3">
     <g id="line2d_3">
      <g>
       <use xlink:href="#md49a9bae4d" x="186.736435" y="339.84" style="stroke: #000000; stroke-width: 0.8"/>
      </g>
     </g>
     <g id="text_3">
      <!-- 4 -->
      <g transform="translate(183.555185 354.438438)scale(0.1 -0.1)">
       <defs>
        <path id="DejaVuSans-34" d="M 2419 4116 
L 825 1625 
L 2419 1625 
L 2419 4116 
z
M 2253 4666 
L 3047 4666 
L 3047 1625 
L 3713 1625 
L 3713 1100 
L 3047 1100 
L 3047 0 
L 2419 0 
L 2419 1100 
L 313 1100 
L 313 1709 
L 2253 4666 
z
" transform="scale(0.015625)"/>
       </defs>
       <use xlink:href="#DejaVuSans-34"/>
      </g>
     </g>
    </g>
    <g id="xtick_4">
     <g id="line2d_4">
      <g>
       <use xlink:href="#md49a9bae4d" x="250.850441" y="339.84" style="stroke: #000000; stroke-width: 0.8"/>
      </g>
     </g>
     <g id="text_4">
      <!-- 6 -->
      <g transform="translate(247.669191 354.438438)scale(0.1 -0.1)">
       <defs>
        <path id="DejaVuSans-36" d="M 2113 2584 
Q 1688 2584 1439 2293 
Q 1191 2003 1191 1497 
Q 1191 994 1439 701 
Q 1688 409 2113 409 
Q 2538 409 2786 701 
Q 3034 994 3034 1497 
Q 3034 2003 2786 2293 
Q 2538 2584 2113 2584 
z
M 3366 4563 
L 3366 3988 
Q 3128 4100 2886 4159 
Q 2644 4219 2406 4219 
Q 1781 4219 1451 3797 
Q 1122 3375 1075 2522 
Q 1259 2794 1537 2939 
Q 1816 3084 2150 3084 
Q 2853 3084 3261 2657 
Q 3669 2231 3669 1497 
Q 3669 778 3244 343 
Q 2819 -91 2113 -91 
Q 1303 -91 875 529 
Q 447 1150 447 2328 
Q 447 3434 972 4092 
Q 1497 4750 2381 4750 
Q 2619 4750 2861 4703 
Q 3103 4656 3366 4563 
z
" transform="scale(0.015625)"/>
       </defs>
       <use xlink:href="#DejaVuSans-36"/>
      </g>
     </g>
    </g>
    <g id="xtick_5">
     <g id="line2d_5">
      <g>
       <use xlink:href="#md49a9bae4d" x="314.964446" y="339.84" style="stroke: #000000; stroke-width: 0.8"/>
      </g>
     </g>
     <g id="text_5">
      <!-- 8 -->
      <g transform="translate(311.783196 354.438438)scale(0.1 -0.1)">
       <defs>
        <path id="DejaVuSans-38" d="M 2034 2216 
Q 1584 2216 1326 1975 
Q 1069 1734 1069 1313 
Q 1069 891 1326 650 
Q 1584 409 2034 409 
Q 2484 409 2743 651 
Q 3003 894 3003 1313 
Q 3003 1734 2745 1975 
Q 2488 2216 2034 2216 
z
M 1403 2484 
Q 997 2584 770 2862 
Q 544 3141 544 3541 
Q 544 4100 942 4425 
Q 1341 4750 2034 4750 
Q 2731 4750 3128 4425 
Q 3525 4100 3525 3541 
Q 3525 3141 3298 2862 
Q 3072 2584 2669 2484 
Q 3125 2378 3379 2068 
Q 3634 1759 3634 1313 
Q 3634 634 3220 271 
Q 2806 -91 2034 -91 
Q 1263 -91 848 271 
Q 434 634 434 1313 
Q 434 1759 690 2068 
Q 947 2378 1403 2484 
z
M 1172 3481 
Q 1172 3119 1398 2916 
Q 1625 2713 2034 2713 
Q 2441 2713 2670 2916 
Q 2900 3119 2900 3481 
Q 2900 3844 2670 4047 
Q 2441 4250 2034 4250 
Q 1625 4250 1398 4047 
Q 1172 3844 1172 3481 
z
" transform="scale(0.015625)"/>
       </defs>
       <use xlink:href="#DejaVuSans-38"/>
      </g>
     </g>
    </g>
    <g id="xtick_6">
     <g id="line2d_6">
      <g>
       <use xlink:href="#md49a9bae4d" x="379.078452" y="339.84" style="stroke: #000000; stroke-width: 0.8"/>
      </g>
     </g>
     <g id="text_6">
      <!-- 10 -->
      <g transform="translate(372.715952 354.438438)scale(0.1 -0.1)">
       <defs>
        <path id="DejaVuSans-31" d="M 794 531 
L 1825 531 
L 1825 4091 
L 703 3866 
L 703 4441 
L 1819 4666 
L 2450 4666 
L 2450 531 
L 3481 531 
L 3481 0 
L 794 0 
L 794 531 
z
" transform="scale(0.015625)"/>
       </defs>
       <use xlink:href="#DejaVuSans-31"/>
       <use xlink:href="#DejaVuSans-30" x="63.623047"/>
      </g>
     </g>
    </g>
    <g id="text_7">
     <!-- x -->
     <g transform="translate(208.404688 369.63625)scale(0.12 -0.12)">
      <defs>
       <path id="DejaVuSans-78" d="M 3513 3500 
L 2247 1797 
L 3578 0 
L 2900 0 
L 1881 1375 
L 863 0 
L 184 0 
L 1544 1831 
L 300 3500 
L 978 3500 
L 1906 2253 
L 2834 3500 
L 3513 3500 
z
" transform="scale(0.015625)"/>
      </defs>
      <use xlink:href="#DejaVuSans-78"/>
     </g>
    </g>
   </g>
   <g id="matplotlib.axis_2">
    <g id="ytick_1">
     <g id="line2d_7">
      <defs>
       <path id="m9c0e474ffc" d="M 0 0 
L -3.5 0 
" style="stroke: #000000; stroke-width: 0.8"/>
      </defs>
      <g>
       <use xlink:href="#m9c0e474ffc" x="44.555937" y="316.794216" style="stroke: #000000; stroke-width: 0.8"/>
      </g>
     </g>
     <g id="text_8">
      <!-- −4 -->
      <g transform="translate(22.81375 320.593435)scale(0.1 -0.1)">
       <defs>
        <path id="DejaVuSans-2212" d="M 678 2272 
L 4684 2272 
L 4684 1741 
L 678 1741 
L 678 2272 
z
" transform="scale(0.015625)"/>
       </defs>
       <use xlink:href="#DejaVuSans-2212"/>
       <use xlink:href="#DejaVuSans-34" x="83.789062"/>
      </g>
     </g>
    </g>
    <g id="ytick_2">
     <g id="line2d_8">
      <g>
       <use xlink:href="#m9c0e474ffc" x="44.555937" y="279.197673" style="stroke: #000000; stroke-width: 0.8"/>
      </g>
     </g>
     <g id="text_9">
      <!-- −2 -->
      <g transform="translate(22.81375 282.996892)scale(0.1 -0.1)">
       <use xlink:href="#DejaVuSans-2212"/>
       <use xlink:href="#DejaVuSans-32" x="83.789062"/>
      </g>
     </g>
    </g>
    <g id="ytick_3">
     <g id="line2d_9">
      <g>
       <use xlink:href="#m9c0e474ffc" x="44.555937" y="241.60113" style="stroke: #000000; stroke-width: 0.8"/>
      </g>
     </g>
     <g id="text_10">
      <!-- 0 -->
      <g transform="translate(31.193437 245.400349)scale(0.1 -0.1)">
       <use xlink:href="#DejaVuSans-30"/>
      </g>
     </g>
    </g>
    <g id="ytick_4">
     <g id="line2d_10">
      <g>
       <use xlink:href="#m9c0e474ffc" x="44.555937" y="204.004588" style="stroke: #000000; stroke-width: 0.8"/>
      </g>
     </g>
     <g id="text_11">
      <!-- 2 -->
      <g transform="translate(31.193437 207.803806)scale(0.1 -0.1)">
       <use xlink:href="#DejaVuSans-32"/>
      </g>
     </g>
    </g>
    <g id="ytick_5">
     <g id="line2d_11">
      <g>
       <use xlink:href="#m9c0e474ffc" x="44.555937" y="166.408045" style="stroke: #000000; stroke-width: 0.8"/>
      </g>
     </g>
     <g id="text_12">
      <!-- 4 -->
      <g transform="translate(31.193437 170.207263)scale(0.1 -0.1)">
       <use xlink:href="#DejaVuSans-34"/>
      </g>
     </g>
    </g>
    <g id="ytick_6">
     <g id="line2d_12">
      <g>
       <use xlink:href="#m9c0e474ffc" x="44.555937" y="128.811502" style="stroke: #000000; stroke-width: 0.8"/>
      </g>
     </g>
     <g id="text_13">
      <!-- 6 -->
      <g transform="translate(31.193437 132.610721)scale(0.1 -0.1)">
       <use xlink:href="#DejaVuSans-36"/>
      </g>
     </g>
    </g>
    <g id="ytick_7">
     <g id="line2d_13">
      <g>
       <use xlink:href="#m9c0e474ffc" x="44.555937" y="91.214959" style="stroke: #000000; stroke-width: 0.8"/>
      </g>
     </g>
     <g id="text_14">
      <!-- 8 -->
      <g transform="translate(31.193437 95.014178)scale(0.1 -0.1)">
       <use xlink:href="#DejaVuSans-38"/>
      </g>
     </g>
    </g>
    <g id="ytick_8">
     <g id="line2d_14">
      <g>
       <use xlink:href="#m9c0e474ffc" x="44.555937" y="53.618416" style="stroke: #000000; stroke-width: 0.8"/>
      </g>
     </g>
     <g id="text_15">
      <!-- 10 -->
      <g transform="translate(24.830937 57.417635)scale(0.1 -0.1)">
       <use xlink:href="#DejaVuSans-31"/>
       <use xlink:href="#DejaVuSans-30" x="63.623047"/>
      </g>
     </g>
    </g>
    <g id="ytick_9">
     <g id="line2d_15">
      <g>
       <use xlink:href="#m9c0e474ffc" x="44.555937" y="16.021873" style="stroke: #000000; stroke-width: 0.8"/>
      </g>
     </g>
     <g id="text_16">
      <!-- 12 -->
      <g transform="translate(24.830937 19.821092)scale(0.1 -0.1)">
       <use xlink:href="#DejaVuSans-31"/>
       <use xlink:href="#DejaVuSans-32" x="63.623047"/>
      </g>
     </g>
    </g>
    <g id="text_17">
     <!-- y -->
     <g transform="translate(16.318125 177.07125)rotate(-90)scale(0.12 -0.12)">
      <defs>
       <path id="DejaVuSans-79" d="M 2059 -325 
Q 1816 -950 1584 -1140 
Q 1353 -1331 966 -1331 
L 506 -1331 
L 506 -850 
L 844 -850 
Q 1081 -850 1212 -737 
Q 1344 -625 1503 -206 
L 1606 56 
L 191 3500 
L 800 3500 
L 1894 763 
L 2988 3500 
L 3597 3500 
L 2059 -325 
z
" transform="scale(0.015625)"/>
      </defs>
      <use xlink:href="#DejaVuSans-79"/>
     </g>
    </g>
   </g>
   <g id="LineCollection_1">
    <path d="M 305.770704 67.599298 
L 305.770704 39.481857 
" clip-path="url(#pe1f1441ddc)" style="fill: none; stroke: #000000; stroke-width: 1.5"/>
    <path d="M 65.160876 234.499732 
L 65.160876 84.301884 
" clip-path="url(#pe1f1441ddc)" style="fill: none; stroke: #000000; stroke-width: 1.5"/>
    <path d="M 261.637056 116.811354 
L 261.637056 110.114659 
" clip-path="url(#pe1f1441ddc)" style="fill: none; stroke: #000000; stroke-width: 1.5"/>
    <path d="M 298.552505 143.498371 
L 298.552505 67.064206 
" clip-path="url(#pe1f1441ddc)" style="fill: none; stroke: #000000; stroke-width: 1.5"/>
    <path d="M 218.314831 142.389446 
L 218.314831 136.062212 
" clip-path="url(#pe1f1441ddc)" style="fill: none; stroke: #000000; stroke-width: 1.5"/>
    <path d="M 130.571491 214.596514 
L 130.571491 181.764486 
" clip-path="url(#pe1f1441ddc)" style="fill: none; stroke: #000000; stroke-width: 1.5"/>
    <path d="M 122.001442 192.955934 
L 122.001442 161.68423 
" clip-path="url(#pe1f1441ddc)" style="fill: none; stroke: #000000; stroke-width: 1.5"/>
    <path d="M 302.311776 111.268665 
L 302.311776 85.313702 
" clip-path="url(#pe1f1441ddc)" style="fill: none; stroke: #000000; stroke-width: 1.5"/>
    <path d="M 112.720289 277.054688 
L 112.720289 135.271255 
" clip-path="url(#pe1f1441ddc)" style="fill: none; stroke: #000000; stroke-width: 1.5"/>
    <path d="M 86.82752 243.985362 
L 86.82752 206.857528 
" clip-path="url(#pe1f1441ddc)" style="fill: none; stroke: #000000; stroke-width: 1.5"/>
    <path d="M 278.21424 102.063503 
L 278.21424 45.648952 
" clip-path="url(#pe1f1441ddc)" style="fill: none; stroke: #000000; stroke-width: 1.5"/>
    <path d="M 364.137756 68.624049 
L 364.137756 55.687798 
" clip-path="url(#pe1f1441ddc)" style="fill: none; stroke: #000000; stroke-width: 1.5"/>
    <path d="M 59.774119 324.72 
L 59.774119 187.824195 
" clip-path="url(#pe1f1441ddc)" style="fill: none; stroke: #000000; stroke-width: 1.5"/>
    <path d="M 222.701912 163.966645 
L 222.701912 113.96611 
" clip-path="url(#pe1f1441ddc)" style="fill: none; stroke: #000000; stroke-width: 1.5"/>
    <path d="M 319.010348 106.959791 
L 319.010348 26.10546 
" clip-path="url(#pe1f1441ddc)" style="fill: none; stroke: #000000; stroke-width: 1.5"/>
    <path d="M 254.865922 120.880057 
L 254.865922 106.699403 
" clip-path="url(#pe1f1441ddc)" style="fill: none; stroke: #000000; stroke-width: 1.5"/>
    <path d="M 289.881546 138.77338 
L 289.881546 69.273034 
" clip-path="url(#pe1f1441ddc)" style="fill: none; stroke: #000000; stroke-width: 1.5"/>
    <path d="M 152.075143 177.482927 
L 152.075143 150.28773 
" clip-path="url(#pe1f1441ddc)" style="fill: none; stroke: #000000; stroke-width: 1.5"/>
    <path d="M 352.7193 79.146342 
L 352.7193 22.32 
" clip-path="url(#pe1f1441ddc)" style="fill: none; stroke: #000000; stroke-width: 1.5"/>
    <path d="M 287.580003 96.998302 
L 287.580003 95.804834 
" clip-path="url(#pe1f1441ddc)" style="fill: none; stroke: #000000; stroke-width: 1.5"/>
    <path d="M 232.431887 146.614922 
L 232.431887 133.536941 
" clip-path="url(#pe1f1441ddc)" style="fill: none; stroke: #000000; stroke-width: 1.5"/>
    <path d="M 104.08388 214.608539 
L 104.08388 166.468992 
" clip-path="url(#pe1f1441ddc)" style="fill: none; stroke: #000000; stroke-width: 1.5"/>
    <path d="M 178.190282 235.561038 
L 178.190282 163.6433 
" clip-path="url(#pe1f1441ddc)" style="fill: none; stroke: #000000; stroke-width: 1.5"/>
    <path d="M 274.615456 109.919445 
L 274.615456 104.977403 
" clip-path="url(#pe1f1441ddc)" style="fill: none; stroke: #000000; stroke-width: 1.5"/>
    <path d="M 200.146897 141.085332 
L 200.146897 124.721938 
" clip-path="url(#pe1f1441ddc)" style="fill: none; stroke: #000000; stroke-width: 1.5"/>
    <path d="M 197.640302 133.495079 
L 197.640302 87.524451 
" clip-path="url(#pe1f1441ddc)" style="fill: none; stroke: #000000; stroke-width: 1.5"/>
    <path d="M 256.546001 161.693897 
L 256.546001 129.748201 
" clip-path="url(#pe1f1441ddc)" style="fill: none; stroke: #000000; stroke-width: 1.5"/>
    <path d="M 223.005165 187.928363 
L 223.005165 102.56917 
" clip-path="url(#pe1f1441ddc)" style="fill: none; stroke: #000000; stroke-width: 1.5"/>
    <path d="M 267.006267 162.143857 
L 267.006267 64.18374 
" clip-path="url(#pe1f1441ddc)" style="fill: none; stroke: #000000; stroke-width: 1.5"/>
    <path d="M 251.183498 178.614846 
L 251.183498 140.681739 
" clip-path="url(#pe1f1441ddc)" style="fill: none; stroke: #000000; stroke-width: 1.5"/>
   </g>
   <g id="line2d_16">
    <path d="M 305.770704 87.207047 
L 65.160876 228.300987 
L 261.637056 113.08708 
L 298.552505 91.439808 
L 218.314831 138.491293 
L 130.571491 189.944111 
L 122.001442 194.9696 
L 302.311776 89.235367 
L 112.720289 200.412081 
L 86.82752 215.595637 
L 278.21424 103.366196 
L 364.137756 52.980526 
L 59.774119 231.459789 
L 222.701912 135.918703 
L 319.010348 79.443301 
L 254.865922 117.057682 
L 289.881546 96.524471 
L 152.075143 177.334339 
L 352.7193 59.676324 
L 287.580003 97.874099 
L 232.431887 130.213032 
L 104.08388 205.476483 
L 178.190282 162.020385 
L 274.615456 105.476528 
L 200.146897 149.144995 
L 197.640302 150.614866 
L 256.546001 116.072481 
L 223.005165 135.740875 
L 267.006267 109.938567 
L 251.183498 119.217061 
" clip-path="url(#pe1f1441ddc)" style="fill: none; stroke: #0000ff; stroke-width: 1.5; stroke-linecap: square"/>
   </g>
   <g id="line2d_17">
    <path d="M 305.770704 86.251793 
L 65.160876 225.75541 
L 261.637056 111.840122 
L 298.552505 90.436846 
L 218.314831 136.957996 
L 130.571491 187.830869 
L 122.001442 192.799713 
L 302.311776 88.257251 
L 112.720289 198.18085 
L 86.82752 213.193266 
L 278.21424 102.228806 
L 364.137756 52.411052 
L 59.774119 228.878608 
L 222.701912 134.414402 
L 319.010348 78.575555 
L 254.865922 115.765971 
L 289.881546 95.464197 
L 152.075143 175.363227 
L 352.7193 59.03138 
L 287.580003 96.798613 
L 232.431887 128.773041 
L 104.08388 203.18817 
L 178.190282 160.221882 
L 274.615456 104.315352 
L 200.146897 147.491615 
L 197.640302 148.944919 
L 256.546001 114.791874 
L 223.005165 134.238578 
L 267.006267 108.727098 
L 251.183498 117.90101 
" clip-path="url(#pe1f1441ddc)" style="fill: none; stroke: #000000; stroke-width: 1.5; stroke-linecap: square"/>
   </g>
   <g id="line2d_18">
    <defs>
     <path id="m39162a8377" d="M 0 3 
C 0.795609 3 1.55874 2.683901 2.12132 2.12132 
C 2.683901 1.55874 3 0.795609 3 0 
C 3 -0.795609 2.683901 -1.55874 2.12132 -2.12132 
C 1.55874 -2.683901 0.795609 -3 0 -3 
C -0.795609 -3 -1.55874 -2.683901 -2.12132 -2.12132 
C -2.683901 -1.55874 -3 -0.795609 -3 0 
C -3 0.795609 -2.683901 1.55874 -2.12132 2.12132 
C -1.55874 2.683901 -0.795609 3 0 3 
z
" style="stroke: #000000"/>
    </defs>
    <g clip-path="url(#pe1f1441ddc)">
     <use xlink:href="#m39162a8377" x="305.770704" y="53.540577" style="stroke: #000000"/>
     <use xlink:href="#m39162a8377" x="65.160876" y="159.400808" style="stroke: #000000"/>
     <use xlink:href="#m39162a8377" x="261.637056" y="113.463007" style="stroke: #000000"/>
     <use xlink:href="#m39162a8377" x="298.552505" y="105.281288" style="stroke: #000000"/>
     <use xlink:href="#m39162a8377" x="218.314831" y="139.225829" style="stroke: #000000"/>
     <use xlink:href="#m39162a8377" x="130.571491" y="198.1805" style="stroke: #000000"/>
     <use xlink:href="#m39162a8377" x="122.001442" y="177.320082" style="stroke: #000000"/>
     <use xlink:href="#m39162a8377" x="302.311776" y="98.291184" style="stroke: #000000"/>
     <use xlink:href="#m39162a8377" x="112.720289" y="206.162971" style="stroke: #000000"/>
     <use xlink:href="#m39162a8377" x="86.82752" y="225.421445" style="stroke: #000000"/>
     <use xlink:href="#m39162a8377" x="278.21424" y="73.856227" style="stroke: #000000"/>
     <use xlink:href="#m39162a8377" x="364.137756" y="62.155923" style="stroke: #000000"/>
     <use xlink:href="#m39162a8377" x="59.774119" y="256.272098" style="stroke: #000000"/>
     <use xlink:href="#m39162a8377" x="222.701912" y="138.966378" style="stroke: #000000"/>
     <use xlink:href="#m39162a8377" x="319.010348" y="66.532626" style="stroke: #000000"/>
     <use xlink:href="#m39162a8377" x="254.865922" y="113.78973" style="stroke: #000000"/>
     <use xlink:href="#m39162a8377" x="289.881546" y="104.023207" style="stroke: #000000"/>
     <use xlink:href="#m39162a8377" x="152.075143" y="163.885329" style="stroke: #000000"/>
     <use xlink:href="#m39162a8377" x="352.7193" y="50.733171" style="stroke: #000000"/>
     <use xlink:href="#m39162a8377" x="287.580003" y="96.401568" style="stroke: #000000"/>
     <use xlink:href="#m39162a8377" x="232.431887" y="140.075931" style="stroke: #000000"/>
     <use xlink:href="#m39162a8377" x="104.08388" y="190.538766" style="stroke: #000000"/>
     <use xlink:href="#m39162a8377" x="178.190282" y="199.602169" style="stroke: #000000"/>
     <use xlink:href="#m39162a8377" x="274.615456" y="107.448424" style="stroke: #000000"/>
     <use xlink:href="#m39162a8377" x="200.146897" y="132.903635" style="stroke: #000000"/>
     <use xlink:href="#m39162a8377" x="197.640302" y="110.509765" style="stroke: #000000"/>
     <use xlink:href="#m39162a8377" x="256.546001" y="145.721049" style="stroke: #000000"/>
     <use xlink:href="#m39162a8377" x="223.005165" y="145.248767" style="stroke: #000000"/>
     <use xlink:href="#m39162a8377" x="267.006267" y="113.163798" style="stroke: #000000"/>
     <use xlink:href="#m39162a8377" x="251.183498" y="159.648292" style="stroke: #000000"/>
    </g>
   </g>
   <g id="patch_3">
    <path d="M 44.555937 339.84 
L 44.555937 7.2 
" style="fill: none; stroke: #000000; stroke-width: 0.8; stroke-linejoin: miter; stroke-linecap: square"/>
   </g>
   <g id="patch_4">
    <path d="M 379.355938 339.84 
L 379.355938 7.2 
" style="fill: none; stroke: #000000; stroke-width: 0.8; stroke-linejoin: miter; stroke-linecap: square"/>
   </g>
   <g id="patch_5">
    <path d="M 44.555937 339.84 
L 379.355938 339.84 
" style="fill: none; stroke: #000000; stroke-width: 0.8; stroke-linejoin: miter; stroke-linecap: square"/>
   </g>
   <g id="patch_6">
    <path d="M 44.555937 7.2 
L 379.355938 7.2 
" style="fill: none; stroke: #000000; stroke-width: 0.8; stroke-linejoin: miter; stroke-linecap: square"/>
   </g>
   <g id="legend_1">
    <g id="patch_7">
     <path d="M 51.555937 59.234375 
L 170.02625 59.234375 
Q 172.02625 59.234375 172.02625 57.234375 
L 172.02625 14.2 
Q 172.02625 12.2 170.02625 12.2 
L 51.555937 12.2 
Q 49.555937 12.2 49.555937 14.2 
L 49.555937 57.234375 
Q 49.555937 59.234375 51.555937 59.234375 
z
" style="fill: #ffffff; opacity: 0.8; stroke: #cccccc; stroke-linejoin: miter"/>
    </g>
    <g id="line2d_19">
     <path d="M 53.555937 20.298437 
L 63.555937 20.298437 
L 73.555937 20.298437 
" style="fill: none; stroke: #0000ff; stroke-width: 1.5; stroke-linecap: square"/>
    </g>
    <g id="text_18">
     <!-- Simulation Model -->
     <g transform="translate(81.555937 23.798437)scale(0.1 -0.1)">
      <defs>
       <path id="DejaVuSans-53" d="M 3425 4513 
L 3425 3897 
Q 3066 4069 2747 4153 
Q 2428 4238 2131 4238 
Q 1616 4238 1336 4038 
Q 1056 3838 1056 3469 
Q 1056 3159 1242 3001 
Q 1428 2844 1947 2747 
L 2328 2669 
Q 3034 2534 3370 2195 
Q 3706 1856 3706 1288 
Q 3706 609 3251 259 
Q 2797 -91 1919 -91 
Q 1588 -91 1214 -16 
Q 841 59 441 206 
L 441 856 
Q 825 641 1194 531 
Q 1563 422 1919 422 
Q 2459 422 2753 634 
Q 3047 847 3047 1241 
Q 3047 1584 2836 1778 
Q 2625 1972 2144 2069 
L 1759 2144 
Q 1053 2284 737 2584 
Q 422 2884 422 3419 
Q 422 4038 858 4394 
Q 1294 4750 2059 4750 
Q 2388 4750 2728 4690 
Q 3069 4631 3425 4513 
z
" transform="scale(0.015625)"/>
       <path id="DejaVuSans-69" d="M 603 3500 
L 1178 3500 
L 1178 0 
L 603 0 
L 603 3500 
z
M 603 4863 
L 1178 4863 
L 1178 4134 
L 603 4134 
L 603 4863 
z
" transform="scale(0.015625)"/>
       <path id="DejaVuSans-6d" d="M 3328 2828 
Q 3544 3216 3844 3400 
Q 4144 3584 4550 3584 
Q 5097 3584 5394 3201 
Q 5691 2819 5691 2113 
L 5691 0 
L 5113 0 
L 5113 2094 
Q 5113 2597 4934 2840 
Q 4756 3084 4391 3084 
Q 3944 3084 3684 2787 
Q 3425 2491 3425 1978 
L 3425 0 
L 2847 0 
L 2847 2094 
Q 2847 2600 2669 2842 
Q 2491 3084 2119 3084 
Q 1678 3084 1418 2786 
Q 1159 2488 1159 1978 
L 1159 0 
L 581 0 
L 581 3500 
L 1159 3500 
L 1159 2956 
Q 1356 3278 1631 3431 
Q 1906 3584 2284 3584 
Q 2666 3584 2933 3390 
Q 3200 3197 3328 2828 
z
" transform="scale(0.015625)"/>
       <path id="DejaVuSans-75" d="M 544 1381 
L 544 3500 
L 1119 3500 
L 1119 1403 
Q 1119 906 1312 657 
Q 1506 409 1894 409 
Q 2359 409 2629 706 
Q 2900 1003 2900 1516 
L 2900 3500 
L 3475 3500 
L 3475 0 
L 2900 0 
L 2900 538 
Q 2691 219 2414 64 
Q 2138 -91 1772 -91 
Q 1169 -91 856 284 
Q 544 659 544 1381 
z
M 1991 3584 
L 1991 3584 
z
" transform="scale(0.015625)"/>
       <path id="DejaVuSans-6c" d="M 603 4863 
L 1178 4863 
L 1178 0 
L 603 0 
L 603 4863 
z
" transform="scale(0.015625)"/>
       <path id="DejaVuSans-61" d="M 2194 1759 
Q 1497 1759 1228 1600 
Q 959 1441 959 1056 
Q 959 750 1161 570 
Q 1363 391 1709 391 
Q 2188 391 2477 730 
Q 2766 1069 2766 1631 
L 2766 1759 
L 2194 1759 
z
M 3341 1997 
L 3341 0 
L 2766 0 
L 2766 531 
Q 2569 213 2275 61 
Q 1981 -91 1556 -91 
Q 1019 -91 701 211 
Q 384 513 384 1019 
Q 384 1609 779 1909 
Q 1175 2209 1959 2209 
L 2766 2209 
L 2766 2266 
Q 2766 2663 2505 2880 
Q 2244 3097 1772 3097 
Q 1472 3097 1187 3025 
Q 903 2953 641 2809 
L 641 3341 
Q 956 3463 1253 3523 
Q 1550 3584 1831 3584 
Q 2591 3584 2966 3190 
Q 3341 2797 3341 1997 
z
" transform="scale(0.015625)"/>
       <path id="DejaVuSans-74" d="M 1172 4494 
L 1172 3500 
L 2356 3500 
L 2356 3053 
L 1172 3053 
L 1172 1153 
Q 1172 725 1289 603 
Q 1406 481 1766 481 
L 2356 481 
L 2356 0 
L 1766 0 
Q 1100 0 847 248 
Q 594 497 594 1153 
L 594 3053 
L 172 3053 
L 172 3500 
L 594 3500 
L 594 4494 
L 1172 4494 
z
" transform="scale(0.015625)"/>
       <path id="DejaVuSans-6f" d="M 1959 3097 
Q 1497 3097 1228 2736 
Q 959 2375 959 1747 
Q 959 1119 1226 758 
Q 1494 397 1959 397 
Q 2419 397 2687 759 
Q 2956 1122 2956 1747 
Q 2956 2369 2687 2733 
Q 2419 3097 1959 3097 
z
M 1959 3584 
Q 2709 3584 3137 3096 
Q 3566 2609 3566 1747 
Q 3566 888 3137 398 
Q 2709 -91 1959 -91 
Q 1206 -91 779 398 
Q 353 888 353 1747 
Q 353 2609 779 3096 
Q 1206 3584 1959 3584 
z
" transform="scale(0.015625)"/>
       <path id="DejaVuSans-6e" d="M 3513 2113 
L 3513 0 
L 2938 0 
L 2938 2094 
Q 2938 2591 2744 2837 
Q 2550 3084 2163 3084 
Q 1697 3084 1428 2787 
Q 1159 2491 1159 1978 
L 1159 0 
L 581 0 
L 581 3500 
L 1159 3500 
L 1159 2956 
Q 1366 3272 1645 3428 
Q 1925 3584 2291 3584 
Q 2894 3584 3203 3211 
Q 3513 2838 3513 2113 
z
" transform="scale(0.015625)"/>
       <path id="DejaVuSans-20" transform="scale(0.015625)"/>
       <path id="DejaVuSans-4d" d="M 628 4666 
L 1569 4666 
L 2759 1491 
L 3956 4666 
L 4897 4666 
L 4897 0 
L 4281 0 
L 4281 4097 
L 3078 897 
L 2444 897 
L 1241 4097 
L 1241 0 
L 628 0 
L 628 4666 
z
" transform="scale(0.015625)"/>
       <path id="DejaVuSans-64" d="M 2906 2969 
L 2906 4863 
L 3481 4863 
L 3481 0 
L 2906 0 
L 2906 525 
Q 2725 213 2448 61 
Q 2172 -91 1784 -91 
Q 1150 -91 751 415 
Q 353 922 353 1747 
Q 353 2572 751 3078 
Q 1150 3584 1784 3584 
Q 2172 3584 2448 3432 
Q 2725 3281 2906 2969 
z
M 947 1747 
Q 947 1113 1208 752 
Q 1469 391 1925 391 
Q 2381 391 2643 752 
Q 2906 1113 2906 1747 
Q 2906 2381 2643 2742 
Q 2381 3103 1925 3103 
Q 1469 3103 1208 2742 
Q 947 2381 947 1747 
z
" transform="scale(0.015625)"/>
       <path id="DejaVuSans-65" d="M 3597 1894 
L 3597 1613 
L 953 1613 
Q 991 1019 1311 708 
Q 1631 397 2203 397 
Q 2534 397 2845 478 
Q 3156 559 3463 722 
L 3463 178 
Q 3153 47 2828 -22 
Q 2503 -91 2169 -91 
Q 1331 -91 842 396 
Q 353 884 353 1716 
Q 353 2575 817 3079 
Q 1281 3584 2069 3584 
Q 2775 3584 3186 3129 
Q 3597 2675 3597 1894 
z
M 3022 2063 
Q 3016 2534 2758 2815 
Q 2500 3097 2075 3097 
Q 1594 3097 1305 2825 
Q 1016 2553 972 2059 
L 3022 2063 
z
" transform="scale(0.015625)"/>
      </defs>
      <use xlink:href="#DejaVuSans-53"/>
      <use xlink:href="#DejaVuSans-69" x="63.476562"/>
      <use xlink:href="#DejaVuSans-6d" x="91.259766"/>
      <use xlink:href="#DejaVuSans-75" x="188.671875"/>
      <use xlink:href="#DejaVuSans-6c" x="252.050781"/>
      <use xlink:href="#DejaVuSans-61" x="279.833984"/>
      <use xlink:href="#DejaVuSans-74" x="341.113281"/>
      <use xlink:href="#DejaVuSans-69" x="380.322266"/>
      <use xlink:href="#DejaVuSans-6f" x="408.105469"/>
      <use xlink:href="#DejaVuSans-6e" x="469.287109"/>
      <use xlink:href="#DejaVuSans-20" x="532.666016"/>
      <use xlink:href="#DejaVuSans-4d" x="564.453125"/>
      <use xlink:href="#DejaVuSans-6f" x="650.732422"/>
      <use xlink:href="#DejaVuSans-64" x="711.914062"/>
      <use xlink:href="#DejaVuSans-65" x="775.390625"/>
      <use xlink:href="#DejaVuSans-6c" x="836.914062"/>
     </g>
    </g>
    <g id="line2d_20">
     <path d="M 53.555937 34.976562 
L 63.555937 34.976562 
L 73.555937 34.976562 
" style="fill: none; stroke: #000000; stroke-width: 1.5; stroke-linecap: square"/>
    </g>
    <g id="text_19">
     <!-- Fitted Model -->
     <g transform="translate(81.555937 38.476562)scale(0.1 -0.1)">
      <defs>
       <path id="DejaVuSans-46" d="M 628 4666 
L 3309 4666 
L 3309 4134 
L 1259 4134 
L 1259 2759 
L 3109 2759 
L 3109 2228 
L 1259 2228 
L 1259 0 
L 628 0 
L 628 4666 
z
" transform="scale(0.015625)"/>
      </defs>
      <use xlink:href="#DejaVuSans-46"/>
      <use xlink:href="#DejaVuSans-69" x="50.269531"/>
      <use xlink:href="#DejaVuSans-74" x="78.052734"/>
      <use xlink:href="#DejaVuSans-74" x="117.261719"/>
      <use xlink:href="#DejaVuSans-65" x="156.470703"/>
      <use xlink:href="#DejaVuSans-64" x="217.994141"/>
      <use xlink:href="#DejaVuSans-20" x="281.470703"/>
      <use xlink:href="#DejaVuSans-4d" x="313.257812"/>
      <use xlink:href="#DejaVuSans-6f" x="399.537109"/>
      <use xlink:href="#DejaVuSans-64" x="460.71875"/>
      <use xlink:href="#DejaVuSans-65" x="524.195312"/>
      <use xlink:href="#DejaVuSans-6c" x="585.71875"/>
     </g>
    </g>
    <g id="LineCollection_2">
     <path d="M 63.555937 54.654687 
L 63.555937 44.654687 
" style="fill: none; stroke: #000000; stroke-width: 1.5"/>
    </g>
    <g id="line2d_21"/>
    <g id="line2d_22">
     <g>
      <use xlink:href="#m39162a8377" x="63.555937" y="49.654687" style="stroke: #000000"/>
     </g>
    </g>
    <g id="text_20">
     <!-- Data -->
     <g transform="translate(81.555937 53.154687)scale(0.1 -0.1)">
      <defs>
       <path id="DejaVuSans-44" d="M 1259 4147 
L 1259 519 
L 2022 519 
Q 2988 519 3436 956 
Q 3884 1394 3884 2338 
Q 3884 3275 3436 3711 
Q 2988 4147 2022 4147 
L 1259 4147 
z
M 628 4666 
L 1925 4666 
Q 3281 4666 3915 4102 
Q 4550 3538 4550 2338 
Q 4550 1131 3912 565 
Q 3275 0 1925 0 
L 628 0 
L 628 4666 
z
" transform="scale(0.015625)"/>
      </defs>
      <use xlink:href="#DejaVuSans-44"/>
      <use xlink:href="#DejaVuSans-61" x="77.001953"/>
      <use xlink:href="#DejaVuSans-74" x="138.28125"/>
      <use xlink:href="#DejaVuSans-61" x="177.490234"/>
     </g>
    </g>
   </g>
  </g>
 </g>
 <defs>
  <clipPath id="pe1f1441ddc">
   <rect x="44.555937" y="7.2" width="334.8" height="332.64"/>
  </clipPath>
 </defs>
</svg>
