<?xml version="1.0" encoding="utf-8" standalone="no"?>
<!DOCTYPE svg PUBLIC "-//W3C//DTD SVG 1.1//EN"
  "http://www.w3.org/Graphics/SVG/1.1/DTD/svg11.dtd">
<svg xmlns:xlink="http://www.w3.org/1999/xlink" width="372.103125pt" height="363.718125pt" viewBox="0 0 372.103125 363.718125" xmlns="http://www.w3.org/2000/svg" version="1.1">
 <metadata>
  <rdf:RDF xmlns:dc="http://purl.org/dc/elements/1.1/" xmlns:cc="http://creativecommons.org/ns#" xmlns:rdf="http://www.w3.org/1999/02/22-rdf-syntax-ns#">
   <cc:Work>
    <dc:type rdf:resource="http://purl.org/dc/dcmitype/StillImage"/>
    <dc:date>2022-05-09T11:02:54.257909</dc:date>
    <dc:format>image/svg+xml</dc:format>
    <dc:creator>
     <cc:Agent>
      <dc:title>Matplotlib v3.5.1, https://matplotlib.org/</dc:title>
     </cc:Agent>
    </dc:creator>
   </cc:Work>
  </rdf:RDF>
 </metadata>
 <defs>
  <style type="text/css">*{stroke-linejoin: round; stroke-linecap: butt}</style>
 </defs>
 <g id="figure_1">
  <g id="patch_1">
   <path d="M 0 363.718125 
L 372.103125 363.718125 
L 372.103125 0 
L 0 0 
L 0 363.718125 
z
" style="fill: none"/>
  </g>
  <g id="axes_1">
   <g id="patch_2">
    <path d="M 30.103125 339.84 
L 364.903125 339.84 
L 364.903125 7.2 
L 30.103125 7.2 
z
" style="fill: #ffffff"/>
   </g>
   <g id="matplotlib.axis_1">
    <g id="xtick_1">
     <g id="line2d_1">
      <defs>
       <path id="mf5d550158e" d="M 0 0 
L 0 3.5 
" style="stroke: #000000; stroke-width: 0.8"/>
      </defs>
      <g>
       <use xlink:href="#mf5d550158e" x="75.75767" y="339.84" style="stroke: #000000; stroke-width: 0.8"/>
      </g>
     </g>
     <g id="text_1">
      <!-- −4 -->
      <g transform="translate(68.386577 354.438438)scale(0.1 -0.1)">
       <defs>
        <path id="DejaVuSans-2212" d="M 678 2272 
L 4684 2272 
L 4684 1741 
L 678 1741 
L 678 2272 
z
" transform="scale(0.015625)"/>
        <path id="DejaVuSans-34" d="M 2419 4116 
L 825 1625 
L 2419 1625 
L 2419 4116 
z
M 2253 4666 
L 3047 4666 
L 3047 1625 
L 3713 1625 
L 3713 1100 
L 3047 1100 
L 3047 0 
L 2419 0 
L 2419 1100 
L 313 1100 
L 313 1709 
L 2253 4666 
z
" transform="scale(0.015625)"/>
       </defs>
       <use xlink:href="#DejaVuSans-2212"/>
       <use xlink:href="#DejaVuSans-34" x="83.789062"/>
      </g>
     </g>
    </g>
    <g id="xtick_2">
     <g id="line2d_2">
      <g>
       <use xlink:href="#mf5d550158e" x="136.630398" y="339.84" style="stroke: #000000; stroke-width: 0.8"/>
      </g>
     </g>
     <g id="text_2">
      <!-- −2 -->
      <g transform="translate(129.259304 354.438438)scale(0.1 -0.1)">
       <defs>
        <path id="DejaVuSans-32" d="M 1228 531 
L 3431 531 
L 3431 0 
L 469 0 
L 469 531 
Q 828 903 1448 1529 
Q 2069 2156 2228 2338 
Q 2531 2678 2651 2914 
Q 2772 3150 2772 3378 
Q 2772 3750 2511 3984 
Q 2250 4219 1831 4219 
Q 1534 4219 1204 4116 
Q 875 4013 500 3803 
L 500 4441 
Q 881 4594 1212 4672 
Q 1544 4750 1819 4750 
Q 2544 4750 2975 4387 
Q 3406 4025 3406 3419 
Q 3406 3131 3298 2873 
Q 3191 2616 2906 2266 
Q 2828 2175 2409 1742 
Q 1991 1309 1228 531 
z
" transform="scale(0.015625)"/>
       </defs>
       <use xlink:href="#DejaVuSans-2212"/>
       <use xlink:href="#DejaVuSans-32" x="83.789062"/>
      </g>
     </g>
    </g>
    <g id="xtick_3">
     <g id="line2d_3">
      <g>
       <use xlink:href="#mf5d550158e" x="197.503125" y="339.84" style="stroke: #000000; stroke-width: 0.8"/>
      </g>
     </g>
     <g id="text_3">
      <!-- 0 -->
      <g transform="translate(194.321875 354.438438)scale(0.1 -0.1)">
       <defs>
        <path id="DejaVuSans-30" d="M 2034 4250 
Q 1547 4250 1301 3770 
Q 1056 3291 1056 2328 
Q 1056 1369 1301 889 
Q 1547 409 2034 409 
Q 2525 409 2770 889 
Q 3016 1369 3016 2328 
Q 3016 3291 2770 3770 
Q 2525 4250 2034 4250 
z
M 2034 4750 
Q 2819 4750 3233 4129 
Q 3647 3509 3647 2328 
Q 3647 1150 3233 529 
Q 2819 -91 2034 -91 
Q 1250 -91 836 529 
Q 422 1150 422 2328 
Q 422 3509 836 4129 
Q 1250 4750 2034 4750 
z
" transform="scale(0.015625)"/>
       </defs>
       <use xlink:href="#DejaVuSans-30"/>
      </g>
     </g>
    </g>
    <g id="xtick_4">
     <g id="line2d_4">
      <g>
       <use xlink:href="#mf5d550158e" x="258.375852" y="339.84" style="stroke: #000000; stroke-width: 0.8"/>
      </g>
     </g>
     <g id="text_4">
      <!-- 2 -->
      <g transform="translate(255.194602 354.438438)scale(0.1 -0.1)">
       <use xlink:href="#DejaVuSans-32"/>
      </g>
     </g>
    </g>
    <g id="xtick_5">
     <g id="line2d_5">
      <g>
       <use xlink:href="#mf5d550158e" x="319.24858" y="339.84" style="stroke: #000000; stroke-width: 0.8"/>
      </g>
     </g>
     <g id="text_5">
      <!-- 4 -->
      <g transform="translate(316.06733 354.438438)scale(0.1 -0.1)">
       <use xlink:href="#DejaVuSans-34"/>
      </g>
     </g>
    </g>
   </g>
   <g id="matplotlib.axis_2">
    <g id="ytick_1">
     <g id="line2d_6">
      <defs>
       <path id="m8e42838759" d="M 0 0 
L -3.5 0 
" style="stroke: #000000; stroke-width: 0.8"/>
      </defs>
      <g>
       <use xlink:href="#m8e42838759" x="30.103125" y="292.233824" style="stroke: #000000; stroke-width: 0.8"/>
      </g>
     </g>
     <g id="text_6">
      <!-- 0.0 -->
      <g transform="translate(7.2 296.033043)scale(0.1 -0.1)">
       <defs>
        <path id="DejaVuSans-2e" d="M 684 794 
L 1344 794 
L 1344 0 
L 684 0 
L 684 794 
z
" transform="scale(0.015625)"/>
       </defs>
       <use xlink:href="#DejaVuSans-30"/>
       <use xlink:href="#DejaVuSans-2e" x="63.623047"/>
       <use xlink:href="#DejaVuSans-30" x="95.410156"/>
      </g>
     </g>
    </g>
    <g id="ytick_2">
     <g id="line2d_7">
      <g>
       <use xlink:href="#m8e42838759" x="30.103125" y="228.610036" style="stroke: #000000; stroke-width: 0.8"/>
      </g>
     </g>
     <g id="text_7">
      <!-- 0.5 -->
      <g transform="translate(7.2 232.409255)scale(0.1 -0.1)">
       <defs>
        <path id="DejaVuSans-35" d="M 691 4666 
L 3169 4666 
L 3169 4134 
L 1269 4134 
L 1269 2991 
Q 1406 3038 1543 3061 
Q 1681 3084 1819 3084 
Q 2600 3084 3056 2656 
Q 3513 2228 3513 1497 
Q 3513 744 3044 326 
Q 2575 -91 1722 -91 
Q 1428 -91 1123 -41 
Q 819 9 494 109 
L 494 744 
Q 775 591 1075 516 
Q 1375 441 1709 441 
Q 2250 441 2565 725 
Q 2881 1009 2881 1497 
Q 2881 1984 2565 2268 
Q 2250 2553 1709 2553 
Q 1456 2553 1204 2497 
Q 953 2441 691 2322 
L 691 4666 
z
" transform="scale(0.015625)"/>
       </defs>
       <use xlink:href="#DejaVuSans-30"/>
       <use xlink:href="#DejaVuSans-2e" x="63.623047"/>
       <use xlink:href="#DejaVuSans-35" x="95.410156"/>
      </g>
     </g>
    </g>
    <g id="ytick_3">
     <g id="line2d_8">
      <g>
       <use xlink:href="#m8e42838759" x="30.103125" y="164.986248" style="stroke: #000000; stroke-width: 0.8"/>
      </g>
     </g>
     <g id="text_8">
      <!-- 1.0 -->
      <g transform="translate(7.2 168.785467)scale(0.1 -0.1)">
       <defs>
        <path id="DejaVuSans-31" d="M 794 531 
L 1825 531 
L 1825 4091 
L 703 3866 
L 703 4441 
L 1819 4666 
L 2450 4666 
L 2450 531 
L 3481 531 
L 3481 0 
L 794 0 
L 794 531 
z
" transform="scale(0.015625)"/>
       </defs>
       <use xlink:href="#DejaVuSans-31"/>
       <use xlink:href="#DejaVuSans-2e" x="63.623047"/>
       <use xlink:href="#DejaVuSans-30" x="95.410156"/>
      </g>
     </g>
    </g>
    <g id="ytick_4">
     <g id="line2d_9">
      <g>
       <use xlink:href="#m8e42838759" x="30.103125" y="101.36246" style="stroke: #000000; stroke-width: 0.8"/>
      </g>
     </g>
     <g id="text_9">
      <!-- 1.5 -->
      <g transform="translate(7.2 105.161679)scale(0.1 -0.1)">
       <use xlink:href="#DejaVuSans-31"/>
       <use xlink:href="#DejaVuSans-2e" x="63.623047"/>
       <use xlink:href="#DejaVuSans-35" x="95.410156"/>
      </g>
     </g>
    </g>
    <g id="ytick_5">
     <g id="line2d_10">
      <g>
       <use xlink:href="#m8e42838759" x="30.103125" y="37.738672" style="stroke: #000000; stroke-width: 0.8"/>
      </g>
     </g>
     <g id="text_10">
      <!-- 2.0 -->
      <g transform="translate(7.2 41.53789)scale(0.1 -0.1)">
       <use xlink:href="#DejaVuSans-32"/>
       <use xlink:href="#DejaVuSans-2e" x="63.623047"/>
       <use xlink:href="#DejaVuSans-30" x="95.410156"/>
      </g>
     </g>
    </g>
   </g>
   <g id="line2d_11">
    <defs>
     <path id="m46c0ae2e3d" d="M 0 3 
C 0.795609 3 1.55874 2.683901 2.12132 2.12132 
C 2.683901 1.55874 3 0.795609 3 0 
C 3 -0.795609 2.683901 -1.55874 2.12132 -2.12132 
C 1.55874 -2.683901 0.795609 -3 0 -3 
C -0.795609 -3 -1.55874 -2.683901 -2.12132 -2.12132 
C -2.683901 -1.55874 -3 -0.795609 -3 0 
C -3 0.795609 -2.683901 1.55874 -2.12132 2.12132 
C -1.55874 2.683901 -0.795609 3 0 3 
z
" style="stroke: #000000"/>
    </defs>
    <g clip-path="url(#p4d6eede033)">
     <use xlink:href="#m46c0ae2e3d" x="45.321307" y="269.786686" style="stroke: #000000"/>
     <use xlink:href="#m46c0ae2e3d" x="46.850772" y="287.141921" style="stroke: #000000"/>
     <use xlink:href="#m46c0ae2e3d" x="48.380238" y="279.779621" style="stroke: #000000"/>
     <use xlink:href="#m46c0ae2e3d" x="49.909703" y="263.719002" style="stroke: #000000"/>
     <use xlink:href="#m46c0ae2e3d" x="51.439169" y="268.469602" style="stroke: #000000"/>
     <use xlink:href="#m46c0ae2e3d" x="52.968634" y="304.669449" style="stroke: #000000"/>
     <use xlink:href="#m46c0ae2e3d" x="54.4981" y="280.144179" style="stroke: #000000"/>
     <use xlink:href="#m46c0ae2e3d" x="56.027565" y="294.159808" style="stroke: #000000"/>
     <use xlink:href="#m46c0ae2e3d" x="57.557031" y="293.547259" style="stroke: #000000"/>
     <use xlink:href="#m46c0ae2e3d" x="59.086496" y="287.009058" style="stroke: #000000"/>
     <use xlink:href="#m46c0ae2e3d" x="60.615962" y="290.400905" style="stroke: #000000"/>
     <use xlink:href="#m46c0ae2e3d" x="62.145427" y="273.728546" style="stroke: #000000"/>
     <use xlink:href="#m46c0ae2e3d" x="63.674893" y="282.549804" style="stroke: #000000"/>
     <use xlink:href="#m46c0ae2e3d" x="65.204358" y="290.685539" style="stroke: #000000"/>
     <use xlink:href="#m46c0ae2e3d" x="66.733824" y="286.585772" style="stroke: #000000"/>
     <use xlink:href="#m46c0ae2e3d" x="68.263289" y="287.987899" style="stroke: #000000"/>
     <use xlink:href="#m46c0ae2e3d" x="69.792755" y="273.22203" style="stroke: #000000"/>
     <use xlink:href="#m46c0ae2e3d" x="71.32222" y="294.844413" style="stroke: #000000"/>
     <use xlink:href="#m46c0ae2e3d" x="72.851686" y="288.250113" style="stroke: #000000"/>
     <use xlink:href="#m46c0ae2e3d" x="74.381151" y="303.101985" style="stroke: #000000"/>
     <use xlink:href="#m46c0ae2e3d" x="75.910617" y="324.72" style="stroke: #000000"/>
     <use xlink:href="#m46c0ae2e3d" x="77.440083" y="283.916685" style="stroke: #000000"/>
     <use xlink:href="#m46c0ae2e3d" x="78.969548" y="281.234081" style="stroke: #000000"/>
     <use xlink:href="#m46c0ae2e3d" x="80.499014" y="301.677692" style="stroke: #000000"/>
     <use xlink:href="#m46c0ae2e3d" x="82.028479" y="263.351744" style="stroke: #000000"/>
     <use xlink:href="#m46c0ae2e3d" x="83.557945" y="310.740271" style="stroke: #000000"/>
     <use xlink:href="#m46c0ae2e3d" x="85.08741" y="291.651552" style="stroke: #000000"/>
     <use xlink:href="#m46c0ae2e3d" x="86.616876" y="294.615686" style="stroke: #000000"/>
     <use xlink:href="#m46c0ae2e3d" x="88.146341" y="272.72957" style="stroke: #000000"/>
     <use xlink:href="#m46c0ae2e3d" x="89.675807" y="273.536577" style="stroke: #000000"/>
     <use xlink:href="#m46c0ae2e3d" x="91.205272" y="290.262138" style="stroke: #000000"/>
     <use xlink:href="#m46c0ae2e3d" x="92.734738" y="287.421774" style="stroke: #000000"/>
     <use xlink:href="#m46c0ae2e3d" x="94.264203" y="303.530652" style="stroke: #000000"/>
     <use xlink:href="#m46c0ae2e3d" x="95.793669" y="317.438939" style="stroke: #000000"/>
     <use xlink:href="#m46c0ae2e3d" x="97.323134" y="296.660869" style="stroke: #000000"/>
     <use xlink:href="#m46c0ae2e3d" x="98.8526" y="290.244253" style="stroke: #000000"/>
     <use xlink:href="#m46c0ae2e3d" x="100.382065" y="276.578584" style="stroke: #000000"/>
     <use xlink:href="#m46c0ae2e3d" x="101.911531" y="276.933716" style="stroke: #000000"/>
     <use xlink:href="#m46c0ae2e3d" x="103.440996" y="297.162314" style="stroke: #000000"/>
     <use xlink:href="#m46c0ae2e3d" x="104.970462" y="296.080359" style="stroke: #000000"/>
     <use xlink:href="#m46c0ae2e3d" x="106.499927" y="305.576156" style="stroke: #000000"/>
     <use xlink:href="#m46c0ae2e3d" x="108.029393" y="310.302886" style="stroke: #000000"/>
     <use xlink:href="#m46c0ae2e3d" x="109.558858" y="313.945285" style="stroke: #000000"/>
     <use xlink:href="#m46c0ae2e3d" x="111.088324" y="267.410148" style="stroke: #000000"/>
     <use xlink:href="#m46c0ae2e3d" x="112.617789" y="298.718339" style="stroke: #000000"/>
     <use xlink:href="#m46c0ae2e3d" x="114.147255" y="297.807327" style="stroke: #000000"/>
     <use xlink:href="#m46c0ae2e3d" x="115.67672" y="308.174189" style="stroke: #000000"/>
     <use xlink:href="#m46c0ae2e3d" x="117.206186" y="282.338933" style="stroke: #000000"/>
     <use xlink:href="#m46c0ae2e3d" x="118.735651" y="312.768266" style="stroke: #000000"/>
     <use xlink:href="#m46c0ae2e3d" x="120.265117" y="294.938153" style="stroke: #000000"/>
     <use xlink:href="#m46c0ae2e3d" x="121.794582" y="303.624613" style="stroke: #000000"/>
     <use xlink:href="#m46c0ae2e3d" x="123.324048" y="287.305155" style="stroke: #000000"/>
     <use xlink:href="#m46c0ae2e3d" x="124.853513" y="298.725738" style="stroke: #000000"/>
     <use xlink:href="#m46c0ae2e3d" x="126.382979" y="307.245117" style="stroke: #000000"/>
     <use xlink:href="#m46c0ae2e3d" x="127.912444" y="292.574051" style="stroke: #000000"/>
     <use xlink:href="#m46c0ae2e3d" x="129.44191" y="286.754694" style="stroke: #000000"/>
     <use xlink:href="#m46c0ae2e3d" x="130.971375" y="291.34211" style="stroke: #000000"/>
     <use xlink:href="#m46c0ae2e3d" x="132.500841" y="288.313134" style="stroke: #000000"/>
     <use xlink:href="#m46c0ae2e3d" x="134.030306" y="300.191607" style="stroke: #000000"/>
     <use xlink:href="#m46c0ae2e3d" x="135.559772" y="296.669968" style="stroke: #000000"/>
     <use xlink:href="#m46c0ae2e3d" x="137.089237" y="300.509162" style="stroke: #000000"/>
     <use xlink:href="#m46c0ae2e3d" x="138.618703" y="296.371913" style="stroke: #000000"/>
     <use xlink:href="#m46c0ae2e3d" x="140.148168" y="301.909732" style="stroke: #000000"/>
     <use xlink:href="#m46c0ae2e3d" x="141.677634" y="313.182473" style="stroke: #000000"/>
     <use xlink:href="#m46c0ae2e3d" x="143.207099" y="288.452784" style="stroke: #000000"/>
     <use xlink:href="#m46c0ae2e3d" x="144.736565" y="295.098091" style="stroke: #000000"/>
     <use xlink:href="#m46c0ae2e3d" x="146.26603" y="309.706823" style="stroke: #000000"/>
     <use xlink:href="#m46c0ae2e3d" x="147.795496" y="281.65607" style="stroke: #000000"/>
     <use xlink:href="#m46c0ae2e3d" x="149.324961" y="297.15712" style="stroke: #000000"/>
     <use xlink:href="#m46c0ae2e3d" x="150.854427" y="282.362146" style="stroke: #000000"/>
     <use xlink:href="#m46c0ae2e3d" x="152.383892" y="270.339406" style="stroke: #000000"/>
     <use xlink:href="#m46c0ae2e3d" x="153.913358" y="273.574154" style="stroke: #000000"/>
     <use xlink:href="#m46c0ae2e3d" x="155.442823" y="255.132843" style="stroke: #000000"/>
     <use xlink:href="#m46c0ae2e3d" x="156.972289" y="278.391407" style="stroke: #000000"/>
     <use xlink:href="#m46c0ae2e3d" x="158.501755" y="249.065247" style="stroke: #000000"/>
     <use xlink:href="#m46c0ae2e3d" x="160.03122" y="252.724183" style="stroke: #000000"/>
     <use xlink:href="#m46c0ae2e3d" x="161.560686" y="243.144521" style="stroke: #000000"/>
     <use xlink:href="#m46c0ae2e3d" x="163.090151" y="225.691364" style="stroke: #000000"/>
     <use xlink:href="#m46c0ae2e3d" x="164.619617" y="206.828093" style="stroke: #000000"/>
     <use xlink:href="#m46c0ae2e3d" x="166.149082" y="185.135174" style="stroke: #000000"/>
     <use xlink:href="#m46c0ae2e3d" x="167.678548" y="182.396056" style="stroke: #000000"/>
     <use xlink:href="#m46c0ae2e3d" x="169.208013" y="136.961834" style="stroke: #000000"/>
     <use xlink:href="#m46c0ae2e3d" x="170.737479" y="122.998178" style="stroke: #000000"/>
     <use xlink:href="#m46c0ae2e3d" x="172.266944" y="129.214782" style="stroke: #000000"/>
     <use xlink:href="#m46c0ae2e3d" x="173.79641" y="72.377762" style="stroke: #000000"/>
     <use xlink:href="#m46c0ae2e3d" x="175.325875" y="50.434154" style="stroke: #000000"/>
     <use xlink:href="#m46c0ae2e3d" x="176.855341" y="45.069117" style="stroke: #000000"/>
     <use xlink:href="#m46c0ae2e3d" x="178.384806" y="50.745006" style="stroke: #000000"/>
     <use xlink:href="#m46c0ae2e3d" x="179.914272" y="53.849326" style="stroke: #000000"/>
     <use xlink:href="#m46c0ae2e3d" x="181.443737" y="22.32" style="stroke: #000000"/>
     <use xlink:href="#m46c0ae2e3d" x="182.973203" y="40.318088" style="stroke: #000000"/>
     <use xlink:href="#m46c0ae2e3d" x="184.502668" y="23.02583" style="stroke: #000000"/>
     <use xlink:href="#m46c0ae2e3d" x="186.032134" y="43.087822" style="stroke: #000000"/>
     <use xlink:href="#m46c0ae2e3d" x="187.561599" y="43.878751" style="stroke: #000000"/>
     <use xlink:href="#m46c0ae2e3d" x="189.091065" y="65.252852" style="stroke: #000000"/>
     <use xlink:href="#m46c0ae2e3d" x="190.62053" y="76.583754" style="stroke: #000000"/>
     <use xlink:href="#m46c0ae2e3d" x="192.149996" y="102.861135" style="stroke: #000000"/>
     <use xlink:href="#m46c0ae2e3d" x="193.679461" y="98.629005" style="stroke: #000000"/>
     <use xlink:href="#m46c0ae2e3d" x="195.208927" y="138.36541" style="stroke: #000000"/>
     <use xlink:href="#m46c0ae2e3d" x="196.738392" y="153.147336" style="stroke: #000000"/>
     <use xlink:href="#m46c0ae2e3d" x="198.267858" y="151.714321" style="stroke: #000000"/>
     <use xlink:href="#m46c0ae2e3d" x="199.797323" y="208.957205" style="stroke: #000000"/>
     <use xlink:href="#m46c0ae2e3d" x="201.326789" y="222.519652" style="stroke: #000000"/>
     <use xlink:href="#m46c0ae2e3d" x="202.856254" y="206.792962" style="stroke: #000000"/>
     <use xlink:href="#m46c0ae2e3d" x="204.38572" y="244.980554" style="stroke: #000000"/>
     <use xlink:href="#m46c0ae2e3d" x="205.915185" y="214.405116" style="stroke: #000000"/>
     <use xlink:href="#m46c0ae2e3d" x="207.444651" y="251.727653" style="stroke: #000000"/>
     <use xlink:href="#m46c0ae2e3d" x="208.974116" y="261.681531" style="stroke: #000000"/>
     <use xlink:href="#m46c0ae2e3d" x="210.503582" y="231.955584" style="stroke: #000000"/>
     <use xlink:href="#m46c0ae2e3d" x="212.033047" y="240.574364" style="stroke: #000000"/>
     <use xlink:href="#m46c0ae2e3d" x="213.562513" y="237.56246" style="stroke: #000000"/>
     <use xlink:href="#m46c0ae2e3d" x="215.091978" y="250.816345" style="stroke: #000000"/>
     <use xlink:href="#m46c0ae2e3d" x="216.621444" y="273.595528" style="stroke: #000000"/>
     <use xlink:href="#m46c0ae2e3d" x="218.150909" y="238.04215" style="stroke: #000000"/>
     <use xlink:href="#m46c0ae2e3d" x="219.680375" y="265.014015" style="stroke: #000000"/>
     <use xlink:href="#m46c0ae2e3d" x="221.20984" y="250.300581" style="stroke: #000000"/>
     <use xlink:href="#m46c0ae2e3d" x="222.739306" y="247.103826" style="stroke: #000000"/>
     <use xlink:href="#m46c0ae2e3d" x="224.268771" y="259.58292" style="stroke: #000000"/>
     <use xlink:href="#m46c0ae2e3d" x="225.798237" y="248.112178" style="stroke: #000000"/>
     <use xlink:href="#m46c0ae2e3d" x="227.327702" y="242.41353" style="stroke: #000000"/>
     <use xlink:href="#m46c0ae2e3d" x="228.857168" y="247.521902" style="stroke: #000000"/>
     <use xlink:href="#m46c0ae2e3d" x="230.386633" y="264.43404" style="stroke: #000000"/>
     <use xlink:href="#m46c0ae2e3d" x="231.916099" y="244.774055" style="stroke: #000000"/>
     <use xlink:href="#m46c0ae2e3d" x="233.445564" y="229.826993" style="stroke: #000000"/>
     <use xlink:href="#m46c0ae2e3d" x="234.97503" y="253.70687" style="stroke: #000000"/>
     <use xlink:href="#m46c0ae2e3d" x="236.504495" y="244.979134" style="stroke: #000000"/>
     <use xlink:href="#m46c0ae2e3d" x="238.033961" y="246.874913" style="stroke: #000000"/>
     <use xlink:href="#m46c0ae2e3d" x="239.563427" y="216.137675" style="stroke: #000000"/>
     <use xlink:href="#m46c0ae2e3d" x="241.092892" y="229.526378" style="stroke: #000000"/>
     <use xlink:href="#m46c0ae2e3d" x="242.622358" y="231.4002" style="stroke: #000000"/>
     <use xlink:href="#m46c0ae2e3d" x="244.151823" y="244.988317" style="stroke: #000000"/>
     <use xlink:href="#m46c0ae2e3d" x="245.681289" y="227.048051" style="stroke: #000000"/>
     <use xlink:href="#m46c0ae2e3d" x="247.210754" y="241.330588" style="stroke: #000000"/>
     <use xlink:href="#m46c0ae2e3d" x="248.74022" y="231.314683" style="stroke: #000000"/>
     <use xlink:href="#m46c0ae2e3d" x="250.269685" y="238.917933" style="stroke: #000000"/>
     <use xlink:href="#m46c0ae2e3d" x="251.799151" y="221.470683" style="stroke: #000000"/>
     <use xlink:href="#m46c0ae2e3d" x="253.328616" y="222.141866" style="stroke: #000000"/>
     <use xlink:href="#m46c0ae2e3d" x="254.858082" y="231.684118" style="stroke: #000000"/>
     <use xlink:href="#m46c0ae2e3d" x="256.387547" y="223.706559" style="stroke: #000000"/>
     <use xlink:href="#m46c0ae2e3d" x="257.917013" y="242.526207" style="stroke: #000000"/>
     <use xlink:href="#m46c0ae2e3d" x="259.446478" y="247.625277" style="stroke: #000000"/>
     <use xlink:href="#m46c0ae2e3d" x="260.975944" y="223.250617" style="stroke: #000000"/>
     <use xlink:href="#m46c0ae2e3d" x="262.505409" y="227.072083" style="stroke: #000000"/>
     <use xlink:href="#m46c0ae2e3d" x="264.034875" y="221.619697" style="stroke: #000000"/>
     <use xlink:href="#m46c0ae2e3d" x="265.56434" y="200.035091" style="stroke: #000000"/>
     <use xlink:href="#m46c0ae2e3d" x="267.093806" y="219.148911" style="stroke: #000000"/>
     <use xlink:href="#m46c0ae2e3d" x="268.623271" y="243.73125" style="stroke: #000000"/>
     <use xlink:href="#m46c0ae2e3d" x="270.152737" y="218.985197" style="stroke: #000000"/>
     <use xlink:href="#m46c0ae2e3d" x="271.682202" y="251.153401" style="stroke: #000000"/>
     <use xlink:href="#m46c0ae2e3d" x="273.211668" y="241.610242" style="stroke: #000000"/>
     <use xlink:href="#m46c0ae2e3d" x="274.741133" y="238.041659" style="stroke: #000000"/>
     <use xlink:href="#m46c0ae2e3d" x="276.270599" y="216.906844" style="stroke: #000000"/>
     <use xlink:href="#m46c0ae2e3d" x="277.800064" y="249.809362" style="stroke: #000000"/>
     <use xlink:href="#m46c0ae2e3d" x="279.32953" y="252.550252" style="stroke: #000000"/>
     <use xlink:href="#m46c0ae2e3d" x="280.858995" y="245.054965" style="stroke: #000000"/>
     <use xlink:href="#m46c0ae2e3d" x="282.388461" y="254.068502" style="stroke: #000000"/>
     <use xlink:href="#m46c0ae2e3d" x="283.917926" y="233.1579" style="stroke: #000000"/>
     <use xlink:href="#m46c0ae2e3d" x="285.447392" y="263.137534" style="stroke: #000000"/>
     <use xlink:href="#m46c0ae2e3d" x="286.976857" y="265.921146" style="stroke: #000000"/>
     <use xlink:href="#m46c0ae2e3d" x="288.506323" y="258.827376" style="stroke: #000000"/>
     <use xlink:href="#m46c0ae2e3d" x="290.035788" y="261.531909" style="stroke: #000000"/>
     <use xlink:href="#m46c0ae2e3d" x="291.565254" y="232.572458" style="stroke: #000000"/>
     <use xlink:href="#m46c0ae2e3d" x="293.094719" y="246.958142" style="stroke: #000000"/>
     <use xlink:href="#m46c0ae2e3d" x="294.624185" y="259.814037" style="stroke: #000000"/>
     <use xlink:href="#m46c0ae2e3d" x="296.15365" y="278.377273" style="stroke: #000000"/>
     <use xlink:href="#m46c0ae2e3d" x="297.683116" y="253.855246" style="stroke: #000000"/>
     <use xlink:href="#m46c0ae2e3d" x="299.212581" y="279.096172" style="stroke: #000000"/>
     <use xlink:href="#m46c0ae2e3d" x="300.742047" y="287.742425" style="stroke: #000000"/>
     <use xlink:href="#m46c0ae2e3d" x="302.271512" y="254.628001" style="stroke: #000000"/>
     <use xlink:href="#m46c0ae2e3d" x="303.800978" y="267.310911" style="stroke: #000000"/>
     <use xlink:href="#m46c0ae2e3d" x="305.330443" y="261.160072" style="stroke: #000000"/>
     <use xlink:href="#m46c0ae2e3d" x="306.859909" y="270.288503" style="stroke: #000000"/>
     <use xlink:href="#m46c0ae2e3d" x="308.389374" y="264.838327" style="stroke: #000000"/>
     <use xlink:href="#m46c0ae2e3d" x="309.91884" y="285.351732" style="stroke: #000000"/>
     <use xlink:href="#m46c0ae2e3d" x="311.448305" y="291.482893" style="stroke: #000000"/>
     <use xlink:href="#m46c0ae2e3d" x="312.977771" y="270.832455" style="stroke: #000000"/>
     <use xlink:href="#m46c0ae2e3d" x="314.507236" y="290.84069" style="stroke: #000000"/>
     <use xlink:href="#m46c0ae2e3d" x="316.036702" y="290.433369" style="stroke: #000000"/>
     <use xlink:href="#m46c0ae2e3d" x="317.566167" y="288.427971" style="stroke: #000000"/>
     <use xlink:href="#m46c0ae2e3d" x="319.095633" y="283.313998" style="stroke: #000000"/>
     <use xlink:href="#m46c0ae2e3d" x="320.625099" y="288.880466" style="stroke: #000000"/>
     <use xlink:href="#m46c0ae2e3d" x="322.154564" y="302.648325" style="stroke: #000000"/>
     <use xlink:href="#m46c0ae2e3d" x="323.68403" y="294.058092" style="stroke: #000000"/>
     <use xlink:href="#m46c0ae2e3d" x="325.213495" y="314.818348" style="stroke: #000000"/>
     <use xlink:href="#m46c0ae2e3d" x="326.742961" y="279.172958" style="stroke: #000000"/>
     <use xlink:href="#m46c0ae2e3d" x="328.272426" y="308.06532" style="stroke: #000000"/>
     <use xlink:href="#m46c0ae2e3d" x="329.801892" y="302.234035" style="stroke: #000000"/>
     <use xlink:href="#m46c0ae2e3d" x="331.331357" y="287.972609" style="stroke: #000000"/>
     <use xlink:href="#m46c0ae2e3d" x="332.860823" y="298.459416" style="stroke: #000000"/>
     <use xlink:href="#m46c0ae2e3d" x="334.390288" y="269.786298" style="stroke: #000000"/>
     <use xlink:href="#m46c0ae2e3d" x="335.919754" y="306.206993" style="stroke: #000000"/>
     <use xlink:href="#m46c0ae2e3d" x="337.449219" y="286.658092" style="stroke: #000000"/>
     <use xlink:href="#m46c0ae2e3d" x="338.978685" y="290.825038" style="stroke: #000000"/>
     <use xlink:href="#m46c0ae2e3d" x="340.50815" y="305.428811" style="stroke: #000000"/>
     <use xlink:href="#m46c0ae2e3d" x="342.037616" y="284.119986" style="stroke: #000000"/>
     <use xlink:href="#m46c0ae2e3d" x="343.567081" y="293.150787" style="stroke: #000000"/>
     <use xlink:href="#m46c0ae2e3d" x="345.096547" y="281.314543" style="stroke: #000000"/>
     <use xlink:href="#m46c0ae2e3d" x="346.626012" y="280.804232" style="stroke: #000000"/>
     <use xlink:href="#m46c0ae2e3d" x="348.155478" y="263.886409" style="stroke: #000000"/>
     <use xlink:href="#m46c0ae2e3d" x="349.684943" y="274.520034" style="stroke: #000000"/>
    </g>
   </g>
   <g id="line2d_12">
    <path d="M 45.321307 292.233824 
L 134.030306 292.124884 
L 138.618703 291.851972 
L 141.677634 291.356429 
L 143.207099 290.919222 
L 144.736565 290.28499 
L 146.26603 289.379566 
L 147.795496 288.108333 
L 149.324961 286.353866 
L 150.854427 283.974698 
L 152.383892 280.805887 
L 153.913358 276.662076 
L 155.442823 271.343726 
L 156.972289 264.647032 
L 158.501755 256.377741 
L 160.03122 246.368659 
L 161.560686 234.500076 
L 163.090151 220.721732 
L 164.619617 205.074353 
L 166.149082 187.70831 
L 169.208013 149.040247 
L 173.79641 88.92883 
L 175.325875 71.021008 
L 176.855341 55.399417 
L 178.384806 42.737487 
L 179.914272 33.59971 
L 181.443737 28.398337 
L 182.973203 27.360722 
L 184.502668 30.510888 
L 186.032134 37.66739 
L 187.561599 48.457709 
L 189.091065 62.347567 
L 190.62053 78.681939 
L 193.679461 115.752626 
L 196.738392 153.870757 
L 198.267858 171.758638 
L 199.797323 188.244075 
L 201.326789 203.018524 
L 202.856254 215.898907 
L 204.38572 226.816446 
L 205.915185 235.799228 
L 207.444651 242.951197 
L 208.974116 248.430116 
L 210.503582 252.426604 
L 212.033047 255.145796 
L 213.562513 256.792536 
L 215.091978 257.560458 
L 216.621444 257.624832 
L 218.150909 257.138728 
L 219.680375 256.23185 
L 221.20984 255.011336 
L 222.739306 253.563841 
L 225.798237 250.24908 
L 234.97503 239.675763 
L 238.033961 236.516641 
L 241.092892 233.718253 
L 244.151823 231.358661 
L 245.681289 230.364302 
L 247.210754 229.503069 
L 248.74022 228.780985 
L 250.269685 228.203132 
L 251.799151 227.773597 
L 253.328616 227.495429 
L 254.858082 227.370613 
L 256.387547 227.400038 
L 257.917013 227.583496 
L 259.446478 227.919681 
L 260.975944 228.406204 
L 262.505409 229.039624 
L 264.034875 229.815487 
L 265.56434 230.728378 
L 268.623271 232.939169 
L 271.682202 235.612093 
L 274.741133 238.67681 
L 277.800064 242.055611 
L 282.388461 247.533416 
L 296.15365 264.443971 
L 300.742047 269.510434 
L 303.800978 272.598877 
L 306.859909 275.428303 
L 309.91884 277.986286 
L 312.977771 280.269359 
L 316.036702 282.281778 
L 319.095633 284.03414 
L 322.154564 285.541955 
L 325.213495 286.824246 
L 328.272426 287.902258 
L 331.331357 288.798307 
L 335.919754 289.850073 
L 340.50815 290.614896 
L 345.096547 291.157628 
L 349.684943 291.533574 
L 349.684943 291.533574 
" clip-path="url(#p4d6eede033)" style="fill: none; stroke: #1f77b4; stroke-width: 1.5; stroke-linecap: square"/>
   </g>
   <g id="patch_3">
    <path d="M 30.103125 339.84 
L 30.103125 7.2 
" style="fill: none; stroke: #000000; stroke-width: 0.8; stroke-linejoin: miter; stroke-linecap: square"/>
   </g>
   <g id="patch_4">
    <path d="M 364.903125 339.84 
L 364.903125 7.2 
" style="fill: none; stroke: #000000; stroke-width: 0.8; stroke-linejoin: miter; stroke-linecap: square"/>
   </g>
   <g id="patch_5">
    <path d="M 30.103125 339.84 
L 364.903125 339.84 
" style="fill: none; stroke: #000000; stroke-width: 0.8; stroke-linejoin: miter; stroke-linecap: square"/>
   </g>
   <g id="patch_6">
    <path d="M 30.103125 7.2 
L 364.903125 7.2 
" style="fill: none; stroke: #000000; stroke-width: 0.8; stroke-linejoin: miter; stroke-linecap: square"/>
   </g>
  </g>
 </g>
 <defs>
  <clipPath id="p4d6eede033">
   <rect x="30.103125" y="7.2" width="334.8" height="332.64"/>
  </clipPath>
 </defs>
</svg>
