<?xml version="1.0" encoding="utf-8" standalone="no"?>
<!DOCTYPE svg PUBLIC "-//W3C//DTD SVG 1.1//EN"
  "http://www.w3.org/Graphics/SVG/1.1/DTD/svg11.dtd">
<svg xmlns:xlink="http://www.w3.org/1999/xlink" width="374.123437pt" height="367.517344pt" viewBox="0 0 374.123437 367.517344" xmlns="http://www.w3.org/2000/svg" version="1.1">
 <metadata>
  <rdf:RDF xmlns:dc="http://purl.org/dc/elements/1.1/" xmlns:cc="http://creativecommons.org/ns#" xmlns:rdf="http://www.w3.org/1999/02/22-rdf-syntax-ns#">
   <cc:Work>
    <dc:type rdf:resource="http://purl.org/dc/dcmitype/StillImage"/>
    <dc:date>2022-05-09T09:38:37.766355</dc:date>
    <dc:format>image/svg+xml</dc:format>
    <dc:creator>
     <cc:Agent>
      <dc:title>Matplotlib v3.5.1, https://matplotlib.org/</dc:title>
     </cc:Agent>
    </dc:creator>
   </cc:Work>
  </rdf:RDF>
 </metadata>
 <defs>
  <style type="text/css">*{stroke-linejoin: round; stroke-linecap: butt}</style>
 </defs>
 <g id="figure_1">
  <g id="patch_1">
   <path d="M 0 367.517344 
L 374.123437 367.517344 
L 374.123437 0 
L 0 0 
L 0 367.517344 
z
" style="fill: none"/>
  </g>
  <g id="axes_1">
   <g id="patch_2">
    <path d="M 28.942188 343.639219 
L 363.742188 343.639219 
L 363.742188 10.999219 
L 28.942188 10.999219 
z
" style="fill: #ffffff"/>
   </g>
   <g id="PathCollection_1">
    <defs>
     <path id="m4b0a6f9d9a" d="M 0 1.118034 
C 0.296506 1.118034 0.580908 1.000231 0.790569 0.790569 
C 1.000231 0.580908 1.118034 0.296506 1.118034 0 
C 1.118034 -0.296506 1.000231 -0.580908 0.790569 -0.790569 
C 0.580908 -1.000231 0.296506 -1.118034 0 -1.118034 
C -0.296506 -1.118034 -0.580908 -1.000231 -0.790569 -0.790569 
C -1.000231 -0.580908 -1.118034 -0.296506 -1.118034 0 
C -1.118034 0.296506 -1.000231 0.580908 -0.790569 0.790569 
C -0.580908 1.000231 -0.296506 1.118034 0 1.118034 
z
"/>
    </defs>
    <g clip-path="url(#p67b626c1d8)">
     <use xlink:href="#m4b0a6f9d9a" x="129.745626" y="184.069829" style="fill: #1f77b4"/>
     <use xlink:href="#m4b0a6f9d9a" x="247.605466" y="182.755984" style="fill: #1f77b4"/>
     <use xlink:href="#m4b0a6f9d9a" x="189.501742" y="205.763287" style="fill: #1f77b4"/>
     <use xlink:href="#m4b0a6f9d9a" x="237.12332" y="128.644708" style="fill: #1f77b4"/>
     <use xlink:href="#m4b0a6f9d9a" x="210.029194" y="237.552856" style="fill: #1f77b4"/>
     <use xlink:href="#m4b0a6f9d9a" x="203.043505" y="205.78878" style="fill: #1f77b4"/>
     <use xlink:href="#m4b0a6f9d9a" x="167.397095" y="175.823318" style="fill: #1f77b4"/>
     <use xlink:href="#m4b0a6f9d9a" x="132.384851" y="215.244198" style="fill: #1f77b4"/>
     <use xlink:href="#m4b0a6f9d9a" x="133.765294" y="210.634029" style="fill: #1f77b4"/>
     <use xlink:href="#m4b0a6f9d9a" x="189.120939" y="204.000836" style="fill: #1f77b4"/>
     <use xlink:href="#m4b0a6f9d9a" x="149.663366" y="200.060377" style="fill: #1f77b4"/>
     <use xlink:href="#m4b0a6f9d9a" x="277.712616" y="189.476602" style="fill: #1f77b4"/>
     <use xlink:href="#m4b0a6f9d9a" x="223.137031" y="228.717701" style="fill: #1f77b4"/>
     <use xlink:href="#m4b0a6f9d9a" x="232.239815" y="240.029129" style="fill: #1f77b4"/>
     <use xlink:href="#m4b0a6f9d9a" x="162.034518" y="153.233122" style="fill: #1f77b4"/>
     <use xlink:href="#m4b0a6f9d9a" x="140.791783" y="165.647242" style="fill: #1f77b4"/>
     <use xlink:href="#m4b0a6f9d9a" x="179.347316" y="249.317805" style="fill: #1f77b4"/>
     <use xlink:href="#m4b0a6f9d9a" x="210.98784" y="135.732397" style="fill: #1f77b4"/>
     <use xlink:href="#m4b0a6f9d9a" x="187.188761" y="116.22904" style="fill: #1f77b4"/>
     <use xlink:href="#m4b0a6f9d9a" x="286.849519" y="202.014386" style="fill: #1f77b4"/>
     <use xlink:href="#m4b0a6f9d9a" x="177.142973" y="147.660413" style="fill: #1f77b4"/>
     <use xlink:href="#m4b0a6f9d9a" x="202.643748" y="156.188481" style="fill: #1f77b4"/>
     <use xlink:href="#m4b0a6f9d9a" x="252.248403" y="139.943342" style="fill: #1f77b4"/>
     <use xlink:href="#m4b0a6f9d9a" x="64.572916" y="160.306223" style="fill: #1f77b4"/>
     <use xlink:href="#m4b0a6f9d9a" x="155.038484" y="212.364207" style="fill: #1f77b4"/>
     <use xlink:href="#m4b0a6f9d9a" x="216.965617" y="110.560348" style="fill: #1f77b4"/>
     <use xlink:href="#m4b0a6f9d9a" x="204.874988" y="155.451625" style="fill: #1f77b4"/>
     <use xlink:href="#m4b0a6f9d9a" x="221.221656" y="219.610164" style="fill: #1f77b4"/>
     <use xlink:href="#m4b0a6f9d9a" x="259.976984" y="162.148565" style="fill: #1f77b4"/>
     <use xlink:href="#m4b0a6f9d9a" x="204.619843" y="234.477211" style="fill: #1f77b4"/>
     <use xlink:href="#m4b0a6f9d9a" x="175.330662" y="122.907326" style="fill: #1f77b4"/>
     <use xlink:href="#m4b0a6f9d9a" x="245.56464" y="218.675889" style="fill: #1f77b4"/>
     <use xlink:href="#m4b0a6f9d9a" x="162.191464" y="263.643728" style="fill: #1f77b4"/>
     <use xlink:href="#m4b0a6f9d9a" x="192.396665" y="181.234619" style="fill: #1f77b4"/>
     <use xlink:href="#m4b0a6f9d9a" x="165.084913" y="196.739184" style="fill: #1f77b4"/>
     <use xlink:href="#m4b0a6f9d9a" x="165.636207" y="104.58528" style="fill: #1f77b4"/>
     <use xlink:href="#m4b0a6f9d9a" x="202.537044" y="176.747391" style="fill: #1f77b4"/>
     <use xlink:href="#m4b0a6f9d9a" x="159.878932" y="252.070308" style="fill: #1f77b4"/>
     <use xlink:href="#m4b0a6f9d9a" x="236.40461" y="180.58636" style="fill: #1f77b4"/>
     <use xlink:href="#m4b0a6f9d9a" x="219.371141" y="133.027399" style="fill: #1f77b4"/>
     <use xlink:href="#m4b0a6f9d9a" x="215.673638" y="266.590457" style="fill: #1f77b4"/>
     <use xlink:href="#m4b0a6f9d9a" x="202.378074" y="250.088449" style="fill: #1f77b4"/>
     <use xlink:href="#m4b0a6f9d9a" x="223.210577" y="147.65957" style="fill: #1f77b4"/>
     <use xlink:href="#m4b0a6f9d9a" x="238.259522" y="83.864056" style="fill: #1f77b4"/>
     <use xlink:href="#m4b0a6f9d9a" x="123.054711" y="264.573619" style="fill: #1f77b4"/>
     <use xlink:href="#m4b0a6f9d9a" x="164.709971" y="174.191224" style="fill: #1f77b4"/>
     <use xlink:href="#m4b0a6f9d9a" x="234.162521" y="109.245708" style="fill: #1f77b4"/>
     <use xlink:href="#m4b0a6f9d9a" x="203.365435" y="76.084357" style="fill: #1f77b4"/>
     <use xlink:href="#m4b0a6f9d9a" x="201.738385" y="82.884729" style="fill: #1f77b4"/>
     <use xlink:href="#m4b0a6f9d9a" x="201.324314" y="117.078929" style="fill: #1f77b4"/>
    </g>
   </g>
   <g id="matplotlib.axis_1">
    <g id="xtick_1">
     <g id="line2d_1">
      <defs>
       <path id="m030338cb49" d="M 0 0 
L 0 3.5 
" style="stroke: #000000; stroke-width: 0.8"/>
      </defs>
      <g>
       <use xlink:href="#m030338cb49" x="28.942188" y="343.639219" style="stroke: #000000; stroke-width: 0.8"/>
      </g>
     </g>
     <g id="text_1">
      <!-- −4 -->
      <g transform="translate(21.571094 358.237656)scale(0.1 -0.1)">
       <defs>
        <path id="DejaVuSans-2212" d="M 678 2272 
L 4684 2272 
L 4684 1741 
L 678 1741 
L 678 2272 
z
" transform="scale(0.015625)"/>
        <path id="DejaVuSans-34" d="M 2419 4116 
L 825 1625 
L 2419 1625 
L 2419 4116 
z
M 2253 4666 
L 3047 4666 
L 3047 1625 
L 3713 1625 
L 3713 1100 
L 3047 1100 
L 3047 0 
L 2419 0 
L 2419 1100 
L 313 1100 
L 313 1709 
L 2253 4666 
z
" transform="scale(0.015625)"/>
       </defs>
       <use xlink:href="#DejaVuSans-2212"/>
       <use xlink:href="#DejaVuSans-34" x="83.789062"/>
      </g>
     </g>
    </g>
    <g id="xtick_2">
     <g id="line2d_2">
      <g>
       <use xlink:href="#m030338cb49" x="70.792188" y="343.639219" style="stroke: #000000; stroke-width: 0.8"/>
      </g>
     </g>
     <g id="text_2">
      <!-- −3 -->
      <g transform="translate(63.421094 358.237656)scale(0.1 -0.1)">
       <defs>
        <path id="DejaVuSans-33" d="M 2597 2516 
Q 3050 2419 3304 2112 
Q 3559 1806 3559 1356 
Q 3559 666 3084 287 
Q 2609 -91 1734 -91 
Q 1441 -91 1130 -33 
Q 819 25 488 141 
L 488 750 
Q 750 597 1062 519 
Q 1375 441 1716 441 
Q 2309 441 2620 675 
Q 2931 909 2931 1356 
Q 2931 1769 2642 2001 
Q 2353 2234 1838 2234 
L 1294 2234 
L 1294 2753 
L 1863 2753 
Q 2328 2753 2575 2939 
Q 2822 3125 2822 3475 
Q 2822 3834 2567 4026 
Q 2313 4219 1838 4219 
Q 1578 4219 1281 4162 
Q 984 4106 628 3988 
L 628 4550 
Q 988 4650 1302 4700 
Q 1616 4750 1894 4750 
Q 2613 4750 3031 4423 
Q 3450 4097 3450 3541 
Q 3450 3153 3228 2886 
Q 3006 2619 2597 2516 
z
" transform="scale(0.015625)"/>
       </defs>
       <use xlink:href="#DejaVuSans-2212"/>
       <use xlink:href="#DejaVuSans-33" x="83.789062"/>
      </g>
     </g>
    </g>
    <g id="xtick_3">
     <g id="line2d_3">
      <g>
       <use xlink:href="#m030338cb49" x="112.642188" y="343.639219" style="stroke: #000000; stroke-width: 0.8"/>
      </g>
     </g>
     <g id="text_3">
      <!-- −2 -->
      <g transform="translate(105.271094 358.237656)scale(0.1 -0.1)">
       <defs>
        <path id="DejaVuSans-32" d="M 1228 531 
L 3431 531 
L 3431 0 
L 469 0 
L 469 531 
Q 828 903 1448 1529 
Q 2069 2156 2228 2338 
Q 2531 2678 2651 2914 
Q 2772 3150 2772 3378 
Q 2772 3750 2511 3984 
Q 2250 4219 1831 4219 
Q 1534 4219 1204 4116 
Q 875 4013 500 3803 
L 500 4441 
Q 881 4594 1212 4672 
Q 1544 4750 1819 4750 
Q 2544 4750 2975 4387 
Q 3406 4025 3406 3419 
Q 3406 3131 3298 2873 
Q 3191 2616 2906 2266 
Q 2828 2175 2409 1742 
Q 1991 1309 1228 531 
z
" transform="scale(0.015625)"/>
       </defs>
       <use xlink:href="#DejaVuSans-2212"/>
       <use xlink:href="#DejaVuSans-32" x="83.789062"/>
      </g>
     </g>
    </g>
    <g id="xtick_4">
     <g id="line2d_4">
      <g>
       <use xlink:href="#m030338cb49" x="154.492188" y="343.639219" style="stroke: #000000; stroke-width: 0.8"/>
      </g>
     </g>
     <g id="text_4">
      <!-- −1 -->
      <g transform="translate(147.121094 358.237656)scale(0.1 -0.1)">
       <defs>
        <path id="DejaVuSans-31" d="M 794 531 
L 1825 531 
L 1825 4091 
L 703 3866 
L 703 4441 
L 1819 4666 
L 2450 4666 
L 2450 531 
L 3481 531 
L 3481 0 
L 794 0 
L 794 531 
z
" transform="scale(0.015625)"/>
       </defs>
       <use xlink:href="#DejaVuSans-2212"/>
       <use xlink:href="#DejaVuSans-31" x="83.789062"/>
      </g>
     </g>
    </g>
    <g id="xtick_5">
     <g id="line2d_5">
      <g>
       <use xlink:href="#m030338cb49" x="196.342188" y="343.639219" style="stroke: #000000; stroke-width: 0.8"/>
      </g>
     </g>
     <g id="text_5">
      <!-- 0 -->
      <g transform="translate(193.160938 358.237656)scale(0.1 -0.1)">
       <defs>
        <path id="DejaVuSans-30" d="M 2034 4250 
Q 1547 4250 1301 3770 
Q 1056 3291 1056 2328 
Q 1056 1369 1301 889 
Q 1547 409 2034 409 
Q 2525 409 2770 889 
Q 3016 1369 3016 2328 
Q 3016 3291 2770 3770 
Q 2525 4250 2034 4250 
z
M 2034 4750 
Q 2819 4750 3233 4129 
Q 3647 3509 3647 2328 
Q 3647 1150 3233 529 
Q 2819 -91 2034 -91 
Q 1250 -91 836 529 
Q 422 1150 422 2328 
Q 422 3509 836 4129 
Q 1250 4750 2034 4750 
z
" transform="scale(0.015625)"/>
       </defs>
       <use xlink:href="#DejaVuSans-30"/>
      </g>
     </g>
    </g>
    <g id="xtick_6">
     <g id="line2d_6">
      <g>
       <use xlink:href="#m030338cb49" x="238.192188" y="343.639219" style="stroke: #000000; stroke-width: 0.8"/>
      </g>
     </g>
     <g id="text_6">
      <!-- 1 -->
      <g transform="translate(235.010938 358.237656)scale(0.1 -0.1)">
       <use xlink:href="#DejaVuSans-31"/>
      </g>
     </g>
    </g>
    <g id="xtick_7">
     <g id="line2d_7">
      <g>
       <use xlink:href="#m030338cb49" x="280.042188" y="343.639219" style="stroke: #000000; stroke-width: 0.8"/>
      </g>
     </g>
     <g id="text_7">
      <!-- 2 -->
      <g transform="translate(276.860938 358.237656)scale(0.1 -0.1)">
       <use xlink:href="#DejaVuSans-32"/>
      </g>
     </g>
    </g>
    <g id="xtick_8">
     <g id="line2d_8">
      <g>
       <use xlink:href="#m030338cb49" x="321.892188" y="343.639219" style="stroke: #000000; stroke-width: 0.8"/>
      </g>
     </g>
     <g id="text_8">
      <!-- 3 -->
      <g transform="translate(318.710938 358.237656)scale(0.1 -0.1)">
       <use xlink:href="#DejaVuSans-33"/>
      </g>
     </g>
    </g>
    <g id="xtick_9">
     <g id="line2d_9">
      <g>
       <use xlink:href="#m030338cb49" x="363.742188" y="343.639219" style="stroke: #000000; stroke-width: 0.8"/>
      </g>
     </g>
     <g id="text_9">
      <!-- 4 -->
      <g transform="translate(360.560938 358.237656)scale(0.1 -0.1)">
       <use xlink:href="#DejaVuSans-34"/>
      </g>
     </g>
    </g>
   </g>
   <g id="matplotlib.axis_2">
    <g id="ytick_1">
     <g id="line2d_10">
      <defs>
       <path id="mb8a4fb299a" d="M 0 0 
L -3.5 0 
" style="stroke: #000000; stroke-width: 0.8"/>
      </defs>
      <g>
       <use xlink:href="#mb8a4fb299a" x="28.942188" y="343.639219" style="stroke: #000000; stroke-width: 0.8"/>
      </g>
     </g>
     <g id="text_10">
      <!-- −4 -->
      <g transform="translate(7.2 347.438438)scale(0.1 -0.1)">
       <use xlink:href="#DejaVuSans-2212"/>
       <use xlink:href="#DejaVuSans-34" x="83.789062"/>
      </g>
     </g>
    </g>
    <g id="ytick_2">
     <g id="line2d_11">
      <g>
       <use xlink:href="#mb8a4fb299a" x="28.942188" y="302.059219" style="stroke: #000000; stroke-width: 0.8"/>
      </g>
     </g>
     <g id="text_11">
      <!-- −3 -->
      <g transform="translate(7.2 305.858438)scale(0.1 -0.1)">
       <use xlink:href="#DejaVuSans-2212"/>
       <use xlink:href="#DejaVuSans-33" x="83.789062"/>
      </g>
     </g>
    </g>
    <g id="ytick_3">
     <g id="line2d_12">
      <g>
       <use xlink:href="#mb8a4fb299a" x="28.942188" y="260.479219" style="stroke: #000000; stroke-width: 0.8"/>
      </g>
     </g>
     <g id="text_12">
      <!-- −2 -->
      <g transform="translate(7.2 264.278438)scale(0.1 -0.1)">
       <use xlink:href="#DejaVuSans-2212"/>
       <use xlink:href="#DejaVuSans-32" x="83.789062"/>
      </g>
     </g>
    </g>
    <g id="ytick_4">
     <g id="line2d_13">
      <g>
       <use xlink:href="#mb8a4fb299a" x="28.942188" y="218.899219" style="stroke: #000000; stroke-width: 0.8"/>
      </g>
     </g>
     <g id="text_13">
      <!-- −1 -->
      <g transform="translate(7.2 222.698438)scale(0.1 -0.1)">
       <use xlink:href="#DejaVuSans-2212"/>
       <use xlink:href="#DejaVuSans-31" x="83.789062"/>
      </g>
     </g>
    </g>
    <g id="ytick_5">
     <g id="line2d_14">
      <g>
       <use xlink:href="#mb8a4fb299a" x="28.942188" y="177.319219" style="stroke: #000000; stroke-width: 0.8"/>
      </g>
     </g>
     <g id="text_14">
      <!-- 0 -->
      <g transform="translate(15.579688 181.118438)scale(0.1 -0.1)">
       <use xlink:href="#DejaVuSans-30"/>
      </g>
     </g>
    </g>
    <g id="ytick_6">
     <g id="line2d_15">
      <g>
       <use xlink:href="#mb8a4fb299a" x="28.942188" y="135.739219" style="stroke: #000000; stroke-width: 0.8"/>
      </g>
     </g>
     <g id="text_15">
      <!-- 1 -->
      <g transform="translate(15.579688 139.538438)scale(0.1 -0.1)">
       <use xlink:href="#DejaVuSans-31"/>
      </g>
     </g>
    </g>
    <g id="ytick_7">
     <g id="line2d_16">
      <g>
       <use xlink:href="#mb8a4fb299a" x="28.942188" y="94.159219" style="stroke: #000000; stroke-width: 0.8"/>
      </g>
     </g>
     <g id="text_16">
      <!-- 2 -->
      <g transform="translate(15.579688 97.958438)scale(0.1 -0.1)">
       <use xlink:href="#DejaVuSans-32"/>
      </g>
     </g>
    </g>
    <g id="ytick_8">
     <g id="line2d_17">
      <g>
       <use xlink:href="#mb8a4fb299a" x="28.942188" y="52.579219" style="stroke: #000000; stroke-width: 0.8"/>
      </g>
     </g>
     <g id="text_17">
      <!-- 3 -->
      <g transform="translate(15.579688 56.378438)scale(0.1 -0.1)">
       <use xlink:href="#DejaVuSans-33"/>
      </g>
     </g>
    </g>
    <g id="ytick_9">
     <g id="line2d_18">
      <g>
       <use xlink:href="#mb8a4fb299a" x="28.942188" y="10.999219" style="stroke: #000000; stroke-width: 0.8"/>
      </g>
     </g>
     <g id="text_18">
      <!-- 4 -->
      <g transform="translate(15.579688 14.798438)scale(0.1 -0.1)">
       <use xlink:href="#DejaVuSans-34"/>
      </g>
     </g>
    </g>
   </g>
   <g id="patch_3">
    <path d="M 28.942188 343.639219 
L 28.942188 10.999219 
" style="fill: none; stroke: #000000; stroke-width: 0.8; stroke-linejoin: miter; stroke-linecap: square"/>
   </g>
   <g id="patch_4">
    <path d="M 363.742188 343.639219 
L 363.742188 10.999219 
" style="fill: none; stroke: #000000; stroke-width: 0.8; stroke-linejoin: miter; stroke-linecap: square"/>
   </g>
   <g id="patch_5">
    <path d="M 28.942188 343.639219 
L 363.742188 343.639219 
" style="fill: none; stroke: #000000; stroke-width: 0.8; stroke-linejoin: miter; stroke-linecap: square"/>
   </g>
   <g id="patch_6">
    <path d="M 28.942188 10.999219 
L 363.742188 10.999219 
" style="fill: none; stroke: #000000; stroke-width: 0.8; stroke-linejoin: miter; stroke-linecap: square"/>
   </g>
  </g>
 </g>
 <defs>
  <clipPath id="p67b626c1d8">
   <rect x="28.942188" y="10.999219" width="334.8" height="332.64"/>
  </clipPath>
 </defs>
</svg>
