<?xml version="1.0" encoding="utf-8" standalone="no"?>
<!DOCTYPE svg PUBLIC "-//W3C//DTD SVG 1.1//EN"
  "http://www.w3.org/Graphics/SVG/1.1/DTD/svg11.dtd">
<svg xmlns:xlink="http://www.w3.org/1999/xlink" width="375.2875pt" height="379.358125pt" viewBox="0 0 375.2875 379.358125" xmlns="http://www.w3.org/2000/svg" version="1.1">
 <metadata>
  <rdf:RDF xmlns:dc="http://purl.org/dc/elements/1.1/" xmlns:cc="http://creativecommons.org/ns#" xmlns:rdf="http://www.w3.org/1999/02/22-rdf-syntax-ns#">
   <cc:Work>
    <dc:type rdf:resource="http://purl.org/dc/dcmitype/StillImage"/>
    <dc:date>2022-05-09T11:03:39.136897</dc:date>
    <dc:format>image/svg+xml</dc:format>
    <dc:creator>
     <cc:Agent>
      <dc:title>Matplotlib v3.5.1, https://matplotlib.org/</dc:title>
     </cc:Agent>
    </dc:creator>
   </cc:Work>
  </rdf:RDF>
 </metadata>
 <defs>
  <style type="text/css">*{stroke-linejoin: round; stroke-linecap: butt}</style>
 </defs>
 <g id="figure_1">
  <g id="patch_1">
   <path d="M 0 379.358125 
L 375.2875 379.358125 
L 375.2875 0 
L 0 0 
L 0 379.358125 
z
" style="fill: none"/>
  </g>
  <g id="axes_1">
   <g id="patch_2">
    <path d="M 33.2875 339.84 
L 368.0875 339.84 
L 368.0875 7.2 
L 33.2875 7.2 
z
" style="fill: #ffffff"/>
   </g>
   <g id="patch_3">
    <path d="M 48.505682 339.84 
L 54.592955 339.84 
L 54.592955 336.451765 
L 48.505682 336.451765 
z
" clip-path="url(#p71b90add15)" style="fill: #1f77b4"/>
   </g>
   <g id="patch_4">
    <path d="M 54.592955 339.84 
L 60.680227 339.84 
L 60.680227 332.216471 
L 54.592955 332.216471 
z
" clip-path="url(#p71b90add15)" style="fill: #1f77b4"/>
   </g>
   <g id="patch_5">
    <path d="M 60.680227 339.84 
L 66.7675 339.84 
L 66.7675 326.287059 
L 60.680227 326.287059 
z
" clip-path="url(#p71b90add15)" style="fill: #1f77b4"/>
   </g>
   <g id="patch_6">
    <path d="M 66.7675 339.84 
L 72.854773 339.84 
L 72.854773 317.816471 
L 66.7675 317.816471 
z
" clip-path="url(#p71b90add15)" style="fill: #1f77b4"/>
   </g>
   <g id="patch_7">
    <path d="M 72.854773 339.84 
L 78.942045 339.84 
L 78.942045 292.404706 
L 72.854773 292.404706 
z
" clip-path="url(#p71b90add15)" style="fill: #1f77b4"/>
   </g>
   <g id="patch_8">
    <path d="M 78.942045 339.84 
L 85.029318 339.84 
L 85.029318 260.216471 
L 78.942045 260.216471 
z
" clip-path="url(#p71b90add15)" style="fill: #1f77b4"/>
   </g>
   <g id="patch_9">
    <path d="M 85.029318 339.84 
L 91.116591 339.84 
L 91.116591 239.04 
L 85.029318 239.04 
z
" clip-path="url(#p71b90add15)" style="fill: #1f77b4"/>
   </g>
   <g id="patch_10">
    <path d="M 91.116591 339.84 
L 97.203864 339.84 
L 97.203864 199.228235 
L 91.116591 199.228235 
z
" clip-path="url(#p71b90add15)" style="fill: #1f77b4"/>
   </g>
   <g id="patch_11">
    <path d="M 97.203864 339.84 
L 103.291136 339.84 
L 103.291136 185.675294 
L 97.203864 185.675294 
z
" clip-path="url(#p71b90add15)" style="fill: #1f77b4"/>
   </g>
   <g id="patch_12">
    <path d="M 103.291136 339.84 
L 109.378409 339.84 
L 109.378409 151.792941 
L 103.291136 151.792941 
z
" clip-path="url(#p71b90add15)" style="fill: #1f77b4"/>
   </g>
   <g id="patch_13">
    <path d="M 109.378409 339.84 
L 115.465682 339.84 
L 115.465682 143.322353 
L 109.378409 143.322353 
z
" clip-path="url(#p71b90add15)" style="fill: #1f77b4"/>
   </g>
   <g id="patch_14">
    <path d="M 115.465682 339.84 
L 121.552955 339.84 
L 121.552955 123.84 
L 115.465682 123.84 
z
" clip-path="url(#p71b90add15)" style="fill: #1f77b4"/>
   </g>
   <g id="patch_15">
    <path d="M 121.552955 339.84 
L 127.640227 339.84 
L 127.640227 80.64 
L 121.552955 80.64 
z
" clip-path="url(#p71b90add15)" style="fill: #1f77b4"/>
   </g>
   <g id="patch_16">
    <path d="M 127.640227 339.84 
L 133.7275 339.84 
L 133.7275 90.804706 
L 127.640227 90.804706 
z
" clip-path="url(#p71b90add15)" style="fill: #1f77b4"/>
   </g>
   <g id="patch_17">
    <path d="M 133.7275 339.84 
L 139.814773 339.84 
L 139.814773 100.122353 
L 133.7275 100.122353 
z
" clip-path="url(#p71b90add15)" style="fill: #1f77b4"/>
   </g>
   <g id="patch_18">
    <path d="M 139.814773 339.84 
L 145.902045 339.84 
L 145.902045 67.087059 
L 139.814773 67.087059 
z
" clip-path="url(#p71b90add15)" style="fill: #1f77b4"/>
   </g>
   <g id="patch_19">
    <path d="M 145.902045 339.84 
L 151.989318 339.84 
L 151.989318 73.016471 
L 145.902045 73.016471 
z
" clip-path="url(#p71b90add15)" style="fill: #1f77b4"/>
   </g>
   <g id="patch_20">
    <path d="M 151.989318 339.84 
L 158.076591 339.84 
L 158.076591 45.063529 
L 151.989318 45.063529 
z
" clip-path="url(#p71b90add15)" style="fill: #1f77b4"/>
   </g>
   <g id="patch_21">
    <path d="M 158.076591 339.84 
L 164.163864 339.84 
L 164.163864 57.769412 
L 158.076591 57.769412 
z
" clip-path="url(#p71b90add15)" style="fill: #1f77b4"/>
   </g>
   <g id="patch_22">
    <path d="M 164.163864 339.84 
L 170.251136 339.84 
L 170.251136 67.934118 
L 164.163864 67.934118 
z
" clip-path="url(#p71b90add15)" style="fill: #1f77b4"/>
   </g>
   <g id="patch_23">
    <path d="M 170.251136 339.84 
L 176.338409 339.84 
L 176.338409 48.451765 
L 170.251136 48.451765 
z
" clip-path="url(#p71b90add15)" style="fill: #1f77b4"/>
   </g>
   <g id="patch_24">
    <path d="M 176.338409 339.84 
L 182.425682 339.84 
L 182.425682 47.604706 
L 176.338409 47.604706 
z
" clip-path="url(#p71b90add15)" style="fill: #1f77b4"/>
   </g>
   <g id="patch_25">
    <path d="M 182.425682 339.84 
L 188.512955 339.84 
L 188.512955 63.698824 
L 182.425682 63.698824 
z
" clip-path="url(#p71b90add15)" style="fill: #1f77b4"/>
   </g>
   <g id="patch_26">
    <path d="M 188.512955 339.84 
L 194.600227 339.84 
L 194.600227 65.392941 
L 188.512955 65.392941 
z
" clip-path="url(#p71b90add15)" style="fill: #1f77b4"/>
   </g>
   <g id="patch_27">
    <path d="M 194.600227 339.84 
L 200.6875 339.84 
L 200.6875 64.545882 
L 194.600227 64.545882 
z
" clip-path="url(#p71b90add15)" style="fill: #1f77b4"/>
   </g>
   <g id="patch_28">
    <path d="M 200.6875 339.84 
L 206.774773 339.84 
L 206.774773 38.287059 
L 200.6875 38.287059 
z
" clip-path="url(#p71b90add15)" style="fill: #1f77b4"/>
   </g>
   <g id="patch_29">
    <path d="M 206.774773 339.84 
L 212.862045 339.84 
L 212.862045 23.04 
L 206.774773 23.04 
z
" clip-path="url(#p71b90add15)" style="fill: #1f77b4"/>
   </g>
   <g id="patch_30">
    <path d="M 212.862045 339.84 
L 218.949318 339.84 
L 218.949318 38.287059 
L 212.862045 38.287059 
z
" clip-path="url(#p71b90add15)" style="fill: #1f77b4"/>
   </g>
   <g id="patch_31">
    <path d="M 218.949318 339.84 
L 225.036591 339.84 
L 225.036591 44.216471 
L 218.949318 44.216471 
z
" clip-path="url(#p71b90add15)" style="fill: #1f77b4"/>
   </g>
   <g id="patch_32">
    <path d="M 225.036591 339.84 
L 231.123864 339.84 
L 231.123864 38.287059 
L 225.036591 38.287059 
z
" clip-path="url(#p71b90add15)" style="fill: #1f77b4"/>
   </g>
   <g id="patch_33">
    <path d="M 231.123864 339.84 
L 237.211136 339.84 
L 237.211136 53.534118 
L 231.123864 53.534118 
z
" clip-path="url(#p71b90add15)" style="fill: #1f77b4"/>
   </g>
   <g id="patch_34">
    <path d="M 237.211136 339.84 
L 243.298409 339.84 
L 243.298409 46.757647 
L 237.211136 46.757647 
z
" clip-path="url(#p71b90add15)" style="fill: #1f77b4"/>
   </g>
   <g id="patch_35">
    <path d="M 243.298409 339.84 
L 249.385682 339.84 
L 249.385682 63.698824 
L 243.298409 63.698824 
z
" clip-path="url(#p71b90add15)" style="fill: #1f77b4"/>
   </g>
   <g id="patch_36">
    <path d="M 249.385682 339.84 
L 255.472955 339.84 
L 255.472955 93.345882 
L 249.385682 93.345882 
z
" clip-path="url(#p71b90add15)" style="fill: #1f77b4"/>
   </g>
   <g id="patch_37">
    <path d="M 255.472955 339.84 
L 261.560227 339.84 
L 261.560227 96.734118 
L 255.472955 96.734118 
z
" clip-path="url(#p71b90add15)" style="fill: #1f77b4"/>
   </g>
   <g id="patch_38">
    <path d="M 261.560227 339.84 
L 267.6475 339.84 
L 267.6475 155.181176 
L 261.560227 155.181176 
z
" clip-path="url(#p71b90add15)" style="fill: #1f77b4"/>
   </g>
   <g id="patch_39">
    <path d="M 267.6475 339.84 
L 273.734773 339.84 
L 273.734773 172.122353 
L 267.6475 172.122353 
z
" clip-path="url(#p71b90add15)" style="fill: #1f77b4"/>
   </g>
   <g id="patch_40">
    <path d="M 273.734773 339.84 
L 279.822045 339.84 
L 279.822045 189.910588 
L 273.734773 189.910588 
z
" clip-path="url(#p71b90add15)" style="fill: #1f77b4"/>
   </g>
   <g id="patch_41">
    <path d="M 279.822045 339.84 
L 285.909318 339.84 
L 285.909318 231.416471 
L 279.822045 231.416471 
z
" clip-path="url(#p71b90add15)" style="fill: #1f77b4"/>
   </g>
   <g id="patch_42">
    <path d="M 285.909318 339.84 
L 291.996591 339.84 
L 291.996591 247.510588 
L 285.909318 247.510588 
z
" clip-path="url(#p71b90add15)" style="fill: #1f77b4"/>
   </g>
   <g id="patch_43">
    <path d="M 291.996591 339.84 
L 298.083864 339.84 
L 298.083864 270.381176 
L 291.996591 270.381176 
z
" clip-path="url(#p71b90add15)" style="fill: #1f77b4"/>
   </g>
   <g id="patch_44">
    <path d="M 298.083864 339.84 
L 304.171136 339.84 
L 304.171136 293.251765 
L 298.083864 293.251765 
z
" clip-path="url(#p71b90add15)" style="fill: #1f77b4"/>
   </g>
   <g id="patch_45">
    <path d="M 304.171136 339.84 
L 310.258409 339.84 
L 310.258409 307.651765 
L 304.171136 307.651765 
z
" clip-path="url(#p71b90add15)" style="fill: #1f77b4"/>
   </g>
   <g id="patch_46">
    <path d="M 310.258409 339.84 
L 316.345682 339.84 
L 316.345682 322.898824 
L 310.258409 322.898824 
z
" clip-path="url(#p71b90add15)" style="fill: #1f77b4"/>
   </g>
   <g id="patch_47">
    <path d="M 316.345682 339.84 
L 322.432955 339.84 
L 322.432955 328.828235 
L 316.345682 328.828235 
z
" clip-path="url(#p71b90add15)" style="fill: #1f77b4"/>
   </g>
   <g id="patch_48">
    <path d="M 322.432955 339.84 
L 328.520227 339.84 
L 328.520227 336.451765 
L 322.432955 336.451765 
z
" clip-path="url(#p71b90add15)" style="fill: #1f77b4"/>
   </g>
   <g id="patch_49">
    <path d="M 328.520227 339.84 
L 334.6075 339.84 
L 334.6075 333.910588 
L 328.520227 333.910588 
z
" clip-path="url(#p71b90add15)" style="fill: #1f77b4"/>
   </g>
   <g id="patch_50">
    <path d="M 334.6075 339.84 
L 340.694773 339.84 
L 340.694773 337.298824 
L 334.6075 337.298824 
z
" clip-path="url(#p71b90add15)" style="fill: #1f77b4"/>
   </g>
   <g id="patch_51">
    <path d="M 340.694773 339.84 
L 346.782045 339.84 
L 346.782045 338.992941 
L 340.694773 338.992941 
z
" clip-path="url(#p71b90add15)" style="fill: #1f77b4"/>
   </g>
   <g id="patch_52">
    <path d="M 346.782045 339.84 
L 352.869318 339.84 
L 352.869318 338.992941 
L 346.782045 338.992941 
z
" clip-path="url(#p71b90add15)" style="fill: #1f77b4"/>
   </g>
   <g id="matplotlib.axis_1">
    <g id="xtick_1">
     <g id="line2d_1">
      <defs>
       <path id="m063cff4361" d="M 0 0 
L 0 3.5 
" style="stroke: #000000; stroke-width: 0.8"/>
      </defs>
      <g>
       <use xlink:href="#m063cff4361" x="54.890327" y="339.84" style="stroke: #000000; stroke-width: 0.8"/>
      </g>
     </g>
     <g id="text_1">
      <!-- 2.8 -->
      <g transform="translate(46.938764 354.438438)scale(0.1 -0.1)">
       <defs>
        <path id="DejaVuSans-32" d="M 1228 531 
L 3431 531 
L 3431 0 
L 469 0 
L 469 531 
Q 828 903 1448 1529 
Q 2069 2156 2228 2338 
Q 2531 2678 2651 2914 
Q 2772 3150 2772 3378 
Q 2772 3750 2511 3984 
Q 2250 4219 1831 4219 
Q 1534 4219 1204 4116 
Q 875 4013 500 3803 
L 500 4441 
Q 881 4594 1212 4672 
Q 1544 4750 1819 4750 
Q 2544 4750 2975 4387 
Q 3406 4025 3406 3419 
Q 3406 3131 3298 2873 
Q 3191 2616 2906 2266 
Q 2828 2175 2409 1742 
Q 1991 1309 1228 531 
z
" transform="scale(0.015625)"/>
        <path id="DejaVuSans-2e" d="M 684 794 
L 1344 794 
L 1344 0 
L 684 0 
L 684 794 
z
" transform="scale(0.015625)"/>
        <path id="DejaVuSans-38" d="M 2034 2216 
Q 1584 2216 1326 1975 
Q 1069 1734 1069 1313 
Q 1069 891 1326 650 
Q 1584 409 2034 409 
Q 2484 409 2743 651 
Q 3003 894 3003 1313 
Q 3003 1734 2745 1975 
Q 2488 2216 2034 2216 
z
M 1403 2484 
Q 997 2584 770 2862 
Q 544 3141 544 3541 
Q 544 4100 942 4425 
Q 1341 4750 2034 4750 
Q 2731 4750 3128 4425 
Q 3525 4100 3525 3541 
Q 3525 3141 3298 2862 
Q 3072 2584 2669 2484 
Q 3125 2378 3379 2068 
Q 3634 1759 3634 1313 
Q 3634 634 3220 271 
Q 2806 -91 2034 -91 
Q 1263 -91 848 271 
Q 434 634 434 1313 
Q 434 1759 690 2068 
Q 947 2378 1403 2484 
z
M 1172 3481 
Q 1172 3119 1398 2916 
Q 1625 2713 2034 2713 
Q 2441 2713 2670 2916 
Q 2900 3119 2900 3481 
Q 2900 3844 2670 4047 
Q 2441 4250 2034 4250 
Q 1625 4250 1398 4047 
Q 1172 3844 1172 3481 
z
" transform="scale(0.015625)"/>
       </defs>
       <use xlink:href="#DejaVuSans-32"/>
       <use xlink:href="#DejaVuSans-2e" x="63.623047"/>
       <use xlink:href="#DejaVuSans-38" x="95.410156"/>
      </g>
     </g>
    </g>
    <g id="xtick_2">
     <g id="line2d_2">
      <g>
       <use xlink:href="#m063cff4361" x="122.688834" y="339.84" style="stroke: #000000; stroke-width: 0.8"/>
      </g>
     </g>
     <g id="text_2">
      <!-- 2.9 -->
      <g transform="translate(114.737271 354.438438)scale(0.1 -0.1)">
       <defs>
        <path id="DejaVuSans-39" d="M 703 97 
L 703 672 
Q 941 559 1184 500 
Q 1428 441 1663 441 
Q 2288 441 2617 861 
Q 2947 1281 2994 2138 
Q 2813 1869 2534 1725 
Q 2256 1581 1919 1581 
Q 1219 1581 811 2004 
Q 403 2428 403 3163 
Q 403 3881 828 4315 
Q 1253 4750 1959 4750 
Q 2769 4750 3195 4129 
Q 3622 3509 3622 2328 
Q 3622 1225 3098 567 
Q 2575 -91 1691 -91 
Q 1453 -91 1209 -44 
Q 966 3 703 97 
z
M 1959 2075 
Q 2384 2075 2632 2365 
Q 2881 2656 2881 3163 
Q 2881 3666 2632 3958 
Q 2384 4250 1959 4250 
Q 1534 4250 1286 3958 
Q 1038 3666 1038 3163 
Q 1038 2656 1286 2365 
Q 1534 2075 1959 2075 
z
" transform="scale(0.015625)"/>
       </defs>
       <use xlink:href="#DejaVuSans-32"/>
       <use xlink:href="#DejaVuSans-2e" x="63.623047"/>
       <use xlink:href="#DejaVuSans-39" x="95.410156"/>
      </g>
     </g>
    </g>
    <g id="xtick_3">
     <g id="line2d_3">
      <g>
       <use xlink:href="#m063cff4361" x="190.487341" y="339.84" style="stroke: #000000; stroke-width: 0.8"/>
      </g>
     </g>
     <g id="text_3">
      <!-- 3.0 -->
      <g transform="translate(182.535778 354.438438)scale(0.1 -0.1)">
       <defs>
        <path id="DejaVuSans-33" d="M 2597 2516 
Q 3050 2419 3304 2112 
Q 3559 1806 3559 1356 
Q 3559 666 3084 287 
Q 2609 -91 1734 -91 
Q 1441 -91 1130 -33 
Q 819 25 488 141 
L 488 750 
Q 750 597 1062 519 
Q 1375 441 1716 441 
Q 2309 441 2620 675 
Q 2931 909 2931 1356 
Q 2931 1769 2642 2001 
Q 2353 2234 1838 2234 
L 1294 2234 
L 1294 2753 
L 1863 2753 
Q 2328 2753 2575 2939 
Q 2822 3125 2822 3475 
Q 2822 3834 2567 4026 
Q 2313 4219 1838 4219 
Q 1578 4219 1281 4162 
Q 984 4106 628 3988 
L 628 4550 
Q 988 4650 1302 4700 
Q 1616 4750 1894 4750 
Q 2613 4750 3031 4423 
Q 3450 4097 3450 3541 
Q 3450 3153 3228 2886 
Q 3006 2619 2597 2516 
z
" transform="scale(0.015625)"/>
        <path id="DejaVuSans-30" d="M 2034 4250 
Q 1547 4250 1301 3770 
Q 1056 3291 1056 2328 
Q 1056 1369 1301 889 
Q 1547 409 2034 409 
Q 2525 409 2770 889 
Q 3016 1369 3016 2328 
Q 3016 3291 2770 3770 
Q 2525 4250 2034 4250 
z
M 2034 4750 
Q 2819 4750 3233 4129 
Q 3647 3509 3647 2328 
Q 3647 1150 3233 529 
Q 2819 -91 2034 -91 
Q 1250 -91 836 529 
Q 422 1150 422 2328 
Q 422 3509 836 4129 
Q 1250 4750 2034 4750 
z
" transform="scale(0.015625)"/>
       </defs>
       <use xlink:href="#DejaVuSans-33"/>
       <use xlink:href="#DejaVuSans-2e" x="63.623047"/>
       <use xlink:href="#DejaVuSans-30" x="95.410156"/>
      </g>
     </g>
    </g>
    <g id="xtick_4">
     <g id="line2d_4">
      <g>
       <use xlink:href="#m063cff4361" x="258.285848" y="339.84" style="stroke: #000000; stroke-width: 0.8"/>
      </g>
     </g>
     <g id="text_4">
      <!-- 3.1 -->
      <g transform="translate(250.334285 354.438438)scale(0.1 -0.1)">
       <defs>
        <path id="DejaVuSans-31" d="M 794 531 
L 1825 531 
L 1825 4091 
L 703 3866 
L 703 4441 
L 1819 4666 
L 2450 4666 
L 2450 531 
L 3481 531 
L 3481 0 
L 794 0 
L 794 531 
z
" transform="scale(0.015625)"/>
       </defs>
       <use xlink:href="#DejaVuSans-33"/>
       <use xlink:href="#DejaVuSans-2e" x="63.623047"/>
       <use xlink:href="#DejaVuSans-31" x="95.410156"/>
      </g>
     </g>
    </g>
    <g id="xtick_5">
     <g id="line2d_5">
      <g>
       <use xlink:href="#m063cff4361" x="326.084355" y="339.84" style="stroke: #000000; stroke-width: 0.8"/>
      </g>
     </g>
     <g id="text_5">
      <!-- 3.2 -->
      <g transform="translate(318.132792 354.438438)scale(0.1 -0.1)">
       <use xlink:href="#DejaVuSans-33"/>
       <use xlink:href="#DejaVuSans-2e" x="63.623047"/>
       <use xlink:href="#DejaVuSans-32" x="95.410156"/>
      </g>
     </g>
    </g>
    <g id="text_6">
     <!-- $\mathrm{kpc}$ -->
     <g transform="translate(190.0675 369.638125)scale(0.12 -0.12)">
      <defs>
       <path id="DejaVuSans-6b" d="M 581 4863 
L 1159 4863 
L 1159 1991 
L 2875 3500 
L 3609 3500 
L 1753 1863 
L 3688 0 
L 2938 0 
L 1159 1709 
L 1159 0 
L 581 0 
L 581 4863 
z
" transform="scale(0.015625)"/>
       <path id="DejaVuSans-70" d="M 1159 525 
L 1159 -1331 
L 581 -1331 
L 581 3500 
L 1159 3500 
L 1159 2969 
Q 1341 3281 1617 3432 
Q 1894 3584 2278 3584 
Q 2916 3584 3314 3078 
Q 3713 2572 3713 1747 
Q 3713 922 3314 415 
Q 2916 -91 2278 -91 
Q 1894 -91 1617 61 
Q 1341 213 1159 525 
z
M 3116 1747 
Q 3116 2381 2855 2742 
Q 2594 3103 2138 3103 
Q 1681 3103 1420 2742 
Q 1159 2381 1159 1747 
Q 1159 1113 1420 752 
Q 1681 391 2138 391 
Q 2594 391 2855 752 
Q 3116 1113 3116 1747 
z
" transform="scale(0.015625)"/>
       <path id="DejaVuSans-63" d="M 3122 3366 
L 3122 2828 
Q 2878 2963 2633 3030 
Q 2388 3097 2138 3097 
Q 1578 3097 1268 2742 
Q 959 2388 959 1747 
Q 959 1106 1268 751 
Q 1578 397 2138 397 
Q 2388 397 2633 464 
Q 2878 531 3122 666 
L 3122 134 
Q 2881 22 2623 -34 
Q 2366 -91 2075 -91 
Q 1284 -91 818 406 
Q 353 903 353 1747 
Q 353 2603 823 3093 
Q 1294 3584 2113 3584 
Q 2378 3584 2631 3529 
Q 2884 3475 3122 3366 
z
" transform="scale(0.015625)"/>
      </defs>
      <use xlink:href="#DejaVuSans-6b" transform="translate(0 0.015625)"/>
      <use xlink:href="#DejaVuSans-70" transform="translate(57.910156 0.015625)"/>
      <use xlink:href="#DejaVuSans-63" transform="translate(121.386719 0.015625)"/>
     </g>
    </g>
   </g>
   <g id="matplotlib.axis_2">
    <g id="ytick_1">
     <g id="line2d_6">
      <defs>
       <path id="m429d15055b" d="M 0 0 
L -3.5 0 
" style="stroke: #000000; stroke-width: 0.8"/>
      </defs>
      <g>
       <use xlink:href="#m429d15055b" x="33.2875" y="339.84" style="stroke: #000000; stroke-width: 0.8"/>
      </g>
     </g>
     <g id="text_7">
      <!-- 0 -->
      <g transform="translate(19.925 343.639219)scale(0.1 -0.1)">
       <use xlink:href="#DejaVuSans-30"/>
      </g>
     </g>
    </g>
    <g id="ytick_2">
     <g id="line2d_7">
      <g>
       <use xlink:href="#m429d15055b" x="33.2875" y="297.487059" style="stroke: #000000; stroke-width: 0.8"/>
      </g>
     </g>
     <g id="text_8">
      <!-- 50 -->
      <g transform="translate(13.5625 301.286278)scale(0.1 -0.1)">
       <defs>
        <path id="DejaVuSans-35" d="M 691 4666 
L 3169 4666 
L 3169 4134 
L 1269 4134 
L 1269 2991 
Q 1406 3038 1543 3061 
Q 1681 3084 1819 3084 
Q 2600 3084 3056 2656 
Q 3513 2228 3513 1497 
Q 3513 744 3044 326 
Q 2575 -91 1722 -91 
Q 1428 -91 1123 -41 
Q 819 9 494 109 
L 494 744 
Q 775 591 1075 516 
Q 1375 441 1709 441 
Q 2250 441 2565 725 
Q 2881 1009 2881 1497 
Q 2881 1984 2565 2268 
Q 2250 2553 1709 2553 
Q 1456 2553 1204 2497 
Q 953 2441 691 2322 
L 691 4666 
z
" transform="scale(0.015625)"/>
       </defs>
       <use xlink:href="#DejaVuSans-35"/>
       <use xlink:href="#DejaVuSans-30" x="63.623047"/>
      </g>
     </g>
    </g>
    <g id="ytick_3">
     <g id="line2d_8">
      <g>
       <use xlink:href="#m429d15055b" x="33.2875" y="255.134118" style="stroke: #000000; stroke-width: 0.8"/>
      </g>
     </g>
     <g id="text_9">
      <!-- 100 -->
      <g transform="translate(7.2 258.933336)scale(0.1 -0.1)">
       <use xlink:href="#DejaVuSans-31"/>
       <use xlink:href="#DejaVuSans-30" x="63.623047"/>
       <use xlink:href="#DejaVuSans-30" x="127.246094"/>
      </g>
     </g>
    </g>
    <g id="ytick_4">
     <g id="line2d_9">
      <g>
       <use xlink:href="#m429d15055b" x="33.2875" y="212.781176" style="stroke: #000000; stroke-width: 0.8"/>
      </g>
     </g>
     <g id="text_10">
      <!-- 150 -->
      <g transform="translate(7.2 216.580395)scale(0.1 -0.1)">
       <use xlink:href="#DejaVuSans-31"/>
       <use xlink:href="#DejaVuSans-35" x="63.623047"/>
       <use xlink:href="#DejaVuSans-30" x="127.246094"/>
      </g>
     </g>
    </g>
    <g id="ytick_5">
     <g id="line2d_10">
      <g>
       <use xlink:href="#m429d15055b" x="33.2875" y="170.428235" style="stroke: #000000; stroke-width: 0.8"/>
      </g>
     </g>
     <g id="text_11">
      <!-- 200 -->
      <g transform="translate(7.2 174.227454)scale(0.1 -0.1)">
       <use xlink:href="#DejaVuSans-32"/>
       <use xlink:href="#DejaVuSans-30" x="63.623047"/>
       <use xlink:href="#DejaVuSans-30" x="127.246094"/>
      </g>
     </g>
    </g>
    <g id="ytick_6">
     <g id="line2d_11">
      <g>
       <use xlink:href="#m429d15055b" x="33.2875" y="128.075294" style="stroke: #000000; stroke-width: 0.8"/>
      </g>
     </g>
     <g id="text_12">
      <!-- 250 -->
      <g transform="translate(7.2 131.874513)scale(0.1 -0.1)">
       <use xlink:href="#DejaVuSans-32"/>
       <use xlink:href="#DejaVuSans-35" x="63.623047"/>
       <use xlink:href="#DejaVuSans-30" x="127.246094"/>
      </g>
     </g>
    </g>
    <g id="ytick_7">
     <g id="line2d_12">
      <g>
       <use xlink:href="#m429d15055b" x="33.2875" y="85.722353" style="stroke: #000000; stroke-width: 0.8"/>
      </g>
     </g>
     <g id="text_13">
      <!-- 300 -->
      <g transform="translate(7.2 89.521572)scale(0.1 -0.1)">
       <use xlink:href="#DejaVuSans-33"/>
       <use xlink:href="#DejaVuSans-30" x="63.623047"/>
       <use xlink:href="#DejaVuSans-30" x="127.246094"/>
      </g>
     </g>
    </g>
    <g id="ytick_8">
     <g id="line2d_13">
      <g>
       <use xlink:href="#m429d15055b" x="33.2875" y="43.369412" style="stroke: #000000; stroke-width: 0.8"/>
      </g>
     </g>
     <g id="text_14">
      <!-- 350 -->
      <g transform="translate(7.2 47.168631)scale(0.1 -0.1)">
       <use xlink:href="#DejaVuSans-33"/>
       <use xlink:href="#DejaVuSans-35" x="63.623047"/>
       <use xlink:href="#DejaVuSans-30" x="127.246094"/>
      </g>
     </g>
    </g>
   </g>
   <g id="patch_53">
    <path d="M 33.2875 339.84 
L 33.2875 7.2 
" style="fill: none; stroke: #000000; stroke-width: 0.8; stroke-linejoin: miter; stroke-linecap: square"/>
   </g>
   <g id="patch_54">
    <path d="M 368.0875 339.84 
L 368.0875 7.2 
" style="fill: none; stroke: #000000; stroke-width: 0.8; stroke-linejoin: miter; stroke-linecap: square"/>
   </g>
   <g id="patch_55">
    <path d="M 33.2875 339.84 
L 368.0875 339.84 
" style="fill: none; stroke: #000000; stroke-width: 0.8; stroke-linejoin: miter; stroke-linecap: square"/>
   </g>
   <g id="patch_56">
    <path d="M 33.2875 7.2 
L 368.0875 7.2 
" style="fill: none; stroke: #000000; stroke-width: 0.8; stroke-linejoin: miter; stroke-linecap: square"/>
   </g>
  </g>
 </g>
 <defs>
  <clipPath id="p71b90add15">
   <rect x="33.2875" y="7.2" width="334.8" height="332.64"/>
  </clipPath>
 </defs>
</svg>
