<?xml version="1.0" encoding="utf-8" standalone="no"?>
<!DOCTYPE svg PUBLIC "-//W3C//DTD SVG 1.1//EN"
  "http://www.w3.org/Graphics/SVG/1.1/DTD/svg11.dtd">
<svg xmlns:xlink="http://www.w3.org/1999/xlink" width="372.103125pt" height="280.558125pt" viewBox="0 0 372.103125 280.558125" xmlns="http://www.w3.org/2000/svg" version="1.1">
 <metadata>
  <rdf:RDF xmlns:dc="http://purl.org/dc/elements/1.1/" xmlns:cc="http://creativecommons.org/ns#" xmlns:rdf="http://www.w3.org/1999/02/22-rdf-syntax-ns#">
   <cc:Work>
    <dc:type rdf:resource="http://purl.org/dc/dcmitype/StillImage"/>
    <dc:date>2022-05-03T11:27:16.710549</dc:date>
    <dc:format>image/svg+xml</dc:format>
    <dc:creator>
     <cc:Agent>
      <dc:title>Matplotlib v3.5.2, https://matplotlib.org/</dc:title>
     </cc:Agent>
    </dc:creator>
   </cc:Work>
  </rdf:RDF>
 </metadata>
 <defs>
  <style type="text/css">*{stroke-linejoin: round; stroke-linecap: butt}</style>
 </defs>
 <g id="figure_1">
  <g id="patch_1">
   <path d="M 0 280.558125 
L 372.103125 280.558125 
L 372.103125 0 
L 0 0 
L 0 280.558125 
z
" style="fill: none"/>
  </g>
  <g id="axes_1">
   <g id="patch_2">
    <path d="M 30.103125 256.68 
L 364.903125 256.68 
L 364.903125 7.2 
L 30.103125 7.2 
z
" style="fill: #ffffff"/>
   </g>
   <g id="matplotlib.axis_1">
    <g id="xtick_1">
     <g id="line2d_1">
      <defs>
       <path id="m0e9678a87f" d="M 0 0 
L 0 3.5 
" style="stroke: #000000; stroke-width: 0.8"/>
      </defs>
      <g>
       <use xlink:href="#m0e9678a87f" x="45.199464" y="256.68" style="stroke: #000000; stroke-width: 0.8"/>
      </g>
     </g>
     <g id="text_1">
      <!-- 0.0 -->
      <g transform="translate(37.247901 271.278437)scale(0.1 -0.1)">
       <defs>
        <path id="DejaVuSans-30" d="M 2034 4250 
Q 1547 4250 1301 3770 
Q 1056 3291 1056 2328 
Q 1056 1369 1301 889 
Q 1547 409 2034 409 
Q 2525 409 2770 889 
Q 3016 1369 3016 2328 
Q 3016 3291 2770 3770 
Q 2525 4250 2034 4250 
z
M 2034 4750 
Q 2819 4750 3233 4129 
Q 3647 3509 3647 2328 
Q 3647 1150 3233 529 
Q 2819 -91 2034 -91 
Q 1250 -91 836 529 
Q 422 1150 422 2328 
Q 422 3509 836 4129 
Q 1250 4750 2034 4750 
z
" transform="scale(0.015625)"/>
        <path id="DejaVuSans-2e" d="M 684 794 
L 1344 794 
L 1344 0 
L 684 0 
L 684 794 
z
" transform="scale(0.015625)"/>
       </defs>
       <use xlink:href="#DejaVuSans-30"/>
       <use xlink:href="#DejaVuSans-2e" x="63.623047"/>
       <use xlink:href="#DejaVuSans-30" x="95.410156"/>
      </g>
     </g>
    </g>
    <g id="xtick_2">
     <g id="line2d_2">
      <g>
       <use xlink:href="#m0e9678a87f" x="104.187286" y="256.68" style="stroke: #000000; stroke-width: 0.8"/>
      </g>
     </g>
     <g id="text_2">
      <!-- 0.5 -->
      <g transform="translate(96.235724 271.278437)scale(0.1 -0.1)">
       <defs>
        <path id="DejaVuSans-35" d="M 691 4666 
L 3169 4666 
L 3169 4134 
L 1269 4134 
L 1269 2991 
Q 1406 3038 1543 3061 
Q 1681 3084 1819 3084 
Q 2600 3084 3056 2656 
Q 3513 2228 3513 1497 
Q 3513 744 3044 326 
Q 2575 -91 1722 -91 
Q 1428 -91 1123 -41 
Q 819 9 494 109 
L 494 744 
Q 775 591 1075 516 
Q 1375 441 1709 441 
Q 2250 441 2565 725 
Q 2881 1009 2881 1497 
Q 2881 1984 2565 2268 
Q 2250 2553 1709 2553 
Q 1456 2553 1204 2497 
Q 953 2441 691 2322 
L 691 4666 
z
" transform="scale(0.015625)"/>
       </defs>
       <use xlink:href="#DejaVuSans-30"/>
       <use xlink:href="#DejaVuSans-2e" x="63.623047"/>
       <use xlink:href="#DejaVuSans-35" x="95.410156"/>
      </g>
     </g>
    </g>
    <g id="xtick_3">
     <g id="line2d_3">
      <g>
       <use xlink:href="#m0e9678a87f" x="163.175108" y="256.68" style="stroke: #000000; stroke-width: 0.8"/>
      </g>
     </g>
     <g id="text_3">
      <!-- 1.0 -->
      <g transform="translate(155.223546 271.278437)scale(0.1 -0.1)">
       <defs>
        <path id="DejaVuSans-31" d="M 794 531 
L 1825 531 
L 1825 4091 
L 703 3866 
L 703 4441 
L 1819 4666 
L 2450 4666 
L 2450 531 
L 3481 531 
L 3481 0 
L 794 0 
L 794 531 
z
" transform="scale(0.015625)"/>
       </defs>
       <use xlink:href="#DejaVuSans-31"/>
       <use xlink:href="#DejaVuSans-2e" x="63.623047"/>
       <use xlink:href="#DejaVuSans-30" x="95.410156"/>
      </g>
     </g>
    </g>
    <g id="xtick_4">
     <g id="line2d_4">
      <g>
       <use xlink:href="#m0e9678a87f" x="222.16293" y="256.68" style="stroke: #000000; stroke-width: 0.8"/>
      </g>
     </g>
     <g id="text_4">
      <!-- 1.5 -->
      <g transform="translate(214.211368 271.278437)scale(0.1 -0.1)">
       <use xlink:href="#DejaVuSans-31"/>
       <use xlink:href="#DejaVuSans-2e" x="63.623047"/>
       <use xlink:href="#DejaVuSans-35" x="95.410156"/>
      </g>
     </g>
    </g>
    <g id="xtick_5">
     <g id="line2d_5">
      <g>
       <use xlink:href="#m0e9678a87f" x="281.150752" y="256.68" style="stroke: #000000; stroke-width: 0.8"/>
      </g>
     </g>
     <g id="text_5">
      <!-- 2.0 -->
      <g transform="translate(273.19919 271.278437)scale(0.1 -0.1)">
       <defs>
        <path id="DejaVuSans-32" d="M 1228 531 
L 3431 531 
L 3431 0 
L 469 0 
L 469 531 
Q 828 903 1448 1529 
Q 2069 2156 2228 2338 
Q 2531 2678 2651 2914 
Q 2772 3150 2772 3378 
Q 2772 3750 2511 3984 
Q 2250 4219 1831 4219 
Q 1534 4219 1204 4116 
Q 875 4013 500 3803 
L 500 4441 
Q 881 4594 1212 4672 
Q 1544 4750 1819 4750 
Q 2544 4750 2975 4387 
Q 3406 4025 3406 3419 
Q 3406 3131 3298 2873 
Q 3191 2616 2906 2266 
Q 2828 2175 2409 1742 
Q 1991 1309 1228 531 
z
" transform="scale(0.015625)"/>
       </defs>
       <use xlink:href="#DejaVuSans-32"/>
       <use xlink:href="#DejaVuSans-2e" x="63.623047"/>
       <use xlink:href="#DejaVuSans-30" x="95.410156"/>
      </g>
     </g>
    </g>
    <g id="xtick_6">
     <g id="line2d_6">
      <g>
       <use xlink:href="#m0e9678a87f" x="340.138575" y="256.68" style="stroke: #000000; stroke-width: 0.8"/>
      </g>
     </g>
     <g id="text_6">
      <!-- 2.5 -->
      <g transform="translate(332.187012 271.278437)scale(0.1 -0.1)">
       <use xlink:href="#DejaVuSans-32"/>
       <use xlink:href="#DejaVuSans-2e" x="63.623047"/>
       <use xlink:href="#DejaVuSans-35" x="95.410156"/>
      </g>
     </g>
    </g>
   </g>
   <g id="matplotlib.axis_2">
    <g id="ytick_1">
     <g id="line2d_7">
      <defs>
       <path id="m7f22dd05de" d="M 0 0 
L -3.5 0 
" style="stroke: #000000; stroke-width: 0.8"/>
      </defs>
      <g>
       <use xlink:href="#m7f22dd05de" x="30.103125" y="245.340187" style="stroke: #000000; stroke-width: 0.8"/>
      </g>
     </g>
     <g id="text_7">
      <!-- 0.0 -->
      <g transform="translate(7.2 249.139405)scale(0.1 -0.1)">
       <use xlink:href="#DejaVuSans-30"/>
       <use xlink:href="#DejaVuSans-2e" x="63.623047"/>
       <use xlink:href="#DejaVuSans-30" x="95.410156"/>
      </g>
     </g>
    </g>
    <g id="ytick_2">
     <g id="line2d_8">
      <g>
       <use xlink:href="#m7f22dd05de" x="30.103125" y="198.477539" style="stroke: #000000; stroke-width: 0.8"/>
      </g>
     </g>
     <g id="text_8">
      <!-- 0.2 -->
      <g transform="translate(7.2 202.276758)scale(0.1 -0.1)">
       <use xlink:href="#DejaVuSans-30"/>
       <use xlink:href="#DejaVuSans-2e" x="63.623047"/>
       <use xlink:href="#DejaVuSans-32" x="95.410156"/>
      </g>
     </g>
    </g>
    <g id="ytick_3">
     <g id="line2d_9">
      <g>
       <use xlink:href="#m7f22dd05de" x="30.103125" y="151.614891" style="stroke: #000000; stroke-width: 0.8"/>
      </g>
     </g>
     <g id="text_9">
      <!-- 0.4 -->
      <g transform="translate(7.2 155.41411)scale(0.1 -0.1)">
       <defs>
        <path id="DejaVuSans-34" d="M 2419 4116 
L 825 1625 
L 2419 1625 
L 2419 4116 
z
M 2253 4666 
L 3047 4666 
L 3047 1625 
L 3713 1625 
L 3713 1100 
L 3047 1100 
L 3047 0 
L 2419 0 
L 2419 1100 
L 313 1100 
L 313 1709 
L 2253 4666 
z
" transform="scale(0.015625)"/>
       </defs>
       <use xlink:href="#DejaVuSans-30"/>
       <use xlink:href="#DejaVuSans-2e" x="63.623047"/>
       <use xlink:href="#DejaVuSans-34" x="95.410156"/>
      </g>
     </g>
    </g>
    <g id="ytick_4">
     <g id="line2d_10">
      <g>
       <use xlink:href="#m7f22dd05de" x="30.103125" y="104.752244" style="stroke: #000000; stroke-width: 0.8"/>
      </g>
     </g>
     <g id="text_10">
      <!-- 0.6 -->
      <g transform="translate(7.2 108.551462)scale(0.1 -0.1)">
       <defs>
        <path id="DejaVuSans-36" d="M 2113 2584 
Q 1688 2584 1439 2293 
Q 1191 2003 1191 1497 
Q 1191 994 1439 701 
Q 1688 409 2113 409 
Q 2538 409 2786 701 
Q 3034 994 3034 1497 
Q 3034 2003 2786 2293 
Q 2538 2584 2113 2584 
z
M 3366 4563 
L 3366 3988 
Q 3128 4100 2886 4159 
Q 2644 4219 2406 4219 
Q 1781 4219 1451 3797 
Q 1122 3375 1075 2522 
Q 1259 2794 1537 2939 
Q 1816 3084 2150 3084 
Q 2853 3084 3261 2657 
Q 3669 2231 3669 1497 
Q 3669 778 3244 343 
Q 2819 -91 2113 -91 
Q 1303 -91 875 529 
Q 447 1150 447 2328 
Q 447 3434 972 4092 
Q 1497 4750 2381 4750 
Q 2619 4750 2861 4703 
Q 3103 4656 3366 4563 
z
" transform="scale(0.015625)"/>
       </defs>
       <use xlink:href="#DejaVuSans-30"/>
       <use xlink:href="#DejaVuSans-2e" x="63.623047"/>
       <use xlink:href="#DejaVuSans-36" x="95.410156"/>
      </g>
     </g>
    </g>
    <g id="ytick_5">
     <g id="line2d_11">
      <g>
       <use xlink:href="#m7f22dd05de" x="30.103125" y="57.889596" style="stroke: #000000; stroke-width: 0.8"/>
      </g>
     </g>
     <g id="text_11">
      <!-- 0.8 -->
      <g transform="translate(7.2 61.688815)scale(0.1 -0.1)">
       <defs>
        <path id="DejaVuSans-38" d="M 2034 2216 
Q 1584 2216 1326 1975 
Q 1069 1734 1069 1313 
Q 1069 891 1326 650 
Q 1584 409 2034 409 
Q 2484 409 2743 651 
Q 3003 894 3003 1313 
Q 3003 1734 2745 1975 
Q 2488 2216 2034 2216 
z
M 1403 2484 
Q 997 2584 770 2862 
Q 544 3141 544 3541 
Q 544 4100 942 4425 
Q 1341 4750 2034 4750 
Q 2731 4750 3128 4425 
Q 3525 4100 3525 3541 
Q 3525 3141 3298 2862 
Q 3072 2584 2669 2484 
Q 3125 2378 3379 2068 
Q 3634 1759 3634 1313 
Q 3634 634 3220 271 
Q 2806 -91 2034 -91 
Q 1263 -91 848 271 
Q 434 634 434 1313 
Q 434 1759 690 2068 
Q 947 2378 1403 2484 
z
M 1172 3481 
Q 1172 3119 1398 2916 
Q 1625 2713 2034 2713 
Q 2441 2713 2670 2916 
Q 2900 3119 2900 3481 
Q 2900 3844 2670 4047 
Q 2441 4250 2034 4250 
Q 1625 4250 1398 4047 
Q 1172 3844 1172 3481 
z
" transform="scale(0.015625)"/>
       </defs>
       <use xlink:href="#DejaVuSans-30"/>
       <use xlink:href="#DejaVuSans-2e" x="63.623047"/>
       <use xlink:href="#DejaVuSans-38" x="95.410156"/>
      </g>
     </g>
    </g>
    <g id="ytick_6">
     <g id="line2d_12">
      <g>
       <use xlink:href="#m7f22dd05de" x="30.103125" y="11.026948" style="stroke: #000000; stroke-width: 0.8"/>
      </g>
     </g>
     <g id="text_12">
      <!-- 1.0 -->
      <g transform="translate(7.2 14.826167)scale(0.1 -0.1)">
       <use xlink:href="#DejaVuSans-31"/>
       <use xlink:href="#DejaVuSans-2e" x="63.623047"/>
       <use xlink:href="#DejaVuSans-30" x="95.410156"/>
      </g>
     </g>
    </g>
   </g>
   <g id="line2d_13">
    <path d="M 45.321307 244.459114 
L 45.808679 244.158789 
L 46.539736 243.023229 
L 47.027108 243.274883 
L 47.758165 241.287963 
L 48.001851 241.006992 
L 48.245537 241.209401 
L 48.489223 241.769986 
L 48.732909 241.38685 
L 49.220281 237.056338 
L 49.463966 236.68528 
L 49.707652 238.137671 
L 50.43871 244.990665 
L 50.682396 245.204617 
L 50.926082 244.505045 
L 51.413453 241.825637 
L 51.657139 239.168781 
L 52.144511 230.285995 
L 52.388197 228.484116 
L 52.631883 230.301065 
L 53.36294 242.090944 
L 53.606626 243.607314 
L 54.093998 245.096808 
L 54.337684 245.293083 
L 54.581369 244.586579 
L 55.556113 237.110896 
L 55.799799 237.889029 
L 56.530856 245.007979 
L 56.774542 245.226394 
L 57.5056 242.236458 
L 57.992971 241.924079 
L 58.236657 241.425815 
L 58.480343 240.605308 
L 58.724029 240.399925 
L 58.967715 241.633204 
L 59.455087 245.003137 
L 59.698772 245.041427 
L 60.186144 243.260862 
L 60.673516 243.103537 
L 60.917202 242.248519 
L 61.404573 239.258538 
L 61.648259 239.020883 
L 61.891945 241.099962 
L 62.135631 244.23694 
L 62.379317 244.558532 
L 63.110374 237.054955 
L 63.35406 238.950508 
L 63.841432 245.309734 
L 64.085118 244.297288 
L 64.328804 242.627503 
L 64.57249 242.825422 
L 64.816175 244.465388 
L 65.059861 244.67937 
L 65.790919 234.690175 
L 66.034605 236.014764 
L 66.521976 242.792769 
L 66.765662 240.305353 
L 67.253034 229.878033 
L 67.49672 230.020877 
L 68.471463 244.152352 
L 68.715149 244.13995 
L 69.202521 243.155682 
L 69.446207 242.950767 
L 69.689893 242.286683 
L 70.42095 236.902105 
L 70.664636 238.232959 
L 71.152008 243.107623 
L 71.395694 240.504531 
L 71.883065 226.998877 
L 72.126751 224.800282 
L 72.370437 227.074952 
L 73.101495 243.296276 
L 73.34518 245.198998 
L 73.588866 244.73366 
L 74.319924 241.377328 
L 74.56361 242.030029 
L 74.807296 243.57104 
L 75.050981 244.035327 
L 75.294667 242.167526 
L 75.782039 236.355931 
L 76.025725 236.957107 
L 76.756782 244.217279 
L 77.000468 244.600386 
L 77.244154 244.511016 
L 77.975212 244.648613 
L 78.462583 243.765717 
L 78.706269 243.798782 
L 78.949955 243.975291 
L 79.193641 243.889975 
L 79.924699 242.950651 
L 80.168384 243.00045 
L 80.41207 243.294416 
L 81.386814 245.256293 
L 81.6305 245.096203 
L 81.874185 244.319348 
L 82.117871 242.769361 
L 82.605243 238.086197 
L 82.848929 236.926338 
L 83.092615 237.484932 
L 84.067358 244.201581 
L 84.311044 242.478534 
L 85.285787 231.098347 
L 85.529473 231.479413 
L 85.773159 234.105416 
L 86.504217 244.785965 
L 86.747903 244.890603 
L 87.47896 239.489549 
L 87.722646 240.350615 
L 88.210018 245.119709 
L 88.453704 244.667843 
L 89.428447 232.24802 
L 89.672133 233.924758 
L 90.403191 241.685147 
L 90.646876 243.494294 
L 90.890562 243.480331 
L 91.377934 239.597971 
L 91.62162 239.078244 
L 91.865306 240.52976 
L 92.352677 244.723372 
L 92.596363 245.207903 
L 92.840049 245.052107 
L 93.083735 245.110029 
L 93.327421 245.323673 
L 93.571107 245.123388 
L 93.814793 244.693442 
L 94.058478 244.58931 
L 94.302164 244.760895 
L 94.54585 243.823195 
L 95.276908 233.274117 
L 95.520594 233.30208 
L 95.764279 236.330999 
L 96.251651 243.550678 
L 96.495337 243.438562 
L 96.739023 242.723527 
L 96.982709 243.273248 
L 97.226395 244.724365 
L 97.47008 245.233445 
L 98.444824 241.281 
L 98.68851 239.083286 
L 99.175881 233.739797 
L 99.419567 235.991244 
L 99.663253 240.420649 
L 99.906939 241.650573 
L 100.637997 229.44701 
L 100.881682 229.401203 
L 101.125368 234.012058 
L 101.61274 244.965152 
L 101.856426 244.027184 
L 102.587483 231.94263 
L 102.831169 233.044348 
L 103.318541 240.513103 
L 103.562227 241.228499 
L 104.049599 235.726665 
L 104.293284 235.624727 
L 105.024342 244.56908 
L 105.268028 243.67095 
L 105.999085 234.344284 
L 106.242771 235.695013 
L 106.973829 244.561676 
L 107.217515 244.1566 
L 107.948572 238.231493 
L 108.192258 238.788227 
L 108.67963 241.501118 
L 108.923316 241.643025 
L 109.167002 240.683073 
L 109.654373 237.81448 
L 109.898059 238.12434 
L 110.872803 245.103104 
L 111.116488 245.336629 
L 111.360174 245.120712 
L 111.60386 244.382367 
L 112.334918 240.140051 
L 112.578604 240.404699 
L 113.309661 245.235571 
L 113.553347 245.140931 
L 113.797033 244.422216 
L 114.040719 244.053533 
L 114.52809 244.821432 
L 114.771776 244.07504 
L 115.015462 241.093847 
L 115.502834 232.131978 
L 115.74652 229.39674 
L 115.990206 229.260599 
L 116.233891 232.25259 
L 116.721263 240.580564 
L 116.964949 242.889924 
L 117.208635 243.784766 
L 117.452321 243.651616 
L 117.696007 243.107879 
L 117.939692 242.182119 
L 118.427064 239.856374 
L 118.67075 240.705855 
L 118.914436 242.530128 
L 119.158122 243.412845 
L 119.401808 241.316676 
L 119.889179 231.089176 
L 120.132865 229.550963 
L 120.376551 232.689691 
L 120.863923 243.644524 
L 121.107609 244.794188 
L 121.838666 238.768157 
L 122.569724 238.207821 
L 122.81341 238.321928 
L 123.057095 239.281307 
L 123.788153 244.346659 
L 124.031839 244.936755 
L 124.275525 245.116938 
L 124.519211 245.082116 
L 124.762896 244.838023 
L 125.006582 244.255158 
L 125.250268 243.118629 
L 125.73764 238.679569 
L 125.981326 235.583222 
L 126.225012 233.931619 
L 126.468697 235.550602 
L 126.956069 241.3671 
L 127.199755 243.098133 
L 127.443441 241.564701 
L 127.687127 237.667878 
L 127.930813 235.671104 
L 128.174498 237.152317 
L 128.66187 244.862209 
L 128.905556 244.471957 
L 129.636614 232.426535 
L 129.880299 235.006211 
L 130.367671 244.781778 
L 130.611357 243.295224 
L 131.098729 236.180649 
L 131.342415 238.228859 
L 131.5861 241.615226 
L 131.829786 242.934792 
L 132.073472 241.669527 
L 132.560844 235.46016 
L 132.80453 236.39447 
L 133.291901 243.082635 
L 133.535587 243.661644 
L 133.779273 243.55559 
L 134.266645 243.741209 
L 134.510331 242.840041 
L 134.754017 241.101148 
L 134.997702 240.662283 
L 135.72876 245.290188 
L 135.972446 245.087074 
L 136.216132 244.381567 
L 136.459818 244.296849 
L 136.703503 244.915482 
L 136.947189 245.177311 
L 137.190875 244.549178 
L 137.678247 242.662048 
L 137.921933 243.233332 
L 138.409304 244.762417 
L 138.65299 244.551436 
L 139.384048 240.868057 
L 139.627734 240.460071 
L 139.87142 241.502541 
L 140.358791 245.135684 
L 140.602477 244.365013 
L 141.577221 232.612127 
L 141.820906 232.430999 
L 142.064592 234.413487 
L 142.79565 244.386085 
L 143.039336 244.953649 
L 143.283022 243.756626 
L 143.770393 240.629877 
L 144.014079 241.170785 
L 144.501451 245.163575 
L 144.745137 244.772611 
L 144.988823 241.748015 
L 145.476194 232.829373 
L 145.71988 232.786369 
L 146.450938 245.2494 
L 146.694624 244.330671 
L 147.181995 239.612017 
L 147.425681 239.63018 
L 148.156739 243.664674 
L 148.400425 244.051759 
L 148.644111 243.85065 
L 148.887796 243.184629 
L 149.618854 240.35432 
L 149.86254 240.41731 
L 150.349912 241.930613 
L 151.080969 244.993124 
L 151.324655 244.717793 
L 151.812027 243.048175 
L 152.055713 243.447192 
L 152.543084 245.126465 
L 152.78677 245.335917 
L 153.274142 245.247369 
L 153.517828 244.129963 
L 154.005199 236.967292 
L 154.248885 233.642927 
L 154.492571 233.567601 
L 154.979943 241.658828 
L 155.223629 242.7301 
L 155.467315 241.470786 
L 155.711 241.10109 
L 155.954686 241.907211 
L 156.198372 242.243522 
L 156.442058 240.531617 
L 156.685744 237.285569 
L 156.92943 235.797291 
L 157.173116 237.810806 
L 157.660487 244.436391 
L 157.904173 244.804891 
L 158.147859 243.676713 
L 158.391545 243.188563 
L 158.878917 244.507792 
L 159.122602 242.474363 
L 159.85366 228.483881 
L 160.097346 230.114456 
L 160.828403 245.202857 
L 161.072089 242.664925 
L 161.315775 236.287613 
L 161.559461 234.163997 
L 162.046833 241.926254 
L 162.290519 228.215546 
L 162.534204 175.003228 
L 163.021576 26.861202 
L 163.265262 18.54 
L 163.508948 57.126085 
L 164.240005 242.489635 
L 164.483691 239.382127 
L 164.727377 222.957109 
L 164.971063 214.832929 
L 165.214749 220.399341 
L 165.702121 240.860633 
L 165.945806 241.948482 
L 166.189492 240.765247 
L 166.433178 241.215317 
L 166.676864 243.038333 
L 166.92055 243.61685 
L 167.651607 239.630156 
L 167.895293 240.194799 
L 168.382665 241.861532 
L 168.626351 242.198158 
L 169.113723 242.424945 
L 169.357408 242.225019 
L 169.601094 241.506361 
L 170.088466 239.727581 
L 170.332152 240.382514 
L 171.063209 245.137321 
L 171.306895 242.822207 
L 171.794267 233.985743 
L 172.037953 231.501834 
L 172.281639 231.45668 
L 172.76901 235.933831 
L 173.012696 236.700556 
L 173.256382 237.022245 
L 173.743754 238.443665 
L 173.98744 238.518642 
L 174.231126 237.852716 
L 174.474811 237.708809 
L 174.718497 239.202931 
L 174.962183 241.466753 
L 175.205869 242.660318 
L 175.449555 242.661814 
L 175.936927 242.428244 
L 176.180612 242.427725 
L 176.424298 243.039414 
L 176.91167 244.707437 
L 177.155356 244.294283 
L 177.399042 243.032815 
L 177.642728 240.954733 
L 178.130099 232.981548 
L 178.617471 224.94996 
L 178.861157 224.302763 
L 179.104843 228.163705 
L 179.592214 242.481541 
L 179.8359 244.147782 
L 180.323272 229.352522 
L 180.566958 227.876636 
L 180.810644 231.48114 
L 181.298015 241.151734 
L 181.541701 242.911253 
L 181.785387 243.036926 
L 182.029073 243.541128 
L 182.272759 244.581939 
L 182.516445 245.030617 
L 183.003816 244.192188 
L 183.247502 244.397893 
L 183.491188 244.792235 
L 183.734874 244.10819 
L 184.465932 238.531748 
L 184.709617 239.377119 
L 185.196989 242.535877 
L 185.440675 243.473331 
L 185.684361 243.467669 
L 185.928047 241.914145 
L 186.415418 236.237428 
L 186.659104 237.466633 
L 187.146476 244.754048 
L 187.390162 244.444549 
L 188.121219 230.88294 
L 188.364905 233.128036 
L 188.608591 236.58086 
L 188.852277 238.186043 
L 189.339649 236.765565 
L 190.070706 240.761182 
L 190.314392 240.941033 
L 190.558078 240.677099 
L 190.801764 240.996707 
L 191.532821 244.824927 
L 191.776507 245.256647 
L 192.020193 245.269789 
L 192.507565 244.879659 
L 192.751251 244.417559 
L 192.994937 243.541395 
L 193.725994 239.54797 
L 193.96968 240.057791 
L 194.457052 244.790834 
L 194.700738 243.800434 
L 195.188109 235.513022 
L 195.431795 235.526823 
L 195.919167 243.621941 
L 196.162853 241.160849 
L 196.89391 215.386296 
L 197.137596 222.19591 
L 197.624968 244.899075 
L 197.868654 241.935835 
L 198.356026 221.575375 
L 198.599711 218.677439 
L 198.843397 224.130232 
L 199.330769 241.22246 
L 199.574455 243.702586 
L 199.818141 242.515764 
L 200.305512 238.854806 
L 200.792884 238.112524 
L 201.03657 237.348724 
L 201.280256 237.475019 
L 202.254999 244.477022 
L 202.498685 244.97926 
L 202.742371 245.101468 
L 202.986057 244.793578 
L 203.229743 243.72133 
L 203.9608 237.711821 
L 204.204486 237.181184 
L 204.448172 237.360381 
L 204.935544 237.946226 
L 205.17923 237.799455 
L 205.422915 237.129395 
L 205.666601 236.784451 
L 205.910287 238.015062 
L 206.641345 245.157518 
L 206.885031 243.804986 
L 207.616088 232.736848 
L 207.859774 232.550676 
L 208.10346 234.0898 
L 209.078203 244.449711 
L 209.321889 245.273673 
L 209.565575 245.188473 
L 210.052947 244.213979 
L 210.540318 243.400639 
L 211.02769 241.443699 
L 211.758748 237.750018 
L 212.002434 238.446856 
L 212.733491 245.108761 
L 212.977177 245.134328 
L 213.220863 243.651389 
L 213.708235 237.663006 
L 214.195606 231.222078 
L 214.439292 232.126253 
L 214.926664 241.889609 
L 215.17035 242.985866 
L 215.414036 239.797356 
L 215.657721 235.135639 
L 215.901407 233.427661 
L 216.145093 236.502297 
L 216.632465 244.731694 
L 216.876151 245.142426 
L 217.119837 244.023213 
L 217.363522 243.481418 
L 218.09458 245.34 
L 218.581952 244.758401 
L 218.825638 244.026499 
L 219.313009 242.077873 
L 219.556695 242.496738 
L 220.044067 245.161561 
L 220.287753 244.945652 
L 220.775124 241.818593 
L 221.01881 242.306383 
L 221.506182 245.024927 
L 221.749868 243.176462 
L 222.23724 236.175111 
L 222.480925 236.345936 
L 223.455669 244.292585 
L 223.699355 245.274735 
L 223.943041 244.924311 
L 224.186726 243.830297 
L 224.430412 243.454472 
L 224.917784 245.334698 
L 225.16147 243.321215 
L 225.648842 232.119162 
L 225.892527 229.934638 
L 226.136213 232.677649 
L 226.623585 240.736796 
L 226.867271 239.883231 
L 227.110957 237.693874 
L 227.354643 236.836013 
L 227.598328 237.54475 
L 228.573072 242.873579 
L 229.060444 245.135823 
L 229.304129 244.783221 
L 229.791501 241.613847 
L 230.035187 241.798244 
L 230.522559 244.842425 
L 230.766245 245.19041 
L 231.253616 244.375704 
L 231.497302 244.494818 
L 231.984674 245.100161 
L 232.472046 245.303301 
L 232.715731 244.973036 
L 232.959417 243.822639 
L 233.446789 240.284419 
L 233.690475 240.240525 
L 234.665218 245.256185 
L 234.908904 244.791976 
L 235.639962 242.546581 
L 235.883648 241.424223 
L 236.127333 240.87444 
L 236.371019 241.375782 
L 237.102077 245.1976 
L 237.345763 244.868836 
L 237.833134 242.951344 
L 238.07682 243.40526 
L 238.320506 244.098857 
L 238.564192 243.403543 
L 239.051564 240.883529 
L 239.29525 241.463279 
L 239.782621 244.022935 
L 240.026307 243.220849 
L 240.513679 235.95909 
L 240.757365 235.969828 
L 241.488422 244.908755 
L 241.732108 245.159742 
L 242.21948 242.482021 
L 242.463166 242.283518 
L 242.706852 242.777584 
L 243.194223 244.556783 
L 243.437909 244.94097 
L 243.681595 245.008063 
L 244.168967 244.772973 
L 244.656338 244.593688 
L 244.900024 244.561417 
L 245.14371 244.37697 
L 245.387396 243.81354 
L 245.874768 242.124306 
L 246.118454 241.614134 
L 246.362139 241.815247 
L 246.849511 244.325424 
L 247.093197 244.707617 
L 247.336883 243.979436 
L 248.311626 239.252473 
L 248.798998 233.553986 
L 249.042684 232.931633 
L 249.28637 235.50976 
L 249.773741 244.611923 
L 250.017427 244.971278 
L 250.504799 238.93846 
L 250.748485 238.270392 
L 251.235857 244.299671 
L 251.479542 245.302258 
L 251.723228 243.673941 
L 252.2106 237.776031 
L 252.454286 237.948123 
L 252.941658 241.689009 
L 253.185344 242.562007 
L 253.429029 242.007152 
L 253.916401 239.430975 
L 254.160087 238.942559 
L 254.403773 239.420572 
L 255.13483 243.575331 
L 255.378516 243.385749 
L 255.865888 241.912142 
L 256.109574 241.695643 
L 256.596946 242.372649 
L 256.840631 241.860525 
L 257.328003 239.255967 
L 257.571689 239.155587 
L 257.815375 239.418394 
L 258.059061 238.565161 
L 258.546432 232.809888 
L 258.790118 229.692635 
L 259.033804 228.395387 
L 259.27749 231.063682 
L 259.764862 241.792079 
L 260.008548 242.076488 
L 260.739605 236.809389 
L 260.983291 238.760249 
L 261.470663 244.60099 
L 261.714349 245.274954 
L 262.20172 243.175531 
L 262.445406 242.875409 
L 262.689092 243.304347 
L 263.176464 244.496166 
L 263.42015 243.979535 
L 263.907521 242.294529 
L 264.151207 242.451359 
L 264.638579 243.272191 
L 264.882265 243.340446 
L 265.125951 243.017973 
L 265.613322 241.168444 
L 265.857008 241.726552 
L 266.34438 244.690804 
L 266.588066 245.326021 
L 266.831752 244.813763 
L 267.319123 242.600825 
L 267.562809 242.698629 
L 267.806495 243.179802 
L 268.050181 243.285889 
L 268.537553 242.994437 
L 268.781238 243.144929 
L 269.26861 244.029283 
L 269.755982 244.379982 
L 270.243354 245.106299 
L 270.487039 244.648341 
L 271.218097 239.251647 
L 271.461783 239.45711 
L 271.949155 242.209214 
L 272.19284 240.928484 
L 272.436526 237.724236 
L 272.680212 237.104891 
L 273.167584 242.594255 
L 273.41127 243.582019 
L 273.654956 242.130965 
L 274.386013 229.808758 
L 274.629699 231.989009 
L 275.117071 243.397704 
L 275.360757 245.230076 
L 275.604442 244.591217 
L 275.848128 243.217213 
L 276.091814 242.793224 
L 276.579186 245.178313 
L 276.822872 245.160618 
L 277.066558 244.770546 
L 277.310243 244.808451 
L 277.553929 245.20246 
L 277.797615 245.288676 
L 278.041301 244.548202 
L 278.284987 243.417858 
L 278.528673 243.12101 
L 279.016044 245.282283 
L 279.25973 244.688323 
L 279.747102 239.520538 
L 279.990788 238.523597 
L 280.234474 239.718947 
L 280.721845 242.795641 
L 280.965531 242.507505 
L 281.452903 239.276232 
L 281.696589 239.413034 
L 282.427646 244.725708 
L 282.671332 244.852779 
L 283.158704 243.745138 
L 283.40239 243.811347 
L 283.889762 244.955765 
L 284.133447 244.674282 
L 284.620819 240.970542 
L 284.864505 239.292744 
L 285.108191 238.868921 
L 285.351877 239.843596 
L 286.082934 245.119201 
L 286.32662 244.776323 
L 286.570306 242.751897 
L 287.057678 235.975024 
L 287.301364 234.193832 
L 287.545049 234.310622 
L 287.788735 236.181879 
L 288.519793 244.327687 
L 288.763479 245.296393 
L 289.007165 244.753178 
L 289.25085 242.705849 
L 289.738222 236.541536 
L 289.981908 235.310951 
L 290.46928 238.339378 
L 290.712966 237.548384 
L 290.956651 235.21038 
L 291.200337 233.969109 
L 291.444023 234.068279 
L 291.687709 235.385933 
L 292.418767 245.315874 
L 292.662452 243.165077 
L 293.39351 231.056287 
L 293.637196 232.461168 
L 294.124568 239.514965 
L 294.611939 243.980012 
L 294.855625 245.029065 
L 295.099311 244.755396 
L 295.586683 242.092151 
L 296.074054 238.859512 
L 296.31774 238.893405 
L 297.048798 244.84391 
L 297.292484 245.077751 
L 297.53617 243.509271 
L 297.779855 241.213265 
L 298.023541 240.087681 
L 298.267227 240.888403 
L 298.754599 244.445582 
L 298.998285 245.238533 
L 299.241971 245.260619 
L 299.973028 244.465645 
L 300.216714 244.563719 
L 300.704086 245.259768 
L 300.947772 244.732199 
L 301.435143 242.27875 
L 301.678829 242.524157 
L 302.166201 245.270126 
L 302.409887 244.280996 
L 303.140944 234.517715 
L 303.38463 235.112534 
L 303.872002 242.234008 
L 304.115688 243.63606 
L 304.359374 242.505557 
L 305.090431 235.752619 
L 305.334117 236.215497 
L 306.065175 244.534295 
L 306.30886 244.358968 
L 306.552546 243.629565 
L 306.796232 243.715643 
L 307.039918 244.711874 
L 307.283604 245.171576 
L 307.52729 243.689685 
L 308.014662 239.243406 
L 308.989405 232.441428 
L 309.233091 229.976841 
L 309.476777 231.172781 
L 310.207834 244.875255 
L 310.45152 245.226418 
L 310.938892 245.285439 
L 311.182578 244.270238 
L 311.913635 234.936302 
L 312.157321 236.906139 
L 312.644693 241.987569 
L 312.888379 242.523317 
L 313.37575 241.408375 
L 313.619436 242.026397 
L 314.106808 245.15736 
L 314.350494 245.097618 
L 314.59418 243.600891 
L 315.568923 234.658739 
L 315.812609 232.869356 
L 316.056295 233.019551 
L 316.787352 244.736107 
L 317.031038 244.756841 
L 317.762096 235.575272 
L 318.005782 236.985254 
L 318.249468 237.562961 
L 318.736839 233.464849 
L 318.980525 234.209498 
L 319.711583 244.989449 
L 319.955269 244.047174 
L 320.44264 238.107655 
L 320.686326 238.029853 
L 320.930012 238.457859 
L 321.173698 236.207639 
L 321.66107 226.931348 
L 321.904755 226.168299 
L 322.148441 229.011333 
L 322.879499 244.108987 
L 323.123185 244.879323 
L 323.854242 231.208861 
L 324.097928 234.581095 
L 324.341614 241.135193 
L 324.5853 243.925839 
L 324.828986 239.022326 
L 325.072672 230.95283 
L 325.316357 227.541783 
L 325.560043 231.52499 
L 326.047415 243.978363 
L 326.291101 243.791516 
L 326.534787 241.238053 
L 326.778473 240.754711 
L 327.022158 242.786692 
L 327.265844 243.666431 
L 327.50953 241.45747 
L 327.753216 238.104029 
L 327.996902 236.447571 
L 328.240588 238.045522 
L 328.727959 244.894346 
L 328.971645 245.142785 
L 329.215331 244.486333 
L 329.459017 244.601534 
L 329.702703 245.049981 
L 329.946389 244.81425 
L 330.190075 244.098063 
L 330.43376 243.946403 
L 330.677446 244.443381 
L 330.921132 243.709944 
L 331.164818 239.457286 
L 331.65219 227.698985 
L 331.895876 227.368183 
L 332.626933 240.87965 
L 332.870619 241.498975 
L 333.114305 241.771262 
L 333.845362 245.065791 
L 334.089048 245.27871 
L 334.820106 244.844845 
L 335.063792 244.567625 
L 335.551163 244.42168 
L 335.794849 243.376991 
L 336.282221 235.010248 
L 336.525907 231.17248 
L 336.769593 229.459058 
L 337.013279 231.080933 
L 337.50065 239.73963 
L 338.231708 227.501205 
L 338.475394 226.558229 
L 338.71908 228.625331 
L 339.206451 241.841191 
L 339.450137 244.574367 
L 339.693823 242.405426 
L 339.937509 237.670935 
L 340.181195 235.225144 
L 340.424881 236.631668 
L 340.912252 244.029471 
L 341.155938 245.008312 
L 341.886996 235.596789 
L 342.130682 235.333179 
L 342.374367 237.078632 
L 342.861739 243.284046 
L 343.105425 244.308994 
L 343.349111 243.884875 
L 343.836483 241.594444 
L 344.080168 240.175022 
L 344.323854 239.46283 
L 344.56754 240.18732 
L 345.054912 243.084354 
L 345.298598 243.790241 
L 345.542284 243.70089 
L 345.785969 243.246575 
L 346.029655 243.154523 
L 346.517027 244.294492 
L 346.760713 244.864264 
L 347.004399 245.062194 
L 347.248085 244.788504 
L 347.49177 243.91023 
L 348.222828 239.555617 
L 348.466514 240.528338 
L 348.953886 244.251062 
L 349.197571 243.738135 
L 349.684943 235.65667 
L 349.684943 235.65667 
" clip-path="url(#p5262eece53)" style="fill: none; stroke: #1f77b4; stroke-width: 1.5; stroke-linecap: square"/>
   </g>
   <g id="patch_3">
    <path d="M 30.103125 256.68 
L 30.103125 7.2 
" style="fill: none; stroke: #000000; stroke-width: 0.8; stroke-linejoin: miter; stroke-linecap: square"/>
   </g>
   <g id="patch_4">
    <path d="M 364.903125 256.68 
L 364.903125 7.2 
" style="fill: none; stroke: #000000; stroke-width: 0.8; stroke-linejoin: miter; stroke-linecap: square"/>
   </g>
   <g id="patch_5">
    <path d="M 30.103125 256.68 
L 364.903125 256.68 
" style="fill: none; stroke: #000000; stroke-width: 0.8; stroke-linejoin: miter; stroke-linecap: square"/>
   </g>
   <g id="patch_6">
    <path d="M 30.103125 7.2 
L 364.903125 7.2 
" style="fill: none; stroke: #000000; stroke-width: 0.8; stroke-linejoin: miter; stroke-linecap: square"/>
   </g>
  </g>
 </g>
 <defs>
  <clipPath id="p5262eece53">
   <rect x="30.103125" y="7.2" width="334.8" height="249.48"/>
  </clipPath>
 </defs>
</svg>
