<?xml version="1.0" encoding="utf-8" standalone="no"?>
<!DOCTYPE svg PUBLIC "-//W3C//DTD SVG 1.1//EN"
  "http://www.w3.org/Graphics/SVG/1.1/DTD/svg11.dtd">
<svg xmlns:xlink="http://www.w3.org/1999/xlink" width="395.31375pt" height="311.29pt" viewBox="0 0 395.31375 311.29" xmlns="http://www.w3.org/2000/svg" version="1.1">
 <metadata>
  <rdf:RDF xmlns:dc="http://purl.org/dc/elements/1.1/" xmlns:cc="http://creativecommons.org/ns#" xmlns:rdf="http://www.w3.org/1999/02/22-rdf-syntax-ns#">
   <cc:Work>
    <dc:type rdf:resource="http://purl.org/dc/dcmitype/StillImage"/>
    <dc:date>2022-05-09T09:56:32.922147</dc:date>
    <dc:format>image/svg+xml</dc:format>
    <dc:creator>
     <cc:Agent>
      <dc:title>Matplotlib v3.5.1, https://matplotlib.org/</dc:title>
     </cc:Agent>
    </dc:creator>
   </cc:Work>
  </rdf:RDF>
 </metadata>
 <defs>
  <style type="text/css">*{stroke-linejoin: round; stroke-linecap: butt}</style>
 </defs>
 <g id="figure_1">
  <g id="patch_1">
   <path d="M 0 311.29 
L 395.31375 311.29 
L 395.31375 0 
L 0 0 
L 0 311.29 
z
" style="fill: none"/>
  </g>
  <g id="axes_1">
   <g id="patch_2">
    <path d="M 53.31375 271.798125 
L 388.11375 271.798125 
L 388.11375 22.318125 
L 53.31375 22.318125 
z
" style="fill: #ffffff"/>
   </g>
   <g id="matplotlib.axis_1">
    <g id="xtick_1">
     <g id="line2d_1">
      <defs>
       <path id="m2369987570" d="M 0 0 
L 0 3.5 
" style="stroke: #000000; stroke-width: 0.8"/>
      </defs>
      <g>
       <use xlink:href="#m2369987570" x="53.31375" y="271.798125" style="stroke: #000000; stroke-width: 0.8"/>
      </g>
     </g>
     <g id="text_1">
      <!-- 0.00 -->
      <g transform="translate(42.180938 286.396562)scale(0.1 -0.1)">
       <defs>
        <path id="DejaVuSans-30" d="M 2034 4250 
Q 1547 4250 1301 3770 
Q 1056 3291 1056 2328 
Q 1056 1369 1301 889 
Q 1547 409 2034 409 
Q 2525 409 2770 889 
Q 3016 1369 3016 2328 
Q 3016 3291 2770 3770 
Q 2525 4250 2034 4250 
z
M 2034 4750 
Q 2819 4750 3233 4129 
Q 3647 3509 3647 2328 
Q 3647 1150 3233 529 
Q 2819 -91 2034 -91 
Q 1250 -91 836 529 
Q 422 1150 422 2328 
Q 422 3509 836 4129 
Q 1250 4750 2034 4750 
z
" transform="scale(0.015625)"/>
        <path id="DejaVuSans-2e" d="M 684 794 
L 1344 794 
L 1344 0 
L 684 0 
L 684 794 
z
" transform="scale(0.015625)"/>
       </defs>
       <use xlink:href="#DejaVuSans-30"/>
       <use xlink:href="#DejaVuSans-2e" x="63.623047"/>
       <use xlink:href="#DejaVuSans-30" x="95.410156"/>
       <use xlink:href="#DejaVuSans-30" x="159.033203"/>
      </g>
     </g>
    </g>
    <g id="xtick_2">
     <g id="line2d_2">
      <g>
       <use xlink:href="#m2369987570" x="97.95375" y="271.798125" style="stroke: #000000; stroke-width: 0.8"/>
      </g>
     </g>
     <g id="text_2">
      <!-- 0.02 -->
      <g transform="translate(86.820938 286.396562)scale(0.1 -0.1)">
       <defs>
        <path id="DejaVuSans-32" d="M 1228 531 
L 3431 531 
L 3431 0 
L 469 0 
L 469 531 
Q 828 903 1448 1529 
Q 2069 2156 2228 2338 
Q 2531 2678 2651 2914 
Q 2772 3150 2772 3378 
Q 2772 3750 2511 3984 
Q 2250 4219 1831 4219 
Q 1534 4219 1204 4116 
Q 875 4013 500 3803 
L 500 4441 
Q 881 4594 1212 4672 
Q 1544 4750 1819 4750 
Q 2544 4750 2975 4387 
Q 3406 4025 3406 3419 
Q 3406 3131 3298 2873 
Q 3191 2616 2906 2266 
Q 2828 2175 2409 1742 
Q 1991 1309 1228 531 
z
" transform="scale(0.015625)"/>
       </defs>
       <use xlink:href="#DejaVuSans-30"/>
       <use xlink:href="#DejaVuSans-2e" x="63.623047"/>
       <use xlink:href="#DejaVuSans-30" x="95.410156"/>
       <use xlink:href="#DejaVuSans-32" x="159.033203"/>
      </g>
     </g>
    </g>
    <g id="xtick_3">
     <g id="line2d_3">
      <g>
       <use xlink:href="#m2369987570" x="142.59375" y="271.798125" style="stroke: #000000; stroke-width: 0.8"/>
      </g>
     </g>
     <g id="text_3">
      <!-- 0.04 -->
      <g transform="translate(131.460938 286.396562)scale(0.1 -0.1)">
       <defs>
        <path id="DejaVuSans-34" d="M 2419 4116 
L 825 1625 
L 2419 1625 
L 2419 4116 
z
M 2253 4666 
L 3047 4666 
L 3047 1625 
L 3713 1625 
L 3713 1100 
L 3047 1100 
L 3047 0 
L 2419 0 
L 2419 1100 
L 313 1100 
L 313 1709 
L 2253 4666 
z
" transform="scale(0.015625)"/>
       </defs>
       <use xlink:href="#DejaVuSans-30"/>
       <use xlink:href="#DejaVuSans-2e" x="63.623047"/>
       <use xlink:href="#DejaVuSans-30" x="95.410156"/>
       <use xlink:href="#DejaVuSans-34" x="159.033203"/>
      </g>
     </g>
    </g>
    <g id="xtick_4">
     <g id="line2d_4">
      <g>
       <use xlink:href="#m2369987570" x="187.23375" y="271.798125" style="stroke: #000000; stroke-width: 0.8"/>
      </g>
     </g>
     <g id="text_4">
      <!-- 0.06 -->
      <g transform="translate(176.100937 286.396562)scale(0.1 -0.1)">
       <defs>
        <path id="DejaVuSans-36" d="M 2113 2584 
Q 1688 2584 1439 2293 
Q 1191 2003 1191 1497 
Q 1191 994 1439 701 
Q 1688 409 2113 409 
Q 2538 409 2786 701 
Q 3034 994 3034 1497 
Q 3034 2003 2786 2293 
Q 2538 2584 2113 2584 
z
M 3366 4563 
L 3366 3988 
Q 3128 4100 2886 4159 
Q 2644 4219 2406 4219 
Q 1781 4219 1451 3797 
Q 1122 3375 1075 2522 
Q 1259 2794 1537 2939 
Q 1816 3084 2150 3084 
Q 2853 3084 3261 2657 
Q 3669 2231 3669 1497 
Q 3669 778 3244 343 
Q 2819 -91 2113 -91 
Q 1303 -91 875 529 
Q 447 1150 447 2328 
Q 447 3434 972 4092 
Q 1497 4750 2381 4750 
Q 2619 4750 2861 4703 
Q 3103 4656 3366 4563 
z
" transform="scale(0.015625)"/>
       </defs>
       <use xlink:href="#DejaVuSans-30"/>
       <use xlink:href="#DejaVuSans-2e" x="63.623047"/>
       <use xlink:href="#DejaVuSans-30" x="95.410156"/>
       <use xlink:href="#DejaVuSans-36" x="159.033203"/>
      </g>
     </g>
    </g>
    <g id="xtick_5">
     <g id="line2d_5">
      <g>
       <use xlink:href="#m2369987570" x="231.87375" y="271.798125" style="stroke: #000000; stroke-width: 0.8"/>
      </g>
     </g>
     <g id="text_5">
      <!-- 0.08 -->
      <g transform="translate(220.740938 286.396562)scale(0.1 -0.1)">
       <defs>
        <path id="DejaVuSans-38" d="M 2034 2216 
Q 1584 2216 1326 1975 
Q 1069 1734 1069 1313 
Q 1069 891 1326 650 
Q 1584 409 2034 409 
Q 2484 409 2743 651 
Q 3003 894 3003 1313 
Q 3003 1734 2745 1975 
Q 2488 2216 2034 2216 
z
M 1403 2484 
Q 997 2584 770 2862 
Q 544 3141 544 3541 
Q 544 4100 942 4425 
Q 1341 4750 2034 4750 
Q 2731 4750 3128 4425 
Q 3525 4100 3525 3541 
Q 3525 3141 3298 2862 
Q 3072 2584 2669 2484 
Q 3125 2378 3379 2068 
Q 3634 1759 3634 1313 
Q 3634 634 3220 271 
Q 2806 -91 2034 -91 
Q 1263 -91 848 271 
Q 434 634 434 1313 
Q 434 1759 690 2068 
Q 947 2378 1403 2484 
z
M 1172 3481 
Q 1172 3119 1398 2916 
Q 1625 2713 2034 2713 
Q 2441 2713 2670 2916 
Q 2900 3119 2900 3481 
Q 2900 3844 2670 4047 
Q 2441 4250 2034 4250 
Q 1625 4250 1398 4047 
Q 1172 3844 1172 3481 
z
" transform="scale(0.015625)"/>
       </defs>
       <use xlink:href="#DejaVuSans-30"/>
       <use xlink:href="#DejaVuSans-2e" x="63.623047"/>
       <use xlink:href="#DejaVuSans-30" x="95.410156"/>
       <use xlink:href="#DejaVuSans-38" x="159.033203"/>
      </g>
     </g>
    </g>
    <g id="xtick_6">
     <g id="line2d_6">
      <g>
       <use xlink:href="#m2369987570" x="276.51375" y="271.798125" style="stroke: #000000; stroke-width: 0.8"/>
      </g>
     </g>
     <g id="text_6">
      <!-- 0.10 -->
      <g transform="translate(265.380938 286.396562)scale(0.1 -0.1)">
       <defs>
        <path id="DejaVuSans-31" d="M 794 531 
L 1825 531 
L 1825 4091 
L 703 3866 
L 703 4441 
L 1819 4666 
L 2450 4666 
L 2450 531 
L 3481 531 
L 3481 0 
L 794 0 
L 794 531 
z
" transform="scale(0.015625)"/>
       </defs>
       <use xlink:href="#DejaVuSans-30"/>
       <use xlink:href="#DejaVuSans-2e" x="63.623047"/>
       <use xlink:href="#DejaVuSans-31" x="95.410156"/>
       <use xlink:href="#DejaVuSans-30" x="159.033203"/>
      </g>
     </g>
    </g>
    <g id="xtick_7">
     <g id="line2d_7">
      <g>
       <use xlink:href="#m2369987570" x="321.15375" y="271.798125" style="stroke: #000000; stroke-width: 0.8"/>
      </g>
     </g>
     <g id="text_7">
      <!-- 0.12 -->
      <g transform="translate(310.020938 286.396562)scale(0.1 -0.1)">
       <use xlink:href="#DejaVuSans-30"/>
       <use xlink:href="#DejaVuSans-2e" x="63.623047"/>
       <use xlink:href="#DejaVuSans-31" x="95.410156"/>
       <use xlink:href="#DejaVuSans-32" x="159.033203"/>
      </g>
     </g>
    </g>
    <g id="xtick_8">
     <g id="line2d_8">
      <g>
       <use xlink:href="#m2369987570" x="365.79375" y="271.798125" style="stroke: #000000; stroke-width: 0.8"/>
      </g>
     </g>
     <g id="text_8">
      <!-- 0.14 -->
      <g transform="translate(354.660938 286.396562)scale(0.1 -0.1)">
       <use xlink:href="#DejaVuSans-30"/>
       <use xlink:href="#DejaVuSans-2e" x="63.623047"/>
       <use xlink:href="#DejaVuSans-31" x="95.410156"/>
       <use xlink:href="#DejaVuSans-34" x="159.033203"/>
      </g>
     </g>
    </g>
    <g id="text_9">
     <!-- Value of Highest Periodogram Peak -->
     <g transform="translate(115.4475 301.594375)scale(0.12 -0.12)">
      <defs>
       <path id="DejaVuSans-56" d="M 1831 0 
L 50 4666 
L 709 4666 
L 2188 738 
L 3669 4666 
L 4325 4666 
L 2547 0 
L 1831 0 
z
" transform="scale(0.015625)"/>
       <path id="DejaVuSans-61" d="M 2194 1759 
Q 1497 1759 1228 1600 
Q 959 1441 959 1056 
Q 959 750 1161 570 
Q 1363 391 1709 391 
Q 2188 391 2477 730 
Q 2766 1069 2766 1631 
L 2766 1759 
L 2194 1759 
z
M 3341 1997 
L 3341 0 
L 2766 0 
L 2766 531 
Q 2569 213 2275 61 
Q 1981 -91 1556 -91 
Q 1019 -91 701 211 
Q 384 513 384 1019 
Q 384 1609 779 1909 
Q 1175 2209 1959 2209 
L 2766 2209 
L 2766 2266 
Q 2766 2663 2505 2880 
Q 2244 3097 1772 3097 
Q 1472 3097 1187 3025 
Q 903 2953 641 2809 
L 641 3341 
Q 956 3463 1253 3523 
Q 1550 3584 1831 3584 
Q 2591 3584 2966 3190 
Q 3341 2797 3341 1997 
z
" transform="scale(0.015625)"/>
       <path id="DejaVuSans-6c" d="M 603 4863 
L 1178 4863 
L 1178 0 
L 603 0 
L 603 4863 
z
" transform="scale(0.015625)"/>
       <path id="DejaVuSans-75" d="M 544 1381 
L 544 3500 
L 1119 3500 
L 1119 1403 
Q 1119 906 1312 657 
Q 1506 409 1894 409 
Q 2359 409 2629 706 
Q 2900 1003 2900 1516 
L 2900 3500 
L 3475 3500 
L 3475 0 
L 2900 0 
L 2900 538 
Q 2691 219 2414 64 
Q 2138 -91 1772 -91 
Q 1169 -91 856 284 
Q 544 659 544 1381 
z
M 1991 3584 
L 1991 3584 
z
" transform="scale(0.015625)"/>
       <path id="DejaVuSans-65" d="M 3597 1894 
L 3597 1613 
L 953 1613 
Q 991 1019 1311 708 
Q 1631 397 2203 397 
Q 2534 397 2845 478 
Q 3156 559 3463 722 
L 3463 178 
Q 3153 47 2828 -22 
Q 2503 -91 2169 -91 
Q 1331 -91 842 396 
Q 353 884 353 1716 
Q 353 2575 817 3079 
Q 1281 3584 2069 3584 
Q 2775 3584 3186 3129 
Q 3597 2675 3597 1894 
z
M 3022 2063 
Q 3016 2534 2758 2815 
Q 2500 3097 2075 3097 
Q 1594 3097 1305 2825 
Q 1016 2553 972 2059 
L 3022 2063 
z
" transform="scale(0.015625)"/>
       <path id="DejaVuSans-20" transform="scale(0.015625)"/>
       <path id="DejaVuSans-6f" d="M 1959 3097 
Q 1497 3097 1228 2736 
Q 959 2375 959 1747 
Q 959 1119 1226 758 
Q 1494 397 1959 397 
Q 2419 397 2687 759 
Q 2956 1122 2956 1747 
Q 2956 2369 2687 2733 
Q 2419 3097 1959 3097 
z
M 1959 3584 
Q 2709 3584 3137 3096 
Q 3566 2609 3566 1747 
Q 3566 888 3137 398 
Q 2709 -91 1959 -91 
Q 1206 -91 779 398 
Q 353 888 353 1747 
Q 353 2609 779 3096 
Q 1206 3584 1959 3584 
z
" transform="scale(0.015625)"/>
       <path id="DejaVuSans-66" d="M 2375 4863 
L 2375 4384 
L 1825 4384 
Q 1516 4384 1395 4259 
Q 1275 4134 1275 3809 
L 1275 3500 
L 2222 3500 
L 2222 3053 
L 1275 3053 
L 1275 0 
L 697 0 
L 697 3053 
L 147 3053 
L 147 3500 
L 697 3500 
L 697 3744 
Q 697 4328 969 4595 
Q 1241 4863 1831 4863 
L 2375 4863 
z
" transform="scale(0.015625)"/>
       <path id="DejaVuSans-48" d="M 628 4666 
L 1259 4666 
L 1259 2753 
L 3553 2753 
L 3553 4666 
L 4184 4666 
L 4184 0 
L 3553 0 
L 3553 2222 
L 1259 2222 
L 1259 0 
L 628 0 
L 628 4666 
z
" transform="scale(0.015625)"/>
       <path id="DejaVuSans-69" d="M 603 3500 
L 1178 3500 
L 1178 0 
L 603 0 
L 603 3500 
z
M 603 4863 
L 1178 4863 
L 1178 4134 
L 603 4134 
L 603 4863 
z
" transform="scale(0.015625)"/>
       <path id="DejaVuSans-67" d="M 2906 1791 
Q 2906 2416 2648 2759 
Q 2391 3103 1925 3103 
Q 1463 3103 1205 2759 
Q 947 2416 947 1791 
Q 947 1169 1205 825 
Q 1463 481 1925 481 
Q 2391 481 2648 825 
Q 2906 1169 2906 1791 
z
M 3481 434 
Q 3481 -459 3084 -895 
Q 2688 -1331 1869 -1331 
Q 1566 -1331 1297 -1286 
Q 1028 -1241 775 -1147 
L 775 -588 
Q 1028 -725 1275 -790 
Q 1522 -856 1778 -856 
Q 2344 -856 2625 -561 
Q 2906 -266 2906 331 
L 2906 616 
Q 2728 306 2450 153 
Q 2172 0 1784 0 
Q 1141 0 747 490 
Q 353 981 353 1791 
Q 353 2603 747 3093 
Q 1141 3584 1784 3584 
Q 2172 3584 2450 3431 
Q 2728 3278 2906 2969 
L 2906 3500 
L 3481 3500 
L 3481 434 
z
" transform="scale(0.015625)"/>
       <path id="DejaVuSans-68" d="M 3513 2113 
L 3513 0 
L 2938 0 
L 2938 2094 
Q 2938 2591 2744 2837 
Q 2550 3084 2163 3084 
Q 1697 3084 1428 2787 
Q 1159 2491 1159 1978 
L 1159 0 
L 581 0 
L 581 4863 
L 1159 4863 
L 1159 2956 
Q 1366 3272 1645 3428 
Q 1925 3584 2291 3584 
Q 2894 3584 3203 3211 
Q 3513 2838 3513 2113 
z
" transform="scale(0.015625)"/>
       <path id="DejaVuSans-73" d="M 2834 3397 
L 2834 2853 
Q 2591 2978 2328 3040 
Q 2066 3103 1784 3103 
Q 1356 3103 1142 2972 
Q 928 2841 928 2578 
Q 928 2378 1081 2264 
Q 1234 2150 1697 2047 
L 1894 2003 
Q 2506 1872 2764 1633 
Q 3022 1394 3022 966 
Q 3022 478 2636 193 
Q 2250 -91 1575 -91 
Q 1294 -91 989 -36 
Q 684 19 347 128 
L 347 722 
Q 666 556 975 473 
Q 1284 391 1588 391 
Q 1994 391 2212 530 
Q 2431 669 2431 922 
Q 2431 1156 2273 1281 
Q 2116 1406 1581 1522 
L 1381 1569 
Q 847 1681 609 1914 
Q 372 2147 372 2553 
Q 372 3047 722 3315 
Q 1072 3584 1716 3584 
Q 2034 3584 2315 3537 
Q 2597 3491 2834 3397 
z
" transform="scale(0.015625)"/>
       <path id="DejaVuSans-74" d="M 1172 4494 
L 1172 3500 
L 2356 3500 
L 2356 3053 
L 1172 3053 
L 1172 1153 
Q 1172 725 1289 603 
Q 1406 481 1766 481 
L 2356 481 
L 2356 0 
L 1766 0 
Q 1100 0 847 248 
Q 594 497 594 1153 
L 594 3053 
L 172 3053 
L 172 3500 
L 594 3500 
L 594 4494 
L 1172 4494 
z
" transform="scale(0.015625)"/>
       <path id="DejaVuSans-50" d="M 1259 4147 
L 1259 2394 
L 2053 2394 
Q 2494 2394 2734 2622 
Q 2975 2850 2975 3272 
Q 2975 3691 2734 3919 
Q 2494 4147 2053 4147 
L 1259 4147 
z
M 628 4666 
L 2053 4666 
Q 2838 4666 3239 4311 
Q 3641 3956 3641 3272 
Q 3641 2581 3239 2228 
Q 2838 1875 2053 1875 
L 1259 1875 
L 1259 0 
L 628 0 
L 628 4666 
z
" transform="scale(0.015625)"/>
       <path id="DejaVuSans-72" d="M 2631 2963 
Q 2534 3019 2420 3045 
Q 2306 3072 2169 3072 
Q 1681 3072 1420 2755 
Q 1159 2438 1159 1844 
L 1159 0 
L 581 0 
L 581 3500 
L 1159 3500 
L 1159 2956 
Q 1341 3275 1631 3429 
Q 1922 3584 2338 3584 
Q 2397 3584 2469 3576 
Q 2541 3569 2628 3553 
L 2631 2963 
z
" transform="scale(0.015625)"/>
       <path id="DejaVuSans-64" d="M 2906 2969 
L 2906 4863 
L 3481 4863 
L 3481 0 
L 2906 0 
L 2906 525 
Q 2725 213 2448 61 
Q 2172 -91 1784 -91 
Q 1150 -91 751 415 
Q 353 922 353 1747 
Q 353 2572 751 3078 
Q 1150 3584 1784 3584 
Q 2172 3584 2448 3432 
Q 2725 3281 2906 2969 
z
M 947 1747 
Q 947 1113 1208 752 
Q 1469 391 1925 391 
Q 2381 391 2643 752 
Q 2906 1113 2906 1747 
Q 2906 2381 2643 2742 
Q 2381 3103 1925 3103 
Q 1469 3103 1208 2742 
Q 947 2381 947 1747 
z
" transform="scale(0.015625)"/>
       <path id="DejaVuSans-6d" d="M 3328 2828 
Q 3544 3216 3844 3400 
Q 4144 3584 4550 3584 
Q 5097 3584 5394 3201 
Q 5691 2819 5691 2113 
L 5691 0 
L 5113 0 
L 5113 2094 
Q 5113 2597 4934 2840 
Q 4756 3084 4391 3084 
Q 3944 3084 3684 2787 
Q 3425 2491 3425 1978 
L 3425 0 
L 2847 0 
L 2847 2094 
Q 2847 2600 2669 2842 
Q 2491 3084 2119 3084 
Q 1678 3084 1418 2786 
Q 1159 2488 1159 1978 
L 1159 0 
L 581 0 
L 581 3500 
L 1159 3500 
L 1159 2956 
Q 1356 3278 1631 3431 
Q 1906 3584 2284 3584 
Q 2666 3584 2933 3390 
Q 3200 3197 3328 2828 
z
" transform="scale(0.015625)"/>
       <path id="DejaVuSans-6b" d="M 581 4863 
L 1159 4863 
L 1159 1991 
L 2875 3500 
L 3609 3500 
L 1753 1863 
L 3688 0 
L 2938 0 
L 1159 1709 
L 1159 0 
L 581 0 
L 581 4863 
z
" transform="scale(0.015625)"/>
      </defs>
      <use xlink:href="#DejaVuSans-56"/>
      <use xlink:href="#DejaVuSans-61" x="60.658203"/>
      <use xlink:href="#DejaVuSans-6c" x="121.9375"/>
      <use xlink:href="#DejaVuSans-75" x="149.720703"/>
      <use xlink:href="#DejaVuSans-65" x="213.099609"/>
      <use xlink:href="#DejaVuSans-20" x="274.623047"/>
      <use xlink:href="#DejaVuSans-6f" x="306.410156"/>
      <use xlink:href="#DejaVuSans-66" x="367.591797"/>
      <use xlink:href="#DejaVuSans-20" x="402.796875"/>
      <use xlink:href="#DejaVuSans-48" x="434.583984"/>
      <use xlink:href="#DejaVuSans-69" x="509.779297"/>
      <use xlink:href="#DejaVuSans-67" x="537.5625"/>
      <use xlink:href="#DejaVuSans-68" x="601.039062"/>
      <use xlink:href="#DejaVuSans-65" x="664.417969"/>
      <use xlink:href="#DejaVuSans-73" x="725.941406"/>
      <use xlink:href="#DejaVuSans-74" x="778.041016"/>
      <use xlink:href="#DejaVuSans-20" x="817.25"/>
      <use xlink:href="#DejaVuSans-50" x="849.037109"/>
      <use xlink:href="#DejaVuSans-65" x="905.714844"/>
      <use xlink:href="#DejaVuSans-72" x="967.238281"/>
      <use xlink:href="#DejaVuSans-69" x="1008.351562"/>
      <use xlink:href="#DejaVuSans-6f" x="1036.134766"/>
      <use xlink:href="#DejaVuSans-64" x="1097.316406"/>
      <use xlink:href="#DejaVuSans-6f" x="1160.792969"/>
      <use xlink:href="#DejaVuSans-67" x="1221.974609"/>
      <use xlink:href="#DejaVuSans-72" x="1285.451172"/>
      <use xlink:href="#DejaVuSans-61" x="1326.564453"/>
      <use xlink:href="#DejaVuSans-6d" x="1387.84375"/>
      <use xlink:href="#DejaVuSans-20" x="1485.255859"/>
      <use xlink:href="#DejaVuSans-50" x="1517.042969"/>
      <use xlink:href="#DejaVuSans-65" x="1573.720703"/>
      <use xlink:href="#DejaVuSans-61" x="1635.244141"/>
      <use xlink:href="#DejaVuSans-6b" x="1696.523438"/>
     </g>
    </g>
   </g>
   <g id="matplotlib.axis_2">
    <g id="ytick_1">
     <g id="line2d_9">
      <defs>
       <path id="m1e01e8d9d9" d="M 0 0 
L -3.5 0 
" style="stroke: #000000; stroke-width: 0.8"/>
      </defs>
      <g>
       <use xlink:href="#m1e01e8d9d9" x="53.31375" y="271.798125" style="stroke: #000000; stroke-width: 0.8"/>
      </g>
     </g>
     <g id="text_10">
      <!-- $\mathdefault{10^{-2}}$ -->
      <g transform="translate(22.81375 275.597344)scale(0.1 -0.1)">
       <defs>
        <path id="DejaVuSans-2212" d="M 678 2272 
L 4684 2272 
L 4684 1741 
L 678 1741 
L 678 2272 
z
" transform="scale(0.015625)"/>
       </defs>
       <use xlink:href="#DejaVuSans-31" transform="translate(0 0.765625)"/>
       <use xlink:href="#DejaVuSans-30" transform="translate(63.623047 0.765625)"/>
       <use xlink:href="#DejaVuSans-2212" transform="translate(128.203125 39.046875)scale(0.7)"/>
       <use xlink:href="#DejaVuSans-32" transform="translate(186.855469 39.046875)scale(0.7)"/>
      </g>
     </g>
    </g>
    <g id="ytick_2">
     <g id="line2d_10">
      <g>
       <use xlink:href="#m1e01e8d9d9" x="53.31375" y="157.152198" style="stroke: #000000; stroke-width: 0.8"/>
      </g>
     </g>
     <g id="text_11">
      <!-- $\mathdefault{10^{-1}}$ -->
      <g transform="translate(22.81375 160.951417)scale(0.1 -0.1)">
       <use xlink:href="#DejaVuSans-31" transform="translate(0 0.684375)"/>
       <use xlink:href="#DejaVuSans-30" transform="translate(63.623047 0.684375)"/>
       <use xlink:href="#DejaVuSans-2212" transform="translate(128.203125 38.965625)scale(0.7)"/>
       <use xlink:href="#DejaVuSans-31" transform="translate(186.855469 38.965625)scale(0.7)"/>
      </g>
     </g>
    </g>
    <g id="ytick_3">
     <g id="line2d_11">
      <g>
       <use xlink:href="#m1e01e8d9d9" x="53.31375" y="42.506271" style="stroke: #000000; stroke-width: 0.8"/>
      </g>
     </g>
     <g id="text_12">
      <!-- $\mathdefault{10^{0}}$ -->
      <g transform="translate(28.71375 46.305489)scale(0.1 -0.1)">
       <use xlink:href="#DejaVuSans-31" transform="translate(0 0.765625)"/>
       <use xlink:href="#DejaVuSans-30" transform="translate(63.623047 0.765625)"/>
       <use xlink:href="#DejaVuSans-30" transform="translate(128.203125 39.046875)scale(0.7)"/>
      </g>
     </g>
    </g>
    <g id="ytick_4">
     <g id="line2d_12">
      <defs>
       <path id="m441a3b6267" d="M 0 0 
L -2 0 
" style="stroke: #000000; stroke-width: 0.6"/>
      </defs>
      <g>
       <use xlink:href="#m441a3b6267" x="53.31375" y="237.286262" style="stroke: #000000; stroke-width: 0.6"/>
      </g>
     </g>
    </g>
    <g id="ytick_5">
     <g id="line2d_13">
      <g>
       <use xlink:href="#m441a3b6267" x="53.31375" y="217.098116" style="stroke: #000000; stroke-width: 0.6"/>
      </g>
     </g>
    </g>
    <g id="ytick_6">
     <g id="line2d_14">
      <g>
       <use xlink:href="#m441a3b6267" x="53.31375" y="202.774399" style="stroke: #000000; stroke-width: 0.6"/>
      </g>
     </g>
    </g>
    <g id="ytick_7">
     <g id="line2d_15">
      <g>
       <use xlink:href="#m441a3b6267" x="53.31375" y="191.664061" style="stroke: #000000; stroke-width: 0.6"/>
      </g>
     </g>
    </g>
    <g id="ytick_8">
     <g id="line2d_16">
      <g>
       <use xlink:href="#m441a3b6267" x="53.31375" y="182.586253" style="stroke: #000000; stroke-width: 0.6"/>
      </g>
     </g>
    </g>
    <g id="ytick_9">
     <g id="line2d_17">
      <g>
       <use xlink:href="#m441a3b6267" x="53.31375" y="174.911077" style="stroke: #000000; stroke-width: 0.6"/>
      </g>
     </g>
    </g>
    <g id="ytick_10">
     <g id="line2d_18">
      <g>
       <use xlink:href="#m441a3b6267" x="53.31375" y="168.262536" style="stroke: #000000; stroke-width: 0.6"/>
      </g>
     </g>
    </g>
    <g id="ytick_11">
     <g id="line2d_19">
      <g>
       <use xlink:href="#m441a3b6267" x="53.31375" y="162.398108" style="stroke: #000000; stroke-width: 0.6"/>
      </g>
     </g>
    </g>
    <g id="ytick_12">
     <g id="line2d_20">
      <g>
       <use xlink:href="#m441a3b6267" x="53.31375" y="122.640335" style="stroke: #000000; stroke-width: 0.6"/>
      </g>
     </g>
    </g>
    <g id="ytick_13">
     <g id="line2d_21">
      <g>
       <use xlink:href="#m441a3b6267" x="53.31375" y="102.452189" style="stroke: #000000; stroke-width: 0.6"/>
      </g>
     </g>
    </g>
    <g id="ytick_14">
     <g id="line2d_22">
      <g>
       <use xlink:href="#m441a3b6267" x="53.31375" y="88.128472" style="stroke: #000000; stroke-width: 0.6"/>
      </g>
     </g>
    </g>
    <g id="ytick_15">
     <g id="line2d_23">
      <g>
       <use xlink:href="#m441a3b6267" x="53.31375" y="77.018134" style="stroke: #000000; stroke-width: 0.6"/>
      </g>
     </g>
    </g>
    <g id="ytick_16">
     <g id="line2d_24">
      <g>
       <use xlink:href="#m441a3b6267" x="53.31375" y="67.940326" style="stroke: #000000; stroke-width: 0.6"/>
      </g>
     </g>
    </g>
    <g id="ytick_17">
     <g id="line2d_25">
      <g>
       <use xlink:href="#m441a3b6267" x="53.31375" y="60.265149" style="stroke: #000000; stroke-width: 0.6"/>
      </g>
     </g>
    </g>
    <g id="ytick_18">
     <g id="line2d_26">
      <g>
       <use xlink:href="#m441a3b6267" x="53.31375" y="53.616609" style="stroke: #000000; stroke-width: 0.6"/>
      </g>
     </g>
    </g>
    <g id="ytick_19">
     <g id="line2d_27">
      <g>
       <use xlink:href="#m441a3b6267" x="53.31375" y="47.752181" style="stroke: #000000; stroke-width: 0.6"/>
      </g>
     </g>
    </g>
    <g id="text_13">
     <!-- False Alarm Probability -->
     <g transform="translate(16.318125 215.305312)rotate(-90)scale(0.12 -0.12)">
      <defs>
       <path id="DejaVuSans-46" d="M 628 4666 
L 3309 4666 
L 3309 4134 
L 1259 4134 
L 1259 2759 
L 3109 2759 
L 3109 2228 
L 1259 2228 
L 1259 0 
L 628 0 
L 628 4666 
z
" transform="scale(0.015625)"/>
       <path id="DejaVuSans-41" d="M 2188 4044 
L 1331 1722 
L 3047 1722 
L 2188 4044 
z
M 1831 4666 
L 2547 4666 
L 4325 0 
L 3669 0 
L 3244 1197 
L 1141 1197 
L 716 0 
L 50 0 
L 1831 4666 
z
" transform="scale(0.015625)"/>
       <path id="DejaVuSans-62" d="M 3116 1747 
Q 3116 2381 2855 2742 
Q 2594 3103 2138 3103 
Q 1681 3103 1420 2742 
Q 1159 2381 1159 1747 
Q 1159 1113 1420 752 
Q 1681 391 2138 391 
Q 2594 391 2855 752 
Q 3116 1113 3116 1747 
z
M 1159 2969 
Q 1341 3281 1617 3432 
Q 1894 3584 2278 3584 
Q 2916 3584 3314 3078 
Q 3713 2572 3713 1747 
Q 3713 922 3314 415 
Q 2916 -91 2278 -91 
Q 1894 -91 1617 61 
Q 1341 213 1159 525 
L 1159 0 
L 581 0 
L 581 4863 
L 1159 4863 
L 1159 2969 
z
" transform="scale(0.015625)"/>
       <path id="DejaVuSans-79" d="M 2059 -325 
Q 1816 -950 1584 -1140 
Q 1353 -1331 966 -1331 
L 506 -1331 
L 506 -850 
L 844 -850 
Q 1081 -850 1212 -737 
Q 1344 -625 1503 -206 
L 1606 56 
L 191 3500 
L 800 3500 
L 1894 763 
L 2988 3500 
L 3597 3500 
L 2059 -325 
z
" transform="scale(0.015625)"/>
      </defs>
      <use xlink:href="#DejaVuSans-46"/>
      <use xlink:href="#DejaVuSans-61" x="48.394531"/>
      <use xlink:href="#DejaVuSans-6c" x="109.673828"/>
      <use xlink:href="#DejaVuSans-73" x="137.457031"/>
      <use xlink:href="#DejaVuSans-65" x="189.556641"/>
      <use xlink:href="#DejaVuSans-20" x="251.080078"/>
      <use xlink:href="#DejaVuSans-41" x="282.867188"/>
      <use xlink:href="#DejaVuSans-6c" x="351.275391"/>
      <use xlink:href="#DejaVuSans-61" x="379.058594"/>
      <use xlink:href="#DejaVuSans-72" x="440.337891"/>
      <use xlink:href="#DejaVuSans-6d" x="479.701172"/>
      <use xlink:href="#DejaVuSans-20" x="577.113281"/>
      <use xlink:href="#DejaVuSans-50" x="608.900391"/>
      <use xlink:href="#DejaVuSans-72" x="667.453125"/>
      <use xlink:href="#DejaVuSans-6f" x="706.316406"/>
      <use xlink:href="#DejaVuSans-62" x="767.498047"/>
      <use xlink:href="#DejaVuSans-61" x="830.974609"/>
      <use xlink:href="#DejaVuSans-62" x="892.253906"/>
      <use xlink:href="#DejaVuSans-69" x="955.730469"/>
      <use xlink:href="#DejaVuSans-6c" x="983.513672"/>
      <use xlink:href="#DejaVuSans-69" x="1011.296875"/>
      <use xlink:href="#DejaVuSans-74" x="1039.080078"/>
      <use xlink:href="#DejaVuSans-79" x="1078.289062"/>
     </g>
    </g>
   </g>
   <g id="line2d_28">
    <path d="M 55.54575 42.506271 
L 117.465318 42.612127 
L 126.120741 42.864841 
L 132.778759 43.2734 
L 138.438074 43.836577 
L 143.764489 44.596045 
L 148.758002 45.543752 
L 153.418615 46.656217 
L 158.079227 48.003685 
L 162.73984 49.595455 
L 167.400453 51.435959 
L 172.061065 53.525324 
L 176.721678 55.860057 
L 181.382291 58.43376 
L 186.375804 61.44666 
L 191.369318 64.711373 
L 196.695732 68.455534 
L 202.355047 72.710226 
L 208.347264 77.501989 
L 214.672381 82.852355 
L 221.330399 88.777683 
L 228.654218 95.606181 
L 236.310939 103.052681 
L 244.633462 111.458213 
L 253.621786 120.851049 
L 263.608813 131.614452 
L 274.594543 143.78868 
L 286.911876 157.784652 
L 300.560813 173.645207 
L 315.541354 191.401695 
L 332.186399 211.483397 
L 350.495948 233.931431 
L 370.137101 258.370462 
L 388.11375 281.029201 
L 388.11375 281.029201 
" clip-path="url(#pcb2d13eb7f)" style="fill: none; stroke: #1f77b4; stroke-width: 1.5; stroke-linecap: square"/>
   </g>
   <g id="line2d_29">
    <path d="M 55.54575 42.520459 
L 71.857894 42.506795 
L 129.44975 42.614955 
L 142.432885 42.862273 
L 151.75411 43.253243 
L 159.410831 43.79073 
L 166.068849 44.472251 
L 172.393966 45.346586 
L 178.053282 46.345833 
L 183.712597 47.573115 
L 189.039011 48.952919 
L 194.365426 50.562558 
L 199.69184 52.410054 
L 205.018255 54.499901 
L 210.344669 56.833319 
L 215.671083 59.408606 
L 220.997498 62.221562 
L 226.656813 65.463709 
L 232.316128 68.957572 
L 238.308345 72.919045 
L 244.633462 77.377469 
L 251.29148 82.358547 
L 258.282399 87.88388 
L 265.606218 93.970746 
L 273.262939 100.632095 
L 281.252561 107.876756 
L 289.907984 116.028783 
L 299.229209 125.121845 
L 309.216236 135.182614 
L 319.869065 146.231249 
L 331.520597 158.641238 
L 344.170831 172.447831 
L 357.819768 187.679816 
L 372.467408 204.361644 
L 388.11375 222.515834 
L 388.11375 222.515834 
" clip-path="url(#pcb2d13eb7f)" style="fill: none; stroke: #ff7f0e; stroke-width: 1.5; stroke-linecap: square"/>
   </g>
   <g id="line2d_30">
    <path d="M 182.339198 -1 
L 194.698327 10.864722 
L 208.347264 24.277805 
L 222.662002 38.656807 
L 237.975444 54.357152 
L 253.954687 71.059907 
L 270.599732 88.779094 
L 287.910579 107.530912 
L 305.887227 127.333721 
L 324.196777 147.832368 
L 343.172128 169.413369 
L 362.480381 191.714184 
L 382.121534 214.744171 
L 388.11375 221.83848 
L 388.11375 221.83848 
" clip-path="url(#pcb2d13eb7f)" style="fill: none; stroke-dasharray: 1.5,2.475; stroke-dashoffset: 0; stroke: #000000; stroke-width: 1.5"/>
   </g>
   <g id="line2d_31">
    <path d="M 55.54575 42.506271 
L 118.131119 42.605951 
L 119.129822 42.655865 
L 124.789137 42.755846 
L 126.453642 42.906193 
L 129.782651 43.006678 
L 131.780056 43.208257 
L 137.106471 43.309354 
L 137.772273 43.410656 
L 140.102579 43.512165 
L 145.761894 44.280151 
L 146.760597 44.38345 
L 147.426399 44.486964 
L 148.0922 44.590693 
L 154.750218 45.693102 
L 155.41602 45.852601 
L 156.414723 45.959218 
L 157.080525 46.066063 
L 158.412128 46.173139 
L 160.409534 46.603758 
L 161.741137 46.929185 
L 164.737245 47.366423 
L 165.070146 47.58649 
L 165.735948 47.641659 
L 166.734651 48.085226 
L 167.733354 48.3085 
L 168.399155 48.758075 
L 168.732056 48.927718 
L 169.397858 48.984394 
L 171.395264 49.382945 
L 173.059768 50.131682 
L 176.055876 51.128103 
L 176.388777 51.128103 
L 177.054579 51.603998 
L 177.720381 51.723686 
L 178.386182 51.963928 
L 179.384885 51.963928 
L 180.716489 52.508749 
L 181.04939 52.875304 
L 181.715191 52.936659 
L 184.045498 53.430245 
L 185.0442 54.054189 
L 185.710002 54.369118 
L 186.042903 54.432344 
L 186.375804 54.749681 
L 186.708705 54.813392 
L 187.707408 55.261666 
L 188.040309 55.326036 
L 189.039011 55.974354 
L 189.371912 56.367436 
L 190.703516 56.829988 
L 191.702218 57.029548 
L 192.700921 57.633071 
L 193.033822 57.700583 
L 193.366723 58.039523 
L 194.032525 58.244 
L 194.365426 58.312347 
L 195.697029 59.418839 
L 196.02993 59.488818 
L 196.362831 59.699347 
L 196.695732 59.769722 
L 197.028633 60.194072 
L 197.361534 60.407611 
L 198.027336 60.55048 
L 198.693137 61.053778 
L 200.024741 61.562215 
L 200.357642 61.92859 
L 200.690543 62.002189 
L 202.022146 63.044173 
L 202.355047 63.044173 
L 202.687948 63.4975 
L 203.686651 64.26234 
L 204.352453 64.339474 
L 205.018255 65.039112 
L 205.351155 65.039112 
L 206.016957 65.43209 
L 206.349858 66.067379 
L 207.01566 66.468591 
L 207.348561 66.954352 
L 208.347264 67.444898 
L 208.680164 67.857412 
L 209.013065 67.857412 
L 209.345966 68.10657 
L 209.678867 68.189901 
L 210.011768 68.524626 
L 210.344669 68.692836 
L 210.67757 69.03097 
L 211.343372 69.371416 
L 211.676273 69.714207 
L 212.342074 70.059373 
L 212.674975 70.40695 
L 214.33948 71.375488 
L 214.672381 71.911831 
L 215.005282 72.182186 
L 215.338182 72.272631 
L 216.003984 73.002169 
L 216.669786 73.186236 
L 217.002687 73.556424 
L 218.334291 74.210952 
L 218.667191 74.305162 
L 219.000092 74.588867 
L 219.332993 75.065331 
L 222.329101 76.819371 
L 222.662002 77.317774 
L 223.327804 77.619229 
L 223.660705 77.619229 
L 224.326507 77.922519 
L 224.659408 78.024028 
L 224.992309 78.432146 
L 225.65811 78.947043 
L 225.991011 79.362829 
L 226.989714 79.887493 
L 227.655516 79.993092 
L 227.988417 80.524475 
L 228.321318 80.738626 
L 228.987119 81.604562 
L 232.649029 83.952005 
L 233.980633 84.411963 
L 234.313534 85.109966 
L 234.646435 85.227258 
L 235.312236 86.056125 
L 235.978038 86.656736 
L 236.64384 87.509953 
L 236.976741 87.633044 
L 237.975444 88.503305 
L 238.641245 89.261544 
L 238.974146 89.261544 
L 239.307047 89.516879 
L 240.30575 89.516879 
L 240.971552 90.551515 
L 241.970255 91.209254 
L 242.303155 91.341851 
L 242.968957 92.28005 
L 243.301858 92.415533 
L 243.634759 92.415533 
L 243.96766 92.687611 
L 244.300561 92.687611 
L 244.966363 93.374382 
L 245.632164 93.791038 
L 245.965065 93.930702 
L 246.297966 94.21121 
L 246.630867 94.21121 
L 247.296669 95.349319 
L 247.962471 95.782907 
L 248.295372 96.366962 
L 248.628273 96.514052 
L 249.294074 96.514052 
L 249.626975 96.957949 
L 249.959876 97.106799 
L 250.292777 97.405839 
L 250.625678 97.857795 
L 250.958579 98.009363 
L 251.29148 98.774203 
L 251.624381 99.083459 
L 251.957282 99.083459 
L 253.288885 100.340058 
L 253.954687 101.141848 
L 254.620489 101.141848 
L 254.95339 101.466215 
L 255.286291 102.618433 
L 255.619191 102.952596 
L 255.952092 103.458084 
L 256.617894 103.797949 
L 256.950795 104.140151 
L 257.283696 104.831691 
L 257.616597 104.831691 
L 257.949498 105.181096 
L 258.282399 105.181096 
L 258.6153 105.709846 
L 259.281101 106.065491 
L 259.614002 106.423694 
L 260.279804 106.784494 
L 261.278507 108.254419 
L 262.277209 108.817025 
L 262.61011 108.817025 
L 262.943011 109.005982 
L 263.275912 109.005982 
L 263.608813 109.195658 
L 263.941714 109.577194 
L 264.274615 109.769063 
L 264.607516 110.155035 
L 264.940417 110.739661 
L 265.273318 110.936072 
L 266.27202 112.131092 
L 266.937822 112.131092 
L 267.270723 112.33308 
L 267.603624 112.33308 
L 267.936525 112.739532 
L 268.269426 112.944009 
L 268.602327 112.944009 
L 269.268128 113.77042 
L 270.266831 113.77042 
L 270.599732 114.188826 
L 271.265534 114.610779 
L 271.598435 115.036338 
L 271.931336 115.681575 
L 272.264236 115.898525 
L 272.597137 115.898525 
L 272.930038 116.116425 
L 273.59584 116.116425 
L 274.594543 117.44424 
L 274.927444 117.669026 
L 275.260345 118.57846 
L 275.593245 119.039482 
L 275.926146 119.039482 
L 276.259047 119.504814 
L 276.591948 119.73912 
L 276.924849 120.211068 
L 277.25775 120.927485 
L 279.588056 122.640335 
L 279.920957 123.392844 
L 280.586759 123.392844 
L 280.91966 123.900911 
L 281.252561 124.156902 
L 281.585462 124.156902 
L 281.918363 124.414215 
L 282.251264 124.414215 
L 282.917065 125.456978 
L 283.915768 127.610399 
L 284.58157 128.163628 
L 285.247372 128.163628 
L 285.580273 129.288875 
L 286.578975 130.149821 
L 286.911876 130.732168 
L 287.577678 131.321406 
L 288.24348 131.321406 
L 288.576381 131.917702 
L 288.909282 132.218549 
L 289.242182 132.825753 
L 289.907984 132.825753 
L 290.240885 133.440454 
L 290.573786 133.440454 
L 290.906687 134.376972 
L 291.572489 134.376972 
L 292.238291 135.011249 
L 292.904092 135.011249 
L 293.236993 135.331444 
L 293.569894 135.331444 
L 293.902795 135.978078 
L 294.568597 136.63322 
L 294.901498 137.297098 
L 295.234399 137.632386 
L 296.233101 137.632386 
L 297.231804 138.652014 
L 297.564705 139.343554 
L 297.897606 139.343554 
L 298.896309 140.399214 
L 299.56211 140.399214 
L 299.895011 140.756133 
L 300.227912 141.842506 
L 301.892417 143.707521 
L 302.225318 144.473538 
L 302.891119 145.251524 
L 303.22402 146.04186 
L 303.556921 146.441782 
L 304.222723 146.441782 
L 305.221426 147.661192 
L 305.887227 149.334966 
L 306.220128 149.334966 
L 306.553029 149.762352 
L 306.88593 149.762352 
L 307.218831 150.628288 
L 307.551732 150.628288 
L 307.884633 151.06697 
L 308.217534 152.406695 
L 308.550435 152.406695 
L 309.216236 153.3203 
L 310.214939 153.3203 
L 311.546543 155.199395 
L 311.879444 155.199395 
L 312.212345 155.680462 
L 312.878146 158.158093 
L 313.876849 158.158093 
L 314.20975 159.706096 
L 314.875552 159.706096 
L 315.208453 160.23298 
L 315.541354 160.23298 
L 315.874255 160.765499 
L 316.872957 160.765499 
L 317.538759 161.847935 
L 318.204561 161.847935 
L 318.537462 162.398108 
L 319.203264 164.661684 
L 319.536164 164.661684 
L 319.869065 165.244031 
L 320.534867 165.244031 
L 320.867768 165.833269 
L 321.200669 165.833269 
L 321.53357 167.033089 
L 321.866471 167.644018 
L 322.199372 167.644018 
L 322.532273 168.262536 
L 324.529678 168.262536 
L 324.862579 169.523112 
L 326.527083 169.523112 
L 326.859984 170.816434 
L 327.525786 170.816434 
L 327.858687 171.475915 
L 329.856092 171.475915 
L 330.188993 172.144249 
L 330.521894 172.144249 
L 330.854795 172.821675 
L 332.186399 172.821675 
L 332.5193 173.508446 
L 333.185101 173.508446 
L 333.518002 174.911077 
L 333.850903 175.627493 
L 334.516705 175.627493 
L 334.849606 176.354369 
L 335.515408 176.354369 
L 335.848309 177.092013 
L 336.51411 177.092013 
L 336.847011 177.840751 
L 337.179912 177.840751 
L 337.512813 178.60092 
L 337.845714 180.156987 
L 339.510218 180.156987 
L 339.843119 181.763258 
L 340.17602 181.763258 
L 340.508921 183.423081 
L 340.841822 184.274215 
L 341.174723 184.274215 
L 341.507624 185.140151 
L 344.170831 185.140151 
L 344.503732 186.021415 
L 345.835336 186.021415 
L 346.168236 187.832163 
L 346.834038 187.832163 
L 347.166939 189.711258 
L 347.832741 189.711258 
L 348.165642 191.664061 
L 348.498543 191.664061 
L 348.831444 193.696592 
L 349.164345 194.744843 
L 349.497245 194.744843 
L 350.495948 198.028896 
L 351.16175 198.028896 
L 351.494651 200.345132 
L 351.827552 200.345132 
L 352.160453 202.774399 
L 353.492056 202.774399 
L 353.824957 204.034975 
L 354.82366 204.034975 
L 355.156561 205.328297 
L 355.489462 205.328297 
L 356.155264 208.020309 
L 356.488164 208.020309 
L 357.153966 210.866232 
L 357.819768 210.866232 
L 358.152669 212.352614 
L 359.817173 212.352614 
L 360.150074 213.884737 
L 361.148777 213.884737 
L 361.481678 215.465508 
L 361.814579 215.465508 
L 362.14748 217.098116 
L 364.144885 217.098116 
L 364.477786 218.786078 
L 366.808092 218.786078 
L 367.140993 222.344026 
L 368.139696 222.344026 
L 368.472597 228.208455 
L 368.805498 230.327502 
L 369.138399 230.327502 
L 369.4713 232.540759 
L 371.135804 232.540759 
L 371.468705 234.856995 
L 371.801606 234.856995 
L 372.134507 237.286262 
L 373.799011 237.286262 
L 374.131912 239.84016 
L 375.130615 239.84016 
L 375.463516 242.532172 
L 375.796417 242.532172 
L 376.129318 245.378095 
L 376.462218 245.378095 
L 376.795119 248.3966 
L 377.460921 248.3966 
L 377.793822 251.609979 
L 378.792525 251.609979 
L 379.125426 255.045141 
L 386.116345 255.045141 
L 386.449245 258.734984 
L 386.782146 258.734984 
L 387.447948 267.052622 
L 388.11375 267.052622 
L 388.11375 267.052622 
" clip-path="url(#pcb2d13eb7f)" style="fill: none; stroke: #000000; stroke-width: 1.5; stroke-linecap: square"/>
   </g>
   <g id="patch_3">
    <path d="M 53.31375 271.798125 
L 53.31375 22.318125 
" style="fill: none; stroke: #000000; stroke-width: 0.8; stroke-linejoin: miter; stroke-linecap: square"/>
   </g>
   <g id="patch_4">
    <path d="M 388.11375 271.798125 
L 388.11375 22.318125 
" style="fill: none; stroke: #000000; stroke-width: 0.8; stroke-linejoin: miter; stroke-linecap: square"/>
   </g>
   <g id="patch_5">
    <path d="M 53.31375 271.798125 
L 388.11375 271.798125 
" style="fill: none; stroke: #000000; stroke-width: 0.8; stroke-linejoin: miter; stroke-linecap: square"/>
   </g>
   <g id="patch_6">
    <path d="M 53.31375 22.318125 
L 388.11375 22.318125 
" style="fill: none; stroke: #000000; stroke-width: 0.8; stroke-linejoin: miter; stroke-linecap: square"/>
   </g>
   <g id="text_14">
    <!-- False Alarm Estimates (N=100) -->
    <g transform="translate(126.996563 16.318125)scale(0.12 -0.12)">
     <defs>
      <path id="DejaVuSans-45" d="M 628 4666 
L 3578 4666 
L 3578 4134 
L 1259 4134 
L 1259 2753 
L 3481 2753 
L 3481 2222 
L 1259 2222 
L 1259 531 
L 3634 531 
L 3634 0 
L 628 0 
L 628 4666 
z
" transform="scale(0.015625)"/>
      <path id="DejaVuSans-28" d="M 1984 4856 
Q 1566 4138 1362 3434 
Q 1159 2731 1159 2009 
Q 1159 1288 1364 580 
Q 1569 -128 1984 -844 
L 1484 -844 
Q 1016 -109 783 600 
Q 550 1309 550 2009 
Q 550 2706 781 3412 
Q 1013 4119 1484 4856 
L 1984 4856 
z
" transform="scale(0.015625)"/>
      <path id="DejaVuSans-4e" d="M 628 4666 
L 1478 4666 
L 3547 763 
L 3547 4666 
L 4159 4666 
L 4159 0 
L 3309 0 
L 1241 3903 
L 1241 0 
L 628 0 
L 628 4666 
z
" transform="scale(0.015625)"/>
      <path id="DejaVuSans-3d" d="M 678 2906 
L 4684 2906 
L 4684 2381 
L 678 2381 
L 678 2906 
z
M 678 1631 
L 4684 1631 
L 4684 1100 
L 678 1100 
L 678 1631 
z
" transform="scale(0.015625)"/>
      <path id="DejaVuSans-29" d="M 513 4856 
L 1013 4856 
Q 1481 4119 1714 3412 
Q 1947 2706 1947 2009 
Q 1947 1309 1714 600 
Q 1481 -109 1013 -844 
L 513 -844 
Q 928 -128 1133 580 
Q 1338 1288 1338 2009 
Q 1338 2731 1133 3434 
Q 928 4138 513 4856 
z
" transform="scale(0.015625)"/>
     </defs>
     <use xlink:href="#DejaVuSans-46"/>
     <use xlink:href="#DejaVuSans-61" x="48.394531"/>
     <use xlink:href="#DejaVuSans-6c" x="109.673828"/>
     <use xlink:href="#DejaVuSans-73" x="137.457031"/>
     <use xlink:href="#DejaVuSans-65" x="189.556641"/>
     <use xlink:href="#DejaVuSans-20" x="251.080078"/>
     <use xlink:href="#DejaVuSans-41" x="282.867188"/>
     <use xlink:href="#DejaVuSans-6c" x="351.275391"/>
     <use xlink:href="#DejaVuSans-61" x="379.058594"/>
     <use xlink:href="#DejaVuSans-72" x="440.337891"/>
     <use xlink:href="#DejaVuSans-6d" x="479.701172"/>
     <use xlink:href="#DejaVuSans-20" x="577.113281"/>
     <use xlink:href="#DejaVuSans-45" x="608.900391"/>
     <use xlink:href="#DejaVuSans-73" x="672.083984"/>
     <use xlink:href="#DejaVuSans-74" x="724.183594"/>
     <use xlink:href="#DejaVuSans-69" x="763.392578"/>
     <use xlink:href="#DejaVuSans-6d" x="791.175781"/>
     <use xlink:href="#DejaVuSans-61" x="888.587891"/>
     <use xlink:href="#DejaVuSans-74" x="949.867188"/>
     <use xlink:href="#DejaVuSans-65" x="989.076172"/>
     <use xlink:href="#DejaVuSans-73" x="1050.599609"/>
     <use xlink:href="#DejaVuSans-20" x="1102.699219"/>
     <use xlink:href="#DejaVuSans-28" x="1134.486328"/>
     <use xlink:href="#DejaVuSans-4e" x="1173.5"/>
     <use xlink:href="#DejaVuSans-3d" x="1248.304688"/>
     <use xlink:href="#DejaVuSans-31" x="1332.09375"/>
     <use xlink:href="#DejaVuSans-30" x="1395.716797"/>
     <use xlink:href="#DejaVuSans-30" x="1459.339844"/>
     <use xlink:href="#DejaVuSans-29" x="1522.962891"/>
    </g>
   </g>
   <g id="legend_1">
    <g id="patch_7">
     <path d="M 60.31375 266.798125 
L 187.718438 266.798125 
Q 189.718438 266.798125 189.718438 264.798125 
L 189.718438 207.085625 
Q 189.718438 205.085625 187.718438 205.085625 
L 60.31375 205.085625 
Q 58.31375 205.085625 58.31375 207.085625 
L 58.31375 264.798125 
Q 58.31375 266.798125 60.31375 266.798125 
z
" style="fill: #ffffff; opacity: 0.8; stroke: #cccccc; stroke-linejoin: miter"/>
    </g>
    <g id="line2d_32">
     <path d="M 62.31375 213.184062 
L 72.31375 213.184062 
L 82.31375 213.184062 
" style="fill: none; stroke: #1f77b4; stroke-width: 1.5; stroke-linecap: square"/>
    </g>
    <g id="text_15">
     <!-- naive estimate -->
     <g transform="translate(90.31375 216.684062)scale(0.1 -0.1)">
      <defs>
       <path id="DejaVuSans-6e" d="M 3513 2113 
L 3513 0 
L 2938 0 
L 2938 2094 
Q 2938 2591 2744 2837 
Q 2550 3084 2163 3084 
Q 1697 3084 1428 2787 
Q 1159 2491 1159 1978 
L 1159 0 
L 581 0 
L 581 3500 
L 1159 3500 
L 1159 2956 
Q 1366 3272 1645 3428 
Q 1925 3584 2291 3584 
Q 2894 3584 3203 3211 
Q 3513 2838 3513 2113 
z
" transform="scale(0.015625)"/>
       <path id="DejaVuSans-76" d="M 191 3500 
L 800 3500 
L 1894 563 
L 2988 3500 
L 3597 3500 
L 2284 0 
L 1503 0 
L 191 3500 
z
" transform="scale(0.015625)"/>
      </defs>
      <use xlink:href="#DejaVuSans-6e"/>
      <use xlink:href="#DejaVuSans-61" x="63.378906"/>
      <use xlink:href="#DejaVuSans-69" x="124.658203"/>
      <use xlink:href="#DejaVuSans-76" x="152.441406"/>
      <use xlink:href="#DejaVuSans-65" x="211.621094"/>
      <use xlink:href="#DejaVuSans-20" x="273.144531"/>
      <use xlink:href="#DejaVuSans-65" x="304.931641"/>
      <use xlink:href="#DejaVuSans-73" x="366.455078"/>
      <use xlink:href="#DejaVuSans-74" x="418.554688"/>
      <use xlink:href="#DejaVuSans-69" x="457.763672"/>
      <use xlink:href="#DejaVuSans-6d" x="485.546875"/>
      <use xlink:href="#DejaVuSans-61" x="582.958984"/>
      <use xlink:href="#DejaVuSans-74" x="644.238281"/>
      <use xlink:href="#DejaVuSans-65" x="683.447266"/>
     </g>
    </g>
    <g id="line2d_33">
     <path d="M 62.31375 227.862187 
L 72.31375 227.862187 
L 82.31375 227.862187 
" style="fill: none; stroke: #ff7f0e; stroke-width: 1.5; stroke-linecap: square"/>
    </g>
    <g id="text_16">
     <!-- Baluev estimate -->
     <g transform="translate(90.31375 231.362187)scale(0.1 -0.1)">
      <defs>
       <path id="DejaVuSans-42" d="M 1259 2228 
L 1259 519 
L 2272 519 
Q 2781 519 3026 730 
Q 3272 941 3272 1375 
Q 3272 1813 3026 2020 
Q 2781 2228 2272 2228 
L 1259 2228 
z
M 1259 4147 
L 1259 2741 
L 2194 2741 
Q 2656 2741 2882 2914 
Q 3109 3088 3109 3444 
Q 3109 3797 2882 3972 
Q 2656 4147 2194 4147 
L 1259 4147 
z
M 628 4666 
L 2241 4666 
Q 2963 4666 3353 4366 
Q 3744 4066 3744 3513 
Q 3744 3084 3544 2831 
Q 3344 2578 2956 2516 
Q 3422 2416 3680 2098 
Q 3938 1781 3938 1306 
Q 3938 681 3513 340 
Q 3088 0 2303 0 
L 628 0 
L 628 4666 
z
" transform="scale(0.015625)"/>
      </defs>
      <use xlink:href="#DejaVuSans-42"/>
      <use xlink:href="#DejaVuSans-61" x="68.603516"/>
      <use xlink:href="#DejaVuSans-6c" x="129.882812"/>
      <use xlink:href="#DejaVuSans-75" x="157.666016"/>
      <use xlink:href="#DejaVuSans-65" x="221.044922"/>
      <use xlink:href="#DejaVuSans-76" x="282.568359"/>
      <use xlink:href="#DejaVuSans-20" x="341.748047"/>
      <use xlink:href="#DejaVuSans-65" x="373.535156"/>
      <use xlink:href="#DejaVuSans-73" x="435.058594"/>
      <use xlink:href="#DejaVuSans-74" x="487.158203"/>
      <use xlink:href="#DejaVuSans-69" x="526.367188"/>
      <use xlink:href="#DejaVuSans-6d" x="554.150391"/>
      <use xlink:href="#DejaVuSans-61" x="651.5625"/>
      <use xlink:href="#DejaVuSans-74" x="712.841797"/>
      <use xlink:href="#DejaVuSans-65" x="752.050781"/>
     </g>
    </g>
    <g id="line2d_34">
     <path d="M 62.31375 242.540312 
L 72.31375 242.540312 
L 82.31375 242.540312 
" style="fill: none; stroke-dasharray: 1.5,2.475; stroke-dashoffset: 0; stroke: #000000; stroke-width: 1.5"/>
    </g>
    <g id="text_17">
     <!-- Davies bound -->
     <g transform="translate(90.31375 246.040312)scale(0.1 -0.1)">
      <defs>
       <path id="DejaVuSans-44" d="M 1259 4147 
L 1259 519 
L 2022 519 
Q 2988 519 3436 956 
Q 3884 1394 3884 2338 
Q 3884 3275 3436 3711 
Q 2988 4147 2022 4147 
L 1259 4147 
z
M 628 4666 
L 1925 4666 
Q 3281 4666 3915 4102 
Q 4550 3538 4550 2338 
Q 4550 1131 3912 565 
Q 3275 0 1925 0 
L 628 0 
L 628 4666 
z
" transform="scale(0.015625)"/>
      </defs>
      <use xlink:href="#DejaVuSans-44"/>
      <use xlink:href="#DejaVuSans-61" x="77.001953"/>
      <use xlink:href="#DejaVuSans-76" x="138.28125"/>
      <use xlink:href="#DejaVuSans-69" x="197.460938"/>
      <use xlink:href="#DejaVuSans-65" x="225.244141"/>
      <use xlink:href="#DejaVuSans-73" x="286.767578"/>
      <use xlink:href="#DejaVuSans-20" x="338.867188"/>
      <use xlink:href="#DejaVuSans-62" x="370.654297"/>
      <use xlink:href="#DejaVuSans-6f" x="434.130859"/>
      <use xlink:href="#DejaVuSans-75" x="495.3125"/>
      <use xlink:href="#DejaVuSans-6e" x="558.691406"/>
      <use xlink:href="#DejaVuSans-64" x="622.070312"/>
     </g>
    </g>
    <g id="line2d_35">
     <path d="M 62.31375 257.218437 
L 72.31375 257.218437 
L 82.31375 257.218437 
" style="fill: none; stroke: #000000; stroke-width: 1.5; stroke-linecap: square"/>
    </g>
    <g id="text_18">
     <!-- bootstrap estimate -->
     <g transform="translate(90.31375 260.718437)scale(0.1 -0.1)">
      <defs>
       <path id="DejaVuSans-70" d="M 1159 525 
L 1159 -1331 
L 581 -1331 
L 581 3500 
L 1159 3500 
L 1159 2969 
Q 1341 3281 1617 3432 
Q 1894 3584 2278 3584 
Q 2916 3584 3314 3078 
Q 3713 2572 3713 1747 
Q 3713 922 3314 415 
Q 2916 -91 2278 -91 
Q 1894 -91 1617 61 
Q 1341 213 1159 525 
z
M 3116 1747 
Q 3116 2381 2855 2742 
Q 2594 3103 2138 3103 
Q 1681 3103 1420 2742 
Q 1159 2381 1159 1747 
Q 1159 1113 1420 752 
Q 1681 391 2138 391 
Q 2594 391 2855 752 
Q 3116 1113 3116 1747 
z
" transform="scale(0.015625)"/>
      </defs>
      <use xlink:href="#DejaVuSans-62"/>
      <use xlink:href="#DejaVuSans-6f" x="63.476562"/>
      <use xlink:href="#DejaVuSans-6f" x="124.658203"/>
      <use xlink:href="#DejaVuSans-74" x="185.839844"/>
      <use xlink:href="#DejaVuSans-73" x="225.048828"/>
      <use xlink:href="#DejaVuSans-74" x="277.148438"/>
      <use xlink:href="#DejaVuSans-72" x="316.357422"/>
      <use xlink:href="#DejaVuSans-61" x="357.470703"/>
      <use xlink:href="#DejaVuSans-70" x="418.75"/>
      <use xlink:href="#DejaVuSans-20" x="482.226562"/>
      <use xlink:href="#DejaVuSans-65" x="514.013672"/>
      <use xlink:href="#DejaVuSans-73" x="575.537109"/>
      <use xlink:href="#DejaVuSans-74" x="627.636719"/>
      <use xlink:href="#DejaVuSans-69" x="666.845703"/>
      <use xlink:href="#DejaVuSans-6d" x="694.628906"/>
      <use xlink:href="#DejaVuSans-61" x="792.041016"/>
      <use xlink:href="#DejaVuSans-74" x="853.320312"/>
      <use xlink:href="#DejaVuSans-65" x="892.529297"/>
     </g>
    </g>
   </g>
  </g>
 </g>
 <defs>
  <clipPath id="pcb2d13eb7f">
   <rect x="53.31375" y="22.318125" width="334.8" height="249.48"/>
  </clipPath>
 </defs>
</svg>
