<?xml version="1.0" encoding="utf-8" standalone="no"?>
<!DOCTYPE svg PUBLIC "-//W3C//DTD SVG 1.1//EN"
  "http://www.w3.org/Graphics/SVG/1.1/DTD/svg11.dtd">
<svg xmlns:xlink="http://www.w3.org/1999/xlink" width="671.279375pt" height="272.11375pt" viewBox="0 0 671.279375 272.11375" xmlns="http://www.w3.org/2000/svg" version="1.1">
 <metadata>
  <rdf:RDF xmlns:dc="http://purl.org/dc/elements/1.1/" xmlns:cc="http://creativecommons.org/ns#" xmlns:rdf="http://www.w3.org/1999/02/22-rdf-syntax-ns#">
   <cc:Work>
    <dc:type rdf:resource="http://purl.org/dc/dcmitype/StillImage"/>
    <dc:date>2022-05-03T11:27:42.035187</dc:date>
    <dc:format>image/svg+xml</dc:format>
    <dc:creator>
     <cc:Agent>
      <dc:title>Matplotlib v3.5.2, https://matplotlib.org/</dc:title>
     </cc:Agent>
    </dc:creator>
   </cc:Work>
  </rdf:RDF>
 </metadata>
 <defs>
  <style type="text/css">*{stroke-linejoin: round; stroke-linecap: butt}</style>
 </defs>
 <g id="figure_1">
  <g id="patch_1">
   <path d="M 0 272.11375 
L 671.279375 272.11375 
L 671.279375 0 
L 0 0 
L 0 272.11375 
z
" style="fill: none"/>
  </g>
  <g id="axes_1">
   <g id="patch_2">
    <path d="M 52.079375 232.621875 
L 330.261193 232.621875 
L 330.261193 22.381875 
L 52.079375 22.381875 
z
" style="fill: #ffffff"/>
   </g>
   <g id="patch_3">
    <path d="M 64.724003 232.621875 
L 64.724003 226.633731 
L 90.013259 226.633731 
L 90.013259 222.01787 
L 115.302515 222.01787 
L 115.302515 195.819739 
L 140.591772 195.819739 
L 140.591772 32.393304 
L 165.881028 32.393304 
L 165.881028 121.466948 
L 191.170284 121.466948 
L 191.170284 114.106521 
L 216.45954 114.106521 
L 216.45954 148.164091 
L 241.748796 148.164091 
L 241.748796 213.409912 
L 267.038053 213.409912 
L 267.038053 225.76046 
L 292.327309 225.76046 
L 292.327309 229.877309 
L 317.616565 229.877309 
L 317.616565 232.621875 
L 292.327309 232.621875 
L 292.327309 232.621875 
L 267.038053 232.621875 
L 267.038053 232.621875 
L 241.748796 232.621875 
L 241.748796 232.621875 
L 216.45954 232.621875 
L 216.45954 232.621875 
L 191.170284 232.621875 
L 191.170284 232.621875 
L 165.881028 232.621875 
L 165.881028 232.621875 
L 140.591772 232.621875 
L 140.591772 232.621875 
L 115.302515 232.621875 
L 115.302515 232.621875 
L 90.013259 232.621875 
L 90.013259 232.621875 
z
" clip-path="url(#pb64f9921a3)" style="fill: #1f77b4; opacity: 0.2"/>
   </g>
   <g id="matplotlib.axis_1">
    <g id="xtick_1">
     <g id="line2d_1">
      <defs>
       <path id="m84076e35b3" d="M 0 0 
L 0 3.5 
" style="stroke: #000000; stroke-width: 0.8"/>
      </defs>
      <g>
       <use xlink:href="#m84076e35b3" x="63.952135" y="232.621875" style="stroke: #000000; stroke-width: 0.8"/>
      </g>
     </g>
     <g id="text_1">
      <!-- −15 -->
      <g transform="translate(53.399792 247.220312)scale(0.1 -0.1)">
       <defs>
        <path id="DejaVuSans-2212" d="M 678 2272 
L 4684 2272 
L 4684 1741 
L 678 1741 
L 678 2272 
z
" transform="scale(0.015625)"/>
        <path id="DejaVuSans-31" d="M 794 531 
L 1825 531 
L 1825 4091 
L 703 3866 
L 703 4441 
L 1819 4666 
L 2450 4666 
L 2450 531 
L 3481 531 
L 3481 0 
L 794 0 
L 794 531 
z
" transform="scale(0.015625)"/>
        <path id="DejaVuSans-35" d="M 691 4666 
L 3169 4666 
L 3169 4134 
L 1269 4134 
L 1269 2991 
Q 1406 3038 1543 3061 
Q 1681 3084 1819 3084 
Q 2600 3084 3056 2656 
Q 3513 2228 3513 1497 
Q 3513 744 3044 326 
Q 2575 -91 1722 -91 
Q 1428 -91 1123 -41 
Q 819 9 494 109 
L 494 744 
Q 775 591 1075 516 
Q 1375 441 1709 441 
Q 2250 441 2565 725 
Q 2881 1009 2881 1497 
Q 2881 1984 2565 2268 
Q 2250 2553 1709 2553 
Q 1456 2553 1204 2497 
Q 953 2441 691 2322 
L 691 4666 
z
" transform="scale(0.015625)"/>
       </defs>
       <use xlink:href="#DejaVuSans-2212"/>
       <use xlink:href="#DejaVuSans-31" x="83.789062"/>
       <use xlink:href="#DejaVuSans-35" x="147.412109"/>
      </g>
     </g>
    </g>
    <g id="xtick_2">
     <g id="line2d_2">
      <g>
       <use xlink:href="#m84076e35b3" x="106.230284" y="232.621875" style="stroke: #000000; stroke-width: 0.8"/>
      </g>
     </g>
     <g id="text_2">
      <!-- −10 -->
      <g transform="translate(95.677941 247.220312)scale(0.1 -0.1)">
       <defs>
        <path id="DejaVuSans-30" d="M 2034 4250 
Q 1547 4250 1301 3770 
Q 1056 3291 1056 2328 
Q 1056 1369 1301 889 
Q 1547 409 2034 409 
Q 2525 409 2770 889 
Q 3016 1369 3016 2328 
Q 3016 3291 2770 3770 
Q 2525 4250 2034 4250 
z
M 2034 4750 
Q 2819 4750 3233 4129 
Q 3647 3509 3647 2328 
Q 3647 1150 3233 529 
Q 2819 -91 2034 -91 
Q 1250 -91 836 529 
Q 422 1150 422 2328 
Q 422 3509 836 4129 
Q 1250 4750 2034 4750 
z
" transform="scale(0.015625)"/>
       </defs>
       <use xlink:href="#DejaVuSans-2212"/>
       <use xlink:href="#DejaVuSans-31" x="83.789062"/>
       <use xlink:href="#DejaVuSans-30" x="147.412109"/>
      </g>
     </g>
    </g>
    <g id="xtick_3">
     <g id="line2d_3">
      <g>
       <use xlink:href="#m84076e35b3" x="148.508433" y="232.621875" style="stroke: #000000; stroke-width: 0.8"/>
      </g>
     </g>
     <g id="text_3">
      <!-- −5 -->
      <g transform="translate(141.137339 247.220312)scale(0.1 -0.1)">
       <use xlink:href="#DejaVuSans-2212"/>
       <use xlink:href="#DejaVuSans-35" x="83.789062"/>
      </g>
     </g>
    </g>
    <g id="xtick_4">
     <g id="line2d_4">
      <g>
       <use xlink:href="#m84076e35b3" x="190.786582" y="232.621875" style="stroke: #000000; stroke-width: 0.8"/>
      </g>
     </g>
     <g id="text_4">
      <!-- 0 -->
      <g transform="translate(187.605332 247.220312)scale(0.1 -0.1)">
       <use xlink:href="#DejaVuSans-30"/>
      </g>
     </g>
    </g>
    <g id="xtick_5">
     <g id="line2d_5">
      <g>
       <use xlink:href="#m84076e35b3" x="233.064731" y="232.621875" style="stroke: #000000; stroke-width: 0.8"/>
      </g>
     </g>
     <g id="text_5">
      <!-- 5 -->
      <g transform="translate(229.883481 247.220312)scale(0.1 -0.1)">
       <use xlink:href="#DejaVuSans-35"/>
      </g>
     </g>
    </g>
    <g id="xtick_6">
     <g id="line2d_6">
      <g>
       <use xlink:href="#m84076e35b3" x="275.34288" y="232.621875" style="stroke: #000000; stroke-width: 0.8"/>
      </g>
     </g>
     <g id="text_6">
      <!-- 10 -->
      <g transform="translate(268.98038 247.220312)scale(0.1 -0.1)">
       <use xlink:href="#DejaVuSans-31"/>
       <use xlink:href="#DejaVuSans-30" x="63.623047"/>
      </g>
     </g>
    </g>
    <g id="xtick_7">
     <g id="line2d_7">
      <g>
       <use xlink:href="#m84076e35b3" x="317.621029" y="232.621875" style="stroke: #000000; stroke-width: 0.8"/>
      </g>
     </g>
     <g id="text_7">
      <!-- 15 -->
      <g transform="translate(311.258529 247.220312)scale(0.1 -0.1)">
       <use xlink:href="#DejaVuSans-31"/>
       <use xlink:href="#DejaVuSans-35" x="63.623047"/>
      </g>
     </g>
    </g>
    <g id="text_8">
     <!-- t -->
     <g transform="translate(188.818097 262.418125)scale(0.12 -0.12)">
      <defs>
       <path id="DejaVuSans-74" d="M 1172 4494 
L 1172 3500 
L 2356 3500 
L 2356 3053 
L 1172 3053 
L 1172 1153 
Q 1172 725 1289 603 
Q 1406 481 1766 481 
L 2356 481 
L 2356 0 
L 1766 0 
Q 1100 0 847 248 
Q 594 497 594 1153 
L 594 3053 
L 172 3053 
L 172 3500 
L 594 3500 
L 594 4494 
L 1172 4494 
z
" transform="scale(0.015625)"/>
      </defs>
      <use xlink:href="#DejaVuSans-74"/>
     </g>
    </g>
   </g>
   <g id="matplotlib.axis_2">
    <g id="ytick_1">
     <g id="line2d_8">
      <defs>
       <path id="mc44d4d0dbf" d="M 0 0 
L -3.5 0 
" style="stroke: #000000; stroke-width: 0.8"/>
      </defs>
      <g>
       <use xlink:href="#mc44d4d0dbf" x="52.079375" y="232.621875" style="stroke: #000000; stroke-width: 0.8"/>
      </g>
     </g>
     <g id="text_9">
      <!-- 0.00 -->
      <g transform="translate(22.81375 236.421094)scale(0.1 -0.1)">
       <defs>
        <path id="DejaVuSans-2e" d="M 684 794 
L 1344 794 
L 1344 0 
L 684 0 
L 684 794 
z
" transform="scale(0.015625)"/>
       </defs>
       <use xlink:href="#DejaVuSans-30"/>
       <use xlink:href="#DejaVuSans-2e" x="63.623047"/>
       <use xlink:href="#DejaVuSans-30" x="95.410156"/>
       <use xlink:href="#DejaVuSans-30" x="159.033203"/>
      </g>
     </g>
    </g>
    <g id="ytick_2">
     <g id="line2d_9">
      <g>
       <use xlink:href="#mc44d4d0dbf" x="52.079375" y="196.937288" style="stroke: #000000; stroke-width: 0.8"/>
      </g>
     </g>
     <g id="text_10">
      <!-- 0.02 -->
      <g transform="translate(22.81375 200.736507)scale(0.1 -0.1)">
       <defs>
        <path id="DejaVuSans-32" d="M 1228 531 
L 3431 531 
L 3431 0 
L 469 0 
L 469 531 
Q 828 903 1448 1529 
Q 2069 2156 2228 2338 
Q 2531 2678 2651 2914 
Q 2772 3150 2772 3378 
Q 2772 3750 2511 3984 
Q 2250 4219 1831 4219 
Q 1534 4219 1204 4116 
Q 875 4013 500 3803 
L 500 4441 
Q 881 4594 1212 4672 
Q 1544 4750 1819 4750 
Q 2544 4750 2975 4387 
Q 3406 4025 3406 3419 
Q 3406 3131 3298 2873 
Q 3191 2616 2906 2266 
Q 2828 2175 2409 1742 
Q 1991 1309 1228 531 
z
" transform="scale(0.015625)"/>
       </defs>
       <use xlink:href="#DejaVuSans-30"/>
       <use xlink:href="#DejaVuSans-2e" x="63.623047"/>
       <use xlink:href="#DejaVuSans-30" x="95.410156"/>
       <use xlink:href="#DejaVuSans-32" x="159.033203"/>
      </g>
     </g>
    </g>
    <g id="ytick_3">
     <g id="line2d_10">
      <g>
       <use xlink:href="#mc44d4d0dbf" x="52.079375" y="161.252701" style="stroke: #000000; stroke-width: 0.8"/>
      </g>
     </g>
     <g id="text_11">
      <!-- 0.04 -->
      <g transform="translate(22.81375 165.051919)scale(0.1 -0.1)">
       <defs>
        <path id="DejaVuSans-34" d="M 2419 4116 
L 825 1625 
L 2419 1625 
L 2419 4116 
z
M 2253 4666 
L 3047 4666 
L 3047 1625 
L 3713 1625 
L 3713 1100 
L 3047 1100 
L 3047 0 
L 2419 0 
L 2419 1100 
L 313 1100 
L 313 1709 
L 2253 4666 
z
" transform="scale(0.015625)"/>
       </defs>
       <use xlink:href="#DejaVuSans-30"/>
       <use xlink:href="#DejaVuSans-2e" x="63.623047"/>
       <use xlink:href="#DejaVuSans-30" x="95.410156"/>
       <use xlink:href="#DejaVuSans-34" x="159.033203"/>
      </g>
     </g>
    </g>
    <g id="ytick_4">
     <g id="line2d_11">
      <g>
       <use xlink:href="#mc44d4d0dbf" x="52.079375" y="125.568114" style="stroke: #000000; stroke-width: 0.8"/>
      </g>
     </g>
     <g id="text_12">
      <!-- 0.06 -->
      <g transform="translate(22.81375 129.367332)scale(0.1 -0.1)">
       <defs>
        <path id="DejaVuSans-36" d="M 2113 2584 
Q 1688 2584 1439 2293 
Q 1191 2003 1191 1497 
Q 1191 994 1439 701 
Q 1688 409 2113 409 
Q 2538 409 2786 701 
Q 3034 994 3034 1497 
Q 3034 2003 2786 2293 
Q 2538 2584 2113 2584 
z
M 3366 4563 
L 3366 3988 
Q 3128 4100 2886 4159 
Q 2644 4219 2406 4219 
Q 1781 4219 1451 3797 
Q 1122 3375 1075 2522 
Q 1259 2794 1537 2939 
Q 1816 3084 2150 3084 
Q 2853 3084 3261 2657 
Q 3669 2231 3669 1497 
Q 3669 778 3244 343 
Q 2819 -91 2113 -91 
Q 1303 -91 875 529 
Q 447 1150 447 2328 
Q 447 3434 972 4092 
Q 1497 4750 2381 4750 
Q 2619 4750 2861 4703 
Q 3103 4656 3366 4563 
z
" transform="scale(0.015625)"/>
       </defs>
       <use xlink:href="#DejaVuSans-30"/>
       <use xlink:href="#DejaVuSans-2e" x="63.623047"/>
       <use xlink:href="#DejaVuSans-30" x="95.410156"/>
       <use xlink:href="#DejaVuSans-36" x="159.033203"/>
      </g>
     </g>
    </g>
    <g id="ytick_5">
     <g id="line2d_12">
      <g>
       <use xlink:href="#mc44d4d0dbf" x="52.079375" y="89.883526" style="stroke: #000000; stroke-width: 0.8"/>
      </g>
     </g>
     <g id="text_13">
      <!-- 0.08 -->
      <g transform="translate(22.81375 93.682745)scale(0.1 -0.1)">
       <defs>
        <path id="DejaVuSans-38" d="M 2034 2216 
Q 1584 2216 1326 1975 
Q 1069 1734 1069 1313 
Q 1069 891 1326 650 
Q 1584 409 2034 409 
Q 2484 409 2743 651 
Q 3003 894 3003 1313 
Q 3003 1734 2745 1975 
Q 2488 2216 2034 2216 
z
M 1403 2484 
Q 997 2584 770 2862 
Q 544 3141 544 3541 
Q 544 4100 942 4425 
Q 1341 4750 2034 4750 
Q 2731 4750 3128 4425 
Q 3525 4100 3525 3541 
Q 3525 3141 3298 2862 
Q 3072 2584 2669 2484 
Q 3125 2378 3379 2068 
Q 3634 1759 3634 1313 
Q 3634 634 3220 271 
Q 2806 -91 2034 -91 
Q 1263 -91 848 271 
Q 434 634 434 1313 
Q 434 1759 690 2068 
Q 947 2378 1403 2484 
z
M 1172 3481 
Q 1172 3119 1398 2916 
Q 1625 2713 2034 2713 
Q 2441 2713 2670 2916 
Q 2900 3119 2900 3481 
Q 2900 3844 2670 4047 
Q 2441 4250 2034 4250 
Q 1625 4250 1398 4047 
Q 1172 3844 1172 3481 
z
" transform="scale(0.015625)"/>
       </defs>
       <use xlink:href="#DejaVuSans-30"/>
       <use xlink:href="#DejaVuSans-2e" x="63.623047"/>
       <use xlink:href="#DejaVuSans-30" x="95.410156"/>
       <use xlink:href="#DejaVuSans-38" x="159.033203"/>
      </g>
     </g>
    </g>
    <g id="ytick_6">
     <g id="line2d_13">
      <g>
       <use xlink:href="#mc44d4d0dbf" x="52.079375" y="54.198939" style="stroke: #000000; stroke-width: 0.8"/>
      </g>
     </g>
     <g id="text_14">
      <!-- 0.10 -->
      <g transform="translate(22.81375 57.998158)scale(0.1 -0.1)">
       <use xlink:href="#DejaVuSans-30"/>
       <use xlink:href="#DejaVuSans-2e" x="63.623047"/>
       <use xlink:href="#DejaVuSans-31" x="95.410156"/>
       <use xlink:href="#DejaVuSans-30" x="159.033203"/>
      </g>
     </g>
    </g>
    <g id="text_15">
     <!-- P(t) -->
     <g transform="translate(16.318125 138.15375)rotate(-90)scale(0.12 -0.12)">
      <defs>
       <path id="DejaVuSans-50" d="M 1259 4147 
L 1259 2394 
L 2053 2394 
Q 2494 2394 2734 2622 
Q 2975 2850 2975 3272 
Q 2975 3691 2734 3919 
Q 2494 4147 2053 4147 
L 1259 4147 
z
M 628 4666 
L 2053 4666 
Q 2838 4666 3239 4311 
Q 3641 3956 3641 3272 
Q 3641 2581 3239 2228 
Q 2838 1875 2053 1875 
L 1259 1875 
L 1259 0 
L 628 0 
L 628 4666 
z
" transform="scale(0.015625)"/>
       <path id="DejaVuSans-28" d="M 1984 4856 
Q 1566 4138 1362 3434 
Q 1159 2731 1159 2009 
Q 1159 1288 1364 580 
Q 1569 -128 1984 -844 
L 1484 -844 
Q 1016 -109 783 600 
Q 550 1309 550 2009 
Q 550 2706 781 3412 
Q 1013 4119 1484 4856 
L 1984 4856 
z
" transform="scale(0.015625)"/>
       <path id="DejaVuSans-29" d="M 513 4856 
L 1013 4856 
Q 1481 4119 1714 3412 
Q 1947 2706 1947 2009 
Q 1947 1309 1714 600 
Q 1481 -109 1013 -844 
L 513 -844 
Q 928 -128 1133 580 
Q 1338 1288 1338 2009 
Q 1338 2731 1133 3434 
Q 928 4138 513 4856 
z
" transform="scale(0.015625)"/>
      </defs>
      <use xlink:href="#DejaVuSans-50"/>
      <use xlink:href="#DejaVuSans-28" x="60.302734"/>
      <use xlink:href="#DejaVuSans-74" x="99.316406"/>
      <use xlink:href="#DejaVuSans-29" x="138.525391"/>
     </g>
    </g>
   </g>
   <g id="patch_4">
    <path d="M 52.079375 232.621875 
L 52.079375 22.381875 
" style="fill: none; stroke: #000000; stroke-width: 0.8; stroke-linejoin: miter; stroke-linecap: square"/>
   </g>
   <g id="patch_5">
    <path d="M 330.261193 232.621875 
L 330.261193 22.381875 
" style="fill: none; stroke: #000000; stroke-width: 0.8; stroke-linejoin: miter; stroke-linecap: square"/>
   </g>
   <g id="patch_6">
    <path d="M 52.079375 232.621875 
L 330.261193 232.621875 
" style="fill: none; stroke: #000000; stroke-width: 0.8; stroke-linejoin: miter; stroke-linecap: square"/>
   </g>
   <g id="patch_7">
    <path d="M 52.079375 22.381875 
L 330.261193 22.381875 
" style="fill: none; stroke: #000000; stroke-width: 0.8; stroke-linejoin: miter; stroke-linecap: square"/>
   </g>
   <g id="text_16">
    <!-- plt.hist(t, bins=10) -->
    <g transform="translate(118.926534 16.381875)scale(0.12 -0.12)">
     <defs>
      <path id="DejaVuSansMono-70" d="M 1172 441 
L 1172 -1331 
L 594 -1331 
L 594 3500 
L 1172 3500 
L 1172 3053 
Q 1316 3313 1555 3448 
Q 1794 3584 2106 3584 
Q 2741 3584 3102 3093 
Q 3463 2603 3463 1734 
Q 3463 881 3100 395 
Q 2738 -91 2106 -91 
Q 1788 -91 1548 45 
Q 1309 181 1172 441 
z
M 2859 1747 
Q 2859 2416 2648 2756 
Q 2438 3097 2022 3097 
Q 1603 3097 1387 2755 
Q 1172 2413 1172 1747 
Q 1172 1084 1387 740 
Q 1603 397 2022 397 
Q 2438 397 2648 737 
Q 2859 1078 2859 1747 
z
" transform="scale(0.015625)"/>
      <path id="DejaVuSansMono-6c" d="M 1997 1269 
Q 1997 881 2139 684 
Q 2281 488 2559 488 
L 3231 488 
L 3231 0 
L 2503 0 
Q 1988 0 1705 331 
Q 1422 663 1422 1269 
L 1422 4447 
L 500 4447 
L 500 4897 
L 1997 4897 
L 1997 1269 
z
" transform="scale(0.015625)"/>
      <path id="DejaVuSansMono-74" d="M 1919 4494 
L 1919 3500 
L 3225 3500 
L 3225 3053 
L 1919 3053 
L 1919 1153 
Q 1919 766 2066 612 
Q 2213 459 2578 459 
L 3225 459 
L 3225 0 
L 2522 0 
Q 1875 0 1609 259 
Q 1344 519 1344 1153 
L 1344 3053 
L 409 3053 
L 409 3500 
L 1344 3500 
L 1344 4494 
L 1919 4494 
z
" transform="scale(0.015625)"/>
      <path id="DejaVuSansMono-2e" d="M 1528 953 
L 2316 953 
L 2316 0 
L 1528 0 
L 1528 953 
z
" transform="scale(0.015625)"/>
      <path id="DejaVuSansMono-68" d="M 3284 2169 
L 3284 0 
L 2706 0 
L 2706 2169 
Q 2706 2641 2540 2862 
Q 2375 3084 2022 3084 
Q 1619 3084 1401 2798 
Q 1184 2513 1184 1978 
L 1184 0 
L 609 0 
L 609 4863 
L 1184 4863 
L 1184 2975 
Q 1338 3275 1600 3429 
Q 1863 3584 2222 3584 
Q 2756 3584 3020 3232 
Q 3284 2881 3284 2169 
z
" transform="scale(0.015625)"/>
      <path id="DejaVuSansMono-69" d="M 800 3500 
L 2272 3500 
L 2272 447 
L 3413 447 
L 3413 0 
L 556 0 
L 556 447 
L 1697 447 
L 1697 3053 
L 800 3053 
L 800 3500 
z
M 1697 4863 
L 2272 4863 
L 2272 4134 
L 1697 4134 
L 1697 4863 
z
" transform="scale(0.015625)"/>
      <path id="DejaVuSansMono-73" d="M 3041 3378 
L 3041 2816 
Q 2794 2959 2544 3031 
Q 2294 3103 2034 3103 
Q 1644 3103 1451 2976 
Q 1259 2850 1259 2591 
Q 1259 2356 1403 2240 
Q 1547 2125 2119 2016 
L 2350 1972 
Q 2778 1891 2998 1647 
Q 3219 1403 3219 1013 
Q 3219 494 2850 201 
Q 2481 -91 1825 -91 
Q 1566 -91 1281 -36 
Q 997 19 666 128 
L 666 722 
Q 988 556 1281 473 
Q 1575 391 1838 391 
Q 2219 391 2428 545 
Q 2638 700 2638 978 
Q 2638 1378 1872 1531 
L 1847 1538 
L 1631 1581 
Q 1134 1678 906 1908 
Q 678 2138 678 2534 
Q 678 3038 1018 3311 
Q 1359 3584 1991 3584 
Q 2272 3584 2531 3532 
Q 2791 3481 3041 3378 
z
" transform="scale(0.015625)"/>
      <path id="DejaVuSansMono-28" d="M 2766 4856 
Q 2350 4144 2145 3436 
Q 1941 2728 1941 2009 
Q 1941 1294 2145 584 
Q 2350 -125 2766 -844 
L 2266 -844 
Q 1794 -100 1562 604 
Q 1331 1309 1331 2009 
Q 1331 2706 1562 3412 
Q 1794 4119 2266 4856 
L 2766 4856 
z
" transform="scale(0.015625)"/>
      <path id="DejaVuSansMono-2c" d="M 1569 947 
L 2356 947 
L 2356 300 
L 1741 -897 
L 1259 -897 
L 1569 300 
L 1569 947 
z
" transform="scale(0.015625)"/>
      <path id="DejaVuSansMono-20" transform="scale(0.015625)"/>
      <path id="DejaVuSansMono-62" d="M 2869 1747 
Q 2869 2416 2656 2756 
Q 2444 3097 2028 3097 
Q 1609 3097 1393 2755 
Q 1178 2413 1178 1747 
Q 1178 1084 1393 740 
Q 1609 397 2028 397 
Q 2444 397 2656 737 
Q 2869 1078 2869 1747 
z
M 1178 3053 
Q 1316 3309 1558 3446 
Q 1800 3584 2119 3584 
Q 2750 3584 3112 3098 
Q 3475 2613 3475 1759 
Q 3475 894 3111 401 
Q 2747 -91 2113 -91 
Q 1800 -91 1561 45 
Q 1322 181 1178 441 
L 1178 0 
L 603 0 
L 603 4863 
L 1178 4863 
L 1178 3053 
z
" transform="scale(0.015625)"/>
      <path id="DejaVuSansMono-6e" d="M 3284 2169 
L 3284 0 
L 2706 0 
L 2706 2169 
Q 2706 2641 2540 2862 
Q 2375 3084 2022 3084 
Q 1619 3084 1401 2798 
Q 1184 2513 1184 1978 
L 1184 0 
L 609 0 
L 609 3500 
L 1184 3500 
L 1184 2975 
Q 1338 3275 1600 3429 
Q 1863 3584 2222 3584 
Q 2756 3584 3020 3232 
Q 3284 2881 3284 2169 
z
" transform="scale(0.015625)"/>
      <path id="DejaVuSansMono-3d" d="M 275 1638 
L 3578 1638 
L 3578 1100 
L 275 1100 
L 275 1638 
z
M 275 2906 
L 3578 2906 
L 3578 2375 
L 275 2375 
L 275 2906 
z
" transform="scale(0.015625)"/>
      <path id="DejaVuSansMono-31" d="M 844 531 
L 1825 531 
L 1825 4097 
L 769 3859 
L 769 4434 
L 1819 4666 
L 2450 4666 
L 2450 531 
L 3419 531 
L 3419 0 
L 844 0 
L 844 531 
z
" transform="scale(0.015625)"/>
      <path id="DejaVuSansMono-30" d="M 1509 2344 
Q 1509 2516 1629 2641 
Q 1750 2766 1919 2766 
Q 2094 2766 2219 2641 
Q 2344 2516 2344 2344 
Q 2344 2169 2220 2047 
Q 2097 1925 1919 1925 
Q 1744 1925 1626 2044 
Q 1509 2163 1509 2344 
z
M 1925 4250 
Q 1484 4250 1267 3775 
Q 1050 3300 1050 2328 
Q 1050 1359 1267 884 
Q 1484 409 1925 409 
Q 2369 409 2586 884 
Q 2803 1359 2803 2328 
Q 2803 3300 2586 3775 
Q 2369 4250 1925 4250 
z
M 1925 4750 
Q 2672 4750 3055 4137 
Q 3438 3525 3438 2328 
Q 3438 1134 3055 521 
Q 2672 -91 1925 -91 
Q 1178 -91 797 521 
Q 416 1134 416 2328 
Q 416 3525 797 4137 
Q 1178 4750 1925 4750 
z
" transform="scale(0.015625)"/>
      <path id="DejaVuSansMono-29" d="M 1088 4856 
L 1588 4856 
Q 2059 4119 2290 3412 
Q 2522 2706 2522 2009 
Q 2522 1306 2290 600 
Q 2059 -106 1588 -844 
L 1088 -844 
Q 1503 -119 1708 590 
Q 1913 1300 1913 2009 
Q 1913 2722 1708 3431 
Q 1503 4141 1088 4856 
z
" transform="scale(0.015625)"/>
     </defs>
     <use xlink:href="#DejaVuSansMono-70"/>
     <use xlink:href="#DejaVuSansMono-6c" x="60.205078"/>
     <use xlink:href="#DejaVuSansMono-74" x="120.410156"/>
     <use xlink:href="#DejaVuSansMono-2e" x="180.615234"/>
     <use xlink:href="#DejaVuSansMono-68" x="240.820312"/>
     <use xlink:href="#DejaVuSansMono-69" x="301.025391"/>
     <use xlink:href="#DejaVuSansMono-73" x="361.230469"/>
     <use xlink:href="#DejaVuSansMono-74" x="421.435547"/>
     <use xlink:href="#DejaVuSansMono-28" x="481.640625"/>
     <use xlink:href="#DejaVuSansMono-74" x="541.845703"/>
     <use xlink:href="#DejaVuSansMono-2c" x="602.050781"/>
     <use xlink:href="#DejaVuSansMono-20" x="662.255859"/>
     <use xlink:href="#DejaVuSansMono-62" x="722.460938"/>
     <use xlink:href="#DejaVuSansMono-69" x="782.666016"/>
     <use xlink:href="#DejaVuSansMono-6e" x="842.871094"/>
     <use xlink:href="#DejaVuSansMono-73" x="903.076172"/>
     <use xlink:href="#DejaVuSansMono-3d" x="963.28125"/>
     <use xlink:href="#DejaVuSansMono-31" x="1023.486328"/>
     <use xlink:href="#DejaVuSansMono-30" x="1083.691406"/>
     <use xlink:href="#DejaVuSansMono-29" x="1143.896484"/>
    </g>
   </g>
  </g>
  <g id="axes_2">
   <g id="patch_8">
    <path d="M 385.897557 232.621875 
L 664.079375 232.621875 
L 664.079375 22.381875 
L 385.897557 22.381875 
z
" style="fill: #ffffff"/>
   </g>
   <g id="patch_9">
    <path d="M 398.542185 232.621875 
L 398.542185 226.941632 
L 399.806648 226.941632 
L 399.806648 228.361693 
L 401.071111 228.361693 
L 401.071111 224.10151 
L 402.335573 224.10151 
L 402.335573 229.781753 
L 403.600036 229.781753 
L 403.600036 228.361693 
L 404.864499 228.361693 
L 404.864499 228.361693 
L 406.128962 228.361693 
L 406.128962 231.201814 
L 407.393425 231.201814 
L 407.393425 231.201814 
L 408.657887 231.201814 
L 408.657887 228.361693 
L 409.92235 228.361693 
L 409.92235 228.361693 
L 411.186813 228.361693 
L 411.186813 232.621875 
L 412.451276 232.621875 
L 412.451276 229.781753 
L 413.715739 229.781753 
L 413.715739 231.201814 
L 414.980201 231.201814 
L 414.980201 228.361693 
L 416.244664 228.361693 
L 416.244664 228.361693 
L 417.509127 228.361693 
L 417.509127 231.201814 
L 418.77359 231.201814 
L 418.77359 229.781753 
L 420.038053 229.781753 
L 420.038053 229.781753 
L 421.302515 229.781753 
L 421.302515 228.361693 
L 422.566978 228.361693 
L 422.566978 229.781753 
L 423.831441 229.781753 
L 423.831441 231.201814 
L 425.095904 231.201814 
L 425.095904 225.521571 
L 426.360367 225.521571 
L 426.360367 225.521571 
L 427.62483 225.521571 
L 427.62483 229.781753 
L 428.889292 229.781753 
L 428.889292 222.681449 
L 430.153755 222.681449 
L 430.153755 226.941632 
L 431.418218 226.941632 
L 431.418218 228.361693 
L 432.682681 228.361693 
L 432.682681 222.681449 
L 433.947144 222.681449 
L 433.947144 226.941632 
L 435.211606 226.941632 
L 435.211606 225.521571 
L 436.476069 225.521571 
L 436.476069 229.781753 
L 437.740532 229.781753 
L 437.740532 231.201814 
L 439.004995 231.201814 
L 439.004995 226.941632 
L 440.269458 226.941632 
L 440.269458 224.10151 
L 441.53392 224.10151 
L 441.53392 226.941632 
L 442.798383 226.941632 
L 442.798383 225.521571 
L 444.062846 225.521571 
L 444.062846 226.941632 
L 445.327309 226.941632 
L 445.327309 225.521571 
L 446.591772 225.521571 
L 446.591772 228.361693 
L 447.856235 228.361693 
L 447.856235 221.261389 
L 449.120697 221.261389 
L 449.120697 224.10151 
L 450.38516 224.10151 
L 450.38516 225.521571 
L 451.649623 225.521571 
L 451.649623 229.781753 
L 452.914086 229.781753 
L 452.914086 218.421267 
L 454.178549 218.421267 
L 454.178549 221.261389 
L 455.443011 221.261389 
L 455.443011 215.581146 
L 456.707474 215.581146 
L 456.707474 222.681449 
L 457.971937 222.681449 
L 457.971937 217.001206 
L 459.2364 217.001206 
L 459.2364 215.581146 
L 460.500863 215.581146 
L 460.500863 214.161085 
L 461.765325 214.161085 
L 461.765325 211.320963 
L 463.029788 211.320963 
L 463.029788 218.421267 
L 464.294251 218.421267 
L 464.294251 209.900902 
L 465.558714 209.900902 
L 465.558714 208.480842 
L 466.823177 208.480842 
L 466.823177 202.800598 
L 468.087639 202.800598 
L 468.087639 204.220659 
L 469.352102 204.220659 
L 469.352102 204.220659 
L 470.616565 204.220659 
L 470.616565 188.599991 
L 471.881028 188.599991 
L 471.881028 194.280234 
L 473.145491 194.280234 
L 473.145491 187.17993 
L 474.409954 187.17993 
L 474.409954 190.020051 
L 475.674416 190.020051 
L 475.674416 191.440112 
L 476.938879 191.440112 
L 476.938879 158.778714 
L 478.203342 158.778714 
L 478.203342 163.038896 
L 479.467805 163.038896 
L 479.467805 167.299079 
L 480.732268 167.299079 
L 480.732268 154.518532 
L 481.99673 154.518532 
L 481.99673 138.897863 
L 483.261193 138.897863 
L 483.261193 140.317924 
L 484.525656 140.317924 
L 484.525656 100.556222 
L 485.790119 100.556222 
L 485.790119 83.515492 
L 487.054582 83.515492 
L 487.054582 87.775674 
L 488.319044 87.775674 
L 488.319044 50.854094 
L 489.583507 50.854094 
L 489.583507 70.734945 
L 490.84797 70.734945 
L 490.84797 32.393304 
L 492.112433 32.393304 
L 492.112433 60.794519 
L 493.376896 60.794519 
L 493.376896 96.296039 
L 494.641358 96.296039 
L 494.641358 84.935553 
L 495.905821 84.935553 
L 495.905821 111.916708 
L 497.170284 111.916708 
L 497.170284 151.67841 
L 498.434747 151.67841 
L 498.434747 137.477802 
L 499.69921 137.477802 
L 499.69921 184.339808 
L 500.963673 184.339808 
L 500.963673 188.599991 
L 502.228135 188.599991 
L 502.228135 181.499687 
L 503.492598 181.499687 
L 503.492598 184.339808 
L 504.757061 184.339808 
L 504.757061 180.079626 
L 506.021524 180.079626 
L 506.021524 197.120355 
L 507.285987 197.120355 
L 507.285987 171.559261 
L 508.550449 171.559261 
L 508.550449 181.499687 
L 509.814912 181.499687 
L 509.814912 182.919747 
L 511.079375 182.919747 
L 511.079375 177.239504 
L 512.343838 177.239504 
L 512.343838 151.67841 
L 513.608301 151.67841 
L 513.608301 138.897863 
L 514.872763 138.897863 
L 514.872763 99.136161 
L 516.137226 99.136161 
L 516.137226 104.816404 
L 517.401689 104.816404 
L 517.401689 144.578106 
L 518.666152 144.578106 
L 518.666152 170.1392 
L 519.930615 170.1392 
L 519.930615 170.1392 
L 521.195077 170.1392 
L 521.195077 194.280234 
L 522.45954 194.280234 
L 522.45954 178.659565 
L 523.724003 178.659565 
L 523.724003 205.64072 
L 524.988466 205.64072 
L 524.988466 208.480842 
L 526.252929 208.480842 
L 526.252929 198.540416 
L 527.517392 198.540416 
L 527.517392 207.060781 
L 528.781854 207.060781 
L 528.781854 194.280234 
L 530.046317 194.280234 
L 530.046317 202.800598 
L 531.31078 202.800598 
L 531.31078 188.599991 
L 532.575243 188.599991 
L 532.575243 187.17993 
L 533.839706 187.17993 
L 533.839706 164.458957 
L 535.104168 164.458957 
L 535.104168 175.819443 
L 536.368631 175.819443 
L 536.368631 167.299079 
L 537.633094 167.299079 
L 537.633094 136.057741 
L 538.897557 136.057741 
L 538.897557 123.277194 
L 540.16202 123.277194 
L 540.16202 127.537377 
L 541.426482 127.537377 
L 541.426482 124.697255 
L 542.690945 124.697255 
L 542.690945 121.857133 
L 543.955408 121.857133 
L 543.955408 150.258349 
L 545.219871 150.258349 
L 545.219871 160.198775 
L 546.484334 160.198775 
L 546.484334 153.098471 
L 547.748796 153.098471 
L 547.748796 154.518532 
L 549.013259 154.518532 
L 549.013259 157.358653 
L 550.277722 157.358653 
L 550.277722 151.67841 
L 551.542185 151.67841 
L 551.542185 157.358653 
L 552.806648 157.358653 
L 552.806648 172.979322 
L 554.071111 172.979322 
L 554.071111 165.879018 
L 555.335573 165.879018 
L 555.335573 167.299079 
L 556.600036 167.299079 
L 556.600036 182.919747 
L 557.864499 182.919747 
L 557.864499 170.1392 
L 559.128962 170.1392 
L 559.128962 184.339808 
L 560.393425 184.339808 
L 560.393425 175.819443 
L 561.657887 175.819443 
L 561.657887 180.079626 
L 562.92235 180.079626 
L 562.92235 191.440112 
L 564.186813 191.440112 
L 564.186813 190.020051 
L 565.451276 190.020051 
L 565.451276 181.499687 
L 566.715739 181.499687 
L 566.715739 195.700294 
L 567.980201 195.700294 
L 567.980201 187.17993 
L 569.244664 187.17993 
L 569.244664 197.120355 
L 570.509127 197.120355 
L 570.509127 207.060781 
L 571.77359 207.060781 
L 571.77359 198.540416 
L 573.038053 198.540416 
L 573.038053 221.261389 
L 574.302515 221.261389 
L 574.302515 212.741024 
L 575.566978 212.741024 
L 575.566978 207.060781 
L 576.831441 207.060781 
L 576.831441 219.841328 
L 578.095904 219.841328 
L 578.095904 215.581146 
L 579.360367 215.581146 
L 579.360367 224.10151 
L 580.62483 224.10151 
L 580.62483 215.581146 
L 581.889292 215.581146 
L 581.889292 221.261389 
L 583.153755 221.261389 
L 583.153755 219.841328 
L 584.418218 219.841328 
L 584.418218 219.841328 
L 585.682681 219.841328 
L 585.682681 212.741024 
L 586.947144 212.741024 
L 586.947144 231.201814 
L 588.211606 231.201814 
L 588.211606 219.841328 
L 589.476069 219.841328 
L 589.476069 218.421267 
L 590.740532 218.421267 
L 590.740532 225.521571 
L 592.004995 225.521571 
L 592.004995 225.521571 
L 593.269458 225.521571 
L 593.269458 224.10151 
L 594.53392 224.10151 
L 594.53392 225.521571 
L 595.798383 225.521571 
L 595.798383 226.941632 
L 597.062846 226.941632 
L 597.062846 228.361693 
L 598.327309 228.361693 
L 598.327309 228.361693 
L 599.591772 228.361693 
L 599.591772 224.10151 
L 600.856235 224.10151 
L 600.856235 228.361693 
L 602.120697 228.361693 
L 602.120697 229.781753 
L 603.38516 229.781753 
L 603.38516 229.781753 
L 604.649623 229.781753 
L 604.649623 225.521571 
L 605.914086 225.521571 
L 605.914086 226.941632 
L 607.178549 226.941632 
L 607.178549 226.941632 
L 608.443011 226.941632 
L 608.443011 231.201814 
L 609.707474 231.201814 
L 609.707474 228.361693 
L 610.971937 228.361693 
L 610.971937 226.941632 
L 612.2364 226.941632 
L 612.2364 231.201814 
L 613.500863 231.201814 
L 613.500863 228.361693 
L 614.765325 228.361693 
L 614.765325 231.201814 
L 616.029788 231.201814 
L 616.029788 225.521571 
L 617.294251 225.521571 
L 617.294251 228.361693 
L 618.558714 228.361693 
L 618.558714 232.621875 
L 619.823177 232.621875 
L 619.823177 228.361693 
L 621.087639 228.361693 
L 621.087639 224.10151 
L 622.352102 224.10151 
L 622.352102 231.201814 
L 623.616565 231.201814 
L 623.616565 231.201814 
L 624.881028 231.201814 
L 624.881028 228.361693 
L 626.145491 228.361693 
L 626.145491 232.621875 
L 627.409954 232.621875 
L 627.409954 231.201814 
L 628.674416 231.201814 
L 628.674416 231.201814 
L 629.938879 231.201814 
L 629.938879 229.781753 
L 631.203342 229.781753 
L 631.203342 231.201814 
L 632.467805 231.201814 
L 632.467805 231.201814 
L 633.732268 231.201814 
L 633.732268 229.781753 
L 634.99673 229.781753 
L 634.99673 232.621875 
L 636.261193 232.621875 
L 636.261193 231.201814 
L 637.525656 231.201814 
L 637.525656 231.201814 
L 638.790119 231.201814 
L 638.790119 232.621875 
L 640.054582 232.621875 
L 640.054582 232.621875 
L 641.319044 232.621875 
L 641.319044 231.201814 
L 642.583507 231.201814 
L 642.583507 231.201814 
L 643.84797 231.201814 
L 643.84797 228.361693 
L 645.112433 228.361693 
L 645.112433 231.201814 
L 646.376896 231.201814 
L 646.376896 231.201814 
L 647.641358 231.201814 
L 647.641358 229.781753 
L 648.905821 229.781753 
L 648.905821 231.201814 
L 650.170284 231.201814 
L 650.170284 229.781753 
L 651.434747 229.781753 
L 651.434747 232.621875 
L 650.170284 232.621875 
L 650.170284 232.621875 
L 648.905821 232.621875 
L 648.905821 232.621875 
L 647.641358 232.621875 
L 647.641358 232.621875 
L 646.376896 232.621875 
L 646.376896 232.621875 
L 645.112433 232.621875 
L 645.112433 232.621875 
L 643.84797 232.621875 
L 643.84797 232.621875 
L 642.583507 232.621875 
L 642.583507 232.621875 
L 641.319044 232.621875 
L 641.319044 232.621875 
L 640.054582 232.621875 
L 640.054582 232.621875 
L 638.790119 232.621875 
L 638.790119 232.621875 
L 637.525656 232.621875 
L 637.525656 232.621875 
L 636.261193 232.621875 
L 636.261193 232.621875 
L 634.99673 232.621875 
L 634.99673 232.621875 
L 633.732268 232.621875 
L 633.732268 232.621875 
L 632.467805 232.621875 
L 632.467805 232.621875 
L 631.203342 232.621875 
L 631.203342 232.621875 
L 629.938879 232.621875 
L 629.938879 232.621875 
L 628.674416 232.621875 
L 628.674416 232.621875 
L 627.409954 232.621875 
L 627.409954 232.621875 
L 626.145491 232.621875 
L 626.145491 232.621875 
L 624.881028 232.621875 
L 624.881028 232.621875 
L 623.616565 232.621875 
L 623.616565 232.621875 
L 622.352102 232.621875 
L 622.352102 232.621875 
L 621.087639 232.621875 
L 621.087639 232.621875 
L 619.823177 232.621875 
L 619.823177 232.621875 
L 618.558714 232.621875 
L 618.558714 232.621875 
L 617.294251 232.621875 
L 617.294251 232.621875 
L 616.029788 232.621875 
L 616.029788 232.621875 
L 614.765325 232.621875 
L 614.765325 232.621875 
L 613.500863 232.621875 
L 613.500863 232.621875 
L 612.2364 232.621875 
L 612.2364 232.621875 
L 610.971937 232.621875 
L 610.971937 232.621875 
L 609.707474 232.621875 
L 609.707474 232.621875 
L 608.443011 232.621875 
L 608.443011 232.621875 
L 607.178549 232.621875 
L 607.178549 232.621875 
L 605.914086 232.621875 
L 605.914086 232.621875 
L 604.649623 232.621875 
L 604.649623 232.621875 
L 603.38516 232.621875 
L 603.38516 232.621875 
L 602.120697 232.621875 
L 602.120697 232.621875 
L 600.856235 232.621875 
L 600.856235 232.621875 
L 599.591772 232.621875 
L 599.591772 232.621875 
L 598.327309 232.621875 
L 598.327309 232.621875 
L 597.062846 232.621875 
L 597.062846 232.621875 
L 595.798383 232.621875 
L 595.798383 232.621875 
L 594.53392 232.621875 
L 594.53392 232.621875 
L 593.269458 232.621875 
L 593.269458 232.621875 
L 592.004995 232.621875 
L 592.004995 232.621875 
L 590.740532 232.621875 
L 590.740532 232.621875 
L 589.476069 232.621875 
L 589.476069 232.621875 
L 588.211606 232.621875 
L 588.211606 232.621875 
L 586.947144 232.621875 
L 586.947144 232.621875 
L 585.682681 232.621875 
L 585.682681 232.621875 
L 584.418218 232.621875 
L 584.418218 232.621875 
L 583.153755 232.621875 
L 583.153755 232.621875 
L 581.889292 232.621875 
L 581.889292 232.621875 
L 580.62483 232.621875 
L 580.62483 232.621875 
L 579.360367 232.621875 
L 579.360367 232.621875 
L 578.095904 232.621875 
L 578.095904 232.621875 
L 576.831441 232.621875 
L 576.831441 232.621875 
L 575.566978 232.621875 
L 575.566978 232.621875 
L 574.302515 232.621875 
L 574.302515 232.621875 
L 573.038053 232.621875 
L 573.038053 232.621875 
L 571.77359 232.621875 
L 571.77359 232.621875 
L 570.509127 232.621875 
L 570.509127 232.621875 
L 569.244664 232.621875 
L 569.244664 232.621875 
L 567.980201 232.621875 
L 567.980201 232.621875 
L 566.715739 232.621875 
L 566.715739 232.621875 
L 565.451276 232.621875 
L 565.451276 232.621875 
L 564.186813 232.621875 
L 564.186813 232.621875 
L 562.92235 232.621875 
L 562.92235 232.621875 
L 561.657887 232.621875 
L 561.657887 232.621875 
L 560.393425 232.621875 
L 560.393425 232.621875 
L 559.128962 232.621875 
L 559.128962 232.621875 
L 557.864499 232.621875 
L 557.864499 232.621875 
L 556.600036 232.621875 
L 556.600036 232.621875 
L 555.335573 232.621875 
L 555.335573 232.621875 
L 554.071111 232.621875 
L 554.071111 232.621875 
L 552.806648 232.621875 
L 552.806648 232.621875 
L 551.542185 232.621875 
L 551.542185 232.621875 
L 550.277722 232.621875 
L 550.277722 232.621875 
L 549.013259 232.621875 
L 549.013259 232.621875 
L 547.748796 232.621875 
L 547.748796 232.621875 
L 546.484334 232.621875 
L 546.484334 232.621875 
L 545.219871 232.621875 
L 545.219871 232.621875 
L 543.955408 232.621875 
L 543.955408 232.621875 
L 542.690945 232.621875 
L 542.690945 232.621875 
L 541.426482 232.621875 
L 541.426482 232.621875 
L 540.16202 232.621875 
L 540.16202 232.621875 
L 538.897557 232.621875 
L 538.897557 232.621875 
L 537.633094 232.621875 
L 537.633094 232.621875 
L 536.368631 232.621875 
L 536.368631 232.621875 
L 535.104168 232.621875 
L 535.104168 232.621875 
L 533.839706 232.621875 
L 533.839706 232.621875 
L 532.575243 232.621875 
L 532.575243 232.621875 
L 531.31078 232.621875 
L 531.31078 232.621875 
L 530.046317 232.621875 
L 530.046317 232.621875 
L 528.781854 232.621875 
L 528.781854 232.621875 
L 527.517392 232.621875 
L 527.517392 232.621875 
L 526.252929 232.621875 
L 526.252929 232.621875 
L 524.988466 232.621875 
L 524.988466 232.621875 
L 523.724003 232.621875 
L 523.724003 232.621875 
L 522.45954 232.621875 
L 522.45954 232.621875 
L 521.195077 232.621875 
L 521.195077 232.621875 
L 519.930615 232.621875 
L 519.930615 232.621875 
L 518.666152 232.621875 
L 518.666152 232.621875 
L 517.401689 232.621875 
L 517.401689 232.621875 
L 516.137226 232.621875 
L 516.137226 232.621875 
L 514.872763 232.621875 
L 514.872763 232.621875 
L 513.608301 232.621875 
L 513.608301 232.621875 
L 512.343838 232.621875 
L 512.343838 232.621875 
L 511.079375 232.621875 
L 511.079375 232.621875 
L 509.814912 232.621875 
L 509.814912 232.621875 
L 508.550449 232.621875 
L 508.550449 232.621875 
L 507.285987 232.621875 
L 507.285987 232.621875 
L 506.021524 232.621875 
L 506.021524 232.621875 
L 504.757061 232.621875 
L 504.757061 232.621875 
L 503.492598 232.621875 
L 503.492598 232.621875 
L 502.228135 232.621875 
L 502.228135 232.621875 
L 500.963673 232.621875 
L 500.963673 232.621875 
L 499.69921 232.621875 
L 499.69921 232.621875 
L 498.434747 232.621875 
L 498.434747 232.621875 
L 497.170284 232.621875 
L 497.170284 232.621875 
L 495.905821 232.621875 
L 495.905821 232.621875 
L 494.641358 232.621875 
L 494.641358 232.621875 
L 493.376896 232.621875 
L 493.376896 232.621875 
L 492.112433 232.621875 
L 492.112433 232.621875 
L 490.84797 232.621875 
L 490.84797 232.621875 
L 489.583507 232.621875 
L 489.583507 232.621875 
L 488.319044 232.621875 
L 488.319044 232.621875 
L 487.054582 232.621875 
L 487.054582 232.621875 
L 485.790119 232.621875 
L 485.790119 232.621875 
L 484.525656 232.621875 
L 484.525656 232.621875 
L 483.261193 232.621875 
L 483.261193 232.621875 
L 481.99673 232.621875 
L 481.99673 232.621875 
L 480.732268 232.621875 
L 480.732268 232.621875 
L 479.467805 232.621875 
L 479.467805 232.621875 
L 478.203342 232.621875 
L 478.203342 232.621875 
L 476.938879 232.621875 
L 476.938879 232.621875 
L 475.674416 232.621875 
L 475.674416 232.621875 
L 474.409954 232.621875 
L 474.409954 232.621875 
L 473.145491 232.621875 
L 473.145491 232.621875 
L 471.881028 232.621875 
L 471.881028 232.621875 
L 470.616565 232.621875 
L 470.616565 232.621875 
L 469.352102 232.621875 
L 469.352102 232.621875 
L 468.087639 232.621875 
L 468.087639 232.621875 
L 466.823177 232.621875 
L 466.823177 232.621875 
L 465.558714 232.621875 
L 465.558714 232.621875 
L 464.294251 232.621875 
L 464.294251 232.621875 
L 463.029788 232.621875 
L 463.029788 232.621875 
L 461.765325 232.621875 
L 461.765325 232.621875 
L 460.500863 232.621875 
L 460.500863 232.621875 
L 459.2364 232.621875 
L 459.2364 232.621875 
L 457.971937 232.621875 
L 457.971937 232.621875 
L 456.707474 232.621875 
L 456.707474 232.621875 
L 455.443011 232.621875 
L 455.443011 232.621875 
L 454.178549 232.621875 
L 454.178549 232.621875 
L 452.914086 232.621875 
L 452.914086 232.621875 
L 451.649623 232.621875 
L 451.649623 232.621875 
L 450.38516 232.621875 
L 450.38516 232.621875 
L 449.120697 232.621875 
L 449.120697 232.621875 
L 447.856235 232.621875 
L 447.856235 232.621875 
L 446.591772 232.621875 
L 446.591772 232.621875 
L 445.327309 232.621875 
L 445.327309 232.621875 
L 444.062846 232.621875 
L 444.062846 232.621875 
L 442.798383 232.621875 
L 442.798383 232.621875 
L 441.53392 232.621875 
L 441.53392 232.621875 
L 440.269458 232.621875 
L 440.269458 232.621875 
L 439.004995 232.621875 
L 439.004995 232.621875 
L 437.740532 232.621875 
L 437.740532 232.621875 
L 436.476069 232.621875 
L 436.476069 232.621875 
L 435.211606 232.621875 
L 435.211606 232.621875 
L 433.947144 232.621875 
L 433.947144 232.621875 
L 432.682681 232.621875 
L 432.682681 232.621875 
L 431.418218 232.621875 
L 431.418218 232.621875 
L 430.153755 232.621875 
L 430.153755 232.621875 
L 428.889292 232.621875 
L 428.889292 232.621875 
L 427.62483 232.621875 
L 427.62483 232.621875 
L 426.360367 232.621875 
L 426.360367 232.621875 
L 425.095904 232.621875 
L 425.095904 232.621875 
L 423.831441 232.621875 
L 423.831441 232.621875 
L 422.566978 232.621875 
L 422.566978 232.621875 
L 421.302515 232.621875 
L 421.302515 232.621875 
L 420.038053 232.621875 
L 420.038053 232.621875 
L 418.77359 232.621875 
L 418.77359 232.621875 
L 417.509127 232.621875 
L 417.509127 232.621875 
L 416.244664 232.621875 
L 416.244664 232.621875 
L 414.980201 232.621875 
L 414.980201 232.621875 
L 413.715739 232.621875 
L 413.715739 232.621875 
L 412.451276 232.621875 
L 412.451276 232.621875 
L 411.186813 232.621875 
L 411.186813 232.621875 
L 409.92235 232.621875 
L 409.92235 232.621875 
L 408.657887 232.621875 
L 408.657887 232.621875 
L 407.393425 232.621875 
L 407.393425 232.621875 
L 406.128962 232.621875 
L 406.128962 232.621875 
L 404.864499 232.621875 
L 404.864499 232.621875 
L 403.600036 232.621875 
L 403.600036 232.621875 
L 402.335573 232.621875 
L 402.335573 232.621875 
L 401.071111 232.621875 
L 401.071111 232.621875 
L 399.806648 232.621875 
L 399.806648 232.621875 
z
" clip-path="url(#p83488403fc)" style="fill: #1f77b4; opacity: 0.2"/>
   </g>
   <g id="matplotlib.axis_3">
    <g id="xtick_8">
     <g id="line2d_14">
      <g>
       <use xlink:href="#m84076e35b3" x="397.770317" y="232.621875" style="stroke: #000000; stroke-width: 0.8"/>
      </g>
     </g>
     <g id="text_17">
      <!-- −15 -->
      <g transform="translate(387.217973 247.220312)scale(0.1 -0.1)">
       <use xlink:href="#DejaVuSans-2212"/>
       <use xlink:href="#DejaVuSans-31" x="83.789062"/>
       <use xlink:href="#DejaVuSans-35" x="147.412109"/>
      </g>
     </g>
    </g>
    <g id="xtick_9">
     <g id="line2d_15">
      <g>
       <use xlink:href="#m84076e35b3" x="440.048466" y="232.621875" style="stroke: #000000; stroke-width: 0.8"/>
      </g>
     </g>
     <g id="text_18">
      <!-- −10 -->
      <g transform="translate(429.496122 247.220312)scale(0.1 -0.1)">
       <use xlink:href="#DejaVuSans-2212"/>
       <use xlink:href="#DejaVuSans-31" x="83.789062"/>
       <use xlink:href="#DejaVuSans-30" x="147.412109"/>
      </g>
     </g>
    </g>
    <g id="xtick_10">
     <g id="line2d_16">
      <g>
       <use xlink:href="#m84076e35b3" x="482.326615" y="232.621875" style="stroke: #000000; stroke-width: 0.8"/>
      </g>
     </g>
     <g id="text_19">
      <!-- −5 -->
      <g transform="translate(474.955521 247.220312)scale(0.1 -0.1)">
       <use xlink:href="#DejaVuSans-2212"/>
       <use xlink:href="#DejaVuSans-35" x="83.789062"/>
      </g>
     </g>
    </g>
    <g id="xtick_11">
     <g id="line2d_17">
      <g>
       <use xlink:href="#m84076e35b3" x="524.604764" y="232.621875" style="stroke: #000000; stroke-width: 0.8"/>
      </g>
     </g>
     <g id="text_20">
      <!-- 0 -->
      <g transform="translate(521.423514 247.220312)scale(0.1 -0.1)">
       <use xlink:href="#DejaVuSans-30"/>
      </g>
     </g>
    </g>
    <g id="xtick_12">
     <g id="line2d_18">
      <g>
       <use xlink:href="#m84076e35b3" x="566.882913" y="232.621875" style="stroke: #000000; stroke-width: 0.8"/>
      </g>
     </g>
     <g id="text_21">
      <!-- 5 -->
      <g transform="translate(563.701663 247.220312)scale(0.1 -0.1)">
       <use xlink:href="#DejaVuSans-35"/>
      </g>
     </g>
    </g>
    <g id="xtick_13">
     <g id="line2d_19">
      <g>
       <use xlink:href="#m84076e35b3" x="609.161062" y="232.621875" style="stroke: #000000; stroke-width: 0.8"/>
      </g>
     </g>
     <g id="text_22">
      <!-- 10 -->
      <g transform="translate(602.798562 247.220312)scale(0.1 -0.1)">
       <use xlink:href="#DejaVuSans-31"/>
       <use xlink:href="#DejaVuSans-30" x="63.623047"/>
      </g>
     </g>
    </g>
    <g id="xtick_14">
     <g id="line2d_20">
      <g>
       <use xlink:href="#m84076e35b3" x="651.43921" y="232.621875" style="stroke: #000000; stroke-width: 0.8"/>
      </g>
     </g>
     <g id="text_23">
      <!-- 15 -->
      <g transform="translate(645.07671 247.220312)scale(0.1 -0.1)">
       <use xlink:href="#DejaVuSans-31"/>
       <use xlink:href="#DejaVuSans-35" x="63.623047"/>
      </g>
     </g>
    </g>
    <g id="text_24">
     <!-- t -->
     <g transform="translate(522.636278 262.418125)scale(0.12 -0.12)">
      <use xlink:href="#DejaVuSans-74"/>
     </g>
    </g>
   </g>
   <g id="matplotlib.axis_4">
    <g id="ytick_7">
     <g id="line2d_21">
      <g>
       <use xlink:href="#mc44d4d0dbf" x="385.897557" y="232.621875" style="stroke: #000000; stroke-width: 0.8"/>
      </g>
     </g>
     <g id="text_25">
      <!-- 0.000 -->
      <g transform="translate(350.269432 236.421094)scale(0.1 -0.1)">
       <use xlink:href="#DejaVuSans-30"/>
       <use xlink:href="#DejaVuSans-2e" x="63.623047"/>
       <use xlink:href="#DejaVuSans-30" x="95.410156"/>
       <use xlink:href="#DejaVuSans-30" x="159.033203"/>
       <use xlink:href="#DejaVuSans-30" x="222.65625"/>
      </g>
     </g>
    </g>
    <g id="ytick_8">
     <g id="line2d_22">
      <g>
       <use xlink:href="#mc44d4d0dbf" x="385.897557" y="207.234569" style="stroke: #000000; stroke-width: 0.8"/>
      </g>
     </g>
     <g id="text_26">
      <!-- 0.025 -->
      <g transform="translate(350.269432 211.033788)scale(0.1 -0.1)">
       <use xlink:href="#DejaVuSans-30"/>
       <use xlink:href="#DejaVuSans-2e" x="63.623047"/>
       <use xlink:href="#DejaVuSans-30" x="95.410156"/>
       <use xlink:href="#DejaVuSans-32" x="159.033203"/>
       <use xlink:href="#DejaVuSans-35" x="222.65625"/>
      </g>
     </g>
    </g>
    <g id="ytick_9">
     <g id="line2d_23">
      <g>
       <use xlink:href="#mc44d4d0dbf" x="385.897557" y="181.847263" style="stroke: #000000; stroke-width: 0.8"/>
      </g>
     </g>
     <g id="text_27">
      <!-- 0.050 -->
      <g transform="translate(350.269432 185.646482)scale(0.1 -0.1)">
       <use xlink:href="#DejaVuSans-30"/>
       <use xlink:href="#DejaVuSans-2e" x="63.623047"/>
       <use xlink:href="#DejaVuSans-30" x="95.410156"/>
       <use xlink:href="#DejaVuSans-35" x="159.033203"/>
       <use xlink:href="#DejaVuSans-30" x="222.65625"/>
      </g>
     </g>
    </g>
    <g id="ytick_10">
     <g id="line2d_24">
      <g>
       <use xlink:href="#mc44d4d0dbf" x="385.897557" y="156.459957" style="stroke: #000000; stroke-width: 0.8"/>
      </g>
     </g>
     <g id="text_28">
      <!-- 0.075 -->
      <g transform="translate(350.269432 160.259176)scale(0.1 -0.1)">
       <defs>
        <path id="DejaVuSans-37" d="M 525 4666 
L 3525 4666 
L 3525 4397 
L 1831 0 
L 1172 0 
L 2766 4134 
L 525 4134 
L 525 4666 
z
" transform="scale(0.015625)"/>
       </defs>
       <use xlink:href="#DejaVuSans-30"/>
       <use xlink:href="#DejaVuSans-2e" x="63.623047"/>
       <use xlink:href="#DejaVuSans-30" x="95.410156"/>
       <use xlink:href="#DejaVuSans-37" x="159.033203"/>
       <use xlink:href="#DejaVuSans-35" x="222.65625"/>
      </g>
     </g>
    </g>
    <g id="ytick_11">
     <g id="line2d_25">
      <g>
       <use xlink:href="#mc44d4d0dbf" x="385.897557" y="131.072651" style="stroke: #000000; stroke-width: 0.8"/>
      </g>
     </g>
     <g id="text_29">
      <!-- 0.100 -->
      <g transform="translate(350.269432 134.87187)scale(0.1 -0.1)">
       <use xlink:href="#DejaVuSans-30"/>
       <use xlink:href="#DejaVuSans-2e" x="63.623047"/>
       <use xlink:href="#DejaVuSans-31" x="95.410156"/>
       <use xlink:href="#DejaVuSans-30" x="159.033203"/>
       <use xlink:href="#DejaVuSans-30" x="222.65625"/>
      </g>
     </g>
    </g>
    <g id="ytick_12">
     <g id="line2d_26">
      <g>
       <use xlink:href="#mc44d4d0dbf" x="385.897557" y="105.685345" style="stroke: #000000; stroke-width: 0.8"/>
      </g>
     </g>
     <g id="text_30">
      <!-- 0.125 -->
      <g transform="translate(350.269432 109.484564)scale(0.1 -0.1)">
       <use xlink:href="#DejaVuSans-30"/>
       <use xlink:href="#DejaVuSans-2e" x="63.623047"/>
       <use xlink:href="#DejaVuSans-31" x="95.410156"/>
       <use xlink:href="#DejaVuSans-32" x="159.033203"/>
       <use xlink:href="#DejaVuSans-35" x="222.65625"/>
      </g>
     </g>
    </g>
    <g id="ytick_13">
     <g id="line2d_27">
      <g>
       <use xlink:href="#mc44d4d0dbf" x="385.897557" y="80.298039" style="stroke: #000000; stroke-width: 0.8"/>
      </g>
     </g>
     <g id="text_31">
      <!-- 0.150 -->
      <g transform="translate(350.269432 84.097258)scale(0.1 -0.1)">
       <use xlink:href="#DejaVuSans-30"/>
       <use xlink:href="#DejaVuSans-2e" x="63.623047"/>
       <use xlink:href="#DejaVuSans-31" x="95.410156"/>
       <use xlink:href="#DejaVuSans-35" x="159.033203"/>
       <use xlink:href="#DejaVuSans-30" x="222.65625"/>
      </g>
     </g>
    </g>
    <g id="ytick_14">
     <g id="line2d_28">
      <g>
       <use xlink:href="#mc44d4d0dbf" x="385.897557" y="54.910733" style="stroke: #000000; stroke-width: 0.8"/>
      </g>
     </g>
     <g id="text_32">
      <!-- 0.175 -->
      <g transform="translate(350.269432 58.709952)scale(0.1 -0.1)">
       <use xlink:href="#DejaVuSans-30"/>
       <use xlink:href="#DejaVuSans-2e" x="63.623047"/>
       <use xlink:href="#DejaVuSans-31" x="95.410156"/>
       <use xlink:href="#DejaVuSans-37" x="159.033203"/>
       <use xlink:href="#DejaVuSans-35" x="222.65625"/>
      </g>
     </g>
    </g>
    <g id="ytick_15">
     <g id="line2d_29">
      <g>
       <use xlink:href="#mc44d4d0dbf" x="385.897557" y="29.523427" style="stroke: #000000; stroke-width: 0.8"/>
      </g>
     </g>
     <g id="text_33">
      <!-- 0.200 -->
      <g transform="translate(350.269432 33.322646)scale(0.1 -0.1)">
       <use xlink:href="#DejaVuSans-30"/>
       <use xlink:href="#DejaVuSans-2e" x="63.623047"/>
       <use xlink:href="#DejaVuSans-32" x="95.410156"/>
       <use xlink:href="#DejaVuSans-30" x="159.033203"/>
       <use xlink:href="#DejaVuSans-30" x="222.65625"/>
      </g>
     </g>
    </g>
    <g id="text_34">
     <!-- P(t) -->
     <g transform="translate(343.773807 138.15375)rotate(-90)scale(0.12 -0.12)">
      <use xlink:href="#DejaVuSans-50"/>
      <use xlink:href="#DejaVuSans-28" x="60.302734"/>
      <use xlink:href="#DejaVuSans-74" x="99.316406"/>
      <use xlink:href="#DejaVuSans-29" x="138.525391"/>
     </g>
    </g>
   </g>
   <g id="patch_10">
    <path d="M 385.897557 232.621875 
L 385.897557 22.381875 
" style="fill: none; stroke: #000000; stroke-width: 0.8; stroke-linejoin: miter; stroke-linecap: square"/>
   </g>
   <g id="patch_11">
    <path d="M 664.079375 232.621875 
L 664.079375 22.381875 
" style="fill: none; stroke: #000000; stroke-width: 0.8; stroke-linejoin: miter; stroke-linecap: square"/>
   </g>
   <g id="patch_12">
    <path d="M 385.897557 232.621875 
L 664.079375 232.621875 
" style="fill: none; stroke: #000000; stroke-width: 0.8; stroke-linejoin: miter; stroke-linecap: square"/>
   </g>
   <g id="patch_13">
    <path d="M 385.897557 22.381875 
L 664.079375 22.381875 
" style="fill: none; stroke: #000000; stroke-width: 0.8; stroke-linejoin: miter; stroke-linecap: square"/>
   </g>
   <g id="text_35">
    <!-- plt.hist(t, bins=200) -->
    <g transform="translate(449.132528 16.381875)scale(0.12 -0.12)">
     <defs>
      <path id="DejaVuSansMono-32" d="M 1166 531 
L 3309 531 
L 3309 0 
L 475 0 
L 475 531 
Q 1059 1147 1496 1619 
Q 1934 2091 2100 2284 
Q 2413 2666 2522 2902 
Q 2631 3138 2631 3384 
Q 2631 3775 2401 3997 
Q 2172 4219 1772 4219 
Q 1488 4219 1175 4116 
Q 863 4013 513 3803 
L 513 4441 
Q 834 4594 1145 4672 
Q 1456 4750 1759 4750 
Q 2444 4750 2861 4386 
Q 3278 4022 3278 3431 
Q 3278 3131 3139 2831 
Q 3000 2531 2688 2169 
Q 2513 1966 2180 1606 
Q 1847 1247 1166 531 
z
" transform="scale(0.015625)"/>
     </defs>
     <use xlink:href="#DejaVuSansMono-70"/>
     <use xlink:href="#DejaVuSansMono-6c" x="60.205078"/>
     <use xlink:href="#DejaVuSansMono-74" x="120.410156"/>
     <use xlink:href="#DejaVuSansMono-2e" x="180.615234"/>
     <use xlink:href="#DejaVuSansMono-68" x="240.820312"/>
     <use xlink:href="#DejaVuSansMono-69" x="301.025391"/>
     <use xlink:href="#DejaVuSansMono-73" x="361.230469"/>
     <use xlink:href="#DejaVuSansMono-74" x="421.435547"/>
     <use xlink:href="#DejaVuSansMono-28" x="481.640625"/>
     <use xlink:href="#DejaVuSansMono-74" x="541.845703"/>
     <use xlink:href="#DejaVuSansMono-2c" x="602.050781"/>
     <use xlink:href="#DejaVuSansMono-20" x="662.255859"/>
     <use xlink:href="#DejaVuSansMono-62" x="722.460938"/>
     <use xlink:href="#DejaVuSansMono-69" x="782.666016"/>
     <use xlink:href="#DejaVuSansMono-6e" x="842.871094"/>
     <use xlink:href="#DejaVuSansMono-73" x="903.076172"/>
     <use xlink:href="#DejaVuSansMono-3d" x="963.28125"/>
     <use xlink:href="#DejaVuSansMono-32" x="1023.486328"/>
     <use xlink:href="#DejaVuSansMono-30" x="1083.691406"/>
     <use xlink:href="#DejaVuSansMono-30" x="1143.896484"/>
     <use xlink:href="#DejaVuSansMono-29" x="1204.101562"/>
    </g>
   </g>
  </g>
 </g>
 <defs>
  <clipPath id="pb64f9921a3">
   <rect x="52.079375" y="22.381875" width="278.181818" height="210.24"/>
  </clipPath>
  <clipPath id="p83488403fc">
   <rect x="385.897557" y="22.381875" width="278.181818" height="210.24"/>
  </clipPath>
 </defs>
</svg>
