<?xml version="1.0" encoding="utf-8" standalone="no"?>
<!DOCTYPE svg PUBLIC "-//W3C//DTD SVG 1.1//EN"
  "http://www.w3.org/Graphics/SVG/1.1/DTD/svg11.dtd">
<svg xmlns:xlink="http://www.w3.org/1999/xlink" width="401.386475pt" height="418.65375pt" viewBox="0 0 401.386475 418.65375" xmlns="http://www.w3.org/2000/svg" version="1.1">
 <metadata>
  <rdf:RDF xmlns:dc="http://purl.org/dc/elements/1.1/" xmlns:cc="http://creativecommons.org/ns#" xmlns:rdf="http://www.w3.org/1999/02/22-rdf-syntax-ns#">
   <cc:Work>
    <dc:type rdf:resource="http://purl.org/dc/dcmitype/StillImage"/>
    <dc:date>2022-05-09T16:19:44.677120</dc:date>
    <dc:format>image/svg+xml</dc:format>
    <dc:creator>
     <cc:Agent>
      <dc:title>Matplotlib v3.5.1, https://matplotlib.org/</dc:title>
     </cc:Agent>
    </dc:creator>
   </cc:Work>
  </rdf:RDF>
 </metadata>
 <defs>
  <style type="text/css">*{stroke-linejoin: round; stroke-linecap: butt}</style>
 </defs>
 <g id="figure_1">
  <g id="patch_1">
   <path d="M -0 418.65375 
L 401.386475 418.65375 
L 401.386475 0 
L -0 0 
L -0 418.65375 
z
" style="fill: none"/>
  </g>
  <g id="axes_1">
   <g id="patch_2">
    <path d="M 38.482813 375.646875 
L 373.282812 375.646875 
L 373.282812 43.006875 
L 38.482813 43.006875 
L 38.482813 375.646875 
" style="fill: #ffffff; stroke: #ffffff; stroke-linejoin: miter"/>
   </g>
   <g id="grid lines_1">
    <g id="patch_3">
     <path d="M 370.236475 375.646875 
L 370.236475 43.006875 
" clip-path="url(#pe8d9ed6e06)" style="fill: none; stroke: #ff0000; stroke-width: 0.8; stroke-linejoin: miter"/>
    </g>
    <g id="patch_4">
     <path d="M 283.616009 375.646875 
L 283.616009 43.006875 
" clip-path="url(#pe8d9ed6e06)" style="fill: none; stroke: #ff0000; stroke-width: 0.8; stroke-linejoin: miter"/>
    </g>
    <g id="patch_5">
     <path d="M 196.167301 375.646875 
L 196.167301 43.006875 
" clip-path="url(#pe8d9ed6e06)" style="fill: none; stroke: #ff0000; stroke-width: 0.8; stroke-linejoin: miter"/>
    </g>
    <g id="patch_6">
     <path d="M 107.873243 375.646875 
L 107.873243 43.006875 
" clip-path="url(#pe8d9ed6e06)" style="fill: none; stroke: #ff0000; stroke-width: 0.8; stroke-linejoin: miter"/>
    </g>
   </g>
   <g id="grid lines_2">
    <g id="patch_7">
     <path d="M 68.079262 375.646875 
L 68.079262 43.006875 
" clip-path="url(#pe8d9ed6e06)" style="fill: none; stroke: #0000ff; stroke-width: 0.8; stroke-linejoin: miter"/>
    </g>
    <g id="patch_8">
     <path d="M 144.424655 375.646875 
L 144.424655 43.006875 
" clip-path="url(#pe8d9ed6e06)" style="fill: none; stroke: #0000ff; stroke-width: 0.8; stroke-linejoin: miter"/>
    </g>
    <g id="patch_9">
     <path d="M 220.770047 375.646875 
L 220.770047 43.006875 
" clip-path="url(#pe8d9ed6e06)" style="fill: none; stroke: #0000ff; stroke-width: 0.8; stroke-linejoin: miter"/>
    </g>
    <g id="patch_10">
     <path d="M 297.11544 375.646875 
L 297.11544 43.006875 
" clip-path="url(#pe8d9ed6e06)" style="fill: none; stroke: #0000ff; stroke-width: 0.8; stroke-linejoin: miter"/>
    </g>
   </g>
   <g id="grid lines_3"/>
   <g id="ticks_1">
    <defs>
     <path id="m0c88a0fba4" d="M 0 0 
L 0 -3.5 
" style="stroke: #ff0000; stroke-width: 0.8"/>
    </defs>
    <g>
     <use xlink:href="#m0c88a0fba4" x="370.236475" y="43.006875" style="fill: none; stroke: #ff0000; stroke-width: 0.8"/>
     <use xlink:href="#m0c88a0fba4" x="370.236475" y="43.006875" style="fill: none; stroke: #ff0000; stroke-width: 0.8"/>
    </g>
    <g>
     <use xlink:href="#m0c88a0fba4" x="283.616009" y="43.006875" style="fill: none; stroke: #ff0000; stroke-width: 0.8"/>
     <use xlink:href="#m0c88a0fba4" x="283.616009" y="43.006875" style="fill: none; stroke: #ff0000; stroke-width: 0.8"/>
    </g>
    <g>
     <use xlink:href="#m0c88a0fba4" x="196.167301" y="43.006875" style="fill: none; stroke: #ff0000; stroke-width: 0.8"/>
     <use xlink:href="#m0c88a0fba4" x="196.167301" y="43.006875" style="fill: none; stroke: #ff0000; stroke-width: 0.8"/>
    </g>
    <g>
     <use xlink:href="#m0c88a0fba4" x="107.873243" y="43.006875" style="fill: none; stroke: #ff0000; stroke-width: 0.8"/>
     <use xlink:href="#m0c88a0fba4" x="107.873243" y="43.006875" style="fill: none; stroke: #ff0000; stroke-width: 0.8"/>
    </g>
    <g id="text_1">
     <!-- 3$\mathregular{^h}$25$\mathregular{^m}$18$\mathregular{^s}$ -->
     <g style="fill: #ff0000" transform="translate(346.286475 33.927188)scale(0.1 -0.1)">
      <defs>
       <path id="DejaVuSans-33" d="M 2597 2516 
Q 3050 2419 3304 2112 
Q 3559 1806 3559 1356 
Q 3559 666 3084 287 
Q 2609 -91 1734 -91 
Q 1441 -91 1130 -33 
Q 819 25 488 141 
L 488 750 
Q 750 597 1062 519 
Q 1375 441 1716 441 
Q 2309 441 2620 675 
Q 2931 909 2931 1356 
Q 2931 1769 2642 2001 
Q 2353 2234 1838 2234 
L 1294 2234 
L 1294 2753 
L 1863 2753 
Q 2328 2753 2575 2939 
Q 2822 3125 2822 3475 
Q 2822 3834 2567 4026 
Q 2313 4219 1838 4219 
Q 1578 4219 1281 4162 
Q 984 4106 628 3988 
L 628 4550 
Q 988 4650 1302 4700 
Q 1616 4750 1894 4750 
Q 2613 4750 3031 4423 
Q 3450 4097 3450 3541 
Q 3450 3153 3228 2886 
Q 3006 2619 2597 2516 
z
" transform="scale(0.015625)"/>
       <path id="DejaVuSans-68" d="M 3513 2113 
L 3513 0 
L 2938 0 
L 2938 2094 
Q 2938 2591 2744 2837 
Q 2550 3084 2163 3084 
Q 1697 3084 1428 2787 
Q 1159 2491 1159 1978 
L 1159 0 
L 581 0 
L 581 4863 
L 1159 4863 
L 1159 2956 
Q 1366 3272 1645 3428 
Q 1925 3584 2291 3584 
Q 2894 3584 3203 3211 
Q 3513 2838 3513 2113 
z
" transform="scale(0.015625)"/>
       <path id="DejaVuSans-32" d="M 1228 531 
L 3431 531 
L 3431 0 
L 469 0 
L 469 531 
Q 828 903 1448 1529 
Q 2069 2156 2228 2338 
Q 2531 2678 2651 2914 
Q 2772 3150 2772 3378 
Q 2772 3750 2511 3984 
Q 2250 4219 1831 4219 
Q 1534 4219 1204 4116 
Q 875 4013 500 3803 
L 500 4441 
Q 881 4594 1212 4672 
Q 1544 4750 1819 4750 
Q 2544 4750 2975 4387 
Q 3406 4025 3406 3419 
Q 3406 3131 3298 2873 
Q 3191 2616 2906 2266 
Q 2828 2175 2409 1742 
Q 1991 1309 1228 531 
z
" transform="scale(0.015625)"/>
       <path id="DejaVuSans-35" d="M 691 4666 
L 3169 4666 
L 3169 4134 
L 1269 4134 
L 1269 2991 
Q 1406 3038 1543 3061 
Q 1681 3084 1819 3084 
Q 2600 3084 3056 2656 
Q 3513 2228 3513 1497 
Q 3513 744 3044 326 
Q 2575 -91 1722 -91 
Q 1428 -91 1123 -41 
Q 819 9 494 109 
L 494 744 
Q 775 591 1075 516 
Q 1375 441 1709 441 
Q 2250 441 2565 725 
Q 2881 1009 2881 1497 
Q 2881 1984 2565 2268 
Q 2250 2553 1709 2553 
Q 1456 2553 1204 2497 
Q 953 2441 691 2322 
L 691 4666 
z
" transform="scale(0.015625)"/>
       <path id="DejaVuSans-6d" d="M 3328 2828 
Q 3544 3216 3844 3400 
Q 4144 3584 4550 3584 
Q 5097 3584 5394 3201 
Q 5691 2819 5691 2113 
L 5691 0 
L 5113 0 
L 5113 2094 
Q 5113 2597 4934 2840 
Q 4756 3084 4391 3084 
Q 3944 3084 3684 2787 
Q 3425 2491 3425 1978 
L 3425 0 
L 2847 0 
L 2847 2094 
Q 2847 2600 2669 2842 
Q 2491 3084 2119 3084 
Q 1678 3084 1418 2786 
Q 1159 2488 1159 1978 
L 1159 0 
L 581 0 
L 581 3500 
L 1159 3500 
L 1159 2956 
Q 1356 3278 1631 3431 
Q 1906 3584 2284 3584 
Q 2666 3584 2933 3390 
Q 3200 3197 3328 2828 
z
" transform="scale(0.015625)"/>
       <path id="DejaVuSans-31" d="M 794 531 
L 1825 531 
L 1825 4091 
L 703 3866 
L 703 4441 
L 1819 4666 
L 2450 4666 
L 2450 531 
L 3481 531 
L 3481 0 
L 794 0 
L 794 531 
z
" transform="scale(0.015625)"/>
       <path id="DejaVuSans-38" d="M 2034 2216 
Q 1584 2216 1326 1975 
Q 1069 1734 1069 1313 
Q 1069 891 1326 650 
Q 1584 409 2034 409 
Q 2484 409 2743 651 
Q 3003 894 3003 1313 
Q 3003 1734 2745 1975 
Q 2488 2216 2034 2216 
z
M 1403 2484 
Q 997 2584 770 2862 
Q 544 3141 544 3541 
Q 544 4100 942 4425 
Q 1341 4750 2034 4750 
Q 2731 4750 3128 4425 
Q 3525 4100 3525 3541 
Q 3525 3141 3298 2862 
Q 3072 2584 2669 2484 
Q 3125 2378 3379 2068 
Q 3634 1759 3634 1313 
Q 3634 634 3220 271 
Q 2806 -91 2034 -91 
Q 1263 -91 848 271 
Q 434 634 434 1313 
Q 434 1759 690 2068 
Q 947 2378 1403 2484 
z
M 1172 3481 
Q 1172 3119 1398 2916 
Q 1625 2713 2034 2713 
Q 2441 2713 2670 2916 
Q 2900 3119 2900 3481 
Q 2900 3844 2670 4047 
Q 2441 4250 2034 4250 
Q 1625 4250 1398 4047 
Q 1172 3844 1172 3481 
z
" transform="scale(0.015625)"/>
       <path id="DejaVuSans-73" d="M 2834 3397 
L 2834 2853 
Q 2591 2978 2328 3040 
Q 2066 3103 1784 3103 
Q 1356 3103 1142 2972 
Q 928 2841 928 2578 
Q 928 2378 1081 2264 
Q 1234 2150 1697 2047 
L 1894 2003 
Q 2506 1872 2764 1633 
Q 3022 1394 3022 966 
Q 3022 478 2636 193 
Q 2250 -91 1575 -91 
Q 1294 -91 989 -36 
Q 684 19 347 128 
L 347 722 
Q 666 556 975 473 
Q 1284 391 1588 391 
Q 1994 391 2212 530 
Q 2431 669 2431 922 
Q 2431 1156 2273 1281 
Q 2116 1406 1581 1522 
L 1381 1569 
Q 847 1681 609 1914 
Q 372 2147 372 2553 
Q 372 3047 722 3315 
Q 1072 3584 1716 3584 
Q 2034 3584 2315 3537 
Q 2597 3491 2834 3397 
z
" transform="scale(0.015625)"/>
      </defs>
      <use xlink:href="#DejaVuSans-33" transform="translate(0 0.529687)"/>
      <use xlink:href="#DejaVuSans-68" transform="translate(64.580078 38.810937)scale(0.7)"/>
      <use xlink:href="#DejaVuSans-32" transform="translate(111.679688 0.529687)"/>
      <use xlink:href="#DejaVuSans-35" transform="translate(175.302734 0.529687)"/>
      <use xlink:href="#DejaVuSans-6d" transform="translate(239.882812 38.810937)scale(0.7)"/>
      <use xlink:href="#DejaVuSans-31" transform="translate(310.805664 0.529687)"/>
      <use xlink:href="#DejaVuSans-38" transform="translate(374.428711 0.529687)"/>
      <use xlink:href="#DejaVuSans-73" transform="translate(439.008789 38.810937)scale(0.7)"/>
     </g>
    </g>
    <g id="text_2">
     <!-- 21$\mathregular{^s}$ -->
     <g style="fill: #ff0000" transform="translate(275.216009 33.927188)scale(0.1 -0.1)">
      <use xlink:href="#DejaVuSans-32" transform="translate(0 0.51875)"/>
      <use xlink:href="#DejaVuSans-31" transform="translate(63.623047 0.51875)"/>
      <use xlink:href="#DejaVuSans-73" transform="translate(128.203125 38.8)scale(0.7)"/>
     </g>
    </g>
    <g id="text_3">
     <!-- 24$\mathregular{^s}$ -->
     <g style="fill: #ff0000" transform="translate(187.767301 33.927188)scale(0.1 -0.1)">
      <defs>
       <path id="DejaVuSans-34" d="M 2419 4116 
L 825 1625 
L 2419 1625 
L 2419 4116 
z
M 2253 4666 
L 3047 4666 
L 3047 1625 
L 3713 1625 
L 3713 1100 
L 3047 1100 
L 3047 0 
L 2419 0 
L 2419 1100 
L 313 1100 
L 313 1709 
L 2253 4666 
z
" transform="scale(0.015625)"/>
      </defs>
      <use xlink:href="#DejaVuSans-32" transform="translate(0 0.51875)"/>
      <use xlink:href="#DejaVuSans-34" transform="translate(63.623047 0.51875)"/>
      <use xlink:href="#DejaVuSans-73" transform="translate(128.203125 38.8)scale(0.7)"/>
     </g>
    </g>
    <g id="text_4">
     <!-- 27$\mathregular{^s}$ -->
     <g style="fill: #ff0000" transform="translate(99.473243 33.927188)scale(0.1 -0.1)">
      <defs>
       <path id="DejaVuSans-37" d="M 525 4666 
L 3525 4666 
L 3525 4397 
L 1831 0 
L 1172 0 
L 2766 4134 
L 525 4134 
L 525 4666 
z
" transform="scale(0.015625)"/>
      </defs>
      <use xlink:href="#DejaVuSans-32" transform="translate(0 0.51875)"/>
      <use xlink:href="#DejaVuSans-37" transform="translate(63.623047 0.51875)"/>
      <use xlink:href="#DejaVuSans-73" transform="translate(128.203125 38.8)scale(0.7)"/>
     </g>
    </g>
   </g>
   <g id="ticks_2">
    <defs>
     <path id="m3f761bc4e0" d="M 0 0 
L -0 3.5 
" style="stroke: #0000ff; stroke-width: 0.8"/>
    </defs>
    <g>
     <use xlink:href="#m3f761bc4e0" x="68.079262" y="375.646875" style="fill: none; stroke: #0000ff; stroke-width: 0.8"/>
     <use xlink:href="#m3f761bc4e0" x="68.079262" y="375.646875" style="fill: none; stroke: #0000ff; stroke-width: 0.8"/>
    </g>
    <g>
     <use xlink:href="#m3f761bc4e0" x="144.424655" y="375.646875" style="fill: none; stroke: #0000ff; stroke-width: 0.8"/>
     <use xlink:href="#m3f761bc4e0" x="144.424655" y="375.646875" style="fill: none; stroke: #0000ff; stroke-width: 0.8"/>
    </g>
    <g>
     <use xlink:href="#m3f761bc4e0" x="220.770047" y="375.646875" style="fill: none; stroke: #0000ff; stroke-width: 0.8"/>
     <use xlink:href="#m3f761bc4e0" x="220.770047" y="375.646875" style="fill: none; stroke: #0000ff; stroke-width: 0.8"/>
    </g>
    <g>
     <use xlink:href="#m3f761bc4e0" x="297.11544" y="375.646875" style="fill: none; stroke: #0000ff; stroke-width: 0.8"/>
     <use xlink:href="#m3f761bc4e0" x="297.11544" y="375.646875" style="fill: none; stroke: #0000ff; stroke-width: 0.8"/>
    </g>
    <g id="text_5">
     <!-- 30°20' -->
     <g style="fill: #0000ff" transform="translate(51.480044 390.245313)scale(0.1 -0.1)">
      <defs>
       <path id="DejaVuSans-30" d="M 2034 4250 
Q 1547 4250 1301 3770 
Q 1056 3291 1056 2328 
Q 1056 1369 1301 889 
Q 1547 409 2034 409 
Q 2525 409 2770 889 
Q 3016 1369 3016 2328 
Q 3016 3291 2770 3770 
Q 2525 4250 2034 4250 
z
M 2034 4750 
Q 2819 4750 3233 4129 
Q 3647 3509 3647 2328 
Q 3647 1150 3233 529 
Q 2819 -91 2034 -91 
Q 1250 -91 836 529 
Q 422 1150 422 2328 
Q 422 3509 836 4129 
Q 1250 4750 2034 4750 
z
" transform="scale(0.015625)"/>
       <path id="DejaVuSans-b0" d="M 1600 4347 
Q 1350 4347 1178 4173 
Q 1006 4000 1006 3750 
Q 1006 3503 1178 3333 
Q 1350 3163 1600 3163 
Q 1850 3163 2022 3333 
Q 2194 3503 2194 3750 
Q 2194 3997 2020 4172 
Q 1847 4347 1600 4347 
z
M 1600 4750 
Q 1800 4750 1984 4673 
Q 2169 4597 2303 4453 
Q 2447 4313 2519 4134 
Q 2591 3956 2591 3750 
Q 2591 3338 2302 3052 
Q 2013 2766 1594 2766 
Q 1172 2766 890 3047 
Q 609 3328 609 3750 
Q 609 4169 896 4459 
Q 1184 4750 1600 4750 
z
" transform="scale(0.015625)"/>
       <path id="DejaVuSans-27" d="M 1147 4666 
L 1147 2931 
L 616 2931 
L 616 4666 
L 1147 4666 
z
" transform="scale(0.015625)"/>
      </defs>
      <use xlink:href="#DejaVuSans-33"/>
      <use xlink:href="#DejaVuSans-30" x="63.623047"/>
      <use xlink:href="#DejaVuSans-b0" x="127.246094"/>
      <use xlink:href="#DejaVuSans-32" x="177.246094"/>
      <use xlink:href="#DejaVuSans-30" x="240.869141"/>
      <use xlink:href="#DejaVuSans-27" x="304.492188"/>
     </g>
    </g>
    <g id="text_6">
     <!-- 30' -->
     <g style="fill: #0000ff" transform="translate(136.687936 390.245313)scale(0.1 -0.1)">
      <use xlink:href="#DejaVuSans-33"/>
      <use xlink:href="#DejaVuSans-30" x="63.623047"/>
      <use xlink:href="#DejaVuSans-27" x="127.246094"/>
     </g>
    </g>
    <g id="text_7">
     <!-- 40' -->
     <g style="fill: #0000ff" transform="translate(213.033328 390.245313)scale(0.1 -0.1)">
      <use xlink:href="#DejaVuSans-34"/>
      <use xlink:href="#DejaVuSans-30" x="63.623047"/>
      <use xlink:href="#DejaVuSans-27" x="127.246094"/>
     </g>
    </g>
    <g id="text_8">
     <!-- 50' -->
     <g style="fill: #0000ff" transform="translate(289.378721 390.245313)scale(0.1 -0.1)">
      <use xlink:href="#DejaVuSans-35"/>
      <use xlink:href="#DejaVuSans-30" x="63.623047"/>
      <use xlink:href="#DejaVuSans-27" x="127.246094"/>
     </g>
    </g>
   </g>
   <g id="ticks_3"/>
   <g id="axis labels_1">
    <g id="text_9">
     <!-- pos.eq.ra -->
     <g transform="translate(177.81875 16.318125)scale(0.12 -0.12)">
      <defs>
       <path id="DejaVuSans-70" d="M 1159 525 
L 1159 -1331 
L 581 -1331 
L 581 3500 
L 1159 3500 
L 1159 2969 
Q 1341 3281 1617 3432 
Q 1894 3584 2278 3584 
Q 2916 3584 3314 3078 
Q 3713 2572 3713 1747 
Q 3713 922 3314 415 
Q 2916 -91 2278 -91 
Q 1894 -91 1617 61 
Q 1341 213 1159 525 
z
M 3116 1747 
Q 3116 2381 2855 2742 
Q 2594 3103 2138 3103 
Q 1681 3103 1420 2742 
Q 1159 2381 1159 1747 
Q 1159 1113 1420 752 
Q 1681 391 2138 391 
Q 2594 391 2855 752 
Q 3116 1113 3116 1747 
z
" transform="scale(0.015625)"/>
       <path id="DejaVuSans-6f" d="M 1959 3097 
Q 1497 3097 1228 2736 
Q 959 2375 959 1747 
Q 959 1119 1226 758 
Q 1494 397 1959 397 
Q 2419 397 2687 759 
Q 2956 1122 2956 1747 
Q 2956 2369 2687 2733 
Q 2419 3097 1959 3097 
z
M 1959 3584 
Q 2709 3584 3137 3096 
Q 3566 2609 3566 1747 
Q 3566 888 3137 398 
Q 2709 -91 1959 -91 
Q 1206 -91 779 398 
Q 353 888 353 1747 
Q 353 2609 779 3096 
Q 1206 3584 1959 3584 
z
" transform="scale(0.015625)"/>
       <path id="DejaVuSans-2e" d="M 684 794 
L 1344 794 
L 1344 0 
L 684 0 
L 684 794 
z
" transform="scale(0.015625)"/>
       <path id="DejaVuSans-65" d="M 3597 1894 
L 3597 1613 
L 953 1613 
Q 991 1019 1311 708 
Q 1631 397 2203 397 
Q 2534 397 2845 478 
Q 3156 559 3463 722 
L 3463 178 
Q 3153 47 2828 -22 
Q 2503 -91 2169 -91 
Q 1331 -91 842 396 
Q 353 884 353 1716 
Q 353 2575 817 3079 
Q 1281 3584 2069 3584 
Q 2775 3584 3186 3129 
Q 3597 2675 3597 1894 
z
M 3022 2063 
Q 3016 2534 2758 2815 
Q 2500 3097 2075 3097 
Q 1594 3097 1305 2825 
Q 1016 2553 972 2059 
L 3022 2063 
z
" transform="scale(0.015625)"/>
       <path id="DejaVuSans-71" d="M 947 1747 
Q 947 1113 1208 752 
Q 1469 391 1925 391 
Q 2381 391 2643 752 
Q 2906 1113 2906 1747 
Q 2906 2381 2643 2742 
Q 2381 3103 1925 3103 
Q 1469 3103 1208 2742 
Q 947 2381 947 1747 
z
M 2906 525 
Q 2725 213 2448 61 
Q 2172 -91 1784 -91 
Q 1150 -91 751 415 
Q 353 922 353 1747 
Q 353 2572 751 3078 
Q 1150 3584 1784 3584 
Q 2172 3584 2448 3432 
Q 2725 3281 2906 2969 
L 2906 3500 
L 3481 3500 
L 3481 -1331 
L 2906 -1331 
L 2906 525 
z
" transform="scale(0.015625)"/>
       <path id="DejaVuSans-72" d="M 2631 2963 
Q 2534 3019 2420 3045 
Q 2306 3072 2169 3072 
Q 1681 3072 1420 2755 
Q 1159 2438 1159 1844 
L 1159 0 
L 581 0 
L 581 3500 
L 1159 3500 
L 1159 2956 
Q 1341 3275 1631 3429 
Q 1922 3584 2338 3584 
Q 2397 3584 2469 3576 
Q 2541 3569 2628 3553 
L 2631 2963 
z
" transform="scale(0.015625)"/>
       <path id="DejaVuSans-61" d="M 2194 1759 
Q 1497 1759 1228 1600 
Q 959 1441 959 1056 
Q 959 750 1161 570 
Q 1363 391 1709 391 
Q 2188 391 2477 730 
Q 2766 1069 2766 1631 
L 2766 1759 
L 2194 1759 
z
M 3341 1997 
L 3341 0 
L 2766 0 
L 2766 531 
Q 2569 213 2275 61 
Q 1981 -91 1556 -91 
Q 1019 -91 701 211 
Q 384 513 384 1019 
Q 384 1609 779 1909 
Q 1175 2209 1959 2209 
L 2766 2209 
L 2766 2266 
Q 2766 2663 2505 2880 
Q 2244 3097 1772 3097 
Q 1472 3097 1187 3025 
Q 903 2953 641 2809 
L 641 3341 
Q 956 3463 1253 3523 
Q 1550 3584 1831 3584 
Q 2591 3584 2966 3190 
Q 3341 2797 3341 1997 
z
" transform="scale(0.015625)"/>
      </defs>
      <use xlink:href="#DejaVuSans-70"/>
      <use xlink:href="#DejaVuSans-6f" x="63.476562"/>
      <use xlink:href="#DejaVuSans-73" x="124.658203"/>
      <use xlink:href="#DejaVuSans-2e" x="176.757812"/>
      <use xlink:href="#DejaVuSans-65" x="208.544922"/>
      <use xlink:href="#DejaVuSans-71" x="270.068359"/>
      <use xlink:href="#DejaVuSans-2e" x="333.544922"/>
      <use xlink:href="#DejaVuSans-72" x="365.332031"/>
      <use xlink:href="#DejaVuSans-61" x="406.445312"/>
     </g>
    </g>
   </g>
   <g id="axis labels_2">
    <g id="text_10">
     <!-- pos.eq.dec -->
     <g transform="translate(173.162187 408.958125)scale(0.12 -0.12)">
      <defs>
       <path id="DejaVuSans-64" d="M 2906 2969 
L 2906 4863 
L 3481 4863 
L 3481 0 
L 2906 0 
L 2906 525 
Q 2725 213 2448 61 
Q 2172 -91 1784 -91 
Q 1150 -91 751 415 
Q 353 922 353 1747 
Q 353 2572 751 3078 
Q 1150 3584 1784 3584 
Q 2172 3584 2448 3432 
Q 2725 3281 2906 2969 
z
M 947 1747 
Q 947 1113 1208 752 
Q 1469 391 1925 391 
Q 2381 391 2643 752 
Q 2906 1113 2906 1747 
Q 2906 2381 2643 2742 
Q 2381 3103 1925 3103 
Q 1469 3103 1208 2742 
Q 947 2381 947 1747 
z
" transform="scale(0.015625)"/>
       <path id="DejaVuSans-63" d="M 3122 3366 
L 3122 2828 
Q 2878 2963 2633 3030 
Q 2388 3097 2138 3097 
Q 1578 3097 1268 2742 
Q 959 2388 959 1747 
Q 959 1106 1268 751 
Q 1578 397 2138 397 
Q 2388 397 2633 464 
Q 2878 531 3122 666 
L 3122 134 
Q 2881 22 2623 -34 
Q 2366 -91 2075 -91 
Q 1284 -91 818 406 
Q 353 903 353 1747 
Q 353 2603 823 3093 
Q 1294 3584 2113 3584 
Q 2378 3584 2631 3529 
Q 2884 3475 3122 3366 
z
" transform="scale(0.015625)"/>
      </defs>
      <use xlink:href="#DejaVuSans-70"/>
      <use xlink:href="#DejaVuSans-6f" x="63.476562"/>
      <use xlink:href="#DejaVuSans-73" x="124.658203"/>
      <use xlink:href="#DejaVuSans-2e" x="176.757812"/>
      <use xlink:href="#DejaVuSans-65" x="208.544922"/>
      <use xlink:href="#DejaVuSans-71" x="270.068359"/>
      <use xlink:href="#DejaVuSans-2e" x="333.544922"/>
      <use xlink:href="#DejaVuSans-64" x="365.332031"/>
      <use xlink:href="#DejaVuSans-65" x="428.808594"/>
      <use xlink:href="#DejaVuSans-63" x="490.332031"/>
     </g>
    </g>
   </g>
   <g id="axis labels_3"/>
   <g id="line2d_1">
    <path d="M 38.482813 375.646875 
L 373.282812 375.646875 
L 373.282812 43.006875 
L 38.482813 43.006875 
L 38.482813 375.646875 
" style="fill: none; stroke: #000000; stroke-width: 0.8; stroke-linecap: square"/>
   </g>
   <g id="matplotlib.axis_1">
    <g id="ytick_1">
     <g id="line2d_2">
      <defs>
       <path id="m1ba56d990a" d="M 0 0 
L -3.5 0 
" style="stroke: #000000; stroke-width: 0.8"/>
      </defs>
      <g>
       <use xlink:href="#m1ba56d990a" x="38.482813" y="328.479486" style="stroke: #000000; stroke-width: 0.8"/>
      </g>
     </g>
     <g id="line2d_3">
      <defs>
       <path id="m2963c073cc" d="M 0 0 
L 3.5 0 
" style="stroke: #000000; stroke-width: 0.8"/>
      </defs>
      <g>
       <use xlink:href="#m2963c073cc" x="373.282813" y="328.479486" style="stroke: #000000; stroke-width: 0.8"/>
      </g>
     </g>
     <g id="text_11">
      <!-- −0.2 -->
      <g transform="translate(7.2 332.278705)scale(0.1 -0.1)">
       <defs>
        <path id="DejaVuSans-2212" d="M 678 2272 
L 4684 2272 
L 4684 1741 
L 678 1741 
L 678 2272 
z
" transform="scale(0.015625)"/>
       </defs>
       <use xlink:href="#DejaVuSans-2212"/>
       <use xlink:href="#DejaVuSans-30" x="83.789062"/>
       <use xlink:href="#DejaVuSans-2e" x="147.412109"/>
       <use xlink:href="#DejaVuSans-32" x="179.199219"/>
      </g>
     </g>
    </g>
    <g id="ytick_2">
     <g id="line2d_4">
      <g>
       <use xlink:href="#m1ba56d990a" x="38.482813" y="261.269196" style="stroke: #000000; stroke-width: 0.8"/>
      </g>
     </g>
     <g id="line2d_5">
      <g>
       <use xlink:href="#m2963c073cc" x="373.282813" y="261.269196" style="stroke: #000000; stroke-width: 0.8"/>
      </g>
     </g>
     <g id="text_12">
      <!-- 0.0 -->
      <g transform="translate(15.579688 265.068415)scale(0.1 -0.1)">
       <use xlink:href="#DejaVuSans-30"/>
       <use xlink:href="#DejaVuSans-2e" x="63.623047"/>
       <use xlink:href="#DejaVuSans-30" x="95.410156"/>
      </g>
     </g>
    </g>
    <g id="ytick_3">
     <g id="line2d_6">
      <g>
       <use xlink:href="#m1ba56d990a" x="38.482813" y="194.058905" style="stroke: #000000; stroke-width: 0.8"/>
      </g>
     </g>
     <g id="line2d_7">
      <g>
       <use xlink:href="#m2963c073cc" x="373.282813" y="194.058905" style="stroke: #000000; stroke-width: 0.8"/>
      </g>
     </g>
     <g id="text_13">
      <!-- 0.2 -->
      <g transform="translate(15.579688 197.858124)scale(0.1 -0.1)">
       <use xlink:href="#DejaVuSans-30"/>
       <use xlink:href="#DejaVuSans-2e" x="63.623047"/>
       <use xlink:href="#DejaVuSans-32" x="95.410156"/>
      </g>
     </g>
    </g>
    <g id="ytick_4">
     <g id="line2d_8">
      <g>
       <use xlink:href="#m1ba56d990a" x="38.482813" y="126.848615" style="stroke: #000000; stroke-width: 0.8"/>
      </g>
     </g>
     <g id="line2d_9">
      <g>
       <use xlink:href="#m2963c073cc" x="373.282813" y="126.848615" style="stroke: #000000; stroke-width: 0.8"/>
      </g>
     </g>
     <g id="text_14">
      <!-- 0.4 -->
      <g transform="translate(15.579688 130.647833)scale(0.1 -0.1)">
       <use xlink:href="#DejaVuSans-30"/>
       <use xlink:href="#DejaVuSans-2e" x="63.623047"/>
       <use xlink:href="#DejaVuSans-34" x="95.410156"/>
      </g>
     </g>
    </g>
    <g id="ytick_5">
     <g id="line2d_10">
      <g>
       <use xlink:href="#m1ba56d990a" x="38.482813" y="59.638324" style="stroke: #000000; stroke-width: 0.8"/>
      </g>
     </g>
     <g id="line2d_11">
      <g>
       <use xlink:href="#m2963c073cc" x="373.282813" y="59.638324" style="stroke: #000000; stroke-width: 0.8"/>
      </g>
     </g>
     <g id="text_15">
      <!-- 0.6 -->
      <g transform="translate(15.579688 63.437543)scale(0.1 -0.1)">
       <defs>
        <path id="DejaVuSans-36" d="M 2113 2584 
Q 1688 2584 1439 2293 
Q 1191 2003 1191 1497 
Q 1191 994 1439 701 
Q 1688 409 2113 409 
Q 2538 409 2786 701 
Q 3034 994 3034 1497 
Q 3034 2003 2786 2293 
Q 2538 2584 2113 2584 
z
M 3366 4563 
L 3366 3988 
Q 3128 4100 2886 4159 
Q 2644 4219 2406 4219 
Q 1781 4219 1451 3797 
Q 1122 3375 1075 2522 
Q 1259 2794 1537 2939 
Q 1816 3084 2150 3084 
Q 2853 3084 3261 2657 
Q 3669 2231 3669 1497 
Q 3669 778 3244 343 
Q 2819 -91 2113 -91 
Q 1303 -91 875 529 
Q 447 1150 447 2328 
Q 447 3434 972 4092 
Q 1497 4750 2381 4750 
Q 2619 4750 2861 4703 
Q 3103 4656 3366 4563 
z
" transform="scale(0.015625)"/>
       </defs>
       <use xlink:href="#DejaVuSans-30"/>
       <use xlink:href="#DejaVuSans-2e" x="63.623047"/>
       <use xlink:href="#DejaVuSans-36" x="95.410156"/>
      </g>
     </g>
    </g>
   </g>
   <g id="line2d_12">
    <path d="M 53.700994 232.584663 
L 56.627568 310.594918 
L 59.554141 264.851986 
L 62.480715 211.272055 
L 65.407288 249.960693 
L 68.333861 190.617716 
L 71.260435 172.453775 
L 74.187008 236.041187 
L 77.113582 215.504568 
L 80.040155 210.521142 
L 82.966729 325.420306 
L 85.893302 269.725279 
L 88.819875 245.626782 
L 91.746449 261.073543 
L 94.673022 277.329269 
L 97.599596 163.324188 
L 100.526169 242.71794 
L 103.452743 212.937604 
L 106.379316 131.01523 
L 109.305889 313.080013 
L 112.232463 267.659767 
L 115.159036 251.132644 
L 118.08561 348.955473 
L 121.012183 216.37384 
L 123.938757 217.577786 
L 126.86533 204.305552 
L 129.791903 206.049639 
L 132.718477 241.038019 
L 135.64505 215.832032 
L 138.571624 282.672065 
L 141.498197 227.005273 
L 144.424771 224.615873 
L 147.351344 244.383367 
L 150.277917 274.86292 
L 153.204491 269.122157 
L 156.131064 212.213606 
L 159.057638 280.566092 
L 161.984211 218.784603 
L 164.910785 141.599984 
L 167.837358 152.816541 
L 170.763931 210.142336 
L 173.690505 200.119896 
L 176.617078 194.559074 
L 179.543652 238.341861 
L 182.470225 281.46756 
L 185.396799 252.351638 
L 188.323372 297.62642 
L 191.249945 296.183527 
L 194.176519 242.555588 
L 197.103092 281.679538 
L 200.029666 266.538628 
L 202.956239 293.087723 
L 205.882812 204.657769 
L 208.809386 207.359892 
L 211.735959 306.23613 
L 214.662533 224.243859 
L 217.589106 161.562349 
L 220.51568 188.53291 
L 223.442253 253.598381 
L 226.368826 208.749243 
L 229.2954 246.208487 
L 232.221973 181.521935 
L 235.148547 131.010924 
L 238.07512 177.033456 
L 241.001694 130.665733 
L 243.928267 194.43392 
L 246.85484 230.221782 
L 249.781414 162.468536 
L 252.707987 245.595533 
L 255.634561 189.875311 
L 258.561134 205.833108 
L 261.487708 70.529832 
L 264.414281 58.126875 
L 267.340854 178.194103 
L 270.267428 173.708318 
L 273.194001 168.654001 
L 276.120575 223.051384 
L 279.047148 125.367217 
L 281.973722 202.366676 
L 284.900295 107.540305 
L 287.826868 208.288127 
L 290.753442 126.043568 
L 293.680015 202.021906 
L 296.606589 127.503431 
L 299.533162 173.4845 
L 302.459736 255.615734 
L 305.386309 230.383146 
L 308.312882 288.955742 
L 311.239456 297.140789 
L 314.166029 251.188985 
L 317.092603 263.263286 
L 320.019176 246.583364 
L 322.94575 232.087596 
L 325.872323 318.15704 
L 328.798896 149.147534 
L 331.72547 348.912147 
L 334.652043 360.526875 
L 337.578617 172.359062 
L 340.50519 319.826604 
L 343.431764 286.285005 
L 346.358337 316.049454 
L 349.28491 250.131065 
L 352.211484 316.507235 
L 355.138057 318.78983 
L 358.064631 321.115815 
" clip-path="url(#pe8d9ed6e06)" style="fill: none; stroke: #1f77b4; stroke-width: 1.5; stroke-linecap: square"/>
   </g>
  </g>
 </g>
 <defs>
  <clipPath id="pe8d9ed6e06">
   <path d="M 38.482813 375.646875 
L 373.282812 375.646875 
L 373.282812 43.006875 
L 38.482813 43.006875 
L 38.482813 375.646875 
"/>
  </clipPath>
 </defs>
</svg>
