<?xml version="1.0" encoding="utf-8" standalone="no"?>
<!DOCTYPE svg PUBLIC "-//W3C//DTD SVG 1.1//EN"
  "http://www.w3.org/Graphics/SVG/1.1/DTD/svg11.dtd">
<svg xmlns:xlink="http://www.w3.org/1999/xlink" width="378.465625pt" height="363.718125pt" viewBox="0 0 378.465625 363.718125" xmlns="http://www.w3.org/2000/svg" version="1.1">
 <metadata>
  <rdf:RDF xmlns:dc="http://purl.org/dc/elements/1.1/" xmlns:cc="http://creativecommons.org/ns#" xmlns:rdf="http://www.w3.org/1999/02/22-rdf-syntax-ns#">
   <cc:Work>
    <dc:type rdf:resource="http://purl.org/dc/dcmitype/StillImage"/>
    <dc:date>2022-05-09T09:56:12.162642</dc:date>
    <dc:format>image/svg+xml</dc:format>
    <dc:creator>
     <cc:Agent>
      <dc:title>Matplotlib v3.5.1, https://matplotlib.org/</dc:title>
     </cc:Agent>
    </dc:creator>
   </cc:Work>
  </rdf:RDF>
 </metadata>
 <defs>
  <style type="text/css">*{stroke-linejoin: round; stroke-linecap: butt}</style>
 </defs>
 <g id="figure_1">
  <g id="patch_1">
   <path d="M 0 363.718125 
L 378.465625 363.718125 
L 378.465625 0 
L 0 0 
L 0 363.718125 
z
" style="fill: none"/>
  </g>
  <g id="axes_1">
   <g id="patch_2">
    <path d="M 36.465625 339.84 
L 371.265625 339.84 
L 371.265625 7.2 
L 36.465625 7.2 
z
" style="fill: #ffffff"/>
   </g>
   <g id="matplotlib.axis_1">
    <g id="xtick_1">
     <g id="line2d_1">
      <defs>
       <path id="m4b4d9c7175" d="M 0 0 
L 0 3.5 
" style="stroke: #000000; stroke-width: 0.8"/>
      </defs>
      <g>
       <use xlink:href="#m4b4d9c7175" x="51.683807" y="339.84" style="stroke: #000000; stroke-width: 0.8"/>
      </g>
     </g>
     <g id="text_1">
      <!-- 0.0 -->
      <g transform="translate(43.732244 354.438437)scale(0.1 -0.1)">
       <defs>
        <path id="DejaVuSans-30" d="M 2034 4250 
Q 1547 4250 1301 3770 
Q 1056 3291 1056 2328 
Q 1056 1369 1301 889 
Q 1547 409 2034 409 
Q 2525 409 2770 889 
Q 3016 1369 3016 2328 
Q 3016 3291 2770 3770 
Q 2525 4250 2034 4250 
z
M 2034 4750 
Q 2819 4750 3233 4129 
Q 3647 3509 3647 2328 
Q 3647 1150 3233 529 
Q 2819 -91 2034 -91 
Q 1250 -91 836 529 
Q 422 1150 422 2328 
Q 422 3509 836 4129 
Q 1250 4750 2034 4750 
z
" transform="scale(0.015625)"/>
        <path id="DejaVuSans-2e" d="M 684 794 
L 1344 794 
L 1344 0 
L 684 0 
L 684 794 
z
" transform="scale(0.015625)"/>
       </defs>
       <use xlink:href="#DejaVuSans-30"/>
       <use xlink:href="#DejaVuSans-2e" x="63.623047"/>
       <use xlink:href="#DejaVuSans-30" x="95.410156"/>
      </g>
     </g>
    </g>
    <g id="xtick_2">
     <g id="line2d_2">
      <g>
       <use xlink:href="#m4b4d9c7175" x="112.556534" y="339.84" style="stroke: #000000; stroke-width: 0.8"/>
      </g>
     </g>
     <g id="text_2">
      <!-- 0.5 -->
      <g transform="translate(104.604972 354.438437)scale(0.1 -0.1)">
       <defs>
        <path id="DejaVuSans-35" d="M 691 4666 
L 3169 4666 
L 3169 4134 
L 1269 4134 
L 1269 2991 
Q 1406 3038 1543 3061 
Q 1681 3084 1819 3084 
Q 2600 3084 3056 2656 
Q 3513 2228 3513 1497 
Q 3513 744 3044 326 
Q 2575 -91 1722 -91 
Q 1428 -91 1123 -41 
Q 819 9 494 109 
L 494 744 
Q 775 591 1075 516 
Q 1375 441 1709 441 
Q 2250 441 2565 725 
Q 2881 1009 2881 1497 
Q 2881 1984 2565 2268 
Q 2250 2553 1709 2553 
Q 1456 2553 1204 2497 
Q 953 2441 691 2322 
L 691 4666 
z
" transform="scale(0.015625)"/>
       </defs>
       <use xlink:href="#DejaVuSans-30"/>
       <use xlink:href="#DejaVuSans-2e" x="63.623047"/>
       <use xlink:href="#DejaVuSans-35" x="95.410156"/>
      </g>
     </g>
    </g>
    <g id="xtick_3">
     <g id="line2d_3">
      <g>
       <use xlink:href="#m4b4d9c7175" x="173.429261" y="339.84" style="stroke: #000000; stroke-width: 0.8"/>
      </g>
     </g>
     <g id="text_3">
      <!-- 1.0 -->
      <g transform="translate(165.477699 354.438437)scale(0.1 -0.1)">
       <defs>
        <path id="DejaVuSans-31" d="M 794 531 
L 1825 531 
L 1825 4091 
L 703 3866 
L 703 4441 
L 1819 4666 
L 2450 4666 
L 2450 531 
L 3481 531 
L 3481 0 
L 794 0 
L 794 531 
z
" transform="scale(0.015625)"/>
       </defs>
       <use xlink:href="#DejaVuSans-31"/>
       <use xlink:href="#DejaVuSans-2e" x="63.623047"/>
       <use xlink:href="#DejaVuSans-30" x="95.410156"/>
      </g>
     </g>
    </g>
    <g id="xtick_4">
     <g id="line2d_4">
      <g>
       <use xlink:href="#m4b4d9c7175" x="234.301989" y="339.84" style="stroke: #000000; stroke-width: 0.8"/>
      </g>
     </g>
     <g id="text_4">
      <!-- 1.5 -->
      <g transform="translate(226.350426 354.438437)scale(0.1 -0.1)">
       <use xlink:href="#DejaVuSans-31"/>
       <use xlink:href="#DejaVuSans-2e" x="63.623047"/>
       <use xlink:href="#DejaVuSans-35" x="95.410156"/>
      </g>
     </g>
    </g>
    <g id="xtick_5">
     <g id="line2d_5">
      <g>
       <use xlink:href="#m4b4d9c7175" x="295.174716" y="339.84" style="stroke: #000000; stroke-width: 0.8"/>
      </g>
     </g>
     <g id="text_5">
      <!-- 2.0 -->
      <g transform="translate(287.223153 354.438437)scale(0.1 -0.1)">
       <defs>
        <path id="DejaVuSans-32" d="M 1228 531 
L 3431 531 
L 3431 0 
L 469 0 
L 469 531 
Q 828 903 1448 1529 
Q 2069 2156 2228 2338 
Q 2531 2678 2651 2914 
Q 2772 3150 2772 3378 
Q 2772 3750 2511 3984 
Q 2250 4219 1831 4219 
Q 1534 4219 1204 4116 
Q 875 4013 500 3803 
L 500 4441 
Q 881 4594 1212 4672 
Q 1544 4750 1819 4750 
Q 2544 4750 2975 4387 
Q 3406 4025 3406 3419 
Q 3406 3131 3298 2873 
Q 3191 2616 2906 2266 
Q 2828 2175 2409 1742 
Q 1991 1309 1228 531 
z
" transform="scale(0.015625)"/>
       </defs>
       <use xlink:href="#DejaVuSans-32"/>
       <use xlink:href="#DejaVuSans-2e" x="63.623047"/>
       <use xlink:href="#DejaVuSans-30" x="95.410156"/>
      </g>
     </g>
    </g>
    <g id="xtick_6">
     <g id="line2d_6">
      <g>
       <use xlink:href="#m4b4d9c7175" x="356.047443" y="339.84" style="stroke: #000000; stroke-width: 0.8"/>
      </g>
     </g>
     <g id="text_6">
      <!-- 2.5 -->
      <g transform="translate(348.095881 354.438437)scale(0.1 -0.1)">
       <use xlink:href="#DejaVuSans-32"/>
       <use xlink:href="#DejaVuSans-2e" x="63.623047"/>
       <use xlink:href="#DejaVuSans-35" x="95.410156"/>
      </g>
     </g>
    </g>
   </g>
   <g id="matplotlib.axis_2">
    <g id="ytick_1">
     <g id="line2d_7">
      <defs>
       <path id="m44073455f5" d="M 0 0 
L -3.5 0 
" style="stroke: #000000; stroke-width: 0.8"/>
      </defs>
      <g>
       <use xlink:href="#m44073455f5" x="36.465625" y="324.72" style="stroke: #000000; stroke-width: 0.8"/>
      </g>
     </g>
     <g id="text_7">
      <!-- 0.0 -->
      <g transform="translate(13.5625 328.519219)scale(0.1 -0.1)">
       <use xlink:href="#DejaVuSans-30"/>
       <use xlink:href="#DejaVuSans-2e" x="63.623047"/>
       <use xlink:href="#DejaVuSans-30" x="95.410156"/>
      </g>
     </g>
    </g>
    <g id="ytick_2">
     <g id="line2d_8">
      <g>
       <use xlink:href="#m44073455f5" x="36.465625" y="286.217236" style="stroke: #000000; stroke-width: 0.8"/>
      </g>
     </g>
     <g id="text_8">
      <!-- 2.5 -->
      <g transform="translate(13.5625 290.016455)scale(0.1 -0.1)">
       <use xlink:href="#DejaVuSans-32"/>
       <use xlink:href="#DejaVuSans-2e" x="63.623047"/>
       <use xlink:href="#DejaVuSans-35" x="95.410156"/>
      </g>
     </g>
    </g>
    <g id="ytick_3">
     <g id="line2d_9">
      <g>
       <use xlink:href="#m44073455f5" x="36.465625" y="247.714472" style="stroke: #000000; stroke-width: 0.8"/>
      </g>
     </g>
     <g id="text_9">
      <!-- 5.0 -->
      <g transform="translate(13.5625 251.513691)scale(0.1 -0.1)">
       <use xlink:href="#DejaVuSans-35"/>
       <use xlink:href="#DejaVuSans-2e" x="63.623047"/>
       <use xlink:href="#DejaVuSans-30" x="95.410156"/>
      </g>
     </g>
    </g>
    <g id="ytick_4">
     <g id="line2d_10">
      <g>
       <use xlink:href="#m44073455f5" x="36.465625" y="209.211709" style="stroke: #000000; stroke-width: 0.8"/>
      </g>
     </g>
     <g id="text_10">
      <!-- 7.5 -->
      <g transform="translate(13.5625 213.010927)scale(0.1 -0.1)">
       <defs>
        <path id="DejaVuSans-37" d="M 525 4666 
L 3525 4666 
L 3525 4397 
L 1831 0 
L 1172 0 
L 2766 4134 
L 525 4134 
L 525 4666 
z
" transform="scale(0.015625)"/>
       </defs>
       <use xlink:href="#DejaVuSans-37"/>
       <use xlink:href="#DejaVuSans-2e" x="63.623047"/>
       <use xlink:href="#DejaVuSans-35" x="95.410156"/>
      </g>
     </g>
    </g>
    <g id="ytick_5">
     <g id="line2d_11">
      <g>
       <use xlink:href="#m44073455f5" x="36.465625" y="170.708945" style="stroke: #000000; stroke-width: 0.8"/>
      </g>
     </g>
     <g id="text_11">
      <!-- 10.0 -->
      <g transform="translate(7.2 174.508163)scale(0.1 -0.1)">
       <use xlink:href="#DejaVuSans-31"/>
       <use xlink:href="#DejaVuSans-30" x="63.623047"/>
       <use xlink:href="#DejaVuSans-2e" x="127.246094"/>
       <use xlink:href="#DejaVuSans-30" x="159.033203"/>
      </g>
     </g>
    </g>
    <g id="ytick_6">
     <g id="line2d_12">
      <g>
       <use xlink:href="#m44073455f5" x="36.465625" y="132.206181" style="stroke: #000000; stroke-width: 0.8"/>
      </g>
     </g>
     <g id="text_12">
      <!-- 12.5 -->
      <g transform="translate(7.2 136.0054)scale(0.1 -0.1)">
       <use xlink:href="#DejaVuSans-31"/>
       <use xlink:href="#DejaVuSans-32" x="63.623047"/>
       <use xlink:href="#DejaVuSans-2e" x="127.246094"/>
       <use xlink:href="#DejaVuSans-35" x="159.033203"/>
      </g>
     </g>
    </g>
    <g id="ytick_7">
     <g id="line2d_13">
      <g>
       <use xlink:href="#m44073455f5" x="36.465625" y="93.703417" style="stroke: #000000; stroke-width: 0.8"/>
      </g>
     </g>
     <g id="text_13">
      <!-- 15.0 -->
      <g transform="translate(7.2 97.502636)scale(0.1 -0.1)">
       <use xlink:href="#DejaVuSans-31"/>
       <use xlink:href="#DejaVuSans-35" x="63.623047"/>
       <use xlink:href="#DejaVuSans-2e" x="127.246094"/>
       <use xlink:href="#DejaVuSans-30" x="159.033203"/>
      </g>
     </g>
    </g>
    <g id="ytick_8">
     <g id="line2d_14">
      <g>
       <use xlink:href="#m44073455f5" x="36.465625" y="55.200653" style="stroke: #000000; stroke-width: 0.8"/>
      </g>
     </g>
     <g id="text_14">
      <!-- 17.5 -->
      <g transform="translate(7.2 58.999872)scale(0.1 -0.1)">
       <use xlink:href="#DejaVuSans-31"/>
       <use xlink:href="#DejaVuSans-37" x="63.623047"/>
       <use xlink:href="#DejaVuSans-2e" x="127.246094"/>
       <use xlink:href="#DejaVuSans-35" x="159.033203"/>
      </g>
     </g>
    </g>
    <g id="ytick_9">
     <g id="line2d_15">
      <g>
       <use xlink:href="#m44073455f5" x="36.465625" y="16.697889" style="stroke: #000000; stroke-width: 0.8"/>
      </g>
     </g>
     <g id="text_15">
      <!-- 20.0 -->
      <g transform="translate(7.2 20.497108)scale(0.1 -0.1)">
       <use xlink:href="#DejaVuSans-32"/>
       <use xlink:href="#DejaVuSans-30" x="63.623047"/>
       <use xlink:href="#DejaVuSans-2e" x="127.246094"/>
       <use xlink:href="#DejaVuSans-30" x="159.033203"/>
      </g>
     </g>
    </g>
   </g>
   <g id="line2d_16">
    <path d="M 51.683807 324.72 
L 54.758187 324.689146 
L 57.832567 324.596584 
L 60.906947 324.442314 
L 63.981327 324.226336 
L 67.055708 323.94865 
L 70.130088 323.609256 
L 73.204468 323.208154 
L 76.278848 322.745344 
L 79.353228 322.220826 
L 82.427608 321.634601 
L 85.501989 320.986667 
L 88.576369 320.277025 
L 91.650749 319.505675 
L 94.725129 318.672617 
L 97.799509 317.777851 
L 100.873889 316.821377 
L 103.94827 315.803196 
L 107.02265 314.723306 
L 110.09703 313.581708 
L 113.17141 312.378402 
L 116.24579 311.113388 
L 119.32017 309.786667 
L 122.394551 308.398237 
L 125.468931 306.948099 
L 128.543311 305.436253 
L 131.617691 303.8627 
L 134.692071 302.227438 
L 137.766451 300.530468 
L 140.840832 298.771791 
L 143.915212 296.951405 
L 146.989592 295.069311 
L 150.063972 293.12551 
L 153.138352 291.12 
L 156.212732 289.052782 
L 159.287113 286.923857 
L 162.361493 284.733223 
L 165.435873 282.480882 
L 168.510253 280.166832 
L 171.584633 277.791074 
L 174.659013 275.353609 
L 177.733394 272.854435 
L 180.807774 270.293554 
L 183.882154 267.670964 
L 186.956534 264.986667 
L 190.030914 262.240661 
L 193.105294 259.432948 
L 196.179675 256.563526 
L 199.254055 253.632397 
L 202.328435 250.639559 
L 205.402815 247.585014 
L 208.477195 244.46876 
L 211.551575 241.290799 
L 214.625956 238.051129 
L 217.700336 234.749752 
L 220.774716 231.386667 
L 223.849096 227.961873 
L 226.923476 224.475372 
L 229.997856 220.927163 
L 233.072237 217.317245 
L 236.146617 213.64562 
L 239.220997 209.912287 
L 242.295377 206.117245 
L 245.369757 202.260496 
L 248.444137 198.342039 
L 251.518518 194.361873 
L 254.592898 190.32 
L 257.667278 186.216419 
L 260.741658 182.051129 
L 263.816038 177.824132 
L 266.890418 173.535427 
L 269.964799 169.185014 
L 273.039179 164.772893 
L 276.113559 160.299063 
L 279.187939 155.763526 
L 282.262319 151.166281 
L 285.336699 146.507328 
L 288.41108 141.786667 
L 291.48546 137.004298 
L 294.55984 132.16022 
L 297.63422 127.254435 
L 300.7086 122.286942 
L 303.78298 117.257741 
L 306.857361 112.166832 
L 309.931741 107.014215 
L 313.006121 101.79989 
L 316.080501 96.523857 
L 319.154881 91.186116 
L 322.229261 85.786667 
L 325.303642 80.32551 
L 328.378022 74.802645 
L 331.452402 69.218072 
L 334.526782 63.571791 
L 337.601162 57.863802 
L 340.675542 52.094105 
L 343.749923 46.2627 
L 346.824303 40.369587 
L 349.898683 34.414766 
L 352.973063 28.398237 
L 356.047443 22.32 
" clip-path="url(#p932071954d)" style="fill: none; stroke-dasharray: 1.5,2.475; stroke-dashoffset: 0; stroke: #008000; stroke-width: 1.5"/>
   </g>
   <g id="line2d_17">
    <path d="M 51.683807 324.72 
L 54.758187 324.72 
L 57.832567 324.72 
L 60.906947 324.642217 
L 63.981327 324.48665 
L 67.055708 324.331083 
L 70.130088 324.097733 
L 73.204468 323.475466 
L 76.278848 323.164333 
L 79.353228 322.853199 
L 82.427608 322.308716 
L 85.501989 321.764232 
L 88.576369 320.986399 
L 91.650749 319.897432 
L 94.725129 319.197381 
L 97.799509 318.030631 
L 100.873889 316.863881 
L 103.94827 316.086047 
L 107.02265 315.308213 
L 110.09703 314.452596 
L 113.17141 313.985896 
L 116.24579 312.819146 
L 119.32017 311.807962 
L 122.394551 311.107912 
L 125.468931 310.018945 
L 128.543311 308.774411 
L 131.617691 307.607661 
L 134.692071 306.596477 
L 137.766451 304.496326 
L 140.840832 303.485142 
L 143.915212 302.240609 
L 146.989592 300.762725 
L 150.063972 299.129274 
L 153.138352 297.806957 
L 156.212732 296.173506 
L 159.287113 294.773406 
L 162.361493 292.906605 
L 165.435873 291.350938 
L 168.510253 289.250787 
L 171.584633 288.16182 
L 174.659013 286.917286 
L 177.733394 284.739352 
L 180.807774 282.405851 
L 183.882154 280.616834 
L 186.956534 278.20555 
L 190.030914 276.105399 
L 193.105294 274.394165 
L 196.179675 272.605148 
L 199.254055 270.11608 
L 202.328435 268.093713 
L 205.402815 266.382479 
L 208.477195 265.293512 
L 211.551575 262.960011 
L 214.625956 261.170994 
L 217.700336 258.059659 
L 220.774716 255.803942 
L 223.849096 253.470441 
L 226.923476 251.292507 
L 229.997856 249.659056 
L 233.072237 247.714472 
L 236.146617 245.536538 
L 239.220997 243.203037 
L 242.295377 239.936136 
L 245.369757 237.524852 
L 248.444137 234.569084 
L 251.518518 231.768883 
L 254.592898 229.124249 
L 257.667278 227.490798 
L 260.741658 225.079514 
L 263.816038 223.36828 
L 266.890418 220.490296 
L 269.964799 218.390145 
L 273.039179 215.823294 
L 276.113559 213.800927 
L 279.187939 211.311859 
L 282.262319 208.511658 
L 285.336699 205.08919 
L 288.41108 202.911256 
L 291.48546 200.188839 
L 294.55984 197.233071 
L 297.63422 194.121736 
L 300.7086 191.632669 
L 303.78298 188.287984 
L 306.857361 185.098867 
L 309.931741 182.843149 
L 313.006121 179.809598 
L 316.080501 177.476097 
L 319.154881 175.298163 
L 322.229261 173.042446 
L 325.303642 170.397811 
L 328.378022 168.06431 
L 331.452402 165.030759 
L 334.526782 161.919425 
L 337.601162 159.585924 
L 340.675542 156.085673 
L 343.749923 153.285472 
L 346.824303 150.718621 
L 349.898683 147.996203 
L 352.973063 145.273786 
L 356.047443 143.018068 
" clip-path="url(#p932071954d)" style="fill: none; stroke-dasharray: 5.55,2.4; stroke-dashoffset: 0; stroke: #ff0000; stroke-width: 1.5"/>
   </g>
   <g id="line2d_18">
    <path d="M 51.683807 324.72 
L 54.758187 324.72 
L 57.832567 324.72 
L 60.906947 324.640742 
L 63.981327 324.481244 
L 67.055708 324.321072 
L 70.130088 324.078949 
L 73.204468 323.427764 
L 76.278848 323.100804 
L 79.353228 322.77084 
L 82.427608 322.189808 
L 85.501989 321.605521 
L 88.576369 320.768073 
L 91.650749 319.585436 
L 94.725129 318.821021 
L 97.799509 317.535953 
L 100.873889 316.242215 
L 103.94827 315.3698 
L 107.02265 314.497247 
L 110.09703 313.525531 
L 113.17141 312.993158 
L 116.24579 311.652768 
L 119.32017 310.487141 
L 122.394551 309.67509 
L 125.468931 308.39663 
L 128.543311 306.934315 
L 131.617691 305.551671 
L 134.692071 304.342648 
L 137.766451 301.796809 
L 140.840832 300.570729 
L 143.915212 299.061418 
L 146.989592 297.242357 
L 150.063972 295.228525 
L 153.138352 293.579831 
L 156.212732 291.535487 
L 159.287113 289.752867 
L 162.361493 287.358811 
L 165.435873 285.342599 
L 168.510253 282.641334 
L 171.584633 281.223243 
L 174.659013 279.57888 
L 177.733394 276.67891 
L 180.807774 273.534548 
L 183.882154 271.115364 
L 186.956534 267.818711 
L 190.030914 264.946979 
L 193.105294 262.590293 
L 196.179675 260.096886 
L 199.254055 256.604737 
L 202.328435 253.741409 
L 205.402815 251.282764 
L 208.477195 249.724889 
L 211.551575 246.301791 
L 214.625956 243.671408 
L 217.700336 239.06442 
L 220.774716 235.697419 
L 223.849096 232.174347 
L 226.923476 228.872077 
L 229.997856 226.400077 
L 233.072237 223.415315 
L 236.146617 220.043337 
L 239.220997 216.364713 
L 242.295377 211.249709 
L 245.369757 207.374428 
L 248.444137 202.658985 
L 251.518518 198.162413 
L 254.592898 193.815248 
L 257.667278 191.125082 
L 260.741658 187.16894 
L 263.816038 184.288253 
L 266.890418 179.465016 
L 269.964799 175.984408 
L 273.039179 171.553935 
L 276.113559 168.059955 
L 279.187939 163.708213 
L 282.262319 158.754057 
L 285.336699 152.673235 
L 288.41108 148.749522 
L 291.48546 143.802504 
L 294.55984 138.385061 
L 297.63422 132.578288 
L 300.7086 127.898255 
L 303.78298 121.651196 
L 306.857361 115.575454 
L 309.931741 111.303866 
L 313.006121 105.436066 
L 316.080501 100.946643 
L 319.154881 96.635977 
L 322.229261 92.117448 
L 325.303642 86.782501 
L 328.378022 82.033777 
L 331.452402 75.76233 
L 334.526782 69.237285 
L 337.601162 64.338046 
L 340.675542 56.888057 
L 343.749923 50.928129 
L 346.824303 45.385313 
L 349.898683 39.374694 
L 352.973063 33.274025 
L 356.047443 28.233826 
" clip-path="url(#p932071954d)" style="fill: none; stroke: #000000; stroke-width: 1.5; stroke-linecap: square"/>
   </g>
   <g id="line2d_19">
    <path d="M 51.683807 324.72 
L 54.758187 324.72 
L 57.832567 324.72 
L 60.906947 324.640741 
L 63.981327 324.481529 
L 67.055708 324.321745 
L 70.130088 324.079971 
L 73.204468 323.430096 
L 76.278848 323.103352 
L 79.353228 322.774851 
L 82.427608 322.195262 
L 85.501989 321.612268 
L 88.576369 320.77329 
L 91.650749 319.59024 
L 94.725129 318.825426 
L 97.799509 317.541538 
L 100.873889 316.249217 
L 103.94827 315.380871 
L 107.02265 314.507481 
L 110.09703 313.539077 
L 113.17141 313.007756 
L 116.24579 311.67022 
L 119.32017 310.502693 
L 122.394551 309.68814 
L 125.468931 308.411947 
L 128.543311 306.942646 
L 131.617691 305.555436 
L 134.692071 304.345477 
L 137.766451 301.813181 
L 140.840832 300.584205 
L 143.915212 299.060396 
L 146.989592 297.239338 
L 150.063972 295.212011 
L 153.138352 293.557984 
L 156.212732 291.500158 
L 159.287113 289.723573 
L 162.361493 287.338528 
L 165.435873 285.334127 
L 168.510253 282.608905 
L 171.584633 281.184074 
L 174.659013 279.544195 
L 177.733394 276.65015 
L 180.807774 273.527901 
L 183.882154 271.114963 
L 186.956534 267.836144 
L 190.030914 264.959929 
L 193.105294 262.596841 
L 196.179675 260.109077 
L 199.254055 256.614972 
L 202.328435 253.754107 
L 205.402815 251.314397 
L 208.477195 249.750507 
L 211.551575 246.368654 
L 214.625956 243.755861 
L 217.700336 239.175373 
L 220.774716 235.82579 
L 223.849096 232.332955 
L 226.923476 229.047451 
L 229.997856 226.564052 
L 233.072237 223.578454 
L 236.146617 220.208279 
L 239.220997 216.568178 
L 242.295377 211.424699 
L 245.369757 207.594711 
L 248.444137 202.860123 
L 251.518518 198.33975 
L 254.592898 194.028675 
L 257.667278 191.343835 
L 260.741658 187.345336 
L 263.816038 184.48279 
L 266.890418 179.626018 
L 269.964799 176.050981 
L 273.039179 171.639287 
L 276.113559 168.131361 
L 279.187939 163.773391 
L 282.262319 158.827947 
L 285.336699 152.729695 
L 288.41108 148.814133 
L 291.48546 143.867467 
L 294.55984 138.443767 
L 297.63422 132.684372 
L 300.7086 128.031697 
L 303.78298 121.721776 
L 306.857361 115.639293 
L 309.931741 111.298334 
L 313.006121 105.402356 
L 316.080501 100.821094 
L 319.154881 96.504752 
L 322.229261 91.988199 
L 325.303642 86.644194 
L 328.378022 81.876809 
L 331.452402 75.614974 
L 334.526782 69.124856 
L 337.601162 64.209817 
L 340.675542 56.755688 
L 343.749923 50.735123 
L 346.824303 45.156937 
L 349.898683 39.174289 
L 352.973063 33.126871 
L 356.047443 28.062663 
" clip-path="url(#p932071954d)" style="fill: none; stroke-dasharray: 9.6,2.4,1.5,2.4; stroke-dashoffset: 0; stroke: #0000ff; stroke-width: 1.5"/>
   </g>
   <g id="line2d_20">
    <path d="M 51.683807 324.72 
L 54.758187 324.72 
L 57.832567 324.72 
L 60.906947 324.636298 
L 63.981327 324.457481 
L 67.055708 324.272293 
L 70.130088 324.085837 
L 73.204468 323.574084 
L 76.278848 323.264408 
L 79.353228 322.888771 
L 82.427608 322.380592 
L 85.501989 321.807611 
L 88.576369 321.07237 
L 91.650749 319.704508 
L 94.725129 318.918214 
L 97.799509 317.453281 
L 100.873889 316.170122 
L 103.94827 315.360867 
L 107.02265 314.452596 
L 110.09703 313.479677 
L 113.17141 312.982867 
L 116.24579 311.802944 
L 119.32017 311.11569 
L 122.394551 310.513808 
L 125.468931 309.589089 
L 128.543311 308.035469 
L 131.617691 306.894646 
L 134.692071 305.320531 
L 137.766451 303.052758 
L 140.840832 302.15738 
L 143.915212 300.717213 
L 146.989592 299.274695 
L 150.063972 296.99801 
L 153.138352 295.017868 
L 156.212732 293.001056 
L 159.287113 291.992651 
L 162.361493 290.168836 
L 165.435873 288.818774 
L 168.510253 286.003332 
L 171.584633 284.078194 
L 174.659013 282.593447 
L 177.733394 279.479252 
L 180.807774 276.281039 
L 183.882154 273.978858 
L 186.956534 269.991071 
L 190.030914 266.553325 
L 193.105294 264.826812 
L 196.179675 262.653545 
L 199.254055 258.341235 
L 202.328435 255.917235 
L 205.402815 253.573589 
L 208.477195 252.066959 
L 211.551575 249.723312 
L 214.625956 245.964347 
L 217.700336 241.169002 
L 220.774716 237.176874 
L 223.849096 234.238505 
L 226.923476 230.388229 
L 229.997856 228.46309 
L 233.072237 225.334741 
L 236.146617 220.281253 
L 239.220997 216.912261 
L 242.295377 214.54286 
L 245.369757 211.284934 
L 248.444137 206.546133 
L 251.518518 201.511156 
L 254.592898 198.010904 
L 257.667278 195.735741 
L 260.741658 188.676901 
L 263.816038 185.682242 
L 266.890418 179.372067 
L 269.964799 175.52179 
L 273.039179 171.671514 
L 276.113559 167.339953 
L 279.187939 161.358273 
L 282.262319 156.84795 
L 285.336699 148.569855 
L 288.41108 144.719579 
L 291.48546 147.607286 
L 294.55984 142.473585 
L 297.63422 133.489606 
L 300.7086 137.981595 
L 303.78298 124.505628 
L 306.857361 118.730213 
L 309.931741 114.879937 
L 313.006121 111.029661 
L 316.080501 105.254246 
L 319.154881 101.40397 
L 322.229261 101.40397 
L 325.303642 89.853141 
L 328.378022 324.72 
L 331.452402 324.72 
L 334.526782 324.72 
L 337.601162 324.72 
L 340.675542 324.72 
L 343.749923 324.72 
L 346.824303 324.72 
L 349.898683 324.72 
L 352.973063 324.72 
L 356.047443 324.72 
" clip-path="url(#p932071954d)" style="fill: none; stroke: #008000; stroke-width: 1.5; stroke-linecap: square"/>
   </g>
   <g id="line2d_21">
    <path d="M 51.683807 324.72 
L 54.758187 324.72 
L 57.832567 324.72 
L 60.906947 324.642217 
L 63.981327 324.48665 
L 67.055708 324.331083 
L 70.130088 324.082442 
L 73.204468 323.329639 
L 76.278848 323.018505 
L 79.353228 322.707372 
L 82.427608 322.138715 
L 85.501989 321.581128 
L 88.576369 320.65604 
L 91.650749 319.52399 
L 94.725129 318.72131 
L 97.799509 317.49732 
L 100.873889 316.070984 
L 103.94827 315.063704 
L 107.02265 314.137101 
L 110.09703 313.2492 
L 113.17141 312.631849 
L 116.24579 311.24898 
L 119.32017 310.085018 
L 122.394551 309.309367 
L 125.468931 308.102582 
L 128.543311 306.589883 
L 131.617691 305.34042 
L 134.692071 304.252938 
L 137.766451 301.673603 
L 140.840832 300.479826 
L 143.915212 298.945256 
L 146.989592 296.956307 
L 150.063972 294.917273 
L 153.138352 293.214406 
L 156.212732 291.174967 
L 159.287113 289.281828 
L 162.361493 286.851261 
L 165.435873 284.859789 
L 168.510253 282.104157 
L 171.584633 280.830081 
L 174.659013 278.971251 
L 177.733394 276.209966 
L 180.807774 273.086097 
L 183.882154 270.680273 
L 186.956534 267.560252 
L 190.030914 264.714953 
L 193.105294 262.180542 
L 196.179675 259.740392 
L 199.254055 256.423787 
L 202.328435 253.435267 
L 205.402815 250.843934 
L 208.477195 249.374855 
L 211.551575 245.971175 
L 214.625956 243.468959 
L 217.700336 239.373714 
L 220.774716 235.73466 
L 223.849096 232.54967 
L 226.923476 229.067276 
L 229.997856 226.360367 
L 233.072237 223.292972 
L 236.146617 219.858521 
L 239.220997 215.825141 
L 242.295377 210.056021 
L 245.369757 206.187084 
L 248.444137 201.638728 
L 251.518518 196.844644 
L 254.592898 192.325856 
L 257.667278 189.594509 
L 260.741658 185.658575 
L 263.816038 182.686949 
L 266.890418 177.958035 
L 269.964799 174.935143 
L 273.039179 170.301249 
L 276.113559 167.128496 
L 279.187939 162.561947 
L 282.262319 157.349827 
L 285.336699 151.19743 
L 288.41108 146.956973 
L 291.48546 141.624234 
L 294.55984 135.913602 
L 297.63422 130.299191 
L 300.7086 125.48762 
L 303.78298 119.090984 
L 306.857361 113.103646 
L 309.931741 108.526962 
L 313.006121 102.5185 
L 316.080501 98.167271 
L 319.154881 93.681354 
L 322.229261 89.134556 
L 325.303642 83.457596 
L 328.378022 78.827313 
L 331.452402 72.487935 
L 334.526782 65.924658 
L 337.601162 60.562884 
L 340.675542 53.840346 
L 343.749923 47.77667 
L 346.824303 41.976064 
L 349.898683 36.289505 
L 352.973063 30.174545 
L 356.047443 25.035862 
" clip-path="url(#p932071954d)" style="fill: none; stroke: #ffff00; stroke-width: 1.5; stroke-linecap: square"/>
   </g>
   <g id="patch_3">
    <path d="M 36.465625 339.84 
L 36.465625 7.2 
" style="fill: none; stroke: #000000; stroke-width: 0.8; stroke-linejoin: miter; stroke-linecap: square"/>
   </g>
   <g id="patch_4">
    <path d="M 371.265625 339.84 
L 371.265625 7.2 
" style="fill: none; stroke: #000000; stroke-width: 0.8; stroke-linejoin: miter; stroke-linecap: square"/>
   </g>
   <g id="patch_5">
    <path d="M 36.465625 339.84 
L 371.265625 339.84 
" style="fill: none; stroke: #000000; stroke-width: 0.8; stroke-linejoin: miter; stroke-linecap: square"/>
   </g>
   <g id="patch_6">
    <path d="M 36.465625 7.2 
L 371.265625 7.2 
" style="fill: none; stroke: #000000; stroke-width: 0.8; stroke-linejoin: miter; stroke-linecap: square"/>
   </g>
   <g id="legend_1">
    <g id="patch_7">
     <path d="M 43.465625 105.309375 
L 121.565625 105.309375 
Q 123.565625 105.309375 123.565625 103.309375 
L 123.565625 14.2 
Q 123.565625 12.2 121.565625 12.2 
L 43.465625 12.2 
Q 41.465625 12.2 41.465625 14.2 
L 41.465625 103.309375 
Q 41.465625 105.309375 43.465625 105.309375 
z
" style="fill: #ffffff; opacity: 0.8; stroke: #cccccc; stroke-linejoin: miter"/>
    </g>
    <g id="line2d_22">
     <path d="M 45.465625 20.298437 
L 55.465625 20.298437 
L 65.465625 20.298437 
" style="fill: none; stroke-dasharray: 1.5,2.475; stroke-dashoffset: 0; stroke: #008000; stroke-width: 1.5"/>
    </g>
    <g id="text_16">
     <!-- $K_{pois}$ -->
     <g transform="translate(73.465625 23.798437)scale(0.1 -0.1)">
      <defs>
       <path id="DejaVuSans-Oblique-4b" d="M 1081 4666 
L 1716 4666 
L 1331 2700 
L 3781 4666 
L 4622 4666 
L 1850 2438 
L 3878 0 
L 3109 0 
L 1247 2272 
L 806 0 
L 172 0 
L 1081 4666 
z
" transform="scale(0.015625)"/>
       <path id="DejaVuSans-Oblique-70" d="M 3175 2156 
Q 3175 2616 2975 2859 
Q 2775 3103 2400 3103 
Q 2144 3103 1911 2972 
Q 1678 2841 1497 2591 
Q 1319 2344 1212 1994 
Q 1106 1644 1106 1300 
Q 1106 863 1306 627 
Q 1506 391 1875 391 
Q 2147 391 2380 519 
Q 2613 647 2778 891 
Q 2956 1147 3065 1494 
Q 3175 1841 3175 2156 
z
M 1394 2969 
Q 1625 3272 1939 3428 
Q 2253 3584 2638 3584 
Q 3175 3584 3472 3232 
Q 3769 2881 3769 2247 
Q 3769 1728 3584 1258 
Q 3400 788 3053 416 
Q 2822 169 2531 39 
Q 2241 -91 1919 -91 
Q 1547 -91 1294 64 
Q 1041 219 916 525 
L 556 -1331 
L -19 -1331 
L 922 3500 
L 1497 3500 
L 1394 2969 
z
" transform="scale(0.015625)"/>
       <path id="DejaVuSans-Oblique-6f" d="M 1625 -91 
Q 1009 -91 651 289 
Q 294 669 294 1325 
Q 294 1706 417 2101 
Q 541 2497 738 2766 
Q 1047 3184 1428 3384 
Q 1809 3584 2291 3584 
Q 2888 3584 3255 3212 
Q 3622 2841 3622 2241 
Q 3622 1825 3500 1412 
Q 3378 1000 3181 728 
Q 2875 309 2494 109 
Q 2113 -91 1625 -91 
z
M 891 1344 
Q 891 869 1089 633 
Q 1288 397 1691 397 
Q 2269 397 2648 901 
Q 3028 1406 3028 2181 
Q 3028 2634 2825 2865 
Q 2622 3097 2228 3097 
Q 1903 3097 1650 2945 
Q 1397 2794 1197 2484 
Q 1050 2253 970 1956 
Q 891 1659 891 1344 
z
" transform="scale(0.015625)"/>
       <path id="DejaVuSans-Oblique-69" d="M 1172 4863 
L 1747 4863 
L 1606 4134 
L 1031 4134 
L 1172 4863 
z
M 909 3500 
L 1484 3500 
L 800 0 
L 225 0 
L 909 3500 
z
" transform="scale(0.015625)"/>
       <path id="DejaVuSans-Oblique-73" d="M 3200 3397 
L 3091 2853 
Q 2863 2978 2609 3040 
Q 2356 3103 2088 3103 
Q 1634 3103 1373 2948 
Q 1113 2794 1113 2528 
Q 1113 2219 1719 2053 
Q 1766 2041 1788 2034 
L 1972 1978 
Q 2547 1819 2739 1644 
Q 2931 1469 2931 1166 
Q 2931 609 2489 259 
Q 2047 -91 1331 -91 
Q 1053 -91 747 -37 
Q 441 16 72 128 
L 184 722 
Q 500 559 806 475 
Q 1113 391 1394 391 
Q 1816 391 2080 572 
Q 2344 753 2344 1031 
Q 2344 1331 1650 1516 
L 1591 1531 
L 1394 1581 
Q 956 1697 753 1886 
Q 550 2075 550 2369 
Q 550 2928 970 3256 
Q 1391 3584 2113 3584 
Q 2397 3584 2667 3537 
Q 2938 3491 3200 3397 
z
" transform="scale(0.015625)"/>
      </defs>
      <use xlink:href="#DejaVuSans-Oblique-4b" transform="translate(0 0.09375)"/>
      <use xlink:href="#DejaVuSans-Oblique-70" transform="translate(65.576172 -16.3125)scale(0.7)"/>
      <use xlink:href="#DejaVuSans-Oblique-6f" transform="translate(110.009766 -16.3125)scale(0.7)"/>
      <use xlink:href="#DejaVuSans-Oblique-69" transform="translate(152.836914 -16.3125)scale(0.7)"/>
      <use xlink:href="#DejaVuSans-Oblique-73" transform="translate(172.285156 -16.3125)scale(0.7)"/>
     </g>
    </g>
    <g id="line2d_23">
     <path d="M 45.465625 35.996875 
L 55.465625 35.996875 
L 65.465625 35.996875 
" style="fill: none; stroke-dasharray: 5.55,2.4; stroke-dashoffset: 0; stroke: #ff0000; stroke-width: 1.5"/>
    </g>
    <g id="text_17">
     <!-- $K_{un}$ -->
     <g transform="translate(73.465625 39.496875)scale(0.1 -0.1)">
      <defs>
       <path id="DejaVuSans-Oblique-75" d="M 428 1388 
L 838 3500 
L 1416 3500 
L 1006 1409 
Q 975 1256 961 1147 
Q 947 1038 947 966 
Q 947 700 1109 554 
Q 1272 409 1569 409 
Q 2031 409 2368 721 
Q 2706 1034 2809 1563 
L 3194 3500 
L 3769 3500 
L 3091 0 
L 2516 0 
L 2631 550 
Q 2388 244 2052 76 
Q 1716 -91 1338 -91 
Q 878 -91 622 161 
Q 366 413 366 863 
Q 366 956 381 1097 
Q 397 1238 428 1388 
z
" transform="scale(0.015625)"/>
       <path id="DejaVuSans-Oblique-6e" d="M 3566 2113 
L 3156 0 
L 2578 0 
L 2988 2091 
Q 3016 2238 3031 2350 
Q 3047 2463 3047 2528 
Q 3047 2791 2881 2937 
Q 2716 3084 2419 3084 
Q 1956 3084 1622 2776 
Q 1288 2469 1184 1941 
L 800 0 
L 225 0 
L 903 3500 
L 1478 3500 
L 1363 2950 
Q 1603 3253 1940 3418 
Q 2278 3584 2650 3584 
Q 3113 3584 3367 3334 
Q 3622 3084 3622 2631 
Q 3622 2519 3608 2391 
Q 3594 2263 3566 2113 
z
" transform="scale(0.015625)"/>
      </defs>
      <use xlink:href="#DejaVuSans-Oblique-4b" transform="translate(0 0.09375)"/>
      <use xlink:href="#DejaVuSans-Oblique-75" transform="translate(65.576172 -16.3125)scale(0.7)"/>
      <use xlink:href="#DejaVuSans-Oblique-6e" transform="translate(109.941406 -16.3125)scale(0.7)"/>
     </g>
    </g>
    <g id="line2d_24">
     <path d="M 45.465625 50.675 
L 55.465625 50.675 
L 65.465625 50.675 
" style="fill: none; stroke: #000000; stroke-width: 1.5; stroke-linecap: square"/>
    </g>
    <g id="text_18">
     <!-- $K_{trans}$ -->
     <g transform="translate(73.465625 54.175)scale(0.1 -0.1)">
      <defs>
       <path id="DejaVuSans-Oblique-74" d="M 2706 3500 
L 2619 3053 
L 1472 3053 
L 1100 1153 
Q 1081 1047 1072 975 
Q 1063 903 1063 863 
Q 1063 663 1183 572 
Q 1303 481 1569 481 
L 2150 481 
L 2053 0 
L 1503 0 
Q 991 0 739 200 
Q 488 400 488 806 
Q 488 878 497 964 
Q 506 1050 525 1153 
L 897 3053 
L 409 3053 
L 500 3500 
L 978 3500 
L 1172 4494 
L 1747 4494 
L 1556 3500 
L 2706 3500 
z
" transform="scale(0.015625)"/>
       <path id="DejaVuSans-Oblique-72" d="M 2853 2969 
Q 2766 3016 2653 3041 
Q 2541 3066 2413 3066 
Q 1953 3066 1609 2717 
Q 1266 2369 1153 1784 
L 800 0 
L 225 0 
L 909 3500 
L 1484 3500 
L 1375 2956 
Q 1603 3259 1920 3421 
Q 2238 3584 2597 3584 
Q 2691 3584 2781 3573 
Q 2872 3563 2963 3538 
L 2853 2969 
z
" transform="scale(0.015625)"/>
       <path id="DejaVuSans-Oblique-61" d="M 3438 1997 
L 3047 0 
L 2472 0 
L 2578 531 
Q 2325 219 2001 64 
Q 1678 -91 1281 -91 
Q 834 -91 548 182 
Q 263 456 263 884 
Q 263 1497 752 1853 
Q 1241 2209 2100 2209 
L 2900 2209 
L 2931 2363 
Q 2938 2388 2941 2417 
Q 2944 2447 2944 2509 
Q 2944 2788 2717 2942 
Q 2491 3097 2081 3097 
Q 1800 3097 1504 3025 
Q 1209 2953 897 2809 
L 997 3341 
Q 1322 3463 1633 3523 
Q 1944 3584 2234 3584 
Q 2853 3584 3176 3315 
Q 3500 3047 3500 2534 
Q 3500 2431 3484 2292 
Q 3469 2153 3438 1997 
z
M 2816 1759 
L 2241 1759 
Q 1534 1759 1195 1570 
Q 856 1381 856 984 
Q 856 709 1029 553 
Q 1203 397 1509 397 
Q 1978 397 2328 733 
Q 2678 1069 2791 1631 
L 2816 1759 
z
" transform="scale(0.015625)"/>
      </defs>
      <use xlink:href="#DejaVuSans-Oblique-4b" transform="translate(0 0.09375)"/>
      <use xlink:href="#DejaVuSans-Oblique-74" transform="translate(65.576172 -16.3125)scale(0.7)"/>
      <use xlink:href="#DejaVuSans-Oblique-72" transform="translate(93.022461 -16.3125)scale(0.7)"/>
      <use xlink:href="#DejaVuSans-Oblique-61" transform="translate(121.801758 -16.3125)scale(0.7)"/>
      <use xlink:href="#DejaVuSans-Oblique-6e" transform="translate(164.697266 -16.3125)scale(0.7)"/>
      <use xlink:href="#DejaVuSans-Oblique-73" transform="translate(209.0625 -16.3125)scale(0.7)"/>
     </g>
    </g>
    <g id="line2d_25">
     <path d="M 45.465625 65.353125 
L 55.465625 65.353125 
L 65.465625 65.353125 
" style="fill: none; stroke-dasharray: 9.6,2.4,1.5,2.4; stroke-dashoffset: 0; stroke: #0000ff; stroke-width: 1.5"/>
    </g>
    <g id="text_19">
     <!-- $K_{ohser}$ -->
     <g transform="translate(73.465625 68.853125)scale(0.1 -0.1)">
      <defs>
       <path id="DejaVuSans-Oblique-68" d="M 3566 2113 
L 3156 0 
L 2578 0 
L 2988 2091 
Q 3016 2238 3031 2350 
Q 3047 2463 3047 2528 
Q 3047 2791 2881 2937 
Q 2716 3084 2419 3084 
Q 1956 3084 1617 2771 
Q 1278 2459 1178 1941 
L 800 0 
L 225 0 
L 1172 4863 
L 1747 4863 
L 1375 2950 
Q 1594 3244 1934 3414 
Q 2275 3584 2650 3584 
Q 3113 3584 3367 3334 
Q 3622 3084 3622 2631 
Q 3622 2519 3608 2391 
Q 3594 2263 3566 2113 
z
" transform="scale(0.015625)"/>
       <path id="DejaVuSans-Oblique-65" d="M 3078 2063 
Q 3088 2113 3092 2166 
Q 3097 2219 3097 2272 
Q 3097 2653 2873 2875 
Q 2650 3097 2266 3097 
Q 1838 3097 1509 2826 
Q 1181 2556 1013 2059 
L 3078 2063 
z
M 3578 1613 
L 903 1613 
Q 884 1494 878 1425 
Q 872 1356 872 1306 
Q 872 872 1139 634 
Q 1406 397 1894 397 
Q 2269 397 2603 481 
Q 2938 566 3225 728 
L 3116 159 
Q 2806 34 2476 -28 
Q 2147 -91 1806 -91 
Q 1078 -91 686 257 
Q 294 606 294 1247 
Q 294 1794 489 2264 
Q 684 2734 1063 3103 
Q 1306 3334 1642 3459 
Q 1978 3584 2356 3584 
Q 2950 3584 3301 3228 
Q 3653 2872 3653 2272 
Q 3653 2128 3634 1964 
Q 3616 1800 3578 1613 
z
" transform="scale(0.015625)"/>
      </defs>
      <use xlink:href="#DejaVuSans-Oblique-4b" transform="translate(0 0.09375)"/>
      <use xlink:href="#DejaVuSans-Oblique-6f" transform="translate(65.576172 -16.3125)scale(0.7)"/>
      <use xlink:href="#DejaVuSans-Oblique-68" transform="translate(108.40332 -16.3125)scale(0.7)"/>
      <use xlink:href="#DejaVuSans-Oblique-73" transform="translate(152.768555 -16.3125)scale(0.7)"/>
      <use xlink:href="#DejaVuSans-Oblique-65" transform="translate(189.238281 -16.3125)scale(0.7)"/>
      <use xlink:href="#DejaVuSans-Oblique-72" transform="translate(232.304688 -16.3125)scale(0.7)"/>
     </g>
    </g>
    <g id="line2d_26">
     <path d="M 45.465625 80.03125 
L 55.465625 80.03125 
L 65.465625 80.03125 
" style="fill: none; stroke: #008000; stroke-width: 1.5; stroke-linecap: square"/>
    </g>
    <g id="text_20">
     <!-- $K_{var-width}$ -->
     <g transform="translate(73.465625 83.53125)scale(0.1 -0.1)">
      <defs>
       <path id="DejaVuSans-Oblique-76" d="M 459 3500 
L 1069 3500 
L 1581 525 
L 3256 3500 
L 3866 3500 
L 1875 0 
L 1100 0 
L 459 3500 
z
" transform="scale(0.015625)"/>
       <path id="DejaVuSans-2212" d="M 678 2272 
L 4684 2272 
L 4684 1741 
L 678 1741 
L 678 2272 
z
" transform="scale(0.015625)"/>
       <path id="DejaVuSans-Oblique-77" d="M 544 3500 
L 1113 3500 
L 1259 684 
L 2566 3500 
L 3231 3500 
L 3425 684 
L 4666 3500 
L 5241 3500 
L 3641 0 
L 2969 0 
L 2797 2900 
L 1459 0 
L 781 0 
L 544 3500 
z
" transform="scale(0.015625)"/>
       <path id="DejaVuSans-Oblique-64" d="M 2675 525 
Q 2444 222 2128 65 
Q 1813 -91 1428 -91 
Q 903 -91 598 267 
Q 294 625 294 1247 
Q 294 1766 478 2236 
Q 663 2706 1013 3078 
Q 1244 3325 1534 3454 
Q 1825 3584 2144 3584 
Q 2481 3584 2739 3421 
Q 2997 3259 3138 2956 
L 3513 4863 
L 4091 4863 
L 3144 0 
L 2566 0 
L 2675 525 
z
M 891 1350 
Q 891 897 1095 644 
Q 1300 391 1663 391 
Q 1931 391 2161 520 
Q 2391 650 2566 903 
Q 2750 1166 2856 1509 
Q 2963 1853 2963 2188 
Q 2963 2622 2758 2865 
Q 2553 3109 2194 3109 
Q 1922 3109 1687 2981 
Q 1453 2853 1288 2613 
Q 1106 2353 998 2009 
Q 891 1666 891 1350 
z
" transform="scale(0.015625)"/>
      </defs>
      <use xlink:href="#DejaVuSans-Oblique-4b" transform="translate(0 0.09375)"/>
      <use xlink:href="#DejaVuSans-Oblique-76" transform="translate(65.576172 -16.3125)scale(0.7)"/>
      <use xlink:href="#DejaVuSans-Oblique-61" transform="translate(107.001953 -16.3125)scale(0.7)"/>
      <use xlink:href="#DejaVuSans-Oblique-72" transform="translate(149.897461 -16.3125)scale(0.7)"/>
      <use xlink:href="#DejaVuSans-2212" transform="translate(192.314453 -16.3125)scale(0.7)"/>
      <use xlink:href="#DejaVuSans-Oblique-77" transform="translate(264.604492 -16.3125)scale(0.7)"/>
      <use xlink:href="#DejaVuSans-Oblique-69" transform="translate(321.855469 -16.3125)scale(0.7)"/>
      <use xlink:href="#DejaVuSans-Oblique-64" transform="translate(341.303711 -16.3125)scale(0.7)"/>
      <use xlink:href="#DejaVuSans-Oblique-74" transform="translate(385.737305 -16.3125)scale(0.7)"/>
      <use xlink:href="#DejaVuSans-Oblique-68" transform="translate(413.183594 -16.3125)scale(0.7)"/>
     </g>
    </g>
    <g id="line2d_27">
     <path d="M 45.465625 94.709375 
L 55.465625 94.709375 
L 65.465625 94.709375 
" style="fill: none; stroke: #ffff00; stroke-width: 1.5; stroke-linecap: square"/>
    </g>
    <g id="text_21">
     <!-- $K_{ripley}$ -->
     <g transform="translate(73.465625 98.209375)scale(0.1 -0.1)">
      <defs>
       <path id="DejaVuSans-Oblique-6c" d="M 1172 4863 
L 1747 4863 
L 800 0 
L 225 0 
L 1172 4863 
z
" transform="scale(0.015625)"/>
       <path id="DejaVuSans-Oblique-79" d="M 1588 -325 
Q 1188 -997 936 -1164 
Q 684 -1331 294 -1331 
L -159 -1331 
L -63 -850 
L 269 -850 
Q 509 -850 678 -719 
Q 847 -588 1056 -206 
L 1234 128 
L 459 3500 
L 1069 3500 
L 1650 819 
L 3256 3500 
L 3859 3500 
L 1588 -325 
z
" transform="scale(0.015625)"/>
      </defs>
      <use xlink:href="#DejaVuSans-Oblique-4b" transform="translate(0 0.09375)"/>
      <use xlink:href="#DejaVuSans-Oblique-72" transform="translate(65.576172 -16.3125)scale(0.7)"/>
      <use xlink:href="#DejaVuSans-Oblique-69" transform="translate(94.355469 -16.3125)scale(0.7)"/>
      <use xlink:href="#DejaVuSans-Oblique-70" transform="translate(113.803711 -16.3125)scale(0.7)"/>
      <use xlink:href="#DejaVuSans-Oblique-6c" transform="translate(158.237305 -16.3125)scale(0.7)"/>
      <use xlink:href="#DejaVuSans-Oblique-65" transform="translate(177.685547 -16.3125)scale(0.7)"/>
      <use xlink:href="#DejaVuSans-Oblique-79" transform="translate(220.751953 -16.3125)scale(0.7)"/>
     </g>
    </g>
   </g>
  </g>
 </g>
 <defs>
  <clipPath id="p932071954d">
   <rect x="36.465625" y="7.2" width="334.8" height="332.64"/>
  </clipPath>
 </defs>
</svg>
