<?xml version="1.0" encoding="utf-8" standalone="no"?>
<!DOCTYPE svg PUBLIC "-//W3C//DTD SVG 1.1//EN"
  "http://www.w3.org/Graphics/SVG/1.1/DTD/svg11.dtd">
<svg xmlns:xlink="http://www.w3.org/1999/xlink" width="498.155937pt" height="323.891875pt" viewBox="0 0 498.155937 323.891875" xmlns="http://www.w3.org/2000/svg" version="1.1">
 <metadata>
  <rdf:RDF xmlns:dc="http://purl.org/dc/elements/1.1/" xmlns:cc="http://creativecommons.org/ns#" xmlns:rdf="http://www.w3.org/1999/02/22-rdf-syntax-ns#">
   <cc:Work>
    <dc:type rdf:resource="http://purl.org/dc/dcmitype/StillImage"/>
    <dc:date>2022-05-09T11:03:17.251433</dc:date>
    <dc:format>image/svg+xml</dc:format>
    <dc:creator>
     <cc:Agent>
      <dc:title>Matplotlib v3.5.1, https://matplotlib.org/</dc:title>
     </cc:Agent>
    </dc:creator>
   </cc:Work>
  </rdf:RDF>
 </metadata>
 <defs>
  <style type="text/css">*{stroke-linejoin: round; stroke-linecap: butt}</style>
 </defs>
 <g id="figure_1">
  <g id="patch_1">
   <path d="M 0 323.891875 
L 498.155937 323.891875 
L 498.155937 0 
L 0 0 
L 0 323.891875 
z
" style="fill: none"/>
  </g>
  <g id="axes_1">
   <g id="patch_2">
    <path d="M 44.555937 284.4 
L 490.955938 284.4 
L 490.955938 7.2 
L 44.555937 7.2 
z
" style="fill: #ffffff"/>
   </g>
   <g id="matplotlib.axis_1">
    <g id="xtick_1">
     <g id="line2d_1">
      <defs>
       <path id="m31c7e43489" d="M 0 0 
L 0 3.5 
" style="stroke: #000000; stroke-width: 0.8"/>
      </defs>
      <g>
       <use xlink:href="#m31c7e43489" x="64.846847" y="284.4" style="stroke: #000000; stroke-width: 0.8"/>
      </g>
     </g>
     <g id="text_1">
      <!-- 0 -->
      <g transform="translate(61.665597 298.998438)scale(0.1 -0.1)">
       <defs>
        <path id="DejaVuSans-30" d="M 2034 4250 
Q 1547 4250 1301 3770 
Q 1056 3291 1056 2328 
Q 1056 1369 1301 889 
Q 1547 409 2034 409 
Q 2525 409 2770 889 
Q 3016 1369 3016 2328 
Q 3016 3291 2770 3770 
Q 2525 4250 2034 4250 
z
M 2034 4750 
Q 2819 4750 3233 4129 
Q 3647 3509 3647 2328 
Q 3647 1150 3233 529 
Q 2819 -91 2034 -91 
Q 1250 -91 836 529 
Q 422 1150 422 2328 
Q 422 3509 836 4129 
Q 1250 4750 2034 4750 
z
" transform="scale(0.015625)"/>
       </defs>
       <use xlink:href="#DejaVuSans-30"/>
      </g>
     </g>
    </g>
    <g id="xtick_2">
     <g id="line2d_2">
      <g>
       <use xlink:href="#m31c7e43489" x="115.82903" y="284.4" style="stroke: #000000; stroke-width: 0.8"/>
      </g>
     </g>
     <g id="text_2">
      <!-- 25 -->
      <g transform="translate(109.46653 298.998438)scale(0.1 -0.1)">
       <defs>
        <path id="DejaVuSans-32" d="M 1228 531 
L 3431 531 
L 3431 0 
L 469 0 
L 469 531 
Q 828 903 1448 1529 
Q 2069 2156 2228 2338 
Q 2531 2678 2651 2914 
Q 2772 3150 2772 3378 
Q 2772 3750 2511 3984 
Q 2250 4219 1831 4219 
Q 1534 4219 1204 4116 
Q 875 4013 500 3803 
L 500 4441 
Q 881 4594 1212 4672 
Q 1544 4750 1819 4750 
Q 2544 4750 2975 4387 
Q 3406 4025 3406 3419 
Q 3406 3131 3298 2873 
Q 3191 2616 2906 2266 
Q 2828 2175 2409 1742 
Q 1991 1309 1228 531 
z
" transform="scale(0.015625)"/>
        <path id="DejaVuSans-35" d="M 691 4666 
L 3169 4666 
L 3169 4134 
L 1269 4134 
L 1269 2991 
Q 1406 3038 1543 3061 
Q 1681 3084 1819 3084 
Q 2600 3084 3056 2656 
Q 3513 2228 3513 1497 
Q 3513 744 3044 326 
Q 2575 -91 1722 -91 
Q 1428 -91 1123 -41 
Q 819 9 494 109 
L 494 744 
Q 775 591 1075 516 
Q 1375 441 1709 441 
Q 2250 441 2565 725 
Q 2881 1009 2881 1497 
Q 2881 1984 2565 2268 
Q 2250 2553 1709 2553 
Q 1456 2553 1204 2497 
Q 953 2441 691 2322 
L 691 4666 
z
" transform="scale(0.015625)"/>
       </defs>
       <use xlink:href="#DejaVuSans-32"/>
       <use xlink:href="#DejaVuSans-35" x="63.623047"/>
      </g>
     </g>
    </g>
    <g id="xtick_3">
     <g id="line2d_3">
      <g>
       <use xlink:href="#m31c7e43489" x="166.811214" y="284.4" style="stroke: #000000; stroke-width: 0.8"/>
      </g>
     </g>
     <g id="text_3">
      <!-- 50 -->
      <g transform="translate(160.448714 298.998438)scale(0.1 -0.1)">
       <use xlink:href="#DejaVuSans-35"/>
       <use xlink:href="#DejaVuSans-30" x="63.623047"/>
      </g>
     </g>
    </g>
    <g id="xtick_4">
     <g id="line2d_4">
      <g>
       <use xlink:href="#m31c7e43489" x="217.793398" y="284.4" style="stroke: #000000; stroke-width: 0.8"/>
      </g>
     </g>
     <g id="text_4">
      <!-- 75 -->
      <g transform="translate(211.430898 298.998438)scale(0.1 -0.1)">
       <defs>
        <path id="DejaVuSans-37" d="M 525 4666 
L 3525 4666 
L 3525 4397 
L 1831 0 
L 1172 0 
L 2766 4134 
L 525 4134 
L 525 4666 
z
" transform="scale(0.015625)"/>
       </defs>
       <use xlink:href="#DejaVuSans-37"/>
       <use xlink:href="#DejaVuSans-35" x="63.623047"/>
      </g>
     </g>
    </g>
    <g id="xtick_5">
     <g id="line2d_5">
      <g>
       <use xlink:href="#m31c7e43489" x="268.775581" y="284.4" style="stroke: #000000; stroke-width: 0.8"/>
      </g>
     </g>
     <g id="text_5">
      <!-- 100 -->
      <g transform="translate(259.231831 298.998438)scale(0.1 -0.1)">
       <defs>
        <path id="DejaVuSans-31" d="M 794 531 
L 1825 531 
L 1825 4091 
L 703 3866 
L 703 4441 
L 1819 4666 
L 2450 4666 
L 2450 531 
L 3481 531 
L 3481 0 
L 794 0 
L 794 531 
z
" transform="scale(0.015625)"/>
       </defs>
       <use xlink:href="#DejaVuSans-31"/>
       <use xlink:href="#DejaVuSans-30" x="63.623047"/>
       <use xlink:href="#DejaVuSans-30" x="127.246094"/>
      </g>
     </g>
    </g>
    <g id="xtick_6">
     <g id="line2d_6">
      <g>
       <use xlink:href="#m31c7e43489" x="319.757765" y="284.4" style="stroke: #000000; stroke-width: 0.8"/>
      </g>
     </g>
     <g id="text_6">
      <!-- 125 -->
      <g transform="translate(310.214015 298.998438)scale(0.1 -0.1)">
       <use xlink:href="#DejaVuSans-31"/>
       <use xlink:href="#DejaVuSans-32" x="63.623047"/>
       <use xlink:href="#DejaVuSans-35" x="127.246094"/>
      </g>
     </g>
    </g>
    <g id="xtick_7">
     <g id="line2d_7">
      <g>
       <use xlink:href="#m31c7e43489" x="370.739948" y="284.4" style="stroke: #000000; stroke-width: 0.8"/>
      </g>
     </g>
     <g id="text_7">
      <!-- 150 -->
      <g transform="translate(361.196198 298.998438)scale(0.1 -0.1)">
       <use xlink:href="#DejaVuSans-31"/>
       <use xlink:href="#DejaVuSans-35" x="63.623047"/>
       <use xlink:href="#DejaVuSans-30" x="127.246094"/>
      </g>
     </g>
    </g>
    <g id="xtick_8">
     <g id="line2d_8">
      <g>
       <use xlink:href="#m31c7e43489" x="421.722132" y="284.4" style="stroke: #000000; stroke-width: 0.8"/>
      </g>
     </g>
     <g id="text_8">
      <!-- 175 -->
      <g transform="translate(412.178382 298.998438)scale(0.1 -0.1)">
       <use xlink:href="#DejaVuSans-31"/>
       <use xlink:href="#DejaVuSans-37" x="63.623047"/>
       <use xlink:href="#DejaVuSans-35" x="127.246094"/>
      </g>
     </g>
    </g>
    <g id="xtick_9">
     <g id="line2d_9">
      <g>
       <use xlink:href="#m31c7e43489" x="472.704316" y="284.4" style="stroke: #000000; stroke-width: 0.8"/>
      </g>
     </g>
     <g id="text_9">
      <!-- 200 -->
      <g transform="translate(463.160566 298.998438)scale(0.1 -0.1)">
       <use xlink:href="#DejaVuSans-32"/>
       <use xlink:href="#DejaVuSans-30" x="63.623047"/>
       <use xlink:href="#DejaVuSans-30" x="127.246094"/>
      </g>
     </g>
    </g>
    <g id="text_10">
     <!-- x -->
     <g transform="translate(264.204687 314.19625)scale(0.12 -0.12)">
      <defs>
       <path id="DejaVuSans-78" d="M 3513 3500 
L 2247 1797 
L 3578 0 
L 2900 0 
L 1881 1375 
L 863 0 
L 184 0 
L 1544 1831 
L 300 3500 
L 978 3500 
L 1906 2253 
L 2834 3500 
L 3513 3500 
z
" transform="scale(0.015625)"/>
      </defs>
      <use xlink:href="#DejaVuSans-78"/>
     </g>
    </g>
   </g>
   <g id="matplotlib.axis_2">
    <g id="ytick_1">
     <g id="line2d_10">
      <defs>
       <path id="m87203cf8ad" d="M 0 0 
L -3.5 0 
" style="stroke: #000000; stroke-width: 0.8"/>
      </defs>
      <g>
       <use xlink:href="#m87203cf8ad" x="44.555937" y="236.409056" style="stroke: #000000; stroke-width: 0.8"/>
      </g>
     </g>
     <g id="text_11">
      <!-- −5 -->
      <g transform="translate(22.81375 240.208275)scale(0.1 -0.1)">
       <defs>
        <path id="DejaVuSans-2212" d="M 678 2272 
L 4684 2272 
L 4684 1741 
L 678 1741 
L 678 2272 
z
" transform="scale(0.015625)"/>
       </defs>
       <use xlink:href="#DejaVuSans-2212"/>
       <use xlink:href="#DejaVuSans-35" x="83.789062"/>
      </g>
     </g>
    </g>
    <g id="ytick_2">
     <g id="line2d_11">
      <g>
       <use xlink:href="#m87203cf8ad" x="44.555937" y="185.926685" style="stroke: #000000; stroke-width: 0.8"/>
      </g>
     </g>
     <g id="text_12">
      <!-- 0 -->
      <g transform="translate(31.193437 189.725904)scale(0.1 -0.1)">
       <use xlink:href="#DejaVuSans-30"/>
      </g>
     </g>
    </g>
    <g id="ytick_3">
     <g id="line2d_12">
      <g>
       <use xlink:href="#m87203cf8ad" x="44.555937" y="135.444313" style="stroke: #000000; stroke-width: 0.8"/>
      </g>
     </g>
     <g id="text_13">
      <!-- 5 -->
      <g transform="translate(31.193437 139.243532)scale(0.1 -0.1)">
       <use xlink:href="#DejaVuSans-35"/>
      </g>
     </g>
    </g>
    <g id="ytick_4">
     <g id="line2d_13">
      <g>
       <use xlink:href="#m87203cf8ad" x="44.555937" y="84.961942" style="stroke: #000000; stroke-width: 0.8"/>
      </g>
     </g>
     <g id="text_14">
      <!-- 10 -->
      <g transform="translate(24.830937 88.76116)scale(0.1 -0.1)">
       <use xlink:href="#DejaVuSans-31"/>
       <use xlink:href="#DejaVuSans-30" x="63.623047"/>
      </g>
     </g>
    </g>
    <g id="ytick_5">
     <g id="line2d_14">
      <g>
       <use xlink:href="#m87203cf8ad" x="44.555937" y="34.47957" style="stroke: #000000; stroke-width: 0.8"/>
      </g>
     </g>
     <g id="text_15">
      <!-- 15 -->
      <g transform="translate(24.830937 38.278789)scale(0.1 -0.1)">
       <use xlink:href="#DejaVuSans-31"/>
       <use xlink:href="#DejaVuSans-35" x="63.623047"/>
      </g>
     </g>
    </g>
    <g id="text_16">
     <!-- y -->
     <g transform="translate(16.318125 149.35125)rotate(-90)scale(0.12 -0.12)">
      <defs>
       <path id="DejaVuSans-79" d="M 2059 -325 
Q 1816 -950 1584 -1140 
Q 1353 -1331 966 -1331 
L 506 -1331 
L 506 -850 
L 844 -850 
Q 1081 -850 1212 -737 
Q 1344 -625 1503 -206 
L 1606 56 
L 191 3500 
L 800 3500 
L 1894 763 
L 2988 3500 
L 3597 3500 
L 2059 -325 
z
" transform="scale(0.015625)"/>
      </defs>
      <use xlink:href="#DejaVuSans-79"/>
     </g>
    </g>
   </g>
   <g id="line2d_15">
    <defs>
     <path id="m9268adf7d6" d="M -3 0 
L 3 0 
M 0 3 
L 0 -3 
" style="stroke: #1f77b4"/>
    </defs>
    <g clip-path="url(#pd5ddff431b)">
     <use xlink:href="#m9268adf7d6" x="64.846847" y="183.651675" style="fill: #1f77b4; stroke: #1f77b4"/>
     <use xlink:href="#m9268adf7d6" x="66.886134" y="181.947223" style="fill: #1f77b4; stroke: #1f77b4"/>
     <use xlink:href="#m9268adf7d6" x="68.925421" y="188.243762" style="fill: #1f77b4; stroke: #1f77b4"/>
     <use xlink:href="#m9268adf7d6" x="70.964709" y="186.810773" style="fill: #1f77b4; stroke: #1f77b4"/>
     <use xlink:href="#m9268adf7d6" x="73.003996" y="186.932359" style="fill: #1f77b4; stroke: #1f77b4"/>
     <use xlink:href="#m9268adf7d6" x="75.043283" y="182.030391" style="fill: #1f77b4; stroke: #1f77b4"/>
     <use xlink:href="#m9268adf7d6" x="77.082571" y="184.009524" style="fill: #1f77b4; stroke: #1f77b4"/>
     <use xlink:href="#m9268adf7d6" x="79.121858" y="138.298232" style="fill: #1f77b4; stroke: #1f77b4"/>
     <use xlink:href="#m9268adf7d6" x="81.161145" y="158.903448" style="fill: #1f77b4; stroke: #1f77b4"/>
     <use xlink:href="#m9268adf7d6" x="83.200433" y="184.221667" style="fill: #1f77b4; stroke: #1f77b4"/>
     <use xlink:href="#m9268adf7d6" x="85.23972" y="167.281632" style="fill: #1f77b4; stroke: #1f77b4"/>
     <use xlink:href="#m9268adf7d6" x="87.279007" y="189.046033" style="fill: #1f77b4; stroke: #1f77b4"/>
     <use xlink:href="#m9268adf7d6" x="89.318295" y="183.527702" style="fill: #1f77b4; stroke: #1f77b4"/>
     <use xlink:href="#m9268adf7d6" x="91.357582" y="211.941948" style="fill: #1f77b4; stroke: #1f77b4"/>
     <use xlink:href="#m9268adf7d6" x="93.396869" y="184.067199" style="fill: #1f77b4; stroke: #1f77b4"/>
     <use xlink:href="#m9268adf7d6" x="95.436157" y="185.28308" style="fill: #1f77b4; stroke: #1f77b4"/>
     <use xlink:href="#m9268adf7d6" x="97.475444" y="184.196491" style="fill: #1f77b4; stroke: #1f77b4"/>
     <use xlink:href="#m9268adf7d6" x="99.514731" y="169.545135" style="fill: #1f77b4; stroke: #1f77b4"/>
     <use xlink:href="#m9268adf7d6" x="101.554019" y="155.227079" style="fill: #1f77b4; stroke: #1f77b4"/>
     <use xlink:href="#m9268adf7d6" x="103.593306" y="129.33087" style="fill: #1f77b4; stroke: #1f77b4"/>
     <use xlink:href="#m9268adf7d6" x="105.632594" y="124.783543" style="fill: #1f77b4; stroke: #1f77b4"/>
     <use xlink:href="#m9268adf7d6" x="107.671881" y="236.318461" style="fill: #1f77b4; stroke: #1f77b4"/>
     <use xlink:href="#m9268adf7d6" x="109.711168" y="186.846539" style="fill: #1f77b4; stroke: #1f77b4"/>
     <use xlink:href="#m9268adf7d6" x="111.750456" y="111.168447" style="fill: #1f77b4; stroke: #1f77b4"/>
     <use xlink:href="#m9268adf7d6" x="113.789743" y="186.641503" style="fill: #1f77b4; stroke: #1f77b4"/>
     <use xlink:href="#m9268adf7d6" x="115.82903" y="188.703117" style="fill: #1f77b4; stroke: #1f77b4"/>
     <use xlink:href="#m9268adf7d6" x="117.868318" y="187.22634" style="fill: #1f77b4; stroke: #1f77b4"/>
     <use xlink:href="#m9268adf7d6" x="119.907605" y="211.745539" style="fill: #1f77b4; stroke: #1f77b4"/>
     <use xlink:href="#m9268adf7d6" x="121.946892" y="184.664158" style="fill: #1f77b4; stroke: #1f77b4"/>
     <use xlink:href="#m9268adf7d6" x="123.98618" y="189.161712" style="fill: #1f77b4; stroke: #1f77b4"/>
     <use xlink:href="#m9268adf7d6" x="126.025467" y="188.15676" style="fill: #1f77b4; stroke: #1f77b4"/>
     <use xlink:href="#m9268adf7d6" x="128.064754" y="229.833647" style="fill: #1f77b4; stroke: #1f77b4"/>
     <use xlink:href="#m9268adf7d6" x="130.104042" y="187.420081" style="fill: #1f77b4; stroke: #1f77b4"/>
     <use xlink:href="#m9268adf7d6" x="132.143329" y="182.810883" style="fill: #1f77b4; stroke: #1f77b4"/>
     <use xlink:href="#m9268adf7d6" x="134.182616" y="188.537344" style="fill: #1f77b4; stroke: #1f77b4"/>
     <use xlink:href="#m9268adf7d6" x="136.221904" y="185.38743" style="fill: #1f77b4; stroke: #1f77b4"/>
     <use xlink:href="#m9268adf7d6" x="138.261191" y="186.006008" style="fill: #1f77b4; stroke: #1f77b4"/>
     <use xlink:href="#m9268adf7d6" x="140.300478" y="188.28541" style="fill: #1f77b4; stroke: #1f77b4"/>
     <use xlink:href="#m9268adf7d6" x="142.339766" y="169.313254" style="fill: #1f77b4; stroke: #1f77b4"/>
     <use xlink:href="#m9268adf7d6" x="144.379053" y="194.425597" style="fill: #1f77b4; stroke: #1f77b4"/>
     <use xlink:href="#m9268adf7d6" x="146.41834" y="184.368212" style="fill: #1f77b4; stroke: #1f77b4"/>
     <use xlink:href="#m9268adf7d6" x="148.457628" y="184.263787" style="fill: #1f77b4; stroke: #1f77b4"/>
     <use xlink:href="#m9268adf7d6" x="150.496915" y="77.232679" style="fill: #1f77b4; stroke: #1f77b4"/>
     <use xlink:href="#m9268adf7d6" x="152.536202" y="183.227841" style="fill: #1f77b4; stroke: #1f77b4"/>
     <use xlink:href="#m9268adf7d6" x="154.57549" y="186.604219" style="fill: #1f77b4; stroke: #1f77b4"/>
     <use xlink:href="#m9268adf7d6" x="156.614777" y="212.453765" style="fill: #1f77b4; stroke: #1f77b4"/>
     <use xlink:href="#m9268adf7d6" x="158.654064" y="183.706148" style="fill: #1f77b4; stroke: #1f77b4"/>
     <use xlink:href="#m9268adf7d6" x="160.693352" y="184.603514" style="fill: #1f77b4; stroke: #1f77b4"/>
     <use xlink:href="#m9268adf7d6" x="162.732639" y="184.634071" style="fill: #1f77b4; stroke: #1f77b4"/>
     <use xlink:href="#m9268adf7d6" x="164.771927" y="189.191796" style="fill: #1f77b4; stroke: #1f77b4"/>
     <use xlink:href="#m9268adf7d6" x="166.811214" y="185.975806" style="fill: #1f77b4; stroke: #1f77b4"/>
     <use xlink:href="#m9268adf7d6" x="168.850501" y="187.416987" style="fill: #1f77b4; stroke: #1f77b4"/>
     <use xlink:href="#m9268adf7d6" x="170.889789" y="164.41396" style="fill: #1f77b4; stroke: #1f77b4"/>
     <use xlink:href="#m9268adf7d6" x="172.929076" y="186.124879" style="fill: #1f77b4; stroke: #1f77b4"/>
     <use xlink:href="#m9268adf7d6" x="174.968363" y="184.088765" style="fill: #1f77b4; stroke: #1f77b4"/>
     <use xlink:href="#m9268adf7d6" x="177.007651" y="185.286128" style="fill: #1f77b4; stroke: #1f77b4"/>
     <use xlink:href="#m9268adf7d6" x="179.046938" y="169.654264" style="fill: #1f77b4; stroke: #1f77b4"/>
     <use xlink:href="#m9268adf7d6" x="181.086225" y="186.868523" style="fill: #1f77b4; stroke: #1f77b4"/>
     <use xlink:href="#m9268adf7d6" x="183.125513" y="187.8338" style="fill: #1f77b4; stroke: #1f77b4"/>
     <use xlink:href="#m9268adf7d6" x="185.1648" y="186.754696" style="fill: #1f77b4; stroke: #1f77b4"/>
     <use xlink:href="#m9268adf7d6" x="187.204087" y="185.961054" style="fill: #1f77b4; stroke: #1f77b4"/>
     <use xlink:href="#m9268adf7d6" x="189.243375" y="185.161066" style="fill: #1f77b4; stroke: #1f77b4"/>
     <use xlink:href="#m9268adf7d6" x="191.282662" y="74.342106" style="fill: #1f77b4; stroke: #1f77b4"/>
     <use xlink:href="#m9268adf7d6" x="193.321949" y="186.012015" style="fill: #1f77b4; stroke: #1f77b4"/>
     <use xlink:href="#m9268adf7d6" x="195.361237" y="187.85702" style="fill: #1f77b4; stroke: #1f77b4"/>
     <use xlink:href="#m9268adf7d6" x="197.400524" y="186.625324" style="fill: #1f77b4; stroke: #1f77b4"/>
     <use xlink:href="#m9268adf7d6" x="199.439811" y="262.313929" style="fill: #1f77b4; stroke: #1f77b4"/>
     <use xlink:href="#m9268adf7d6" x="201.479099" y="184.954432" style="fill: #1f77b4; stroke: #1f77b4"/>
     <use xlink:href="#m9268adf7d6" x="203.518386" y="165.316693" style="fill: #1f77b4; stroke: #1f77b4"/>
     <use xlink:href="#m9268adf7d6" x="205.557673" y="185.79894" style="fill: #1f77b4; stroke: #1f77b4"/>
     <use xlink:href="#m9268adf7d6" x="207.596961" y="107.714026" style="fill: #1f77b4; stroke: #1f77b4"/>
     <use xlink:href="#m9268adf7d6" x="209.636248" y="185.457843" style="fill: #1f77b4; stroke: #1f77b4"/>
     <use xlink:href="#m9268adf7d6" x="211.675535" y="185.583642" style="fill: #1f77b4; stroke: #1f77b4"/>
     <use xlink:href="#m9268adf7d6" x="213.714823" y="186.407119" style="fill: #1f77b4; stroke: #1f77b4"/>
     <use xlink:href="#m9268adf7d6" x="215.75411" y="182.080331" style="fill: #1f77b4; stroke: #1f77b4"/>
     <use xlink:href="#m9268adf7d6" x="217.793398" y="186.922843" style="fill: #1f77b4; stroke: #1f77b4"/>
     <use xlink:href="#m9268adf7d6" x="219.832685" y="187.022882" style="fill: #1f77b4; stroke: #1f77b4"/>
     <use xlink:href="#m9268adf7d6" x="221.871972" y="185.086557" style="fill: #1f77b4; stroke: #1f77b4"/>
     <use xlink:href="#m9268adf7d6" x="223.91126" y="188.261358" style="fill: #1f77b4; stroke: #1f77b4"/>
     <use xlink:href="#m9268adf7d6" x="225.950547" y="184.349216" style="fill: #1f77b4; stroke: #1f77b4"/>
     <use xlink:href="#m9268adf7d6" x="227.989834" y="182.90888" style="fill: #1f77b4; stroke: #1f77b4"/>
     <use xlink:href="#m9268adf7d6" x="230.029122" y="190.106595" style="fill: #1f77b4; stroke: #1f77b4"/>
     <use xlink:href="#m9268adf7d6" x="232.068409" y="185.065943" style="fill: #1f77b4; stroke: #1f77b4"/>
     <use xlink:href="#m9268adf7d6" x="234.107696" y="150.319626" style="fill: #1f77b4; stroke: #1f77b4"/>
     <use xlink:href="#m9268adf7d6" x="236.146984" y="187.213858" style="fill: #1f77b4; stroke: #1f77b4"/>
     <use xlink:href="#m9268adf7d6" x="238.186271" y="186.728894" style="fill: #1f77b4; stroke: #1f77b4"/>
     <use xlink:href="#m9268adf7d6" x="240.225558" y="186.19501" style="fill: #1f77b4; stroke: #1f77b4"/>
     <use xlink:href="#m9268adf7d6" x="242.264846" y="186.528012" style="fill: #1f77b4; stroke: #1f77b4"/>
     <use xlink:href="#m9268adf7d6" x="244.304133" y="186.550673" style="fill: #1f77b4; stroke: #1f77b4"/>
     <use xlink:href="#m9268adf7d6" x="246.34342" y="164.832506" style="fill: #1f77b4; stroke: #1f77b4"/>
     <use xlink:href="#m9268adf7d6" x="248.382708" y="183.599788" style="fill: #1f77b4; stroke: #1f77b4"/>
     <use xlink:href="#m9268adf7d6" x="250.421995" y="202.153096" style="fill: #1f77b4; stroke: #1f77b4"/>
     <use xlink:href="#m9268adf7d6" x="252.461282" y="187.569107" style="fill: #1f77b4; stroke: #1f77b4"/>
     <use xlink:href="#m9268adf7d6" x="254.50057" y="164.171119" style="fill: #1f77b4; stroke: #1f77b4"/>
     <use xlink:href="#m9268adf7d6" x="256.539857" y="184.874501" style="fill: #1f77b4; stroke: #1f77b4"/>
     <use xlink:href="#m9268adf7d6" x="258.579144" y="187.089371" style="fill: #1f77b4; stroke: #1f77b4"/>
     <use xlink:href="#m9268adf7d6" x="260.618432" y="185.64004" style="fill: #1f77b4; stroke: #1f77b4"/>
     <use xlink:href="#m9268adf7d6" x="262.657719" y="186.571503" style="fill: #1f77b4; stroke: #1f77b4"/>
     <use xlink:href="#m9268adf7d6" x="264.697006" y="137.132157" style="fill: #1f77b4; stroke: #1f77b4"/>
     <use xlink:href="#m9268adf7d6" x="266.736294" y="184.523781" style="fill: #1f77b4; stroke: #1f77b4"/>
     <use xlink:href="#m9268adf7d6" x="268.775581" y="180.771833" style="fill: #1f77b4; stroke: #1f77b4"/>
     <use xlink:href="#m9268adf7d6" x="270.814869" y="188.720105" style="fill: #1f77b4; stroke: #1f77b4"/>
     <use xlink:href="#m9268adf7d6" x="272.854156" y="148.772535" style="fill: #1f77b4; stroke: #1f77b4"/>
     <use xlink:href="#m9268adf7d6" x="274.893443" y="156.959313" style="fill: #1f77b4; stroke: #1f77b4"/>
     <use xlink:href="#m9268adf7d6" x="276.932731" y="188.327342" style="fill: #1f77b4; stroke: #1f77b4"/>
     <use xlink:href="#m9268adf7d6" x="278.972018" y="186.950097" style="fill: #1f77b4; stroke: #1f77b4"/>
     <use xlink:href="#m9268adf7d6" x="281.011305" y="187.130819" style="fill: #1f77b4; stroke: #1f77b4"/>
     <use xlink:href="#m9268adf7d6" x="283.050593" y="186.032834" style="fill: #1f77b4; stroke: #1f77b4"/>
     <use xlink:href="#m9268adf7d6" x="285.08988" y="189.836605" style="fill: #1f77b4; stroke: #1f77b4"/>
     <use xlink:href="#m9268adf7d6" x="287.129167" y="33.469679" style="fill: #1f77b4; stroke: #1f77b4"/>
     <use xlink:href="#m9268adf7d6" x="289.168455" y="184.868794" style="fill: #1f77b4; stroke: #1f77b4"/>
     <use xlink:href="#m9268adf7d6" x="291.207742" y="195.497157" style="fill: #1f77b4; stroke: #1f77b4"/>
     <use xlink:href="#m9268adf7d6" x="293.247029" y="271.8" style="fill: #1f77b4; stroke: #1f77b4"/>
     <use xlink:href="#m9268adf7d6" x="295.286317" y="185.730005" style="fill: #1f77b4; stroke: #1f77b4"/>
     <use xlink:href="#m9268adf7d6" x="297.325604" y="256.624458" style="fill: #1f77b4; stroke: #1f77b4"/>
     <use xlink:href="#m9268adf7d6" x="299.364891" y="191.525367" style="fill: #1f77b4; stroke: #1f77b4"/>
     <use xlink:href="#m9268adf7d6" x="301.404179" y="165.604201" style="fill: #1f77b4; stroke: #1f77b4"/>
     <use xlink:href="#m9268adf7d6" x="303.443466" y="185.138971" style="fill: #1f77b4; stroke: #1f77b4"/>
     <use xlink:href="#m9268adf7d6" x="305.482753" y="69.172251" style="fill: #1f77b4; stroke: #1f77b4"/>
     <use xlink:href="#m9268adf7d6" x="307.522041" y="106.227325" style="fill: #1f77b4; stroke: #1f77b4"/>
     <use xlink:href="#m9268adf7d6" x="309.561328" y="88.047094" style="fill: #1f77b4; stroke: #1f77b4"/>
     <use xlink:href="#m9268adf7d6" x="311.600615" y="186.161133" style="fill: #1f77b4; stroke: #1f77b4"/>
     <use xlink:href="#m9268adf7d6" x="313.639903" y="102.763708" style="fill: #1f77b4; stroke: #1f77b4"/>
     <use xlink:href="#m9268adf7d6" x="315.67919" y="181.757865" style="fill: #1f77b4; stroke: #1f77b4"/>
     <use xlink:href="#m9268adf7d6" x="317.718477" y="186.149899" style="fill: #1f77b4; stroke: #1f77b4"/>
     <use xlink:href="#m9268adf7d6" x="319.757765" y="183.866655" style="fill: #1f77b4; stroke: #1f77b4"/>
     <use xlink:href="#m9268adf7d6" x="321.797052" y="187.324138" style="fill: #1f77b4; stroke: #1f77b4"/>
     <use xlink:href="#m9268adf7d6" x="323.83634" y="182.824287" style="fill: #1f77b4; stroke: #1f77b4"/>
     <use xlink:href="#m9268adf7d6" x="325.875627" y="111.513157" style="fill: #1f77b4; stroke: #1f77b4"/>
     <use xlink:href="#m9268adf7d6" x="327.914914" y="184.69725" style="fill: #1f77b4; stroke: #1f77b4"/>
     <use xlink:href="#m9268adf7d6" x="329.954202" y="188.03736" style="fill: #1f77b4; stroke: #1f77b4"/>
     <use xlink:href="#m9268adf7d6" x="331.993489" y="183.481025" style="fill: #1f77b4; stroke: #1f77b4"/>
     <use xlink:href="#m9268adf7d6" x="334.032776" y="184.533739" style="fill: #1f77b4; stroke: #1f77b4"/>
     <use xlink:href="#m9268adf7d6" x="336.072064" y="183.297873" style="fill: #1f77b4; stroke: #1f77b4"/>
     <use xlink:href="#m9268adf7d6" x="338.111351" y="187.194979" style="fill: #1f77b4; stroke: #1f77b4"/>
     <use xlink:href="#m9268adf7d6" x="340.150638" y="186.89802" style="fill: #1f77b4; stroke: #1f77b4"/>
     <use xlink:href="#m9268adf7d6" x="342.189926" y="181.274398" style="fill: #1f77b4; stroke: #1f77b4"/>
     <use xlink:href="#m9268adf7d6" x="344.229213" y="92.250519" style="fill: #1f77b4; stroke: #1f77b4"/>
     <use xlink:href="#m9268adf7d6" x="346.2685" y="19.8" style="fill: #1f77b4; stroke: #1f77b4"/>
     <use xlink:href="#m9268adf7d6" x="348.307788" y="183.630966" style="fill: #1f77b4; stroke: #1f77b4"/>
     <use xlink:href="#m9268adf7d6" x="350.347075" y="188.685242" style="fill: #1f77b4; stroke: #1f77b4"/>
     <use xlink:href="#m9268adf7d6" x="352.386362" y="184.749529" style="fill: #1f77b4; stroke: #1f77b4"/>
     <use xlink:href="#m9268adf7d6" x="354.42565" y="186.73329" style="fill: #1f77b4; stroke: #1f77b4"/>
     <use xlink:href="#m9268adf7d6" x="356.464937" y="158.820303" style="fill: #1f77b4; stroke: #1f77b4"/>
     <use xlink:href="#m9268adf7d6" x="358.504224" y="138.954284" style="fill: #1f77b4; stroke: #1f77b4"/>
     <use xlink:href="#m9268adf7d6" x="360.543512" y="154.017639" style="fill: #1f77b4; stroke: #1f77b4"/>
     <use xlink:href="#m9268adf7d6" x="362.582799" y="186.165293" style="fill: #1f77b4; stroke: #1f77b4"/>
     <use xlink:href="#m9268adf7d6" x="364.622086" y="168.834511" style="fill: #1f77b4; stroke: #1f77b4"/>
     <use xlink:href="#m9268adf7d6" x="366.661374" y="171.831771" style="fill: #1f77b4; stroke: #1f77b4"/>
     <use xlink:href="#m9268adf7d6" x="368.700661" y="185.911402" style="fill: #1f77b4; stroke: #1f77b4"/>
     <use xlink:href="#m9268adf7d6" x="370.739948" y="188.620946" style="fill: #1f77b4; stroke: #1f77b4"/>
     <use xlink:href="#m9268adf7d6" x="372.779236" y="237.501314" style="fill: #1f77b4; stroke: #1f77b4"/>
     <use xlink:href="#m9268adf7d6" x="374.818523" y="184.525752" style="fill: #1f77b4; stroke: #1f77b4"/>
     <use xlink:href="#m9268adf7d6" x="376.857811" y="186.248911" style="fill: #1f77b4; stroke: #1f77b4"/>
     <use xlink:href="#m9268adf7d6" x="378.897098" y="186.196668" style="fill: #1f77b4; stroke: #1f77b4"/>
     <use xlink:href="#m9268adf7d6" x="380.936385" y="84.049532" style="fill: #1f77b4; stroke: #1f77b4"/>
     <use xlink:href="#m9268adf7d6" x="382.975673" y="225.165859" style="fill: #1f77b4; stroke: #1f77b4"/>
     <use xlink:href="#m9268adf7d6" x="385.01496" y="187.402139" style="fill: #1f77b4; stroke: #1f77b4"/>
     <use xlink:href="#m9268adf7d6" x="387.054247" y="186.703871" style="fill: #1f77b4; stroke: #1f77b4"/>
     <use xlink:href="#m9268adf7d6" x="389.093535" y="185.736161" style="fill: #1f77b4; stroke: #1f77b4"/>
     <use xlink:href="#m9268adf7d6" x="391.132822" y="130.547351" style="fill: #1f77b4; stroke: #1f77b4"/>
     <use xlink:href="#m9268adf7d6" x="393.172109" y="186.505995" style="fill: #1f77b4; stroke: #1f77b4"/>
     <use xlink:href="#m9268adf7d6" x="395.211397" y="141.410592" style="fill: #1f77b4; stroke: #1f77b4"/>
     <use xlink:href="#m9268adf7d6" x="397.250684" y="67.87989" style="fill: #1f77b4; stroke: #1f77b4"/>
     <use xlink:href="#m9268adf7d6" x="399.289971" y="168.328018" style="fill: #1f77b4; stroke: #1f77b4"/>
     <use xlink:href="#m9268adf7d6" x="401.329259" y="203.373339" style="fill: #1f77b4; stroke: #1f77b4"/>
     <use xlink:href="#m9268adf7d6" x="403.368546" y="185.372355" style="fill: #1f77b4; stroke: #1f77b4"/>
     <use xlink:href="#m9268adf7d6" x="405.407833" y="187.725705" style="fill: #1f77b4; stroke: #1f77b4"/>
     <use xlink:href="#m9268adf7d6" x="407.447121" y="145.751615" style="fill: #1f77b4; stroke: #1f77b4"/>
     <use xlink:href="#m9268adf7d6" x="409.486408" y="186.557295" style="fill: #1f77b4; stroke: #1f77b4"/>
     <use xlink:href="#m9268adf7d6" x="411.525695" y="186.245061" style="fill: #1f77b4; stroke: #1f77b4"/>
     <use xlink:href="#m9268adf7d6" x="413.564983" y="181.369695" style="fill: #1f77b4; stroke: #1f77b4"/>
     <use xlink:href="#m9268adf7d6" x="415.60427" y="187.349683" style="fill: #1f77b4; stroke: #1f77b4"/>
     <use xlink:href="#m9268adf7d6" x="417.643557" y="184.021963" style="fill: #1f77b4; stroke: #1f77b4"/>
     <use xlink:href="#m9268adf7d6" x="419.682845" y="267.188993" style="fill: #1f77b4; stroke: #1f77b4"/>
     <use xlink:href="#m9268adf7d6" x="421.722132" y="188.327515" style="fill: #1f77b4; stroke: #1f77b4"/>
     <use xlink:href="#m9268adf7d6" x="423.761419" y="184.365259" style="fill: #1f77b4; stroke: #1f77b4"/>
     <use xlink:href="#m9268adf7d6" x="425.800707" y="154.753776" style="fill: #1f77b4; stroke: #1f77b4"/>
     <use xlink:href="#m9268adf7d6" x="427.839994" y="225.608659" style="fill: #1f77b4; stroke: #1f77b4"/>
     <use xlink:href="#m9268adf7d6" x="429.879281" y="184.702347" style="fill: #1f77b4; stroke: #1f77b4"/>
     <use xlink:href="#m9268adf7d6" x="431.918569" y="189.472346" style="fill: #1f77b4; stroke: #1f77b4"/>
     <use xlink:href="#m9268adf7d6" x="433.957856" y="185.016115" style="fill: #1f77b4; stroke: #1f77b4"/>
     <use xlink:href="#m9268adf7d6" x="435.997144" y="187.307905" style="fill: #1f77b4; stroke: #1f77b4"/>
     <use xlink:href="#m9268adf7d6" x="438.036431" y="182.575562" style="fill: #1f77b4; stroke: #1f77b4"/>
     <use xlink:href="#m9268adf7d6" x="440.075718" y="142.702647" style="fill: #1f77b4; stroke: #1f77b4"/>
     <use xlink:href="#m9268adf7d6" x="442.115006" y="186.842204" style="fill: #1f77b4; stroke: #1f77b4"/>
     <use xlink:href="#m9268adf7d6" x="444.154293" y="187.315632" style="fill: #1f77b4; stroke: #1f77b4"/>
     <use xlink:href="#m9268adf7d6" x="446.19358" y="188.378265" style="fill: #1f77b4; stroke: #1f77b4"/>
     <use xlink:href="#m9268adf7d6" x="448.232868" y="175.945428" style="fill: #1f77b4; stroke: #1f77b4"/>
     <use xlink:href="#m9268adf7d6" x="450.272155" y="186.492805" style="fill: #1f77b4; stroke: #1f77b4"/>
     <use xlink:href="#m9268adf7d6" x="452.311442" y="186.663109" style="fill: #1f77b4; stroke: #1f77b4"/>
     <use xlink:href="#m9268adf7d6" x="454.35073" y="185.610254" style="fill: #1f77b4; stroke: #1f77b4"/>
     <use xlink:href="#m9268adf7d6" x="456.390017" y="184.758479" style="fill: #1f77b4; stroke: #1f77b4"/>
     <use xlink:href="#m9268adf7d6" x="458.429304" y="186.831207" style="fill: #1f77b4; stroke: #1f77b4"/>
     <use xlink:href="#m9268adf7d6" x="460.468592" y="148.904791" style="fill: #1f77b4; stroke: #1f77b4"/>
     <use xlink:href="#m9268adf7d6" x="462.507879" y="188.83001" style="fill: #1f77b4; stroke: #1f77b4"/>
     <use xlink:href="#m9268adf7d6" x="464.547166" y="183.171293" style="fill: #1f77b4; stroke: #1f77b4"/>
     <use xlink:href="#m9268adf7d6" x="466.586454" y="187.318886" style="fill: #1f77b4; stroke: #1f77b4"/>
     <use xlink:href="#m9268adf7d6" x="468.625741" y="187.243858" style="fill: #1f77b4; stroke: #1f77b4"/>
     <use xlink:href="#m9268adf7d6" x="470.665028" y="186.97912" style="fill: #1f77b4; stroke: #1f77b4"/>
    </g>
   </g>
   <g id="line2d_16">
    <defs>
     <path id="m47da509f86" d="M -3 3 
L 3 -3 
M -3 -3 
L 3 3 
" style="stroke: #d62728"/>
    </defs>
    <g clip-path="url(#pd5ddff431b)">
     <use xlink:href="#m47da509f86" x="79.121858" y="138.298232" style="fill: #d62728; stroke: #d62728"/>
     <use xlink:href="#m47da509f86" x="81.161145" y="158.903448" style="fill: #d62728; stroke: #d62728"/>
     <use xlink:href="#m47da509f86" x="85.23972" y="167.281632" style="fill: #d62728; stroke: #d62728"/>
     <use xlink:href="#m47da509f86" x="91.357582" y="211.941948" style="fill: #d62728; stroke: #d62728"/>
     <use xlink:href="#m47da509f86" x="99.514731" y="169.545135" style="fill: #d62728; stroke: #d62728"/>
     <use xlink:href="#m47da509f86" x="101.554019" y="155.227079" style="fill: #d62728; stroke: #d62728"/>
     <use xlink:href="#m47da509f86" x="103.593306" y="129.33087" style="fill: #d62728; stroke: #d62728"/>
     <use xlink:href="#m47da509f86" x="105.632594" y="124.783543" style="fill: #d62728; stroke: #d62728"/>
     <use xlink:href="#m47da509f86" x="107.671881" y="236.318461" style="fill: #d62728; stroke: #d62728"/>
     <use xlink:href="#m47da509f86" x="111.750456" y="111.168447" style="fill: #d62728; stroke: #d62728"/>
     <use xlink:href="#m47da509f86" x="119.907605" y="211.745539" style="fill: #d62728; stroke: #d62728"/>
     <use xlink:href="#m47da509f86" x="128.064754" y="229.833647" style="fill: #d62728; stroke: #d62728"/>
     <use xlink:href="#m47da509f86" x="142.339766" y="169.313254" style="fill: #d62728; stroke: #d62728"/>
     <use xlink:href="#m47da509f86" x="150.496915" y="77.232679" style="fill: #d62728; stroke: #d62728"/>
     <use xlink:href="#m47da509f86" x="156.614777" y="212.453765" style="fill: #d62728; stroke: #d62728"/>
     <use xlink:href="#m47da509f86" x="170.889789" y="164.41396" style="fill: #d62728; stroke: #d62728"/>
     <use xlink:href="#m47da509f86" x="179.046938" y="169.654264" style="fill: #d62728; stroke: #d62728"/>
     <use xlink:href="#m47da509f86" x="191.282662" y="74.342106" style="fill: #d62728; stroke: #d62728"/>
     <use xlink:href="#m47da509f86" x="199.439811" y="262.313929" style="fill: #d62728; stroke: #d62728"/>
     <use xlink:href="#m47da509f86" x="203.518386" y="165.316693" style="fill: #d62728; stroke: #d62728"/>
     <use xlink:href="#m47da509f86" x="207.596961" y="107.714026" style="fill: #d62728; stroke: #d62728"/>
     <use xlink:href="#m47da509f86" x="234.107696" y="150.319626" style="fill: #d62728; stroke: #d62728"/>
     <use xlink:href="#m47da509f86" x="246.34342" y="164.832506" style="fill: #d62728; stroke: #d62728"/>
     <use xlink:href="#m47da509f86" x="250.421995" y="202.153096" style="fill: #d62728; stroke: #d62728"/>
     <use xlink:href="#m47da509f86" x="254.50057" y="164.171119" style="fill: #d62728; stroke: #d62728"/>
     <use xlink:href="#m47da509f86" x="264.697006" y="137.132157" style="fill: #d62728; stroke: #d62728"/>
     <use xlink:href="#m47da509f86" x="272.854156" y="148.772535" style="fill: #d62728; stroke: #d62728"/>
     <use xlink:href="#m47da509f86" x="274.893443" y="156.959313" style="fill: #d62728; stroke: #d62728"/>
     <use xlink:href="#m47da509f86" x="287.129167" y="33.469679" style="fill: #d62728; stroke: #d62728"/>
     <use xlink:href="#m47da509f86" x="291.207742" y="195.497157" style="fill: #d62728; stroke: #d62728"/>
     <use xlink:href="#m47da509f86" x="293.247029" y="271.8" style="fill: #d62728; stroke: #d62728"/>
     <use xlink:href="#m47da509f86" x="297.325604" y="256.624458" style="fill: #d62728; stroke: #d62728"/>
     <use xlink:href="#m47da509f86" x="301.404179" y="165.604201" style="fill: #d62728; stroke: #d62728"/>
     <use xlink:href="#m47da509f86" x="305.482753" y="69.172251" style="fill: #d62728; stroke: #d62728"/>
     <use xlink:href="#m47da509f86" x="307.522041" y="106.227325" style="fill: #d62728; stroke: #d62728"/>
     <use xlink:href="#m47da509f86" x="309.561328" y="88.047094" style="fill: #d62728; stroke: #d62728"/>
     <use xlink:href="#m47da509f86" x="313.639903" y="102.763708" style="fill: #d62728; stroke: #d62728"/>
     <use xlink:href="#m47da509f86" x="325.875627" y="111.513157" style="fill: #d62728; stroke: #d62728"/>
     <use xlink:href="#m47da509f86" x="344.229213" y="92.250519" style="fill: #d62728; stroke: #d62728"/>
     <use xlink:href="#m47da509f86" x="346.2685" y="19.8" style="fill: #d62728; stroke: #d62728"/>
     <use xlink:href="#m47da509f86" x="356.464937" y="158.820303" style="fill: #d62728; stroke: #d62728"/>
     <use xlink:href="#m47da509f86" x="358.504224" y="138.954284" style="fill: #d62728; stroke: #d62728"/>
     <use xlink:href="#m47da509f86" x="360.543512" y="154.017639" style="fill: #d62728; stroke: #d62728"/>
     <use xlink:href="#m47da509f86" x="364.622086" y="168.834511" style="fill: #d62728; stroke: #d62728"/>
     <use xlink:href="#m47da509f86" x="366.661374" y="171.831771" style="fill: #d62728; stroke: #d62728"/>
     <use xlink:href="#m47da509f86" x="372.779236" y="237.501314" style="fill: #d62728; stroke: #d62728"/>
     <use xlink:href="#m47da509f86" x="380.936385" y="84.049532" style="fill: #d62728; stroke: #d62728"/>
     <use xlink:href="#m47da509f86" x="382.975673" y="225.165859" style="fill: #d62728; stroke: #d62728"/>
     <use xlink:href="#m47da509f86" x="391.132822" y="130.547351" style="fill: #d62728; stroke: #d62728"/>
     <use xlink:href="#m47da509f86" x="395.211397" y="141.410592" style="fill: #d62728; stroke: #d62728"/>
     <use xlink:href="#m47da509f86" x="397.250684" y="67.87989" style="fill: #d62728; stroke: #d62728"/>
     <use xlink:href="#m47da509f86" x="399.289971" y="168.328018" style="fill: #d62728; stroke: #d62728"/>
     <use xlink:href="#m47da509f86" x="401.329259" y="203.373339" style="fill: #d62728; stroke: #d62728"/>
     <use xlink:href="#m47da509f86" x="407.447121" y="145.751615" style="fill: #d62728; stroke: #d62728"/>
     <use xlink:href="#m47da509f86" x="419.682845" y="267.188993" style="fill: #d62728; stroke: #d62728"/>
     <use xlink:href="#m47da509f86" x="425.800707" y="154.753776" style="fill: #d62728; stroke: #d62728"/>
     <use xlink:href="#m47da509f86" x="427.839994" y="225.608659" style="fill: #d62728; stroke: #d62728"/>
     <use xlink:href="#m47da509f86" x="440.075718" y="142.702647" style="fill: #d62728; stroke: #d62728"/>
     <use xlink:href="#m47da509f86" x="448.232868" y="175.945428" style="fill: #d62728; stroke: #d62728"/>
     <use xlink:href="#m47da509f86" x="460.468592" y="148.904791" style="fill: #d62728; stroke: #d62728"/>
    </g>
   </g>
   <g id="patch_3">
    <path d="M 44.555937 284.4 
L 44.555937 7.2 
" style="fill: none; stroke: #000000; stroke-width: 0.8; stroke-linejoin: miter; stroke-linecap: square"/>
   </g>
   <g id="patch_4">
    <path d="M 490.955938 284.4 
L 490.955938 7.2 
" style="fill: none; stroke: #000000; stroke-width: 0.8; stroke-linejoin: miter; stroke-linecap: square"/>
   </g>
   <g id="patch_5">
    <path d="M 44.555937 284.4 
L 490.955938 284.4 
" style="fill: none; stroke: #000000; stroke-width: 0.8; stroke-linejoin: miter; stroke-linecap: square"/>
   </g>
   <g id="patch_6">
    <path d="M 44.555937 7.2 
L 490.955938 7.2 
" style="fill: none; stroke: #000000; stroke-width: 0.8; stroke-linejoin: miter; stroke-linecap: square"/>
   </g>
   <g id="legend_1">
    <g id="patch_7">
     <path d="M 51.555937 44.55625 
L 150.149687 44.55625 
Q 152.149687 44.55625 152.149687 42.55625 
L 152.149687 14.2 
Q 152.149687 12.2 150.149687 12.2 
L 51.555937 12.2 
Q 49.555937 12.2 49.555937 14.2 
L 49.555937 42.55625 
Q 49.555937 44.55625 51.555937 44.55625 
z
" style="fill: #ffffff; opacity: 0.8; stroke: #cccccc; stroke-linejoin: miter"/>
    </g>
    <g id="line2d_17">
     <g>
      <use xlink:href="#m9268adf7d6" x="63.555937" y="20.298437" style="fill: #1f77b4; stroke: #1f77b4"/>
     </g>
    </g>
    <g id="text_17">
     <!-- original data -->
     <g transform="translate(81.555937 23.798437)scale(0.1 -0.1)">
      <defs>
       <path id="DejaVuSans-6f" d="M 1959 3097 
Q 1497 3097 1228 2736 
Q 959 2375 959 1747 
Q 959 1119 1226 758 
Q 1494 397 1959 397 
Q 2419 397 2687 759 
Q 2956 1122 2956 1747 
Q 2956 2369 2687 2733 
Q 2419 3097 1959 3097 
z
M 1959 3584 
Q 2709 3584 3137 3096 
Q 3566 2609 3566 1747 
Q 3566 888 3137 398 
Q 2709 -91 1959 -91 
Q 1206 -91 779 398 
Q 353 888 353 1747 
Q 353 2609 779 3096 
Q 1206 3584 1959 3584 
z
" transform="scale(0.015625)"/>
       <path id="DejaVuSans-72" d="M 2631 2963 
Q 2534 3019 2420 3045 
Q 2306 3072 2169 3072 
Q 1681 3072 1420 2755 
Q 1159 2438 1159 1844 
L 1159 0 
L 581 0 
L 581 3500 
L 1159 3500 
L 1159 2956 
Q 1341 3275 1631 3429 
Q 1922 3584 2338 3584 
Q 2397 3584 2469 3576 
Q 2541 3569 2628 3553 
L 2631 2963 
z
" transform="scale(0.015625)"/>
       <path id="DejaVuSans-69" d="M 603 3500 
L 1178 3500 
L 1178 0 
L 603 0 
L 603 3500 
z
M 603 4863 
L 1178 4863 
L 1178 4134 
L 603 4134 
L 603 4863 
z
" transform="scale(0.015625)"/>
       <path id="DejaVuSans-67" d="M 2906 1791 
Q 2906 2416 2648 2759 
Q 2391 3103 1925 3103 
Q 1463 3103 1205 2759 
Q 947 2416 947 1791 
Q 947 1169 1205 825 
Q 1463 481 1925 481 
Q 2391 481 2648 825 
Q 2906 1169 2906 1791 
z
M 3481 434 
Q 3481 -459 3084 -895 
Q 2688 -1331 1869 -1331 
Q 1566 -1331 1297 -1286 
Q 1028 -1241 775 -1147 
L 775 -588 
Q 1028 -725 1275 -790 
Q 1522 -856 1778 -856 
Q 2344 -856 2625 -561 
Q 2906 -266 2906 331 
L 2906 616 
Q 2728 306 2450 153 
Q 2172 0 1784 0 
Q 1141 0 747 490 
Q 353 981 353 1791 
Q 353 2603 747 3093 
Q 1141 3584 1784 3584 
Q 2172 3584 2450 3431 
Q 2728 3278 2906 2969 
L 2906 3500 
L 3481 3500 
L 3481 434 
z
" transform="scale(0.015625)"/>
       <path id="DejaVuSans-6e" d="M 3513 2113 
L 3513 0 
L 2938 0 
L 2938 2094 
Q 2938 2591 2744 2837 
Q 2550 3084 2163 3084 
Q 1697 3084 1428 2787 
Q 1159 2491 1159 1978 
L 1159 0 
L 581 0 
L 581 3500 
L 1159 3500 
L 1159 2956 
Q 1366 3272 1645 3428 
Q 1925 3584 2291 3584 
Q 2894 3584 3203 3211 
Q 3513 2838 3513 2113 
z
" transform="scale(0.015625)"/>
       <path id="DejaVuSans-61" d="M 2194 1759 
Q 1497 1759 1228 1600 
Q 959 1441 959 1056 
Q 959 750 1161 570 
Q 1363 391 1709 391 
Q 2188 391 2477 730 
Q 2766 1069 2766 1631 
L 2766 1759 
L 2194 1759 
z
M 3341 1997 
L 3341 0 
L 2766 0 
L 2766 531 
Q 2569 213 2275 61 
Q 1981 -91 1556 -91 
Q 1019 -91 701 211 
Q 384 513 384 1019 
Q 384 1609 779 1909 
Q 1175 2209 1959 2209 
L 2766 2209 
L 2766 2266 
Q 2766 2663 2505 2880 
Q 2244 3097 1772 3097 
Q 1472 3097 1187 3025 
Q 903 2953 641 2809 
L 641 3341 
Q 956 3463 1253 3523 
Q 1550 3584 1831 3584 
Q 2591 3584 2966 3190 
Q 3341 2797 3341 1997 
z
" transform="scale(0.015625)"/>
       <path id="DejaVuSans-6c" d="M 603 4863 
L 1178 4863 
L 1178 0 
L 603 0 
L 603 4863 
z
" transform="scale(0.015625)"/>
       <path id="DejaVuSans-20" transform="scale(0.015625)"/>
       <path id="DejaVuSans-64" d="M 2906 2969 
L 2906 4863 
L 3481 4863 
L 3481 0 
L 2906 0 
L 2906 525 
Q 2725 213 2448 61 
Q 2172 -91 1784 -91 
Q 1150 -91 751 415 
Q 353 922 353 1747 
Q 353 2572 751 3078 
Q 1150 3584 1784 3584 
Q 2172 3584 2448 3432 
Q 2725 3281 2906 2969 
z
M 947 1747 
Q 947 1113 1208 752 
Q 1469 391 1925 391 
Q 2381 391 2643 752 
Q 2906 1113 2906 1747 
Q 2906 2381 2643 2742 
Q 2381 3103 1925 3103 
Q 1469 3103 1208 2742 
Q 947 2381 947 1747 
z
" transform="scale(0.015625)"/>
       <path id="DejaVuSans-74" d="M 1172 4494 
L 1172 3500 
L 2356 3500 
L 2356 3053 
L 1172 3053 
L 1172 1153 
Q 1172 725 1289 603 
Q 1406 481 1766 481 
L 2356 481 
L 2356 0 
L 1766 0 
Q 1100 0 847 248 
Q 594 497 594 1153 
L 594 3053 
L 172 3053 
L 172 3500 
L 594 3500 
L 594 4494 
L 1172 4494 
z
" transform="scale(0.015625)"/>
      </defs>
      <use xlink:href="#DejaVuSans-6f"/>
      <use xlink:href="#DejaVuSans-72" x="61.181641"/>
      <use xlink:href="#DejaVuSans-69" x="102.294922"/>
      <use xlink:href="#DejaVuSans-67" x="130.078125"/>
      <use xlink:href="#DejaVuSans-69" x="193.554688"/>
      <use xlink:href="#DejaVuSans-6e" x="221.337891"/>
      <use xlink:href="#DejaVuSans-61" x="284.716797"/>
      <use xlink:href="#DejaVuSans-6c" x="345.996094"/>
      <use xlink:href="#DejaVuSans-20" x="373.779297"/>
      <use xlink:href="#DejaVuSans-64" x="405.566406"/>
      <use xlink:href="#DejaVuSans-61" x="469.042969"/>
      <use xlink:href="#DejaVuSans-74" x="530.322266"/>
      <use xlink:href="#DejaVuSans-61" x="569.53125"/>
     </g>
    </g>
    <g id="line2d_18">
     <g>
      <use xlink:href="#m47da509f86" x="63.555937" y="34.976562" style="fill: #d62728; stroke: #d62728"/>
     </g>
    </g>
    <g id="text_18">
     <!-- rejected data -->
     <g transform="translate(81.555937 38.476562)scale(0.1 -0.1)">
      <defs>
       <path id="DejaVuSans-65" d="M 3597 1894 
L 3597 1613 
L 953 1613 
Q 991 1019 1311 708 
Q 1631 397 2203 397 
Q 2534 397 2845 478 
Q 3156 559 3463 722 
L 3463 178 
Q 3153 47 2828 -22 
Q 2503 -91 2169 -91 
Q 1331 -91 842 396 
Q 353 884 353 1716 
Q 353 2575 817 3079 
Q 1281 3584 2069 3584 
Q 2775 3584 3186 3129 
Q 3597 2675 3597 1894 
z
M 3022 2063 
Q 3016 2534 2758 2815 
Q 2500 3097 2075 3097 
Q 1594 3097 1305 2825 
Q 1016 2553 972 2059 
L 3022 2063 
z
" transform="scale(0.015625)"/>
       <path id="DejaVuSans-6a" d="M 603 3500 
L 1178 3500 
L 1178 -63 
Q 1178 -731 923 -1031 
Q 669 -1331 103 -1331 
L -116 -1331 
L -116 -844 
L 38 -844 
Q 366 -844 484 -692 
Q 603 -541 603 -63 
L 603 3500 
z
M 603 4863 
L 1178 4863 
L 1178 4134 
L 603 4134 
L 603 4863 
z
" transform="scale(0.015625)"/>
       <path id="DejaVuSans-63" d="M 3122 3366 
L 3122 2828 
Q 2878 2963 2633 3030 
Q 2388 3097 2138 3097 
Q 1578 3097 1268 2742 
Q 959 2388 959 1747 
Q 959 1106 1268 751 
Q 1578 397 2138 397 
Q 2388 397 2633 464 
Q 2878 531 3122 666 
L 3122 134 
Q 2881 22 2623 -34 
Q 2366 -91 2075 -91 
Q 1284 -91 818 406 
Q 353 903 353 1747 
Q 353 2603 823 3093 
Q 1294 3584 2113 3584 
Q 2378 3584 2631 3529 
Q 2884 3475 3122 3366 
z
" transform="scale(0.015625)"/>
      </defs>
      <use xlink:href="#DejaVuSans-72"/>
      <use xlink:href="#DejaVuSans-65" x="38.863281"/>
      <use xlink:href="#DejaVuSans-6a" x="100.386719"/>
      <use xlink:href="#DejaVuSans-65" x="128.169922"/>
      <use xlink:href="#DejaVuSans-63" x="189.693359"/>
      <use xlink:href="#DejaVuSans-74" x="244.673828"/>
      <use xlink:href="#DejaVuSans-65" x="283.882812"/>
      <use xlink:href="#DejaVuSans-64" x="345.40625"/>
      <use xlink:href="#DejaVuSans-20" x="408.882812"/>
      <use xlink:href="#DejaVuSans-64" x="440.669922"/>
      <use xlink:href="#DejaVuSans-61" x="504.146484"/>
      <use xlink:href="#DejaVuSans-74" x="565.425781"/>
      <use xlink:href="#DejaVuSans-61" x="604.634766"/>
     </g>
    </g>
   </g>
  </g>
 </g>
 <defs>
  <clipPath id="pd5ddff431b">
   <rect x="44.555937" y="7.2" width="446.4" height="277.2"/>
  </clipPath>
 </defs>
</svg>
