<?xml version="1.0" encoding="utf-8" standalone="no"?>
<!DOCTYPE svg PUBLIC "-//W3C//DTD SVG 1.1//EN"
  "http://www.w3.org/Graphics/SVG/1.1/DTD/svg11.dtd">
<svg xmlns:xlink="http://www.w3.org/1999/xlink" width="441.479375pt" height="416.331875pt" viewBox="0 0 441.479375 416.331875" xmlns="http://www.w3.org/2000/svg" version="1.1">
 <metadata>
  <rdf:RDF xmlns:dc="http://purl.org/dc/elements/1.1/" xmlns:cc="http://creativecommons.org/ns#" xmlns:rdf="http://www.w3.org/1999/02/22-rdf-syntax-ns#">
   <cc:Work>
    <dc:type rdf:resource="http://purl.org/dc/dcmitype/StillImage"/>
    <dc:date>2022-05-09T10:04:12.882023</dc:date>
    <dc:format>image/svg+xml</dc:format>
    <dc:creator>
     <cc:Agent>
      <dc:title>Matplotlib v3.5.1, https://matplotlib.org/</dc:title>
     </cc:Agent>
    </dc:creator>
   </cc:Work>
  </rdf:RDF>
 </metadata>
 <defs>
  <style type="text/css">*{stroke-linejoin: round; stroke-linecap: butt}</style>
 </defs>
 <g id="figure_1">
  <g id="patch_1">
   <path d="M 0 416.331875 
L 441.479375 416.331875 
L 441.479375 0 
L 0 0 
L 0 416.331875 
z
" style="fill: none"/>
  </g>
  <g id="axes_1">
   <g id="patch_2">
    <path d="M 53.339688 374.325 
L 388.139688 374.325 
L 388.139688 374.325 
L 388.139688 41.685 
L 388.139688 41.685 
L 53.339688 41.685 
L 53.339688 41.685 
L 53.339688 374.325 
" style="fill: #ffffff; stroke: #ffffff; stroke-linejoin: miter"/>
   </g>
   <g id="patch_3">
    <path d="M 250.05854 122.220425 
L 249.046199 123.629267 
L 248.055275 125.05276 
L 247.086037 126.490573 
L 246.138753 127.942371 
L 245.213692 129.407815 
L 244.311122 130.886564 
L 243.431311 132.378276 
L 242.574528 133.882603 
L 241.741041 135.399196 
L 240.93112 136.927702 
L 240.145034 138.467765 
L 239.383054 140.019027 
L 238.645451 141.581127 
L 237.932497 143.1537 
L 237.244467 144.736379 
L 236.581633 146.328794 
L 235.944273 147.93057 
L 235.332664 149.541332 
L 234.747084 151.160699 
L 234.187814 152.78829 
L 233.655137 154.423718 
L 233.149336 156.066593 
L 232.670697 157.716524 
L 232.219509 159.373115 
L 231.796061 161.035966 
L 231.400646 162.704674 
L 231.033558 164.378835 
L 230.695093 166.058037 
L 230.385551 167.741867 
L 230.105231 169.429909 
L 229.854436 171.121741 
L 229.633473 172.816938 
L 229.442648 174.515073 
L 229.282271 176.215711 
L 229.152654 177.918417 
L 229.054109 179.622749 
L 228.986952 181.328262 
L 228.9515 183.034507 
L 228.948071 184.741029 
L 228.976987 186.447369 
L 229.038567 188.153066 
L 229.133135 189.85765 
L 229.261012 191.56065 
L 229.422524 193.261587 
L 229.617994 194.95998 
L 229.847744 196.655341 
L 230.1121 198.347177 
L 230.411383 200.034992 
L 230.745914 201.718283 
L 231.116014 203.396541 
L 231.521998 205.069253 
L 231.964183 206.735902 
L 232.442879 208.395961 
L 232.958394 210.048904 
L 233.511031 211.694193 
L 234.101087 213.33129 
L 234.728854 214.959647 
L 235.394617 216.578715 
L 236.098654 218.187936 
L 236.841234 219.786748 
L 237.622615 221.374583 
L 238.443048 222.95087 
L 239.302771 224.515029 
L 240.202008 226.066479 
L 241.140972 227.604629 
L 242.119861 229.128889 
L 243.138855 230.638659 
L 244.198119 232.133339 
L 245.297798 233.61232 
L 246.43802 235.074993 
L 247.618888 236.520743 
L 248.840484 237.948952 
L 250.102868 239.358998 
L 251.406072 240.750258 
L 252.750102 242.122103 
L 254.134934 243.473906 
L 255.560515 244.805036 
L 257.026761 246.11486 
L 258.533554 247.402746 
L 260.080741 248.66806 
L 261.668132 249.91017 
L 263.2955 251.128443 
L 264.962579 252.322251 
L 266.669061 253.490963 
L 268.414595 254.633956 
L 270.198788 255.750608 
L 272.0212 256.840301 
L 273.881348 257.902424 
L 275.778696 258.93637 
L 277.712665 259.941541 
L 279.682623 260.917345 
L 281.687888 261.863201 
L 283.72773 262.778535 
L 285.801363 263.662784 
L 287.907952 264.515399 
L 290.046609 265.33584 
L 292.216395 266.123584 
L 294.416316 266.87812 
L 296.645329 267.598954 
L 298.90234 268.285608 
L 298.334243 269.203271 
L 297.762345 270.120374 
L 297.1866 271.036909 
L 296.606958 271.952868 
L 296.02337 272.868245 
L 295.435787 273.78303 
L 294.844158 274.697217 
L 294.24843 275.610798 
L 293.648553 276.523763 
L 293.044473 277.436105 
L 292.436136 278.347816 
L 291.823487 279.258886 
L 291.206472 280.169308 
L 290.585033 281.079072 
L 289.959114 281.988169 
L 289.328656 282.896591 
L 288.693601 283.804328 
L 288.053889 284.71137 
L 287.409458 285.617708 
L 286.760248 286.523332 
L 286.106195 287.428232 
L 285.447235 288.332399 
L 284.783305 289.235821 
L 284.114339 290.138489 
L 283.440269 291.040391 
L 282.761028 291.941517 
L 282.076547 292.841856 
L 281.386757 293.741397 
L 280.691586 294.640128 
L 279.990962 295.538037 
L 279.284812 296.435114 
L 278.573061 297.331345 
L 277.855634 298.226719 
L 277.132454 299.121223 
L 276.403443 300.014844 
L 275.668522 300.90757 
L 274.927609 301.799388 
L 274.180624 302.690284 
L 273.427482 303.580244 
L 272.6681 304.469255 
L 271.902391 305.357302 
L 271.130268 306.244372 
L 270.351643 307.130449 
L 269.566424 308.015519 
L 268.774522 308.899566 
L 267.975841 309.782576 
L 267.170289 310.664532 
L 266.357768 311.545418 
L 265.538181 312.425217 
L 264.711429 313.303915 
L 263.877411 314.181492 
L 263.036023 315.057933 
L 262.187162 315.933219 
L 261.330722 316.807332 
L 260.466595 317.680255 
L 259.594671 318.551969 
L 258.714839 319.422454 
L 257.826987 320.291691 
L 256.930998 321.159661 
L 256.026757 322.026344 
L 255.114144 322.891719 
L 254.193039 323.755764 
L 253.263318 324.61846 
L 252.324858 325.479783 
L 251.377532 326.339713 
L 250.42121 327.198226 
L 249.455762 328.055299 
L 248.481054 328.91091 
L 247.496952 329.765033 
L 246.503318 330.617645 
L 245.500012 331.468721 
L 244.486892 332.318234 
L 243.463814 333.166161 
L 242.430632 334.012473 
L 241.387196 334.857145 
L 240.333355 335.700148 
L 239.268956 336.541454 
L 238.193842 337.381035 
L 237.107854 338.218863 
L 236.010831 339.054906 
L 234.902609 339.889134 
L 233.783023 340.721517 
L 232.651902 341.552024 
L 231.509075 342.38062 
L 230.354369 343.207275 
L 229.187605 344.031953 
L 228.008604 344.854622 
L 226.817185 345.675245 
L 225.61316 346.493787 
L 224.396343 347.310212 
L 223.166542 348.124482 
L 221.923564 348.936559 
L 220.667213 349.746405 
L 219.397288 350.55398 
L 218.113587 351.359243 
L 216.815906 352.162154 
L 215.504036 352.96267 
L 214.177765 353.760748 
L 212.836881 354.556345 
L 211.481166 355.349415 
L 205.876559 353.358369 
L 200.484853 351.291846 
L 195.304128 349.153468 
L 190.331711 346.946763 
L 185.564297 344.675159 
L 180.998049 342.341973 
L 176.628697 339.950407 
L 172.451623 337.503543 
L 168.461945 335.004342 
L 164.654583 332.455644 
L 161.024324 329.860165 
L 157.565872 327.220505 
L 154.273899 324.539144 
L 151.143082 321.818448 
L 148.168138 319.060674 
L 145.343849 316.26797 
L 142.66509 313.442382 
L 140.126842 310.585859 
L 137.724212 307.700254 
L 135.452439 304.787332 
L 133.306909 301.848772 
L 131.283155 298.886172 
L 129.376866 295.901053 
L 127.583884 292.894866 
L 125.90021 289.868992 
L 124.322001 286.824747 
L 122.845568 283.763387 
L 121.467375 280.686111 
L 120.184035 277.594064 
L 118.992308 274.48834 
L 117.889095 271.369985 
L 116.871434 268.240002 
L 115.936499 265.099352 
L 115.081591 261.948955 
L 114.304137 258.789695 
L 113.601682 255.622422 
L 112.971886 252.447954 
L 112.412523 249.267078 
L 111.921468 246.080553 
L 111.496702 242.889112 
L 111.1363 239.693463 
L 110.838432 236.49429 
L 110.601357 233.292257 
L 110.423418 230.088008 
L 110.303041 226.882166 
L 110.238729 223.67534 
L 110.229059 220.46812 
L 110.272678 217.261083 
L 110.368304 214.05479 
L 110.514716 210.84979 
L 110.710757 207.646622 
L 110.955328 204.445809 
L 111.247386 201.24787 
L 111.585942 198.05331 
L 111.97006 194.862626 
L 112.398849 191.67631 
L 112.871468 188.494842 
L 113.387119 185.318701 
L 113.945048 182.148356 
L 114.544539 178.984271 
L 115.184918 175.826908 
L 115.865546 172.676721 
L 116.585819 169.534164 
L 117.345168 166.399684 
L 118.143056 163.273729 
L 118.978975 160.156741 
L 119.852449 157.049162 
L 120.763029 153.951433 
L 121.71029 150.863992 
L 122.693837 147.787278 
L 123.713296 144.721728 
L 124.768317 141.66778 
L 125.858572 138.625872 
L 126.983753 135.596441 
L 128.143575 132.579926 
L 129.337768 129.576767 
L 130.566081 126.587406 
L 131.828282 123.612284 
L 133.124152 120.651846 
L 134.45349 117.706538 
L 135.816107 114.776809 
L 137.211829 111.863108 
L 138.640493 108.96589 
L 140.10195 106.08561 
L 141.59606 103.222727 
L 143.122694 100.377702 
L 144.681732 97.551001 
L 146.273064 94.74309 
L 147.896585 91.954442 
L 149.552201 89.185531 
L 151.239821 86.436836 
L 152.959361 83.708839 
L 154.710742 81.002025 
L 156.493889 78.316883 
L 158.308731 75.653908 
L 160.155196 73.013595 
L 162.03322 70.396446 
L 163.942735 67.802964 
L 165.883676 65.233659 
L 167.855977 62.689042 
L 168.651762 63.301436 
L 169.447835 63.913647 
L 170.244203 64.52567 
L 171.040873 65.1375 
L 171.837853 65.749132 
L 172.635151 66.360562 
L 173.432773 66.971784 
L 174.230727 67.582795 
L 175.02902 68.193589 
L 175.827661 68.804161 
L 176.626655 69.414507 
L 177.426012 70.024622 
L 178.225737 70.634501 
L 179.025838 71.24414 
L 179.826324 71.853532 
L 180.6272 72.462675 
L 181.428475 73.071562 
L 182.230156 73.680189 
L 183.032251 74.28855 
L 183.834766 74.896642 
L 184.637709 75.50446 
L 185.441088 76.111997 
L 186.24491 76.719251 
L 187.049182 77.326214 
L 187.853913 77.932884 
L 188.659108 78.539254 
L 189.464776 79.14532 
L 190.270925 79.751077 
L 191.07756 80.35652 
L 191.884691 80.961644 
L 192.692324 81.566444 
L 193.500467 82.170915 
L 194.309128 82.775053 
L 195.118313 83.378851 
L 195.92803 83.982306 
L 196.738286 84.585412 
L 197.54909 85.188163 
L 198.360448 85.790556 
L 199.172368 86.392585 
L 199.984858 86.994245 
L 200.797924 87.595531 
L 201.611574 88.196438 
L 202.425816 88.79696 
L 203.240658 89.397093 
L 204.056106 89.996832 
L 204.872168 90.596172 
L 205.688851 91.195106 
L 206.506164 91.793631 
L 207.324113 92.391741 
L 208.142706 92.989431 
L 208.96195 93.586695 
L 209.781853 94.183529 
L 210.602423 94.779928 
L 211.423666 95.375885 
L 212.24559 95.971397 
L 213.068204 96.566457 
L 213.891513 97.161061 
L 214.715527 97.755202 
L 215.540251 98.348877 
L 216.365694 98.94208 
L 217.191863 99.534804 
L 218.018766 100.127046 
L 218.84641 100.718799 
L 219.674803 101.310059 
L 220.503951 101.90082 
L 221.333863 102.491077 
L 222.164546 103.080823 
L 222.996008 103.670055 
L 223.828255 104.258766 
L 224.661296 104.846951 
L 225.495138 105.434605 
L 226.329788 106.021722 
L 227.165255 106.608296 
L 228.001544 107.194323 
L 228.838664 107.779796 
L 229.676623 108.364711 
L 230.515428 108.949061 
L 231.355085 109.532842 
L 232.195604 110.116047 
L 233.036991 110.698671 
L 233.879253 111.280709 
L 234.722399 111.862154 
L 235.566435 112.443002 
L 236.411369 113.023246 
L 237.257209 113.602881 
L 238.103962 114.181901 
L 238.951636 114.760301 
L 239.800237 115.338075 
L 240.649774 115.915217 
L 241.500253 116.491721 
L 242.351683 117.067582 
L 243.20407 117.642794 
L 244.057423 118.217351 
L 244.911748 118.791248 
L 245.767054 119.364478 
L 246.623347 119.937035 
L 247.480634 120.508915 
L 248.338924 121.08011 
L 249.198224 121.650616 
L 250.05854 122.220425 
z
" clip-path="url(#p287d2b8d35)" style="fill: none; stroke: #0000ff; stroke-linejoin: miter"/>
   </g>
   <g id="patch_4">
    <path d="M 250.05854 122.220425 
L 298.90234 268.285608 
L 211.481166 355.349415 
L 167.855977 62.689042 
L 250.05854 122.220425 
z
" clip-path="url(#p287d2b8d35)" style="fill: none; stroke-dasharray: 3.7,1.6; stroke-dashoffset: 0; stroke: #ff0000; stroke-linejoin: miter"/>
   </g>
   <g id="grid lines_1"/>
   <g id="grid lines_2"/>
   <g id="grid lines_3">
    <g id="patch_5">
     <path d="M 342.443438 174.587628 
L 338.437499 189.659352 
L 334.560074 203.398268 
L 330.737736 216.133366 
L 326.988141 227.866393 
L 323.22115 238.924642 
L 319.445514 249.308953 
L 315.673988 259.020568 
L 311.923587 268.061167 
L 308.215783 276.432885 
L 304.420054 284.458884 
L 300.537244 292.139175 
L 296.747745 299.155588 
L 292.901185 305.829236 
L 289.006248 312.160933 
L 285.073956 318.151731 
L 280.891005 324.116162 
L 276.672197 329.73962 
L 272.434837 335.023802 
L 267.926127 340.279013 
L 263.409321 345.195746 
L 258.90991 349.776565 
L 254.128922 354.326766 
L 249.388278 358.543139 
L 244.353208 362.727031 
L 238.995797 366.875071 
L 233.705319 370.691392 
L 228.082544 374.470064 
L 222.096985 378.207198 
L 216.220816 381.616208 
L 209.977842 384.982211 
L 203.336347 388.300857 
L 196.2618 391.567263 
L 189.364449 394.510907 
L 182.04077 397.401339 
L 174.257708 400.233313 
L 165.980306 403.001001 
L 157.171962 405.697934 
L 147.794844 408.31695 
L 138.744291 410.623616 
L 129.163223 412.852849 
L 119.023894 414.997581 
L 108.300463 417.050174 
L 106.7378 417.331875 
L 106.7378 417.331875 
" clip-path="url(#p1f7702b4d3)" style="fill: none; stroke-dasharray: 0.8,1.32; stroke-dashoffset: 0; stroke: #000000; stroke-width: 0.8; stroke-linejoin: miter"/>
    </g>
    <g id="patch_6">
     <path d="M 342.443438 174.587628 
L 354.733479 176.951832 
L 366.748397 179.038236 
L 378.852288 180.916379 
L 391.03753 182.581457 
L 403.295697 184.029123 
L 415.617621 185.255528 
L 427.993467 186.257359 
L 440.024168 187.011135 
L 442.479375 187.138336 
L 442.479375 187.138336 
" clip-path="url(#p1f7702b4d3)" style="fill: none; stroke-dasharray: 0.8,1.32; stroke-dashoffset: 0; stroke: #000000; stroke-width: 0.8; stroke-linejoin: miter"/>
    </g>
    <g id="patch_7">
     <path d="M 342.443438 174.587628 
L 346.479377 158.509625 
L 350.700867 140.768201 
L 355.242918 120.704143 
L 360.372139 96.998656 
L 366.6186 67.01381 
L 380.525888 -1 
L 380.525888 -1 
" clip-path="url(#p1f7702b4d3)" style="fill: none; stroke-dasharray: 0.8,1.32; stroke-dashoffset: 0; stroke: #000000; stroke-width: 0.8; stroke-linejoin: miter"/>
    </g>
    <g id="patch_8">
     <path d="M 342.443438 174.587628 
L 330.261657 172.013626 
L 318.19356 169.236317 
L 306.243553 166.262506 
L 294.058518 163.000518 
L 282.005062 159.54539 
L 269.736162 155.795481 
L 257.6089 151.858551 
L 245.282368 147.623628 
L 232.767266 143.085434 
L 220.07317 138.239994 
L 207.208315 133.084709 
L 194.17938 127.618418 
L 180.991288 121.84145 
L 167.647018 115.755679 
L 153.83534 109.214136 
L 139.565423 102.21184 
L 124.537479 94.590232 
L 108.459729 86.183114 
L 91.044395 76.820519 
L 71.40882 66.004399 
L 47.201477 52.400534 
L 20.45695 37.199248 
L 20.45695 37.199248 
" clip-path="url(#p1f7702b4d3)" style="fill: none; stroke-dasharray: 0.8,1.32; stroke-dashoffset: 0; stroke: #000000; stroke-width: 0.8; stroke-linejoin: miter"/>
    </g>
   </g>
   <g id="grid lines_4">
    <g id="patch_9">
     <path d="M 342.443438 174.587628 
" clip-path="url(#p1f7702b4d3)" style="fill: none; stroke-dasharray: 0.8,1.32; stroke-dashoffset: 0; stroke: #000000; stroke-width: 0.8; stroke-linejoin: miter"/>
    </g>
    <g id="patch_10">
     <path d="M 320.228056 247.212395 
L 325.10968 248.091806 
L 330.065636 248.752698 
L 335.07506 249.192035 
L 340.11647 249.40778 
L 345.168006 249.398932 
L 350.207688 249.165532 
L 355.213675 248.708664 
L 360.164525 248.030443 
L 365.039434 247.133984 
L 369.818465 246.023359 
L 374.482743 244.703546 
L 379.014621 243.180363 
L 383.39782 241.460401 
L 387.617523 239.550943 
L 391.660438 237.459891 
L 395.514834 235.195678 
L 399.170535 232.767194 
L 402.618894 230.183703 
L 405.852743 227.454773 
L 408.86632 224.590202 
L 411.655183 221.599957 
L 414.216121 218.494114 
L 416.547045 215.282804 
L 418.646887 211.976173 
L 420.515494 208.584336 
L 422.153528 205.117343 
L 423.562365 201.585158 
L 424.744006 197.997625 
L 425.70099 194.364458 
L 426.436315 190.695217 
L 426.953375 186.999307 
L 427.25589 183.285957 
L 427.347859 179.564225 
L 427.23351 175.842984 
L 426.917263 172.130926 
L 426.32586 167.976419 
L 425.491446 163.856119 
L 424.420917 159.781552 
L 423.121316 155.763941 
L 421.599821 151.814209 
L 419.863731 147.94297 
L 417.920461 144.160533 
L 415.777546 140.476897 
L 413.442642 136.901739 
L 410.923536 133.444418 
L 408.228157 130.113954 
L 405.364583 126.919028 
L 402.341055 123.867964 
L 399.165987 120.968718 
L 395.847977 118.228861 
L 392.395813 115.655566 
L 388.818482 113.255589 
L 385.12517 111.035252 
L 381.325266 109.000423 
L 377.428356 107.156502 
L 373.444222 105.508399 
L 369.382826 104.06052 
L 365.254304 102.816749 
L 361.068947 101.780432 
L 356.837181 100.954365 
L 352.569547 100.340783 
L 348.276679 99.941348 
L 343.969272 99.757145 
L 339.658062 99.788673 
L 335.353794 100.035847 
L 331.067196 100.497996 
L 326.808947 101.173866 
L 322.589657 102.061626 
L 318.419835 103.158878 
L 314.309871 104.462662 
L 310.270011 105.969473 
L 306.310342 107.675275 
L 302.440775 109.575511 
L 298.671036 111.665127 
L 295.010653 113.938585 
L 291.468956 116.389881 
L 288.055073 119.012564 
L 284.777932 121.799756 
L 281.646265 124.744165 
L 278.668615 127.838107 
L 275.853344 131.073515 
L 273.208646 134.441961 
L 270.742553 137.934664 
L 268.46295 141.542502 
L 266.377587 145.256025 
L 264.494084 149.065458 
L 262.819939 152.960713 
L 261.362535 156.931392 
L 260.129135 160.966789 
L 259.126878 165.055894 
L 258.362769 169.187395 
L 257.843653 173.349678 
L 257.59328 177.065702 
L 257.546276 180.788073 
L 257.707004 184.508037 
L 258.079619 188.216662 
L 258.668035 191.904832 
L 259.475871 195.563259 
L 260.506398 199.182488 
L 261.762471 202.752904 
L 263.246462 206.26475 
L 264.960175 209.708141 
L 266.904763 213.073081 
L 269.080629 216.349494 
L 271.487333 219.527252 
L 274.123481 222.59621 
L 276.986629 225.546249 
L 280.07317 228.367323 
L 283.378239 231.049513 
L 286.895622 233.583089 
L 290.617669 235.958577 
L 294.535237 238.166825 
L 298.637639 240.199087 
L 302.912631 242.047093 
L 307.346414 243.703139 
L 311.923683 245.160157 
L 316.627694 246.411805 
L 320.228056 247.212395 
L 320.228056 247.212395 
" clip-path="url(#p1f7702b4d3)" style="fill: none; stroke-dasharray: 0.8,1.32; stroke-dashoffset: 0; stroke: #000000; stroke-width: 0.8; stroke-linejoin: miter"/>
    </g>
    <g id="patch_11">
     <path d="M 284.846076 318.487198 
L 292.504659 319.974045 
L 300.343447 321.248614 
L 308.337744 322.305347 
L 316.460509 323.139514 
L 324.682676 323.747298 
L 332.973569 324.12587 
L 341.301367 324.273449 
L 349.633628 324.189336 
L 357.937834 323.873928 
L 366.181943 323.328715 
L 374.334913 322.556242 
L 382.367195 321.560063 
L 390.251156 320.344666 
L 397.96143 318.915392 
L 405.475188 317.278332 
L 412.77231 315.44023 
L 419.835488 313.408366 
L 426.650232 311.190454 
L 433.204817 308.794537 
L 439.490165 306.228883 
L 442.479375 304.90646 
M 442.479375 58.837619 
L 437.613099 55.289207 
L 432.371071 51.74773 
L 427.002376 48.402805 
L 421.513087 45.260191 
L 415.909648 42.325416 
L 410.19888 39.603754 
L 404.387991 37.100193 
L 398.484571 34.819409 
L 392.496585 32.765737 
L 386.432359 30.943143 
L 380.30056 29.355198 
L 374.110167 28.005054 
L 367.870444 26.895421 
L 361.590895 26.028548 
L 355.281228 25.406205 
L 348.951305 25.029669 
L 342.611095 24.899718 
L 336.27062 25.01662 
L 329.939903 25.380133 
L 323.628917 25.989508 
L 317.347531 26.843492 
L 311.105462 27.940342 
L 304.912227 29.277833 
L 298.777102 30.853281 
L 292.709083 32.663554 
L 286.716855 34.705105 
L 280.808761 36.973986 
L 274.992787 39.465883 
L 269.276542 42.176136 
L 263.667253 45.099773 
L 258.171765 48.231535 
L 252.796538 51.565905 
L 247.547667 55.097138 
L 242.430887 58.819284 
L 237.4516 62.726218 
L 232.614897 66.811661 
L 227.925588 71.069204 
L 223.38823 75.492325 
L 219.007169 80.074414 
L 214.786572 84.808783 
L 210.730468 89.68868 
L 206.842793 94.707303 
L 203.127431 99.857807 
L 199.58826 105.13331 
L 196.229197 110.526897 
L 193.054247 116.031618 
L 190.06755 121.640492 
L 187.273433 127.346498 
L 184.676456 133.142571 
L 182.281468 139.021592 
L 180.093655 144.976374 
L 178.118596 150.999651 
L 176.362317 157.084057 
L 174.831346 163.222109 
L 173.532768 169.406181 
L 172.474282 175.62848 
L 171.66426 181.881014 
L 171.174587 187.258169 
L 170.880314 192.64617 
L 170.788074 198.039523 
L 170.904969 203.432553 
L 171.238591 208.81938 
L 171.797044 214.193899 
L 172.588951 219.549754 
L 173.623472 224.880311 
L 174.910296 230.178633 
L 176.182736 234.564043 
L 177.643656 238.917629 
L 179.299469 243.234805 
L 181.156806 247.510787 
L 183.222482 251.74058 
L 185.503472 255.918966 
L 188.006863 260.040491 
L 190.739804 264.099457 
L 193.709441 268.089909 
L 196.922838 272.005632 
L 200.386886 275.840141 
L 204.108193 279.586681 
L 208.092958 283.238227 
L 212.346824 286.787488 
L 216.874716 290.226918 
L 221.680659 293.548734 
L 226.767578 296.744934 
L 232.137079 299.807335 
L 237.78923 302.727606 
L 243.722323 305.497324 
L 249.932643 308.108025 
L 256.414246 310.551284 
L 263.158753 312.818783 
L 270.155178 314.902411 
L 277.389797 316.794353 
L 284.846076 318.487198 
L 284.846076 318.487198 
" clip-path="url(#p1f7702b4d3)" style="fill: none; stroke-dasharray: 0.8,1.32; stroke-dashoffset: 0; stroke: #000000; stroke-width: 0.8; stroke-linejoin: miter"/>
    </g>
    <g id="patch_12">
     <path d="M 209.116327 385.427397 
L 218.351145 387.504395 
L 228.024344 389.438084 
L 238.127737 391.219642 
L 248.647001 392.840317 
L 259.56107 394.291576 
L 270.841703 395.565273 
L 282.45329 396.65384 
L 294.352963 397.550473 
L 306.491051 398.249322 
L 318.811899 398.745668 
L 331.255047 399.036067 
L 343.756713 399.118473 
L 356.251489 398.992298 
L 368.674162 398.658438 
L 380.961511 398.119244 
L 393.053971 397.378435 
L 404.897058 396.440983 
L 416.442473 395.312952 
L 427.648847 394.001323 
L 438.482118 392.513802 
L 442.479375 391.905097 
M 197.044387 -1 
L 191.579146 3.249069 
L 185.647487 8.141414 
L 179.872507 13.200797 
L 174.254842 18.420729 
L 168.794792 23.794811 
L 163.492367 29.316747 
L 158.34734 34.980365 
L 153.359296 40.779616 
L 148.527673 46.708592 
L 143.851811 52.761524 
L 139.330995 58.932787 
L 134.251699 66.274854 
L 129.381338 73.762087 
L 124.718934 81.386305 
L 120.263724 89.139588 
L 116.015236 97.014261 
L 111.973373 105.002887 
L 108.138489 113.098245 
L 104.511474 121.293318 
L 101.093842 129.581268 
L 97.88782 137.955412 
L 94.896452 146.409204 
L 92.123706 154.936195 
L 89.574599 163.530015 
L 87.255336 172.184329 
L 85.173467 180.892801 
L 83.33807 189.649055 
L 81.969193 197.187545 
L 80.797274 204.752232 
L 79.831479 212.33885 
L 79.082324 219.942992 
L 78.561854 227.560072 
L 78.283841 235.185281 
L 78.264019 242.813536 
L 78.457614 249.168851 
L 78.854661 255.51919 
L 79.46825 261.86099 
L 80.312999 268.190428 
L 81.40523 274.503377 
L 82.763177 280.795365 
L 84.054462 285.810599 
L 85.540317 290.806594 
L 87.233334 295.780421 
L 89.147272 300.728913 
L 91.297165 305.648626 
L 93.699434 310.535812 
L 96.372003 315.386374 
L 99.33442 320.195828 
L 102.607978 324.959252 
L 105.281187 328.498378 
L 108.152883 332.006093 
L 111.234199 335.479726 
L 114.536927 338.916394 
L 118.073525 342.312993 
L 121.857121 345.666173 
L 125.901497 348.972323 
L 130.221061 352.227548 
L 134.830795 355.427645 
L 139.746179 358.568088 
L 144.983088 361.644002 
L 150.557638 364.650144 
L 156.486001 367.580887 
L 162.784154 370.430204 
L 169.467574 373.191658 
L 176.550859 375.858401 
L 184.047276 378.423174 
L 191.96823 380.878326 
L 200.322653 383.215845 
L 209.116327 385.427397 
L 209.116327 385.427397 
" clip-path="url(#p1f7702b4d3)" style="fill: none; stroke-dasharray: 0.8,1.32; stroke-dashoffset: 0; stroke: #000000; stroke-width: 0.8; stroke-linejoin: miter"/>
    </g>
    <g id="patch_13">
     <path d="M 90.294735 -1 
L 85.251944 5.519255 
L 79.671611 13.061566 
L 74.263022 20.715943 
L 69.019764 28.476285 
L 63.103263 37.656271 
L 57.393704 46.964047 
L 51.881886 56.391562 
L 46.55903 65.931291 
L 41.416809 75.576197 
L 36.447359 85.319699 
L 30.970102 96.567983 
L 25.698655 107.928461 
L 20.623652 119.393194 
L 15.736609 130.954807 
L 10.453959 144.068908 
L 5.390272 157.287912 
L 0.537784 170.603451 
L -1 174.965417 
L -1 174.965417 
" clip-path="url(#p1f7702b4d3)" style="fill: none; stroke-dasharray: 0.8,1.32; stroke-dashoffset: 0; stroke: #000000; stroke-width: 0.8; stroke-linejoin: miter"/>
    </g>
   </g>
   <g id="ticks_1">
    <defs>
     <path id="m0c74f1bebe" d="M 0 0 
L 0 3.5 
" style="stroke: #000000; stroke-width: 0.8"/>
    </defs>
    <g>
     <use xlink:href="#m0c74f1bebe" x="357.167567" y="374.325" style="fill: none; stroke: #000000; stroke-width: 0.8"/>
     <use xlink:href="#m0c74f1bebe" x="357.167567" y="374.325" style="fill: none; stroke: #000000; stroke-width: 0.8"/>
    </g>
    <defs>
     <path id="m354ea978b6" d="M 0 0 
L -0 3.5 
" style="stroke: #000000; stroke-width: 0.8"/>
    </defs>
    <g>
     <use xlink:href="#m354ea978b6" x="281.837568" y="374.325" style="fill: none; stroke: #000000; stroke-width: 0.8"/>
     <use xlink:href="#m354ea978b6" x="281.837568" y="374.325" style="fill: none; stroke: #000000; stroke-width: 0.8"/>
    </g>
    <g>
     <use xlink:href="#m354ea978b6" x="206.50757" y="374.325" style="fill: none; stroke: #000000; stroke-width: 0.8"/>
     <use xlink:href="#m354ea978b6" x="206.50757" y="374.325" style="fill: none; stroke: #000000; stroke-width: 0.8"/>
    </g>
    <g>
     <use xlink:href="#m0c74f1bebe" x="131.177572" y="374.325" style="fill: none; stroke: #000000; stroke-width: 0.8"/>
     <use xlink:href="#m0c74f1bebe" x="131.177572" y="374.325" style="fill: none; stroke: #000000; stroke-width: 0.8"/>
    </g>
    <g>
     <use xlink:href="#m0c74f1bebe" x="55.847574" y="374.325" style="fill: none; stroke: #000000; stroke-width: 0.8"/>
     <use xlink:href="#m0c74f1bebe" x="55.847574" y="374.325" style="fill: none; stroke: #000000; stroke-width: 0.8"/>
    </g>
    <defs>
     <path id="m56870c70b7" d="M 0 0 
L 0 -3.5 
" style="stroke: #000000; stroke-width: 0.8"/>
    </defs>
    <g>
     <use xlink:href="#m56870c70b7" x="357.167567" y="41.685" style="fill: none; stroke: #000000; stroke-width: 0.8"/>
     <use xlink:href="#m56870c70b7" x="357.167567" y="41.685" style="fill: none; stroke: #000000; stroke-width: 0.8"/>
    </g>
    <g>
     <use xlink:href="#m56870c70b7" x="281.837568" y="41.685" style="fill: none; stroke: #000000; stroke-width: 0.8"/>
     <use xlink:href="#m56870c70b7" x="281.837568" y="41.685" style="fill: none; stroke: #000000; stroke-width: 0.8"/>
    </g>
    <g>
     <use xlink:href="#m56870c70b7" x="206.50757" y="41.685" style="fill: none; stroke: #000000; stroke-width: 0.8"/>
     <use xlink:href="#m56870c70b7" x="206.50757" y="41.685" style="fill: none; stroke: #000000; stroke-width: 0.8"/>
    </g>
    <g>
     <use xlink:href="#m56870c70b7" x="131.177572" y="41.685" style="fill: none; stroke: #000000; stroke-width: 0.8"/>
     <use xlink:href="#m56870c70b7" x="131.177572" y="41.685" style="fill: none; stroke: #000000; stroke-width: 0.8"/>
    </g>
    <g>
     <use xlink:href="#m56870c70b7" x="55.847574" y="41.685" style="fill: none; stroke: #000000; stroke-width: 0.8"/>
     <use xlink:href="#m56870c70b7" x="55.847574" y="41.685" style="fill: none; stroke: #000000; stroke-width: 0.8"/>
    </g>
    <g id="text_1">
     <!-- 0° -->
     <g transform="translate(50.166324 389.245313)scale(0.1 -0.1)">
      <defs>
       <path id="DejaVuSans-30" d="M 2034 4250 
Q 1547 4250 1301 3770 
Q 1056 3291 1056 2328 
Q 1056 1369 1301 889 
Q 1547 409 2034 409 
Q 2525 409 2770 889 
Q 3016 1369 3016 2328 
Q 3016 3291 2770 3770 
Q 2525 4250 2034 4250 
z
M 2034 4750 
Q 2819 4750 3233 4129 
Q 3647 3509 3647 2328 
Q 3647 1150 3233 529 
Q 2819 -91 2034 -91 
Q 1250 -91 836 529 
Q 422 1150 422 2328 
Q 422 3509 836 4129 
Q 1250 4750 2034 4750 
z
" transform="scale(0.015625)"/>
       <path id="DejaVuSans-b0" d="M 1600 4347 
Q 1350 4347 1178 4173 
Q 1006 4000 1006 3750 
Q 1006 3503 1178 3333 
Q 1350 3163 1600 3163 
Q 1850 3163 2022 3333 
Q 2194 3503 2194 3750 
Q 2194 3997 2020 4172 
Q 1847 4347 1600 4347 
z
M 1600 4750 
Q 1800 4750 1984 4673 
Q 2169 4597 2303 4453 
Q 2447 4313 2519 4134 
Q 2591 3956 2591 3750 
Q 2591 3338 2302 3052 
Q 2013 2766 1594 2766 
Q 1172 2766 890 3047 
Q 609 3328 609 3750 
Q 609 4169 896 4459 
Q 1184 4750 1600 4750 
z
" transform="scale(0.015625)"/>
      </defs>
      <use xlink:href="#DejaVuSans-30"/>
      <use xlink:href="#DejaVuSans-b0" x="63.623047"/>
     </g>
    </g>
    <g id="text_2">
     <!-- 345° -->
     <g transform="translate(119.133822 389.245313)scale(0.1 -0.1)">
      <defs>
       <path id="DejaVuSans-33" d="M 2597 2516 
Q 3050 2419 3304 2112 
Q 3559 1806 3559 1356 
Q 3559 666 3084 287 
Q 2609 -91 1734 -91 
Q 1441 -91 1130 -33 
Q 819 25 488 141 
L 488 750 
Q 750 597 1062 519 
Q 1375 441 1716 441 
Q 2309 441 2620 675 
Q 2931 909 2931 1356 
Q 2931 1769 2642 2001 
Q 2353 2234 1838 2234 
L 1294 2234 
L 1294 2753 
L 1863 2753 
Q 2328 2753 2575 2939 
Q 2822 3125 2822 3475 
Q 2822 3834 2567 4026 
Q 2313 4219 1838 4219 
Q 1578 4219 1281 4162 
Q 984 4106 628 3988 
L 628 4550 
Q 988 4650 1302 4700 
Q 1616 4750 1894 4750 
Q 2613 4750 3031 4423 
Q 3450 4097 3450 3541 
Q 3450 3153 3228 2886 
Q 3006 2619 2597 2516 
z
" transform="scale(0.015625)"/>
       <path id="DejaVuSans-34" d="M 2419 4116 
L 825 1625 
L 2419 1625 
L 2419 4116 
z
M 2253 4666 
L 3047 4666 
L 3047 1625 
L 3713 1625 
L 3713 1100 
L 3047 1100 
L 3047 0 
L 2419 0 
L 2419 1100 
L 313 1100 
L 313 1709 
L 2253 4666 
z
" transform="scale(0.015625)"/>
       <path id="DejaVuSans-35" d="M 691 4666 
L 3169 4666 
L 3169 4134 
L 1269 4134 
L 1269 2991 
Q 1406 3038 1543 3061 
Q 1681 3084 1819 3084 
Q 2600 3084 3056 2656 
Q 3513 2228 3513 1497 
Q 3513 744 3044 326 
Q 2575 -91 1722 -91 
Q 1428 -91 1123 -41 
Q 819 9 494 109 
L 494 744 
Q 775 591 1075 516 
Q 1375 441 1709 441 
Q 2250 441 2565 725 
Q 2881 1009 2881 1497 
Q 2881 1984 2565 2268 
Q 2250 2553 1709 2553 
Q 1456 2553 1204 2497 
Q 953 2441 691 2322 
L 691 4666 
z
" transform="scale(0.015625)"/>
      </defs>
      <use xlink:href="#DejaVuSans-33"/>
      <use xlink:href="#DejaVuSans-34" x="63.623047"/>
      <use xlink:href="#DejaVuSans-35" x="127.246094"/>
      <use xlink:href="#DejaVuSans-b0" x="190.869141"/>
     </g>
    </g>
    <g id="text_3">
     <!-- 330° -->
     <g transform="translate(194.46382 389.245313)scale(0.1 -0.1)">
      <use xlink:href="#DejaVuSans-33"/>
      <use xlink:href="#DejaVuSans-33" x="63.623047"/>
      <use xlink:href="#DejaVuSans-30" x="127.246094"/>
      <use xlink:href="#DejaVuSans-b0" x="190.869141"/>
     </g>
    </g>
    <g id="text_4">
     <!-- 315° -->
     <g transform="translate(269.793818 389.245313)scale(0.1 -0.1)">
      <defs>
       <path id="DejaVuSans-31" d="M 794 531 
L 1825 531 
L 1825 4091 
L 703 3866 
L 703 4441 
L 1819 4666 
L 2450 4666 
L 2450 531 
L 3481 531 
L 3481 0 
L 794 0 
L 794 531 
z
" transform="scale(0.015625)"/>
      </defs>
      <use xlink:href="#DejaVuSans-33"/>
      <use xlink:href="#DejaVuSans-31" x="63.623047"/>
      <use xlink:href="#DejaVuSans-35" x="127.246094"/>
      <use xlink:href="#DejaVuSans-b0" x="190.869141"/>
     </g>
    </g>
    <g id="text_5">
     <!-- 300° -->
     <g transform="translate(345.123817 389.245313)scale(0.1 -0.1)">
      <use xlink:href="#DejaVuSans-33"/>
      <use xlink:href="#DejaVuSans-30" x="63.623047"/>
      <use xlink:href="#DejaVuSans-30" x="127.246094"/>
      <use xlink:href="#DejaVuSans-b0" x="190.869141"/>
     </g>
    </g>
   </g>
   <g id="ticks_2">
    <defs>
     <path id="m1adc41379a" d="M 0 0 
L -3.5 -0 
" style="stroke: #000000; stroke-width: 0.8"/>
    </defs>
    <g>
     <use xlink:href="#m1adc41379a" x="53.339688" y="338.604496" style="fill: none; stroke: #000000; stroke-width: 0.8"/>
     <use xlink:href="#m1adc41379a" x="53.339688" y="338.604496" style="fill: none; stroke: #000000; stroke-width: 0.8"/>
    </g>
    <g>
     <use xlink:href="#m1adc41379a" x="53.339688" y="263.760498" style="fill: none; stroke: #000000; stroke-width: 0.8"/>
     <use xlink:href="#m1adc41379a" x="53.339688" y="263.760498" style="fill: none; stroke: #000000; stroke-width: 0.8"/>
    </g>
    <defs>
     <path id="m657ae58aa1" d="M 0 0 
L -3.5 0 
" style="stroke: #000000; stroke-width: 0.8"/>
    </defs>
    <g>
     <use xlink:href="#m657ae58aa1" x="53.339688" y="188.9165" style="fill: none; stroke: #000000; stroke-width: 0.8"/>
     <use xlink:href="#m657ae58aa1" x="53.339688" y="188.9165" style="fill: none; stroke: #000000; stroke-width: 0.8"/>
    </g>
    <g>
     <use xlink:href="#m657ae58aa1" x="53.339688" y="114.072502" style="fill: none; stroke: #000000; stroke-width: 0.8"/>
     <use xlink:href="#m657ae58aa1" x="53.339688" y="114.072502" style="fill: none; stroke: #000000; stroke-width: 0.8"/>
    </g>
    <defs>
     <path id="m2d39ba35aa" d="M 0 0 
L 3.5 0 
" style="stroke: #000000; stroke-width: 0.8"/>
    </defs>
    <g>
     <use xlink:href="#m2d39ba35aa" x="388.139688" y="338.604496" style="fill: none; stroke: #000000; stroke-width: 0.8"/>
     <use xlink:href="#m2d39ba35aa" x="388.139688" y="338.604496" style="fill: none; stroke: #000000; stroke-width: 0.8"/>
    </g>
    <defs>
     <path id="m379ddd0bdb" d="M 0 0 
L 3.5 -0 
" style="stroke: #000000; stroke-width: 0.8"/>
    </defs>
    <g>
     <use xlink:href="#m379ddd0bdb" x="388.139688" y="263.760498" style="fill: none; stroke: #000000; stroke-width: 0.8"/>
     <use xlink:href="#m379ddd0bdb" x="388.139688" y="263.760498" style="fill: none; stroke: #000000; stroke-width: 0.8"/>
    </g>
    <g>
     <use xlink:href="#m379ddd0bdb" x="388.139688" y="188.9165" style="fill: none; stroke: #000000; stroke-width: 0.8"/>
     <use xlink:href="#m379ddd0bdb" x="388.139688" y="188.9165" style="fill: none; stroke: #000000; stroke-width: 0.8"/>
    </g>
    <g>
     <use xlink:href="#m379ddd0bdb" x="388.139688" y="114.072502" style="fill: none; stroke: #000000; stroke-width: 0.8"/>
     <use xlink:href="#m379ddd0bdb" x="388.139688" y="114.072502" style="fill: none; stroke: #000000; stroke-width: 0.8"/>
    </g>
    <g id="text_6">
     <!-- -15° -->
     <g transform="translate(25.006875 116.992814)scale(0.1 -0.1)">
      <defs>
       <path id="DejaVuSans-2d" d="M 313 2009 
L 1997 2009 
L 1997 1497 
L 313 1497 
L 313 2009 
z
" transform="scale(0.015625)"/>
      </defs>
      <use xlink:href="#DejaVuSans-2d"/>
      <use xlink:href="#DejaVuSans-31" x="36.083984"/>
      <use xlink:href="#DejaVuSans-35" x="99.707031"/>
      <use xlink:href="#DejaVuSans-b0" x="163.330078"/>
     </g>
    </g>
    <g id="text_7">
     <!-- -30° -->
     <g transform="translate(25.006875 191.836812)scale(0.1 -0.1)">
      <use xlink:href="#DejaVuSans-2d"/>
      <use xlink:href="#DejaVuSans-33" x="36.083984"/>
      <use xlink:href="#DejaVuSans-30" x="99.707031"/>
      <use xlink:href="#DejaVuSans-b0" x="163.330078"/>
     </g>
    </g>
    <g id="text_8">
     <!-- -45° -->
     <g transform="translate(25.006875 266.680811)scale(0.1 -0.1)">
      <use xlink:href="#DejaVuSans-2d"/>
      <use xlink:href="#DejaVuSans-34" x="36.083984"/>
      <use xlink:href="#DejaVuSans-35" x="99.707031"/>
      <use xlink:href="#DejaVuSans-b0" x="163.330078"/>
     </g>
    </g>
    <g id="text_9">
     <!-- -60° -->
     <g transform="translate(25.006875 341.524809)scale(0.1 -0.1)">
      <defs>
       <path id="DejaVuSans-36" d="M 2113 2584 
Q 1688 2584 1439 2293 
Q 1191 2003 1191 1497 
Q 1191 994 1439 701 
Q 1688 409 2113 409 
Q 2538 409 2786 701 
Q 3034 994 3034 1497 
Q 3034 2003 2786 2293 
Q 2538 2584 2113 2584 
z
M 3366 4563 
L 3366 3988 
Q 3128 4100 2886 4159 
Q 2644 4219 2406 4219 
Q 1781 4219 1451 3797 
Q 1122 3375 1075 2522 
Q 1259 2794 1537 2939 
Q 1816 3084 2150 3084 
Q 2853 3084 3261 2657 
Q 3669 2231 3669 1497 
Q 3669 778 3244 343 
Q 2819 -91 2113 -91 
Q 1303 -91 875 529 
Q 447 1150 447 2328 
Q 447 3434 972 4092 
Q 1497 4750 2381 4750 
Q 2619 4750 2861 4703 
Q 3103 4656 3366 4563 
z
" transform="scale(0.015625)"/>
      </defs>
      <use xlink:href="#DejaVuSans-2d"/>
      <use xlink:href="#DejaVuSans-36" x="36.083984"/>
      <use xlink:href="#DejaVuSans-30" x="99.707031"/>
      <use xlink:href="#DejaVuSans-b0" x="163.330078"/>
     </g>
    </g>
   </g>
   <g id="ticks_3">
    <defs>
     <path id="m9e44e3387c" d="M 0 0 
L -2.93736 1.903134 
" style="stroke: #000000; stroke-width: 0.8"/>
    </defs>
    <g>
     <use xlink:href="#m9e44e3387c" x="228.306021" y="374.325" style="fill: none; stroke: #000000; stroke-width: 0.8"/>
     <use xlink:href="#m9e44e3387c" x="228.306021" y="374.325" style="fill: none; stroke: #000000; stroke-width: 0.8"/>
    </g>
    <defs>
     <path id="m7ae35dc56d" d="M 0 0 
L 3.473282 0.431637 
" style="stroke: #000000; stroke-width: 0.8"/>
    </defs>
    <g>
     <use xlink:href="#m7ae35dc56d" x="388.139688" y="182.205947" style="fill: none; stroke: #000000; stroke-width: 0.8"/>
     <use xlink:href="#m7ae35dc56d" x="388.139688" y="182.205947" style="fill: none; stroke: #000000; stroke-width: 0.8"/>
    </g>
    <defs>
     <path id="m66d68493d8" d="M 0 0 
L 0.690636 -3.431184 
" style="stroke: #000000; stroke-width: 0.8"/>
    </defs>
    <g>
     <use xlink:href="#m66d68493d8" x="371.78853" y="41.685" style="fill: none; stroke: #000000; stroke-width: 0.8"/>
     <use xlink:href="#m66d68493d8" x="371.78853" y="41.685" style="fill: none; stroke: #000000; stroke-width: 0.8"/>
    </g>
    <defs>
     <path id="m94f0debc93" d="M 0 0 
L -3.044201 -1.727091 
" style="stroke: #000000; stroke-width: 0.8"/>
    </defs>
    <g>
     <use xlink:href="#m94f0debc93" x="53.339688" y="55.870741" style="fill: none; stroke: #000000; stroke-width: 0.8"/>
     <use xlink:href="#m94f0debc93" x="53.339688" y="55.870741" style="fill: none; stroke: #000000; stroke-width: 0.8"/>
    </g>
    <g id="text_10">
     <!-- 180° -->
     <g transform="translate(359.74478 32.605312)scale(0.1 -0.1)">
      <defs>
       <path id="DejaVuSans-38" d="M 2034 2216 
Q 1584 2216 1326 1975 
Q 1069 1734 1069 1313 
Q 1069 891 1326 650 
Q 1584 409 2034 409 
Q 2484 409 2743 651 
Q 3003 894 3003 1313 
Q 3003 1734 2745 1975 
Q 2488 2216 2034 2216 
z
M 1403 2484 
Q 997 2584 770 2862 
Q 544 3141 544 3541 
Q 544 4100 942 4425 
Q 1341 4750 2034 4750 
Q 2731 4750 3128 4425 
Q 3525 4100 3525 3541 
Q 3525 3141 3298 2862 
Q 3072 2584 2669 2484 
Q 3125 2378 3379 2068 
Q 3634 1759 3634 1313 
Q 3634 634 3220 271 
Q 2806 -91 2034 -91 
Q 1263 -91 848 271 
Q 434 634 434 1313 
Q 434 1759 690 2068 
Q 947 2378 1403 2484 
z
M 1172 3481 
Q 1172 3119 1398 2916 
Q 1625 2713 2034 2713 
Q 2441 2713 2670 2916 
Q 2900 3119 2900 3481 
Q 2900 3844 2670 4047 
Q 2441 4250 2034 4250 
Q 1625 4250 1398 4047 
Q 1172 3844 1172 3481 
z
" transform="scale(0.015625)"/>
      </defs>
      <use xlink:href="#DejaVuSans-31"/>
      <use xlink:href="#DejaVuSans-38" x="63.623047"/>
      <use xlink:href="#DejaVuSans-30" x="127.246094"/>
      <use xlink:href="#DejaVuSans-b0" x="190.869141"/>
     </g>
    </g>
   </g>
   <g id="ticks_4">
    <defs>
     <path id="ma8ad7a7e06" d="M 0 0 
L 3.27316 1.239524 
" style="stroke: #000000; stroke-width: 0.8"/>
    </defs>
    <g>
     <use xlink:href="#ma8ad7a7e06" x="172.396691" y="374.325" style="fill: none; stroke: #000000; stroke-width: 0.8"/>
     <use xlink:href="#ma8ad7a7e06" x="172.396691" y="374.325" style="fill: none; stroke: #000000; stroke-width: 0.8"/>
    </g>
    <defs>
     <path id="m47901fea67" d="M 0 0 
L 3.126988 -1.572242 
" style="stroke: #000000; stroke-width: 0.8"/>
    </defs>
    <g>
     <use xlink:href="#m47901fea67" x="388.139688" y="239.295874" style="fill: none; stroke: #000000; stroke-width: 0.8"/>
     <use xlink:href="#m47901fea67" x="388.139688" y="239.295874" style="fill: none; stroke: #000000; stroke-width: 0.8"/>
    </g>
    <defs>
     <path id="md80cf58ba4" d="M 0 0 
L 2.962787 1.863302 
" style="stroke: #000000; stroke-width: 0.8"/>
    </defs>
    <g>
     <use xlink:href="#md80cf58ba4" x="388.139688" y="112.828671" style="fill: none; stroke: #000000; stroke-width: 0.8"/>
     <use xlink:href="#md80cf58ba4" x="388.139688" y="112.828671" style="fill: none; stroke: #000000; stroke-width: 0.8"/>
    </g>
    <defs>
     <path id="m58acfa0b4d" d="M 0 0 
L 3.453489 -0.568696 
" style="stroke: #000000; stroke-width: 0.8"/>
    </defs>
    <g>
     <use xlink:href="#m58acfa0b4d" x="388.139688" y="320.693959" style="fill: none; stroke: #000000; stroke-width: 0.8"/>
     <use xlink:href="#m58acfa0b4d" x="388.139688" y="320.693959" style="fill: none; stroke: #000000; stroke-width: 0.8"/>
    </g>
    <defs>
     <path id="mcefa2e6d82" d="M 0 0 
L 3.151308 -1.522911 
" style="stroke: #000000; stroke-width: 0.8"/>
    </defs>
    <g>
     <use xlink:href="#mcefa2e6d82" x="270.272136" y="41.685" style="fill: none; stroke: #000000; stroke-width: 0.8"/>
     <use xlink:href="#mcefa2e6d82" x="270.272136" y="41.685" style="fill: none; stroke: #000000; stroke-width: 0.8"/>
    </g>
    <defs>
     <path id="m7119a377df" d="M 0 0 
L 2.242329 -2.687371 
" style="stroke: #000000; stroke-width: 0.8"/>
    </defs>
    <g>
     <use xlink:href="#m7119a377df" x="152.604548" y="41.685" style="fill: none; stroke: #000000; stroke-width: 0.8"/>
     <use xlink:href="#m7119a377df" x="152.604548" y="41.685" style="fill: none; stroke: #000000; stroke-width: 0.8"/>
    </g>
    <defs>
     <path id="mc557383775" d="M 0 0 
L 1.83876 -2.97808 
" style="stroke: #000000; stroke-width: 0.8"/>
    </defs>
    <g>
     <use xlink:href="#mc557383775" x="60.597769" y="41.685" style="fill: none; stroke: #000000; stroke-width: 0.8"/>
     <use xlink:href="#mc557383775" x="60.597769" y="41.685" style="fill: none; stroke: #000000; stroke-width: 0.8"/>
    </g>
    <defs>
     <path id="m15d709c45f" d="M 0 0 
L -1.756597 3.027271 
" style="stroke: #000000; stroke-width: 0.8"/>
    </defs>
    <g>
     <use xlink:href="#m15d709c45f" x="53.339688" y="53.854541" style="fill: none; stroke: #000000; stroke-width: 0.8"/>
     <use xlink:href="#m15d709c45f" x="53.339688" y="53.854541" style="fill: none; stroke: #000000; stroke-width: 0.8"/>
    </g>
    <g id="text_11">
     <!-- -60° -->
     <g transform="translate(395.139688 323.614272)scale(0.1 -0.1)">
      <use xlink:href="#DejaVuSans-2d"/>
      <use xlink:href="#DejaVuSans-36" x="36.083984"/>
      <use xlink:href="#DejaVuSans-30" x="99.707031"/>
      <use xlink:href="#DejaVuSans-b0" x="163.330078"/>
     </g>
    </g>
    <g id="text_12">
     <!-- -75° -->
     <g transform="translate(395.139688 242.216187)scale(0.1 -0.1)">
      <defs>
       <path id="DejaVuSans-37" d="M 525 4666 
L 3525 4666 
L 3525 4397 
L 1831 0 
L 1172 0 
L 2766 4134 
L 525 4134 
L 525 4666 
z
" transform="scale(0.015625)"/>
      </defs>
      <use xlink:href="#DejaVuSans-2d"/>
      <use xlink:href="#DejaVuSans-37" x="36.083984"/>
      <use xlink:href="#DejaVuSans-35" x="99.707031"/>
      <use xlink:href="#DejaVuSans-b0" x="163.330078"/>
     </g>
    </g>
    <g id="text_13">
     <!-- -75° -->
     <g transform="translate(395.139688 115.748983)scale(0.1 -0.1)">
      <use xlink:href="#DejaVuSans-2d"/>
      <use xlink:href="#DejaVuSans-37" x="36.083984"/>
      <use xlink:href="#DejaVuSans-35" x="99.707031"/>
      <use xlink:href="#DejaVuSans-b0" x="163.330078"/>
     </g>
    </g>
   </g>
   <g id="axis labels_1">
    <g id="text_14">
     <!-- pos.galactic.lon -->
     <g transform="translate(173.7325 406.63625)scale(0.12 -0.12)">
      <defs>
       <path id="DejaVuSans-70" d="M 1159 525 
L 1159 -1331 
L 581 -1331 
L 581 3500 
L 1159 3500 
L 1159 2969 
Q 1341 3281 1617 3432 
Q 1894 3584 2278 3584 
Q 2916 3584 3314 3078 
Q 3713 2572 3713 1747 
Q 3713 922 3314 415 
Q 2916 -91 2278 -91 
Q 1894 -91 1617 61 
Q 1341 213 1159 525 
z
M 3116 1747 
Q 3116 2381 2855 2742 
Q 2594 3103 2138 3103 
Q 1681 3103 1420 2742 
Q 1159 2381 1159 1747 
Q 1159 1113 1420 752 
Q 1681 391 2138 391 
Q 2594 391 2855 752 
Q 3116 1113 3116 1747 
z
" transform="scale(0.015625)"/>
       <path id="DejaVuSans-6f" d="M 1959 3097 
Q 1497 3097 1228 2736 
Q 959 2375 959 1747 
Q 959 1119 1226 758 
Q 1494 397 1959 397 
Q 2419 397 2687 759 
Q 2956 1122 2956 1747 
Q 2956 2369 2687 2733 
Q 2419 3097 1959 3097 
z
M 1959 3584 
Q 2709 3584 3137 3096 
Q 3566 2609 3566 1747 
Q 3566 888 3137 398 
Q 2709 -91 1959 -91 
Q 1206 -91 779 398 
Q 353 888 353 1747 
Q 353 2609 779 3096 
Q 1206 3584 1959 3584 
z
" transform="scale(0.015625)"/>
       <path id="DejaVuSans-73" d="M 2834 3397 
L 2834 2853 
Q 2591 2978 2328 3040 
Q 2066 3103 1784 3103 
Q 1356 3103 1142 2972 
Q 928 2841 928 2578 
Q 928 2378 1081 2264 
Q 1234 2150 1697 2047 
L 1894 2003 
Q 2506 1872 2764 1633 
Q 3022 1394 3022 966 
Q 3022 478 2636 193 
Q 2250 -91 1575 -91 
Q 1294 -91 989 -36 
Q 684 19 347 128 
L 347 722 
Q 666 556 975 473 
Q 1284 391 1588 391 
Q 1994 391 2212 530 
Q 2431 669 2431 922 
Q 2431 1156 2273 1281 
Q 2116 1406 1581 1522 
L 1381 1569 
Q 847 1681 609 1914 
Q 372 2147 372 2553 
Q 372 3047 722 3315 
Q 1072 3584 1716 3584 
Q 2034 3584 2315 3537 
Q 2597 3491 2834 3397 
z
" transform="scale(0.015625)"/>
       <path id="DejaVuSans-2e" d="M 684 794 
L 1344 794 
L 1344 0 
L 684 0 
L 684 794 
z
" transform="scale(0.015625)"/>
       <path id="DejaVuSans-67" d="M 2906 1791 
Q 2906 2416 2648 2759 
Q 2391 3103 1925 3103 
Q 1463 3103 1205 2759 
Q 947 2416 947 1791 
Q 947 1169 1205 825 
Q 1463 481 1925 481 
Q 2391 481 2648 825 
Q 2906 1169 2906 1791 
z
M 3481 434 
Q 3481 -459 3084 -895 
Q 2688 -1331 1869 -1331 
Q 1566 -1331 1297 -1286 
Q 1028 -1241 775 -1147 
L 775 -588 
Q 1028 -725 1275 -790 
Q 1522 -856 1778 -856 
Q 2344 -856 2625 -561 
Q 2906 -266 2906 331 
L 2906 616 
Q 2728 306 2450 153 
Q 2172 0 1784 0 
Q 1141 0 747 490 
Q 353 981 353 1791 
Q 353 2603 747 3093 
Q 1141 3584 1784 3584 
Q 2172 3584 2450 3431 
Q 2728 3278 2906 2969 
L 2906 3500 
L 3481 3500 
L 3481 434 
z
" transform="scale(0.015625)"/>
       <path id="DejaVuSans-61" d="M 2194 1759 
Q 1497 1759 1228 1600 
Q 959 1441 959 1056 
Q 959 750 1161 570 
Q 1363 391 1709 391 
Q 2188 391 2477 730 
Q 2766 1069 2766 1631 
L 2766 1759 
L 2194 1759 
z
M 3341 1997 
L 3341 0 
L 2766 0 
L 2766 531 
Q 2569 213 2275 61 
Q 1981 -91 1556 -91 
Q 1019 -91 701 211 
Q 384 513 384 1019 
Q 384 1609 779 1909 
Q 1175 2209 1959 2209 
L 2766 2209 
L 2766 2266 
Q 2766 2663 2505 2880 
Q 2244 3097 1772 3097 
Q 1472 3097 1187 3025 
Q 903 2953 641 2809 
L 641 3341 
Q 956 3463 1253 3523 
Q 1550 3584 1831 3584 
Q 2591 3584 2966 3190 
Q 3341 2797 3341 1997 
z
" transform="scale(0.015625)"/>
       <path id="DejaVuSans-6c" d="M 603 4863 
L 1178 4863 
L 1178 0 
L 603 0 
L 603 4863 
z
" transform="scale(0.015625)"/>
       <path id="DejaVuSans-63" d="M 3122 3366 
L 3122 2828 
Q 2878 2963 2633 3030 
Q 2388 3097 2138 3097 
Q 1578 3097 1268 2742 
Q 959 2388 959 1747 
Q 959 1106 1268 751 
Q 1578 397 2138 397 
Q 2388 397 2633 464 
Q 2878 531 3122 666 
L 3122 134 
Q 2881 22 2623 -34 
Q 2366 -91 2075 -91 
Q 1284 -91 818 406 
Q 353 903 353 1747 
Q 353 2603 823 3093 
Q 1294 3584 2113 3584 
Q 2378 3584 2631 3529 
Q 2884 3475 3122 3366 
z
" transform="scale(0.015625)"/>
       <path id="DejaVuSans-74" d="M 1172 4494 
L 1172 3500 
L 2356 3500 
L 2356 3053 
L 1172 3053 
L 1172 1153 
Q 1172 725 1289 603 
Q 1406 481 1766 481 
L 2356 481 
L 2356 0 
L 1766 0 
Q 1100 0 847 248 
Q 594 497 594 1153 
L 594 3053 
L 172 3053 
L 172 3500 
L 594 3500 
L 594 4494 
L 1172 4494 
z
" transform="scale(0.015625)"/>
       <path id="DejaVuSans-69" d="M 603 3500 
L 1178 3500 
L 1178 0 
L 603 0 
L 603 3500 
z
M 603 4863 
L 1178 4863 
L 1178 4134 
L 603 4134 
L 603 4863 
z
" transform="scale(0.015625)"/>
       <path id="DejaVuSans-6e" d="M 3513 2113 
L 3513 0 
L 2938 0 
L 2938 2094 
Q 2938 2591 2744 2837 
Q 2550 3084 2163 3084 
Q 1697 3084 1428 2787 
Q 1159 2491 1159 1978 
L 1159 0 
L 581 0 
L 581 3500 
L 1159 3500 
L 1159 2956 
Q 1366 3272 1645 3428 
Q 1925 3584 2291 3584 
Q 2894 3584 3203 3211 
Q 3513 2838 3513 2113 
z
" transform="scale(0.015625)"/>
      </defs>
      <use xlink:href="#DejaVuSans-70"/>
      <use xlink:href="#DejaVuSans-6f" x="63.476562"/>
      <use xlink:href="#DejaVuSans-73" x="124.658203"/>
      <use xlink:href="#DejaVuSans-2e" x="176.757812"/>
      <use xlink:href="#DejaVuSans-67" x="208.544922"/>
      <use xlink:href="#DejaVuSans-61" x="272.021484"/>
      <use xlink:href="#DejaVuSans-6c" x="333.300781"/>
      <use xlink:href="#DejaVuSans-61" x="361.083984"/>
      <use xlink:href="#DejaVuSans-63" x="422.363281"/>
      <use xlink:href="#DejaVuSans-74" x="477.34375"/>
      <use xlink:href="#DejaVuSans-69" x="516.552734"/>
      <use xlink:href="#DejaVuSans-63" x="544.335938"/>
      <use xlink:href="#DejaVuSans-2e" x="599.316406"/>
      <use xlink:href="#DejaVuSans-6c" x="631.103516"/>
      <use xlink:href="#DejaVuSans-6f" x="658.886719"/>
      <use xlink:href="#DejaVuSans-6e" x="720.068359"/>
     </g>
    </g>
   </g>
   <g id="axis labels_2">
    <g id="text_15">
     <!-- pos.galactic.lat -->
     <g transform="translate(16.318125 253.5675)rotate(-90)scale(0.12 -0.12)">
      <use xlink:href="#DejaVuSans-70"/>
      <use xlink:href="#DejaVuSans-6f" x="63.476562"/>
      <use xlink:href="#DejaVuSans-73" x="124.658203"/>
      <use xlink:href="#DejaVuSans-2e" x="176.757812"/>
      <use xlink:href="#DejaVuSans-67" x="208.544922"/>
      <use xlink:href="#DejaVuSans-61" x="272.021484"/>
      <use xlink:href="#DejaVuSans-6c" x="333.300781"/>
      <use xlink:href="#DejaVuSans-61" x="361.083984"/>
      <use xlink:href="#DejaVuSans-63" x="422.363281"/>
      <use xlink:href="#DejaVuSans-74" x="477.34375"/>
      <use xlink:href="#DejaVuSans-69" x="516.552734"/>
      <use xlink:href="#DejaVuSans-63" x="544.335938"/>
      <use xlink:href="#DejaVuSans-2e" x="599.316406"/>
      <use xlink:href="#DejaVuSans-6c" x="631.103516"/>
      <use xlink:href="#DejaVuSans-61" x="658.886719"/>
      <use xlink:href="#DejaVuSans-74" x="720.166016"/>
     </g>
    </g>
   </g>
   <g id="axis labels_3">
    <g id="text_16">
     <!-- ra -->
     <g transform="translate(214.59625 16.318125)scale(0.12 -0.12)">
      <defs>
       <path id="DejaVuSans-72" d="M 2631 2963 
Q 2534 3019 2420 3045 
Q 2306 3072 2169 3072 
Q 1681 3072 1420 2755 
Q 1159 2438 1159 1844 
L 1159 0 
L 581 0 
L 581 3500 
L 1159 3500 
L 1159 2956 
Q 1341 3275 1631 3429 
Q 1922 3584 2338 3584 
Q 2397 3584 2469 3576 
Q 2541 3569 2628 3553 
L 2631 2963 
z
" transform="scale(0.015625)"/>
      </defs>
      <use xlink:href="#DejaVuSans-72"/>
      <use xlink:href="#DejaVuSans-61" x="41.113281"/>
     </g>
    </g>
   </g>
   <g id="axis labels_4">
    <g id="text_17">
     <!-- dec -->
     <g transform="translate(425.16125 197.205)rotate(-270)scale(0.12 -0.12)">
      <defs>
       <path id="DejaVuSans-64" d="M 2906 2969 
L 2906 4863 
L 3481 4863 
L 3481 0 
L 2906 0 
L 2906 525 
Q 2725 213 2448 61 
Q 2172 -91 1784 -91 
Q 1150 -91 751 415 
Q 353 922 353 1747 
Q 353 2572 751 3078 
Q 1150 3584 1784 3584 
Q 2172 3584 2448 3432 
Q 2725 3281 2906 2969 
z
M 947 1747 
Q 947 1113 1208 752 
Q 1469 391 1925 391 
Q 2381 391 2643 752 
Q 2906 1113 2906 1747 
Q 2906 2381 2643 2742 
Q 2381 3103 1925 3103 
Q 1469 3103 1208 2742 
Q 947 2381 947 1747 
z
" transform="scale(0.015625)"/>
       <path id="DejaVuSans-65" d="M 3597 1894 
L 3597 1613 
L 953 1613 
Q 991 1019 1311 708 
Q 1631 397 2203 397 
Q 2534 397 2845 478 
Q 3156 559 3463 722 
L 3463 178 
Q 3153 47 2828 -22 
Q 2503 -91 2169 -91 
Q 1331 -91 842 396 
Q 353 884 353 1716 
Q 353 2575 817 3079 
Q 1281 3584 2069 3584 
Q 2775 3584 3186 3129 
Q 3597 2675 3597 1894 
z
M 3022 2063 
Q 3016 2534 2758 2815 
Q 2500 3097 2075 3097 
Q 1594 3097 1305 2825 
Q 1016 2553 972 2059 
L 3022 2063 
z
" transform="scale(0.015625)"/>
      </defs>
      <use xlink:href="#DejaVuSans-64"/>
      <use xlink:href="#DejaVuSans-65" x="63.476562"/>
      <use xlink:href="#DejaVuSans-63" x="125"/>
     </g>
    </g>
   </g>
   <g id="line2d_1">
    <path d="M 53.339688 374.325 
L 388.139688 374.325 
" style="fill: none; stroke: #000000; stroke-width: 0.8; stroke-linecap: square"/>
   </g>
   <g id="line2d_2">
    <path d="M 388.139688 374.325 
L 388.139688 41.685 
" style="fill: none; stroke: #000000; stroke-width: 0.8; stroke-linecap: square"/>
   </g>
   <g id="line2d_3">
    <path d="M 388.139688 41.685 
L 53.339688 41.685 
" style="fill: none; stroke: #000000; stroke-width: 0.8; stroke-linecap: square"/>
   </g>
   <g id="line2d_4">
    <path d="M 53.339688 41.685 
L 53.339688 374.325 
" style="fill: none; stroke: #000000; stroke-width: 0.8; stroke-linecap: square"/>
   </g>
   <g id="legend_1">
    <g id="patch_14">
     <path d="M 290.5975 79.04125 
L 381.139688 79.04125 
Q 383.139688 79.04125 383.139688 77.04125 
L 383.139688 48.685 
Q 383.139688 46.685 381.139688 46.685 
L 290.5975 46.685 
Q 288.5975 46.685 288.5975 48.685 
L 288.5975 77.04125 
Q 288.5975 79.04125 290.5975 79.04125 
z
" style="fill: #ffffff; opacity: 0.8; stroke: #cccccc; stroke-linejoin: miter"/>
    </g>
    <g id="patch_15">
     <path d="M 292.5975 58.283437 
L 312.5975 58.283437 
L 312.5975 51.283437 
L 292.5975 51.283437 
L 292.5975 58.283437 
z
" style="fill: none; stroke: #0000ff; stroke-linejoin: miter"/>
    </g>
    <g id="text_18">
     <!-- Quadrangle -->
     <g transform="translate(320.5975 58.283437)scale(0.1 -0.1)">
      <defs>
       <path id="DejaVuSans-51" d="M 2522 4238 
Q 1834 4238 1429 3725 
Q 1025 3213 1025 2328 
Q 1025 1447 1429 934 
Q 1834 422 2522 422 
Q 3209 422 3611 934 
Q 4013 1447 4013 2328 
Q 4013 3213 3611 3725 
Q 3209 4238 2522 4238 
z
M 3406 84 
L 4238 -825 
L 3475 -825 
L 2784 -78 
Q 2681 -84 2626 -87 
Q 2572 -91 2522 -91 
Q 1538 -91 948 567 
Q 359 1225 359 2328 
Q 359 3434 948 4092 
Q 1538 4750 2522 4750 
Q 3503 4750 4090 4092 
Q 4678 3434 4678 2328 
Q 4678 1516 4351 937 
Q 4025 359 3406 84 
z
" transform="scale(0.015625)"/>
       <path id="DejaVuSans-75" d="M 544 1381 
L 544 3500 
L 1119 3500 
L 1119 1403 
Q 1119 906 1312 657 
Q 1506 409 1894 409 
Q 2359 409 2629 706 
Q 2900 1003 2900 1516 
L 2900 3500 
L 3475 3500 
L 3475 0 
L 2900 0 
L 2900 538 
Q 2691 219 2414 64 
Q 2138 -91 1772 -91 
Q 1169 -91 856 284 
Q 544 659 544 1381 
z
M 1991 3584 
L 1991 3584 
z
" transform="scale(0.015625)"/>
      </defs>
      <use xlink:href="#DejaVuSans-51"/>
      <use xlink:href="#DejaVuSans-75" x="78.710938"/>
      <use xlink:href="#DejaVuSans-61" x="142.089844"/>
      <use xlink:href="#DejaVuSans-64" x="203.369141"/>
      <use xlink:href="#DejaVuSans-72" x="266.845703"/>
      <use xlink:href="#DejaVuSans-61" x="307.958984"/>
      <use xlink:href="#DejaVuSans-6e" x="369.238281"/>
      <use xlink:href="#DejaVuSans-67" x="432.617188"/>
      <use xlink:href="#DejaVuSans-6c" x="496.09375"/>
      <use xlink:href="#DejaVuSans-65" x="523.876953"/>
     </g>
    </g>
    <g id="patch_16">
     <path d="M 292.5975 72.961562 
L 312.5975 72.961562 
L 312.5975 65.961562 
L 292.5975 65.961562 
L 292.5975 72.961562 
z
" style="fill: none; stroke-dasharray: 3.7,1.6; stroke-dashoffset: 0; stroke: #ff0000; stroke-linejoin: miter"/>
    </g>
    <g id="text_19">
     <!-- Rectangle -->
     <g transform="translate(320.5975 72.961562)scale(0.1 -0.1)">
      <defs>
       <path id="DejaVuSans-52" d="M 2841 2188 
Q 3044 2119 3236 1894 
Q 3428 1669 3622 1275 
L 4263 0 
L 3584 0 
L 2988 1197 
Q 2756 1666 2539 1819 
Q 2322 1972 1947 1972 
L 1259 1972 
L 1259 0 
L 628 0 
L 628 4666 
L 2053 4666 
Q 2853 4666 3247 4331 
Q 3641 3997 3641 3322 
Q 3641 2881 3436 2590 
Q 3231 2300 2841 2188 
z
M 1259 4147 
L 1259 2491 
L 2053 2491 
Q 2509 2491 2742 2702 
Q 2975 2913 2975 3322 
Q 2975 3731 2742 3939 
Q 2509 4147 2053 4147 
L 1259 4147 
z
" transform="scale(0.015625)"/>
      </defs>
      <use xlink:href="#DejaVuSans-52"/>
      <use xlink:href="#DejaVuSans-65" x="64.982422"/>
      <use xlink:href="#DejaVuSans-63" x="126.505859"/>
      <use xlink:href="#DejaVuSans-74" x="181.486328"/>
      <use xlink:href="#DejaVuSans-61" x="220.695312"/>
      <use xlink:href="#DejaVuSans-6e" x="281.974609"/>
      <use xlink:href="#DejaVuSans-67" x="345.353516"/>
      <use xlink:href="#DejaVuSans-6c" x="408.830078"/>
      <use xlink:href="#DejaVuSans-65" x="436.613281"/>
     </g>
    </g>
   </g>
  </g>
 </g>
 <defs>
  <clipPath id="p287d2b8d35">
   <path d="M 53.339688 374.325 
L 388.139688 374.325 
L 388.139688 374.325 
L 388.139688 41.685 
L 388.139688 41.685 
L 53.339688 41.685 
L 53.339688 41.685 
L 53.339688 374.325 
"/>
  </clipPath>
  <clipPath id="p1f7702b4d3">
   <path d="M 53.339688 374.325 
L 388.139688 374.325 
L 388.139688 374.325 
L 388.139688 41.685 
L 388.139688 41.685 
L 53.339688 41.685 
L 53.339688 41.685 
L 53.339688 374.325 
"/>
  </clipPath>
 </defs>
</svg>
