<?xml version="1.0" encoding="utf-8" standalone="no"?>
<!DOCTYPE svg PUBLIC "-//W3C//DTD SVG 1.1//EN"
  "http://www.w3.org/Graphics/SVG/1.1/DTD/svg11.dtd">
<svg xmlns:xlink="http://www.w3.org/1999/xlink" width="387.716875pt" height="394.45pt" viewBox="0 0 387.716875 394.45" xmlns="http://www.w3.org/2000/svg" version="1.1">
 <metadata>
  <rdf:RDF xmlns:dc="http://purl.org/dc/elements/1.1/" xmlns:cc="http://creativecommons.org/ns#" xmlns:rdf="http://www.w3.org/1999/02/22-rdf-syntax-ns#">
   <cc:Work>
    <dc:type rdf:resource="http://purl.org/dc/dcmitype/StillImage"/>
    <dc:date>2022-05-03T11:24:09.728022</dc:date>
    <dc:format>image/svg+xml</dc:format>
    <dc:creator>
     <cc:Agent>
      <dc:title>Matplotlib v3.5.2, https://matplotlib.org/</dc:title>
     </cc:Agent>
    </dc:creator>
   </cc:Work>
  </rdf:RDF>
 </metadata>
 <defs>
  <style type="text/css">*{stroke-linejoin: round; stroke-linecap: butt}</style>
 </defs>
 <g id="figure_1">
  <g id="patch_1">
   <path d="M 0 394.45 
L 387.716875 394.45 
L 387.716875 0 
L 0 0 
L 0 394.45 
z
" style="fill: none"/>
  </g>
  <g id="axes_1">
   <g id="patch_2">
    <path d="M 45.716875 354.958125 
L 380.516875 354.958125 
L 380.516875 22.318125 
L 45.716875 22.318125 
z
" style="fill: #ffffff"/>
   </g>
   <g id="matplotlib.axis_1">
    <g id="xtick_1">
     <g id="line2d_1">
      <defs>
       <path id="mbed679ae0b" d="M 0 0 
L 0 3.5 
" style="stroke: #000000; stroke-width: 0.8"/>
      </defs>
      <g>
       <use xlink:href="#mbed679ae0b" x="60.935057" y="354.958125" style="stroke: #000000; stroke-width: 0.8"/>
      </g>
     </g>
     <g id="text_1">
      <!-- 20 -->
      <g transform="translate(54.572557 369.556562)scale(0.1 -0.1)">
       <defs>
        <path id="DejaVuSans-32" d="M 1228 531 
L 3431 531 
L 3431 0 
L 469 0 
L 469 531 
Q 828 903 1448 1529 
Q 2069 2156 2228 2338 
Q 2531 2678 2651 2914 
Q 2772 3150 2772 3378 
Q 2772 3750 2511 3984 
Q 2250 4219 1831 4219 
Q 1534 4219 1204 4116 
Q 875 4013 500 3803 
L 500 4441 
Q 881 4594 1212 4672 
Q 1544 4750 1819 4750 
Q 2544 4750 2975 4387 
Q 3406 4025 3406 3419 
Q 3406 3131 3298 2873 
Q 3191 2616 2906 2266 
Q 2828 2175 2409 1742 
Q 1991 1309 1228 531 
z
" transform="scale(0.015625)"/>
        <path id="DejaVuSans-30" d="M 2034 4250 
Q 1547 4250 1301 3770 
Q 1056 3291 1056 2328 
Q 1056 1369 1301 889 
Q 1547 409 2034 409 
Q 2525 409 2770 889 
Q 3016 1369 3016 2328 
Q 3016 3291 2770 3770 
Q 2525 4250 2034 4250 
z
M 2034 4750 
Q 2819 4750 3233 4129 
Q 3647 3509 3647 2328 
Q 3647 1150 3233 529 
Q 2819 -91 2034 -91 
Q 1250 -91 836 529 
Q 422 1150 422 2328 
Q 422 3509 836 4129 
Q 1250 4750 2034 4750 
z
" transform="scale(0.015625)"/>
       </defs>
       <use xlink:href="#DejaVuSans-32"/>
       <use xlink:href="#DejaVuSans-30" x="63.623047"/>
      </g>
     </g>
    </g>
    <g id="xtick_2">
     <g id="line2d_2">
      <g>
       <use xlink:href="#mbed679ae0b" x="121.807784" y="354.958125" style="stroke: #000000; stroke-width: 0.8"/>
      </g>
     </g>
     <g id="text_2">
      <!-- 22 -->
      <g transform="translate(115.445284 369.556562)scale(0.1 -0.1)">
       <use xlink:href="#DejaVuSans-32"/>
       <use xlink:href="#DejaVuSans-32" x="63.623047"/>
      </g>
     </g>
    </g>
    <g id="xtick_3">
     <g id="line2d_3">
      <g>
       <use xlink:href="#mbed679ae0b" x="182.680511" y="354.958125" style="stroke: #000000; stroke-width: 0.8"/>
      </g>
     </g>
     <g id="text_3">
      <!-- 24 -->
      <g transform="translate(176.318011 369.556562)scale(0.1 -0.1)">
       <defs>
        <path id="DejaVuSans-34" d="M 2419 4116 
L 825 1625 
L 2419 1625 
L 2419 4116 
z
M 2253 4666 
L 3047 4666 
L 3047 1625 
L 3713 1625 
L 3713 1100 
L 3047 1100 
L 3047 0 
L 2419 0 
L 2419 1100 
L 313 1100 
L 313 1709 
L 2253 4666 
z
" transform="scale(0.015625)"/>
       </defs>
       <use xlink:href="#DejaVuSans-32"/>
       <use xlink:href="#DejaVuSans-34" x="63.623047"/>
      </g>
     </g>
    </g>
    <g id="xtick_4">
     <g id="line2d_4">
      <g>
       <use xlink:href="#mbed679ae0b" x="243.553239" y="354.958125" style="stroke: #000000; stroke-width: 0.8"/>
      </g>
     </g>
     <g id="text_4">
      <!-- 26 -->
      <g transform="translate(237.190739 369.556562)scale(0.1 -0.1)">
       <defs>
        <path id="DejaVuSans-36" d="M 2113 2584 
Q 1688 2584 1439 2293 
Q 1191 2003 1191 1497 
Q 1191 994 1439 701 
Q 1688 409 2113 409 
Q 2538 409 2786 701 
Q 3034 994 3034 1497 
Q 3034 2003 2786 2293 
Q 2538 2584 2113 2584 
z
M 3366 4563 
L 3366 3988 
Q 3128 4100 2886 4159 
Q 2644 4219 2406 4219 
Q 1781 4219 1451 3797 
Q 1122 3375 1075 2522 
Q 1259 2794 1537 2939 
Q 1816 3084 2150 3084 
Q 2853 3084 3261 2657 
Q 3669 2231 3669 1497 
Q 3669 778 3244 343 
Q 2819 -91 2113 -91 
Q 1303 -91 875 529 
Q 447 1150 447 2328 
Q 447 3434 972 4092 
Q 1497 4750 2381 4750 
Q 2619 4750 2861 4703 
Q 3103 4656 3366 4563 
z
" transform="scale(0.015625)"/>
       </defs>
       <use xlink:href="#DejaVuSans-32"/>
       <use xlink:href="#DejaVuSans-36" x="63.623047"/>
      </g>
     </g>
    </g>
    <g id="xtick_5">
     <g id="line2d_5">
      <g>
       <use xlink:href="#mbed679ae0b" x="304.425966" y="354.958125" style="stroke: #000000; stroke-width: 0.8"/>
      </g>
     </g>
     <g id="text_5">
      <!-- 28 -->
      <g transform="translate(298.063466 369.556562)scale(0.1 -0.1)">
       <defs>
        <path id="DejaVuSans-38" d="M 2034 2216 
Q 1584 2216 1326 1975 
Q 1069 1734 1069 1313 
Q 1069 891 1326 650 
Q 1584 409 2034 409 
Q 2484 409 2743 651 
Q 3003 894 3003 1313 
Q 3003 1734 2745 1975 
Q 2488 2216 2034 2216 
z
M 1403 2484 
Q 997 2584 770 2862 
Q 544 3141 544 3541 
Q 544 4100 942 4425 
Q 1341 4750 2034 4750 
Q 2731 4750 3128 4425 
Q 3525 4100 3525 3541 
Q 3525 3141 3298 2862 
Q 3072 2584 2669 2484 
Q 3125 2378 3379 2068 
Q 3634 1759 3634 1313 
Q 3634 634 3220 271 
Q 2806 -91 2034 -91 
Q 1263 -91 848 271 
Q 434 634 434 1313 
Q 434 1759 690 2068 
Q 947 2378 1403 2484 
z
M 1172 3481 
Q 1172 3119 1398 2916 
Q 1625 2713 2034 2713 
Q 2441 2713 2670 2916 
Q 2900 3119 2900 3481 
Q 2900 3844 2670 4047 
Q 2441 4250 2034 4250 
Q 1625 4250 1398 4047 
Q 1172 3844 1172 3481 
z
" transform="scale(0.015625)"/>
       </defs>
       <use xlink:href="#DejaVuSans-32"/>
       <use xlink:href="#DejaVuSans-38" x="63.623047"/>
      </g>
     </g>
    </g>
    <g id="xtick_6">
     <g id="line2d_6">
      <g>
       <use xlink:href="#mbed679ae0b" x="365.298693" y="354.958125" style="stroke: #000000; stroke-width: 0.8"/>
      </g>
     </g>
     <g id="text_6">
      <!-- 30 -->
      <g transform="translate(358.936193 369.556562)scale(0.1 -0.1)">
       <defs>
        <path id="DejaVuSans-33" d="M 2597 2516 
Q 3050 2419 3304 2112 
Q 3559 1806 3559 1356 
Q 3559 666 3084 287 
Q 2609 -91 1734 -91 
Q 1441 -91 1130 -33 
Q 819 25 488 141 
L 488 750 
Q 750 597 1062 519 
Q 1375 441 1716 441 
Q 2309 441 2620 675 
Q 2931 909 2931 1356 
Q 2931 1769 2642 2001 
Q 2353 2234 1838 2234 
L 1294 2234 
L 1294 2753 
L 1863 2753 
Q 2328 2753 2575 2939 
Q 2822 3125 2822 3475 
Q 2822 3834 2567 4026 
Q 2313 4219 1838 4219 
Q 1578 4219 1281 4162 
Q 984 4106 628 3988 
L 628 4550 
Q 988 4650 1302 4700 
Q 1616 4750 1894 4750 
Q 2613 4750 3031 4423 
Q 3450 4097 3450 3541 
Q 3450 3153 3228 2886 
Q 3006 2619 2597 2516 
z
" transform="scale(0.015625)"/>
       </defs>
       <use xlink:href="#DejaVuSans-33"/>
       <use xlink:href="#DejaVuSans-30" x="63.623047"/>
      </g>
     </g>
    </g>
    <g id="text_7">
     <!-- Magnitude -->
     <g transform="translate(181.329063 384.754375)scale(0.12 -0.12)">
      <defs>
       <path id="DejaVuSans-4d" d="M 628 4666 
L 1569 4666 
L 2759 1491 
L 3956 4666 
L 4897 4666 
L 4897 0 
L 4281 0 
L 4281 4097 
L 3078 897 
L 2444 897 
L 1241 4097 
L 1241 0 
L 628 0 
L 628 4666 
z
" transform="scale(0.015625)"/>
       <path id="DejaVuSans-61" d="M 2194 1759 
Q 1497 1759 1228 1600 
Q 959 1441 959 1056 
Q 959 750 1161 570 
Q 1363 391 1709 391 
Q 2188 391 2477 730 
Q 2766 1069 2766 1631 
L 2766 1759 
L 2194 1759 
z
M 3341 1997 
L 3341 0 
L 2766 0 
L 2766 531 
Q 2569 213 2275 61 
Q 1981 -91 1556 -91 
Q 1019 -91 701 211 
Q 384 513 384 1019 
Q 384 1609 779 1909 
Q 1175 2209 1959 2209 
L 2766 2209 
L 2766 2266 
Q 2766 2663 2505 2880 
Q 2244 3097 1772 3097 
Q 1472 3097 1187 3025 
Q 903 2953 641 2809 
L 641 3341 
Q 956 3463 1253 3523 
Q 1550 3584 1831 3584 
Q 2591 3584 2966 3190 
Q 3341 2797 3341 1997 
z
" transform="scale(0.015625)"/>
       <path id="DejaVuSans-67" d="M 2906 1791 
Q 2906 2416 2648 2759 
Q 2391 3103 1925 3103 
Q 1463 3103 1205 2759 
Q 947 2416 947 1791 
Q 947 1169 1205 825 
Q 1463 481 1925 481 
Q 2391 481 2648 825 
Q 2906 1169 2906 1791 
z
M 3481 434 
Q 3481 -459 3084 -895 
Q 2688 -1331 1869 -1331 
Q 1566 -1331 1297 -1286 
Q 1028 -1241 775 -1147 
L 775 -588 
Q 1028 -725 1275 -790 
Q 1522 -856 1778 -856 
Q 2344 -856 2625 -561 
Q 2906 -266 2906 331 
L 2906 616 
Q 2728 306 2450 153 
Q 2172 0 1784 0 
Q 1141 0 747 490 
Q 353 981 353 1791 
Q 353 2603 747 3093 
Q 1141 3584 1784 3584 
Q 2172 3584 2450 3431 
Q 2728 3278 2906 2969 
L 2906 3500 
L 3481 3500 
L 3481 434 
z
" transform="scale(0.015625)"/>
       <path id="DejaVuSans-6e" d="M 3513 2113 
L 3513 0 
L 2938 0 
L 2938 2094 
Q 2938 2591 2744 2837 
Q 2550 3084 2163 3084 
Q 1697 3084 1428 2787 
Q 1159 2491 1159 1978 
L 1159 0 
L 581 0 
L 581 3500 
L 1159 3500 
L 1159 2956 
Q 1366 3272 1645 3428 
Q 1925 3584 2291 3584 
Q 2894 3584 3203 3211 
Q 3513 2838 3513 2113 
z
" transform="scale(0.015625)"/>
       <path id="DejaVuSans-69" d="M 603 3500 
L 1178 3500 
L 1178 0 
L 603 0 
L 603 3500 
z
M 603 4863 
L 1178 4863 
L 1178 4134 
L 603 4134 
L 603 4863 
z
" transform="scale(0.015625)"/>
       <path id="DejaVuSans-74" d="M 1172 4494 
L 1172 3500 
L 2356 3500 
L 2356 3053 
L 1172 3053 
L 1172 1153 
Q 1172 725 1289 603 
Q 1406 481 1766 481 
L 2356 481 
L 2356 0 
L 1766 0 
Q 1100 0 847 248 
Q 594 497 594 1153 
L 594 3053 
L 172 3053 
L 172 3500 
L 594 3500 
L 594 4494 
L 1172 4494 
z
" transform="scale(0.015625)"/>
       <path id="DejaVuSans-75" d="M 544 1381 
L 544 3500 
L 1119 3500 
L 1119 1403 
Q 1119 906 1312 657 
Q 1506 409 1894 409 
Q 2359 409 2629 706 
Q 2900 1003 2900 1516 
L 2900 3500 
L 3475 3500 
L 3475 0 
L 2900 0 
L 2900 538 
Q 2691 219 2414 64 
Q 2138 -91 1772 -91 
Q 1169 -91 856 284 
Q 544 659 544 1381 
z
M 1991 3584 
L 1991 3584 
z
" transform="scale(0.015625)"/>
       <path id="DejaVuSans-64" d="M 2906 2969 
L 2906 4863 
L 3481 4863 
L 3481 0 
L 2906 0 
L 2906 525 
Q 2725 213 2448 61 
Q 2172 -91 1784 -91 
Q 1150 -91 751 415 
Q 353 922 353 1747 
Q 353 2572 751 3078 
Q 1150 3584 1784 3584 
Q 2172 3584 2448 3432 
Q 2725 3281 2906 2969 
z
M 947 1747 
Q 947 1113 1208 752 
Q 1469 391 1925 391 
Q 2381 391 2643 752 
Q 2906 1113 2906 1747 
Q 2906 2381 2643 2742 
Q 2381 3103 1925 3103 
Q 1469 3103 1208 2742 
Q 947 2381 947 1747 
z
" transform="scale(0.015625)"/>
       <path id="DejaVuSans-65" d="M 3597 1894 
L 3597 1613 
L 953 1613 
Q 991 1019 1311 708 
Q 1631 397 2203 397 
Q 2534 397 2845 478 
Q 3156 559 3463 722 
L 3463 178 
Q 3153 47 2828 -22 
Q 2503 -91 2169 -91 
Q 1331 -91 842 396 
Q 353 884 353 1716 
Q 353 2575 817 3079 
Q 1281 3584 2069 3584 
Q 2775 3584 3186 3129 
Q 3597 2675 3597 1894 
z
M 3022 2063 
Q 3016 2534 2758 2815 
Q 2500 3097 2075 3097 
Q 1594 3097 1305 2825 
Q 1016 2553 972 2059 
L 3022 2063 
z
" transform="scale(0.015625)"/>
      </defs>
      <use xlink:href="#DejaVuSans-4d"/>
      <use xlink:href="#DejaVuSans-61" x="86.279297"/>
      <use xlink:href="#DejaVuSans-67" x="147.558594"/>
      <use xlink:href="#DejaVuSans-6e" x="211.035156"/>
      <use xlink:href="#DejaVuSans-69" x="274.414062"/>
      <use xlink:href="#DejaVuSans-74" x="302.197266"/>
      <use xlink:href="#DejaVuSans-75" x="341.40625"/>
      <use xlink:href="#DejaVuSans-64" x="404.785156"/>
      <use xlink:href="#DejaVuSans-65" x="468.261719"/>
     </g>
    </g>
   </g>
   <g id="matplotlib.axis_2">
    <g id="ytick_1">
     <g id="line2d_7">
      <defs>
       <path id="maba99aa87d" d="M 0 0 
L -3.5 0 
" style="stroke: #000000; stroke-width: 0.8"/>
      </defs>
      <g>
       <use xlink:href="#maba99aa87d" x="45.716875" y="354.958125" style="stroke: #000000; stroke-width: 0.8"/>
      </g>
     </g>
     <g id="text_8">
      <!-- 0.0 -->
      <g transform="translate(22.81375 358.757344)scale(0.1 -0.1)">
       <defs>
        <path id="DejaVuSans-2e" d="M 684 794 
L 1344 794 
L 1344 0 
L 684 0 
L 684 794 
z
" transform="scale(0.015625)"/>
       </defs>
       <use xlink:href="#DejaVuSans-30"/>
       <use xlink:href="#DejaVuSans-2e" x="63.623047"/>
       <use xlink:href="#DejaVuSans-30" x="95.410156"/>
      </g>
     </g>
    </g>
    <g id="ytick_2">
     <g id="line2d_8">
      <g>
       <use xlink:href="#maba99aa87d" x="45.716875" y="288.430125" style="stroke: #000000; stroke-width: 0.8"/>
      </g>
     </g>
     <g id="text_9">
      <!-- 0.2 -->
      <g transform="translate(22.81375 292.229344)scale(0.1 -0.1)">
       <use xlink:href="#DejaVuSans-30"/>
       <use xlink:href="#DejaVuSans-2e" x="63.623047"/>
       <use xlink:href="#DejaVuSans-32" x="95.410156"/>
      </g>
     </g>
    </g>
    <g id="ytick_3">
     <g id="line2d_9">
      <g>
       <use xlink:href="#maba99aa87d" x="45.716875" y="221.902125" style="stroke: #000000; stroke-width: 0.8"/>
      </g>
     </g>
     <g id="text_10">
      <!-- 0.4 -->
      <g transform="translate(22.81375 225.701344)scale(0.1 -0.1)">
       <use xlink:href="#DejaVuSans-30"/>
       <use xlink:href="#DejaVuSans-2e" x="63.623047"/>
       <use xlink:href="#DejaVuSans-34" x="95.410156"/>
      </g>
     </g>
    </g>
    <g id="ytick_4">
     <g id="line2d_10">
      <g>
       <use xlink:href="#maba99aa87d" x="45.716875" y="155.374125" style="stroke: #000000; stroke-width: 0.8"/>
      </g>
     </g>
     <g id="text_11">
      <!-- 0.6 -->
      <g transform="translate(22.81375 159.173344)scale(0.1 -0.1)">
       <use xlink:href="#DejaVuSans-30"/>
       <use xlink:href="#DejaVuSans-2e" x="63.623047"/>
       <use xlink:href="#DejaVuSans-36" x="95.410156"/>
      </g>
     </g>
    </g>
    <g id="ytick_5">
     <g id="line2d_11">
      <g>
       <use xlink:href="#maba99aa87d" x="45.716875" y="88.846125" style="stroke: #000000; stroke-width: 0.8"/>
      </g>
     </g>
     <g id="text_12">
      <!-- 0.8 -->
      <g transform="translate(22.81375 92.645344)scale(0.1 -0.1)">
       <use xlink:href="#DejaVuSans-30"/>
       <use xlink:href="#DejaVuSans-2e" x="63.623047"/>
       <use xlink:href="#DejaVuSans-38" x="95.410156"/>
      </g>
     </g>
    </g>
    <g id="ytick_6">
     <g id="line2d_12">
      <g>
       <use xlink:href="#maba99aa87d" x="45.716875" y="22.318125" style="stroke: #000000; stroke-width: 0.8"/>
      </g>
     </g>
     <g id="text_13">
      <!-- 1.0 -->
      <g transform="translate(22.81375 26.117344)scale(0.1 -0.1)">
       <defs>
        <path id="DejaVuSans-31" d="M 794 531 
L 1825 531 
L 1825 4091 
L 703 3866 
L 703 4441 
L 1819 4666 
L 2450 4666 
L 2450 531 
L 3481 531 
L 3481 0 
L 794 0 
L 794 531 
z
" transform="scale(0.015625)"/>
       </defs>
       <use xlink:href="#DejaVuSans-31"/>
       <use xlink:href="#DejaVuSans-2e" x="63.623047"/>
       <use xlink:href="#DejaVuSans-30" x="95.410156"/>
      </g>
     </g>
    </g>
    <g id="text_14">
     <!-- Detection efficiency -->
     <g transform="translate(16.318125 248.586562)rotate(-90)scale(0.12 -0.12)">
      <defs>
       <path id="DejaVuSans-44" d="M 1259 4147 
L 1259 519 
L 2022 519 
Q 2988 519 3436 956 
Q 3884 1394 3884 2338 
Q 3884 3275 3436 3711 
Q 2988 4147 2022 4147 
L 1259 4147 
z
M 628 4666 
L 1925 4666 
Q 3281 4666 3915 4102 
Q 4550 3538 4550 2338 
Q 4550 1131 3912 565 
Q 3275 0 1925 0 
L 628 0 
L 628 4666 
z
" transform="scale(0.015625)"/>
       <path id="DejaVuSans-63" d="M 3122 3366 
L 3122 2828 
Q 2878 2963 2633 3030 
Q 2388 3097 2138 3097 
Q 1578 3097 1268 2742 
Q 959 2388 959 1747 
Q 959 1106 1268 751 
Q 1578 397 2138 397 
Q 2388 397 2633 464 
Q 2878 531 3122 666 
L 3122 134 
Q 2881 22 2623 -34 
Q 2366 -91 2075 -91 
Q 1284 -91 818 406 
Q 353 903 353 1747 
Q 353 2603 823 3093 
Q 1294 3584 2113 3584 
Q 2378 3584 2631 3529 
Q 2884 3475 3122 3366 
z
" transform="scale(0.015625)"/>
       <path id="DejaVuSans-6f" d="M 1959 3097 
Q 1497 3097 1228 2736 
Q 959 2375 959 1747 
Q 959 1119 1226 758 
Q 1494 397 1959 397 
Q 2419 397 2687 759 
Q 2956 1122 2956 1747 
Q 2956 2369 2687 2733 
Q 2419 3097 1959 3097 
z
M 1959 3584 
Q 2709 3584 3137 3096 
Q 3566 2609 3566 1747 
Q 3566 888 3137 398 
Q 2709 -91 1959 -91 
Q 1206 -91 779 398 
Q 353 888 353 1747 
Q 353 2609 779 3096 
Q 1206 3584 1959 3584 
z
" transform="scale(0.015625)"/>
       <path id="DejaVuSans-20" transform="scale(0.015625)"/>
       <path id="DejaVuSans-66" d="M 2375 4863 
L 2375 4384 
L 1825 4384 
Q 1516 4384 1395 4259 
Q 1275 4134 1275 3809 
L 1275 3500 
L 2222 3500 
L 2222 3053 
L 1275 3053 
L 1275 0 
L 697 0 
L 697 3053 
L 147 3053 
L 147 3500 
L 697 3500 
L 697 3744 
Q 697 4328 969 4595 
Q 1241 4863 1831 4863 
L 2375 4863 
z
" transform="scale(0.015625)"/>
       <path id="DejaVuSans-79" d="M 2059 -325 
Q 1816 -950 1584 -1140 
Q 1353 -1331 966 -1331 
L 506 -1331 
L 506 -850 
L 844 -850 
Q 1081 -850 1212 -737 
Q 1344 -625 1503 -206 
L 1606 56 
L 191 3500 
L 800 3500 
L 1894 763 
L 2988 3500 
L 3597 3500 
L 2059 -325 
z
" transform="scale(0.015625)"/>
      </defs>
      <use xlink:href="#DejaVuSans-44"/>
      <use xlink:href="#DejaVuSans-65" x="77.001953"/>
      <use xlink:href="#DejaVuSans-74" x="138.525391"/>
      <use xlink:href="#DejaVuSans-65" x="177.734375"/>
      <use xlink:href="#DejaVuSans-63" x="239.257812"/>
      <use xlink:href="#DejaVuSans-74" x="294.238281"/>
      <use xlink:href="#DejaVuSans-69" x="333.447266"/>
      <use xlink:href="#DejaVuSans-6f" x="361.230469"/>
      <use xlink:href="#DejaVuSans-6e" x="422.412109"/>
      <use xlink:href="#DejaVuSans-20" x="485.791016"/>
      <use xlink:href="#DejaVuSans-65" x="517.578125"/>
      <use xlink:href="#DejaVuSans-66" x="579.101562"/>
      <use xlink:href="#DejaVuSans-66" x="614.306641"/>
      <use xlink:href="#DejaVuSans-69" x="649.511719"/>
      <use xlink:href="#DejaVuSans-63" x="677.294922"/>
      <use xlink:href="#DejaVuSans-69" x="732.275391"/>
      <use xlink:href="#DejaVuSans-65" x="760.058594"/>
      <use xlink:href="#DejaVuSans-6e" x="821.582031"/>
      <use xlink:href="#DejaVuSans-63" x="884.960938"/>
      <use xlink:href="#DejaVuSans-79" x="939.941406"/>
     </g>
    </g>
   </g>
   <g id="LineCollection_1">
    <path d="M 61.127074 22.318125 
L 76.294897 22.318125 
" clip-path="url(#p02e23866fc)" style="fill: none; stroke: #1f77b4; stroke-width: 1.5"/>
    <path d="M 76.294897 22.318125 
L 91.462721 22.318125 
" clip-path="url(#p02e23866fc)" style="fill: none; stroke: #1f77b4; stroke-width: 1.5"/>
    <path d="M 91.462721 22.318125 
L 106.630544 22.318125 
" clip-path="url(#p02e23866fc)" style="fill: none; stroke: #1f77b4; stroke-width: 1.5"/>
    <path d="M 106.630544 22.318125 
L 121.798368 22.318125 
" clip-path="url(#p02e23866fc)" style="fill: none; stroke: #1f77b4; stroke-width: 1.5"/>
    <path d="M 121.798368 22.318125 
L 136.966191 22.318125 
" clip-path="url(#p02e23866fc)" style="fill: none; stroke: #1f77b4; stroke-width: 1.5"/>
    <path d="M 136.966191 22.318125 
L 152.134014 22.318125 
" clip-path="url(#p02e23866fc)" style="fill: none; stroke: #1f77b4; stroke-width: 1.5"/>
    <path d="M 152.134014 133.198125 
L 167.301838 133.198125 
" clip-path="url(#p02e23866fc)" style="fill: none; stroke: #1f77b4; stroke-width: 1.5"/>
    <path d="M 167.301838 188.638125 
L 182.469661 188.638125 
" clip-path="url(#p02e23866fc)" style="fill: none; stroke: #1f77b4; stroke-width: 1.5"/>
    <path d="M 182.469661 22.318125 
L 197.637484 22.318125 
" clip-path="url(#p02e23866fc)" style="fill: none; stroke: #1f77b4; stroke-width: 1.5"/>
    <path d="M 197.637484 133.198125 
L 212.805308 133.198125 
" clip-path="url(#p02e23866fc)" style="fill: none; stroke: #1f77b4; stroke-width: 1.5"/>
    <path d="M 212.805308 288.430125 
L 227.973131 288.430125 
" clip-path="url(#p02e23866fc)" style="fill: none; stroke: #1f77b4; stroke-width: 1.5"/>
    <path d="M 227.973131 271.798125 
L 243.140954 271.798125 
" clip-path="url(#p02e23866fc)" style="fill: none; stroke: #1f77b4; stroke-width: 1.5"/>
    <path d="M 243.140954 307.438125 
L 258.308778 307.438125 
" clip-path="url(#p02e23866fc)" style="fill: none; stroke: #1f77b4; stroke-width: 1.5"/>
    <path d="M 258.308778 354.958125 
L 273.476601 354.958125 
" clip-path="url(#p02e23866fc)" style="fill: none; stroke: #1f77b4; stroke-width: 1.5"/>
    <path d="M 273.476601 271.798125 
L 288.644424 271.798125 
" clip-path="url(#p02e23866fc)" style="fill: none; stroke: #1f77b4; stroke-width: 1.5"/>
    <path d="M 288.644424 354.958125 
L 303.812248 354.958125 
" clip-path="url(#p02e23866fc)" style="fill: none; stroke: #1f77b4; stroke-width: 1.5"/>
    <path d="M 303.812248 354.958125 
L 318.980071 354.958125 
" clip-path="url(#p02e23866fc)" style="fill: none; stroke: #1f77b4; stroke-width: 1.5"/>
    <path d="M 318.980071 354.958125 
L 334.147895 354.958125 
" clip-path="url(#p02e23866fc)" style="fill: none; stroke: #1f77b4; stroke-width: 1.5"/>
    <path d="M 334.147895 354.958125 
L 349.315718 354.958125 
" clip-path="url(#p02e23866fc)" style="fill: none; stroke: #1f77b4; stroke-width: 1.5"/>
    <path d="M 349.315718 354.958125 
L 364.483541 354.958125 
" clip-path="url(#p02e23866fc)" style="fill: none; stroke: #1f77b4; stroke-width: 1.5"/>
   </g>
   <g id="LineCollection_2">
    <path d="M 68.710986 69.83821 
L 68.710986 22.318125 
" clip-path="url(#p02e23866fc)" style="fill: none; stroke: #1f77b4; stroke-width: 1.5"/>
    <path d="M 83.878809 77.758222 
L 83.878809 22.318125 
" clip-path="url(#p02e23866fc)" style="fill: none; stroke: #1f77b4; stroke-width: 1.5"/>
    <path d="M 99.046632 77.758222 
L 99.046632 22.318125 
" clip-path="url(#p02e23866fc)" style="fill: none; stroke: #1f77b4; stroke-width: 1.5"/>
    <path d="M 114.214456 88.846237 
L 114.214456 22.318125 
" clip-path="url(#p02e23866fc)" style="fill: none; stroke: #1f77b4; stroke-width: 1.5"/>
    <path d="M 129.382279 69.83821 
L 129.382279 22.318125 
" clip-path="url(#p02e23866fc)" style="fill: none; stroke: #1f77b4; stroke-width: 1.5"/>
    <path d="M 144.550103 88.846237 
L 144.550103 22.318125 
" clip-path="url(#p02e23866fc)" style="fill: none; stroke: #1f77b4; stroke-width: 1.5"/>
    <path d="M 159.717926 226.67785 
L 159.717926 67.438444 
" clip-path="url(#p02e23866fc)" style="fill: none; stroke: #1f77b4; stroke-width: 1.5"/>
    <path d="M 174.885749 263.018753 
L 174.885749 114.257497 
" clip-path="url(#p02e23866fc)" style="fill: none; stroke: #1f77b4; stroke-width: 1.5"/>
    <path d="M 190.053573 88.846237 
L 190.053573 22.318125 
" clip-path="url(#p02e23866fc)" style="fill: none; stroke: #1f77b4; stroke-width: 1.5"/>
    <path d="M 205.221396 226.67785 
L 205.221396 67.438444 
" clip-path="url(#p02e23866fc)" style="fill: none; stroke: #1f77b4; stroke-width: 1.5"/>
    <path d="M 220.389219 328.607245 
L 220.389219 214.988947 
" clip-path="url(#p02e23866fc)" style="fill: none; stroke: #1f77b4; stroke-width: 1.5"/>
    <path d="M 235.557043 311.451639 
L 235.557043 213.664576 
" clip-path="url(#p02e23866fc)" style="fill: none; stroke: #1f77b4; stroke-width: 1.5"/>
    <path d="M 250.724866 336.338975 
L 250.724866 248.837221 
" clip-path="url(#p02e23866fc)" style="fill: none; stroke: #1f77b4; stroke-width: 1.5"/>
    <path d="M 265.892689 354.958125 
L 265.892689 307.43804 
" clip-path="url(#p02e23866fc)" style="fill: none; stroke: #1f77b4; stroke-width: 1.5"/>
    <path d="M 281.060513 321.694156 
L 281.060513 188.638038 
" clip-path="url(#p02e23866fc)" style="fill: none; stroke: #1f77b4; stroke-width: 1.5"/>
    <path d="M 296.228336 354.958125 
L 296.228336 307.43804 
" clip-path="url(#p02e23866fc)" style="fill: none; stroke: #1f77b4; stroke-width: 1.5"/>
    <path d="M 311.39616 354.958125 
L 311.39616 299.518028 
" clip-path="url(#p02e23866fc)" style="fill: none; stroke: #1f77b4; stroke-width: 1.5"/>
    <path d="M 326.563983 354.958125 
L 326.563983 288.430013 
" clip-path="url(#p02e23866fc)" style="fill: none; stroke: #1f77b4; stroke-width: 1.5"/>
    <path d="M 341.731806 354.958125 
L 341.731806 288.430013 
" clip-path="url(#p02e23866fc)" style="fill: none; stroke: #1f77b4; stroke-width: 1.5"/>
    <path d="M 356.89963 354.958125 
L 356.89963 313.378049 
" clip-path="url(#p02e23866fc)" style="fill: none; stroke: #1f77b4; stroke-width: 1.5"/>
   </g>
   <g id="line2d_13">
    <path d="M 60.935057 22.385809 
L 77.691814 22.593196 
L 88.050536 22.927812 
L 95.971912 23.398824 
L 102.369946 23.995439 
L 107.853976 24.723972 
L 112.728669 25.592565 
L 116.994025 26.565725 
L 120.954713 27.684077 
L 124.610732 28.931525 
L 128.266752 30.416866 
L 131.618104 32.015273 
L 134.969455 33.867433 
L 138.016138 35.794392 
L 141.062821 37.97453 
L 144.109504 40.428792 
L 147.156187 43.177841 
L 150.20287 46.241705 
L 153.249553 49.639377 
L 156.296236 53.388404 
L 159.342919 57.504454 
L 162.389602 62.000884 
L 165.436285 66.88831 
L 168.482968 72.174194 
L 171.83432 78.453457 
L 175.185671 85.219317 
L 178.537022 92.465441 
L 182.193042 100.902841 
L 186.15373 110.641059 
L 190.419086 121.77251 
L 194.989111 134.358892 
L 200.168472 149.311901 
L 206.566506 168.520866 
L 228.502624 235.08171 
L 233.681986 249.709089 
L 238.25201 261.942677 
L 242.212698 271.953771 
L 246.173386 281.361565 
L 249.829406 289.477016 
L 253.180757 296.418583 
L 256.532108 302.875128 
L 259.88346 308.844263 
L 263.234811 314.329447 
L 266.281494 318.903322 
L 269.328177 323.094461 
L 272.37486 326.915707 
L 275.421543 330.3823 
L 278.468226 333.511446 
L 281.514909 336.321884 
L 284.561592 338.833465 
L 287.608275 341.066756 
L 290.654959 343.042674 
L 294.00631 344.943886 
L 297.357661 346.586433 
L 301.013681 348.114546 
L 304.669701 349.39946 
L 308.630389 350.552839 
L 312.895745 351.557833 
L 317.465769 352.406875 
L 322.645131 353.138501 
L 328.433828 353.730265 
L 335.441199 354.212197 
L 343.971912 354.564731 
L 355.549307 354.802418 
L 365.298693 354.890441 
L 365.298693 354.890441 
" clip-path="url(#p02e23866fc)" style="fill: none; stroke: #ff7f0e; stroke-width: 1.5; stroke-linecap: square"/>
   </g>
   <g id="line2d_14">
    <defs>
     <path id="m6f88d684b9" d="M 0 3 
C 0.795609 3 1.55874 2.683901 2.12132 2.12132 
C 2.683901 1.55874 3 0.795609 3 0 
C 3 -0.795609 2.683901 -1.55874 2.12132 -2.12132 
C 1.55874 -2.683901 0.795609 -3 0 -3 
C -0.795609 -3 -1.55874 -2.683901 -2.12132 -2.12132 
C -2.683901 -1.55874 -3 -0.795609 -3 0 
C -3 0.795609 -2.683901 1.55874 -2.12132 2.12132 
C -1.55874 2.683901 -0.795609 3 0 3 
z
" style="stroke: #1f77b4"/>
    </defs>
    <g clip-path="url(#p02e23866fc)">
     <use xlink:href="#m6f88d684b9" x="68.710986" y="22.318125" style="fill: #1f77b4; stroke: #1f77b4"/>
     <use xlink:href="#m6f88d684b9" x="83.878809" y="22.318125" style="fill: #1f77b4; stroke: #1f77b4"/>
     <use xlink:href="#m6f88d684b9" x="99.046632" y="22.318125" style="fill: #1f77b4; stroke: #1f77b4"/>
     <use xlink:href="#m6f88d684b9" x="114.214456" y="22.318125" style="fill: #1f77b4; stroke: #1f77b4"/>
     <use xlink:href="#m6f88d684b9" x="129.382279" y="22.318125" style="fill: #1f77b4; stroke: #1f77b4"/>
     <use xlink:href="#m6f88d684b9" x="144.550103" y="22.318125" style="fill: #1f77b4; stroke: #1f77b4"/>
     <use xlink:href="#m6f88d684b9" x="159.717926" y="133.198125" style="fill: #1f77b4; stroke: #1f77b4"/>
     <use xlink:href="#m6f88d684b9" x="174.885749" y="188.638125" style="fill: #1f77b4; stroke: #1f77b4"/>
     <use xlink:href="#m6f88d684b9" x="190.053573" y="22.318125" style="fill: #1f77b4; stroke: #1f77b4"/>
     <use xlink:href="#m6f88d684b9" x="205.221396" y="133.198125" style="fill: #1f77b4; stroke: #1f77b4"/>
     <use xlink:href="#m6f88d684b9" x="220.389219" y="288.430125" style="fill: #1f77b4; stroke: #1f77b4"/>
     <use xlink:href="#m6f88d684b9" x="235.557043" y="271.798125" style="fill: #1f77b4; stroke: #1f77b4"/>
     <use xlink:href="#m6f88d684b9" x="250.724866" y="307.438125" style="fill: #1f77b4; stroke: #1f77b4"/>
     <use xlink:href="#m6f88d684b9" x="265.892689" y="354.958125" style="fill: #1f77b4; stroke: #1f77b4"/>
     <use xlink:href="#m6f88d684b9" x="281.060513" y="271.798125" style="fill: #1f77b4; stroke: #1f77b4"/>
     <use xlink:href="#m6f88d684b9" x="296.228336" y="354.958125" style="fill: #1f77b4; stroke: #1f77b4"/>
     <use xlink:href="#m6f88d684b9" x="311.39616" y="354.958125" style="fill: #1f77b4; stroke: #1f77b4"/>
     <use xlink:href="#m6f88d684b9" x="326.563983" y="354.958125" style="fill: #1f77b4; stroke: #1f77b4"/>
     <use xlink:href="#m6f88d684b9" x="341.731806" y="354.958125" style="fill: #1f77b4; stroke: #1f77b4"/>
     <use xlink:href="#m6f88d684b9" x="356.89963" y="354.958125" style="fill: #1f77b4; stroke: #1f77b4"/>
    </g>
   </g>
   <g id="patch_3">
    <path d="M 45.716875 354.958125 
L 45.716875 22.318125 
" style="fill: none; stroke: #000000; stroke-width: 0.8; stroke-linejoin: miter; stroke-linecap: square"/>
   </g>
   <g id="patch_4">
    <path d="M 380.516875 354.958125 
L 380.516875 22.318125 
" style="fill: none; stroke: #000000; stroke-width: 0.8; stroke-linejoin: miter; stroke-linecap: square"/>
   </g>
   <g id="patch_5">
    <path d="M 45.716875 354.958125 
L 380.516875 354.958125 
" style="fill: none; stroke: #000000; stroke-width: 0.8; stroke-linejoin: miter; stroke-linecap: square"/>
   </g>
   <g id="patch_6">
    <path d="M 45.716875 22.318125 
L 380.516875 22.318125 
" style="fill: none; stroke: #000000; stroke-width: 0.8; stroke-linejoin: miter; stroke-linecap: square"/>
   </g>
   <g id="text_15">
    <!-- Detection efficiency vs magnitude -->
    <g transform="translate(110.2225 16.318125)scale(0.12 -0.12)">
     <defs>
      <path id="DejaVuSans-76" d="M 191 3500 
L 800 3500 
L 1894 563 
L 2988 3500 
L 3597 3500 
L 2284 0 
L 1503 0 
L 191 3500 
z
" transform="scale(0.015625)"/>
      <path id="DejaVuSans-73" d="M 2834 3397 
L 2834 2853 
Q 2591 2978 2328 3040 
Q 2066 3103 1784 3103 
Q 1356 3103 1142 2972 
Q 928 2841 928 2578 
Q 928 2378 1081 2264 
Q 1234 2150 1697 2047 
L 1894 2003 
Q 2506 1872 2764 1633 
Q 3022 1394 3022 966 
Q 3022 478 2636 193 
Q 2250 -91 1575 -91 
Q 1294 -91 989 -36 
Q 684 19 347 128 
L 347 722 
Q 666 556 975 473 
Q 1284 391 1588 391 
Q 1994 391 2212 530 
Q 2431 669 2431 922 
Q 2431 1156 2273 1281 
Q 2116 1406 1581 1522 
L 1381 1569 
Q 847 1681 609 1914 
Q 372 2147 372 2553 
Q 372 3047 722 3315 
Q 1072 3584 1716 3584 
Q 2034 3584 2315 3537 
Q 2597 3491 2834 3397 
z
" transform="scale(0.015625)"/>
      <path id="DejaVuSans-6d" d="M 3328 2828 
Q 3544 3216 3844 3400 
Q 4144 3584 4550 3584 
Q 5097 3584 5394 3201 
Q 5691 2819 5691 2113 
L 5691 0 
L 5113 0 
L 5113 2094 
Q 5113 2597 4934 2840 
Q 4756 3084 4391 3084 
Q 3944 3084 3684 2787 
Q 3425 2491 3425 1978 
L 3425 0 
L 2847 0 
L 2847 2094 
Q 2847 2600 2669 2842 
Q 2491 3084 2119 3084 
Q 1678 3084 1418 2786 
Q 1159 2488 1159 1978 
L 1159 0 
L 581 0 
L 581 3500 
L 1159 3500 
L 1159 2956 
Q 1356 3278 1631 3431 
Q 1906 3584 2284 3584 
Q 2666 3584 2933 3390 
Q 3200 3197 3328 2828 
z
" transform="scale(0.015625)"/>
     </defs>
     <use xlink:href="#DejaVuSans-44"/>
     <use xlink:href="#DejaVuSans-65" x="77.001953"/>
     <use xlink:href="#DejaVuSans-74" x="138.525391"/>
     <use xlink:href="#DejaVuSans-65" x="177.734375"/>
     <use xlink:href="#DejaVuSans-63" x="239.257812"/>
     <use xlink:href="#DejaVuSans-74" x="294.238281"/>
     <use xlink:href="#DejaVuSans-69" x="333.447266"/>
     <use xlink:href="#DejaVuSans-6f" x="361.230469"/>
     <use xlink:href="#DejaVuSans-6e" x="422.412109"/>
     <use xlink:href="#DejaVuSans-20" x="485.791016"/>
     <use xlink:href="#DejaVuSans-65" x="517.578125"/>
     <use xlink:href="#DejaVuSans-66" x="579.101562"/>
     <use xlink:href="#DejaVuSans-66" x="614.306641"/>
     <use xlink:href="#DejaVuSans-69" x="649.511719"/>
     <use xlink:href="#DejaVuSans-63" x="677.294922"/>
     <use xlink:href="#DejaVuSans-69" x="732.275391"/>
     <use xlink:href="#DejaVuSans-65" x="760.058594"/>
     <use xlink:href="#DejaVuSans-6e" x="821.582031"/>
     <use xlink:href="#DejaVuSans-63" x="884.960938"/>
     <use xlink:href="#DejaVuSans-79" x="939.941406"/>
     <use xlink:href="#DejaVuSans-20" x="999.121094"/>
     <use xlink:href="#DejaVuSans-76" x="1030.908203"/>
     <use xlink:href="#DejaVuSans-73" x="1090.087891"/>
     <use xlink:href="#DejaVuSans-20" x="1142.1875"/>
     <use xlink:href="#DejaVuSans-6d" x="1173.974609"/>
     <use xlink:href="#DejaVuSans-61" x="1271.386719"/>
     <use xlink:href="#DejaVuSans-67" x="1332.666016"/>
     <use xlink:href="#DejaVuSans-6e" x="1396.142578"/>
     <use xlink:href="#DejaVuSans-69" x="1459.521484"/>
     <use xlink:href="#DejaVuSans-74" x="1487.304688"/>
     <use xlink:href="#DejaVuSans-75" x="1526.513672"/>
     <use xlink:href="#DejaVuSans-64" x="1589.892578"/>
     <use xlink:href="#DejaVuSans-65" x="1653.369141"/>
    </g>
   </g>
   <g id="legend_1">
    <g id="patch_7">
     <path d="M 269.660625 59.674375 
L 373.516875 59.674375 
Q 375.516875 59.674375 375.516875 57.674375 
L 375.516875 29.318125 
Q 375.516875 27.318125 373.516875 27.318125 
L 269.660625 27.318125 
Q 267.660625 27.318125 267.660625 29.318125 
L 267.660625 57.674375 
Q 267.660625 59.674375 269.660625 59.674375 
z
" style="fill: #ffffff; opacity: 0.8; stroke: #cccccc; stroke-linejoin: miter"/>
    </g>
    <g id="line2d_15">
     <path d="M 271.660625 35.416562 
L 281.660625 35.416562 
L 291.660625 35.416562 
" style="fill: none; stroke: #ff7f0e; stroke-width: 1.5; stroke-linecap: square"/>
    </g>
    <g id="text_16">
     <!-- true efficiency -->
     <g transform="translate(299.660625 38.916562)scale(0.1 -0.1)">
      <defs>
       <path id="DejaVuSans-72" d="M 2631 2963 
Q 2534 3019 2420 3045 
Q 2306 3072 2169 3072 
Q 1681 3072 1420 2755 
Q 1159 2438 1159 1844 
L 1159 0 
L 581 0 
L 581 3500 
L 1159 3500 
L 1159 2956 
Q 1341 3275 1631 3429 
Q 1922 3584 2338 3584 
Q 2397 3584 2469 3576 
Q 2541 3569 2628 3553 
L 2631 2963 
z
" transform="scale(0.015625)"/>
      </defs>
      <use xlink:href="#DejaVuSans-74"/>
      <use xlink:href="#DejaVuSans-72" x="39.208984"/>
      <use xlink:href="#DejaVuSans-75" x="80.322266"/>
      <use xlink:href="#DejaVuSans-65" x="143.701172"/>
      <use xlink:href="#DejaVuSans-20" x="205.224609"/>
      <use xlink:href="#DejaVuSans-65" x="237.011719"/>
      <use xlink:href="#DejaVuSans-66" x="298.535156"/>
      <use xlink:href="#DejaVuSans-66" x="333.740234"/>
      <use xlink:href="#DejaVuSans-69" x="368.945312"/>
      <use xlink:href="#DejaVuSans-63" x="396.728516"/>
      <use xlink:href="#DejaVuSans-69" x="451.708984"/>
      <use xlink:href="#DejaVuSans-65" x="479.492188"/>
      <use xlink:href="#DejaVuSans-6e" x="541.015625"/>
      <use xlink:href="#DejaVuSans-63" x="604.394531"/>
      <use xlink:href="#DejaVuSans-79" x="659.375"/>
     </g>
    </g>
    <g id="LineCollection_3">
     <path d="M 276.660625 50.094687 
L 286.660625 50.094687 
" style="fill: none; stroke: #1f77b4; stroke-width: 1.5"/>
    </g>
    <g id="LineCollection_4">
     <path d="M 281.660625 55.094687 
L 281.660625 45.094687 
" style="fill: none; stroke: #1f77b4; stroke-width: 1.5"/>
    </g>
    <g id="line2d_16"/>
    <g id="line2d_17">
     <g>
      <use xlink:href="#m6f88d684b9" x="281.660625" y="50.094687" style="fill: #1f77b4; stroke: #1f77b4"/>
     </g>
    </g>
    <g id="text_17">
     <!-- estimate -->
     <g transform="translate(299.660625 53.594687)scale(0.1 -0.1)">
      <use xlink:href="#DejaVuSans-65"/>
      <use xlink:href="#DejaVuSans-73" x="61.523438"/>
      <use xlink:href="#DejaVuSans-74" x="113.623047"/>
      <use xlink:href="#DejaVuSans-69" x="152.832031"/>
      <use xlink:href="#DejaVuSans-6d" x="180.615234"/>
      <use xlink:href="#DejaVuSans-61" x="278.027344"/>
      <use xlink:href="#DejaVuSans-74" x="339.306641"/>
      <use xlink:href="#DejaVuSans-65" x="378.515625"/>
     </g>
    </g>
   </g>
  </g>
 </g>
 <defs>
  <clipPath id="p02e23866fc">
   <rect x="45.716875" y="22.318125" width="334.8" height="332.64"/>
  </clipPath>
 </defs>
</svg>
