<?xml version="1.0" encoding="utf-8" standalone="no"?>
<!DOCTYPE svg PUBLIC "-//W3C//DTD SVG 1.1//EN"
  "http://www.w3.org/Graphics/SVG/1.1/DTD/svg11.dtd">
<svg xmlns:xlink="http://www.w3.org/1999/xlink" width="377.304688pt" height="363.718125pt" viewBox="0 0 377.304688 363.718125" xmlns="http://www.w3.org/2000/svg" version="1.1">
 <metadata>
  <rdf:RDF xmlns:dc="http://purl.org/dc/elements/1.1/" xmlns:cc="http://creativecommons.org/ns#" xmlns:rdf="http://www.w3.org/1999/02/22-rdf-syntax-ns#">
   <cc:Work>
    <dc:type rdf:resource="http://purl.org/dc/dcmitype/StillImage"/>
    <dc:date>2022-05-03T11:23:43.731813</dc:date>
    <dc:format>image/svg+xml</dc:format>
    <dc:creator>
     <cc:Agent>
      <dc:title>Matplotlib v3.5.2, https://matplotlib.org/</dc:title>
     </cc:Agent>
    </dc:creator>
   </cc:Work>
  </rdf:RDF>
 </metadata>
 <defs>
  <style type="text/css">*{stroke-linejoin: round; stroke-linecap: butt}</style>
 </defs>
 <g id="figure_1">
  <g id="patch_1">
   <path d="M 0 363.718125 
L 377.304688 363.718125 
L 377.304688 0 
L 0 0 
L 0 363.718125 
z
" style="fill: none"/>
  </g>
  <g id="axes_1">
   <g id="patch_2">
    <path d="M 28.942188 339.84 
L 363.742188 339.84 
L 363.742188 7.2 
L 28.942188 7.2 
z
" style="fill: #ffffff"/>
   </g>
   <g id="matplotlib.axis_1">
    <g id="xtick_1">
     <g id="line2d_1">
      <defs>
       <path id="m9e7c14590b" d="M 0 0 
L 0 3.5 
" style="stroke: #000000; stroke-width: 0.8"/>
      </defs>
      <g>
       <use xlink:href="#m9e7c14590b" x="28.942188" y="339.84" style="stroke: #000000; stroke-width: 0.8"/>
      </g>
     </g>
     <g id="text_1">
      <!-- 0 -->
      <g transform="translate(25.760938 354.438438)scale(0.1 -0.1)">
       <defs>
        <path id="DejaVuSans-30" d="M 2034 4250 
Q 1547 4250 1301 3770 
Q 1056 3291 1056 2328 
Q 1056 1369 1301 889 
Q 1547 409 2034 409 
Q 2525 409 2770 889 
Q 3016 1369 3016 2328 
Q 3016 3291 2770 3770 
Q 2525 4250 2034 4250 
z
M 2034 4750 
Q 2819 4750 3233 4129 
Q 3647 3509 3647 2328 
Q 3647 1150 3233 529 
Q 2819 -91 2034 -91 
Q 1250 -91 836 529 
Q 422 1150 422 2328 
Q 422 3509 836 4129 
Q 1250 4750 2034 4750 
z
" transform="scale(0.015625)"/>
       </defs>
       <use xlink:href="#DejaVuSans-30"/>
      </g>
     </g>
    </g>
    <g id="xtick_2">
     <g id="line2d_2">
      <g>
       <use xlink:href="#m9e7c14590b" x="95.902188" y="339.84" style="stroke: #000000; stroke-width: 0.8"/>
      </g>
     </g>
     <g id="text_2">
      <!-- 2 -->
      <g transform="translate(92.720938 354.438438)scale(0.1 -0.1)">
       <defs>
        <path id="DejaVuSans-32" d="M 1228 531 
L 3431 531 
L 3431 0 
L 469 0 
L 469 531 
Q 828 903 1448 1529 
Q 2069 2156 2228 2338 
Q 2531 2678 2651 2914 
Q 2772 3150 2772 3378 
Q 2772 3750 2511 3984 
Q 2250 4219 1831 4219 
Q 1534 4219 1204 4116 
Q 875 4013 500 3803 
L 500 4441 
Q 881 4594 1212 4672 
Q 1544 4750 1819 4750 
Q 2544 4750 2975 4387 
Q 3406 4025 3406 3419 
Q 3406 3131 3298 2873 
Q 3191 2616 2906 2266 
Q 2828 2175 2409 1742 
Q 1991 1309 1228 531 
z
" transform="scale(0.015625)"/>
       </defs>
       <use xlink:href="#DejaVuSans-32"/>
      </g>
     </g>
    </g>
    <g id="xtick_3">
     <g id="line2d_3">
      <g>
       <use xlink:href="#m9e7c14590b" x="162.862188" y="339.84" style="stroke: #000000; stroke-width: 0.8"/>
      </g>
     </g>
     <g id="text_3">
      <!-- 4 -->
      <g transform="translate(159.680937 354.438438)scale(0.1 -0.1)">
       <defs>
        <path id="DejaVuSans-34" d="M 2419 4116 
L 825 1625 
L 2419 1625 
L 2419 4116 
z
M 2253 4666 
L 3047 4666 
L 3047 1625 
L 3713 1625 
L 3713 1100 
L 3047 1100 
L 3047 0 
L 2419 0 
L 2419 1100 
L 313 1100 
L 313 1709 
L 2253 4666 
z
" transform="scale(0.015625)"/>
       </defs>
       <use xlink:href="#DejaVuSans-34"/>
      </g>
     </g>
    </g>
    <g id="xtick_4">
     <g id="line2d_4">
      <g>
       <use xlink:href="#m9e7c14590b" x="229.822188" y="339.84" style="stroke: #000000; stroke-width: 0.8"/>
      </g>
     </g>
     <g id="text_4">
      <!-- 6 -->
      <g transform="translate(226.640938 354.438438)scale(0.1 -0.1)">
       <defs>
        <path id="DejaVuSans-36" d="M 2113 2584 
Q 1688 2584 1439 2293 
Q 1191 2003 1191 1497 
Q 1191 994 1439 701 
Q 1688 409 2113 409 
Q 2538 409 2786 701 
Q 3034 994 3034 1497 
Q 3034 2003 2786 2293 
Q 2538 2584 2113 2584 
z
M 3366 4563 
L 3366 3988 
Q 3128 4100 2886 4159 
Q 2644 4219 2406 4219 
Q 1781 4219 1451 3797 
Q 1122 3375 1075 2522 
Q 1259 2794 1537 2939 
Q 1816 3084 2150 3084 
Q 2853 3084 3261 2657 
Q 3669 2231 3669 1497 
Q 3669 778 3244 343 
Q 2819 -91 2113 -91 
Q 1303 -91 875 529 
Q 447 1150 447 2328 
Q 447 3434 972 4092 
Q 1497 4750 2381 4750 
Q 2619 4750 2861 4703 
Q 3103 4656 3366 4563 
z
" transform="scale(0.015625)"/>
       </defs>
       <use xlink:href="#DejaVuSans-36"/>
      </g>
     </g>
    </g>
    <g id="xtick_5">
     <g id="line2d_5">
      <g>
       <use xlink:href="#m9e7c14590b" x="296.782188" y="339.84" style="stroke: #000000; stroke-width: 0.8"/>
      </g>
     </g>
     <g id="text_5">
      <!-- 8 -->
      <g transform="translate(293.600938 354.438438)scale(0.1 -0.1)">
       <defs>
        <path id="DejaVuSans-38" d="M 2034 2216 
Q 1584 2216 1326 1975 
Q 1069 1734 1069 1313 
Q 1069 891 1326 650 
Q 1584 409 2034 409 
Q 2484 409 2743 651 
Q 3003 894 3003 1313 
Q 3003 1734 2745 1975 
Q 2488 2216 2034 2216 
z
M 1403 2484 
Q 997 2584 770 2862 
Q 544 3141 544 3541 
Q 544 4100 942 4425 
Q 1341 4750 2034 4750 
Q 2731 4750 3128 4425 
Q 3525 4100 3525 3541 
Q 3525 3141 3298 2862 
Q 3072 2584 2669 2484 
Q 3125 2378 3379 2068 
Q 3634 1759 3634 1313 
Q 3634 634 3220 271 
Q 2806 -91 2034 -91 
Q 1263 -91 848 271 
Q 434 634 434 1313 
Q 434 1759 690 2068 
Q 947 2378 1403 2484 
z
M 1172 3481 
Q 1172 3119 1398 2916 
Q 1625 2713 2034 2713 
Q 2441 2713 2670 2916 
Q 2900 3119 2900 3481 
Q 2900 3844 2670 4047 
Q 2441 4250 2034 4250 
Q 1625 4250 1398 4047 
Q 1172 3844 1172 3481 
z
" transform="scale(0.015625)"/>
       </defs>
       <use xlink:href="#DejaVuSans-38"/>
      </g>
     </g>
    </g>
    <g id="xtick_6">
     <g id="line2d_6">
      <g>
       <use xlink:href="#m9e7c14590b" x="363.742188" y="339.84" style="stroke: #000000; stroke-width: 0.8"/>
      </g>
     </g>
     <g id="text_6">
      <!-- 10 -->
      <g transform="translate(357.379688 354.438438)scale(0.1 -0.1)">
       <defs>
        <path id="DejaVuSans-31" d="M 794 531 
L 1825 531 
L 1825 4091 
L 703 3866 
L 703 4441 
L 1819 4666 
L 2450 4666 
L 2450 531 
L 3481 531 
L 3481 0 
L 794 0 
L 794 531 
z
" transform="scale(0.015625)"/>
       </defs>
       <use xlink:href="#DejaVuSans-31"/>
       <use xlink:href="#DejaVuSans-30" x="63.623047"/>
      </g>
     </g>
    </g>
   </g>
   <g id="matplotlib.axis_2">
    <g id="ytick_1">
     <g id="line2d_7">
      <defs>
       <path id="m19cbb30d79" d="M 0 0 
L -3.5 0 
" style="stroke: #000000; stroke-width: 0.8"/>
      </defs>
      <g>
       <use xlink:href="#m19cbb30d79" x="28.942188" y="306.576" style="stroke: #000000; stroke-width: 0.8"/>
      </g>
     </g>
     <g id="text_7">
      <!-- −4 -->
      <g transform="translate(7.2 310.375219)scale(0.1 -0.1)">
       <defs>
        <path id="DejaVuSans-2212" d="M 678 2272 
L 4684 2272 
L 4684 1741 
L 678 1741 
L 678 2272 
z
" transform="scale(0.015625)"/>
       </defs>
       <use xlink:href="#DejaVuSans-2212"/>
       <use xlink:href="#DejaVuSans-34" x="83.789062"/>
      </g>
     </g>
    </g>
    <g id="ytick_2">
     <g id="line2d_8">
      <g>
       <use xlink:href="#m19cbb30d79" x="28.942188" y="240.048" style="stroke: #000000; stroke-width: 0.8"/>
      </g>
     </g>
     <g id="text_8">
      <!-- −2 -->
      <g transform="translate(7.2 243.847219)scale(0.1 -0.1)">
       <use xlink:href="#DejaVuSans-2212"/>
       <use xlink:href="#DejaVuSans-32" x="83.789062"/>
      </g>
     </g>
    </g>
    <g id="ytick_3">
     <g id="line2d_9">
      <g>
       <use xlink:href="#m19cbb30d79" x="28.942188" y="173.52" style="stroke: #000000; stroke-width: 0.8"/>
      </g>
     </g>
     <g id="text_9">
      <!-- 0 -->
      <g transform="translate(15.579688 177.319219)scale(0.1 -0.1)">
       <use xlink:href="#DejaVuSans-30"/>
      </g>
     </g>
    </g>
    <g id="ytick_4">
     <g id="line2d_10">
      <g>
       <use xlink:href="#m19cbb30d79" x="28.942188" y="106.992" style="stroke: #000000; stroke-width: 0.8"/>
      </g>
     </g>
     <g id="text_10">
      <!-- 2 -->
      <g transform="translate(15.579688 110.791219)scale(0.1 -0.1)">
       <use xlink:href="#DejaVuSans-32"/>
      </g>
     </g>
    </g>
    <g id="ytick_5">
     <g id="line2d_11">
      <g>
       <use xlink:href="#m19cbb30d79" x="28.942188" y="40.464" style="stroke: #000000; stroke-width: 0.8"/>
      </g>
     </g>
     <g id="text_11">
      <!-- 4 -->
      <g transform="translate(15.579688 44.263219)scale(0.1 -0.1)">
       <use xlink:href="#DejaVuSans-34"/>
      </g>
     </g>
    </g>
   </g>
   <g id="line2d_12">
    <path d="M 28.942188 173.52 
L 34.298988 164.979256 
L 37.312188 159.7416 
L 39.655788 155.232961 
L 41.664588 150.913809 
L 43.338588 146.870511 
L 45.012588 142.283025 
L 46.686588 136.963341 
L 48.025788 131.999741 
L 49.364988 126.190115 
L 50.704188 119.238085 
L 51.708588 113.013009 
L 52.712988 105.619728 
L 53.717388 96.651431 
L 54.721788 85.489378 
L 55.726188 71.143935 
L 56.395788 59.024561 
L 57.065387 43.965274 
L 57.734988 24.705419 
L 58.40756 -1 
M 62.756988 -1 
L 62.756988 364.718125 
M 66.094578 364.718125 
L 66.439788 347.895995 
L 67.109388 322.334581 
L 67.778987 303.074726 
L 68.783388 281.646322 
L 69.787788 265.914314 
L 70.792188 253.8264 
L 71.796588 244.209598 
L 72.800988 236.344764 
L 74.140188 227.801915 
L 75.479388 220.849885 
L 76.818588 215.040259 
L 78.157788 210.076659 
L 79.831788 204.756975 
L 81.505788 200.169489 
L 83.514588 195.370364 
L 85.523388 191.132381 
L 87.866988 186.690149 
L 90.880188 181.50598 
L 94.897788 175.08869 
L 101.593788 164.419999 
L 104.272188 159.7416 
L 106.615788 155.232961 
L 108.624588 150.913809 
L 110.298588 146.870511 
L 111.972588 142.283025 
L 113.646588 136.963341 
L 114.985788 131.999741 
L 116.324988 126.190115 
L 117.664188 119.238085 
L 118.668588 113.013009 
L 119.672988 105.619728 
L 120.677388 96.651431 
L 121.681788 85.489378 
L 122.686188 71.143935 
L 123.355788 59.024561 
L 124.025388 43.965274 
L 124.694988 24.705419 
L 125.36756 -1 
M 129.716988 -1 
L 129.716988 364.718125 
M 133.054578 364.718125 
L 133.399788 347.895995 
L 134.069388 322.334581 
L 134.738988 303.074726 
L 135.743388 281.646322 
L 136.747788 265.914314 
L 137.752188 253.8264 
L 138.756588 244.209598 
L 139.760987 236.344764 
L 141.100188 227.801915 
L 142.439388 220.849885 
L 143.778588 215.040259 
L 145.117788 210.076659 
L 146.791787 204.756975 
L 148.465788 200.169489 
L 150.474588 195.370364 
L 152.483388 191.132381 
L 154.826988 186.690149 
L 157.840188 181.50598 
L 161.857788 175.08869 
L 168.553787 164.419999 
L 171.232188 159.7416 
L 173.575788 155.232961 
L 175.584587 150.913809 
L 177.258588 146.870511 
L 178.932588 142.283025 
L 180.606588 136.963341 
L 181.945788 131.999741 
L 183.284988 126.190115 
L 184.624188 119.238085 
L 185.628588 113.013009 
L 186.632988 105.619728 
L 187.637388 96.651431 
L 188.641788 85.489378 
L 189.646187 71.143935 
L 190.315788 59.024561 
L 190.985388 43.965274 
L 191.654988 24.705419 
L 192.32756 -1 
M 196.676987 -1 
L 196.676987 364.718125 
M 200.014578 364.718125 
L 200.359788 347.895995 
L 201.029387 322.334581 
L 201.698988 303.074726 
L 202.703388 281.646322 
L 203.707787 265.914314 
L 204.712188 253.8264 
L 205.716588 244.209598 
L 206.720988 236.344764 
L 208.060188 227.801915 
L 209.399387 220.849885 
L 210.738587 215.040259 
L 212.077787 210.076659 
L 213.751788 204.756975 
L 215.425788 200.169489 
L 217.434588 195.370364 
L 219.443388 191.132381 
L 221.786988 186.690149 
L 224.800188 181.50598 
L 228.817788 175.08869 
L 235.513788 164.419999 
L 238.192188 159.7416 
L 240.535788 155.232961 
L 242.544588 150.913809 
L 244.218588 146.870511 
L 245.892588 142.283025 
L 247.566588 136.963341 
L 248.905788 131.999741 
L 250.244988 126.190115 
L 251.584188 119.238085 
L 252.588588 113.013009 
L 253.592988 105.619728 
L 254.597388 96.651431 
L 255.601788 85.489378 
L 256.606188 71.143935 
L 257.275788 59.024561 
L 257.945388 43.965274 
L 258.614988 24.705419 
L 259.28756 -1 
M 263.636988 -1 
L 263.636988 364.718125 
M 266.974578 364.718125 
L 267.319788 347.895995 
L 267.989388 322.334581 
L 268.658988 303.074726 
L 269.663388 281.646322 
L 270.667788 265.914314 
L 271.672188 253.8264 
L 272.676588 244.209598 
L 273.680988 236.344764 
L 275.020188 227.801915 
L 276.359388 220.849885 
L 277.698588 215.040259 
L 279.037788 210.076659 
L 280.711788 204.756975 
L 282.385788 200.169489 
L 284.394588 195.370364 
L 286.403388 191.132381 
L 288.746987 186.690149 
L 291.760188 181.50598 
L 295.777787 175.08869 
L 302.473788 164.419999 
L 305.152188 159.7416 
L 307.495788 155.232961 
L 309.504588 150.913809 
L 311.178587 146.870511 
L 312.852588 142.283025 
L 314.526588 136.963341 
L 315.865788 131.999741 
L 317.204988 126.190115 
L 318.544188 119.238085 
L 319.548587 113.013009 
L 320.552988 105.619728 
L 321.557388 96.651431 
L 322.561788 85.489378 
L 323.566188 71.143935 
L 324.235788 59.024561 
L 324.905388 43.965274 
L 325.574988 24.705419 
L 326.24756 -1 
M 330.596988 -1 
L 330.596988 364.718125 
M 333.934578 364.718125 
L 334.279788 347.895995 
L 334.949388 322.334581 
L 335.618988 303.074726 
L 336.623388 281.646322 
L 337.627788 265.914314 
L 338.632188 253.8264 
L 339.636588 244.209598 
L 340.640988 236.344764 
L 341.980187 227.801915 
L 343.319388 220.849885 
L 344.658588 215.040259 
L 345.997788 210.076659 
L 347.671787 204.756975 
L 349.345788 200.169489 
L 351.354588 195.370364 
L 353.363387 191.132381 
L 355.706988 186.690149 
L 358.720188 181.50598 
L 362.737788 175.08869 
L 363.407388 174.042553 
L 363.407388 174.042553 
" clip-path="url(#p06c3a40db6)" style="fill: none; stroke: #404040; stroke-width: 2; stroke-linecap: square"/>
   </g>
   <g id="line2d_13">
    <path d="M 28.942188 173.52 
L 34.298988 156.438513 
L 36.977388 147.179701 
L 39.320988 138.295237 
L 41.329788 129.819272 
L 43.003788 121.915593 
L 44.677788 112.984178 
L 46.351788 102.674876 
L 47.690988 93.101463 
L 49.030188 81.952064 
L 50.369388 68.688646 
L 51.373788 56.884 
L 52.378188 42.951448 
L 53.382588 26.176813 
L 54.386988 5.489453 
L 54.657533 -1 
M 62.756988 -1 
L 62.756988 364.718125 
M 69.562467 364.718125 
L 70.457388 341.550547 
L 71.461788 320.863187 
L 72.466188 304.088552 
L 73.805388 286.012705 
L 75.144588 271.412979 
L 76.483788 259.287381 
L 77.822988 248.981203 
L 79.496988 237.990117 
L 81.170988 228.556748 
L 82.844988 220.276662 
L 84.853788 211.466901 
L 87.197388 202.309236 
L 89.875788 192.848171 
L 93.223788 181.924441 
L 102.598188 151.903742 
L 105.276588 142.214299 
L 107.285388 134.17545 
L 109.294188 125.184579 
L 110.968188 116.69972 
L 112.642188 106.992 
L 113.981388 98.058797 
L 115.320588 87.752619 
L 116.659788 75.627021 
L 117.998988 61.027295 
L 119.003388 47.870473 
L 120.007788 32.140803 
L 121.012188 12.9072 
L 121.617533 -1 
M 129.716988 -1 
L 129.716988 364.718125 
M 136.522467 364.718125 
L 137.417388 341.550547 
L 138.421788 320.863187 
L 139.426188 304.088552 
L 140.765388 286.012705 
L 142.104588 271.412979 
L 143.443788 259.287381 
L 144.782988 248.981203 
L 146.456988 237.990117 
L 148.130988 228.556748 
L 149.804988 220.276662 
L 151.813788 211.466901 
L 154.157388 202.309236 
L 156.835788 192.848171 
L 160.183787 181.924441 
L 169.558188 151.903742 
L 172.236588 142.214299 
L 174.245387 134.17545 
L 176.254188 125.184579 
L 177.928188 116.69972 
L 179.602188 106.992 
L 180.941388 98.058797 
L 182.280588 87.752619 
L 183.619788 75.627021 
L 184.958988 61.027295 
L 185.963388 47.870473 
L 186.967787 32.140803 
L 187.972188 12.9072 
L 188.577533 -1 
M 196.676987 -1 
L 196.676987 364.718125 
M 203.482467 364.718125 
L 204.377388 341.550547 
L 205.381788 320.863187 
L 206.386188 304.088552 
L 207.725388 286.012705 
L 209.064588 271.412979 
L 210.403788 259.287381 
L 211.742988 248.981203 
L 213.416988 237.990117 
L 215.090988 228.556748 
L 216.764988 220.276662 
L 218.773788 211.466901 
L 221.117388 202.309236 
L 223.795788 192.848171 
L 227.143788 181.924441 
L 236.518188 151.903742 
L 239.196588 142.214299 
L 241.205388 134.17545 
L 243.214188 125.184579 
L 244.888188 116.69972 
L 246.562188 106.992 
L 247.901388 98.058797 
L 249.240588 87.752619 
L 250.579788 75.627021 
L 251.918988 61.027295 
L 252.923388 47.870473 
L 253.927788 32.140803 
L 254.932188 12.9072 
L 255.537533 -1 
M 263.636988 -1 
L 263.636988 364.718125 
M 270.442467 364.718125 
L 271.337388 341.550547 
L 272.341788 320.863187 
L 273.346188 304.088552 
L 274.685388 286.012705 
L 276.024588 271.412979 
L 277.363788 259.287381 
L 278.702988 248.981203 
L 280.376988 237.990117 
L 282.050988 228.556748 
L 283.724988 220.276662 
L 285.733788 211.466901 
L 288.077388 202.309236 
L 290.755788 192.848171 
L 294.103788 181.924441 
L 303.478187 151.903742 
L 306.156588 142.214299 
L 308.165388 134.17545 
L 310.174188 125.184579 
L 311.848187 116.69972 
L 313.522188 106.992 
L 314.861388 98.058797 
L 316.200588 87.752619 
L 317.539788 75.627021 
L 318.878988 61.027295 
L 319.883388 47.870473 
L 320.887788 32.140803 
L 321.892188 12.9072 
L 322.497533 -1 
M 330.596988 -1 
L 330.596988 364.718125 
M 337.402467 364.718125 
L 338.297388 341.550547 
L 339.301787 320.863187 
L 340.306188 304.088552 
L 341.645388 286.012705 
L 342.984588 271.412979 
L 344.323788 259.287381 
L 345.662988 248.981203 
L 347.336988 237.990117 
L 349.010988 228.556748 
L 350.684988 220.276662 
L 352.693788 211.466901 
L 355.037388 202.309236 
L 357.715788 192.848171 
L 361.063788 181.924441 
L 363.407388 174.565105 
L 363.407388 174.565105 
" clip-path="url(#p06c3a40db6)" style="fill: none; stroke: #808080; stroke-width: 2; stroke-linecap: square"/>
   </g>
   <g id="line2d_14">
    <path d="M 28.942188 173.52 
L 33.964188 149.56206 
L 36.642588 135.811745 
L 38.986187 122.673436 
L 40.994988 110.190071 
L 42.668988 98.594047 
L 44.342988 85.541517 
L 46.016988 70.542644 
L 47.356188 56.67858 
L 48.695388 40.609535 
L 50.034588 21.601199 
L 51.350408 -1 
M 62.756988 -1 
L 62.756988 364.718125 
M 72.677394 364.718125 
L 73.805388 342.259057 
L 75.144588 320.359469 
L 76.483788 302.171071 
L 77.822988 286.711805 
L 79.496988 270.225176 
L 81.170988 256.075122 
L 82.844988 243.654992 
L 84.853788 230.440352 
L 87.197388 216.703855 
L 89.875788 202.512256 
L 93.223788 186.126661 
L 102.598188 141.095614 
L 104.941788 128.462184 
L 106.950588 116.599648 
L 108.959388 103.385008 
L 110.633388 90.964878 
L 112.307388 76.814824 
L 113.646588 63.850024 
L 114.985788 48.959223 
L 116.324988 31.530346 
L 117.664188 10.674256 
L 118.310408 -1 
M 129.716988 -1 
L 129.716988 364.718125 
M 139.637394 364.718125 
L 140.765388 342.259057 
L 142.104588 320.359469 
L 143.443788 302.171071 
L 144.782988 286.711805 
L 146.456988 270.225176 
L 148.130988 256.075122 
L 149.804988 243.654992 
L 151.813788 230.440352 
L 154.157388 216.703855 
L 156.835788 202.512256 
L 160.183787 186.126661 
L 169.558188 141.095614 
L 171.901788 128.462184 
L 173.910588 116.599648 
L 175.919388 103.385008 
L 177.593388 90.964878 
L 179.267388 76.814824 
L 180.606588 63.850024 
L 181.945788 48.959223 
L 183.284988 31.530346 
L 184.624188 10.674256 
L 185.270408 -1 
M 196.676987 -1 
L 196.676987 364.718125 
M 206.597394 364.718125 
L 207.725388 342.259057 
L 209.064588 320.359469 
L 210.403788 302.171071 
L 211.742988 286.711805 
L 213.416988 270.225176 
L 215.090988 256.075122 
L 216.764988 243.654992 
L 218.773788 230.440352 
L 221.117388 216.703855 
L 223.795788 202.512256 
L 227.143788 186.126661 
L 236.518188 141.095614 
L 238.861788 128.462184 
L 240.870588 116.599648 
L 242.879388 103.385008 
L 244.553388 90.964878 
L 246.227388 76.814824 
L 247.566588 63.850024 
L 248.905788 48.959223 
L 250.244988 31.530346 
L 251.584188 10.674256 
L 252.230408 -1 
M 263.636988 -1 
L 263.636988 364.718125 
M 273.557394 364.718125 
L 274.685388 342.259057 
L 276.024588 320.359469 
L 277.363788 302.171071 
L 278.702988 286.711805 
L 280.376988 270.225176 
L 282.050988 256.075122 
L 283.724988 243.654992 
L 285.733788 230.440352 
L 288.077388 216.703855 
L 290.755788 202.512256 
L 294.103788 186.126661 
L 303.478187 141.095614 
L 305.821788 128.462184 
L 307.830588 116.599648 
L 309.839388 103.385008 
L 311.513388 90.964878 
L 313.187388 76.814824 
L 314.526588 63.850024 
L 315.865788 48.959223 
L 317.204988 31.530346 
L 318.544188 10.674256 
L 319.190408 -1 
M 330.596988 -1 
L 330.596988 364.718125 
M 340.517394 364.718125 
L 341.645388 342.259057 
L 342.984588 320.359469 
L 344.323788 302.171071 
L 345.662988 286.711805 
L 347.336988 270.225176 
L 349.010988 256.075122 
L 350.684988 243.654992 
L 352.693788 230.440352 
L 355.037388 216.703855 
L 357.715788 202.512256 
L 361.063788 186.126661 
L 363.407388 175.087658 
L 363.407388 175.087658 
" clip-path="url(#p06c3a40db6)" style="fill: none; stroke: #bfbfbf; stroke-width: 2; stroke-linecap: square"/>
   </g>
   <g id="patch_3">
    <path d="M 28.942188 339.84 
L 28.942188 7.2 
" style="fill: none; stroke: #000000; stroke-width: 0.8; stroke-linejoin: miter; stroke-linecap: square"/>
   </g>
   <g id="patch_4">
    <path d="M 363.742188 339.84 
L 363.742188 7.2 
" style="fill: none; stroke: #000000; stroke-width: 0.8; stroke-linejoin: miter; stroke-linecap: square"/>
   </g>
   <g id="patch_5">
    <path d="M 28.942188 339.84 
L 363.742188 339.84 
" style="fill: none; stroke: #000000; stroke-width: 0.8; stroke-linejoin: miter; stroke-linecap: square"/>
   </g>
   <g id="patch_6">
    <path d="M 28.942188 7.2 
L 363.742188 7.2 
" style="fill: none; stroke: #000000; stroke-width: 0.8; stroke-linejoin: miter; stroke-linecap: square"/>
   </g>
  </g>
 </g>
 <defs>
  <clipPath id="p06c3a40db6">
   <rect x="28.942188" y="7.2" width="334.8" height="332.64"/>
  </clipPath>
 </defs>
</svg>
