<?xml version="1.0" encoding="utf-8" standalone="no"?>
<!DOCTYPE svg PUBLIC "-//W3C//DTD SVG 1.1//EN"
  "http://www.w3.org/Graphics/SVG/1.1/DTD/svg11.dtd">
<svg xmlns:xlink="http://www.w3.org/1999/xlink" width="395.31375pt" height="379.331875pt" viewBox="0 0 395.31375 379.331875" xmlns="http://www.w3.org/2000/svg" version="1.1">
 <metadata>
  <rdf:RDF xmlns:dc="http://purl.org/dc/elements/1.1/" xmlns:cc="http://creativecommons.org/ns#" xmlns:rdf="http://www.w3.org/1999/02/22-rdf-syntax-ns#">
   <cc:Work>
    <dc:type rdf:resource="http://purl.org/dc/dcmitype/StillImage"/>
    <dc:date>2022-05-03T11:23:38.816301</dc:date>
    <dc:format>image/svg+xml</dc:format>
    <dc:creator>
     <cc:Agent>
      <dc:title>Matplotlib v3.5.2, https://matplotlib.org/</dc:title>
     </cc:Agent>
    </dc:creator>
   </cc:Work>
  </rdf:RDF>
 </metadata>
 <defs>
  <style type="text/css">*{stroke-linejoin: round; stroke-linecap: butt}</style>
 </defs>
 <g id="figure_1">
  <g id="patch_1">
   <path d="M 0 379.331875 
L 395.31375 379.331875 
L 395.31375 0 
L 0 0 
L 0 379.331875 
z
" style="fill: none"/>
  </g>
  <g id="axes_1">
   <g id="patch_2">
    <path d="M 53.31375 339.84 
L 388.11375 339.84 
L 388.11375 7.2 
L 53.31375 7.2 
z
" style="fill: #ffffff"/>
   </g>
   <g id="matplotlib.axis_1">
    <g id="xtick_1">
     <g id="line2d_1">
      <defs>
       <path id="m8682469ae2" d="M 0 0 
L 0 3.5 
" style="stroke: #000000; stroke-width: 0.8"/>
      </defs>
      <g>
       <use xlink:href="#m8682469ae2" x="68.531932" y="339.84" style="stroke: #000000; stroke-width: 0.8"/>
      </g>
     </g>
     <g id="text_1">
      <!-- $\mathdefault{10^{-1}}$ -->
      <g transform="translate(56.781932 354.438437)scale(0.1 -0.1)">
       <defs>
        <path id="DejaVuSans-31" d="M 794 531 
L 1825 531 
L 1825 4091 
L 703 3866 
L 703 4441 
L 1819 4666 
L 2450 4666 
L 2450 531 
L 3481 531 
L 3481 0 
L 794 0 
L 794 531 
z
" transform="scale(0.015625)"/>
        <path id="DejaVuSans-30" d="M 2034 4250 
Q 1547 4250 1301 3770 
Q 1056 3291 1056 2328 
Q 1056 1369 1301 889 
Q 1547 409 2034 409 
Q 2525 409 2770 889 
Q 3016 1369 3016 2328 
Q 3016 3291 2770 3770 
Q 2525 4250 2034 4250 
z
M 2034 4750 
Q 2819 4750 3233 4129 
Q 3647 3509 3647 2328 
Q 3647 1150 3233 529 
Q 2819 -91 2034 -91 
Q 1250 -91 836 529 
Q 422 1150 422 2328 
Q 422 3509 836 4129 
Q 1250 4750 2034 4750 
z
" transform="scale(0.015625)"/>
        <path id="DejaVuSans-2212" d="M 678 2272 
L 4684 2272 
L 4684 1741 
L 678 1741 
L 678 2272 
z
" transform="scale(0.015625)"/>
       </defs>
       <use xlink:href="#DejaVuSans-31" transform="translate(0 0.684375)"/>
       <use xlink:href="#DejaVuSans-30" transform="translate(63.623047 0.684375)"/>
       <use xlink:href="#DejaVuSans-2212" transform="translate(128.203125 38.965625)scale(0.7)"/>
       <use xlink:href="#DejaVuSans-31" transform="translate(186.855469 38.965625)scale(0.7)"/>
      </g>
     </g>
    </g>
    <g id="xtick_2">
     <g id="line2d_2">
      <g>
       <use xlink:href="#m8682469ae2" x="200.804713" y="339.84" style="stroke: #000000; stroke-width: 0.8"/>
      </g>
     </g>
     <g id="text_2">
      <!-- $\mathdefault{10^{0}}$ -->
      <g transform="translate(192.004713 354.438437)scale(0.1 -0.1)">
       <use xlink:href="#DejaVuSans-31" transform="translate(0 0.765625)"/>
       <use xlink:href="#DejaVuSans-30" transform="translate(63.623047 0.765625)"/>
       <use xlink:href="#DejaVuSans-30" transform="translate(128.203125 39.046875)scale(0.7)"/>
      </g>
     </g>
    </g>
    <g id="xtick_3">
     <g id="line2d_3">
      <g>
       <use xlink:href="#m8682469ae2" x="333.077494" y="339.84" style="stroke: #000000; stroke-width: 0.8"/>
      </g>
     </g>
     <g id="text_3">
      <!-- $\mathdefault{10^{1}}$ -->
      <g transform="translate(324.277494 354.438437)scale(0.1 -0.1)">
       <use xlink:href="#DejaVuSans-31" transform="translate(0 0.684375)"/>
       <use xlink:href="#DejaVuSans-30" transform="translate(63.623047 0.684375)"/>
       <use xlink:href="#DejaVuSans-31" transform="translate(128.203125 38.965625)scale(0.7)"/>
      </g>
     </g>
    </g>
    <g id="xtick_4">
     <g id="line2d_4">
      <defs>
       <path id="m0217d54cd4" d="M 0 0 
L 0 2 
" style="stroke: #000000; stroke-width: 0.6"/>
      </defs>
      <g>
       <use xlink:href="#m0217d54cd4" x="55.713375" y="339.84" style="stroke: #000000; stroke-width: 0.6"/>
      </g>
     </g>
    </g>
    <g id="xtick_5">
     <g id="line2d_5">
      <g>
       <use xlink:href="#m0217d54cd4" x="62.479461" y="339.84" style="stroke: #000000; stroke-width: 0.6"/>
      </g>
     </g>
    </g>
    <g id="xtick_6">
     <g id="line2d_6">
      <g>
       <use xlink:href="#m0217d54cd4" x="108.350006" y="339.84" style="stroke: #000000; stroke-width: 0.6"/>
      </g>
     </g>
    </g>
    <g id="xtick_7">
     <g id="line2d_7">
      <g>
       <use xlink:href="#m0217d54cd4" x="131.642087" y="339.84" style="stroke: #000000; stroke-width: 0.6"/>
      </g>
     </g>
    </g>
    <g id="xtick_8">
     <g id="line2d_8">
      <g>
       <use xlink:href="#m0217d54cd4" x="148.168081" y="339.84" style="stroke: #000000; stroke-width: 0.6"/>
      </g>
     </g>
    </g>
    <g id="xtick_9">
     <g id="line2d_9">
      <g>
       <use xlink:href="#m0217d54cd4" x="160.986638" y="339.84" style="stroke: #000000; stroke-width: 0.6"/>
      </g>
     </g>
    </g>
    <g id="xtick_10">
     <g id="line2d_10">
      <g>
       <use xlink:href="#m0217d54cd4" x="171.460162" y="339.84" style="stroke: #000000; stroke-width: 0.6"/>
      </g>
     </g>
    </g>
    <g id="xtick_11">
     <g id="line2d_11">
      <g>
       <use xlink:href="#m0217d54cd4" x="180.3154" y="339.84" style="stroke: #000000; stroke-width: 0.6"/>
      </g>
     </g>
    </g>
    <g id="xtick_12">
     <g id="line2d_12">
      <g>
       <use xlink:href="#m0217d54cd4" x="187.986156" y="339.84" style="stroke: #000000; stroke-width: 0.6"/>
      </g>
     </g>
    </g>
    <g id="xtick_13">
     <g id="line2d_13">
      <g>
       <use xlink:href="#m0217d54cd4" x="194.752242" y="339.84" style="stroke: #000000; stroke-width: 0.6"/>
      </g>
     </g>
    </g>
    <g id="xtick_14">
     <g id="line2d_14">
      <g>
       <use xlink:href="#m0217d54cd4" x="240.622787" y="339.84" style="stroke: #000000; stroke-width: 0.6"/>
      </g>
     </g>
    </g>
    <g id="xtick_15">
     <g id="line2d_15">
      <g>
       <use xlink:href="#m0217d54cd4" x="263.914868" y="339.84" style="stroke: #000000; stroke-width: 0.6"/>
      </g>
     </g>
    </g>
    <g id="xtick_16">
     <g id="line2d_16">
      <g>
       <use xlink:href="#m0217d54cd4" x="280.440862" y="339.84" style="stroke: #000000; stroke-width: 0.6"/>
      </g>
     </g>
    </g>
    <g id="xtick_17">
     <g id="line2d_17">
      <g>
       <use xlink:href="#m0217d54cd4" x="293.259419" y="339.84" style="stroke: #000000; stroke-width: 0.6"/>
      </g>
     </g>
    </g>
    <g id="xtick_18">
     <g id="line2d_18">
      <g>
       <use xlink:href="#m0217d54cd4" x="303.732942" y="339.84" style="stroke: #000000; stroke-width: 0.6"/>
      </g>
     </g>
    </g>
    <g id="xtick_19">
     <g id="line2d_19">
      <g>
       <use xlink:href="#m0217d54cd4" x="312.588181" y="339.84" style="stroke: #000000; stroke-width: 0.6"/>
      </g>
     </g>
    </g>
    <g id="xtick_20">
     <g id="line2d_20">
      <g>
       <use xlink:href="#m0217d54cd4" x="320.258937" y="339.84" style="stroke: #000000; stroke-width: 0.6"/>
      </g>
     </g>
    </g>
    <g id="xtick_21">
     <g id="line2d_21">
      <g>
       <use xlink:href="#m0217d54cd4" x="327.025023" y="339.84" style="stroke: #000000; stroke-width: 0.6"/>
      </g>
     </g>
    </g>
    <g id="xtick_22">
     <g id="line2d_22">
      <g>
       <use xlink:href="#m0217d54cd4" x="372.895568" y="339.84" style="stroke: #000000; stroke-width: 0.6"/>
      </g>
     </g>
    </g>
    <g id="text_4">
     <!-- r -->
     <g transform="translate(218.247188 369.63625)scale(0.12 -0.12)">
      <defs>
       <path id="DejaVuSans-72" d="M 2631 2963 
Q 2534 3019 2420 3045 
Q 2306 3072 2169 3072 
Q 1681 3072 1420 2755 
Q 1159 2438 1159 1844 
L 1159 0 
L 581 0 
L 581 3500 
L 1159 3500 
L 1159 2956 
Q 1341 3275 1631 3429 
Q 1922 3584 2338 3584 
Q 2397 3584 2469 3576 
Q 2541 3569 2628 3553 
L 2631 2963 
z
" transform="scale(0.015625)"/>
      </defs>
      <use xlink:href="#DejaVuSans-72"/>
     </g>
    </g>
   </g>
   <g id="matplotlib.axis_2">
    <g id="ytick_1">
     <g id="line2d_23">
      <defs>
       <path id="m09605b767a" d="M 0 0 
L -3.5 0 
" style="stroke: #000000; stroke-width: 0.8"/>
      </defs>
      <g>
       <use xlink:href="#m09605b767a" x="53.31375" y="299.617561" style="stroke: #000000; stroke-width: 0.8"/>
      </g>
     </g>
     <g id="text_5">
      <!-- $\mathdefault{10^{-6}}$ -->
      <g transform="translate(22.81375 303.41678)scale(0.1 -0.1)">
       <defs>
        <path id="DejaVuSans-36" d="M 2113 2584 
Q 1688 2584 1439 2293 
Q 1191 2003 1191 1497 
Q 1191 994 1439 701 
Q 1688 409 2113 409 
Q 2538 409 2786 701 
Q 3034 994 3034 1497 
Q 3034 2003 2786 2293 
Q 2538 2584 2113 2584 
z
M 3366 4563 
L 3366 3988 
Q 3128 4100 2886 4159 
Q 2644 4219 2406 4219 
Q 1781 4219 1451 3797 
Q 1122 3375 1075 2522 
Q 1259 2794 1537 2939 
Q 1816 3084 2150 3084 
Q 2853 3084 3261 2657 
Q 3669 2231 3669 1497 
Q 3669 778 3244 343 
Q 2819 -91 2113 -91 
Q 1303 -91 875 529 
Q 447 1150 447 2328 
Q 447 3434 972 4092 
Q 1497 4750 2381 4750 
Q 2619 4750 2861 4703 
Q 3103 4656 3366 4563 
z
" transform="scale(0.015625)"/>
       </defs>
       <use xlink:href="#DejaVuSans-31" transform="translate(0 0.765625)"/>
       <use xlink:href="#DejaVuSans-30" transform="translate(63.623047 0.765625)"/>
       <use xlink:href="#DejaVuSans-2212" transform="translate(128.203125 39.046875)scale(0.7)"/>
       <use xlink:href="#DejaVuSans-36" transform="translate(186.855469 39.046875)scale(0.7)"/>
      </g>
     </g>
    </g>
    <g id="ytick_2">
     <g id="line2d_24">
      <g>
       <use xlink:href="#m09605b767a" x="53.31375" y="253.401301" style="stroke: #000000; stroke-width: 0.8"/>
      </g>
     </g>
     <g id="text_6">
      <!-- $\mathdefault{10^{-5}}$ -->
      <g transform="translate(22.81375 257.20052)scale(0.1 -0.1)">
       <defs>
        <path id="DejaVuSans-35" d="M 691 4666 
L 3169 4666 
L 3169 4134 
L 1269 4134 
L 1269 2991 
Q 1406 3038 1543 3061 
Q 1681 3084 1819 3084 
Q 2600 3084 3056 2656 
Q 3513 2228 3513 1497 
Q 3513 744 3044 326 
Q 2575 -91 1722 -91 
Q 1428 -91 1123 -41 
Q 819 9 494 109 
L 494 744 
Q 775 591 1075 516 
Q 1375 441 1709 441 
Q 2250 441 2565 725 
Q 2881 1009 2881 1497 
Q 2881 1984 2565 2268 
Q 2250 2553 1709 2553 
Q 1456 2553 1204 2497 
Q 953 2441 691 2322 
L 691 4666 
z
" transform="scale(0.015625)"/>
       </defs>
       <use xlink:href="#DejaVuSans-31" transform="translate(0 0.684375)"/>
       <use xlink:href="#DejaVuSans-30" transform="translate(63.623047 0.684375)"/>
       <use xlink:href="#DejaVuSans-2212" transform="translate(128.203125 38.965625)scale(0.7)"/>
       <use xlink:href="#DejaVuSans-35" transform="translate(186.855469 38.965625)scale(0.7)"/>
      </g>
     </g>
    </g>
    <g id="ytick_3">
     <g id="line2d_25">
      <g>
       <use xlink:href="#m09605b767a" x="53.31375" y="207.185041" style="stroke: #000000; stroke-width: 0.8"/>
      </g>
     </g>
     <g id="text_7">
      <!-- $\mathdefault{10^{-4}}$ -->
      <g transform="translate(22.81375 210.984259)scale(0.1 -0.1)">
       <defs>
        <path id="DejaVuSans-34" d="M 2419 4116 
L 825 1625 
L 2419 1625 
L 2419 4116 
z
M 2253 4666 
L 3047 4666 
L 3047 1625 
L 3713 1625 
L 3713 1100 
L 3047 1100 
L 3047 0 
L 2419 0 
L 2419 1100 
L 313 1100 
L 313 1709 
L 2253 4666 
z
" transform="scale(0.015625)"/>
       </defs>
       <use xlink:href="#DejaVuSans-31" transform="translate(0 0.684375)"/>
       <use xlink:href="#DejaVuSans-30" transform="translate(63.623047 0.684375)"/>
       <use xlink:href="#DejaVuSans-2212" transform="translate(128.203125 38.965625)scale(0.7)"/>
       <use xlink:href="#DejaVuSans-34" transform="translate(186.855469 38.965625)scale(0.7)"/>
      </g>
     </g>
    </g>
    <g id="ytick_4">
     <g id="line2d_26">
      <g>
       <use xlink:href="#m09605b767a" x="53.31375" y="160.968781" style="stroke: #000000; stroke-width: 0.8"/>
      </g>
     </g>
     <g id="text_8">
      <!-- $\mathdefault{10^{-3}}$ -->
      <g transform="translate(22.81375 164.767999)scale(0.1 -0.1)">
       <defs>
        <path id="DejaVuSans-33" d="M 2597 2516 
Q 3050 2419 3304 2112 
Q 3559 1806 3559 1356 
Q 3559 666 3084 287 
Q 2609 -91 1734 -91 
Q 1441 -91 1130 -33 
Q 819 25 488 141 
L 488 750 
Q 750 597 1062 519 
Q 1375 441 1716 441 
Q 2309 441 2620 675 
Q 2931 909 2931 1356 
Q 2931 1769 2642 2001 
Q 2353 2234 1838 2234 
L 1294 2234 
L 1294 2753 
L 1863 2753 
Q 2328 2753 2575 2939 
Q 2822 3125 2822 3475 
Q 2822 3834 2567 4026 
Q 2313 4219 1838 4219 
Q 1578 4219 1281 4162 
Q 984 4106 628 3988 
L 628 4550 
Q 988 4650 1302 4700 
Q 1616 4750 1894 4750 
Q 2613 4750 3031 4423 
Q 3450 4097 3450 3541 
Q 3450 3153 3228 2886 
Q 3006 2619 2597 2516 
z
" transform="scale(0.015625)"/>
       </defs>
       <use xlink:href="#DejaVuSans-31" transform="translate(0 0.765625)"/>
       <use xlink:href="#DejaVuSans-30" transform="translate(63.623047 0.765625)"/>
       <use xlink:href="#DejaVuSans-2212" transform="translate(128.203125 39.046875)scale(0.7)"/>
       <use xlink:href="#DejaVuSans-33" transform="translate(186.855469 39.046875)scale(0.7)"/>
      </g>
     </g>
    </g>
    <g id="ytick_5">
     <g id="line2d_27">
      <g>
       <use xlink:href="#m09605b767a" x="53.31375" y="114.75252" style="stroke: #000000; stroke-width: 0.8"/>
      </g>
     </g>
     <g id="text_9">
      <!-- $\mathdefault{10^{-2}}$ -->
      <g transform="translate(22.81375 118.551739)scale(0.1 -0.1)">
       <defs>
        <path id="DejaVuSans-32" d="M 1228 531 
L 3431 531 
L 3431 0 
L 469 0 
L 469 531 
Q 828 903 1448 1529 
Q 2069 2156 2228 2338 
Q 2531 2678 2651 2914 
Q 2772 3150 2772 3378 
Q 2772 3750 2511 3984 
Q 2250 4219 1831 4219 
Q 1534 4219 1204 4116 
Q 875 4013 500 3803 
L 500 4441 
Q 881 4594 1212 4672 
Q 1544 4750 1819 4750 
Q 2544 4750 2975 4387 
Q 3406 4025 3406 3419 
Q 3406 3131 3298 2873 
Q 3191 2616 2906 2266 
Q 2828 2175 2409 1742 
Q 1991 1309 1228 531 
z
" transform="scale(0.015625)"/>
       </defs>
       <use xlink:href="#DejaVuSans-31" transform="translate(0 0.765625)"/>
       <use xlink:href="#DejaVuSans-30" transform="translate(63.623047 0.765625)"/>
       <use xlink:href="#DejaVuSans-2212" transform="translate(128.203125 39.046875)scale(0.7)"/>
       <use xlink:href="#DejaVuSans-32" transform="translate(186.855469 39.046875)scale(0.7)"/>
      </g>
     </g>
    </g>
    <g id="ytick_6">
     <g id="line2d_28">
      <g>
       <use xlink:href="#m09605b767a" x="53.31375" y="68.53626" style="stroke: #000000; stroke-width: 0.8"/>
      </g>
     </g>
     <g id="text_10">
      <!-- $\mathdefault{10^{-1}}$ -->
      <g transform="translate(22.81375 72.335479)scale(0.1 -0.1)">
       <use xlink:href="#DejaVuSans-31" transform="translate(0 0.684375)"/>
       <use xlink:href="#DejaVuSans-30" transform="translate(63.623047 0.684375)"/>
       <use xlink:href="#DejaVuSans-2212" transform="translate(128.203125 38.965625)scale(0.7)"/>
       <use xlink:href="#DejaVuSans-31" transform="translate(186.855469 38.965625)scale(0.7)"/>
      </g>
     </g>
    </g>
    <g id="ytick_7">
     <g id="line2d_29">
      <g>
       <use xlink:href="#m09605b767a" x="53.31375" y="22.32" style="stroke: #000000; stroke-width: 0.8"/>
      </g>
     </g>
     <g id="text_11">
      <!-- $\mathdefault{10^{0}}$ -->
      <g transform="translate(28.71375 26.119219)scale(0.1 -0.1)">
       <use xlink:href="#DejaVuSans-31" transform="translate(0 0.765625)"/>
       <use xlink:href="#DejaVuSans-30" transform="translate(63.623047 0.765625)"/>
       <use xlink:href="#DejaVuSans-30" transform="translate(128.203125 39.046875)scale(0.7)"/>
      </g>
     </g>
    </g>
    <g id="ytick_8">
     <g id="line2d_30">
      <defs>
       <path id="m9f1c7b1f17" d="M 0 0 
L -2 0 
" style="stroke: #000000; stroke-width: 0.6"/>
      </defs>
      <g>
       <use xlink:href="#m9f1c7b1f17" x="53.31375" y="331.921341" style="stroke: #000000; stroke-width: 0.6"/>
      </g>
     </g>
    </g>
    <g id="ytick_9">
     <g id="line2d_31">
      <g>
       <use xlink:href="#m9f1c7b1f17" x="53.31375" y="323.783061" style="stroke: #000000; stroke-width: 0.6"/>
      </g>
     </g>
    </g>
    <g id="ytick_10">
     <g id="line2d_32">
      <g>
       <use xlink:href="#m9f1c7b1f17" x="53.31375" y="318.00886" style="stroke: #000000; stroke-width: 0.6"/>
      </g>
     </g>
    </g>
    <g id="ytick_11">
     <g id="line2d_33">
      <g>
       <use xlink:href="#m9f1c7b1f17" x="53.31375" y="313.530042" style="stroke: #000000; stroke-width: 0.6"/>
      </g>
     </g>
    </g>
    <g id="ytick_12">
     <g id="line2d_34">
      <g>
       <use xlink:href="#m9f1c7b1f17" x="53.31375" y="309.870581" style="stroke: #000000; stroke-width: 0.6"/>
      </g>
     </g>
    </g>
    <g id="ytick_13">
     <g id="line2d_35">
      <g>
       <use xlink:href="#m9f1c7b1f17" x="53.31375" y="306.77655" style="stroke: #000000; stroke-width: 0.6"/>
      </g>
     </g>
    </g>
    <g id="ytick_14">
     <g id="line2d_36">
      <g>
       <use xlink:href="#m9f1c7b1f17" x="53.31375" y="304.096379" style="stroke: #000000; stroke-width: 0.6"/>
      </g>
     </g>
    </g>
    <g id="ytick_15">
     <g id="line2d_37">
      <g>
       <use xlink:href="#m9f1c7b1f17" x="53.31375" y="301.732301" style="stroke: #000000; stroke-width: 0.6"/>
      </g>
     </g>
    </g>
    <g id="ytick_16">
     <g id="line2d_38">
      <g>
       <use xlink:href="#m9f1c7b1f17" x="53.31375" y="285.70508" style="stroke: #000000; stroke-width: 0.6"/>
      </g>
     </g>
    </g>
    <g id="ytick_17">
     <g id="line2d_39">
      <g>
       <use xlink:href="#m9f1c7b1f17" x="53.31375" y="277.566801" style="stroke: #000000; stroke-width: 0.6"/>
      </g>
     </g>
    </g>
    <g id="ytick_18">
     <g id="line2d_40">
      <g>
       <use xlink:href="#m9f1c7b1f17" x="53.31375" y="271.7926" style="stroke: #000000; stroke-width: 0.6"/>
      </g>
     </g>
    </g>
    <g id="ytick_19">
     <g id="line2d_41">
      <g>
       <use xlink:href="#m9f1c7b1f17" x="53.31375" y="267.313781" style="stroke: #000000; stroke-width: 0.6"/>
      </g>
     </g>
    </g>
    <g id="ytick_20">
     <g id="line2d_42">
      <g>
       <use xlink:href="#m9f1c7b1f17" x="53.31375" y="263.65432" style="stroke: #000000; stroke-width: 0.6"/>
      </g>
     </g>
    </g>
    <g id="ytick_21">
     <g id="line2d_43">
      <g>
       <use xlink:href="#m9f1c7b1f17" x="53.31375" y="260.56029" style="stroke: #000000; stroke-width: 0.6"/>
      </g>
     </g>
    </g>
    <g id="ytick_22">
     <g id="line2d_44">
      <g>
       <use xlink:href="#m9f1c7b1f17" x="53.31375" y="257.880119" style="stroke: #000000; stroke-width: 0.6"/>
      </g>
     </g>
    </g>
    <g id="ytick_23">
     <g id="line2d_45">
      <g>
       <use xlink:href="#m9f1c7b1f17" x="53.31375" y="255.516041" style="stroke: #000000; stroke-width: 0.6"/>
      </g>
     </g>
    </g>
    <g id="ytick_24">
     <g id="line2d_46">
      <g>
       <use xlink:href="#m9f1c7b1f17" x="53.31375" y="239.48882" style="stroke: #000000; stroke-width: 0.6"/>
      </g>
     </g>
    </g>
    <g id="ytick_25">
     <g id="line2d_47">
      <g>
       <use xlink:href="#m9f1c7b1f17" x="53.31375" y="231.350541" style="stroke: #000000; stroke-width: 0.6"/>
      </g>
     </g>
    </g>
    <g id="ytick_26">
     <g id="line2d_48">
      <g>
       <use xlink:href="#m9f1c7b1f17" x="53.31375" y="225.57634" style="stroke: #000000; stroke-width: 0.6"/>
      </g>
     </g>
    </g>
    <g id="ytick_27">
     <g id="line2d_49">
      <g>
       <use xlink:href="#m9f1c7b1f17" x="53.31375" y="221.097521" style="stroke: #000000; stroke-width: 0.6"/>
      </g>
     </g>
    </g>
    <g id="ytick_28">
     <g id="line2d_50">
      <g>
       <use xlink:href="#m9f1c7b1f17" x="53.31375" y="217.43806" style="stroke: #000000; stroke-width: 0.6"/>
      </g>
     </g>
    </g>
    <g id="ytick_29">
     <g id="line2d_51">
      <g>
       <use xlink:href="#m9f1c7b1f17" x="53.31375" y="214.34403" style="stroke: #000000; stroke-width: 0.6"/>
      </g>
     </g>
    </g>
    <g id="ytick_30">
     <g id="line2d_52">
      <g>
       <use xlink:href="#m9f1c7b1f17" x="53.31375" y="211.663859" style="stroke: #000000; stroke-width: 0.6"/>
      </g>
     </g>
    </g>
    <g id="ytick_31">
     <g id="line2d_53">
      <g>
       <use xlink:href="#m9f1c7b1f17" x="53.31375" y="209.299781" style="stroke: #000000; stroke-width: 0.6"/>
      </g>
     </g>
    </g>
    <g id="ytick_32">
     <g id="line2d_54">
      <g>
       <use xlink:href="#m9f1c7b1f17" x="53.31375" y="193.27256" style="stroke: #000000; stroke-width: 0.6"/>
      </g>
     </g>
    </g>
    <g id="ytick_33">
     <g id="line2d_55">
      <g>
       <use xlink:href="#m9f1c7b1f17" x="53.31375" y="185.134281" style="stroke: #000000; stroke-width: 0.6"/>
      </g>
     </g>
    </g>
    <g id="ytick_34">
     <g id="line2d_56">
      <g>
       <use xlink:href="#m9f1c7b1f17" x="53.31375" y="179.360079" style="stroke: #000000; stroke-width: 0.6"/>
      </g>
     </g>
    </g>
    <g id="ytick_35">
     <g id="line2d_57">
      <g>
       <use xlink:href="#m9f1c7b1f17" x="53.31375" y="174.881261" style="stroke: #000000; stroke-width: 0.6"/>
      </g>
     </g>
    </g>
    <g id="ytick_36">
     <g id="line2d_58">
      <g>
       <use xlink:href="#m9f1c7b1f17" x="53.31375" y="171.2218" style="stroke: #000000; stroke-width: 0.6"/>
      </g>
     </g>
    </g>
    <g id="ytick_37">
     <g id="line2d_59">
      <g>
       <use xlink:href="#m9f1c7b1f17" x="53.31375" y="168.12777" style="stroke: #000000; stroke-width: 0.6"/>
      </g>
     </g>
    </g>
    <g id="ytick_38">
     <g id="line2d_60">
      <g>
       <use xlink:href="#m9f1c7b1f17" x="53.31375" y="165.447599" style="stroke: #000000; stroke-width: 0.6"/>
      </g>
     </g>
    </g>
    <g id="ytick_39">
     <g id="line2d_61">
      <g>
       <use xlink:href="#m9f1c7b1f17" x="53.31375" y="163.083521" style="stroke: #000000; stroke-width: 0.6"/>
      </g>
     </g>
    </g>
    <g id="ytick_40">
     <g id="line2d_62">
      <g>
       <use xlink:href="#m9f1c7b1f17" x="53.31375" y="147.0563" style="stroke: #000000; stroke-width: 0.6"/>
      </g>
     </g>
    </g>
    <g id="ytick_41">
     <g id="line2d_63">
      <g>
       <use xlink:href="#m9f1c7b1f17" x="53.31375" y="138.91802" style="stroke: #000000; stroke-width: 0.6"/>
      </g>
     </g>
    </g>
    <g id="ytick_42">
     <g id="line2d_64">
      <g>
       <use xlink:href="#m9f1c7b1f17" x="53.31375" y="133.143819" style="stroke: #000000; stroke-width: 0.6"/>
      </g>
     </g>
    </g>
    <g id="ytick_43">
     <g id="line2d_65">
      <g>
       <use xlink:href="#m9f1c7b1f17" x="53.31375" y="128.665001" style="stroke: #000000; stroke-width: 0.6"/>
      </g>
     </g>
    </g>
    <g id="ytick_44">
     <g id="line2d_66">
      <g>
       <use xlink:href="#m9f1c7b1f17" x="53.31375" y="125.00554" style="stroke: #000000; stroke-width: 0.6"/>
      </g>
     </g>
    </g>
    <g id="ytick_45">
     <g id="line2d_67">
      <g>
       <use xlink:href="#m9f1c7b1f17" x="53.31375" y="121.91151" style="stroke: #000000; stroke-width: 0.6"/>
      </g>
     </g>
    </g>
    <g id="ytick_46">
     <g id="line2d_68">
      <g>
       <use xlink:href="#m9f1c7b1f17" x="53.31375" y="119.231339" style="stroke: #000000; stroke-width: 0.6"/>
      </g>
     </g>
    </g>
    <g id="ytick_47">
     <g id="line2d_69">
      <g>
       <use xlink:href="#m9f1c7b1f17" x="53.31375" y="116.86726" style="stroke: #000000; stroke-width: 0.6"/>
      </g>
     </g>
    </g>
    <g id="ytick_48">
     <g id="line2d_70">
      <g>
       <use xlink:href="#m9f1c7b1f17" x="53.31375" y="100.84004" style="stroke: #000000; stroke-width: 0.6"/>
      </g>
     </g>
    </g>
    <g id="ytick_49">
     <g id="line2d_71">
      <g>
       <use xlink:href="#m9f1c7b1f17" x="53.31375" y="92.70176" style="stroke: #000000; stroke-width: 0.6"/>
      </g>
     </g>
    </g>
    <g id="ytick_50">
     <g id="line2d_72">
      <g>
       <use xlink:href="#m9f1c7b1f17" x="53.31375" y="86.927559" style="stroke: #000000; stroke-width: 0.6"/>
      </g>
     </g>
    </g>
    <g id="ytick_51">
     <g id="line2d_73">
      <g>
       <use xlink:href="#m9f1c7b1f17" x="53.31375" y="82.448741" style="stroke: #000000; stroke-width: 0.6"/>
      </g>
     </g>
    </g>
    <g id="ytick_52">
     <g id="line2d_74">
      <g>
       <use xlink:href="#m9f1c7b1f17" x="53.31375" y="78.78928" style="stroke: #000000; stroke-width: 0.6"/>
      </g>
     </g>
    </g>
    <g id="ytick_53">
     <g id="line2d_75">
      <g>
       <use xlink:href="#m9f1c7b1f17" x="53.31375" y="75.695249" style="stroke: #000000; stroke-width: 0.6"/>
      </g>
     </g>
    </g>
    <g id="ytick_54">
     <g id="line2d_76">
      <g>
       <use xlink:href="#m9f1c7b1f17" x="53.31375" y="73.015079" style="stroke: #000000; stroke-width: 0.6"/>
      </g>
     </g>
    </g>
    <g id="ytick_55">
     <g id="line2d_77">
      <g>
       <use xlink:href="#m9f1c7b1f17" x="53.31375" y="70.651" style="stroke: #000000; stroke-width: 0.6"/>
      </g>
     </g>
    </g>
    <g id="ytick_56">
     <g id="line2d_78">
      <g>
       <use xlink:href="#m9f1c7b1f17" x="53.31375" y="54.62378" style="stroke: #000000; stroke-width: 0.6"/>
      </g>
     </g>
    </g>
    <g id="ytick_57">
     <g id="line2d_79">
      <g>
       <use xlink:href="#m9f1c7b1f17" x="53.31375" y="46.4855" style="stroke: #000000; stroke-width: 0.6"/>
      </g>
     </g>
    </g>
    <g id="ytick_58">
     <g id="line2d_80">
      <g>
       <use xlink:href="#m9f1c7b1f17" x="53.31375" y="40.711299" style="stroke: #000000; stroke-width: 0.6"/>
      </g>
     </g>
    </g>
    <g id="ytick_59">
     <g id="line2d_81">
      <g>
       <use xlink:href="#m9f1c7b1f17" x="53.31375" y="36.232481" style="stroke: #000000; stroke-width: 0.6"/>
      </g>
     </g>
    </g>
    <g id="ytick_60">
     <g id="line2d_82">
      <g>
       <use xlink:href="#m9f1c7b1f17" x="53.31375" y="32.57302" style="stroke: #000000; stroke-width: 0.6"/>
      </g>
     </g>
    </g>
    <g id="ytick_61">
     <g id="line2d_83">
      <g>
       <use xlink:href="#m9f1c7b1f17" x="53.31375" y="29.478989" style="stroke: #000000; stroke-width: 0.6"/>
      </g>
     </g>
    </g>
    <g id="ytick_62">
     <g id="line2d_84">
      <g>
       <use xlink:href="#m9f1c7b1f17" x="53.31375" y="26.798818" style="stroke: #000000; stroke-width: 0.6"/>
      </g>
     </g>
    </g>
    <g id="ytick_63">
     <g id="line2d_85">
      <g>
       <use xlink:href="#m9f1c7b1f17" x="53.31375" y="24.43474" style="stroke: #000000; stroke-width: 0.6"/>
      </g>
     </g>
    </g>
    <g id="ytick_64">
     <g id="line2d_86">
      <g>
       <use xlink:href="#m9f1c7b1f17" x="53.31375" y="8.407519" style="stroke: #000000; stroke-width: 0.6"/>
      </g>
     </g>
    </g>
    <g id="text_12">
     <!-- $\sigma/\sigma_0$ -->
     <g transform="translate(16.318125 186)rotate(-90)scale(0.12 -0.12)">
      <defs>
       <path id="DejaVuSans-Oblique-3c3" d="M 2219 3044 
Q 1744 3044 1422 2700 
Q 1081 2341 969 1747 
Q 844 1119 1044 756 
Q 1241 397 1706 397 
Q 2166 397 2503 759 
Q 2844 1122 2966 1747 
Q 3075 2319 2881 2700 
Q 2700 3044 2219 3044 
z
M 2309 3503 
L 4219 3500 
L 4106 2925 
L 3463 2925 
Q 3706 2438 3575 1747 
Q 3406 888 2884 400 
Q 2359 -91 1609 -91 
Q 856 -91 525 400 
Q 194 888 363 1747 
Q 528 2609 1050 3097 
Q 1484 3503 2309 3503 
z
" transform="scale(0.015625)"/>
       <path id="DejaVuSans-2f" d="M 1625 4666 
L 2156 4666 
L 531 -594 
L 0 -594 
L 1625 4666 
z
" transform="scale(0.015625)"/>
      </defs>
      <use xlink:href="#DejaVuSans-Oblique-3c3" transform="translate(0 0.09375)"/>
      <use xlink:href="#DejaVuSans-2f" transform="translate(63.378906 0.09375)"/>
      <use xlink:href="#DejaVuSans-Oblique-3c3" transform="translate(97.070312 0.09375)"/>
      <use xlink:href="#DejaVuSans-30" transform="translate(160.449219 -16.3125)scale(0.7)"/>
     </g>
    </g>
   </g>
   <g id="line2d_87">
    <path d="M 68.531932 22.32 
L 73.53033 22.450571 
L 78.12841 22.59256 
L 82.385568 22.745985 
L 86.348887 22.910866 
L 90.056324 23.087223 
L 93.538926 23.27508 
L 96.82241 23.474464 
L 99.92832 23.685402 
L 102.874881 23.907926 
L 105.677648 24.142069 
L 108.350006 24.387869 
L 110.903553 24.645364 
L 113.348404 24.914599 
L 115.693438 25.195621 
L 117.946485 25.48848 
L 120.114491 25.793231 
L 122.203643 26.109934 
L 124.219475 26.438652 
L 126.166961 26.779455 
L 128.050584 27.132417 
L 129.874399 27.497616 
L 131.642087 27.87514 
L 133.357001 28.26508 
L 135.022199 28.667534 
L 136.640485 29.082609 
L 138.214428 29.510416 
L 139.746395 29.951079 
L 141.238565 30.404725 
L 142.692956 30.871495 
L 144.111431 31.351535 
L 145.495723 31.845006 
L 146.84744 32.352075 
L 148.168081 32.872923 
L 149.459042 33.407745 
L 150.721628 33.956744 
L 151.957059 34.520142 
L 153.166479 35.098173 
L 154.350961 35.691086 
L 155.511512 36.299149 
L 156.649081 36.922646 
L 157.76456 37.561883 
L 158.85879 38.217182 
L 159.932566 38.88889 
L 160.986638 39.577377 
L 162.021717 40.283037 
L 163.038475 41.006293 
L 164.03755 41.747595 
L 165.019545 42.507425 
L 165.985036 43.286299 
L 166.934567 44.08477 
L 167.868659 44.903428 
L 168.787804 45.742908 
L 169.692473 46.60389 
L 170.583117 47.487105 
L 171.460162 48.393338 
L 172.324018 49.323435 
L 173.175075 50.278304 
L 174.013708 51.258928 
L 174.840274 52.266368 
L 175.655115 53.301768 
L 176.45856 54.366371 
L 177.250922 55.461523 
L 178.032503 56.588688 
L 178.803593 57.749459 
L 179.56447 58.945574 
L 180.3154 60.178931 
L 181.05664 61.451613 
L 181.788438 62.765905 
L 182.51103 64.124325 
L 183.224646 65.529653 
L 183.929506 66.984966 
L 184.625821 68.493689 
L 185.313798 70.059636 
L 185.993632 71.687081 
L 186.665515 73.380827 
L 187.32963 75.146297 
L 187.986156 76.989647 
L 188.635263 78.917899 
L 189.277117 80.939111 
L 189.911878 83.062589 
L 190.539702 85.29916 
L 191.160739 87.661516 
L 191.775134 90.164668 
L 192.383026 92.826544 
L 192.984554 95.6688 
L 193.579848 98.717918 
L 194.169036 102.006762 
L 194.752242 105.576797 
L 195.329587 109.48138 
L 195.901187 113.790787 
L 196.467156 118.600205 
L 197.027603 124.043108 
L 197.582634 130.314995 
L 198.132355 137.718973 
L 198.676864 146.762861 
L 199.216261 158.398678 
L 199.75064 174.763782 
L 200.280094 202.678386 
L 200.282119 380.331875 
" clip-path="url(#p4dc0736822)" style="fill: none; stroke: #1f77b4; stroke-width: 1.5; stroke-linecap: square"/>
   </g>
   <g id="line2d_88">
    <path d="M 68.531932 22.32 
L 78.61731 22.471658 
L 87.193686 22.6494 
L 94.654404 22.853004 
L 101.256595 23.082219 
L 107.177612 23.33677 
L 112.54496 23.616355 
L 117.453389 23.920652 
L 121.975231 24.249319 
L 126.166961 24.601995 
L 130.073516 24.978308 
L 133.731239 25.377869 
L 137.169939 25.800283 
L 140.414371 26.245145 
L 143.485318 26.712048 
L 146.400393 27.20058 
L 149.174658 27.71033 
L 151.821094 28.240889 
L 154.350961 28.791853 
L 156.774098 29.362824 
L 159.099147 29.953411 
L 161.333741 30.563236 
L 163.484655 31.19193 
L 165.557931 31.839141 
L 167.558979 32.504528 
L 169.492663 33.187771 
L 171.363371 33.888564 
L 173.175075 34.606623 
L 174.931385 35.341682 
L 176.635587 36.093497 
L 178.290685 36.861848 
L 179.899429 37.646536 
L 181.464345 38.447386 
L 182.987758 39.264249 
L 184.471812 40.097002 
L 185.918491 40.945547 
L 187.32963 41.809815 
L 188.706935 42.689763 
L 190.051989 43.585379 
L 191.366268 44.496679 
L 192.65115 45.423711 
L 193.90792 46.366553 
L 195.137783 47.325317 
L 196.341866 48.300149 
L 197.521228 49.291228 
L 198.676864 50.298771 
L 199.80971 51.323033 
L 200.920647 52.364306 
L 202.010506 53.422926 
L 203.080073 54.499271 
L 204.130089 55.593765 
L 205.161257 56.706881 
L 206.17424 57.839141 
L 207.16967 58.991124 
L 208.148144 60.163465 
L 209.11023 61.356863 
L 210.056469 62.572081 
L 210.987373 63.809956 
L 211.903432 65.071403 
L 212.805113 66.357421 
L 213.692858 67.669101 
L 214.567093 69.007634 
L 215.428223 70.374322 
L 216.276634 71.770589 
L 217.112698 73.197993 
L 217.936767 74.65824 
L 218.749182 76.153204 
L 219.550268 77.684943 
L 220.340336 79.255724 
L 221.119685 80.868048 
L 221.888602 82.524682 
L 222.647362 84.228697 
L 223.396232 85.983508 
L 224.135464 87.792926 
L 224.865304 89.661223 
L 225.585988 91.593204 
L 226.297742 93.594295 
L 227.000786 95.670655 
L 227.695329 97.829315 
L 228.381575 100.07834 
L 229.05972 102.427048 
L 229.729953 104.886276 
L 230.392456 107.46873 
L 231.047405 110.189434 
L 231.694971 113.066335 
L 232.335319 116.121102 
L 232.968608 119.380237 
L 233.594991 122.87662 
L 234.214617 126.651739 
L 234.827631 130.758969 
L 235.434173 135.268605 
L 236.034377 140.27586 
L 236.628375 145.914227 
L 237.216294 152.379227 
L 237.798256 159.973992 
L 238.374382 169.206364 
L 238.944787 181.028384 
L 239.509584 197.577435 
L 240.068882 225.673756 
L 240.070744 380.331875 
" clip-path="url(#p4dc0736822)" style="fill: none; stroke: #ff7f0e; stroke-width: 1.5; stroke-linecap: square"/>
   </g>
   <g id="line2d_89">
    <path d="M 68.531932 22.32 
L 91.630267 22.624018 
L 108.059143 23.043316 
L 120.819351 23.572884 
L 131.253941 24.206673 
L 140.081354 24.937835 
L 147.731232 25.758975 
L 154.481075 26.662384 
L 160.520548 27.640261 
L 165.985036 28.6849 
L 170.974568 29.788844 
L 175.565146 30.945002 
L 179.815872 32.146735 
L 183.773616 33.38791 
L 187.476175 34.662926 
L 190.954472 35.966723 
L 194.23413 37.294772 
L 197.336615 38.643055 
L 200.280094 40.008037 
L 203.080073 41.386632 
L 205.749896 42.776163 
L 208.301128 44.174332 
L 210.743857 45.579179 
L 213.086938 46.989047 
L 215.338183 48.402552 
L 217.50452 49.818552 
L 219.592122 51.236118 
L 221.606512 52.654509 
L 223.552652 54.073154 
L 225.435015 55.491627 
L 227.257648 56.909631 
L 229.024227 58.326984 
L 230.738097 59.743606 
L 232.402311 61.159504 
L 234.019667 62.574764 
L 235.59273 63.989545 
L 237.123863 65.404064 
L 238.615243 66.818599 
L 240.068882 68.233477 
L 241.486643 69.649071 
L 242.870255 71.065798 
L 244.221323 72.484117 
L 245.541345 73.90452 
L 246.831714 75.32754 
L 248.093733 76.753744 
L 249.328623 78.183732 
L 250.537523 79.618139 
L 251.721507 81.057635 
L 252.88158 82.502926 
L 254.018689 83.954753 
L 255.133726 85.413897 
L 256.227531 86.881178 
L 257.300897 88.357458 
L 258.354575 89.843647 
L 259.389274 91.340702 
L 260.405665 92.849632 
L 261.404385 94.371507 
L 262.386038 95.907456 
L 263.351197 97.458678 
L 264.300408 99.026449 
L 265.23419 100.612127 
L 266.153035 102.217159 
L 267.057414 103.843098 
L 267.947775 105.491608 
L 268.824547 107.16448 
L 269.688138 108.863643 
L 270.538938 110.591188 
L 271.377322 112.349381 
L 272.203645 114.140691 
L 273.01825 115.967813 
L 273.821465 117.833702 
L 274.613604 119.741608 
L 275.394969 121.695119 
L 276.165848 123.698217 
L 276.926519 125.755333 
L 277.677248 127.871427 
L 278.418294 130.052076 
L 279.149901 132.303585 
L 279.872308 134.633122 
L 280.585743 137.048888 
L 281.290426 139.56033 
L 281.98657 142.178409 
L 282.674378 144.915951 
L 283.354048 147.788099 
L 284.025771 150.812907 
L 284.68973 154.012155 
L 285.346102 157.412448 
L 285.995059 161.046767 
L 286.636767 164.956695 
L 287.271385 169.195702 
L 287.899069 173.834172 
L 288.519969 178.967405 
L 289.134229 184.728977 
L 289.741991 191.314491 
L 290.34339 199.027156 
L 290.938558 208.37489 
L 291.527623 220.309807 
L 292.110708 236.96936 
L 292.687935 265.173853 
L 292.689366 380.331875 
" clip-path="url(#p4dc0736822)" style="fill: none; stroke: #2ca02c; stroke-width: 1.5; stroke-linecap: square"/>
   </g>
   <g id="line2d_90">
    <path d="M 68.531932 22.32 
L 108.350006 22.973311 
L 131.642087 24.023651 
L 148.168081 25.420321 
L 160.986638 27.103984 
L 171.460162 29.013852 
L 180.3154 31.093076 
L 187.986156 33.29192 
L 194.752242 35.569029 
L 200.804713 37.891355 
L 206.279838 40.233337 
L 211.278236 42.575752 
L 215.876317 44.904534 
L 220.133474 47.209683 
L 224.096793 49.48434 
L 227.80423 51.724031 
L 231.286832 53.926073 
L 234.570317 56.089104 
L 237.676227 58.212733 
L 240.622787 60.297269 
L 243.425555 62.343516 
L 246.097913 64.352627 
L 248.651459 66.325989 
L 251.096311 68.26514 
L 253.441344 70.17171 
L 255.694391 72.047374 
L 257.862397 73.893823 
L 259.951549 75.712739 
L 261.967382 77.505784 
L 263.914868 79.274582 
L 265.79849 81.020722 
L 267.622305 82.745745 
L 269.389993 84.451149 
L 271.104907 86.138386 
L 272.770106 87.808863 
L 274.388391 89.463945 
L 275.962335 91.104955 
L 277.494301 92.733183 
L 278.986472 94.349879 
L 280.440862 95.956265 
L 281.859337 97.553537 
L 283.243629 99.142863 
L 284.595347 100.725393 
L 285.915988 102.30226 
L 287.206948 103.874583 
L 288.469534 105.443472 
L 289.704965 107.01003 
L 290.914386 108.575362 
L 292.098868 110.14057 
L 293.259419 111.706765 
L 294.396988 113.275069 
L 295.512466 114.846618 
L 296.606696 116.422566 
L 297.680472 118.004093 
L 298.734544 119.592409 
L 299.769624 121.188758 
L 300.786382 122.794425 
L 301.785456 124.410743 
L 302.767452 126.039099 
L 303.732942 127.680945 
L 304.682474 129.337802 
L 305.616565 131.011273 
L 306.53571 132.703051 
L 307.44038 134.414936 
L 308.331023 136.148843 
L 309.208068 137.906821 
L 310.071924 139.691068 
L 310.922982 141.503957 
L 311.761615 143.348051 
L 312.588181 145.226138 
L 313.403022 147.141259 
L 314.206466 149.096744 
L 314.998828 151.096258 
L 315.780409 153.143853 
L 316.551499 155.24403 
L 317.312376 157.401813 
L 318.063306 159.622837 
L 318.804547 161.913466 
L 319.536344 164.280921 
L 320.258937 166.733454 
L 320.972552 169.280561 
L 321.677412 171.933248 
L 322.373728 174.704386 
L 323.061704 177.609156 
L 323.741539 180.665655 
L 324.413422 183.895697 
L 325.077537 187.325923 
L 325.734062 190.989348 
L 326.383169 194.927587 
L 327.025023 199.194139 
L 327.659785 203.859419 
L 328.287609 209.018751 
L 328.908645 214.805741 
L 329.52304 221.416015 
L 330.130933 229.152807 
L 330.73246 238.524056 
L 331.327754 250.481898 
L 331.916942 267.163807 
L 332.500149 295.390108 
L 332.501216 380.331875 
" clip-path="url(#p4dc0736822)" style="fill: none; stroke: #d62728; stroke-width: 1.5; stroke-linecap: square"/>
   </g>
   <g id="line2d_91">
    <path d="M 68.531932 22.32 
L 131.835181 23.944273 
L 161.218273 26.872804 
L 180.563544 30.642992 
L 195.009557 34.840595 
L 206.542987 39.175376 
L 216.143505 43.473214 
L 224.366943 47.641588 
L 231.559247 51.637985 
L 237.950429 55.448227 
L 243.701205 59.073275 
L 248.928305 62.521658 
L 253.719194 65.805271 
L 258.141103 68.937107 
L 262.246825 71.930077 
L 266.078575 74.796424 
L 269.670643 77.547476 
L 273.051255 80.193562 
L 276.24393 82.744035 
L 279.268467 85.207328 
L 282.141694 87.591033 
L 284.878031 89.901986 
L 287.489931 92.14635 
L 289.988221 94.329693 
L 292.382374 96.457051 
L 294.680725 98.532998 
L 296.890647 100.561696 
L 299.018693 102.546942 
L 301.070715 104.492216 
L 303.051957 106.400713 
L 304.967139 108.275379 
L 306.820526 110.118936 
L 308.615979 111.933912 
L 310.357013 113.722658 
L 312.046829 115.487373 
L 313.688354 117.230116 
L 315.284271 118.952828 
L 316.837048 120.657339 
L 318.348955 122.345385 
L 319.822088 124.018618 
L 321.258386 125.678615 
L 322.659648 127.326891 
L 324.02754 128.964903 
L 325.363617 130.59406 
L 326.669323 132.215732 
L 327.94601 133.831255 
L 329.194939 135.441935 
L 330.417292 137.049061 
L 331.614176 138.653905 
L 332.78663 140.257731 
L 333.935633 141.861798 
L 335.062104 143.46737 
L 336.16691 145.075719 
L 337.250867 146.688132 
L 338.31475 148.305914 
L 339.359287 149.930401 
L 340.38517 151.56296 
L 341.393053 153.205002 
L 342.383558 154.857983 
L 343.357272 156.52342 
L 344.314757 158.202895 
L 345.256543 159.898067 
L 346.183139 161.61068 
L 347.095025 163.342583 
L 347.992662 165.095734 
L 348.876488 166.872225 
L 349.746922 168.674294 
L 350.604363 170.504347 
L 351.449194 172.364985 
L 352.28178 174.259024 
L 353.102471 176.189535 
L 353.911602 178.159877 
L 354.709495 180.173742 
L 355.496457 182.235204 
L 356.272783 184.348788 
L 357.038758 186.519538 
L 357.794654 188.753112 
L 358.540732 191.055891 
L 359.277244 193.435114 
L 360.004433 195.899051 
L 360.722532 198.457213 
L 361.431765 201.120622 
L 362.132348 203.902162 
L 362.82449 206.817028 
L 363.508391 209.88333 
L 364.184247 213.122894 
L 364.852243 216.562373 
L 365.51256 220.234791 
L 366.165374 224.181775 
L 366.810852 228.456833 
L 367.449158 233.130389 
L 368.080449 238.297778 
L 368.704878 244.092611 
L 369.322593 250.710525 
L 369.933736 258.454758 
L 370.538445 267.83326 
L 371.136855 279.798172 
L 371.729096 296.486975 
L 372.315293 324.72 
L 372.315995 380.331875 
" clip-path="url(#p4dc0736822)" style="fill: none; stroke: #9467bd; stroke-width: 1.5; stroke-linecap: square"/>
   </g>
   <g id="patch_3">
    <path d="M 53.31375 339.84 
L 53.31375 7.2 
" style="fill: none; stroke: #000000; stroke-width: 0.8; stroke-linejoin: miter; stroke-linecap: square"/>
   </g>
   <g id="patch_4">
    <path d="M 388.11375 339.84 
L 388.11375 7.2 
" style="fill: none; stroke: #000000; stroke-width: 0.8; stroke-linejoin: miter; stroke-linecap: square"/>
   </g>
   <g id="patch_5">
    <path d="M 53.31375 339.84 
L 388.11375 339.84 
" style="fill: none; stroke: #000000; stroke-width: 0.8; stroke-linejoin: miter; stroke-linecap: square"/>
   </g>
   <g id="patch_6">
    <path d="M 53.31375 7.2 
L 388.11375 7.2 
" style="fill: none; stroke: #000000; stroke-width: 0.8; stroke-linejoin: miter; stroke-linecap: square"/>
   </g>
   <g id="legend_1">
    <g id="patch_7">
     <path d="M 306.61375 88.590625 
L 381.11375 88.590625 
Q 383.11375 88.590625 383.11375 86.590625 
L 383.11375 14.2 
Q 383.11375 12.2 381.11375 12.2 
L 306.61375 12.2 
Q 304.61375 12.2 304.61375 14.2 
L 304.61375 86.590625 
Q 304.61375 88.590625 306.61375 88.590625 
z
" style="fill: #ffffff; opacity: 0.8; stroke: #cccccc; stroke-linejoin: miter"/>
    </g>
    <g id="line2d_92">
     <path d="M 308.61375 20.298437 
L 318.61375 20.298437 
L 328.61375 20.298437 
" style="fill: none; stroke: #1f77b4; stroke-width: 1.5; stroke-linecap: square"/>
    </g>
    <g id="text_13">
     <!-- c ~ 0.00 -->
     <g transform="translate(336.61375 23.798437)scale(0.1 -0.1)">
      <defs>
       <path id="DejaVuSans-63" d="M 3122 3366 
L 3122 2828 
Q 2878 2963 2633 3030 
Q 2388 3097 2138 3097 
Q 1578 3097 1268 2742 
Q 959 2388 959 1747 
Q 959 1106 1268 751 
Q 1578 397 2138 397 
Q 2388 397 2633 464 
Q 2878 531 3122 666 
L 3122 134 
Q 2881 22 2623 -34 
Q 2366 -91 2075 -91 
Q 1284 -91 818 406 
Q 353 903 353 1747 
Q 353 2603 823 3093 
Q 1294 3584 2113 3584 
Q 2378 3584 2631 3529 
Q 2884 3475 3122 3366 
z
" transform="scale(0.015625)"/>
       <path id="DejaVuSans-20" transform="scale(0.015625)"/>
       <path id="DejaVuSans-7e" d="M 4684 2553 
L 4684 1997 
Q 4356 1750 4076 1644 
Q 3797 1538 3494 1538 
Q 3150 1538 2694 1722 
Q 2659 1734 2644 1741 
Q 2622 1750 2575 1766 
Q 2091 1959 1797 1959 
Q 1522 1959 1253 1839 
Q 984 1719 678 1459 
L 678 2016 
Q 1006 2263 1286 2370 
Q 1566 2478 1869 2478 
Q 2213 2478 2672 2291 
Q 2703 2278 2719 2272 
Q 2744 2263 2788 2247 
Q 3272 2053 3566 2053 
Q 3834 2053 4098 2172 
Q 4363 2291 4684 2553 
z
" transform="scale(0.015625)"/>
       <path id="DejaVuSans-2e" d="M 684 794 
L 1344 794 
L 1344 0 
L 684 0 
L 684 794 
z
" transform="scale(0.015625)"/>
      </defs>
      <use xlink:href="#DejaVuSans-63"/>
      <use xlink:href="#DejaVuSans-20" x="54.980469"/>
      <use xlink:href="#DejaVuSans-7e" x="86.767578"/>
      <use xlink:href="#DejaVuSans-20" x="170.556641"/>
      <use xlink:href="#DejaVuSans-30" x="202.34375"/>
      <use xlink:href="#DejaVuSans-2e" x="265.966797"/>
      <use xlink:href="#DejaVuSans-30" x="297.753906"/>
      <use xlink:href="#DejaVuSans-30" x="361.376953"/>
     </g>
    </g>
    <g id="line2d_93">
     <path d="M 308.61375 34.976562 
L 318.61375 34.976562 
L 328.61375 34.976562 
" style="fill: none; stroke: #ff7f0e; stroke-width: 1.5; stroke-linecap: square"/>
    </g>
    <g id="text_14">
     <!-- c ~ 0.30 -->
     <g transform="translate(336.61375 38.476562)scale(0.1 -0.1)">
      <use xlink:href="#DejaVuSans-63"/>
      <use xlink:href="#DejaVuSans-20" x="54.980469"/>
      <use xlink:href="#DejaVuSans-7e" x="86.767578"/>
      <use xlink:href="#DejaVuSans-20" x="170.556641"/>
      <use xlink:href="#DejaVuSans-30" x="202.34375"/>
      <use xlink:href="#DejaVuSans-2e" x="265.966797"/>
      <use xlink:href="#DejaVuSans-33" x="297.753906"/>
      <use xlink:href="#DejaVuSans-30" x="361.376953"/>
     </g>
    </g>
    <g id="line2d_94">
     <path d="M 308.61375 49.654687 
L 318.61375 49.654687 
L 328.61375 49.654687 
" style="fill: none; stroke: #2ca02c; stroke-width: 1.5; stroke-linecap: square"/>
    </g>
    <g id="text_15">
     <!-- c ~ 0.70 -->
     <g transform="translate(336.61375 53.154687)scale(0.1 -0.1)">
      <defs>
       <path id="DejaVuSans-37" d="M 525 4666 
L 3525 4666 
L 3525 4397 
L 1831 0 
L 1172 0 
L 2766 4134 
L 525 4134 
L 525 4666 
z
" transform="scale(0.015625)"/>
      </defs>
      <use xlink:href="#DejaVuSans-63"/>
      <use xlink:href="#DejaVuSans-20" x="54.980469"/>
      <use xlink:href="#DejaVuSans-7e" x="86.767578"/>
      <use xlink:href="#DejaVuSans-20" x="170.556641"/>
      <use xlink:href="#DejaVuSans-30" x="202.34375"/>
      <use xlink:href="#DejaVuSans-2e" x="265.966797"/>
      <use xlink:href="#DejaVuSans-37" x="297.753906"/>
      <use xlink:href="#DejaVuSans-30" x="361.376953"/>
     </g>
    </g>
    <g id="line2d_95">
     <path d="M 308.61375 64.332812 
L 318.61375 64.332812 
L 328.61375 64.332812 
" style="fill: none; stroke: #d62728; stroke-width: 1.5; stroke-linecap: square"/>
    </g>
    <g id="text_16">
     <!-- c ~ 1.00 -->
     <g transform="translate(336.61375 67.832812)scale(0.1 -0.1)">
      <use xlink:href="#DejaVuSans-63"/>
      <use xlink:href="#DejaVuSans-20" x="54.980469"/>
      <use xlink:href="#DejaVuSans-7e" x="86.767578"/>
      <use xlink:href="#DejaVuSans-20" x="170.556641"/>
      <use xlink:href="#DejaVuSans-31" x="202.34375"/>
      <use xlink:href="#DejaVuSans-2e" x="265.966797"/>
      <use xlink:href="#DejaVuSans-30" x="297.753906"/>
      <use xlink:href="#DejaVuSans-30" x="361.376953"/>
     </g>
    </g>
    <g id="line2d_96">
     <path d="M 308.61375 79.010937 
L 318.61375 79.010937 
L 328.61375 79.010937 
" style="fill: none; stroke: #9467bd; stroke-width: 1.5; stroke-linecap: square"/>
    </g>
    <g id="text_17">
     <!-- c ~ 1.30 -->
     <g transform="translate(336.61375 82.510937)scale(0.1 -0.1)">
      <use xlink:href="#DejaVuSans-63"/>
      <use xlink:href="#DejaVuSans-20" x="54.980469"/>
      <use xlink:href="#DejaVuSans-7e" x="86.767578"/>
      <use xlink:href="#DejaVuSans-20" x="170.556641"/>
      <use xlink:href="#DejaVuSans-31" x="202.34375"/>
      <use xlink:href="#DejaVuSans-2e" x="265.966797"/>
      <use xlink:href="#DejaVuSans-33" x="297.753906"/>
      <use xlink:href="#DejaVuSans-30" x="361.376953"/>
     </g>
    </g>
   </g>
  </g>
 </g>
 <defs>
  <clipPath id="p4dc0736822">
   <rect x="53.31375" y="7.2" width="334.8" height="332.64"/>
  </clipPath>
 </defs>
</svg>
