<?xml version="1.0" encoding="utf-8" standalone="no"?>
<!DOCTYPE svg PUBLIC "-//W3C//DTD SVG 1.1//EN"
  "http://www.w3.org/Graphics/SVG/1.1/DTD/svg11.dtd">
<svg xmlns:xlink="http://www.w3.org/1999/xlink" width="370.942187pt" height="367.517344pt" viewBox="0 0 370.942187 367.517344" xmlns="http://www.w3.org/2000/svg" version="1.1">
 <metadata>
  <rdf:RDF xmlns:dc="http://purl.org/dc/elements/1.1/" xmlns:cc="http://creativecommons.org/ns#" xmlns:rdf="http://www.w3.org/1999/02/22-rdf-syntax-ns#">
   <cc:Work>
    <dc:type rdf:resource="http://purl.org/dc/dcmitype/StillImage"/>
    <dc:date>2022-05-03T11:23:39.993398</dc:date>
    <dc:format>image/svg+xml</dc:format>
    <dc:creator>
     <cc:Agent>
      <dc:title>Matplotlib v3.5.2, https://matplotlib.org/</dc:title>
     </cc:Agent>
    </dc:creator>
   </cc:Work>
  </rdf:RDF>
 </metadata>
 <defs>
  <style type="text/css">*{stroke-linejoin: round; stroke-linecap: butt}</style>
 </defs>
 <g id="figure_1">
  <g id="patch_1">
   <path d="M 0 367.517344 
L 370.942187 367.517344 
L 370.942187 0 
L 0 0 
L 0 367.517344 
z
" style="fill: none"/>
  </g>
  <g id="axes_1">
   <g id="patch_2">
    <path d="M 28.942188 343.639219 
L 363.742188 343.639219 
L 363.742188 10.999219 
L 28.942188 10.999219 
z
" style="fill: #ffffff"/>
   </g>
   <g id="matplotlib.axis_1">
    <g id="xtick_1">
     <g id="line2d_1">
      <defs>
       <path id="m3c3c05fc5c" d="M 0 0 
L 0 3.5 
" style="stroke: #000000; stroke-width: 0.8"/>
      </defs>
      <g>
       <use xlink:href="#m3c3c05fc5c" x="62.422188" y="343.639219" style="stroke: #000000; stroke-width: 0.8"/>
      </g>
     </g>
     <g id="text_1">
      <!-- −4 -->
      <g transform="translate(55.051094 358.237656)scale(0.1 -0.1)">
       <defs>
        <path id="DejaVuSans-2212" d="M 678 2272 
L 4684 2272 
L 4684 1741 
L 678 1741 
L 678 2272 
z
" transform="scale(0.015625)"/>
        <path id="DejaVuSans-34" d="M 2419 4116 
L 825 1625 
L 2419 1625 
L 2419 4116 
z
M 2253 4666 
L 3047 4666 
L 3047 1625 
L 3713 1625 
L 3713 1100 
L 3047 1100 
L 3047 0 
L 2419 0 
L 2419 1100 
L 313 1100 
L 313 1709 
L 2253 4666 
z
" transform="scale(0.015625)"/>
       </defs>
       <use xlink:href="#DejaVuSans-2212"/>
       <use xlink:href="#DejaVuSans-34" x="83.789062"/>
      </g>
     </g>
    </g>
    <g id="xtick_2">
     <g id="line2d_2">
      <g>
       <use xlink:href="#m3c3c05fc5c" x="129.382188" y="343.639219" style="stroke: #000000; stroke-width: 0.8"/>
      </g>
     </g>
     <g id="text_2">
      <!-- −2 -->
      <g transform="translate(122.011094 358.237656)scale(0.1 -0.1)">
       <defs>
        <path id="DejaVuSans-32" d="M 1228 531 
L 3431 531 
L 3431 0 
L 469 0 
L 469 531 
Q 828 903 1448 1529 
Q 2069 2156 2228 2338 
Q 2531 2678 2651 2914 
Q 2772 3150 2772 3378 
Q 2772 3750 2511 3984 
Q 2250 4219 1831 4219 
Q 1534 4219 1204 4116 
Q 875 4013 500 3803 
L 500 4441 
Q 881 4594 1212 4672 
Q 1544 4750 1819 4750 
Q 2544 4750 2975 4387 
Q 3406 4025 3406 3419 
Q 3406 3131 3298 2873 
Q 3191 2616 2906 2266 
Q 2828 2175 2409 1742 
Q 1991 1309 1228 531 
z
" transform="scale(0.015625)"/>
       </defs>
       <use xlink:href="#DejaVuSans-2212"/>
       <use xlink:href="#DejaVuSans-32" x="83.789062"/>
      </g>
     </g>
    </g>
    <g id="xtick_3">
     <g id="line2d_3">
      <g>
       <use xlink:href="#m3c3c05fc5c" x="196.342188" y="343.639219" style="stroke: #000000; stroke-width: 0.8"/>
      </g>
     </g>
     <g id="text_3">
      <!-- 0 -->
      <g transform="translate(193.160938 358.237656)scale(0.1 -0.1)">
       <defs>
        <path id="DejaVuSans-30" d="M 2034 4250 
Q 1547 4250 1301 3770 
Q 1056 3291 1056 2328 
Q 1056 1369 1301 889 
Q 1547 409 2034 409 
Q 2525 409 2770 889 
Q 3016 1369 3016 2328 
Q 3016 3291 2770 3770 
Q 2525 4250 2034 4250 
z
M 2034 4750 
Q 2819 4750 3233 4129 
Q 3647 3509 3647 2328 
Q 3647 1150 3233 529 
Q 2819 -91 2034 -91 
Q 1250 -91 836 529 
Q 422 1150 422 2328 
Q 422 3509 836 4129 
Q 1250 4750 2034 4750 
z
" transform="scale(0.015625)"/>
       </defs>
       <use xlink:href="#DejaVuSans-30"/>
      </g>
     </g>
    </g>
    <g id="xtick_4">
     <g id="line2d_4">
      <g>
       <use xlink:href="#m3c3c05fc5c" x="263.302188" y="343.639219" style="stroke: #000000; stroke-width: 0.8"/>
      </g>
     </g>
     <g id="text_4">
      <!-- 2 -->
      <g transform="translate(260.120938 358.237656)scale(0.1 -0.1)">
       <use xlink:href="#DejaVuSans-32"/>
      </g>
     </g>
    </g>
    <g id="xtick_5">
     <g id="line2d_5">
      <g>
       <use xlink:href="#m3c3c05fc5c" x="330.262188" y="343.639219" style="stroke: #000000; stroke-width: 0.8"/>
      </g>
     </g>
     <g id="text_5">
      <!-- 4 -->
      <g transform="translate(327.080938 358.237656)scale(0.1 -0.1)">
       <use xlink:href="#DejaVuSans-34"/>
      </g>
     </g>
    </g>
   </g>
   <g id="matplotlib.axis_2">
    <g id="ytick_1">
     <g id="line2d_6">
      <defs>
       <path id="m7711757b3b" d="M 0 0 
L -3.5 0 
" style="stroke: #000000; stroke-width: 0.8"/>
      </defs>
      <g>
       <use xlink:href="#m7711757b3b" x="28.942188" y="343.639219" style="stroke: #000000; stroke-width: 0.8"/>
      </g>
     </g>
     <g id="text_6">
      <!-- −1 -->
      <g transform="translate(7.2 347.438438)scale(0.1 -0.1)">
       <defs>
        <path id="DejaVuSans-31" d="M 794 531 
L 1825 531 
L 1825 4091 
L 703 3866 
L 703 4441 
L 1819 4666 
L 2450 4666 
L 2450 531 
L 3481 531 
L 3481 0 
L 794 0 
L 794 531 
z
" transform="scale(0.015625)"/>
       </defs>
       <use xlink:href="#DejaVuSans-2212"/>
       <use xlink:href="#DejaVuSans-31" x="83.789062"/>
      </g>
     </g>
    </g>
    <g id="ytick_2">
     <g id="line2d_7">
      <g>
       <use xlink:href="#m7711757b3b" x="28.942188" y="277.111219" style="stroke: #000000; stroke-width: 0.8"/>
      </g>
     </g>
     <g id="text_7">
      <!-- 0 -->
      <g transform="translate(15.579688 280.910438)scale(0.1 -0.1)">
       <use xlink:href="#DejaVuSans-30"/>
      </g>
     </g>
    </g>
    <g id="ytick_3">
     <g id="line2d_8">
      <g>
       <use xlink:href="#m7711757b3b" x="28.942188" y="210.583219" style="stroke: #000000; stroke-width: 0.8"/>
      </g>
     </g>
     <g id="text_8">
      <!-- 1 -->
      <g transform="translate(15.579688 214.382438)scale(0.1 -0.1)">
       <use xlink:href="#DejaVuSans-31"/>
      </g>
     </g>
    </g>
    <g id="ytick_4">
     <g id="line2d_9">
      <g>
       <use xlink:href="#m7711757b3b" x="28.942188" y="144.055219" style="stroke: #000000; stroke-width: 0.8"/>
      </g>
     </g>
     <g id="text_9">
      <!-- 2 -->
      <g transform="translate(15.579688 147.854437)scale(0.1 -0.1)">
       <use xlink:href="#DejaVuSans-32"/>
      </g>
     </g>
    </g>
    <g id="ytick_5">
     <g id="line2d_10">
      <g>
       <use xlink:href="#m7711757b3b" x="28.942188" y="77.527219" style="stroke: #000000; stroke-width: 0.8"/>
      </g>
     </g>
     <g id="text_10">
      <!-- 3 -->
      <g transform="translate(15.579688 81.326437)scale(0.1 -0.1)">
       <defs>
        <path id="DejaVuSans-33" d="M 2597 2516 
Q 3050 2419 3304 2112 
Q 3559 1806 3559 1356 
Q 3559 666 3084 287 
Q 2609 -91 1734 -91 
Q 1441 -91 1130 -33 
Q 819 25 488 141 
L 488 750 
Q 750 597 1062 519 
Q 1375 441 1716 441 
Q 2309 441 2620 675 
Q 2931 909 2931 1356 
Q 2931 1769 2642 2001 
Q 2353 2234 1838 2234 
L 1294 2234 
L 1294 2753 
L 1863 2753 
Q 2328 2753 2575 2939 
Q 2822 3125 2822 3475 
Q 2822 3834 2567 4026 
Q 2313 4219 1838 4219 
Q 1578 4219 1281 4162 
Q 984 4106 628 3988 
L 628 4550 
Q 988 4650 1302 4700 
Q 1616 4750 1894 4750 
Q 2613 4750 3031 4423 
Q 3450 4097 3450 3541 
Q 3450 3153 3228 2886 
Q 3006 2619 2597 2516 
z
" transform="scale(0.015625)"/>
       </defs>
       <use xlink:href="#DejaVuSans-33"/>
      </g>
     </g>
    </g>
    <g id="ytick_6">
     <g id="line2d_11">
      <g>
       <use xlink:href="#m7711757b3b" x="28.942188" y="10.999219" style="stroke: #000000; stroke-width: 0.8"/>
      </g>
     </g>
     <g id="text_11">
      <!-- 4 -->
      <g transform="translate(15.579688 14.798437)scale(0.1 -0.1)">
       <use xlink:href="#DejaVuSans-34"/>
      </g>
     </g>
    </g>
   </g>
   <g id="line2d_12">
    <path d="M 28.942187 276.452526 
L 63.426587 276.072426 
L 85.858187 275.618221 
L 101.928587 275.08352 
L 113.981387 274.471889 
L 123.355787 273.786415 
L 131.056187 273.007085 
L 137.417387 272.142883 
L 142.774187 271.192358 
L 147.461387 270.127678 
L 151.478987 268.980597 
L 154.826987 267.807124 
L 157.840187 266.53443 
L 160.518587 265.187783 
L 163.196987 263.590367 
L 165.540587 261.941573 
L 167.884187 260.008905 
L 169.892987 258.083648 
L 171.901787 255.867126 
L 173.910587 253.313823 
L 175.919387 250.375967 
L 177.928187 247.008051 
L 179.936987 243.175287 
L 181.945787 238.867944 
L 184.289387 233.296677 
L 190.985387 216.762888 
L 192.324587 214.206529 
L 193.328987 212.671079 
L 194.333387 211.527623 
L 195.002987 211.00629 
L 195.672587 210.689494 
L 196.342187 210.583219 
L 197.011787 210.689494 
L 197.681387 211.00629 
L 198.350987 211.527623 
L 199.355387 212.671079 
L 200.359787 214.206529 
L 201.698987 216.762888 
L 203.372987 220.559026 
L 206.051387 227.329716 
L 209.734187 236.545365 
L 212.077787 241.791618 
L 214.086587 245.783285 
L 216.095387 249.30316 
L 218.104187 252.37962 
L 220.112987 255.055788 
L 222.121787 257.379341 
L 224.130587 259.396872 
L 226.474187 261.420653 
L 228.817787 263.145311 
L 231.496187 264.813991 
L 234.174587 266.21856 
L 237.187787 267.5438 
L 240.535787 268.763497 
L 244.218587 269.863844 
L 248.570987 270.913574 
L 253.258187 271.814403 
L 258.949787 272.672349 
L 265.645787 273.443663 
L 273.680987 274.133828 
L 283.390187 274.738608 
L 295.777787 275.277663 
L 311.848187 275.742611 
L 333.610187 276.136307 
L 363.407387 276.449909 
L 363.407387 276.449909 
" clip-path="url(#p2d9cfd6df0)" style="fill: none; stroke: #404040; stroke-width: 2; stroke-linecap: square"/>
   </g>
   <g id="line2d_13">
    <path d="M 28.942187 275.793833 
L 54.386987 275.286294 
L 73.135787 274.699456 
L 87.532187 274.034779 
L 98.915387 273.295708 
L 108.289787 272.469881 
L 115.990187 271.576443 
L 122.686187 270.576052 
L 128.377787 269.500887 
L 133.399787 268.32145 
L 137.752187 267.069256 
L 141.434987 265.795393 
L 144.782987 264.422784 
L 147.796187 262.971368 
L 150.809387 261.268201 
L 153.487787 259.496307 
L 155.831387 257.705116 
L 158.174987 255.645034 
L 160.518587 253.264348 
L 162.527387 250.921155 
L 164.536187 248.248746 
L 166.544987 245.191058 
L 168.553787 241.682526 
L 170.562587 237.647463 
L 172.236587 233.821266 
L 173.910587 229.516427 
L 175.584587 224.677423 
L 177.258587 219.250721 
L 179.267387 211.900476 
L 181.276187 203.599617 
L 183.284987 194.385529 
L 185.963387 181.000268 
L 189.980987 160.844179 
L 191.654987 153.728429 
L 192.659387 150.197827 
L 193.663787 147.376429 
L 194.333387 145.944026 
L 195.002987 144.901362 
L 195.672587 144.267768 
L 196.342187 144.055219 
L 197.011787 144.267768 
L 197.681387 144.901362 
L 198.350987 145.944026 
L 199.020587 147.376429 
L 200.024987 150.197827 
L 201.029387 153.728429 
L 202.368587 159.32085 
L 204.377387 168.970777 
L 210.738587 200.62467 
L 212.747387 209.239356 
L 214.756187 216.904884 
L 216.764987 223.640716 
L 218.773787 229.516427 
L 220.782587 234.623034 
L 222.791387 239.056076 
L 224.800187 242.906592 
L 226.808987 246.256938 
L 228.817787 249.179402 
L 230.826587 251.736285 
L 233.170187 254.327657 
L 235.513787 256.563934 
L 237.857387 258.503029 
L 240.535787 260.415776 
L 243.214187 262.059635 
L 246.227387 263.644557 
L 249.575387 265.137568 
L 253.258187 266.517588 
L 257.275787 267.773693 
L 261.628187 268.902952 
L 266.650187 269.973021 
L 272.341787 270.954525 
L 279.037787 271.873536 
L 286.738187 272.699548 
L 296.112587 273.468005 
L 307.160987 274.142835 
L 320.887787 274.750127 
L 338.297387 275.286294 
L 361.063787 275.751084 
L 363.407387 275.7886 
L 363.407387 275.7886 
" clip-path="url(#p2d9cfd6df0)" style="fill: none; stroke: #808080; stroke-width: 2; stroke-linecap: square"/>
   </g>
   <g id="line2d_14">
    <path d="M 28.942187 275.13514 
L 50.034587 274.532201 
L 66.439787 273.85098 
L 79.496987 273.097092 
L 90.210587 272.26643 
L 99.250187 271.349556 
L 106.950587 270.349235 
L 113.646587 269.254694 
L 119.338187 268.104721 
L 124.360187 266.87089 
L 128.712587 265.588958 
L 132.730187 264.184794 
L 136.412987 262.665777 
L 139.760987 261.047344 
L 142.774187 259.354635 
L 145.787387 257.390259 
L 148.465787 255.369095 
L 150.809387 253.346692 
L 153.152987 251.043615 
L 155.496587 248.408964 
L 157.505387 245.840224 
L 159.514187 242.935876 
L 161.522987 239.640507 
L 163.531787 235.888482 
L 165.540587 231.60228 
L 167.549387 226.690847 
L 169.223387 222.044449 
L 170.897387 216.821224 
L 172.571387 210.944928 
L 174.245387 204.334089 
L 175.919387 196.905464 
L 177.593387 188.580346 
L 179.602187 177.319219 
L 181.610987 164.631507 
L 183.954587 148.147662 
L 187.302587 122.586598 
L 189.980987 102.71066 
L 191.654987 92.037035 
L 192.659387 86.741131 
L 193.663787 82.509035 
L 194.333387 80.36043 
L 195.002987 78.796433 
L 195.672587 77.846043 
L 196.007387 77.60702 
L 196.342187 77.527219 
L 196.676987 77.60702 
L 197.011787 77.846043 
L 197.681387 78.796433 
L 198.350987 80.36043 
L 199.020587 82.509035 
L 200.024987 86.741131 
L 201.029387 92.037035 
L 202.368587 100.425666 
L 204.377387 114.900556 
L 210.738587 162.381396 
L 212.747387 175.303424 
L 214.756187 186.801716 
L 216.764987 196.905464 
L 218.773787 205.719031 
L 220.782587 213.378941 
L 222.791387 220.028505 
L 224.800187 225.804278 
L 226.808987 230.829798 
L 228.817787 235.213494 
L 230.826587 239.048819 
L 232.835387 242.41544 
L 234.844187 245.380853 
L 237.187787 248.408964 
L 239.531387 251.043615 
L 241.874987 253.346692 
L 244.553387 255.637643 
L 247.231787 257.623639 
L 250.244987 259.555186 
L 253.258187 261.220773 
L 256.606187 262.814371 
L 260.288987 264.311137 
L 264.306587 265.695721 
L 268.658987 266.960678 
L 273.680987 268.179048 
L 279.372587 269.315456 
L 285.733787 270.349235 
L 293.099387 271.310775 
L 301.469387 272.175712 
L 311.513387 272.981986 
L 323.566187 273.714622 
L 338.297387 274.373831 
L 356.376587 274.951069 
L 363.407387 275.12729 
L 363.407387 275.12729 
" clip-path="url(#p2d9cfd6df0)" style="fill: none; stroke: #bfbfbf; stroke-width: 2; stroke-linecap: square"/>
   </g>
   <g id="patch_3">
    <path d="M 28.942188 343.639219 
L 28.942188 10.999219 
" style="fill: none; stroke: #000000; stroke-width: 0.8; stroke-linejoin: miter; stroke-linecap: square"/>
   </g>
   <g id="patch_4">
    <path d="M 363.742188 343.639219 
L 363.742188 10.999219 
" style="fill: none; stroke: #000000; stroke-width: 0.8; stroke-linejoin: miter; stroke-linecap: square"/>
   </g>
   <g id="patch_5">
    <path d="M 28.942187 343.639219 
L 363.742188 343.639219 
" style="fill: none; stroke: #000000; stroke-width: 0.8; stroke-linejoin: miter; stroke-linecap: square"/>
   </g>
   <g id="patch_6">
    <path d="M 28.942187 10.999219 
L 363.742188 10.999219 
" style="fill: none; stroke: #000000; stroke-width: 0.8; stroke-linejoin: miter; stroke-linecap: square"/>
   </g>
  </g>
 </g>
 <defs>
  <clipPath id="p2d9cfd6df0">
   <rect x="28.942188" y="10.999219" width="334.8" height="332.64"/>
  </clipPath>
 </defs>
</svg>
