<?xml version="1.0" encoding="utf-8" standalone="no"?>
<!DOCTYPE svg PUBLIC "-//W3C//DTD SVG 1.1//EN"
  "http://www.w3.org/Graphics/SVG/1.1/DTD/svg11.dtd">
<svg xmlns:xlink="http://www.w3.org/1999/xlink" width="377.304688pt" height="363.718125pt" viewBox="0 0 377.304688 363.718125" xmlns="http://www.w3.org/2000/svg" version="1.1">
 <metadata>
  <rdf:RDF xmlns:dc="http://purl.org/dc/elements/1.1/" xmlns:cc="http://creativecommons.org/ns#" xmlns:rdf="http://www.w3.org/1999/02/22-rdf-syntax-ns#">
   <cc:Work>
    <dc:type rdf:resource="http://purl.org/dc/dcmitype/StillImage"/>
    <dc:date>2022-05-03T11:23:37.181291</dc:date>
    <dc:format>image/svg+xml</dc:format>
    <dc:creator>
     <cc:Agent>
      <dc:title>Matplotlib v3.5.2, https://matplotlib.org/</dc:title>
     </cc:Agent>
    </dc:creator>
   </cc:Work>
  </rdf:RDF>
 </metadata>
 <defs>
  <style type="text/css">*{stroke-linejoin: round; stroke-linecap: butt}</style>
 </defs>
 <g id="figure_1">
  <g id="patch_1">
   <path d="M 0 363.718125 
L 377.304688 363.718125 
L 377.304688 0 
L 0 0 
L 0 363.718125 
z
" style="fill: none"/>
  </g>
  <g id="axes_1">
   <g id="patch_2">
    <path d="M 28.942188 339.84 
L 363.742188 339.84 
L 363.742188 7.2 
L 28.942188 7.2 
z
" style="fill: #ffffff"/>
   </g>
   <g id="matplotlib.axis_1">
    <g id="xtick_1">
     <g id="line2d_1">
      <defs>
       <path id="meeb3eb8c6b" d="M 0 0 
L 0 3.5 
" style="stroke: #000000; stroke-width: 0.8"/>
      </defs>
      <g>
       <use xlink:href="#meeb3eb8c6b" x="28.942188" y="339.84" style="stroke: #000000; stroke-width: 0.8"/>
      </g>
     </g>
     <g id="text_1">
      <!-- 0 -->
      <g transform="translate(25.760938 354.438438)scale(0.1 -0.1)">
       <defs>
        <path id="DejaVuSans-30" d="M 2034 4250 
Q 1547 4250 1301 3770 
Q 1056 3291 1056 2328 
Q 1056 1369 1301 889 
Q 1547 409 2034 409 
Q 2525 409 2770 889 
Q 3016 1369 3016 2328 
Q 3016 3291 2770 3770 
Q 2525 4250 2034 4250 
z
M 2034 4750 
Q 2819 4750 3233 4129 
Q 3647 3509 3647 2328 
Q 3647 1150 3233 529 
Q 2819 -91 2034 -91 
Q 1250 -91 836 529 
Q 422 1150 422 2328 
Q 422 3509 836 4129 
Q 1250 4750 2034 4750 
z
" transform="scale(0.015625)"/>
       </defs>
       <use xlink:href="#DejaVuSans-30"/>
      </g>
     </g>
    </g>
    <g id="xtick_2">
     <g id="line2d_2">
      <g>
       <use xlink:href="#meeb3eb8c6b" x="95.902188" y="339.84" style="stroke: #000000; stroke-width: 0.8"/>
      </g>
     </g>
     <g id="text_2">
      <!-- 2 -->
      <g transform="translate(92.720938 354.438438)scale(0.1 -0.1)">
       <defs>
        <path id="DejaVuSans-32" d="M 1228 531 
L 3431 531 
L 3431 0 
L 469 0 
L 469 531 
Q 828 903 1448 1529 
Q 2069 2156 2228 2338 
Q 2531 2678 2651 2914 
Q 2772 3150 2772 3378 
Q 2772 3750 2511 3984 
Q 2250 4219 1831 4219 
Q 1534 4219 1204 4116 
Q 875 4013 500 3803 
L 500 4441 
Q 881 4594 1212 4672 
Q 1544 4750 1819 4750 
Q 2544 4750 2975 4387 
Q 3406 4025 3406 3419 
Q 3406 3131 3298 2873 
Q 3191 2616 2906 2266 
Q 2828 2175 2409 1742 
Q 1991 1309 1228 531 
z
" transform="scale(0.015625)"/>
       </defs>
       <use xlink:href="#DejaVuSans-32"/>
      </g>
     </g>
    </g>
    <g id="xtick_3">
     <g id="line2d_3">
      <g>
       <use xlink:href="#meeb3eb8c6b" x="162.862188" y="339.84" style="stroke: #000000; stroke-width: 0.8"/>
      </g>
     </g>
     <g id="text_3">
      <!-- 4 -->
      <g transform="translate(159.680937 354.438438)scale(0.1 -0.1)">
       <defs>
        <path id="DejaVuSans-34" d="M 2419 4116 
L 825 1625 
L 2419 1625 
L 2419 4116 
z
M 2253 4666 
L 3047 4666 
L 3047 1625 
L 3713 1625 
L 3713 1100 
L 3047 1100 
L 3047 0 
L 2419 0 
L 2419 1100 
L 313 1100 
L 313 1709 
L 2253 4666 
z
" transform="scale(0.015625)"/>
       </defs>
       <use xlink:href="#DejaVuSans-34"/>
      </g>
     </g>
    </g>
    <g id="xtick_4">
     <g id="line2d_4">
      <g>
       <use xlink:href="#meeb3eb8c6b" x="229.822188" y="339.84" style="stroke: #000000; stroke-width: 0.8"/>
      </g>
     </g>
     <g id="text_4">
      <!-- 6 -->
      <g transform="translate(226.640938 354.438438)scale(0.1 -0.1)">
       <defs>
        <path id="DejaVuSans-36" d="M 2113 2584 
Q 1688 2584 1439 2293 
Q 1191 2003 1191 1497 
Q 1191 994 1439 701 
Q 1688 409 2113 409 
Q 2538 409 2786 701 
Q 3034 994 3034 1497 
Q 3034 2003 2786 2293 
Q 2538 2584 2113 2584 
z
M 3366 4563 
L 3366 3988 
Q 3128 4100 2886 4159 
Q 2644 4219 2406 4219 
Q 1781 4219 1451 3797 
Q 1122 3375 1075 2522 
Q 1259 2794 1537 2939 
Q 1816 3084 2150 3084 
Q 2853 3084 3261 2657 
Q 3669 2231 3669 1497 
Q 3669 778 3244 343 
Q 2819 -91 2113 -91 
Q 1303 -91 875 529 
Q 447 1150 447 2328 
Q 447 3434 972 4092 
Q 1497 4750 2381 4750 
Q 2619 4750 2861 4703 
Q 3103 4656 3366 4563 
z
" transform="scale(0.015625)"/>
       </defs>
       <use xlink:href="#DejaVuSans-36"/>
      </g>
     </g>
    </g>
    <g id="xtick_5">
     <g id="line2d_5">
      <g>
       <use xlink:href="#meeb3eb8c6b" x="296.782188" y="339.84" style="stroke: #000000; stroke-width: 0.8"/>
      </g>
     </g>
     <g id="text_5">
      <!-- 8 -->
      <g transform="translate(293.600938 354.438438)scale(0.1 -0.1)">
       <defs>
        <path id="DejaVuSans-38" d="M 2034 2216 
Q 1584 2216 1326 1975 
Q 1069 1734 1069 1313 
Q 1069 891 1326 650 
Q 1584 409 2034 409 
Q 2484 409 2743 651 
Q 3003 894 3003 1313 
Q 3003 1734 2745 1975 
Q 2488 2216 2034 2216 
z
M 1403 2484 
Q 997 2584 770 2862 
Q 544 3141 544 3541 
Q 544 4100 942 4425 
Q 1341 4750 2034 4750 
Q 2731 4750 3128 4425 
Q 3525 4100 3525 3541 
Q 3525 3141 3298 2862 
Q 3072 2584 2669 2484 
Q 3125 2378 3379 2068 
Q 3634 1759 3634 1313 
Q 3634 634 3220 271 
Q 2806 -91 2034 -91 
Q 1263 -91 848 271 
Q 434 634 434 1313 
Q 434 1759 690 2068 
Q 947 2378 1403 2484 
z
M 1172 3481 
Q 1172 3119 1398 2916 
Q 1625 2713 2034 2713 
Q 2441 2713 2670 2916 
Q 2900 3119 2900 3481 
Q 2900 3844 2670 4047 
Q 2441 4250 2034 4250 
Q 1625 4250 1398 4047 
Q 1172 3844 1172 3481 
z
" transform="scale(0.015625)"/>
       </defs>
       <use xlink:href="#DejaVuSans-38"/>
      </g>
     </g>
    </g>
    <g id="xtick_6">
     <g id="line2d_6">
      <g>
       <use xlink:href="#meeb3eb8c6b" x="363.742188" y="339.84" style="stroke: #000000; stroke-width: 0.8"/>
      </g>
     </g>
     <g id="text_6">
      <!-- 10 -->
      <g transform="translate(357.379688 354.438438)scale(0.1 -0.1)">
       <defs>
        <path id="DejaVuSans-31" d="M 794 531 
L 1825 531 
L 1825 4091 
L 703 3866 
L 703 4441 
L 1819 4666 
L 2450 4666 
L 2450 531 
L 3481 531 
L 3481 0 
L 794 0 
L 794 531 
z
" transform="scale(0.015625)"/>
       </defs>
       <use xlink:href="#DejaVuSans-31"/>
       <use xlink:href="#DejaVuSans-30" x="63.623047"/>
      </g>
     </g>
    </g>
   </g>
   <g id="matplotlib.axis_2">
    <g id="ytick_1">
     <g id="line2d_7">
      <defs>
       <path id="m78f842f93d" d="M 0 0 
L -3.5 0 
" style="stroke: #000000; stroke-width: 0.8"/>
      </defs>
      <g>
       <use xlink:href="#m78f842f93d" x="28.942188" y="306.576" style="stroke: #000000; stroke-width: 0.8"/>
      </g>
     </g>
     <g id="text_7">
      <!-- −4 -->
      <g transform="translate(7.2 310.375219)scale(0.1 -0.1)">
       <defs>
        <path id="DejaVuSans-2212" d="M 678 2272 
L 4684 2272 
L 4684 1741 
L 678 1741 
L 678 2272 
z
" transform="scale(0.015625)"/>
       </defs>
       <use xlink:href="#DejaVuSans-2212"/>
       <use xlink:href="#DejaVuSans-34" x="83.789062"/>
      </g>
     </g>
    </g>
    <g id="ytick_2">
     <g id="line2d_8">
      <g>
       <use xlink:href="#m78f842f93d" x="28.942188" y="240.048" style="stroke: #000000; stroke-width: 0.8"/>
      </g>
     </g>
     <g id="text_8">
      <!-- −2 -->
      <g transform="translate(7.2 243.847219)scale(0.1 -0.1)">
       <use xlink:href="#DejaVuSans-2212"/>
       <use xlink:href="#DejaVuSans-32" x="83.789062"/>
      </g>
     </g>
    </g>
    <g id="ytick_3">
     <g id="line2d_9">
      <g>
       <use xlink:href="#m78f842f93d" x="28.942188" y="173.52" style="stroke: #000000; stroke-width: 0.8"/>
      </g>
     </g>
     <g id="text_9">
      <!-- 0 -->
      <g transform="translate(15.579688 177.319219)scale(0.1 -0.1)">
       <use xlink:href="#DejaVuSans-30"/>
      </g>
     </g>
    </g>
    <g id="ytick_4">
     <g id="line2d_10">
      <g>
       <use xlink:href="#m78f842f93d" x="28.942188" y="106.992" style="stroke: #000000; stroke-width: 0.8"/>
      </g>
     </g>
     <g id="text_10">
      <!-- 2 -->
      <g transform="translate(15.579688 110.791219)scale(0.1 -0.1)">
       <use xlink:href="#DejaVuSans-32"/>
      </g>
     </g>
    </g>
    <g id="ytick_5">
     <g id="line2d_11">
      <g>
       <use xlink:href="#m78f842f93d" x="28.942188" y="40.464" style="stroke: #000000; stroke-width: 0.8"/>
      </g>
     </g>
     <g id="text_11">
      <!-- 4 -->
      <g transform="translate(15.579688 44.263219)scale(0.1 -0.1)">
       <use xlink:href="#DejaVuSans-34"/>
      </g>
     </g>
    </g>
   </g>
   <g id="line2d_12">
    <path d="M 28.942188 140.256 
L 30.616188 140.358542 
L 32.290188 140.665535 
L 33.964188 141.175087 
L 35.972988 142.049417 
L 37.981788 143.203081 
L 39.990588 144.625841 
L 41.999388 146.305068 
L 44.342988 148.568305 
L 46.686588 151.132912 
L 49.364988 154.393025 
L 52.378188 158.41846 
L 56.060988 163.739043 
L 61.082988 171.431336 
L 69.452988 184.294789 
L 73.135788 189.545054 
L 76.148988 193.492378 
L 78.827388 196.668843 
L 81.170988 199.150353 
L 83.514588 201.322296 
L 85.523388 202.91758 
L 87.532188 204.251929 
L 89.540988 205.313499 
L 91.549788 206.092868 
L 93.223788 206.521703 
L 94.897788 206.747073 
L 96.571788 206.767586 
L 98.245788 206.583117 
L 99.919788 206.194803 
L 101.593788 205.605038 
L 103.602588 204.63661 
L 105.611388 203.391989 
L 107.620188 201.882222 
L 109.963788 199.803716 
L 112.307388 197.407753 
L 114.985788 194.318072 
L 117.998988 190.452754 
L 121.346988 185.765295 
L 125.699388 179.23905 
L 138.421788 159.831386 
L 141.769788 155.257305 
L 144.782988 151.522122 
L 147.461388 148.568305 
L 149.804988 146.305068 
L 152.148588 144.370535 
L 154.157388 142.99181 
L 156.166188 141.884056 
L 158.174987 141.057105 
L 159.848988 140.587853 
L 161.522987 140.321639 
L 163.196988 140.260104 
L 164.870988 140.403627 
L 166.544988 140.751323 
L 168.218988 141.30105 
L 170.227788 142.222542 
L 172.236588 143.421833 
L 174.245387 144.888277 
L 176.254188 146.608859 
L 178.597788 148.916911 
L 180.941388 151.522122 
L 183.619788 154.822859 
L 186.632988 158.885863 
L 190.315788 164.23964 
L 195.672588 172.475153 
L 203.372988 184.294789 
L 207.055788 189.545054 
L 210.068988 193.492378 
L 212.747388 196.668843 
L 215.090988 199.150353 
L 217.434588 201.322296 
L 219.443388 202.91758 
L 221.452188 204.251929 
L 223.460988 205.313499 
L 225.469788 206.092868 
L 227.143788 206.521703 
L 228.817788 206.747073 
L 230.491788 206.767586 
L 232.165788 206.583117 
L 233.839788 206.194803 
L 235.513788 205.605038 
L 237.522588 204.63661 
L 239.531388 203.391989 
L 241.540188 201.882222 
L 243.883788 199.803716 
L 246.227388 197.407753 
L 248.905788 194.318072 
L 251.918988 190.452754 
L 255.266988 185.765295 
L 259.619388 179.23905 
L 272.341788 159.831386 
L 275.689788 155.257305 
L 278.702988 151.522122 
L 281.381388 148.568305 
L 283.724988 146.305068 
L 286.068588 144.370535 
L 288.077388 142.99181 
L 290.086187 141.884056 
L 292.094988 141.057105 
L 293.768988 140.587853 
L 295.442988 140.321639 
L 297.116987 140.260104 
L 298.790988 140.403627 
L 300.464988 140.751323 
L 302.138988 141.30105 
L 304.147788 142.222542 
L 306.156588 143.421833 
L 308.165388 144.888277 
L 310.174188 146.608859 
L 312.517788 148.916911 
L 314.861388 151.522122 
L 317.539788 154.822859 
L 320.552988 158.885863 
L 324.235788 164.23964 
L 329.592588 172.475153 
L 337.292988 184.294789 
L 340.975788 189.545054 
L 343.988988 193.492378 
L 346.667388 196.668843 
L 349.010988 199.150353 
L 351.354588 201.322296 
L 353.363387 202.91758 
L 355.372188 204.251929 
L 357.380988 205.313499 
L 359.389788 206.092868 
L 361.063788 206.521703 
L 362.737788 206.747073 
L 363.407388 206.779896 
L 363.407388 206.779896 
" clip-path="url(#p2101bee660)" style="fill: none; stroke: #404040; stroke-width: 2; stroke-linecap: square"/>
   </g>
   <g id="line2d_13">
    <path d="M 28.942188 106.992 
L 30.281388 107.123278 
L 31.620588 107.516593 
L 32.959788 108.170394 
L 34.298988 109.082099 
L 35.638188 110.248112 
L 37.312188 112.056142 
L 38.986187 114.243118 
L 40.660188 116.795555 
L 42.668988 120.318579 
L 44.677788 124.313823 
L 47.021388 129.524244 
L 49.364988 135.266051 
L 52.043388 142.389565 
L 55.391388 151.970422 
L 59.743788 165.181831 
L 70.122588 197.035974 
L 73.470588 206.481874 
L 76.483788 214.29548 
L 78.827388 219.817687 
L 81.170988 224.780705 
L 83.179788 228.544016 
L 85.188588 231.818931 
L 86.862588 234.153837 
L 88.536588 236.114916 
L 90.210588 237.690076 
L 91.549788 238.665735 
L 92.888988 239.384294 
L 94.228188 239.842916 
L 95.567388 240.039793 
L 96.906588 239.974146 
L 98.245788 239.646234 
L 99.584988 239.057353 
L 100.924188 238.209826 
L 102.263388 237.106998 
L 103.602588 235.75322 
L 105.276588 233.716334 
L 106.950588 231.308317 
L 108.624588 228.544016 
L 110.633388 224.780705 
L 112.642188 220.5624 
L 114.985788 215.116143 
L 117.664188 208.280785 
L 120.677388 199.941455 
L 124.360188 189.050653 
L 130.386588 170.386102 
L 136.078188 152.961717 
L 139.760987 142.389565 
L 142.774188 134.415823 
L 145.452588 127.97845 
L 147.796188 122.931712 
L 149.804988 119.090136 
L 151.813788 115.731683 
L 153.487788 113.323666 
L 155.161788 111.28678 
L 156.835788 109.633582 
L 158.174987 108.59421 
L 159.514187 107.81107 
L 160.853387 107.287254 
L 162.192588 107.024828 
L 163.531788 107.024828 
L 164.870988 107.287254 
L 166.210188 107.81107 
L 167.549388 108.59421 
L 168.888588 109.633582 
L 170.227788 110.925084 
L 171.901788 112.886163 
L 173.575788 115.221069 
L 175.249788 117.915408 
L 177.258588 121.599526 
L 179.267388 125.744494 
L 181.610988 131.113457 
L 184.289388 137.872515 
L 187.302588 146.142773 
L 190.985388 156.975159 
L 196.676987 174.564976 
L 203.038188 194.078283 
L 206.720988 204.650435 
L 209.734188 212.624177 
L 212.412588 219.06155 
L 214.756188 224.108288 
L 216.764988 227.949864 
L 218.773788 231.308317 
L 220.447788 233.716334 
L 222.121788 235.75322 
L 223.795788 237.406418 
L 225.134988 238.44579 
L 226.474188 239.22893 
L 227.813388 239.752746 
L 229.152588 240.015172 
L 230.491788 240.015172 
L 231.830988 239.752746 
L 233.170188 239.22893 
L 234.509388 238.44579 
L 235.848588 237.406418 
L 237.187788 236.114916 
L 238.861788 234.153837 
L 240.535788 231.818931 
L 242.209788 229.124592 
L 244.218588 225.440474 
L 246.227388 221.295506 
L 248.570988 215.926543 
L 251.249388 209.167485 
L 254.262588 200.897227 
L 257.945388 190.064841 
L 263.636988 172.475024 
L 269.998188 152.961717 
L 273.680988 142.389565 
L 276.694188 134.415823 
L 279.372588 127.97845 
L 281.716188 122.931712 
L 283.724988 119.090136 
L 285.733788 115.731683 
L 287.407787 113.323666 
L 289.081788 111.28678 
L 290.755788 109.633582 
L 292.094988 108.59421 
L 293.434188 107.81107 
L 294.773388 107.287254 
L 296.112588 107.024828 
L 297.451788 107.024828 
L 298.790988 107.287254 
L 300.130188 107.81107 
L 301.469388 108.59421 
L 302.808587 109.633582 
L 304.147788 110.925084 
L 305.821788 112.886163 
L 307.495788 115.221069 
L 309.169788 117.915408 
L 311.178587 121.599526 
L 313.187388 125.744494 
L 315.530988 131.113457 
L 318.209388 137.872515 
L 321.222588 146.142773 
L 324.905388 156.975159 
L 330.596988 174.564976 
L 336.958188 194.078283 
L 340.640988 204.650435 
L 343.654188 212.624177 
L 346.332588 219.06155 
L 348.676188 224.108288 
L 350.684988 227.949864 
L 352.693788 231.308317 
L 354.367788 233.716334 
L 356.041787 235.75322 
L 357.715788 237.406418 
L 359.054987 238.44579 
L 360.394188 239.22893 
L 361.733387 239.752746 
L 363.072588 240.015172 
L 363.407388 240.039793 
L 363.407388 240.039793 
" clip-path="url(#p2101bee660)" style="fill: none; stroke: #808080; stroke-width: 2; stroke-linecap: square"/>
   </g>
   <g id="line2d_14">
    <path d="M 28.942188 73.728 
L 29.946588 73.838782 
L 30.950988 74.17088 
L 31.955388 74.723559 
L 32.959788 75.495591 
L 34.298988 76.863149 
L 35.638188 78.612168 
L 36.977388 80.735745 
L 38.316588 83.225499 
L 39.990588 86.837524 
L 41.664588 90.983975 
L 43.673388 96.628942 
L 45.682188 102.9564 
L 48.025788 111.125785 
L 50.704188 121.378823 
L 53.717388 133.887818 
L 57.400188 150.22402 
L 63.426588 178.220847 
L 69.118188 204.357424 
L 72.800988 220.215652 
L 75.814188 232.176266 
L 78.492588 241.832325 
L 80.836188 249.402432 
L 82.844988 255.164797 
L 84.853788 260.202476 
L 86.527788 263.814501 
L 88.201788 266.869831 
L 89.540988 268.900497 
L 90.880188 270.554739 
L 92.219388 271.82603 
L 93.223788 272.52511 
L 94.228188 273.004375 
L 95.232588 273.262759 
L 96.236988 273.299689 
L 97.241388 273.115083 
L 98.245788 272.709352 
L 99.250188 272.083395 
L 100.254588 271.238603 
L 101.593788 269.775114 
L 102.932988 267.93175 
L 104.272188 265.715786 
L 105.946188 262.435323 
L 107.620188 258.606667 
L 109.294188 254.253424 
L 111.302988 248.375084 
L 113.311788 241.832325 
L 115.655388 233.437135 
L 118.333788 222.962811 
L 121.346988 210.255885 
L 125.364588 192.219156 
L 138.756588 131.030633 
L 141.769788 118.731915 
L 144.448188 108.71028 
L 146.791787 100.774763 
L 148.800588 94.668851 
L 150.809388 89.262828 
L 152.483388 85.32726 
L 154.157388 81.93543 
L 155.831388 79.10825 
L 157.170588 77.264886 
L 158.509788 75.801397 
L 159.848988 74.723559 
L 160.853387 74.17088 
L 161.857788 73.838782 
L 162.862188 73.728 
L 163.866588 73.838782 
L 164.870988 74.17088 
L 165.875387 74.723559 
L 166.879788 75.495591 
L 168.218988 76.863149 
L 169.558188 78.612168 
L 170.897388 80.735745 
L 172.236588 83.225499 
L 173.910588 86.837524 
L 175.584587 90.983975 
L 177.593388 96.628942 
L 179.602188 102.9564 
L 181.945788 111.125785 
L 184.624188 121.378823 
L 187.637388 133.887818 
L 191.320188 150.22402 
L 197.346588 178.220847 
L 203.038188 204.357424 
L 206.720988 220.215652 
L 209.734188 232.176266 
L 212.412588 241.832325 
L 214.756188 249.402432 
L 216.764988 255.164797 
L 218.773788 260.202476 
L 220.447788 263.814501 
L 222.121788 266.869831 
L 223.460988 268.900497 
L 224.800188 270.554739 
L 226.139387 271.82603 
L 227.143788 272.52511 
L 228.148188 273.004375 
L 229.152588 273.262759 
L 230.156988 273.299689 
L 231.161388 273.115083 
L 232.165788 272.709352 
L 233.170188 272.083395 
L 234.174588 271.238603 
L 235.513788 269.775114 
L 236.852988 267.93175 
L 238.192188 265.715786 
L 239.866188 262.435323 
L 241.540188 258.606667 
L 243.214188 254.253424 
L 245.222988 248.375084 
L 247.231788 241.832325 
L 249.575388 233.437135 
L 252.253788 222.962811 
L 255.266988 210.255885 
L 259.284588 192.219156 
L 272.676588 131.030633 
L 275.689788 118.731915 
L 278.368188 108.71028 
L 280.711788 100.774763 
L 282.720588 94.668851 
L 284.729388 89.262828 
L 286.403388 85.32726 
L 288.077388 81.93543 
L 289.751388 79.10825 
L 291.090588 77.264886 
L 292.429788 75.801397 
L 293.768988 74.723559 
L 294.773388 74.17088 
L 295.777787 73.838782 
L 296.782188 73.728 
L 297.786587 73.838782 
L 298.790988 74.17088 
L 299.795388 74.723559 
L 300.799788 75.495591 
L 302.138988 76.863149 
L 303.478187 78.612168 
L 304.817388 80.735745 
L 306.156588 83.225499 
L 307.830588 86.837524 
L 309.504588 90.983975 
L 311.513388 96.628942 
L 313.522188 102.9564 
L 315.865788 111.125785 
L 318.544188 121.378823 
L 321.557388 133.887818 
L 325.240187 150.22402 
L 331.266588 178.220847 
L 336.958188 204.357424 
L 340.640988 220.215652 
L 343.654188 232.176266 
L 346.332588 241.832325 
L 348.676188 249.402432 
L 350.684988 255.164797 
L 352.693788 260.202476 
L 354.367788 263.814501 
L 356.041787 266.869831 
L 357.380988 268.900497 
L 358.720188 270.554739 
L 360.059388 271.82603 
L 361.063788 272.52511 
L 362.068188 273.004375 
L 363.072588 273.262759 
L 363.407388 273.299689 
L 363.407388 273.299689 
" clip-path="url(#p2101bee660)" style="fill: none; stroke: #bfbfbf; stroke-width: 2; stroke-linecap: square"/>
   </g>
   <g id="patch_3">
    <path d="M 28.942188 339.84 
L 28.942188 7.2 
" style="fill: none; stroke: #000000; stroke-width: 0.8; stroke-linejoin: miter; stroke-linecap: square"/>
   </g>
   <g id="patch_4">
    <path d="M 363.742188 339.84 
L 363.742188 7.2 
" style="fill: none; stroke: #000000; stroke-width: 0.8; stroke-linejoin: miter; stroke-linecap: square"/>
   </g>
   <g id="patch_5">
    <path d="M 28.942188 339.84 
L 363.742188 339.84 
" style="fill: none; stroke: #000000; stroke-width: 0.8; stroke-linejoin: miter; stroke-linecap: square"/>
   </g>
   <g id="patch_6">
    <path d="M 28.942188 7.2 
L 363.742188 7.2 
" style="fill: none; stroke: #000000; stroke-width: 0.8; stroke-linejoin: miter; stroke-linecap: square"/>
   </g>
  </g>
 </g>
 <defs>
  <clipPath id="p2101bee660">
   <rect x="28.942188" y="7.2" width="334.8" height="332.64"/>
  </clipPath>
 </defs>
</svg>
