<?xml version="1.0" encoding="utf-8" standalone="no"?>
<!DOCTYPE svg PUBLIC "-//W3C//DTD SVG 1.1//EN"
  "http://www.w3.org/Graphics/SVG/1.1/DTD/svg11.dtd">
<svg xmlns:xlink="http://www.w3.org/1999/xlink" width="370.942187pt" height="367.517344pt" viewBox="0 0 370.942187 367.517344" xmlns="http://www.w3.org/2000/svg" version="1.1">
 <metadata>
  <rdf:RDF xmlns:dc="http://purl.org/dc/elements/1.1/" xmlns:cc="http://creativecommons.org/ns#" xmlns:rdf="http://www.w3.org/1999/02/22-rdf-syntax-ns#">
   <cc:Work>
    <dc:type rdf:resource="http://purl.org/dc/dcmitype/StillImage"/>
    <dc:date>2022-05-03T11:23:41.554150</dc:date>
    <dc:format>image/svg+xml</dc:format>
    <dc:creator>
     <cc:Agent>
      <dc:title>Matplotlib v3.5.2, https://matplotlib.org/</dc:title>
     </cc:Agent>
    </dc:creator>
   </cc:Work>
  </rdf:RDF>
 </metadata>
 <defs>
  <style type="text/css">*{stroke-linejoin: round; stroke-linecap: butt}</style>
 </defs>
 <g id="figure_1">
  <g id="patch_1">
   <path d="M 0 367.517344 
L 370.942187 367.517344 
L 370.942187 0 
L 0 0 
L 0 367.517344 
z
" style="fill: none"/>
  </g>
  <g id="axes_1">
   <g id="patch_2">
    <path d="M 28.942188 343.639219 
L 363.742188 343.639219 
L 363.742188 10.999219 
L 28.942188 10.999219 
z
" style="fill: #ffffff"/>
   </g>
   <g id="matplotlib.axis_1">
    <g id="xtick_1">
     <g id="line2d_1">
      <defs>
       <path id="mbaa0f3141d" d="M 0 0 
L 0 3.5 
" style="stroke: #000000; stroke-width: 0.8"/>
      </defs>
      <g>
       <use xlink:href="#mbaa0f3141d" x="62.422188" y="343.639219" style="stroke: #000000; stroke-width: 0.8"/>
      </g>
     </g>
     <g id="text_1">
      <!-- −4 -->
      <g transform="translate(55.051094 358.237656)scale(0.1 -0.1)">
       <defs>
        <path id="DejaVuSans-2212" d="M 678 2272 
L 4684 2272 
L 4684 1741 
L 678 1741 
L 678 2272 
z
" transform="scale(0.015625)"/>
        <path id="DejaVuSans-34" d="M 2419 4116 
L 825 1625 
L 2419 1625 
L 2419 4116 
z
M 2253 4666 
L 3047 4666 
L 3047 1625 
L 3713 1625 
L 3713 1100 
L 3047 1100 
L 3047 0 
L 2419 0 
L 2419 1100 
L 313 1100 
L 313 1709 
L 2253 4666 
z
" transform="scale(0.015625)"/>
       </defs>
       <use xlink:href="#DejaVuSans-2212"/>
       <use xlink:href="#DejaVuSans-34" x="83.789062"/>
      </g>
     </g>
    </g>
    <g id="xtick_2">
     <g id="line2d_2">
      <g>
       <use xlink:href="#mbaa0f3141d" x="129.382188" y="343.639219" style="stroke: #000000; stroke-width: 0.8"/>
      </g>
     </g>
     <g id="text_2">
      <!-- −2 -->
      <g transform="translate(122.011094 358.237656)scale(0.1 -0.1)">
       <defs>
        <path id="DejaVuSans-32" d="M 1228 531 
L 3431 531 
L 3431 0 
L 469 0 
L 469 531 
Q 828 903 1448 1529 
Q 2069 2156 2228 2338 
Q 2531 2678 2651 2914 
Q 2772 3150 2772 3378 
Q 2772 3750 2511 3984 
Q 2250 4219 1831 4219 
Q 1534 4219 1204 4116 
Q 875 4013 500 3803 
L 500 4441 
Q 881 4594 1212 4672 
Q 1544 4750 1819 4750 
Q 2544 4750 2975 4387 
Q 3406 4025 3406 3419 
Q 3406 3131 3298 2873 
Q 3191 2616 2906 2266 
Q 2828 2175 2409 1742 
Q 1991 1309 1228 531 
z
" transform="scale(0.015625)"/>
       </defs>
       <use xlink:href="#DejaVuSans-2212"/>
       <use xlink:href="#DejaVuSans-32" x="83.789062"/>
      </g>
     </g>
    </g>
    <g id="xtick_3">
     <g id="line2d_3">
      <g>
       <use xlink:href="#mbaa0f3141d" x="196.342188" y="343.639219" style="stroke: #000000; stroke-width: 0.8"/>
      </g>
     </g>
     <g id="text_3">
      <!-- 0 -->
      <g transform="translate(193.160938 358.237656)scale(0.1 -0.1)">
       <defs>
        <path id="DejaVuSans-30" d="M 2034 4250 
Q 1547 4250 1301 3770 
Q 1056 3291 1056 2328 
Q 1056 1369 1301 889 
Q 1547 409 2034 409 
Q 2525 409 2770 889 
Q 3016 1369 3016 2328 
Q 3016 3291 2770 3770 
Q 2525 4250 2034 4250 
z
M 2034 4750 
Q 2819 4750 3233 4129 
Q 3647 3509 3647 2328 
Q 3647 1150 3233 529 
Q 2819 -91 2034 -91 
Q 1250 -91 836 529 
Q 422 1150 422 2328 
Q 422 3509 836 4129 
Q 1250 4750 2034 4750 
z
" transform="scale(0.015625)"/>
       </defs>
       <use xlink:href="#DejaVuSans-30"/>
      </g>
     </g>
    </g>
    <g id="xtick_4">
     <g id="line2d_4">
      <g>
       <use xlink:href="#mbaa0f3141d" x="263.302188" y="343.639219" style="stroke: #000000; stroke-width: 0.8"/>
      </g>
     </g>
     <g id="text_4">
      <!-- 2 -->
      <g transform="translate(260.120938 358.237656)scale(0.1 -0.1)">
       <use xlink:href="#DejaVuSans-32"/>
      </g>
     </g>
    </g>
    <g id="xtick_5">
     <g id="line2d_5">
      <g>
       <use xlink:href="#mbaa0f3141d" x="330.262188" y="343.639219" style="stroke: #000000; stroke-width: 0.8"/>
      </g>
     </g>
     <g id="text_5">
      <!-- 4 -->
      <g transform="translate(327.080938 358.237656)scale(0.1 -0.1)">
       <use xlink:href="#DejaVuSans-34"/>
      </g>
     </g>
    </g>
   </g>
   <g id="matplotlib.axis_2">
    <g id="ytick_1">
     <g id="line2d_6">
      <defs>
       <path id="m05fa1a42e5" d="M 0 0 
L -3.5 0 
" style="stroke: #000000; stroke-width: 0.8"/>
      </defs>
      <g>
       <use xlink:href="#m05fa1a42e5" x="28.942188" y="343.639219" style="stroke: #000000; stroke-width: 0.8"/>
      </g>
     </g>
     <g id="text_6">
      <!-- −2 -->
      <g transform="translate(7.2 347.438438)scale(0.1 -0.1)">
       <use xlink:href="#DejaVuSans-2212"/>
       <use xlink:href="#DejaVuSans-32" x="83.789062"/>
      </g>
     </g>
    </g>
    <g id="ytick_2">
     <g id="line2d_7">
      <g>
       <use xlink:href="#m05fa1a42e5" x="28.942188" y="288.199219" style="stroke: #000000; stroke-width: 0.8"/>
      </g>
     </g>
     <g id="text_7">
      <!-- −1 -->
      <g transform="translate(7.2 291.998438)scale(0.1 -0.1)">
       <defs>
        <path id="DejaVuSans-31" d="M 794 531 
L 1825 531 
L 1825 4091 
L 703 3866 
L 703 4441 
L 1819 4666 
L 2450 4666 
L 2450 531 
L 3481 531 
L 3481 0 
L 794 0 
L 794 531 
z
" transform="scale(0.015625)"/>
       </defs>
       <use xlink:href="#DejaVuSans-2212"/>
       <use xlink:href="#DejaVuSans-31" x="83.789062"/>
      </g>
     </g>
    </g>
    <g id="ytick_3">
     <g id="line2d_8">
      <g>
       <use xlink:href="#m05fa1a42e5" x="28.942188" y="232.759219" style="stroke: #000000; stroke-width: 0.8"/>
      </g>
     </g>
     <g id="text_8">
      <!-- 0 -->
      <g transform="translate(15.579688 236.558437)scale(0.1 -0.1)">
       <use xlink:href="#DejaVuSans-30"/>
      </g>
     </g>
    </g>
    <g id="ytick_4">
     <g id="line2d_9">
      <g>
       <use xlink:href="#m05fa1a42e5" x="28.942188" y="177.319219" style="stroke: #000000; stroke-width: 0.8"/>
      </g>
     </g>
     <g id="text_9">
      <!-- 1 -->
      <g transform="translate(15.579688 181.118437)scale(0.1 -0.1)">
       <use xlink:href="#DejaVuSans-31"/>
      </g>
     </g>
    </g>
    <g id="ytick_5">
     <g id="line2d_10">
      <g>
       <use xlink:href="#m05fa1a42e5" x="28.942188" y="121.879219" style="stroke: #000000; stroke-width: 0.8"/>
      </g>
     </g>
     <g id="text_10">
      <!-- 2 -->
      <g transform="translate(15.579688 125.678438)scale(0.1 -0.1)">
       <use xlink:href="#DejaVuSans-32"/>
      </g>
     </g>
    </g>
    <g id="ytick_6">
     <g id="line2d_11">
      <g>
       <use xlink:href="#m05fa1a42e5" x="28.942188" y="66.439219" style="stroke: #000000; stroke-width: 0.8"/>
      </g>
     </g>
     <g id="text_11">
      <!-- 3 -->
      <g transform="translate(15.579688 70.238438)scale(0.1 -0.1)">
       <defs>
        <path id="DejaVuSans-33" d="M 2597 2516 
Q 3050 2419 3304 2112 
Q 3559 1806 3559 1356 
Q 3559 666 3084 287 
Q 2609 -91 1734 -91 
Q 1441 -91 1130 -33 
Q 819 25 488 141 
L 488 750 
Q 750 597 1062 519 
Q 1375 441 1716 441 
Q 2309 441 2620 675 
Q 2931 909 2931 1356 
Q 2931 1769 2642 2001 
Q 2353 2234 1838 2234 
L 1294 2234 
L 1294 2753 
L 1863 2753 
Q 2328 2753 2575 2939 
Q 2822 3125 2822 3475 
Q 2822 3834 2567 4026 
Q 2313 4219 1838 4219 
Q 1578 4219 1281 4162 
Q 984 4106 628 3988 
L 628 4550 
Q 988 4650 1302 4700 
Q 1616 4750 1894 4750 
Q 2613 4750 3031 4423 
Q 3450 4097 3450 3541 
Q 3450 3153 3228 2886 
Q 3006 2619 2597 2516 
z
" transform="scale(0.015625)"/>
       </defs>
       <use xlink:href="#DejaVuSans-33"/>
      </g>
     </g>
    </g>
    <g id="ytick_7">
     <g id="line2d_12">
      <g>
       <use xlink:href="#m05fa1a42e5" x="28.942188" y="10.999219" style="stroke: #000000; stroke-width: 0.8"/>
      </g>
     </g>
     <g id="text_12">
      <!-- 4 -->
      <g transform="translate(15.579688 14.798437)scale(0.1 -0.1)">
       <use xlink:href="#DejaVuSans-34"/>
      </g>
     </g>
    </g>
   </g>
   <g id="line2d_13">
    <path d="M 28.942187 232.764177 
L 55.391387 232.890568 
L 65.770187 233.151509 
L 72.800987 233.531988 
L 78.492587 234.046938 
L 83.514587 234.722278 
L 87.866987 235.525601 
L 91.884587 236.48535 
L 95.567387 237.576344 
L 99.250187 238.888833 
L 102.932987 240.43318 
L 106.615787 242.207264 
L 110.633387 244.381775 
L 115.655387 247.366985 
L 125.699387 253.419934 
L 129.047387 255.11627 
L 131.725787 256.218896 
L 134.069387 256.938596 
L 136.078187 257.335387 
L 138.086987 257.497557 
L 139.760987 257.432696 
L 141.434987 257.169226 
L 143.108987 256.692655 
L 144.782987 255.990026 
L 146.456987 255.050245 
L 148.130987 253.864406 
L 149.804987 252.426102 
L 151.478987 250.731715 
L 153.487787 248.359846 
L 155.496587 245.623838 
L 157.505387 242.536174 
L 159.848987 238.516526 
L 162.527387 233.428344 
L 165.540587 227.181957 
L 169.558187 218.266446 
L 177.928187 199.517736 
L 180.941387 193.438497 
L 183.284987 189.194014 
L 185.293787 185.974682 
L 187.302587 183.200534 
L 188.976587 181.263903 
L 190.650587 179.693797 
L 191.989787 178.714765 
L 193.328987 177.990546 
L 194.668187 177.526902 
L 196.007387 177.327534 
L 197.346587 177.394035 
L 198.685787 177.725872 
L 200.024987 178.320396 
L 201.364187 179.172869 
L 202.703387 180.276517 
L 204.377387 181.995805 
L 206.051387 184.072647 
L 207.725387 186.481735 
L 209.734187 189.77006 
L 212.077787 194.082591 
L 214.756187 199.517736 
L 218.104187 206.839487 
L 228.817787 230.712318 
L 231.830987 236.666323 
L 234.509387 241.432042 
L 236.852987 245.133202 
L 238.861787 247.928886 
L 240.870587 250.362001 
L 242.879387 252.426102 
L 244.553387 253.864406 
L 246.227387 255.050245 
L 247.901387 255.990026 
L 249.575387 256.692655 
L 251.249387 257.169226 
L 252.923387 257.432696 
L 254.597387 257.497557 
L 256.606187 257.335387 
L 258.614987 256.938596 
L 260.958587 256.218896 
L 263.302187 255.268183 
L 266.315387 253.781863 
L 269.998187 251.689706 
L 277.698587 246.957005 
L 283.055387 243.817035 
L 287.072987 241.701374 
L 291.090587 239.844589 
L 294.773387 238.385058 
L 298.456187 237.154836 
L 302.473787 236.057807 
L 306.491387 235.189702 
L 310.843787 234.4701 
L 315.865787 233.871341 
L 321.557387 233.419887 
L 328.588187 233.09051 
L 338.297387 232.876685 
L 354.702587 232.775643 
L 363.407387 232.76441 
L 363.407387 232.76441 
" clip-path="url(#pedd6bbe62a)" style="fill: none; stroke: #404040; stroke-width: 2; stroke-linecap: square"/>
   </g>
   <g id="line2d_14">
    <path d="M 28.942187 232.769136 
L 50.369387 232.907975 
L 59.743787 233.180476 
L 66.104987 233.57049 
L 71.126987 234.080555 
L 75.479387 234.73305 
L 79.496987 235.567391 
L 82.844987 236.476606 
L 86.192987 237.620184 
L 89.206187 238.881841 
L 92.219387 240.392437 
L 95.232587 242.177268 
L 97.910987 244.010896 
L 100.589387 246.087554 
L 103.602587 248.7187 
L 106.615787 251.65531 
L 109.963787 255.248441 
L 113.646587 259.532797 
L 120.007787 267.362622 
L 124.360187 272.578965 
L 127.373387 275.851003 
L 129.716987 278.07347 
L 131.725787 279.678573 
L 133.399787 280.759432 
L 135.073787 281.569729 
L 136.412987 281.999785 
L 137.752187 282.2169 
L 139.091387 282.204017 
L 140.430587 281.944747 
L 141.769787 281.423578 
L 143.108987 280.626091 
L 144.448187 279.539178 
L 145.787387 278.151258 
L 147.126587 276.452489 
L 148.465787 274.434981 
L 150.139787 271.456332 
L 151.813787 267.964784 
L 153.487787 263.960473 
L 155.496587 258.488456 
L 157.505387 252.313129 
L 159.848987 244.273833 
L 162.192587 235.421872 
L 164.870987 224.461955 
L 168.218987 209.820354 
L 178.932587 162.091442 
L 181.610987 151.595109 
L 183.619787 144.498404 
L 185.628587 138.200804 
L 187.302587 133.64185 
L 188.976587 129.768587 
L 190.315787 127.195786 
L 191.654987 125.11259 
L 192.659387 123.881573 
L 193.663787 122.940832 
L 194.668187 122.294586 
L 195.672587 121.945736 
L 196.676987 121.89585 
L 197.681387 122.145153 
L 198.685787 122.692525 
L 199.690187 123.535505 
L 200.694587 124.670312 
L 201.698987 126.091864 
L 203.038187 128.422167 
L 204.377387 131.232392 
L 206.051387 135.386075 
L 207.725387 140.204252 
L 209.734187 146.780901 
L 211.742987 154.117775 
L 214.086587 163.473162 
L 217.099787 176.436913 
L 222.456587 200.727258 
L 227.143787 221.604696 
L 230.156987 234.097469 
L 232.835387 244.273833 
L 235.178987 252.313129 
L 237.187787 258.488456 
L 239.196587 263.960473 
L 240.870587 267.964784 
L 242.544587 271.456332 
L 244.218587 274.434981 
L 245.892587 276.90679 
L 247.231787 278.527027 
L 248.570987 279.838702 
L 249.910187 280.852109 
L 251.249387 281.579233 
L 252.588587 282.033529 
L 253.927787 282.22971 
L 255.266987 282.183527 
L 256.606187 281.911556 
L 257.945387 281.430989 
L 259.619387 280.563788 
L 261.293387 279.433006 
L 263.302187 277.777147 
L 265.645787 275.507746 
L 268.324187 272.578965 
L 272.006987 268.186687 
L 282.050987 256.004331 
L 285.398987 252.347457 
L 288.412187 249.345404 
L 291.425387 246.645293 
L 294.438587 244.257045 
L 297.451787 242.177268 
L 300.464987 240.392437 
L 303.478187 238.881841 
L 306.491387 237.620184 
L 309.839387 236.476606 
L 313.187387 235.567391 
L 316.870187 234.793243 
L 321.222587 234.122951 
L 326.244587 233.597991 
L 332.270987 233.211446 
L 339.971387 232.953802 
L 351.689387 232.807318 
L 363.407387 232.7696 
L 363.407387 232.7696 
" clip-path="url(#pedd6bbe62a)" style="fill: none; stroke: #808080; stroke-width: 2; stroke-linecap: square"/>
   </g>
   <g id="line2d_15">
    <path d="M 28.942187 232.774094 
L 47.690987 232.922279 
L 56.395787 233.199386 
L 62.422187 233.596131 
L 67.444187 234.148743 
L 71.461787 234.804817 
L 75.144587 235.632006 
L 78.492587 236.622375 
L 81.505787 237.750809 
L 84.184187 238.976016 
L 86.862587 240.441045 
L 89.540987 242.175742 
L 92.219387 244.209046 
L 94.562987 246.254069 
L 96.906587 248.563222 
L 99.584987 251.540292 
L 102.263387 254.886686 
L 104.941787 258.601017 
L 107.954987 263.200316 
L 111.302987 268.777362 
L 115.320587 275.966588 
L 125.029787 293.627626 
L 127.708187 297.902906 
L 129.716987 300.730596 
L 131.390987 302.7699 
L 133.064987 304.466072 
L 134.404187 305.540857 
L 135.743387 306.335823 
L 137.082587 306.824449 
L 138.086987 306.974232 
L 139.091387 306.926416 
L 140.095787 306.670684 
L 141.100187 306.197135 
L 142.104587 305.496362 
L 143.108987 304.559528 
L 144.113387 303.378443 
L 145.452587 301.410931 
L 146.791787 298.980576 
L 148.130987 296.07478 
L 149.470187 292.684091 
L 151.144187 287.75502 
L 152.818187 282.055565 
L 154.492187 275.591819 
L 156.500987 266.850238 
L 158.509787 257.080818 
L 160.853387 244.480533 
L 163.531787 228.684558 
L 166.544987 209.489205 
L 170.897387 180.127914 
L 176.923787 139.476215 
L 179.936987 120.669993 
L 182.280587 107.342325 
L 184.289387 97.077581 
L 185.963387 89.475444 
L 187.637387 82.836452 
L 188.976587 78.27327 
L 190.315787 74.414069 
L 191.654987 71.289275 
L 192.659387 69.44275 
L 193.663787 68.031639 
L 194.668187 67.062269 
L 195.337787 66.663667 
L 196.007387 66.464166 
L 196.676987 66.464166 
L 197.346587 66.663667 
L 198.016187 67.062269 
L 198.685787 67.659178 
L 199.690187 68.923648 
L 200.694587 70.625858 
L 201.698987 72.758187 
L 203.038187 76.253641 
L 204.377387 80.468978 
L 205.716587 85.371058 
L 207.390587 92.405609 
L 209.064587 100.367997 
L 211.073387 111.013054 
L 213.416987 124.70605 
L 216.430187 143.849048 
L 220.782587 173.242829 
L 226.808987 213.861877 
L 229.822187 232.759219 
L 232.500587 248.205262 
L 234.844187 260.447562 
L 236.852987 269.881168 
L 238.861787 278.268221 
L 240.535787 284.427628 
L 242.209787 289.819103 
L 243.883787 294.440507 
L 245.222987 297.587776 
L 246.562187 300.254467 
L 247.901387 302.45164 
L 249.240587 304.193356 
L 250.579787 305.496362 
L 251.584187 306.197135 
L 252.588587 306.670684 
L 253.592987 306.926416 
L 254.597387 306.974232 
L 255.601787 306.824449 
L 256.606187 306.487725 
L 257.945387 305.766874 
L 259.284587 304.759539 
L 260.623787 303.492461 
L 262.297787 301.584173 
L 264.306587 298.886743 
L 266.650187 295.287936 
L 269.328587 290.739866 
L 273.346187 283.422448 
L 280.711787 269.943457 
L 284.059787 264.278953 
L 287.072987 259.585683 
L 289.751387 255.781104 
L 292.429787 252.342116 
L 295.108187 249.27322 
L 297.786587 246.567463 
L 300.464987 244.209046 
L 303.143387 242.175742 
L 305.821787 240.441045 
L 308.500187 238.976016 
L 311.178587 237.750809 
L 314.191787 236.622375 
L 317.539787 235.632006 
L 320.887787 234.870203 
L 324.905387 234.195177 
L 329.592587 233.656009 
L 335.284187 233.250402 
L 342.649787 232.973858 
L 353.363387 232.817656 
L 363.407387 232.774791 
L 363.407387 232.774791 
" clip-path="url(#pedd6bbe62a)" style="fill: none; stroke: #bfbfbf; stroke-width: 2; stroke-linecap: square"/>
   </g>
   <g id="patch_3">
    <path d="M 28.942188 343.639219 
L 28.942188 10.999219 
" style="fill: none; stroke: #000000; stroke-width: 0.8; stroke-linejoin: miter; stroke-linecap: square"/>
   </g>
   <g id="patch_4">
    <path d="M 363.742188 343.639219 
L 363.742188 10.999219 
" style="fill: none; stroke: #000000; stroke-width: 0.8; stroke-linejoin: miter; stroke-linecap: square"/>
   </g>
   <g id="patch_5">
    <path d="M 28.942187 343.639219 
L 363.742188 343.639219 
" style="fill: none; stroke: #000000; stroke-width: 0.8; stroke-linejoin: miter; stroke-linecap: square"/>
   </g>
   <g id="patch_6">
    <path d="M 28.942187 10.999219 
L 363.742188 10.999219 
" style="fill: none; stroke: #000000; stroke-width: 0.8; stroke-linejoin: miter; stroke-linecap: square"/>
   </g>
  </g>
 </g>
 <defs>
  <clipPath id="pedd6bbe62a">
   <rect x="28.942188" y="10.999219" width="334.8" height="332.64"/>
  </clipPath>
 </defs>
</svg>
