<?xml version="1.0" encoding="utf-8" standalone="no"?>
<!DOCTYPE svg PUBLIC "-//W3C//DTD SVG 1.1//EN"
  "http://www.w3.org/Graphics/SVG/1.1/DTD/svg11.dtd">
<svg xmlns:xlink="http://www.w3.org/1999/xlink" width="370.21375pt" height="368.05375pt" viewBox="0 0 370.21375 368.05375" xmlns="http://www.w3.org/2000/svg" version="1.1">
 <metadata>
  <rdf:RDF xmlns:dc="http://purl.org/dc/elements/1.1/" xmlns:cc="http://creativecommons.org/ns#" xmlns:rdf="http://www.w3.org/1999/02/22-rdf-syntax-ns#">
   <cc:Work>
    <dc:type rdf:resource="http://purl.org/dc/dcmitype/StillImage"/>
    <dc:date>2022-05-03T11:23:42.425657</dc:date>
    <dc:format>image/svg+xml</dc:format>
    <dc:creator>
     <cc:Agent>
      <dc:title>Matplotlib v3.5.2, https://matplotlib.org/</dc:title>
     </cc:Agent>
    </dc:creator>
   </cc:Work>
  </rdf:RDF>
 </metadata>
 <defs>
  <style type="text/css">*{stroke-linejoin: round; stroke-linecap: butt}</style>
 </defs>
 <g id="figure_1">
  <g id="patch_1">
   <path d="M 0 368.05375 
L 370.21375 368.05375 
L 370.21375 0 
L 0 0 
L 0 368.05375 
z
" style="fill: none"/>
  </g>
  <g id="axes_1">
   <g id="patch_2">
    <path d="M 28.21375 339.84 
L 363.01375 339.84 
L 363.01375 7.2 
L 28.21375 7.2 
z
" style="fill: #ffffff"/>
   </g>
   <g id="matplotlib.axis_1">
    <g id="xtick_1">
     <g id="line2d_1">
      <defs>
       <path id="m2bccf5639c" d="M 0 0 
L 0 2 
" style="stroke: #000000; stroke-width: 0.6"/>
      </defs>
      <g>
       <use xlink:href="#m2bccf5639c" x="68.900027" y="339.84" style="stroke: #000000; stroke-width: 0.6"/>
      </g>
     </g>
    </g>
    <g id="xtick_2">
     <g id="line2d_2">
      <g>
       <use xlink:href="#m2bccf5639c" x="92.699974" y="339.84" style="stroke: #000000; stroke-width: 0.6"/>
      </g>
     </g>
    </g>
    <g id="xtick_3">
     <g id="line2d_3">
      <g>
       <use xlink:href="#m2bccf5639c" x="109.586305" y="339.84" style="stroke: #000000; stroke-width: 0.6"/>
      </g>
     </g>
    </g>
    <g id="xtick_4">
     <g id="line2d_4">
      <g>
       <use xlink:href="#m2bccf5639c" x="122.684361" y="339.84" style="stroke: #000000; stroke-width: 0.6"/>
      </g>
     </g>
    </g>
    <g id="xtick_5">
     <g id="line2d_5">
      <g>
       <use xlink:href="#m2bccf5639c" x="133.386251" y="339.84" style="stroke: #000000; stroke-width: 0.6"/>
      </g>
     </g>
    </g>
    <g id="xtick_6">
     <g id="line2d_6">
      <g>
       <use xlink:href="#m2bccf5639c" x="142.434571" y="339.84" style="stroke: #000000; stroke-width: 0.6"/>
      </g>
     </g>
    </g>
    <g id="xtick_7">
     <g id="line2d_7">
      <g>
       <use xlink:href="#m2bccf5639c" x="150.272582" y="339.84" style="stroke: #000000; stroke-width: 0.6"/>
      </g>
     </g>
    </g>
    <g id="xtick_8">
     <g id="line2d_8">
      <g>
       <use xlink:href="#m2bccf5639c" x="157.186198" y="339.84" style="stroke: #000000; stroke-width: 0.6"/>
      </g>
     </g>
    </g>
    <g id="xtick_9">
     <g id="line2d_9">
      <g>
       <use xlink:href="#m2bccf5639c" x="204.056915" y="339.84" style="stroke: #000000; stroke-width: 0.6"/>
      </g>
     </g>
    </g>
    <g id="xtick_10">
     <g id="line2d_10">
      <g>
       <use xlink:href="#m2bccf5639c" x="227.856862" y="339.84" style="stroke: #000000; stroke-width: 0.6"/>
      </g>
     </g>
    </g>
    <g id="xtick_11">
     <g id="line2d_11">
      <g>
       <use xlink:href="#m2bccf5639c" x="244.743193" y="339.84" style="stroke: #000000; stroke-width: 0.6"/>
      </g>
     </g>
    </g>
    <g id="xtick_12">
     <g id="line2d_12">
      <g>
       <use xlink:href="#m2bccf5639c" x="257.841249" y="339.84" style="stroke: #000000; stroke-width: 0.6"/>
      </g>
     </g>
    </g>
    <g id="xtick_13">
     <g id="line2d_13">
      <g>
       <use xlink:href="#m2bccf5639c" x="268.543139" y="339.84" style="stroke: #000000; stroke-width: 0.6"/>
      </g>
     </g>
    </g>
    <g id="xtick_14">
     <g id="line2d_14">
      <g>
       <use xlink:href="#m2bccf5639c" x="277.591459" y="339.84" style="stroke: #000000; stroke-width: 0.6"/>
      </g>
     </g>
    </g>
    <g id="xtick_15">
     <g id="line2d_15">
      <g>
       <use xlink:href="#m2bccf5639c" x="285.42947" y="339.84" style="stroke: #000000; stroke-width: 0.6"/>
      </g>
     </g>
    </g>
    <g id="xtick_16">
     <g id="line2d_16">
      <g>
       <use xlink:href="#m2bccf5639c" x="292.343086" y="339.84" style="stroke: #000000; stroke-width: 0.6"/>
      </g>
     </g>
    </g>
    <g id="xtick_17">
     <g id="line2d_17">
      <g>
       <use xlink:href="#m2bccf5639c" x="339.213803" y="339.84" style="stroke: #000000; stroke-width: 0.6"/>
      </g>
     </g>
    </g>
    <g id="xtick_18">
     <g id="line2d_18">
      <g>
       <use xlink:href="#m2bccf5639c" x="363.01375" y="339.84" style="stroke: #000000; stroke-width: 0.6"/>
      </g>
     </g>
    </g>
    <g id="text_1">
     <!-- log Radius -->
     <g transform="translate(164.444688 358.358125)scale(0.12 -0.12)">
      <defs>
       <path id="DejaVuSans-6c" d="M 603 4863 
L 1178 4863 
L 1178 0 
L 603 0 
L 603 4863 
z
" transform="scale(0.015625)"/>
       <path id="DejaVuSans-6f" d="M 1959 3097 
Q 1497 3097 1228 2736 
Q 959 2375 959 1747 
Q 959 1119 1226 758 
Q 1494 397 1959 397 
Q 2419 397 2687 759 
Q 2956 1122 2956 1747 
Q 2956 2369 2687 2733 
Q 2419 3097 1959 3097 
z
M 1959 3584 
Q 2709 3584 3137 3096 
Q 3566 2609 3566 1747 
Q 3566 888 3137 398 
Q 2709 -91 1959 -91 
Q 1206 -91 779 398 
Q 353 888 353 1747 
Q 353 2609 779 3096 
Q 1206 3584 1959 3584 
z
" transform="scale(0.015625)"/>
       <path id="DejaVuSans-67" d="M 2906 1791 
Q 2906 2416 2648 2759 
Q 2391 3103 1925 3103 
Q 1463 3103 1205 2759 
Q 947 2416 947 1791 
Q 947 1169 1205 825 
Q 1463 481 1925 481 
Q 2391 481 2648 825 
Q 2906 1169 2906 1791 
z
M 3481 434 
Q 3481 -459 3084 -895 
Q 2688 -1331 1869 -1331 
Q 1566 -1331 1297 -1286 
Q 1028 -1241 775 -1147 
L 775 -588 
Q 1028 -725 1275 -790 
Q 1522 -856 1778 -856 
Q 2344 -856 2625 -561 
Q 2906 -266 2906 331 
L 2906 616 
Q 2728 306 2450 153 
Q 2172 0 1784 0 
Q 1141 0 747 490 
Q 353 981 353 1791 
Q 353 2603 747 3093 
Q 1141 3584 1784 3584 
Q 2172 3584 2450 3431 
Q 2728 3278 2906 2969 
L 2906 3500 
L 3481 3500 
L 3481 434 
z
" transform="scale(0.015625)"/>
       <path id="DejaVuSans-20" transform="scale(0.015625)"/>
       <path id="DejaVuSans-52" d="M 2841 2188 
Q 3044 2119 3236 1894 
Q 3428 1669 3622 1275 
L 4263 0 
L 3584 0 
L 2988 1197 
Q 2756 1666 2539 1819 
Q 2322 1972 1947 1972 
L 1259 1972 
L 1259 0 
L 628 0 
L 628 4666 
L 2053 4666 
Q 2853 4666 3247 4331 
Q 3641 3997 3641 3322 
Q 3641 2881 3436 2590 
Q 3231 2300 2841 2188 
z
M 1259 4147 
L 1259 2491 
L 2053 2491 
Q 2509 2491 2742 2702 
Q 2975 2913 2975 3322 
Q 2975 3731 2742 3939 
Q 2509 4147 2053 4147 
L 1259 4147 
z
" transform="scale(0.015625)"/>
       <path id="DejaVuSans-61" d="M 2194 1759 
Q 1497 1759 1228 1600 
Q 959 1441 959 1056 
Q 959 750 1161 570 
Q 1363 391 1709 391 
Q 2188 391 2477 730 
Q 2766 1069 2766 1631 
L 2766 1759 
L 2194 1759 
z
M 3341 1997 
L 3341 0 
L 2766 0 
L 2766 531 
Q 2569 213 2275 61 
Q 1981 -91 1556 -91 
Q 1019 -91 701 211 
Q 384 513 384 1019 
Q 384 1609 779 1909 
Q 1175 2209 1959 2209 
L 2766 2209 
L 2766 2266 
Q 2766 2663 2505 2880 
Q 2244 3097 1772 3097 
Q 1472 3097 1187 3025 
Q 903 2953 641 2809 
L 641 3341 
Q 956 3463 1253 3523 
Q 1550 3584 1831 3584 
Q 2591 3584 2966 3190 
Q 3341 2797 3341 1997 
z
" transform="scale(0.015625)"/>
       <path id="DejaVuSans-64" d="M 2906 2969 
L 2906 4863 
L 3481 4863 
L 3481 0 
L 2906 0 
L 2906 525 
Q 2725 213 2448 61 
Q 2172 -91 1784 -91 
Q 1150 -91 751 415 
Q 353 922 353 1747 
Q 353 2572 751 3078 
Q 1150 3584 1784 3584 
Q 2172 3584 2448 3432 
Q 2725 3281 2906 2969 
z
M 947 1747 
Q 947 1113 1208 752 
Q 1469 391 1925 391 
Q 2381 391 2643 752 
Q 2906 1113 2906 1747 
Q 2906 2381 2643 2742 
Q 2381 3103 1925 3103 
Q 1469 3103 1208 2742 
Q 947 2381 947 1747 
z
" transform="scale(0.015625)"/>
       <path id="DejaVuSans-69" d="M 603 3500 
L 1178 3500 
L 1178 0 
L 603 0 
L 603 3500 
z
M 603 4863 
L 1178 4863 
L 1178 4134 
L 603 4134 
L 603 4863 
z
" transform="scale(0.015625)"/>
       <path id="DejaVuSans-75" d="M 544 1381 
L 544 3500 
L 1119 3500 
L 1119 1403 
Q 1119 906 1312 657 
Q 1506 409 1894 409 
Q 2359 409 2629 706 
Q 2900 1003 2900 1516 
L 2900 3500 
L 3475 3500 
L 3475 0 
L 2900 0 
L 2900 538 
Q 2691 219 2414 64 
Q 2138 -91 1772 -91 
Q 1169 -91 856 284 
Q 544 659 544 1381 
z
M 1991 3584 
L 1991 3584 
z
" transform="scale(0.015625)"/>
       <path id="DejaVuSans-73" d="M 2834 3397 
L 2834 2853 
Q 2591 2978 2328 3040 
Q 2066 3103 1784 3103 
Q 1356 3103 1142 2972 
Q 928 2841 928 2578 
Q 928 2378 1081 2264 
Q 1234 2150 1697 2047 
L 1894 2003 
Q 2506 1872 2764 1633 
Q 3022 1394 3022 966 
Q 3022 478 2636 193 
Q 2250 -91 1575 -91 
Q 1294 -91 989 -36 
Q 684 19 347 128 
L 347 722 
Q 666 556 975 473 
Q 1284 391 1588 391 
Q 1994 391 2212 530 
Q 2431 669 2431 922 
Q 2431 1156 2273 1281 
Q 2116 1406 1581 1522 
L 1381 1569 
Q 847 1681 609 1914 
Q 372 2147 372 2553 
Q 372 3047 722 3315 
Q 1072 3584 1716 3584 
Q 2034 3584 2315 3537 
Q 2597 3491 2834 3397 
z
" transform="scale(0.015625)"/>
      </defs>
      <use xlink:href="#DejaVuSans-6c"/>
      <use xlink:href="#DejaVuSans-6f" x="27.783203"/>
      <use xlink:href="#DejaVuSans-67" x="88.964844"/>
      <use xlink:href="#DejaVuSans-20" x="152.441406"/>
      <use xlink:href="#DejaVuSans-52" x="184.228516"/>
      <use xlink:href="#DejaVuSans-61" x="251.460938"/>
      <use xlink:href="#DejaVuSans-64" x="312.740234"/>
      <use xlink:href="#DejaVuSans-69" x="376.216797"/>
      <use xlink:href="#DejaVuSans-75" x="404"/>
      <use xlink:href="#DejaVuSans-73" x="467.378906"/>
     </g>
    </g>
   </g>
   <g id="matplotlib.axis_2">
    <g id="ytick_1">
     <g id="line2d_19">
      <defs>
       <path id="me80f738a3d" d="M 0 0 
L -2 0 
" style="stroke: #000000; stroke-width: 0.6"/>
      </defs>
      <g>
       <use xlink:href="#me80f738a3d" x="28.21375" y="319.813076" style="stroke: #000000; stroke-width: 0.6"/>
      </g>
     </g>
    </g>
    <g id="ytick_2">
     <g id="line2d_20">
      <g>
       <use xlink:href="#me80f738a3d" x="28.21375" y="308.098077" style="stroke: #000000; stroke-width: 0.6"/>
      </g>
     </g>
    </g>
    <g id="ytick_3">
     <g id="line2d_21">
      <g>
       <use xlink:href="#me80f738a3d" x="28.21375" y="299.786153" style="stroke: #000000; stroke-width: 0.6"/>
      </g>
     </g>
    </g>
    <g id="ytick_4">
     <g id="line2d_22">
      <g>
       <use xlink:href="#me80f738a3d" x="28.21375" y="293.338924" style="stroke: #000000; stroke-width: 0.6"/>
      </g>
     </g>
    </g>
    <g id="ytick_5">
     <g id="line2d_23">
      <g>
       <use xlink:href="#me80f738a3d" x="28.21375" y="288.071154" style="stroke: #000000; stroke-width: 0.6"/>
      </g>
     </g>
    </g>
    <g id="ytick_6">
     <g id="line2d_24">
      <g>
       <use xlink:href="#me80f738a3d" x="28.21375" y="283.617318" style="stroke: #000000; stroke-width: 0.6"/>
      </g>
     </g>
    </g>
    <g id="ytick_7">
     <g id="line2d_25">
      <g>
       <use xlink:href="#me80f738a3d" x="28.21375" y="279.759229" style="stroke: #000000; stroke-width: 0.6"/>
      </g>
     </g>
    </g>
    <g id="ytick_8">
     <g id="line2d_26">
      <g>
       <use xlink:href="#me80f738a3d" x="28.21375" y="276.356154" style="stroke: #000000; stroke-width: 0.6"/>
      </g>
     </g>
    </g>
    <g id="ytick_9">
     <g id="line2d_27">
      <g>
       <use xlink:href="#me80f738a3d" x="28.21375" y="253.285076" style="stroke: #000000; stroke-width: 0.6"/>
      </g>
     </g>
    </g>
    <g id="ytick_10">
     <g id="line2d_28">
      <g>
       <use xlink:href="#me80f738a3d" x="28.21375" y="241.570077" style="stroke: #000000; stroke-width: 0.6"/>
      </g>
     </g>
    </g>
    <g id="ytick_11">
     <g id="line2d_29">
      <g>
       <use xlink:href="#me80f738a3d" x="28.21375" y="233.258153" style="stroke: #000000; stroke-width: 0.6"/>
      </g>
     </g>
    </g>
    <g id="ytick_12">
     <g id="line2d_30">
      <g>
       <use xlink:href="#me80f738a3d" x="28.21375" y="226.810924" style="stroke: #000000; stroke-width: 0.6"/>
      </g>
     </g>
    </g>
    <g id="ytick_13">
     <g id="line2d_31">
      <g>
       <use xlink:href="#me80f738a3d" x="28.21375" y="221.543154" style="stroke: #000000; stroke-width: 0.6"/>
      </g>
     </g>
    </g>
    <g id="ytick_14">
     <g id="line2d_32">
      <g>
       <use xlink:href="#me80f738a3d" x="28.21375" y="217.089318" style="stroke: #000000; stroke-width: 0.6"/>
      </g>
     </g>
    </g>
    <g id="ytick_15">
     <g id="line2d_33">
      <g>
       <use xlink:href="#me80f738a3d" x="28.21375" y="213.231229" style="stroke: #000000; stroke-width: 0.6"/>
      </g>
     </g>
    </g>
    <g id="ytick_16">
     <g id="line2d_34">
      <g>
       <use xlink:href="#me80f738a3d" x="28.21375" y="209.828154" style="stroke: #000000; stroke-width: 0.6"/>
      </g>
     </g>
    </g>
    <g id="ytick_17">
     <g id="line2d_35">
      <g>
       <use xlink:href="#me80f738a3d" x="28.21375" y="186.757076" style="stroke: #000000; stroke-width: 0.6"/>
      </g>
     </g>
    </g>
    <g id="ytick_18">
     <g id="line2d_36">
      <g>
       <use xlink:href="#me80f738a3d" x="28.21375" y="175.042077" style="stroke: #000000; stroke-width: 0.6"/>
      </g>
     </g>
    </g>
    <g id="ytick_19">
     <g id="line2d_37">
      <g>
       <use xlink:href="#me80f738a3d" x="28.21375" y="166.730153" style="stroke: #000000; stroke-width: 0.6"/>
      </g>
     </g>
    </g>
    <g id="ytick_20">
     <g id="line2d_38">
      <g>
       <use xlink:href="#me80f738a3d" x="28.21375" y="160.282924" style="stroke: #000000; stroke-width: 0.6"/>
      </g>
     </g>
    </g>
    <g id="ytick_21">
     <g id="line2d_39">
      <g>
       <use xlink:href="#me80f738a3d" x="28.21375" y="155.015154" style="stroke: #000000; stroke-width: 0.6"/>
      </g>
     </g>
    </g>
    <g id="ytick_22">
     <g id="line2d_40">
      <g>
       <use xlink:href="#me80f738a3d" x="28.21375" y="150.561318" style="stroke: #000000; stroke-width: 0.6"/>
      </g>
     </g>
    </g>
    <g id="ytick_23">
     <g id="line2d_41">
      <g>
       <use xlink:href="#me80f738a3d" x="28.21375" y="146.703229" style="stroke: #000000; stroke-width: 0.6"/>
      </g>
     </g>
    </g>
    <g id="ytick_24">
     <g id="line2d_42">
      <g>
       <use xlink:href="#me80f738a3d" x="28.21375" y="143.300154" style="stroke: #000000; stroke-width: 0.6"/>
      </g>
     </g>
    </g>
    <g id="ytick_25">
     <g id="line2d_43">
      <g>
       <use xlink:href="#me80f738a3d" x="28.21375" y="120.229076" style="stroke: #000000; stroke-width: 0.6"/>
      </g>
     </g>
    </g>
    <g id="ytick_26">
     <g id="line2d_44">
      <g>
       <use xlink:href="#me80f738a3d" x="28.21375" y="108.514077" style="stroke: #000000; stroke-width: 0.6"/>
      </g>
     </g>
    </g>
    <g id="ytick_27">
     <g id="line2d_45">
      <g>
       <use xlink:href="#me80f738a3d" x="28.21375" y="100.202153" style="stroke: #000000; stroke-width: 0.6"/>
      </g>
     </g>
    </g>
    <g id="ytick_28">
     <g id="line2d_46">
      <g>
       <use xlink:href="#me80f738a3d" x="28.21375" y="93.754924" style="stroke: #000000; stroke-width: 0.6"/>
      </g>
     </g>
    </g>
    <g id="ytick_29">
     <g id="line2d_47">
      <g>
       <use xlink:href="#me80f738a3d" x="28.21375" y="88.487154" style="stroke: #000000; stroke-width: 0.6"/>
      </g>
     </g>
    </g>
    <g id="ytick_30">
     <g id="line2d_48">
      <g>
       <use xlink:href="#me80f738a3d" x="28.21375" y="84.033318" style="stroke: #000000; stroke-width: 0.6"/>
      </g>
     </g>
    </g>
    <g id="ytick_31">
     <g id="line2d_49">
      <g>
       <use xlink:href="#me80f738a3d" x="28.21375" y="80.175229" style="stroke: #000000; stroke-width: 0.6"/>
      </g>
     </g>
    </g>
    <g id="ytick_32">
     <g id="line2d_50">
      <g>
       <use xlink:href="#me80f738a3d" x="28.21375" y="76.772154" style="stroke: #000000; stroke-width: 0.6"/>
      </g>
     </g>
    </g>
    <g id="ytick_33">
     <g id="line2d_51">
      <g>
       <use xlink:href="#me80f738a3d" x="28.21375" y="53.701076" style="stroke: #000000; stroke-width: 0.6"/>
      </g>
     </g>
    </g>
    <g id="ytick_34">
     <g id="line2d_52">
      <g>
       <use xlink:href="#me80f738a3d" x="28.21375" y="41.986077" style="stroke: #000000; stroke-width: 0.6"/>
      </g>
     </g>
    </g>
    <g id="ytick_35">
     <g id="line2d_53">
      <g>
       <use xlink:href="#me80f738a3d" x="28.21375" y="33.674153" style="stroke: #000000; stroke-width: 0.6"/>
      </g>
     </g>
    </g>
    <g id="ytick_36">
     <g id="line2d_54">
      <g>
       <use xlink:href="#me80f738a3d" x="28.21375" y="27.226924" style="stroke: #000000; stroke-width: 0.6"/>
      </g>
     </g>
    </g>
    <g id="ytick_37">
     <g id="line2d_55">
      <g>
       <use xlink:href="#me80f738a3d" x="28.21375" y="21.959154" style="stroke: #000000; stroke-width: 0.6"/>
      </g>
     </g>
    </g>
    <g id="ytick_38">
     <g id="line2d_56">
      <g>
       <use xlink:href="#me80f738a3d" x="28.21375" y="17.505318" style="stroke: #000000; stroke-width: 0.6"/>
      </g>
     </g>
    </g>
    <g id="ytick_39">
     <g id="line2d_57">
      <g>
       <use xlink:href="#me80f738a3d" x="28.21375" y="13.647229" style="stroke: #000000; stroke-width: 0.6"/>
      </g>
     </g>
    </g>
    <g id="ytick_40">
     <g id="line2d_58">
      <g>
       <use xlink:href="#me80f738a3d" x="28.21375" y="10.244154" style="stroke: #000000; stroke-width: 0.6"/>
      </g>
     </g>
    </g>
    <g id="text_2">
     <!-- log Surface Brightness -->
     <g transform="translate(16.318125 241.298438)rotate(-90)scale(0.12 -0.12)">
      <defs>
       <path id="DejaVuSans-53" d="M 3425 4513 
L 3425 3897 
Q 3066 4069 2747 4153 
Q 2428 4238 2131 4238 
Q 1616 4238 1336 4038 
Q 1056 3838 1056 3469 
Q 1056 3159 1242 3001 
Q 1428 2844 1947 2747 
L 2328 2669 
Q 3034 2534 3370 2195 
Q 3706 1856 3706 1288 
Q 3706 609 3251 259 
Q 2797 -91 1919 -91 
Q 1588 -91 1214 -16 
Q 841 59 441 206 
L 441 856 
Q 825 641 1194 531 
Q 1563 422 1919 422 
Q 2459 422 2753 634 
Q 3047 847 3047 1241 
Q 3047 1584 2836 1778 
Q 2625 1972 2144 2069 
L 1759 2144 
Q 1053 2284 737 2584 
Q 422 2884 422 3419 
Q 422 4038 858 4394 
Q 1294 4750 2059 4750 
Q 2388 4750 2728 4690 
Q 3069 4631 3425 4513 
z
" transform="scale(0.015625)"/>
       <path id="DejaVuSans-72" d="M 2631 2963 
Q 2534 3019 2420 3045 
Q 2306 3072 2169 3072 
Q 1681 3072 1420 2755 
Q 1159 2438 1159 1844 
L 1159 0 
L 581 0 
L 581 3500 
L 1159 3500 
L 1159 2956 
Q 1341 3275 1631 3429 
Q 1922 3584 2338 3584 
Q 2397 3584 2469 3576 
Q 2541 3569 2628 3553 
L 2631 2963 
z
" transform="scale(0.015625)"/>
       <path id="DejaVuSans-66" d="M 2375 4863 
L 2375 4384 
L 1825 4384 
Q 1516 4384 1395 4259 
Q 1275 4134 1275 3809 
L 1275 3500 
L 2222 3500 
L 2222 3053 
L 1275 3053 
L 1275 0 
L 697 0 
L 697 3053 
L 147 3053 
L 147 3500 
L 697 3500 
L 697 3744 
Q 697 4328 969 4595 
Q 1241 4863 1831 4863 
L 2375 4863 
z
" transform="scale(0.015625)"/>
       <path id="DejaVuSans-63" d="M 3122 3366 
L 3122 2828 
Q 2878 2963 2633 3030 
Q 2388 3097 2138 3097 
Q 1578 3097 1268 2742 
Q 959 2388 959 1747 
Q 959 1106 1268 751 
Q 1578 397 2138 397 
Q 2388 397 2633 464 
Q 2878 531 3122 666 
L 3122 134 
Q 2881 22 2623 -34 
Q 2366 -91 2075 -91 
Q 1284 -91 818 406 
Q 353 903 353 1747 
Q 353 2603 823 3093 
Q 1294 3584 2113 3584 
Q 2378 3584 2631 3529 
Q 2884 3475 3122 3366 
z
" transform="scale(0.015625)"/>
       <path id="DejaVuSans-65" d="M 3597 1894 
L 3597 1613 
L 953 1613 
Q 991 1019 1311 708 
Q 1631 397 2203 397 
Q 2534 397 2845 478 
Q 3156 559 3463 722 
L 3463 178 
Q 3153 47 2828 -22 
Q 2503 -91 2169 -91 
Q 1331 -91 842 396 
Q 353 884 353 1716 
Q 353 2575 817 3079 
Q 1281 3584 2069 3584 
Q 2775 3584 3186 3129 
Q 3597 2675 3597 1894 
z
M 3022 2063 
Q 3016 2534 2758 2815 
Q 2500 3097 2075 3097 
Q 1594 3097 1305 2825 
Q 1016 2553 972 2059 
L 3022 2063 
z
" transform="scale(0.015625)"/>
       <path id="DejaVuSans-42" d="M 1259 2228 
L 1259 519 
L 2272 519 
Q 2781 519 3026 730 
Q 3272 941 3272 1375 
Q 3272 1813 3026 2020 
Q 2781 2228 2272 2228 
L 1259 2228 
z
M 1259 4147 
L 1259 2741 
L 2194 2741 
Q 2656 2741 2882 2914 
Q 3109 3088 3109 3444 
Q 3109 3797 2882 3972 
Q 2656 4147 2194 4147 
L 1259 4147 
z
M 628 4666 
L 2241 4666 
Q 2963 4666 3353 4366 
Q 3744 4066 3744 3513 
Q 3744 3084 3544 2831 
Q 3344 2578 2956 2516 
Q 3422 2416 3680 2098 
Q 3938 1781 3938 1306 
Q 3938 681 3513 340 
Q 3088 0 2303 0 
L 628 0 
L 628 4666 
z
" transform="scale(0.015625)"/>
       <path id="DejaVuSans-68" d="M 3513 2113 
L 3513 0 
L 2938 0 
L 2938 2094 
Q 2938 2591 2744 2837 
Q 2550 3084 2163 3084 
Q 1697 3084 1428 2787 
Q 1159 2491 1159 1978 
L 1159 0 
L 581 0 
L 581 4863 
L 1159 4863 
L 1159 2956 
Q 1366 3272 1645 3428 
Q 1925 3584 2291 3584 
Q 2894 3584 3203 3211 
Q 3513 2838 3513 2113 
z
" transform="scale(0.015625)"/>
       <path id="DejaVuSans-74" d="M 1172 4494 
L 1172 3500 
L 2356 3500 
L 2356 3053 
L 1172 3053 
L 1172 1153 
Q 1172 725 1289 603 
Q 1406 481 1766 481 
L 2356 481 
L 2356 0 
L 1766 0 
Q 1100 0 847 248 
Q 594 497 594 1153 
L 594 3053 
L 172 3053 
L 172 3500 
L 594 3500 
L 594 4494 
L 1172 4494 
z
" transform="scale(0.015625)"/>
       <path id="DejaVuSans-6e" d="M 3513 2113 
L 3513 0 
L 2938 0 
L 2938 2094 
Q 2938 2591 2744 2837 
Q 2550 3084 2163 3084 
Q 1697 3084 1428 2787 
Q 1159 2491 1159 1978 
L 1159 0 
L 581 0 
L 581 3500 
L 1159 3500 
L 1159 2956 
Q 1366 3272 1645 3428 
Q 1925 3584 2291 3584 
Q 2894 3584 3203 3211 
Q 3513 2838 3513 2113 
z
" transform="scale(0.015625)"/>
      </defs>
      <use xlink:href="#DejaVuSans-6c"/>
      <use xlink:href="#DejaVuSans-6f" x="27.783203"/>
      <use xlink:href="#DejaVuSans-67" x="88.964844"/>
      <use xlink:href="#DejaVuSans-20" x="152.441406"/>
      <use xlink:href="#DejaVuSans-53" x="184.228516"/>
      <use xlink:href="#DejaVuSans-75" x="247.705078"/>
      <use xlink:href="#DejaVuSans-72" x="311.083984"/>
      <use xlink:href="#DejaVuSans-66" x="352.197266"/>
      <use xlink:href="#DejaVuSans-61" x="387.402344"/>
      <use xlink:href="#DejaVuSans-63" x="448.681641"/>
      <use xlink:href="#DejaVuSans-65" x="503.662109"/>
      <use xlink:href="#DejaVuSans-20" x="565.185547"/>
      <use xlink:href="#DejaVuSans-42" x="596.972656"/>
      <use xlink:href="#DejaVuSans-72" x="665.576172"/>
      <use xlink:href="#DejaVuSans-69" x="706.689453"/>
      <use xlink:href="#DejaVuSans-67" x="734.472656"/>
      <use xlink:href="#DejaVuSans-68" x="797.949219"/>
      <use xlink:href="#DejaVuSans-74" x="861.328125"/>
      <use xlink:href="#DejaVuSans-6e" x="900.537109"/>
      <use xlink:href="#DejaVuSans-65" x="963.916016"/>
      <use xlink:href="#DejaVuSans-73" x="1025.439453"/>
      <use xlink:href="#DejaVuSans-73" x="1077.539062"/>
     </g>
    </g>
   </g>
   <g id="line2d_59">
    <path d="M -1 158.882116 
L 33.808257 159.358776 
L 59.360509 159.940681 
L 79.601918 160.61957 
L 96.488249 161.395442 
L 111.035709 162.268299 
L 124.986534 163.335124 
L 137.174526 164.498934 
L 148.029078 165.759727 
L 157.8348 167.117504 
L 166.7909 168.572266 
L 175.521933 170.220995 
L 183.538629 171.966709 
L 190.95886 173.809407 
L 197.872475 175.749089 
L 204.640979 177.882739 
L 210.970531 180.113373 
L 216.919709 182.440992 
L 222.749478 184.962578 
L 228.246883 187.581149 
L 233.628972 190.393688 
L 238.721576 193.30321 
L 243.706885 196.406702 
L 248.577308 199.704161 
L 253.328493 203.195588 
L 257.958527 206.880984 
L 262.467299 210.760348 
L 266.856017 214.83368 
L 271.126838 219.10098 
L 275.369731 223.659233 
L 279.489097 228.411454 
L 283.565889 233.454627 
L 287.590373 238.788752 
L 291.555183 244.41383 
L 295.516718 250.426844 
L 299.401456 256.73081 
L 303.261975 263.422713 
L 307.087466 270.502552 
L 310.869399 277.970328 
L 314.645781 285.923024 
L 318.403383 294.36064 
L 322.131486 303.283177 
L 325.858381 312.787619 
L 329.570609 322.873965 
L 333.25719 333.542215 
L 336.939799 344.889355 
L 340.605914 356.915383 
L 344.087745 369.05375 
L 344.087745 369.05375 
" clip-path="url(#p1a1728d39e)" style="fill: none; stroke: #111111; stroke-width: 1.5; stroke-linecap: square"/>
   </g>
   <g id="line2d_60">
    <path d="M -1 112.389626 
L 15.115694 114.10828 
L 28.21375 115.692319 
L 43.613979 117.795543 
L 55.801972 119.667105 
L 68.900027 121.907273 
L 81.998083 124.411858 
L 92.699974 126.676175 
L 103.401865 129.156611 
L 113.831375 131.801519 
L 123.846733 134.572407 
L 133.386251 137.440792 
L 142.434571 140.385545 
L 151.721987 143.65366 
L 160.35983 146.934226 
L 168.965145 150.451484 
L 176.936409 153.947815 
L 184.77442 157.625131 
L 192.408264 161.450581 
L 199.797169 165.397899 
L 207.199645 169.609614 
L 214.267608 173.88658 
L 221.236004 178.36305 
L 228.052196 183.006484 
L 234.683453 187.790183 
L 241.267141 192.814536 
L 247.746663 198.042289 
L 254.084271 203.442403 
L 260.36875 209.092985 
L 266.55319 214.956882 
L 272.605918 221.00291 
L 278.589181 227.2939 
L 284.542332 233.879663 
L 290.420567 240.718615 
L 296.192473 247.775443 
L 301.947788 255.166066 
L 307.642891 262.84485 
L 313.292195 270.83894 
L 318.8618 279.105957 
L 324.403449 287.730093 
L 329.915486 296.721637 
L 335.394214 306.08714 
L 340.834755 315.830085 
L 346.257714 326.001432 
L 351.650734 336.593483 
L 357.002972 347.597685 
L 362.344709 359.092077 
L 366.785351 369.05375 
L 366.785351 369.05375 
" clip-path="url(#p1a1728d39e)" style="fill: none; stroke: #222222; stroke-width: 1.5; stroke-linecap: square"/>
   </g>
   <g id="line2d_61">
    <path d="M -1 80.632828 
L 15.115694 84.239182 
L 28.21375 87.426845 
L 43.613979 91.491028 
L 55.801972 94.969164 
L 68.900027 98.985367 
L 79.601918 102.495994 
L 90.710024 106.37271 
L 101.748294 110.475068 
L 112.450185 114.705623 
L 122.684361 118.999019 
L 132.399709 123.312232 
L 142.434571 128.024308 
L 151.721987 132.631266 
L 160.974473 137.468975 
L 170.022793 142.452244 
L 178.770867 147.51983 
L 187.560605 152.871527 
L 196.218904 158.410925 
L 204.640979 164.066922 
L 213.021321 169.969898 
L 221.236004 176.03534 
L 229.210745 182.200575 
L 237.072651 188.558107 
L 244.889754 195.16718 
L 252.562858 201.946185 
L 260.143422 208.939859 
L 267.656001 216.174288 
L 275.107881 223.661734 
L 282.418662 231.321839 
L 289.674541 239.245451 
L 296.860537 247.421214 
L 304.015212 255.899636 
L 311.106754 264.650133 
L 318.15182 273.69931 
L 325.116768 283.008619 
L 332.042821 292.63836 
L 338.919578 302.58171 
L 345.761047 312.866954 
L 352.546182 323.469905 
L 359.298476 334.435009 
L 366.026515 345.78702 
L 371.21375 354.840232 
L 371.21375 354.840232 
" clip-path="url(#p1a1728d39e)" style="fill: none; stroke: #333333; stroke-width: 1.5; stroke-linecap: square"/>
   </g>
   <g id="line2d_62">
    <path d="M -1 58.783091 
L 15.115694 64.006586 
L 28.21375 68.527915 
L 43.613979 74.176824 
L 55.801972 78.917666 
L 68.900027 84.294462 
L 79.601918 88.915824 
L 90.710024 93.940676 
L 101.748294 99.175064 
L 112.450185 104.490384 
L 122.684361 109.805116 
L 133.386251 115.61617 
L 144.088142 121.698223 
L 154.517653 127.898273 
L 164.53301 134.117027 
L 174.559651 140.614258 
L 184.365373 147.242418 
L 193.822739 153.902765 
L 203.169777 160.754353 
L 212.515302 167.883028 
L 221.672422 175.148688 
L 230.720742 182.611813 
L 239.689146 190.298343 
L 248.577308 198.211345 
L 257.369777 206.339493 
L 266.04498 214.66316 
L 274.668852 223.248078 
L 283.185966 232.041917 
L 291.621247 241.071416 
L 299.97693 250.341309 
L 308.292597 259.900215 
L 316.533053 269.712583 
L 324.704851 279.789293 
L 332.833377 290.166681 
L 340.891827 300.815415 
L 348.904275 311.771984 
L 356.872774 323.045664 
L 364.80575 334.655648 
L 371.21375 344.324481 
L 371.21375 344.324481 
" clip-path="url(#p1a1728d39e)" style="fill: none; stroke: #444444; stroke-width: 1.5; stroke-linecap: square"/>
   </g>
   <g id="line2d_63">
    <path d="M -1 43.079565 
L 15.115694 49.603077 
L 28.21375 55.179079 
L 43.613979 62.061517 
L 55.801972 67.770264 
L 68.900027 74.175408 
L 81.998083 80.87288 
L 94.624667 87.618479 
L 106.575497 94.276016 
L 117.790036 100.774814 
L 129.336515 107.730552 
L 140.733064 114.869617 
L 151.721987 122.020897 
L 162.780704 129.493061 
L 173.58133 137.067713 
L 183.953457 144.608991 
L 194.517397 152.568644 
L 204.930846 160.700372 
L 215.245928 169.044813 
L 225.25653 177.428248 
L 235.203674 186.046641 
L 245.035951 194.857452 
L 254.83044 203.932835 
L 264.493403 213.188105 
L 274.137646 222.734335 
L 283.717172 232.532186 
L 293.184879 242.535038 
L 302.553778 252.756289 
L 311.859905 263.237259 
L 321.101672 273.979887 
L 330.292525 285.004138 
L 339.418887 296.298021 
L 348.504798 307.896172 
L 357.54238 319.794382 
L 366.526232 331.990608 
L 371.21375 338.504023 
L 371.21375 338.504023 
" clip-path="url(#p1a1728d39e)" style="fill: none; stroke: #555555; stroke-width: 1.5; stroke-linecap: square"/>
   </g>
   <g id="line2d_64">
    <path d="M -1 31.320881 
L 15.115694 38.886106 
L 28.21375 45.298487 
L 43.613979 53.149404 
L 55.801972 59.610741 
L 68.900027 66.808396 
L 81.998083 74.278776 
L 94.624667 81.748093 
L 106.575497 89.068653 
L 119.052405 96.981202 
L 131.396302 105.090159 
L 143.267179 113.161095 
L 155.196248 121.550324 
L 166.7909 129.981265 
L 178.317599 138.642483 
L 189.472758 147.298805 
L 200.736355 156.321947 
L 211.747998 165.426658 
L 222.749478 174.811731 
L 233.628972 184.385568 
L 244.448967 194.204932 
L 255.199998 204.265122 
L 265.840457 214.528857 
L 276.405603 225.031412 
L 286.878875 235.758286 
L 297.281743 246.733557 
L 307.592614 257.936409 
L 317.814717 269.371332 
L 327.993085 281.091916 
L 338.087812 293.055607 
L 348.127803 305.299461 
L 358.119425 317.835824 
L 368.054246 330.65858 
L 371.21375 334.812909 
L 371.21375 334.812909 
" clip-path="url(#p1a1728d39e)" style="fill: none; stroke: #666666; stroke-width: 1.5; stroke-linecap: square"/>
   </g>
   <g id="line2d_65">
    <path d="M -1 22.212561 
L 15.115694 30.622176 
L 28.21375 37.707666 
L 43.613979 46.33265 
L 59.360509 55.492276 
L 71.763907 62.958488 
L 84.300256 70.737266 
L 98.294481 79.705653 
L 111.035709 88.140992 
L 123.846733 96.890413 
L 136.250131 105.625365 
L 148.78648 114.725997 
L 160.974473 123.843969 
L 173.085986 133.176645 
L 185.180635 142.774931 
L 197.216626 152.6113 
L 209.115364 162.622881 
L 221.016573 172.930795 
L 232.735532 183.376825 
L 244.301299 193.982588 
L 255.810804 204.837316 
L 267.257372 215.938503 
L 278.589181 227.237273 
L 289.878944 238.808298 
L 301.111224 250.640277 
L 312.232887 262.678785 
L 323.297708 274.983525 
L 334.287569 287.537339 
L 345.233659 300.379415 
L 356.107471 313.479962 
L 366.930286 326.867912 
L 371.21375 332.26478 
L 371.21375 332.26478 
" clip-path="url(#p1a1728d39e)" style="fill: none; stroke: #777777; stroke-width: 1.5; stroke-linecap: square"/>
   </g>
   <g id="line2d_66">
    <path d="M -1 14.960297 
L 15.115694 24.064459 
L 28.21375 31.700719 
L 43.613979 40.955897 
L 59.360509 50.738319 
L 74.494534 60.454472 
L 88.650238 69.830381 
L 101.748294 78.761157 
L 115.180811 88.182416 
L 128.278867 97.63229 
L 141.589983 107.509775 
L 154.517653 117.374497 
L 167.342058 127.43246 
L 180.11004 137.722795 
L 192.765091 148.201972 
L 205.50632 159.041706 
L 218.086703 170.037087 
L 230.534103 181.210046 
L 242.955302 192.65866 
L 255.322669 204.362528 
L 267.556597 216.247388 
L 279.732152 228.386989 
L 291.818994 240.753518 
L 303.800986 253.331004 
L 315.706615 266.150273 
L 327.565152 279.246045 
L 339.360365 292.604116 
L 351.078067 306.210829 
L 362.739185 320.093143 
L 371.21375 330.400445 
L 371.21375 330.400445 
" clip-path="url(#p1a1728d39e)" style="fill: none; stroke: #888888; stroke-width: 1.5; stroke-linecap: square"/>
   </g>
   <g id="line2d_67">
    <path d="M -1 9.054408 
L 15.115694 18.738173 
L 33.808257 30.351019 
L 47.963961 39.422825 
L 62.715587 49.13878 
L 77.103759 58.880335 
L 92.699974 69.743821 
L 106.575497 79.682078 
L 120.288196 89.763541 
L 134.356487 100.382008 
L 148.029078 110.976334 
L 161.582747 121.752652 
L 175.042764 132.731652 
L 188.715355 144.174158 
L 202.269024 155.813225 
L 215.729041 167.671201 
L 229.019234 179.679777 
L 242.193969 191.885969 
L 255.199998 204.238165 
L 268.15051 216.843535 
L 281.011721 229.671572 
L 293.824296 242.765433 
L 306.577932 256.118287 
L 319.234224 269.691761 
L 331.810222 283.505094 
L 344.326079 297.582751 
L 356.785814 311.93251 
L 369.174706 326.540218 
L 371.21375 328.97745 
L 371.21375 328.97745 
" clip-path="url(#p1a1728d39e)" style="fill: none; stroke: #999999; stroke-width: 1.5; stroke-linecap: square"/>
   </g>
   <g id="patch_3">
    <path d="M 28.21375 339.84 
L 28.21375 7.2 
" style="fill: none; stroke: #000000; stroke-width: 0.8; stroke-linejoin: miter; stroke-linecap: square"/>
   </g>
   <g id="patch_4">
    <path d="M 363.01375 339.84 
L 363.01375 7.2 
" style="fill: none; stroke: #000000; stroke-width: 0.8; stroke-linejoin: miter; stroke-linecap: square"/>
   </g>
   <g id="patch_5">
    <path d="M 28.21375 339.84 
L 363.01375 339.84 
" style="fill: none; stroke: #000000; stroke-width: 0.8; stroke-linejoin: miter; stroke-linecap: square"/>
   </g>
   <g id="patch_6">
    <path d="M 28.21375 7.2 
L 363.01375 7.2 
" style="fill: none; stroke: #000000; stroke-width: 0.8; stroke-linejoin: miter; stroke-linecap: square"/>
   </g>
   <g id="text_3">
    <!-- n=1 -->
    <g transform="translate(81.998083 195.069001)scale(0.1 -0.1)">
     <defs>
      <path id="DejaVuSans-3d" d="M 678 2906 
L 4684 2906 
L 4684 2381 
L 678 2381 
L 678 2906 
z
M 678 1631 
L 4684 1631 
L 4684 1100 
L 678 1100 
L 678 1631 
z
" transform="scale(0.015625)"/>
      <path id="DejaVuSans-31" d="M 794 531 
L 1825 531 
L 1825 4091 
L 703 3866 
L 703 4441 
L 1819 4666 
L 2450 4666 
L 2450 531 
L 3481 531 
L 3481 0 
L 794 0 
L 794 531 
z
" transform="scale(0.015625)"/>
     </defs>
     <use xlink:href="#DejaVuSans-6e"/>
     <use xlink:href="#DejaVuSans-3d" x="63.378906"/>
     <use xlink:href="#DejaVuSans-31" x="147.167969"/>
    </g>
   </g>
   <g id="text_4">
    <!-- n=10 -->
    <g transform="translate(81.998083 41.986077)scale(0.1 -0.1)">
     <defs>
      <path id="DejaVuSans-30" d="M 2034 4250 
Q 1547 4250 1301 3770 
Q 1056 3291 1056 2328 
Q 1056 1369 1301 889 
Q 1547 409 2034 409 
Q 2525 409 2770 889 
Q 3016 1369 3016 2328 
Q 3016 3291 2770 3770 
Q 2525 4250 2034 4250 
z
M 2034 4750 
Q 2819 4750 3233 4129 
Q 3647 3509 3647 2328 
Q 3647 1150 3233 529 
Q 2819 -91 2034 -91 
Q 1250 -91 836 529 
Q 422 1150 422 2328 
Q 422 3509 836 4129 
Q 1250 4750 2034 4750 
z
" transform="scale(0.015625)"/>
     </defs>
     <use xlink:href="#DejaVuSans-6e"/>
     <use xlink:href="#DejaVuSans-3d" x="63.378906"/>
     <use xlink:href="#DejaVuSans-31" x="147.167969"/>
     <use xlink:href="#DejaVuSans-30" x="210.791016"/>
    </g>
   </g>
  </g>
 </g>
 <defs>
  <clipPath id="p1a1728d39e">
   <rect x="28.21375" y="7.2" width="334.8" height="332.64"/>
  </clipPath>
 </defs>
</svg>
