<?xml version="1.0" encoding="utf-8" standalone="no"?>
<!DOCTYPE svg PUBLIC "-//W3C//DTD SVG 1.1//EN"
  "http://www.w3.org/Graphics/SVG/1.1/DTD/svg11.dtd">
<svg xmlns:xlink="http://www.w3.org/1999/xlink" width="370.942187pt" height="367.517344pt" viewBox="0 0 370.942187 367.517344" xmlns="http://www.w3.org/2000/svg" version="1.1">
 <metadata>
  <rdf:RDF xmlns:dc="http://purl.org/dc/elements/1.1/" xmlns:cc="http://creativecommons.org/ns#" xmlns:rdf="http://www.w3.org/1999/02/22-rdf-syntax-ns#">
   <cc:Work>
    <dc:type rdf:resource="http://purl.org/dc/dcmitype/StillImage"/>
    <dc:date>2022-05-03T11:23:40.248554</dc:date>
    <dc:format>image/svg+xml</dc:format>
    <dc:creator>
     <cc:Agent>
      <dc:title>Matplotlib v3.5.2, https://matplotlib.org/</dc:title>
     </cc:Agent>
    </dc:creator>
   </cc:Work>
  </rdf:RDF>
 </metadata>
 <defs>
  <style type="text/css">*{stroke-linejoin: round; stroke-linecap: butt}</style>
 </defs>
 <g id="figure_1">
  <g id="patch_1">
   <path d="M 0 367.517344 
L 370.942187 367.517344 
L 370.942187 0 
L 0 0 
L 0 367.517344 
z
" style="fill: none"/>
  </g>
  <g id="axes_1">
   <g id="patch_2">
    <path d="M 28.942188 343.639219 
L 363.742188 343.639219 
L 363.742188 10.999219 
L 28.942188 10.999219 
z
" style="fill: #ffffff"/>
   </g>
   <g id="matplotlib.axis_1">
    <g id="xtick_1">
     <g id="line2d_1">
      <defs>
       <path id="mb17798f0cf" d="M 0 0 
L 0 3.5 
" style="stroke: #000000; stroke-width: 0.8"/>
      </defs>
      <g>
       <use xlink:href="#mb17798f0cf" x="62.422188" y="343.639219" style="stroke: #000000; stroke-width: 0.8"/>
      </g>
     </g>
     <g id="text_1">
      <!-- −4 -->
      <g transform="translate(55.051094 358.237656)scale(0.1 -0.1)">
       <defs>
        <path id="DejaVuSans-2212" d="M 678 2272 
L 4684 2272 
L 4684 1741 
L 678 1741 
L 678 2272 
z
" transform="scale(0.015625)"/>
        <path id="DejaVuSans-34" d="M 2419 4116 
L 825 1625 
L 2419 1625 
L 2419 4116 
z
M 2253 4666 
L 3047 4666 
L 3047 1625 
L 3713 1625 
L 3713 1100 
L 3047 1100 
L 3047 0 
L 2419 0 
L 2419 1100 
L 313 1100 
L 313 1709 
L 2253 4666 
z
" transform="scale(0.015625)"/>
       </defs>
       <use xlink:href="#DejaVuSans-2212"/>
       <use xlink:href="#DejaVuSans-34" x="83.789062"/>
      </g>
     </g>
    </g>
    <g id="xtick_2">
     <g id="line2d_2">
      <g>
       <use xlink:href="#mb17798f0cf" x="129.382188" y="343.639219" style="stroke: #000000; stroke-width: 0.8"/>
      </g>
     </g>
     <g id="text_2">
      <!-- −2 -->
      <g transform="translate(122.011094 358.237656)scale(0.1 -0.1)">
       <defs>
        <path id="DejaVuSans-32" d="M 1228 531 
L 3431 531 
L 3431 0 
L 469 0 
L 469 531 
Q 828 903 1448 1529 
Q 2069 2156 2228 2338 
Q 2531 2678 2651 2914 
Q 2772 3150 2772 3378 
Q 2772 3750 2511 3984 
Q 2250 4219 1831 4219 
Q 1534 4219 1204 4116 
Q 875 4013 500 3803 
L 500 4441 
Q 881 4594 1212 4672 
Q 1544 4750 1819 4750 
Q 2544 4750 2975 4387 
Q 3406 4025 3406 3419 
Q 3406 3131 3298 2873 
Q 3191 2616 2906 2266 
Q 2828 2175 2409 1742 
Q 1991 1309 1228 531 
z
" transform="scale(0.015625)"/>
       </defs>
       <use xlink:href="#DejaVuSans-2212"/>
       <use xlink:href="#DejaVuSans-32" x="83.789062"/>
      </g>
     </g>
    </g>
    <g id="xtick_3">
     <g id="line2d_3">
      <g>
       <use xlink:href="#mb17798f0cf" x="196.342188" y="343.639219" style="stroke: #000000; stroke-width: 0.8"/>
      </g>
     </g>
     <g id="text_3">
      <!-- 0 -->
      <g transform="translate(193.160938 358.237656)scale(0.1 -0.1)">
       <defs>
        <path id="DejaVuSans-30" d="M 2034 4250 
Q 1547 4250 1301 3770 
Q 1056 3291 1056 2328 
Q 1056 1369 1301 889 
Q 1547 409 2034 409 
Q 2525 409 2770 889 
Q 3016 1369 3016 2328 
Q 3016 3291 2770 3770 
Q 2525 4250 2034 4250 
z
M 2034 4750 
Q 2819 4750 3233 4129 
Q 3647 3509 3647 2328 
Q 3647 1150 3233 529 
Q 2819 -91 2034 -91 
Q 1250 -91 836 529 
Q 422 1150 422 2328 
Q 422 3509 836 4129 
Q 1250 4750 2034 4750 
z
" transform="scale(0.015625)"/>
       </defs>
       <use xlink:href="#DejaVuSans-30"/>
      </g>
     </g>
    </g>
    <g id="xtick_4">
     <g id="line2d_4">
      <g>
       <use xlink:href="#mb17798f0cf" x="263.302188" y="343.639219" style="stroke: #000000; stroke-width: 0.8"/>
      </g>
     </g>
     <g id="text_4">
      <!-- 2 -->
      <g transform="translate(260.120938 358.237656)scale(0.1 -0.1)">
       <use xlink:href="#DejaVuSans-32"/>
      </g>
     </g>
    </g>
    <g id="xtick_5">
     <g id="line2d_5">
      <g>
       <use xlink:href="#mb17798f0cf" x="330.262188" y="343.639219" style="stroke: #000000; stroke-width: 0.8"/>
      </g>
     </g>
     <g id="text_5">
      <!-- 4 -->
      <g transform="translate(327.080938 358.237656)scale(0.1 -0.1)">
       <use xlink:href="#DejaVuSans-34"/>
      </g>
     </g>
    </g>
   </g>
   <g id="matplotlib.axis_2">
    <g id="ytick_1">
     <g id="line2d_6">
      <defs>
       <path id="m6065f5771b" d="M 0 0 
L -3.5 0 
" style="stroke: #000000; stroke-width: 0.8"/>
      </defs>
      <g>
       <use xlink:href="#m6065f5771b" x="28.942188" y="343.639219" style="stroke: #000000; stroke-width: 0.8"/>
      </g>
     </g>
     <g id="text_6">
      <!-- −1 -->
      <g transform="translate(7.2 347.438438)scale(0.1 -0.1)">
       <defs>
        <path id="DejaVuSans-31" d="M 794 531 
L 1825 531 
L 1825 4091 
L 703 3866 
L 703 4441 
L 1819 4666 
L 2450 4666 
L 2450 531 
L 3481 531 
L 3481 0 
L 794 0 
L 794 531 
z
" transform="scale(0.015625)"/>
       </defs>
       <use xlink:href="#DejaVuSans-2212"/>
       <use xlink:href="#DejaVuSans-31" x="83.789062"/>
      </g>
     </g>
    </g>
    <g id="ytick_2">
     <g id="line2d_7">
      <g>
       <use xlink:href="#m6065f5771b" x="28.942188" y="277.111219" style="stroke: #000000; stroke-width: 0.8"/>
      </g>
     </g>
     <g id="text_7">
      <!-- 0 -->
      <g transform="translate(15.579688 280.910438)scale(0.1 -0.1)">
       <use xlink:href="#DejaVuSans-30"/>
      </g>
     </g>
    </g>
    <g id="ytick_3">
     <g id="line2d_8">
      <g>
       <use xlink:href="#m6065f5771b" x="28.942188" y="210.583219" style="stroke: #000000; stroke-width: 0.8"/>
      </g>
     </g>
     <g id="text_8">
      <!-- 1 -->
      <g transform="translate(15.579688 214.382438)scale(0.1 -0.1)">
       <use xlink:href="#DejaVuSans-31"/>
      </g>
     </g>
    </g>
    <g id="ytick_4">
     <g id="line2d_9">
      <g>
       <use xlink:href="#m6065f5771b" x="28.942188" y="144.055219" style="stroke: #000000; stroke-width: 0.8"/>
      </g>
     </g>
     <g id="text_9">
      <!-- 2 -->
      <g transform="translate(15.579688 147.854437)scale(0.1 -0.1)">
       <use xlink:href="#DejaVuSans-32"/>
      </g>
     </g>
    </g>
    <g id="ytick_5">
     <g id="line2d_10">
      <g>
       <use xlink:href="#m6065f5771b" x="28.942188" y="77.527219" style="stroke: #000000; stroke-width: 0.8"/>
      </g>
     </g>
     <g id="text_10">
      <!-- 3 -->
      <g transform="translate(15.579688 81.326437)scale(0.1 -0.1)">
       <defs>
        <path id="DejaVuSans-33" d="M 2597 2516 
Q 3050 2419 3304 2112 
Q 3559 1806 3559 1356 
Q 3559 666 3084 287 
Q 2609 -91 1734 -91 
Q 1441 -91 1130 -33 
Q 819 25 488 141 
L 488 750 
Q 750 597 1062 519 
Q 1375 441 1716 441 
Q 2309 441 2620 675 
Q 2931 909 2931 1356 
Q 2931 1769 2642 2001 
Q 2353 2234 1838 2234 
L 1294 2234 
L 1294 2753 
L 1863 2753 
Q 2328 2753 2575 2939 
Q 2822 3125 2822 3475 
Q 2822 3834 2567 4026 
Q 2313 4219 1838 4219 
Q 1578 4219 1281 4162 
Q 984 4106 628 3988 
L 628 4550 
Q 988 4650 1302 4700 
Q 1616 4750 1894 4750 
Q 2613 4750 3031 4423 
Q 3450 4097 3450 3541 
Q 3450 3153 3228 2886 
Q 3006 2619 2597 2516 
z
" transform="scale(0.015625)"/>
       </defs>
       <use xlink:href="#DejaVuSans-33"/>
      </g>
     </g>
    </g>
    <g id="ytick_6">
     <g id="line2d_11">
      <g>
       <use xlink:href="#m6065f5771b" x="28.942188" y="10.999219" style="stroke: #000000; stroke-width: 0.8"/>
      </g>
     </g>
     <g id="text_11">
      <!-- 4 -->
      <g transform="translate(15.579688 14.798437)scale(0.1 -0.1)">
       <use xlink:href="#DejaVuSans-34"/>
      </g>
     </g>
    </g>
   </g>
   <g id="line2d_12">
    <path d="M 28.942187 274.55245 
L 48.360587 273.871703 
L 64.096187 273.104111 
L 76.818587 272.271023 
L 87.532187 271.357446 
L 96.906587 270.337094 
L 104.941787 269.240784 
L 111.972587 268.060283 
L 118.333787 266.762948 
L 124.025387 265.368773 
L 129.047387 263.911481 
L 133.734587 262.317027 
L 138.086987 260.593193 
L 142.104587 258.755629 
L 145.787387 256.82891 
L 149.470187 254.635543 
L 152.818187 252.37962 
L 156.166187 249.845645 
L 159.514187 247.008051 
L 162.862187 243.847219 
L 166.210187 240.355418 
L 169.558187 236.545365 
L 173.575787 231.618877 
L 184.289387 218.216035 
L 186.632987 215.744186 
L 188.641787 213.925731 
L 190.315787 212.671079 
L 191.989787 211.688857 
L 193.328987 211.117766 
L 194.668187 210.749124 
L 196.007387 210.589871 
L 197.346587 210.64304 
L 198.685787 210.907616 
L 200.024987 211.378584 
L 201.698987 212.243824 
L 203.372987 213.393184 
L 205.046987 214.795745 
L 207.055787 216.762888 
L 209.399387 219.366231 
L 212.747387 223.463932 
L 223.795787 237.331262 
L 227.478587 241.437456 
L 230.826587 244.830176 
L 234.174587 247.892544 
L 237.522587 250.636628 
L 240.870587 253.084349 
L 244.218587 255.262225 
L 247.901387 257.379341 
L 251.584187 259.239358 
L 255.601787 261.014047 
L 259.954187 262.679982 
L 264.641387 264.222192 
L 269.663387 265.633156 
L 275.020187 266.911449 
L 281.046587 268.122042 
L 287.742587 269.240784 
L 295.442987 270.295943 
L 304.147787 271.259208 
L 314.191787 272.142883 
L 325.909787 272.947207 
L 339.971387 273.682665 
L 357.046187 274.343831 
L 363.407387 274.54258 
L 363.407387 274.54258 
" clip-path="url(#p19da3e991d)" style="fill: none; stroke: #404040; stroke-width: 2; stroke-linecap: square"/>
   </g>
   <g id="line2d_13">
    <path d="M 28.942187 271.99368 
L 43.003787 271.056724 
L 55.056587 270.036933 
L 65.435387 268.94231 
L 74.474987 267.773693 
L 82.510187 266.517588 
L 89.540987 265.205813 
L 95.902187 263.805619 
L 101.928587 262.248612 
L 107.285387 260.63492 
L 112.307387 258.884619 
L 116.994587 257.002709 
L 121.346987 255.000078 
L 125.364587 252.894562 
L 129.047387 250.711743 
L 132.395387 248.485329 
L 135.743387 245.995015 
L 138.756587 243.497638 
L 141.769787 240.726303 
L 144.782987 237.647463 
L 147.796187 234.224514 
L 150.474587 230.861436 
L 153.152987 227.167148 
L 155.831387 223.11341 
L 158.509787 218.67387 
L 161.188187 213.826558 
L 163.866587 208.557455 
L 166.879787 202.124744 
L 170.227787 194.385529 
L 173.910587 185.278794 
L 183.619787 160.844179 
L 185.963387 155.720835 
L 187.972187 151.882042 
L 189.646187 149.172757 
L 190.985387 147.376429 
L 192.324587 145.944026 
L 193.328987 145.124313 
L 194.333387 144.532502 
L 195.337787 144.174861 
L 196.342187 144.055219 
L 197.346587 144.174861 
L 198.350987 144.532502 
L 199.355387 145.124313 
L 200.359787 145.944026 
L 201.698987 147.376429 
L 203.038187 149.172757 
L 204.712187 151.882042 
L 206.386187 155.041494 
L 208.394987 159.32085 
L 211.073387 165.636688 
L 215.090987 175.82011 
L 221.452187 191.955379 
L 224.800187 199.865355 
L 227.813387 206.472017 
L 230.826587 212.549134 
L 233.839787 218.090637 
L 236.518187 222.580071 
L 239.196587 226.680655 
L 241.874987 230.41835 
L 244.888187 234.224514 
L 247.901387 237.647463 
L 250.914587 240.726303 
L 253.927787 243.497638 
L 257.275787 246.256938 
L 260.623787 248.719276 
L 263.971787 250.921155 
L 267.654587 253.080443 
L 271.672187 255.163837 
L 275.689787 257.002709 
L 280.042187 258.758667 
L 284.729387 260.415776 
L 289.751387 261.96385 
L 295.442987 263.480666 
L 301.469387 264.858834 
L 308.165387 266.165153 
L 315.865787 267.430828 
L 324.235787 268.577831 
L 333.944987 269.674641 
L 344.993387 270.687613 
L 357.715787 271.620388 
L 363.407387 271.973941 
L 363.407387 271.973941 
" clip-path="url(#p19da3e991d)" style="fill: none; stroke: #808080; stroke-width: 2; stroke-linecap: square"/>
   </g>
   <g id="line2d_14">
    <path d="M 28.942187 269.434911 
L 40.660187 268.288852 
L 50.704187 267.093199 
L 59.743787 265.801037 
L 67.778987 264.435678 
L 75.144587 262.960741 
L 81.840587 261.391487 
L 87.866987 259.752466 
L 93.223787 258.078567 
L 98.245787 256.288466 
L 102.932987 254.390166 
L 107.285387 252.39677 
L 111.302987 250.327172 
L 115.320587 248.002065 
L 119.003387 245.611716 
L 122.351387 243.192013 
L 125.699387 240.504407 
L 129.047387 237.512004 
L 132.060587 234.523305 
L 135.073787 231.218234 
L 138.086987 227.557142 
L 140.765387 223.968179 
L 143.443787 220.028505 
L 146.122187 215.700757 
L 148.800587 210.944928 
L 151.478987 205.719031 
L 154.157387 199.980287 
L 156.835787 193.687042 
L 159.514187 186.801716 
L 162.192587 179.295104 
L 164.870987 171.152416 
L 167.884187 161.242423 
L 171.232187 149.377459 
L 175.249787 134.23485 
L 182.615387 106.249135 
L 184.958987 98.208386 
L 186.967787 92.037035 
L 188.641787 87.554756 
L 189.980987 84.481164 
L 191.320187 81.919043 
L 192.659387 79.913313 
L 193.663787 78.796433 
L 194.668187 78.024934 
L 195.672587 77.60702 
L 196.342187 77.527219 
L 197.011787 77.60702 
L 197.681387 77.846043 
L 198.685787 78.500412 
L 199.690187 79.503298 
L 200.694587 80.844133 
L 201.698987 82.509035 
L 203.038187 85.203526 
L 204.377387 88.397149 
L 206.051387 93.010121 
L 208.060187 99.308101 
L 210.403787 107.454639 
L 213.751787 120.007944 
L 222.121787 151.815218 
L 225.469787 163.511128 
L 228.482987 173.247772 
L 231.496187 182.184227 
L 234.174587 189.455195 
L 236.852987 196.114506 
L 239.531387 202.195112 
L 242.209787 207.736545 
L 244.888187 212.781162 
L 247.566587 217.371628 
L 250.244987 221.549291 
L 252.923387 225.353225 
L 255.936587 229.230977 
L 258.949787 232.728644 
L 261.962987 235.888482 
L 264.976187 238.748124 
L 268.324187 241.613842 
L 271.672187 244.190147 
L 275.354987 246.731287 
L 279.037787 249.004359 
L 283.055387 251.218457 
L 287.407787 253.346692 
L 291.760187 255.233006 
L 296.447387 257.032548 
L 301.469387 258.732641 
L 307.160987 260.41815 
L 313.187387 261.96839 
L 319.883387 263.45614 
L 327.248987 264.857856 
L 335.284187 266.158605 
L 344.323787 267.39267 
L 354.367787 268.537434 
L 363.407387 269.405303 
L 363.407387 269.405303 
" clip-path="url(#p19da3e991d)" style="fill: none; stroke: #bfbfbf; stroke-width: 2; stroke-linecap: square"/>
   </g>
   <g id="patch_3">
    <path d="M 28.942188 343.639219 
L 28.942188 10.999219 
" style="fill: none; stroke: #000000; stroke-width: 0.8; stroke-linejoin: miter; stroke-linecap: square"/>
   </g>
   <g id="patch_4">
    <path d="M 363.742188 343.639219 
L 363.742188 10.999219 
" style="fill: none; stroke: #000000; stroke-width: 0.8; stroke-linejoin: miter; stroke-linecap: square"/>
   </g>
   <g id="patch_5">
    <path d="M 28.942187 343.639219 
L 363.742188 343.639219 
" style="fill: none; stroke: #000000; stroke-width: 0.8; stroke-linejoin: miter; stroke-linecap: square"/>
   </g>
   <g id="patch_6">
    <path d="M 28.942187 10.999219 
L 363.742188 10.999219 
" style="fill: none; stroke: #000000; stroke-width: 0.8; stroke-linejoin: miter; stroke-linecap: square"/>
   </g>
  </g>
 </g>
 <defs>
  <clipPath id="p19da3e991d">
   <rect x="28.942188" y="10.999219" width="334.8" height="332.64"/>
  </clipPath>
 </defs>
</svg>
