<?xml version="1.0" encoding="utf-8" standalone="no"?>
<!DOCTYPE svg PUBLIC "-//W3C//DTD SVG 1.1//EN"
  "http://www.w3.org/Graphics/SVG/1.1/DTD/svg11.dtd">
<svg xmlns:xlink="http://www.w3.org/1999/xlink" width="377.304688pt" height="363.718125pt" viewBox="0 0 377.304688 363.718125" xmlns="http://www.w3.org/2000/svg" version="1.1">
 <metadata>
  <rdf:RDF xmlns:dc="http://purl.org/dc/elements/1.1/" xmlns:cc="http://creativecommons.org/ns#" xmlns:rdf="http://www.w3.org/1999/02/22-rdf-syntax-ns#">
   <cc:Work>
    <dc:type rdf:resource="http://purl.org/dc/dcmitype/StillImage"/>
    <dc:date>2022-05-03T11:23:43.466360</dc:date>
    <dc:format>image/svg+xml</dc:format>
    <dc:creator>
     <cc:Agent>
      <dc:title>Matplotlib v3.5.2, https://matplotlib.org/</dc:title>
     </cc:Agent>
    </dc:creator>
   </cc:Work>
  </rdf:RDF>
 </metadata>
 <defs>
  <style type="text/css">*{stroke-linejoin: round; stroke-linecap: butt}</style>
 </defs>
 <g id="figure_1">
  <g id="patch_1">
   <path d="M 0 363.718125 
L 377.304688 363.718125 
L 377.304688 0 
L 0 0 
L 0 363.718125 
z
" style="fill: none"/>
  </g>
  <g id="axes_1">
   <g id="patch_2">
    <path d="M 28.942188 339.84 
L 363.742188 339.84 
L 363.742188 7.2 
L 28.942188 7.2 
z
" style="fill: #ffffff"/>
   </g>
   <g id="matplotlib.axis_1">
    <g id="xtick_1">
     <g id="line2d_1">
      <defs>
       <path id="m62fc028161" d="M 0 0 
L 0 3.5 
" style="stroke: #000000; stroke-width: 0.8"/>
      </defs>
      <g>
       <use xlink:href="#m62fc028161" x="28.942188" y="339.84" style="stroke: #000000; stroke-width: 0.8"/>
      </g>
     </g>
     <g id="text_1">
      <!-- 0 -->
      <g transform="translate(25.760938 354.438438)scale(0.1 -0.1)">
       <defs>
        <path id="DejaVuSans-30" d="M 2034 4250 
Q 1547 4250 1301 3770 
Q 1056 3291 1056 2328 
Q 1056 1369 1301 889 
Q 1547 409 2034 409 
Q 2525 409 2770 889 
Q 3016 1369 3016 2328 
Q 3016 3291 2770 3770 
Q 2525 4250 2034 4250 
z
M 2034 4750 
Q 2819 4750 3233 4129 
Q 3647 3509 3647 2328 
Q 3647 1150 3233 529 
Q 2819 -91 2034 -91 
Q 1250 -91 836 529 
Q 422 1150 422 2328 
Q 422 3509 836 4129 
Q 1250 4750 2034 4750 
z
" transform="scale(0.015625)"/>
       </defs>
       <use xlink:href="#DejaVuSans-30"/>
      </g>
     </g>
    </g>
    <g id="xtick_2">
     <g id="line2d_2">
      <g>
       <use xlink:href="#m62fc028161" x="95.902188" y="339.84" style="stroke: #000000; stroke-width: 0.8"/>
      </g>
     </g>
     <g id="text_2">
      <!-- 2 -->
      <g transform="translate(92.720938 354.438438)scale(0.1 -0.1)">
       <defs>
        <path id="DejaVuSans-32" d="M 1228 531 
L 3431 531 
L 3431 0 
L 469 0 
L 469 531 
Q 828 903 1448 1529 
Q 2069 2156 2228 2338 
Q 2531 2678 2651 2914 
Q 2772 3150 2772 3378 
Q 2772 3750 2511 3984 
Q 2250 4219 1831 4219 
Q 1534 4219 1204 4116 
Q 875 4013 500 3803 
L 500 4441 
Q 881 4594 1212 4672 
Q 1544 4750 1819 4750 
Q 2544 4750 2975 4387 
Q 3406 4025 3406 3419 
Q 3406 3131 3298 2873 
Q 3191 2616 2906 2266 
Q 2828 2175 2409 1742 
Q 1991 1309 1228 531 
z
" transform="scale(0.015625)"/>
       </defs>
       <use xlink:href="#DejaVuSans-32"/>
      </g>
     </g>
    </g>
    <g id="xtick_3">
     <g id="line2d_3">
      <g>
       <use xlink:href="#m62fc028161" x="162.862188" y="339.84" style="stroke: #000000; stroke-width: 0.8"/>
      </g>
     </g>
     <g id="text_3">
      <!-- 4 -->
      <g transform="translate(159.680937 354.438438)scale(0.1 -0.1)">
       <defs>
        <path id="DejaVuSans-34" d="M 2419 4116 
L 825 1625 
L 2419 1625 
L 2419 4116 
z
M 2253 4666 
L 3047 4666 
L 3047 1625 
L 3713 1625 
L 3713 1100 
L 3047 1100 
L 3047 0 
L 2419 0 
L 2419 1100 
L 313 1100 
L 313 1709 
L 2253 4666 
z
" transform="scale(0.015625)"/>
       </defs>
       <use xlink:href="#DejaVuSans-34"/>
      </g>
     </g>
    </g>
    <g id="xtick_4">
     <g id="line2d_4">
      <g>
       <use xlink:href="#m62fc028161" x="229.822188" y="339.84" style="stroke: #000000; stroke-width: 0.8"/>
      </g>
     </g>
     <g id="text_4">
      <!-- 6 -->
      <g transform="translate(226.640938 354.438438)scale(0.1 -0.1)">
       <defs>
        <path id="DejaVuSans-36" d="M 2113 2584 
Q 1688 2584 1439 2293 
Q 1191 2003 1191 1497 
Q 1191 994 1439 701 
Q 1688 409 2113 409 
Q 2538 409 2786 701 
Q 3034 994 3034 1497 
Q 3034 2003 2786 2293 
Q 2538 2584 2113 2584 
z
M 3366 4563 
L 3366 3988 
Q 3128 4100 2886 4159 
Q 2644 4219 2406 4219 
Q 1781 4219 1451 3797 
Q 1122 3375 1075 2522 
Q 1259 2794 1537 2939 
Q 1816 3084 2150 3084 
Q 2853 3084 3261 2657 
Q 3669 2231 3669 1497 
Q 3669 778 3244 343 
Q 2819 -91 2113 -91 
Q 1303 -91 875 529 
Q 447 1150 447 2328 
Q 447 3434 972 4092 
Q 1497 4750 2381 4750 
Q 2619 4750 2861 4703 
Q 3103 4656 3366 4563 
z
" transform="scale(0.015625)"/>
       </defs>
       <use xlink:href="#DejaVuSans-36"/>
      </g>
     </g>
    </g>
    <g id="xtick_5">
     <g id="line2d_5">
      <g>
       <use xlink:href="#m62fc028161" x="296.782188" y="339.84" style="stroke: #000000; stroke-width: 0.8"/>
      </g>
     </g>
     <g id="text_5">
      <!-- 8 -->
      <g transform="translate(293.600938 354.438438)scale(0.1 -0.1)">
       <defs>
        <path id="DejaVuSans-38" d="M 2034 2216 
Q 1584 2216 1326 1975 
Q 1069 1734 1069 1313 
Q 1069 891 1326 650 
Q 1584 409 2034 409 
Q 2484 409 2743 651 
Q 3003 894 3003 1313 
Q 3003 1734 2745 1975 
Q 2488 2216 2034 2216 
z
M 1403 2484 
Q 997 2584 770 2862 
Q 544 3141 544 3541 
Q 544 4100 942 4425 
Q 1341 4750 2034 4750 
Q 2731 4750 3128 4425 
Q 3525 4100 3525 3541 
Q 3525 3141 3298 2862 
Q 3072 2584 2669 2484 
Q 3125 2378 3379 2068 
Q 3634 1759 3634 1313 
Q 3634 634 3220 271 
Q 2806 -91 2034 -91 
Q 1263 -91 848 271 
Q 434 634 434 1313 
Q 434 1759 690 2068 
Q 947 2378 1403 2484 
z
M 1172 3481 
Q 1172 3119 1398 2916 
Q 1625 2713 2034 2713 
Q 2441 2713 2670 2916 
Q 2900 3119 2900 3481 
Q 2900 3844 2670 4047 
Q 2441 4250 2034 4250 
Q 1625 4250 1398 4047 
Q 1172 3844 1172 3481 
z
" transform="scale(0.015625)"/>
       </defs>
       <use xlink:href="#DejaVuSans-38"/>
      </g>
     </g>
    </g>
    <g id="xtick_6">
     <g id="line2d_6">
      <g>
       <use xlink:href="#m62fc028161" x="363.742188" y="339.84" style="stroke: #000000; stroke-width: 0.8"/>
      </g>
     </g>
     <g id="text_6">
      <!-- 10 -->
      <g transform="translate(357.379688 354.438438)scale(0.1 -0.1)">
       <defs>
        <path id="DejaVuSans-31" d="M 794 531 
L 1825 531 
L 1825 4091 
L 703 3866 
L 703 4441 
L 1819 4666 
L 2450 4666 
L 2450 531 
L 3481 531 
L 3481 0 
L 794 0 
L 794 531 
z
" transform="scale(0.015625)"/>
       </defs>
       <use xlink:href="#DejaVuSans-31"/>
       <use xlink:href="#DejaVuSans-30" x="63.623047"/>
      </g>
     </g>
    </g>
   </g>
   <g id="matplotlib.axis_2">
    <g id="ytick_1">
     <g id="line2d_7">
      <defs>
       <path id="m0131aa5c21" d="M 0 0 
L -3.5 0 
" style="stroke: #000000; stroke-width: 0.8"/>
      </defs>
      <g>
       <use xlink:href="#m0131aa5c21" x="28.942188" y="306.576" style="stroke: #000000; stroke-width: 0.8"/>
      </g>
     </g>
     <g id="text_7">
      <!-- −4 -->
      <g transform="translate(7.2 310.375219)scale(0.1 -0.1)">
       <defs>
        <path id="DejaVuSans-2212" d="M 678 2272 
L 4684 2272 
L 4684 1741 
L 678 1741 
L 678 2272 
z
" transform="scale(0.015625)"/>
       </defs>
       <use xlink:href="#DejaVuSans-2212"/>
       <use xlink:href="#DejaVuSans-34" x="83.789062"/>
      </g>
     </g>
    </g>
    <g id="ytick_2">
     <g id="line2d_8">
      <g>
       <use xlink:href="#m0131aa5c21" x="28.942188" y="240.048" style="stroke: #000000; stroke-width: 0.8"/>
      </g>
     </g>
     <g id="text_8">
      <!-- −2 -->
      <g transform="translate(7.2 243.847219)scale(0.1 -0.1)">
       <use xlink:href="#DejaVuSans-2212"/>
       <use xlink:href="#DejaVuSans-32" x="83.789062"/>
      </g>
     </g>
    </g>
    <g id="ytick_3">
     <g id="line2d_9">
      <g>
       <use xlink:href="#m0131aa5c21" x="28.942188" y="173.52" style="stroke: #000000; stroke-width: 0.8"/>
      </g>
     </g>
     <g id="text_9">
      <!-- 0 -->
      <g transform="translate(15.579688 177.319219)scale(0.1 -0.1)">
       <use xlink:href="#DejaVuSans-30"/>
      </g>
     </g>
    </g>
    <g id="ytick_4">
     <g id="line2d_10">
      <g>
       <use xlink:href="#m0131aa5c21" x="28.942188" y="106.992" style="stroke: #000000; stroke-width: 0.8"/>
      </g>
     </g>
     <g id="text_10">
      <!-- 2 -->
      <g transform="translate(15.579688 110.791219)scale(0.1 -0.1)">
       <use xlink:href="#DejaVuSans-32"/>
      </g>
     </g>
    </g>
    <g id="ytick_5">
     <g id="line2d_11">
      <g>
       <use xlink:href="#m0131aa5c21" x="28.942188" y="40.464" style="stroke: #000000; stroke-width: 0.8"/>
      </g>
     </g>
     <g id="text_11">
      <!-- 4 -->
      <g transform="translate(15.579688 44.263219)scale(0.1 -0.1)">
       <use xlink:href="#DejaVuSans-34"/>
      </g>
     </g>
    </g>
   </g>
   <g id="line2d_12">
    <path d="M 28.942188 173.52 
L 35.972988 162.745211 
L 39.655788 157.494946 
L 42.668988 153.547622 
L 45.347388 150.371157 
L 47.690988 147.889647 
L 50.034588 145.717704 
L 52.043388 144.12242 
L 54.052188 142.788071 
L 56.060988 141.726501 
L 58.069788 140.947132 
L 59.743788 140.518297 
L 61.417788 140.292927 
L 63.091788 140.272414 
L 64.765788 140.456883 
L 66.439788 140.845197 
L 68.113788 141.434962 
L 70.122588 142.40339 
L 72.131388 143.648011 
L 74.140188 145.157778 
L 76.483788 147.236284 
L 78.827388 149.632247 
L 81.505788 152.721928 
L 84.518988 156.587246 
L 87.866988 161.274705 
L 92.219388 167.80095 
L 104.941788 187.208614 
L 108.289788 191.782695 
L 111.302988 195.517878 
L 113.981388 198.471695 
L 116.324988 200.734932 
L 118.668588 202.669465 
L 120.677388 204.04819 
L 122.686188 205.155944 
L 124.694988 205.982895 
L 126.368988 206.452147 
L 128.042988 206.718361 
L 129.716988 206.779896 
L 131.390988 206.636373 
L 133.064988 206.288677 
L 134.738988 205.73895 
L 136.747788 204.817458 
L 138.756588 203.618167 
L 140.765388 202.151723 
L 142.774188 200.431141 
L 145.117788 198.123089 
L 147.461388 195.517878 
L 150.139788 192.217141 
L 153.152988 188.154137 
L 156.835788 182.80036 
L 162.192588 174.564847 
L 169.892988 162.745211 
L 173.575788 157.494946 
L 176.588988 153.547622 
L 179.267388 150.371157 
L 181.610988 147.889647 
L 183.954588 145.717704 
L 185.963388 144.12242 
L 187.972188 142.788071 
L 189.980988 141.726501 
L 191.989788 140.947132 
L 193.663788 140.518297 
L 195.337787 140.292927 
L 197.011788 140.272414 
L 198.685788 140.456883 
L 200.359788 140.845197 
L 202.033788 141.434962 
L 204.042588 142.40339 
L 206.051388 143.648011 
L 208.060188 145.157778 
L 210.403788 147.236284 
L 212.747388 149.632247 
L 215.425788 152.721928 
L 218.438988 156.587246 
L 221.786988 161.274705 
L 226.139387 167.80095 
L 238.861788 187.208614 
L 242.209788 191.782695 
L 245.222988 195.517878 
L 247.901388 198.471695 
L 250.244988 200.734932 
L 252.588588 202.669465 
L 254.597388 204.04819 
L 256.606188 205.155944 
L 258.614988 205.982895 
L 260.288988 206.452147 
L 261.962988 206.718361 
L 263.636988 206.779896 
L 265.310988 206.636373 
L 266.984988 206.288677 
L 268.658988 205.73895 
L 270.667788 204.817458 
L 272.676588 203.618167 
L 274.685388 202.151723 
L 276.694188 200.431141 
L 279.037788 198.123089 
L 281.381388 195.517878 
L 284.059788 192.217141 
L 287.072988 188.154137 
L 290.755788 182.80036 
L 296.112588 174.564847 
L 303.812988 162.745211 
L 307.495788 157.494946 
L 310.508988 153.547622 
L 313.187388 150.371157 
L 315.530988 147.889647 
L 317.874588 145.717704 
L 319.883388 144.12242 
L 321.892188 142.788071 
L 323.900988 141.726501 
L 325.909788 140.947132 
L 327.583788 140.518297 
L 329.257788 140.292927 
L 330.931787 140.272414 
L 332.605788 140.456883 
L 334.279788 140.845197 
L 335.953788 141.434962 
L 337.962588 142.40339 
L 339.971388 143.648011 
L 341.980187 145.157778 
L 344.323788 147.236284 
L 346.667388 149.632247 
L 349.345788 152.721928 
L 352.358988 156.587246 
L 355.706988 161.274705 
L 360.059388 167.80095 
L 363.407388 172.997512 
L 363.407388 172.997512 
" clip-path="url(#pecbb49ffa4)" style="fill: none; stroke: #404040; stroke-width: 2; stroke-linecap: square"/>
   </g>
   <g id="line2d_13">
    <path d="M 28.942188 173.52 
L 35.638188 152.961717 
L 39.320988 142.389565 
L 42.334188 134.415823 
L 45.012588 127.97845 
L 47.356188 122.931712 
L 49.364988 119.090136 
L 51.373788 115.731683 
L 53.047788 113.323666 
L 54.721788 111.28678 
L 56.395788 109.633582 
L 57.734988 108.59421 
L 59.074188 107.81107 
L 60.413388 107.287254 
L 61.752588 107.024828 
L 63.091788 107.024828 
L 64.430988 107.287254 
L 65.770188 107.81107 
L 67.109388 108.59421 
L 68.448588 109.633582 
L 69.787788 110.925084 
L 71.461788 112.886163 
L 73.135788 115.221069 
L 74.809788 117.915408 
L 76.818588 121.599526 
L 78.827388 125.744494 
L 81.170988 131.113457 
L 83.849388 137.872515 
L 86.862588 146.142773 
L 90.545388 156.975159 
L 96.236988 174.564976 
L 102.598188 194.078283 
L 106.280988 204.650435 
L 109.294188 212.624177 
L 111.972588 219.06155 
L 114.316188 224.108288 
L 116.324988 227.949864 
L 118.333788 231.308317 
L 120.007788 233.716334 
L 121.681788 235.75322 
L 123.355788 237.406418 
L 124.694988 238.44579 
L 126.034188 239.22893 
L 127.373388 239.752746 
L 128.712588 240.015172 
L 130.051788 240.015172 
L 131.390988 239.752746 
L 132.730187 239.22893 
L 134.069388 238.44579 
L 135.408588 237.406418 
L 136.747788 236.114916 
L 138.421788 234.153837 
L 140.095788 231.818931 
L 141.769788 229.124592 
L 143.778588 225.440474 
L 145.787388 221.295506 
L 148.130988 215.926543 
L 150.809388 209.167485 
L 153.822587 200.897227 
L 157.505388 190.064841 
L 163.196988 172.475024 
L 169.558188 152.961717 
L 173.240988 142.389565 
L 176.254188 134.415823 
L 178.932588 127.97845 
L 181.276187 122.931712 
L 183.284988 119.090136 
L 185.293788 115.731683 
L 186.967787 113.323666 
L 188.641788 111.28678 
L 190.315788 109.633582 
L 191.654988 108.59421 
L 192.994188 107.81107 
L 194.333388 107.287254 
L 195.672588 107.024828 
L 197.011788 107.024828 
L 198.350988 107.287254 
L 199.690188 107.81107 
L 201.029387 108.59421 
L 202.368587 109.633582 
L 203.707787 110.925084 
L 205.381788 112.886163 
L 207.055788 115.221069 
L 208.729788 117.915408 
L 210.738587 121.599526 
L 212.747388 125.744494 
L 215.090988 131.113457 
L 217.769387 137.872515 
L 220.782588 146.142773 
L 224.465388 156.975159 
L 230.156988 174.564976 
L 236.518188 194.078283 
L 240.200988 204.650435 
L 243.214188 212.624177 
L 245.892588 219.06155 
L 248.236188 224.108288 
L 250.244988 227.949864 
L 252.253788 231.308317 
L 253.927788 233.716334 
L 255.601788 235.75322 
L 257.275788 237.406418 
L 258.614988 238.44579 
L 259.954188 239.22893 
L 261.293388 239.752746 
L 262.632588 240.015172 
L 263.971788 240.015172 
L 265.310988 239.752746 
L 266.650188 239.22893 
L 267.989388 238.44579 
L 269.328588 237.406418 
L 270.667788 236.114916 
L 272.341788 234.153837 
L 274.015788 231.818931 
L 275.689788 229.124592 
L 277.698588 225.440474 
L 279.707388 221.295506 
L 282.050988 215.926543 
L 284.729388 209.167485 
L 287.742588 200.897227 
L 291.425387 190.064841 
L 297.116987 172.475024 
L 303.478187 152.961717 
L 307.160988 142.389565 
L 310.174188 134.415823 
L 312.852588 127.97845 
L 315.196188 122.931712 
L 317.204988 119.090136 
L 319.213788 115.731683 
L 320.887788 113.323666 
L 322.561788 111.28678 
L 324.235788 109.633582 
L 325.574988 108.59421 
L 326.914188 107.81107 
L 328.253388 107.287254 
L 329.592588 107.024828 
L 330.931787 107.024828 
L 332.270988 107.287254 
L 333.610187 107.81107 
L 334.949388 108.59421 
L 336.288588 109.633582 
L 337.627788 110.925084 
L 339.301787 112.886163 
L 340.975788 115.221069 
L 342.649788 117.915408 
L 344.658588 121.599526 
L 346.667388 125.744494 
L 349.010988 131.113457 
L 351.689388 137.872515 
L 354.702588 146.142773 
L 358.385388 156.975159 
L 363.407388 172.475024 
L 363.407388 172.475024 
" clip-path="url(#pecbb49ffa4)" style="fill: none; stroke: #808080; stroke-width: 2; stroke-linecap: square"/>
   </g>
   <g id="line2d_14">
    <path d="M 28.942188 173.52 
L 35.638188 142.682576 
L 39.320988 126.824348 
L 42.334188 114.863734 
L 45.012588 105.207675 
L 47.356188 97.637568 
L 49.364988 91.875203 
L 51.373788 86.837524 
L 53.047788 83.225499 
L 54.721788 80.170169 
L 56.060988 78.139503 
L 57.400188 76.485261 
L 58.739388 75.21397 
L 59.743788 74.51489 
L 60.748188 74.035625 
L 61.752588 73.777241 
L 62.756988 73.740311 
L 63.761388 73.924917 
L 64.765788 74.330648 
L 65.770188 74.956605 
L 66.774588 75.801397 
L 68.113788 77.264886 
L 69.452988 79.10825 
L 70.792188 81.324214 
L 72.466188 84.604677 
L 74.140188 88.433333 
L 75.814188 92.786576 
L 77.822988 98.664916 
L 79.831788 105.207675 
L 82.175388 113.602865 
L 84.853788 124.077189 
L 87.866988 136.784115 
L 91.884588 154.820844 
L 105.276588 216.009367 
L 108.289788 228.308085 
L 110.968188 238.32972 
L 113.311788 246.265237 
L 115.320588 252.371149 
L 117.329388 257.777172 
L 119.003388 261.71274 
L 120.677388 265.10457 
L 122.351388 267.93175 
L 123.690588 269.775114 
L 125.029788 271.238603 
L 126.368988 272.316441 
L 127.373388 272.86912 
L 128.377788 273.201218 
L 129.382188 273.312 
L 130.386588 273.201218 
L 131.390988 272.86912 
L 132.395388 272.316441 
L 133.399788 271.544409 
L 134.738988 270.176851 
L 136.078188 268.427832 
L 137.417388 266.304255 
L 138.756588 263.814501 
L 140.430588 260.202476 
L 142.104588 256.056025 
L 144.113388 250.411058 
L 146.122187 244.0836 
L 148.465788 235.914215 
L 151.144188 225.661177 
L 154.157388 213.152182 
L 157.840188 196.81598 
L 163.866588 168.819153 
L 169.558188 142.682576 
L 173.240988 126.824348 
L 176.254188 114.863734 
L 178.932588 105.207675 
L 181.276187 97.637568 
L 183.284988 91.875203 
L 185.293788 86.837524 
L 186.967787 83.225499 
L 188.641788 80.170169 
L 189.980988 78.139503 
L 191.320188 76.485261 
L 192.659388 75.21397 
L 193.663788 74.51489 
L 194.668188 74.035625 
L 195.672588 73.777241 
L 196.676987 73.740311 
L 197.681388 73.924917 
L 198.685788 74.330648 
L 199.690188 74.956605 
L 200.694588 75.801397 
L 202.033788 77.264886 
L 203.372988 79.10825 
L 204.712188 81.324214 
L 206.386188 84.604677 
L 208.060188 88.433333 
L 209.734188 92.786576 
L 211.742988 98.664916 
L 213.751788 105.207675 
L 216.095388 113.602865 
L 218.773788 124.077189 
L 221.786988 136.784115 
L 225.804588 154.820844 
L 239.196588 216.009367 
L 242.209788 228.308085 
L 244.888188 238.32972 
L 247.231788 246.265237 
L 249.240588 252.371149 
L 251.249388 257.777172 
L 252.923388 261.71274 
L 254.597388 265.10457 
L 256.271388 267.93175 
L 257.610588 269.775114 
L 258.949788 271.238603 
L 260.288988 272.316441 
L 261.293388 272.86912 
L 262.297788 273.201218 
L 263.302188 273.312 
L 264.306588 273.201218 
L 265.310988 272.86912 
L 266.315388 272.316441 
L 267.319788 271.544409 
L 268.658988 270.176851 
L 269.998188 268.427832 
L 271.337388 266.304255 
L 272.676588 263.814501 
L 274.350588 260.202476 
L 276.024588 256.056025 
L 278.033388 250.411058 
L 280.042188 244.0836 
L 282.385788 235.914215 
L 285.064188 225.661177 
L 288.077388 213.152182 
L 291.760188 196.81598 
L 297.786587 168.819153 
L 303.478187 142.682576 
L 307.160988 126.824348 
L 310.174188 114.863734 
L 312.852588 105.207675 
L 315.196188 97.637568 
L 317.204988 91.875203 
L 319.213788 86.837524 
L 320.887788 83.225499 
L 322.561788 80.170169 
L 323.900988 78.139503 
L 325.240187 76.485261 
L 326.579388 75.21397 
L 327.583788 74.51489 
L 328.588188 74.035625 
L 329.592588 73.777241 
L 330.596988 73.740311 
L 331.601388 73.924917 
L 332.605788 74.330648 
L 333.610187 74.956605 
L 334.614588 75.801397 
L 335.953788 77.264886 
L 337.292988 79.10825 
L 338.632188 81.324214 
L 340.306188 84.604677 
L 341.980187 88.433333 
L 343.654188 92.786576 
L 345.662988 98.664916 
L 347.671787 105.207675 
L 350.015388 113.602865 
L 352.693788 124.077189 
L 355.706988 136.784115 
L 359.724588 154.820844 
L 363.407388 171.952535 
L 363.407388 171.952535 
" clip-path="url(#pecbb49ffa4)" style="fill: none; stroke: #bfbfbf; stroke-width: 2; stroke-linecap: square"/>
   </g>
   <g id="patch_3">
    <path d="M 28.942188 339.84 
L 28.942188 7.2 
" style="fill: none; stroke: #000000; stroke-width: 0.8; stroke-linejoin: miter; stroke-linecap: square"/>
   </g>
   <g id="patch_4">
    <path d="M 363.742188 339.84 
L 363.742188 7.2 
" style="fill: none; stroke: #000000; stroke-width: 0.8; stroke-linejoin: miter; stroke-linecap: square"/>
   </g>
   <g id="patch_5">
    <path d="M 28.942188 339.84 
L 363.742188 339.84 
" style="fill: none; stroke: #000000; stroke-width: 0.8; stroke-linejoin: miter; stroke-linecap: square"/>
   </g>
   <g id="patch_6">
    <path d="M 28.942188 7.2 
L 363.742188 7.2 
" style="fill: none; stroke: #000000; stroke-width: 0.8; stroke-linejoin: miter; stroke-linecap: square"/>
   </g>
  </g>
 </g>
 <defs>
  <clipPath id="pecbb49ffa4">
   <rect x="28.942188" y="7.2" width="334.8" height="332.64"/>
  </clipPath>
 </defs>
</svg>
