<?xml version="1.0" encoding="utf-8" standalone="no"?>
<!DOCTYPE svg PUBLIC "-//W3C//DTD SVG 1.1//EN"
  "http://www.w3.org/Graphics/SVG/1.1/DTD/svg11.dtd">
<svg xmlns:xlink="http://www.w3.org/1999/xlink" width="370.942187pt" height="367.517344pt" viewBox="0 0 370.942187 367.517344" xmlns="http://www.w3.org/2000/svg" version="1.1">
 <metadata>
  <rdf:RDF xmlns:dc="http://purl.org/dc/elements/1.1/" xmlns:cc="http://creativecommons.org/ns#" xmlns:rdf="http://www.w3.org/1999/02/22-rdf-syntax-ns#">
   <cc:Work>
    <dc:type rdf:resource="http://purl.org/dc/dcmitype/StillImage"/>
    <dc:date>2022-05-03T11:23:37.913289</dc:date>
    <dc:format>image/svg+xml</dc:format>
    <dc:creator>
     <cc:Agent>
      <dc:title>Matplotlib v3.5.2, https://matplotlib.org/</dc:title>
     </cc:Agent>
    </dc:creator>
   </cc:Work>
  </rdf:RDF>
 </metadata>
 <defs>
  <style type="text/css">*{stroke-linejoin: round; stroke-linecap: butt}</style>
 </defs>
 <g id="figure_1">
  <g id="patch_1">
   <path d="M 0 367.517344 
L 370.942187 367.517344 
L 370.942187 0 
L 0 0 
L 0 367.517344 
z
" style="fill: none"/>
  </g>
  <g id="axes_1">
   <g id="patch_2">
    <path d="M 28.942188 343.639219 
L 363.742188 343.639219 
L 363.742188 10.999219 
L 28.942188 10.999219 
z
" style="fill: #ffffff"/>
   </g>
   <g id="matplotlib.axis_1">
    <g id="xtick_1">
     <g id="line2d_1">
      <defs>
       <path id="m26bacfb641" d="M 0 0 
L 0 3.5 
" style="stroke: #000000; stroke-width: 0.8"/>
      </defs>
      <g>
       <use xlink:href="#m26bacfb641" x="62.422188" y="343.639219" style="stroke: #000000; stroke-width: 0.8"/>
      </g>
     </g>
     <g id="text_1">
      <!-- −4 -->
      <g transform="translate(55.051094 358.237656)scale(0.1 -0.1)">
       <defs>
        <path id="DejaVuSans-2212" d="M 678 2272 
L 4684 2272 
L 4684 1741 
L 678 1741 
L 678 2272 
z
" transform="scale(0.015625)"/>
        <path id="DejaVuSans-34" d="M 2419 4116 
L 825 1625 
L 2419 1625 
L 2419 4116 
z
M 2253 4666 
L 3047 4666 
L 3047 1625 
L 3713 1625 
L 3713 1100 
L 3047 1100 
L 3047 0 
L 2419 0 
L 2419 1100 
L 313 1100 
L 313 1709 
L 2253 4666 
z
" transform="scale(0.015625)"/>
       </defs>
       <use xlink:href="#DejaVuSans-2212"/>
       <use xlink:href="#DejaVuSans-34" x="83.789062"/>
      </g>
     </g>
    </g>
    <g id="xtick_2">
     <g id="line2d_2">
      <g>
       <use xlink:href="#m26bacfb641" x="129.382188" y="343.639219" style="stroke: #000000; stroke-width: 0.8"/>
      </g>
     </g>
     <g id="text_2">
      <!-- −2 -->
      <g transform="translate(122.011094 358.237656)scale(0.1 -0.1)">
       <defs>
        <path id="DejaVuSans-32" d="M 1228 531 
L 3431 531 
L 3431 0 
L 469 0 
L 469 531 
Q 828 903 1448 1529 
Q 2069 2156 2228 2338 
Q 2531 2678 2651 2914 
Q 2772 3150 2772 3378 
Q 2772 3750 2511 3984 
Q 2250 4219 1831 4219 
Q 1534 4219 1204 4116 
Q 875 4013 500 3803 
L 500 4441 
Q 881 4594 1212 4672 
Q 1544 4750 1819 4750 
Q 2544 4750 2975 4387 
Q 3406 4025 3406 3419 
Q 3406 3131 3298 2873 
Q 3191 2616 2906 2266 
Q 2828 2175 2409 1742 
Q 1991 1309 1228 531 
z
" transform="scale(0.015625)"/>
       </defs>
       <use xlink:href="#DejaVuSans-2212"/>
       <use xlink:href="#DejaVuSans-32" x="83.789062"/>
      </g>
     </g>
    </g>
    <g id="xtick_3">
     <g id="line2d_3">
      <g>
       <use xlink:href="#m26bacfb641" x="196.342188" y="343.639219" style="stroke: #000000; stroke-width: 0.8"/>
      </g>
     </g>
     <g id="text_3">
      <!-- 0 -->
      <g transform="translate(193.160938 358.237656)scale(0.1 -0.1)">
       <defs>
        <path id="DejaVuSans-30" d="M 2034 4250 
Q 1547 4250 1301 3770 
Q 1056 3291 1056 2328 
Q 1056 1369 1301 889 
Q 1547 409 2034 409 
Q 2525 409 2770 889 
Q 3016 1369 3016 2328 
Q 3016 3291 2770 3770 
Q 2525 4250 2034 4250 
z
M 2034 4750 
Q 2819 4750 3233 4129 
Q 3647 3509 3647 2328 
Q 3647 1150 3233 529 
Q 2819 -91 2034 -91 
Q 1250 -91 836 529 
Q 422 1150 422 2328 
Q 422 3509 836 4129 
Q 1250 4750 2034 4750 
z
" transform="scale(0.015625)"/>
       </defs>
       <use xlink:href="#DejaVuSans-30"/>
      </g>
     </g>
    </g>
    <g id="xtick_4">
     <g id="line2d_4">
      <g>
       <use xlink:href="#m26bacfb641" x="263.302188" y="343.639219" style="stroke: #000000; stroke-width: 0.8"/>
      </g>
     </g>
     <g id="text_4">
      <!-- 2 -->
      <g transform="translate(260.120938 358.237656)scale(0.1 -0.1)">
       <use xlink:href="#DejaVuSans-32"/>
      </g>
     </g>
    </g>
    <g id="xtick_5">
     <g id="line2d_5">
      <g>
       <use xlink:href="#m26bacfb641" x="330.262188" y="343.639219" style="stroke: #000000; stroke-width: 0.8"/>
      </g>
     </g>
     <g id="text_5">
      <!-- 4 -->
      <g transform="translate(327.080938 358.237656)scale(0.1 -0.1)">
       <use xlink:href="#DejaVuSans-34"/>
      </g>
     </g>
    </g>
   </g>
   <g id="matplotlib.axis_2">
    <g id="ytick_1">
     <g id="line2d_6">
      <defs>
       <path id="mcd13919f75" d="M 0 0 
L -3.5 0 
" style="stroke: #000000; stroke-width: 0.8"/>
      </defs>
      <g>
       <use xlink:href="#mcd13919f75" x="28.942188" y="343.639219" style="stroke: #000000; stroke-width: 0.8"/>
      </g>
     </g>
     <g id="text_6">
      <!-- −1 -->
      <g transform="translate(7.2 347.438438)scale(0.1 -0.1)">
       <defs>
        <path id="DejaVuSans-31" d="M 794 531 
L 1825 531 
L 1825 4091 
L 703 3866 
L 703 4441 
L 1819 4666 
L 2450 4666 
L 2450 531 
L 3481 531 
L 3481 0 
L 794 0 
L 794 531 
z
" transform="scale(0.015625)"/>
       </defs>
       <use xlink:href="#DejaVuSans-2212"/>
       <use xlink:href="#DejaVuSans-31" x="83.789062"/>
      </g>
     </g>
    </g>
    <g id="ytick_2">
     <g id="line2d_7">
      <g>
       <use xlink:href="#mcd13919f75" x="28.942188" y="277.111219" style="stroke: #000000; stroke-width: 0.8"/>
      </g>
     </g>
     <g id="text_7">
      <!-- 0 -->
      <g transform="translate(15.579688 280.910438)scale(0.1 -0.1)">
       <use xlink:href="#DejaVuSans-30"/>
      </g>
     </g>
    </g>
    <g id="ytick_3">
     <g id="line2d_8">
      <g>
       <use xlink:href="#mcd13919f75" x="28.942188" y="210.583219" style="stroke: #000000; stroke-width: 0.8"/>
      </g>
     </g>
     <g id="text_8">
      <!-- 1 -->
      <g transform="translate(15.579688 214.382438)scale(0.1 -0.1)">
       <use xlink:href="#DejaVuSans-31"/>
      </g>
     </g>
    </g>
    <g id="ytick_4">
     <g id="line2d_9">
      <g>
       <use xlink:href="#mcd13919f75" x="28.942188" y="144.055219" style="stroke: #000000; stroke-width: 0.8"/>
      </g>
     </g>
     <g id="text_9">
      <!-- 2 -->
      <g transform="translate(15.579688 147.854437)scale(0.1 -0.1)">
       <use xlink:href="#DejaVuSans-32"/>
      </g>
     </g>
    </g>
    <g id="ytick_5">
     <g id="line2d_10">
      <g>
       <use xlink:href="#mcd13919f75" x="28.942188" y="77.527219" style="stroke: #000000; stroke-width: 0.8"/>
      </g>
     </g>
     <g id="text_10">
      <!-- 3 -->
      <g transform="translate(15.579688 81.326437)scale(0.1 -0.1)">
       <defs>
        <path id="DejaVuSans-33" d="M 2597 2516 
Q 3050 2419 3304 2112 
Q 3559 1806 3559 1356 
Q 3559 666 3084 287 
Q 2609 -91 1734 -91 
Q 1441 -91 1130 -33 
Q 819 25 488 141 
L 488 750 
Q 750 597 1062 519 
Q 1375 441 1716 441 
Q 2309 441 2620 675 
Q 2931 909 2931 1356 
Q 2931 1769 2642 2001 
Q 2353 2234 1838 2234 
L 1294 2234 
L 1294 2753 
L 1863 2753 
Q 2328 2753 2575 2939 
Q 2822 3125 2822 3475 
Q 2822 3834 2567 4026 
Q 2313 4219 1838 4219 
Q 1578 4219 1281 4162 
Q 984 4106 628 3988 
L 628 4550 
Q 988 4650 1302 4700 
Q 1616 4750 1894 4750 
Q 2613 4750 3031 4423 
Q 3450 4097 3450 3541 
Q 3450 3153 3228 2886 
Q 3006 2619 2597 2516 
z
" transform="scale(0.015625)"/>
       </defs>
       <use xlink:href="#DejaVuSans-33"/>
      </g>
     </g>
    </g>
    <g id="ytick_6">
     <g id="line2d_11">
      <g>
       <use xlink:href="#mcd13919f75" x="28.942188" y="10.999219" style="stroke: #000000; stroke-width: 0.8"/>
      </g>
     </g>
     <g id="text_11">
      <!-- 4 -->
      <g transform="translate(15.579688 14.798437)scale(0.1 -0.1)">
       <use xlink:href="#DejaVuSans-34"/>
      </g>
     </g>
    </g>
   </g>
   <g id="line2d_12">
    <path d="M 28.942187 277.110971 
L 76.483787 277.001581 
L 87.866987 276.761693 
L 95.567387 276.394038 
L 101.593787 275.898126 
L 106.615787 275.277359 
L 110.968187 274.534871 
L 114.985787 273.637683 
L 118.668587 272.600652 
L 122.351387 271.324457 
L 125.699387 269.929255 
L 129.047387 268.286357 
L 132.395387 266.375537 
L 135.743387 264.180925 
L 139.091387 261.692644 
L 142.439387 258.908465 
L 145.787387 255.835363 
L 149.470187 252.142522 
L 153.487787 247.786731 
L 158.509787 241.977093 
L 172.906187 225.039451 
L 176.254187 221.542362 
L 179.267387 218.696207 
L 181.945787 216.457987 
L 184.289387 214.757525 
L 186.632987 213.322719 
L 188.976587 212.173872 
L 190.985387 211.42935 
L 192.994187 210.915029 
L 195.002987 210.63642 
L 197.011787 210.596523 
L 199.020587 210.795768 
L 201.029387 211.232009 
L 203.038187 211.900561 
L 205.046987 212.794288 
L 207.390587 214.108813 
L 209.734187 215.698134 
L 212.077787 217.539978 
L 214.756187 219.92157 
L 217.769387 222.903522 
L 221.452187 226.89325 
L 226.139387 232.339668 
L 239.866187 248.533627 
L 243.883787 252.836804 
L 247.566587 256.472416 
L 250.914587 259.488782 
L 254.262587 262.214024 
L 257.610587 264.643125 
L 260.958587 266.779973 
L 264.306587 268.635776 
L 267.654587 270.227404 
L 271.002587 271.575768 
L 274.685387 272.806022 
L 278.368187 273.803122 
L 282.385787 274.66346 
L 286.738187 275.373414 
L 291.760187 275.96511 
L 297.786587 276.436073 
L 305.152187 276.772853 
L 315.196187 276.989206 
L 331.936187 277.092969 
L 363.407387 277.110958 
L 363.407387 277.110958 
" clip-path="url(#pf6a6170c3f)" style="fill: none; stroke: #404040; stroke-width: 2; stroke-linecap: square"/>
   </g>
   <g id="line2d_13">
    <path d="M 28.942187 277.110723 
L 70.457387 276.997954 
L 81.170987 276.752792 
L 88.201787 276.389182 
L 93.893387 275.878811 
L 98.580587 275.238165 
L 102.598187 274.471242 
L 106.280987 273.540667 
L 109.628987 272.461903 
L 112.642187 271.265146 
L 115.655387 269.81964 
L 118.333787 268.297406 
L 121.012187 266.525349 
L 123.690587 264.478122 
L 126.368987 262.131157 
L 129.047387 259.461496 
L 131.725787 256.448726 
L 134.404187 253.076003 
L 137.082587 249.331114 
L 139.760987 245.207579 
L 142.439387 240.70571 
L 145.452587 235.199306 
L 148.800587 228.562389 
L 152.483387 220.697064 
L 156.500987 211.567322 
L 162.192587 198.022512 
L 169.892987 179.721554 
L 173.575787 171.520541 
L 176.588987 165.310265 
L 179.267387 160.281195 
L 181.610987 156.331293 
L 183.619787 153.32326 
L 185.628587 150.696225 
L 187.302587 148.817785 
L 188.976587 147.236525 
L 190.650587 145.964053 
L 192.324587 145.009781 
L 193.663787 144.480317 
L 195.002987 144.161621 
L 196.342187 144.055219 
L 197.681387 144.161621 
L 199.020587 144.480317 
L 200.359787 145.009781 
L 201.698987 145.747482 
L 203.372987 146.956994 
L 205.046987 148.477356 
L 206.720987 150.29739 
L 208.729787 152.858184 
L 210.738587 155.804756 
L 213.082187 159.689711 
L 215.425787 164.005823 
L 218.104187 169.392853 
L 221.452187 176.675281 
L 225.469787 185.978208 
L 240.535787 221.434054 
L 244.218587 229.249304 
L 247.566587 235.833614 
L 250.579787 241.288937 
L 253.592987 246.27407 
L 256.271387 250.30269 
L 258.949787 253.953687 
L 261.628187 257.235077 
L 264.306587 260.160333 
L 266.984987 262.74729 
L 269.663387 265.01709 
L 272.341787 266.993178 
L 275.020187 268.700389 
L 277.698587 270.164148 
L 280.711787 271.551375 
L 283.724987 272.697489 
L 287.072987 273.728364 
L 290.755787 274.615517 
L 294.773387 275.344772 
L 299.460587 275.952204 
L 304.817387 276.412167 
L 311.513387 276.752792 
L 320.552987 276.974698 
L 335.618987 277.087982 
L 363.407387 277.110697 
L 363.407387 277.110697 
" clip-path="url(#pf6a6170c3f)" style="fill: none; stroke: #808080; stroke-width: 2; stroke-linecap: square"/>
   </g>
   <g id="line2d_14">
    <path d="M 28.942187 277.110475 
L 67.109387 276.995149 
L 77.488187 276.74518 
L 84.518987 276.356617 
L 89.875787 275.839925 
L 94.228187 275.20526 
L 97.910987 274.461548 
L 101.258987 273.573666 
L 104.272187 272.561865 
L 107.285387 271.30787 
L 109.963787 269.954617 
L 112.642187 268.34211 
L 114.985787 266.690613 
L 117.329387 264.788616 
L 119.672987 262.610689 
L 122.016587 260.131235 
L 124.360187 257.325009 
L 126.703787 254.167707 
L 129.047387 250.636634 
L 131.390987 246.711444 
L 133.734587 242.37492 
L 136.078187 237.613805 
L 138.756587 231.642018 
L 141.434987 225.101261 
L 144.113387 217.999145 
L 147.126587 209.363879 
L 150.474587 199.027216 
L 154.157387 186.874611 
L 158.509787 171.70884 
L 172.571387 121.993361 
L 175.584587 112.426113 
L 178.262987 104.60467 
L 180.606587 98.397498 
L 182.615387 93.616626 
L 184.624187 89.384891 
L 186.298187 86.309417 
L 187.972187 83.667773 
L 189.646187 81.479247 
L 190.985387 80.065614 
L 192.324587 78.959063 
L 193.663787 78.164867 
L 195.002987 77.686822 
L 196.007387 77.537198 
L 197.011787 77.567132 
L 198.016187 77.776543 
L 199.020587 78.164867 
L 200.359787 78.959063 
L 201.698987 80.065614 
L 203.038187 81.479247 
L 204.377387 83.193255 
L 206.051387 85.745721 
L 207.725387 88.736116 
L 209.399387 92.142782 
L 211.408187 96.745745 
L 213.751787 102.766375 
L 216.095387 109.409788 
L 218.773787 117.65248 
L 222.121787 128.729935 
L 226.474187 143.993319 
L 238.861787 188.008914 
L 242.544587 200.093524 
L 245.892587 210.355818 
L 248.905787 218.917047 
L 251.918987 226.789579 
L 254.597387 233.188346 
L 257.275787 239.018041 
L 259.954187 244.284749 
L 262.297787 248.443113 
L 264.641387 252.197087 
L 266.984987 255.565326 
L 269.328587 258.569279 
L 271.672187 261.232414 
L 274.015787 263.579517 
L 276.359387 265.636053 
L 278.702987 267.427605 
L 281.381387 269.182946 
L 284.059787 270.661509 
L 286.738187 271.897803 
L 289.751387 273.039011 
L 293.099387 274.045797 
L 296.782187 274.894041 
L 300.799787 275.575444 
L 305.486987 276.12863 
L 311.178587 276.554789 
L 318.209387 276.846362 
L 328.588187 277.029544 
L 348.006587 277.104235 
L 363.407387 277.110437 
L 363.407387 277.110437 
" clip-path="url(#pf6a6170c3f)" style="fill: none; stroke: #bfbfbf; stroke-width: 2; stroke-linecap: square"/>
   </g>
   <g id="patch_3">
    <path d="M 28.942188 343.639219 
L 28.942188 10.999219 
" style="fill: none; stroke: #000000; stroke-width: 0.8; stroke-linejoin: miter; stroke-linecap: square"/>
   </g>
   <g id="patch_4">
    <path d="M 363.742188 343.639219 
L 363.742188 10.999219 
" style="fill: none; stroke: #000000; stroke-width: 0.8; stroke-linejoin: miter; stroke-linecap: square"/>
   </g>
   <g id="patch_5">
    <path d="M 28.942187 343.639219 
L 363.742188 343.639219 
" style="fill: none; stroke: #000000; stroke-width: 0.8; stroke-linejoin: miter; stroke-linecap: square"/>
   </g>
   <g id="patch_6">
    <path d="M 28.942187 10.999219 
L 363.742188 10.999219 
" style="fill: none; stroke: #000000; stroke-width: 0.8; stroke-linejoin: miter; stroke-linecap: square"/>
   </g>
  </g>
 </g>
 <defs>
  <clipPath id="pf6a6170c3f">
   <rect x="28.942188" y="10.999219" width="334.8" height="332.64"/>
  </clipPath>
 </defs>
</svg>
